module.exports = { "header": { "formatType": 1, "trackCount": 11, "ticksPerBeat": 192 }, "tracks": [[{ "deltaTime": 0, "type": "meta", "subtype": "timeSignature", "numerator": 4, "denominator": 4, "metronome": 24, "thirtyseconds": 8 }, { "deltaTime": 0, "type": "meta", "subtype": "setTempo", "microsecondsPerBeat": 500000 }, { "deltaTime": 0, "type": "meta", "subtype": "keySignature", "key": 0, "scale": 0 }, { "deltaTime": 0, "type": "meta", "subtype": "text", "text": " " }, { "deltaTime": 0, "type": "meta", "subtype": "text", "text": "       " }, { "deltaTime": 0, "type": "meta", "subtype": "text", "text": "       " }, { "deltaTime": 0, "type": "meta", "subtype": "text", "text": "       " }, { "deltaTime": 0, "type": "meta", "subtype": "text", "text": "       " }, { "deltaTime": 0, "type": "meta", "subtype": "text", "text": "       " }, { "deltaTime": 0, "type": "meta", "subtype": "text", "text": "       " }, { "deltaTime": 0, "type": "meta", "subtype": "text", "text": " " }, { "deltaTime": 0, "type": "meta", "subtype": "text", "text": "       " }, { "deltaTime": 0, "type": "meta", "subtype": "text", "text": "       " }, { "deltaTime": 0, "type": "meta", "subtype": "text", "text": "       " }, { "deltaTime": 0, "type": "meta", "subtype": "text", "text": "       " }, { "deltaTime": 0, "type": "meta", "subtype": "text", "text": "       " }, { "deltaTime": 0, "type": "meta", "subtype": "text", "text": "       " }, { "deltaTime": 0, "type": "meta", "subtype": "text", "text": "NCN Music Thailand 3781748" }, { "deltaTime": 0, "type": "meta", "subtype": "text", "text": "(C)1992 Roland Corporation" }, { "deltaTime": 0, "type": "meta", "subtype": "text", "text": "NCN Music Thailand 3781748" }, { "deltaTime": 0, "type": "meta", "subtype": "text", "text": "(C)1992 Roland Corporation" }, { "deltaTime": 0, "type": "meta", "subtype": "text", "text": "NCN Music Thailand 3781748" }, { "deltaTime": 0, "type": "meta", "subtype": "text", "text": "(C)1992 Roland Corporation" }, { "deltaTime": 0, "type": "meta", "subtype": "text", "text": "NCN Music Thailand 3781748" }, { "deltaTime": 0, "type": "meta", "subtype": "text", "text": "(C)1992 Roland Corporation" }, { "deltaTime": 0, "type": "meta", "subtype": "text", "text": "NCN Music Thailand 3781748" }, { "deltaTime": 0, "type": "meta", "subtype": "endOfTrack" }], [{ "deltaTime": 0, "type": "meta", "subtype": "unknown", "data": "\u0000" }, { "deltaTime": 0, "type": "meta", "subtype": "trackName", "text": "Str.....            " }, { "deltaTime": 0, "channel": 1, "type": "channel", "subtype": "programChange", "programNumber": 48 }, { "deltaTime": 0, "channel": 1, "type": "channel", "subtype": "controller", "controllerType": 10, "value": 30 }, { "deltaTime": 0, "channel": 1, "type": "channel", "subtype": "controller", "controllerType": 0, "value": 0 }, { "deltaTime": 0, "channel": 1, "type": "channel", "subtype": "controller", "controllerType": 93, "value": 0 }, { "deltaTime": 0, "channel": 1, "type": "channel", "subtype": "controller", "controllerType": 91, "value": 60 }, { "deltaTime": 562, "channel": 1, "type": "channel", "noteNumber": 69, "velocity": 84, "subtype": "noteOn" }, { "deltaTime": 52, "channel": 1, "type": "channel", "noteNumber": 71, "velocity": 88, "subtype": "noteOn" }, { "deltaTime": 40, "channel": 1, "type": "channel", "subtype": "noteOff", "noteNumber": 69, "velocity": 64 }, { "deltaTime": 2, "channel": 1, "type": "channel", "noteNumber": 74, "velocity": 77, "subtype": "noteOn" }, { "deltaTime": 46, "channel": 1, "type": "channel", "subtype": "noteOff", "noteNumber": 71, "velocity": 64 }, { "deltaTime": 8, "channel": 1, "type": "channel", "noteNumber": 76, "velocity": 75, "subtype": "noteOn" }, { "deltaTime": 28, "channel": 1, "type": "channel", "subtype": "noteOff", "noteNumber": 74, "velocity": 64 }, { "deltaTime": 56, "channel": 1, "type": "channel", "noteNumber": 78, "velocity": 107, "subtype": "noteOn" }, { "deltaTime": 22, "channel": 1, "type": "channel", "subtype": "noteOff", "noteNumber": 76, "velocity": 64 }, { "deltaTime": 706, "channel": 1, "type": "channel", "noteNumber": 69, "velocity": 106, "subtype": "noteOn" }, { "deltaTime": 2, "channel": 1, "type": "channel", "subtype": "noteOff", "noteNumber": 78, "velocity": 64 }, { "deltaTime": 380, "channel": 1, "type": "channel", "noteNumber": 71, "velocity": 91, "subtype": "noteOn" }, { "deltaTime": 36, "channel": 1, "type": "channel", "subtype": "noteOff", "noteNumber": 69, "velocity": 64 }, { "deltaTime": 154, "channel": 1, "type": "channel", "noteNumber": 69, "velocity": 90, "subtype": "noteOn" }, { "deltaTime": 24, "channel": 1, "type": "channel", "subtype": "noteOff", "noteNumber": 71, "velocity": 64 }, { "deltaTime": 78, "channel": 1, "type": "channel", "noteNumber": 71, "velocity": 86, "subtype": "noteOn" }, { "deltaTime": 42, "channel": 1, "type": "channel", "subtype": "noteOff", "noteNumber": 69, "velocity": 64 }, { "deltaTime": 62, "channel": 1, "type": "channel", "noteNumber": 74, "velocity": 107, "subtype": "noteOn" }, { "deltaTime": 20, "channel": 1, "type": "channel", "subtype": "noteOff", "noteNumber": 71, "velocity": 64 }, { "deltaTime": 1460, "channel": 1, "type": "channel", "subtype": "noteOff", "noteNumber": 74, "velocity": 64 }, { "deltaTime": 6402, "channel": 1, "type": "channel", "noteNumber": 66, "velocity": 96, "subtype": "noteOn" }, { "deltaTime": 90, "channel": 1, "type": "channel", "noteNumber": 69, "velocity": 74, "subtype": "noteOn" }, { "deltaTime": 18, "channel": 1, "type": "channel", "subtype": "noteOff", "noteNumber": 66, "velocity": 64 }, { "deltaTime": 80, "channel": 1, "type": "channel", "noteNumber": 71, "velocity": 84, "subtype": "noteOn" }, { "deltaTime": 38, "channel": 1, "type": "channel", "subtype": "noteOff", "noteNumber": 69, "velocity": 64 }, { "deltaTime": 134, "channel": 1, "type": "channel", "noteNumber": 74, "velocity": 68, "subtype": "noteOn" }, { "deltaTime": 30, "channel": 1, "type": "channel", "subtype": "noteOff", "noteNumber": 71, "velocity": 64 }, { "deltaTime": 176, "channel": 1, "type": "channel", "noteNumber": 73, "velocity": 81, "subtype": "noteOn" }, { "deltaTime": 26, "channel": 1, "type": "channel", "subtype": "noteOff", "noteNumber": 74, "velocity": 64 }, { "deltaTime": 248, "channel": 1, "type": "channel", "noteNumber": 78, "velocity": 86, "subtype": "noteOn" }, { "deltaTime": 18, "channel": 1, "type": "channel", "subtype": "noteOff", "noteNumber": 73, "velocity": 64 }, { "deltaTime": 88, "channel": 1, "type": "channel", "noteNumber": 83, "velocity": 78, "subtype": "noteOn" }, { "deltaTime": 14, "channel": 1, "type": "channel", "subtype": "noteOff", "noteNumber": 78, "velocity": 64 }, { "deltaTime": 80, "channel": 1, "type": "channel", "noteNumber": 81, "velocity": 80, "subtype": "noteOn" }, { "deltaTime": 64, "channel": 1, "type": "channel", "subtype": "noteOff", "noteNumber": 83, "velocity": 64 }, { "deltaTime": 32, "channel": 1, "type": "channel", "noteNumber": 78, "velocity": 92, "subtype": "noteOn" }, { "deltaTime": 40, "channel": 1, "type": "channel", "subtype": "noteOff", "noteNumber": 81, "velocity": 64 }, { "deltaTime": 64, "channel": 1, "type": "channel", "noteNumber": 76, "velocity": 70, "subtype": "noteOn" }, { "deltaTime": 18, "channel": 1, "type": "channel", "subtype": "noteOff", "noteNumber": 78, "velocity": 64 }, { "deltaTime": 82, "channel": 1, "type": "channel", "noteNumber": 78, "velocity": 88, "subtype": "noteOn" }, { "deltaTime": 40, "channel": 1, "type": "channel", "subtype": "noteOff", "noteNumber": 76, "velocity": 64 }, { "deltaTime": 612, "channel": 1, "type": "channel", "subtype": "noteOff", "noteNumber": 78, "velocity": 64 }, { "deltaTime": 304, "channel": 1, "type": "channel", "noteNumber": 69, "velocity": 79, "subtype": "noteOn" }, { "deltaTime": 82, "channel": 1, "type": "channel", "noteNumber": 71, "velocity": 67, "subtype": "noteOn" }, { "deltaTime": 20, "channel": 1, "type": "channel", "subtype": "noteOff", "noteNumber": 69, "velocity": 64 }, { "deltaTime": 88, "channel": 1, "type": "channel", "noteNumber": 66, "velocity": 94, "subtype": "noteOn" }, { "deltaTime": 20, "channel": 1, "type": "channel", "subtype": "noteOff", "noteNumber": 71, "velocity": 64 }, { "deltaTime": 152, "channel": 1, "type": "channel", "noteNumber": 62, "velocity": 93, "subtype": "noteOn" }, { "deltaTime": 18, "channel": 1, "type": "channel", "subtype": "noteOff", "noteNumber": 66, "velocity": 64 }, { "deltaTime": 178, "channel": 1, "type": "channel", "noteNumber": 59, "velocity": 88, "subtype": "noteOn" }, { "deltaTime": 34, "channel": 1, "type": "channel", "subtype": "noteOff", "noteNumber": 62, "velocity": 64 }, { "deltaTime": 174, "channel": 1, "type": "channel", "noteNumber": 64, "velocity": 86, "subtype": "noteOn" }, { "deltaTime": 8, "channel": 1, "type": "channel", "subtype": "noteOff", "noteNumber": 59, "velocity": 64 }, { "deltaTime": 94, "channel": 1, "type": "channel", "noteNumber": 62, "velocity": 85, "subtype": "noteOn" }, { "deltaTime": 14, "channel": 1, "type": "channel", "subtype": "noteOff", "noteNumber": 64, "velocity": 64 }, { "deltaTime": 86, "channel": 1, "type": "channel", "noteNumber": 61, "velocity": 81, "subtype": "noteOn" }, { "deltaTime": 34, "channel": 1, "type": "channel", "subtype": "noteOff", "noteNumber": 62, "velocity": 64 }, { "deltaTime": 350, "channel": 1, "type": "channel", "subtype": "noteOff", "noteNumber": 61, "velocity": 64 }, { "deltaTime": 3454, "channel": 1, "type": "channel", "noteNumber": 61, "velocity": 83, "subtype": "noteOn" }, { "deltaTime": 378, "channel": 1, "type": "channel", "noteNumber": 62, "velocity": 88, "subtype": "noteOn" }, { "deltaTime": 18, "channel": 1, "type": "channel", "subtype": "noteOff", "noteNumber": 61, "velocity": 64 }, { "deltaTime": 1162, "channel": 1, "type": "channel", "subtype": "noteOff", "noteNumber": 62, "velocity": 64 }, { "deltaTime": 154, "channel": 1, "type": "channel", "noteNumber": 69, "velocity": 85, "subtype": "noteOn" }, { "deltaTime": 58, "channel": 1, "type": "channel", "noteNumber": 71, "velocity": 74, "subtype": "noteOn" }, { "deltaTime": 28, "channel": 1, "type": "channel", "subtype": "noteOff", "noteNumber": 69, "velocity": 64 }, { "deltaTime": 18, "channel": 1, "type": "channel", "noteNumber": 74, "velocity": 80, "subtype": "noteOn" }, { "deltaTime": 36, "channel": 1, "type": "channel", "noteNumber": 76, "velocity": 77, "subtype": "noteOn" }, { "deltaTime": 2, "channel": 1, "type": "channel", "subtype": "noteOff", "noteNumber": 71, "velocity": 64 }, { "deltaTime": 22, "channel": 1, "type": "channel", "subtype": "noteOff", "noteNumber": 74, "velocity": 64 }, { "deltaTime": 58, "channel": 1, "type": "channel", "noteNumber": 78, "velocity": 101, "subtype": "noteOn" }, { "deltaTime": 22, "channel": 1, "type": "channel", "subtype": "noteOff", "noteNumber": 76, "velocity": 64 }, { "deltaTime": 714, "channel": 1, "type": "channel", "noteNumber": 76, "velocity": 81, "subtype": "noteOn" }, { "deltaTime": 38, "channel": 1, "type": "channel", "subtype": "noteOff", "noteNumber": 78, "velocity": 64 }, { "deltaTime": 726, "channel": 1, "type": "channel", "noteNumber": 74, "velocity": 94, "subtype": "noteOn" }, { "deltaTime": 30, "channel": 1, "type": "channel", "subtype": "noteOff", "noteNumber": 76, "velocity": 64 }, { "deltaTime": 1444, "channel": 1, "type": "channel", "subtype": "noteOff", "noteNumber": 74, "velocity": 64 }, { "deltaTime": 10236, "channel": 1, "type": "channel", "noteNumber": 69, "velocity": 75, "subtype": "noteOn" }, { "deltaTime": 90, "channel": 1, "type": "channel", "noteNumber": 71, "velocity": 67, "subtype": "noteOn" }, { "deltaTime": 22, "channel": 1, "type": "channel", "subtype": "noteOff", "noteNumber": 69, "velocity": 64 }, { "deltaTime": 106, "channel": 1, "type": "channel", "noteNumber": 66, "velocity": 88, "subtype": "noteOn" }, { "deltaTime": 26, "channel": 1, "type": "channel", "subtype": "noteOff", "noteNumber": 71, "velocity": 64 }, { "deltaTime": 148, "channel": 1, "type": "channel", "subtype": "noteOff", "noteNumber": 66, "velocity": 64 }, { "deltaTime": 0, "channel": 1, "type": "channel", "noteNumber": 62, "velocity": 82, "subtype": "noteOn" }, { "deltaTime": 188, "channel": 1, "type": "channel", "noteNumber": 59, "velocity": 82, "subtype": "noteOn" }, { "deltaTime": 38, "channel": 1, "type": "channel", "subtype": "noteOff", "noteNumber": 62, "velocity": 64 }, { "deltaTime": 156, "channel": 1, "type": "channel", "noteNumber": 64, "velocity": 73, "subtype": "noteOn" }, { "deltaTime": 10, "channel": 1, "type": "channel", "subtype": "noteOff", "noteNumber": 59, "velocity": 64 }, { "deltaTime": 88, "channel": 1, "type": "channel", "noteNumber": 62, "velocity": 86, "subtype": "noteOn" }, { "deltaTime": 14, "channel": 1, "type": "channel", "subtype": "noteOff", "noteNumber": 64, "velocity": 64 }, { "deltaTime": 88, "channel": 1, "type": "channel", "noteNumber": 61, "velocity": 86, "subtype": "noteOn" }, { "deltaTime": 30, "channel": 1, "type": "channel", "subtype": "noteOff", "noteNumber": 62, "velocity": 64 }, { "deltaTime": 142, "channel": 1, "type": "channel", "noteNumber": 69, "velocity": 68, "subtype": "noteOn" }, { "deltaTime": 14, "channel": 1, "type": "channel", "subtype": "noteOff", "noteNumber": 61, "velocity": 64 }, { "deltaTime": 198, "channel": 1, "type": "channel", "noteNumber": 66, "velocity": 90, "subtype": "noteOn" }, { "deltaTime": 32, "channel": 1, "type": "channel", "subtype": "noteOff", "noteNumber": 69, "velocity": 64 }, { "deltaTime": 644, "channel": 1, "type": "channel", "subtype": "noteOff", "noteNumber": 66, "velocity": 64 }, { "deltaTime": 1810, "channel": 1, "type": "channel", "noteNumber": 69, "velocity": 72, "subtype": "noteOn" }, { "deltaTime": 84, "channel": 1, "type": "channel", "noteNumber": 71, "velocity": 62, "subtype": "noteOn" }, { "deltaTime": 26, "channel": 1, "type": "channel", "subtype": "noteOff", "noteNumber": 69, "velocity": 64 }, { "deltaTime": 84, "channel": 1, "type": "channel", "noteNumber": 69, "velocity": 72, "subtype": "noteOn" }, { "deltaTime": 36, "channel": 1, "type": "channel", "subtype": "noteOff", "noteNumber": 71, "velocity": 64 }, { "deltaTime": 162, "channel": 1, "type": "channel", "noteNumber": 66, "velocity": 95, "subtype": "noteOn" }, { "deltaTime": 30, "channel": 1, "type": "channel", "subtype": "noteOff", "noteNumber": 69, "velocity": 64 }, { "deltaTime": 152, "channel": 1, "type": "channel", "noteNumber": 64, "velocity": 96, "subtype": "noteOn" }, { "deltaTime": 2, "channel": 1, "type": "channel", "subtype": "noteOff", "noteNumber": 66, "velocity": 64 }, { "deltaTime": 782, "channel": 1, "type": "channel", "subtype": "noteOff", "noteNumber": 64, "velocity": 64 }, { "deltaTime": 4610, "channel": 1, "type": "channel", "noteNumber": 78, "velocity": 109, "subtype": "noteOn" }, { "deltaTime": 386, "channel": 1, "type": "channel", "noteNumber": 81, "velocity": 99, "subtype": "noteOn" }, { "deltaTime": 28, "channel": 1, "type": "channel", "subtype": "noteOff", "noteNumber": 78, "velocity": 64 }, { "deltaTime": 136, "channel": 1, "type": "channel", "noteNumber": 83, "velocity": 96, "subtype": "noteOn" }, { "deltaTime": 30, "channel": 1, "type": "channel", "subtype": "noteOff", "noteNumber": 81, "velocity": 64 }, { "deltaTime": 186, "channel": 1, "type": "channel", "noteNumber": 78, "velocity": 112, "subtype": "noteOn" }, { "deltaTime": 28, "channel": 1, "type": "channel", "subtype": "noteOff", "noteNumber": 83, "velocity": 64 }, { "deltaTime": 542, "channel": 1, "type": "channel", "noteNumber": 74, "velocity": 102, "subtype": "noteOn" }, { "deltaTime": 10, "channel": 1, "type": "channel", "subtype": "noteOff", "noteNumber": 78, "velocity": 64 }, { "deltaTime": 174, "channel": 1, "type": "channel", "noteNumber": 76, "velocity": 101, "subtype": "noteOn" }, { "deltaTime": 32, "channel": 1, "type": "channel", "subtype": "noteOff", "noteNumber": 74, "velocity": 64 }, { "deltaTime": 256, "channel": 1, "type": "channel", "noteNumber": 74, "velocity": 84, "subtype": "noteOn" }, { "deltaTime": 40, "channel": 1, "type": "channel", "subtype": "noteOff", "noteNumber": 76, "velocity": 64 }, { "deltaTime": 80, "channel": 1, "type": "channel", "noteNumber": 76, "velocity": 89, "subtype": "noteOn" }, { "deltaTime": 44, "channel": 1, "type": "channel", "subtype": "noteOff", "noteNumber": 74, "velocity": 64 }, { "deltaTime": 110, "channel": 1, "type": "channel", "noteNumber": 81, "velocity": 75, "subtype": "noteOn" }, { "deltaTime": 40, "channel": 1, "type": "channel", "subtype": "noteOff", "noteNumber": 76, "velocity": 64 }, { "deltaTime": 176, "channel": 1, "type": "channel", "noteNumber": 78, "velocity": 103, "subtype": "noteOn" }, { "deltaTime": 44, "channel": 1, "type": "channel", "subtype": "noteOff", "noteNumber": 81, "velocity": 64 }, { "deltaTime": 724, "channel": 1, "type": "channel", "noteNumber": 76, "velocity": 93, "subtype": "noteOn" }, { "deltaTime": 26, "channel": 1, "type": "channel", "subtype": "noteOff", "noteNumber": 78, "velocity": 64 }, { "deltaTime": 150, "channel": 1, "type": "channel", "subtype": "noteOff", "noteNumber": 76, "velocity": 64 }, { "deltaTime": 22, "channel": 1, "type": "channel", "noteNumber": 76, "velocity": 81, "subtype": "noteOn" }, { "deltaTime": 170, "channel": 1, "type": "channel", "subtype": "noteOff", "noteNumber": 76, "velocity": 64 }, { "deltaTime": 20, "channel": 1, "type": "channel", "noteNumber": 76, "velocity": 97, "subtype": "noteOn" }, { "deltaTime": 202, "channel": 1, "type": "channel", "noteNumber": 78, "velocity": 91, "subtype": "noteOn" }, { "deltaTime": 58, "channel": 1, "type": "channel", "subtype": "noteOff", "noteNumber": 76, "velocity": 64 }, { "deltaTime": 116, "channel": 1, "type": "channel", "noteNumber": 76, "velocity": 89, "subtype": "noteOn" }, { "deltaTime": 24, "channel": 1, "type": "channel", "subtype": "noteOff", "noteNumber": 78, "velocity": 64 }, { "deltaTime": 198, "channel": 1, "type": "channel", "noteNumber": 73, "velocity": 95, "subtype": "noteOn" }, { "deltaTime": 42, "channel": 1, "type": "channel", "subtype": "noteOff", "noteNumber": 76, "velocity": 64 }, { "deltaTime": 128, "channel": 1, "type": "channel", "noteNumber": 71, "velocity": 97, "subtype": "noteOn" }, { "deltaTime": 30, "channel": 1, "type": "channel", "subtype": "noteOff", "noteNumber": 73, "velocity": 64 }, { "deltaTime": 148, "channel": 1, "type": "channel", "noteNumber": 69, "velocity": 97, "subtype": "noteOn" }, { "deltaTime": 34, "channel": 1, "type": "channel", "subtype": "noteOff", "noteNumber": 71, "velocity": 64 }, { "deltaTime": 162, "channel": 1, "type": "channel", "noteNumber": 74, "velocity": 107, "subtype": "noteOn" }, { "deltaTime": 22, "channel": 1, "type": "channel", "subtype": "noteOff", "noteNumber": 69, "velocity": 64 }, { "deltaTime": 556, "channel": 1, "type": "channel", "noteNumber": 76, "velocity": 96, "subtype": "noteOn" }, { "deltaTime": 26, "channel": 1, "type": "channel", "subtype": "noteOff", "noteNumber": 74, "velocity": 64 }, { "deltaTime": 160, "channel": 1, "type": "channel", "noteNumber": 78, "velocity": 96, "subtype": "noteOn" }, { "deltaTime": 48, "channel": 1, "type": "channel", "subtype": "noteOff", "noteNumber": 76, "velocity": 64 }, { "deltaTime": 242, "channel": 1, "type": "channel", "noteNumber": 76, "velocity": 81, "subtype": "noteOn" }, { "deltaTime": 12, "channel": 1, "type": "channel", "subtype": "noteOff", "noteNumber": 78, "velocity": 64 }, { "deltaTime": 100, "channel": 1, "type": "channel", "noteNumber": 78, "velocity": 108, "subtype": "noteOn" }, { "deltaTime": 42, "channel": 1, "type": "channel", "subtype": "noteOff", "noteNumber": 76, "velocity": 64 }, { "deltaTime": 134, "channel": 1, "type": "channel", "noteNumber": 81, "velocity": 94, "subtype": "noteOn" }, { "deltaTime": 14, "channel": 1, "type": "channel", "subtype": "noteOff", "noteNumber": 78, "velocity": 64 }, { "deltaTime": 180, "channel": 1, "type": "channel", "noteNumber": 76, "velocity": 106, "subtype": "noteOn" }, { "deltaTime": 10, "channel": 1, "type": "channel", "subtype": "noteOff", "noteNumber": 81, "velocity": 64 }, { "deltaTime": 1474, "channel": 1, "type": "channel", "subtype": "noteOff", "noteNumber": 76, "velocity": 64 }, { "deltaTime": 1014, "channel": 1, "type": "channel", "noteNumber": 69, "velocity": 78, "subtype": "noteOn" }, { "deltaTime": 88, "channel": 1, "type": "channel", "noteNumber": 71, "velocity": 80, "subtype": "noteOn" }, { "deltaTime": 26, "channel": 1, "type": "channel", "subtype": "noteOff", "noteNumber": 69, "velocity": 64 }, { "deltaTime": 80, "channel": 1, "type": "channel", "noteNumber": 66, "velocity": 84, "subtype": "noteOn" }, { "deltaTime": 30, "channel": 1, "type": "channel", "subtype": "noteOff", "noteNumber": 71, "velocity": 64 }, { "deltaTime": 168, "channel": 1, "type": "channel", "noteNumber": 62, "velocity": 96, "subtype": "noteOn" }, { "deltaTime": 8, "channel": 1, "type": "channel", "subtype": "noteOff", "noteNumber": 66, "velocity": 64 }, { "deltaTime": 176, "channel": 1, "type": "channel", "noteNumber": 59, "velocity": 84, "subtype": "noteOn" }, { "deltaTime": 16, "channel": 1, "type": "channel", "subtype": "noteOff", "noteNumber": 62, "velocity": 64 }, { "deltaTime": 182, "channel": 1, "type": "channel", "noteNumber": 64, "velocity": 84, "subtype": "noteOn" }, { "deltaTime": 12, "channel": 1, "type": "channel", "subtype": "noteOff", "noteNumber": 59, "velocity": 64 }, { "deltaTime": 92, "channel": 1, "type": "channel", "noteNumber": 62, "velocity": 94, "subtype": "noteOn" }, { "deltaTime": 4, "channel": 1, "type": "channel", "subtype": "noteOff", "noteNumber": 64, "velocity": 64 }, { "deltaTime": 106, "channel": 1, "type": "channel", "noteNumber": 61, "velocity": 91, "subtype": "noteOn" }, { "deltaTime": 32, "channel": 1, "type": "channel", "subtype": "noteOff", "noteNumber": 62, "velocity": 64 }, { "deltaTime": 326, "channel": 1, "type": "channel", "subtype": "noteOff", "noteNumber": 61, "velocity": 64 }, { "deltaTime": 3456, "channel": 1, "type": "channel", "noteNumber": 61, "velocity": 92, "subtype": "noteOn" }, { "deltaTime": 376, "channel": 1, "type": "channel", "noteNumber": 62, "velocity": 99, "subtype": "noteOn" }, { "deltaTime": 8, "channel": 1, "type": "channel", "subtype": "noteOff", "noteNumber": 61, "velocity": 64 }, { "deltaTime": 1232, "channel": 1, "type": "channel", "subtype": "noteOff", "noteNumber": 62, "velocity": 64 }, { "deltaTime": 124, "channel": 1, "type": "channel", "noteNumber": 69, "velocity": 81, "subtype": "noteOn" }, { "deltaTime": 56, "channel": 1, "type": "channel", "noteNumber": 71, "velocity": 84, "subtype": "noteOn" }, { "deltaTime": 38, "channel": 1, "type": "channel", "subtype": "noteOff", "noteNumber": 69, "velocity": 64 }, { "deltaTime": 10, "channel": 1, "type": "channel", "noteNumber": 74, "velocity": 88, "subtype": "noteOn" }, { "deltaTime": 36, "channel": 1, "type": "channel", "subtype": "noteOff", "noteNumber": 71, "velocity": 64 }, { "deltaTime": 8, "channel": 1, "type": "channel", "noteNumber": 76, "velocity": 78, "subtype": "noteOn" }, { "deltaTime": 24, "channel": 1, "type": "channel", "subtype": "noteOff", "noteNumber": 74, "velocity": 64 }, { "deltaTime": 44, "channel": 1, "type": "channel", "noteNumber": 77, "velocity": 49, "subtype": "noteOn" }, { "deltaTime": 2, "channel": 1, "type": "channel", "noteNumber": 78, "velocity": 93, "subtype": "noteOn" }, { "deltaTime": 12, "channel": 1, "type": "channel", "noteNumber": 79, "velocity": 71, "subtype": "noteOn" }, { "deltaTime": 6, "channel": 1, "type": "channel", "subtype": "noteOff", "noteNumber": 77, "velocity": 64 }, { "deltaTime": 4, "channel": 1, "type": "channel", "subtype": "noteOff", "noteNumber": 76, "velocity": 64 }, { "deltaTime": 46, "channel": 1, "type": "channel", "subtype": "noteOff", "noteNumber": 79, "velocity": 64 }, { "deltaTime": 658, "channel": 1, "type": "channel", "noteNumber": 76, "velocity": 83, "subtype": "noteOn" }, { "deltaTime": 40, "channel": 1, "type": "channel", "subtype": "noteOff", "noteNumber": 78, "velocity": 64 }, { "deltaTime": 720, "channel": 1, "type": "channel", "noteNumber": 74, "velocity": 90, "subtype": "noteOn" }, { "deltaTime": 38, "channel": 1, "type": "channel", "subtype": "noteOff", "noteNumber": 76, "velocity": 64 }, { "deltaTime": 1418, "channel": 1, "type": "channel", "subtype": "noteOff", "noteNumber": 74, "velocity": 64 }, { "deltaTime": 10260, "channel": 1, "type": "channel", "noteNumber": 69, "velocity": 73, "subtype": "noteOn" }, { "deltaTime": 88, "channel": 1, "type": "channel", "noteNumber": 71, "velocity": 71, "subtype": "noteOn" }, { "deltaTime": 38, "channel": 1, "type": "channel", "subtype": "noteOff", "noteNumber": 69, "velocity": 64 }, { "deltaTime": 96, "channel": 1, "type": "channel", "noteNumber": 66, "velocity": 95, "subtype": "noteOn" }, { "deltaTime": 30, "channel": 1, "type": "channel", "subtype": "noteOff", "noteNumber": 71, "velocity": 64 }, { "deltaTime": 154, "channel": 1, "type": "channel", "noteNumber": 62, "velocity": 91, "subtype": "noteOn" }, { "deltaTime": 24, "channel": 1, "type": "channel", "subtype": "noteOff", "noteNumber": 66, "velocity": 64 }, { "deltaTime": 150, "channel": 1, "type": "channel", "noteNumber": 59, "velocity": 90, "subtype": "noteOn" }, { "deltaTime": 28, "channel": 1, "type": "channel", "subtype": "noteOff", "noteNumber": 62, "velocity": 64 }, { "deltaTime": 170, "channel": 1, "type": "channel", "noteNumber": 64, "velocity": 81, "subtype": "noteOn" }, { "deltaTime": 16, "channel": 1, "type": "channel", "subtype": "noteOff", "noteNumber": 59, "velocity": 64 }, { "deltaTime": 86, "channel": 1, "type": "channel", "noteNumber": 62, "velocity": 97, "subtype": "noteOn" }, { "deltaTime": 12, "channel": 1, "type": "channel", "subtype": "noteOff", "noteNumber": 64, "velocity": 64 }, { "deltaTime": 88, "channel": 1, "type": "channel", "noteNumber": 61, "velocity": 93, "subtype": "noteOn" }, { "deltaTime": 38, "channel": 1, "type": "channel", "subtype": "noteOff", "noteNumber": 62, "velocity": 64 }, { "deltaTime": 136, "channel": 1, "type": "channel", "noteNumber": 69, "velocity": 69, "subtype": "noteOn" }, { "deltaTime": 26, "channel": 1, "type": "channel", "subtype": "noteOff", "noteNumber": 61, "velocity": 64 }, { "deltaTime": 180, "channel": 1, "type": "channel", "noteNumber": 66, "velocity": 90, "subtype": "noteOn" }, { "deltaTime": 30, "channel": 1, "type": "channel", "subtype": "noteOff", "noteNumber": 69, "velocity": 64 }, { "deltaTime": 696, "channel": 1, "type": "channel", "subtype": "noteOff", "noteNumber": 66, "velocity": 64 }, { "deltaTime": 1758, "channel": 1, "type": "channel", "noteNumber": 69, "velocity": 76, "subtype": "noteOn" }, { "deltaTime": 82, "channel": 1, "type": "channel", "noteNumber": 71, "velocity": 69, "subtype": "noteOn" }, { "deltaTime": 28, "channel": 1, "type": "channel", "subtype": "noteOff", "noteNumber": 69, "velocity": 64 }, { "deltaTime": 80, "channel": 1, "type": "channel", "noteNumber": 69, "velocity": 71, "subtype": "noteOn" }, { "deltaTime": 48, "channel": 1, "type": "channel", "subtype": "noteOff", "noteNumber": 71, "velocity": 64 }, { "deltaTime": 142, "channel": 1, "type": "channel", "noteNumber": 66, "velocity": 91, "subtype": "noteOn" }, { "deltaTime": 34, "channel": 1, "type": "channel", "subtype": "noteOff", "noteNumber": 69, "velocity": 64 }, { "deltaTime": 148, "channel": 1, "type": "channel", "noteNumber": 64, "velocity": 92, "subtype": "noteOn" }, { "deltaTime": 6, "channel": 1, "type": "channel", "subtype": "noteOff", "noteNumber": 66, "velocity": 64 }, { "deltaTime": 786, "channel": 1, "type": "channel", "subtype": "noteOff", "noteNumber": 64, "velocity": 64 }, { "deltaTime": 4388, "channel": 1, "type": "channel", "noteNumber": 69, "velocity": 92, "subtype": "noteOn" }, { "deltaTime": 56, "channel": 1, "type": "channel", "noteNumber": 71, "velocity": 80, "subtype": "noteOn" }, { "deltaTime": 32, "channel": 1, "type": "channel", "subtype": "noteOff", "noteNumber": 69, "velocity": 64 }, { "deltaTime": 4, "channel": 1, "type": "channel", "noteNumber": 74, "velocity": 80, "subtype": "noteOn" }, { "deltaTime": 42, "channel": 1, "type": "channel", "subtype": "noteOff", "noteNumber": 71, "velocity": 64 }, { "deltaTime": 14, "channel": 1, "type": "channel", "noteNumber": 76, "velocity": 80, "subtype": "noteOn" }, { "deltaTime": 24, "channel": 1, "type": "channel", "subtype": "noteOff", "noteNumber": 74, "velocity": 64 }, { "deltaTime": 48, "channel": 1, "type": "channel", "noteNumber": 78, "velocity": 109, "subtype": "noteOn" }, { "deltaTime": 18, "channel": 1, "type": "channel", "subtype": "noteOff", "noteNumber": 76, "velocity": 64 }, { "deltaTime": 752, "channel": 1, "type": "channel", "noteNumber": 69, "velocity": 102, "subtype": "noteOn" }, { "deltaTime": 2, "channel": 1, "type": "channel", "subtype": "noteOff", "noteNumber": 78, "velocity": 64 }, { "deltaTime": 372, "channel": 1, "type": "channel", "noteNumber": 71, "velocity": 99, "subtype": "noteOn" }, { "deltaTime": 26, "channel": 1, "type": "channel", "subtype": "noteOff", "noteNumber": 69, "velocity": 64 }, { "deltaTime": 164, "channel": 1, "type": "channel", "noteNumber": 69, "velocity": 93, "subtype": "noteOn" }, { "deltaTime": 24, "channel": 1, "type": "channel", "subtype": "noteOff", "noteNumber": 71, "velocity": 64 }, { "deltaTime": 74, "channel": 1, "type": "channel", "noteNumber": 71, "velocity": 89, "subtype": "noteOn" }, { "deltaTime": 44, "channel": 1, "type": "channel", "subtype": "noteOff", "noteNumber": 69, "velocity": 64 }, { "deltaTime": 70, "channel": 1, "type": "channel", "noteNumber": 74, "velocity": 103, "subtype": "noteOn" }, { "deltaTime": 24, "channel": 1, "type": "channel", "subtype": "noteOff", "noteNumber": 71, "velocity": 64 }, { "deltaTime": 812, "channel": 1, "type": "channel", "subtype": "noteOff", "noteNumber": 74, "velocity": 64 }, { "deltaTime": 0, "type": "meta", "subtype": "endOfTrack" }], [{ "deltaTime": 0, "type": "meta", "subtype": "unknown", "data": "\u0000" }, { "deltaTime": 0, "type": "meta", "subtype": "trackName", "text": "Gtr.......          " }, { "deltaTime": 0, "channel": 2, "type": "channel", "subtype": "programChange", "programNumber": 27 }, { "deltaTime": 0, "channel": 2, "type": "channel", "subtype": "controller", "controllerType": 10, "value": 10 }, { "deltaTime": 0, "channel": 2, "type": "channel", "subtype": "controller", "controllerType": 0, "value": 0 }, { "deltaTime": 0, "channel": 2, "type": "channel", "subtype": "controller", "controllerType": 93, "value": 26 }, { "deltaTime": 0, "channel": 2, "type": "channel", "subtype": "controller", "controllerType": 91, "value": 60 }, { "deltaTime": 766, "channel": 2, "type": "channel", "noteNumber": 62, "velocity": 67, "subtype": "noteOn" }, { "deltaTime": 2, "channel": 2, "type": "channel", "subtype": "controller", "controllerType": 7, "value": 85 }, { "deltaTime": 110, "channel": 2, "type": "channel", "noteNumber": 66, "velocity": 51, "subtype": "noteOn" }, { "deltaTime": 102, "channel": 2, "type": "channel", "noteNumber": 69, "velocity": 69, "subtype": "noteOn" }, { "deltaTime": 106, "channel": 2, "type": "channel", "noteNumber": 74, "velocity": 81, "subtype": "noteOn" }, { "deltaTime": 178, "channel": 2, "type": "channel", "noteNumber": 81, "velocity": 53, "subtype": "noteOn" }, { "deltaTime": 88, "channel": 2, "type": "channel", "subtype": "noteOff", "noteNumber": 69, "velocity": 64 }, { "deltaTime": 8, "channel": 2, "type": "channel", "subtype": "noteOff", "noteNumber": 66, "velocity": 64 }, { "deltaTime": 2, "channel": 2, "type": "channel", "noteNumber": 78, "velocity": 85, "subtype": "noteOn" }, { "deltaTime": 18, "channel": 2, "type": "channel", "subtype": "noteOff", "noteNumber": 62, "velocity": 64 }, { "deltaTime": 34, "channel": 2, "type": "channel", "subtype": "noteOff", "noteNumber": 74, "velocity": 64 }, { "deltaTime": 46, "channel": 2, "type": "channel", "noteNumber": 74, "velocity": 69, "subtype": "noteOn" }, { "deltaTime": 28, "channel": 2, "type": "channel", "subtype": "noteOff", "noteNumber": 81, "velocity": 64 }, { "deltaTime": 6, "channel": 2, "type": "channel", "subtype": "noteOff", "noteNumber": 78, "velocity": 64 }, { "deltaTime": 62, "channel": 2, "type": "channel", "noteNumber": 57, "velocity": 67, "subtype": "noteOn" }, { "deltaTime": 2, "channel": 2, "type": "channel", "subtype": "noteOff", "noteNumber": 74, "velocity": 64 }, { "deltaTime": 100, "channel": 2, "type": "channel", "noteNumber": 61, "velocity": 85, "subtype": "noteOn" }, { "deltaTime": 96, "channel": 2, "type": "channel", "noteNumber": 64, "velocity": 65, "subtype": "noteOn" }, { "deltaTime": 92, "channel": 2, "type": "channel", "noteNumber": 69, "velocity": 78, "subtype": "noteOn" }, { "deltaTime": 172, "channel": 2, "type": "channel", "noteNumber": 73, "velocity": 69, "subtype": "noteOn" }, { "deltaTime": 96, "channel": 2, "type": "channel", "noteNumber": 76, "velocity": 74, "subtype": "noteOn" }, { "deltaTime": 42, "channel": 2, "type": "channel", "subtype": "noteOff", "noteNumber": 64, "velocity": 64 }, { "deltaTime": 2, "channel": 2, "type": "channel", "subtype": "noteOff", "noteNumber": 61, "velocity": 64 }, { "deltaTime": 16, "channel": 2, "type": "channel", "subtype": "noteOff", "noteNumber": 69, "velocity": 64 }, { "deltaTime": 6, "channel": 2, "type": "channel", "subtype": "noteOff", "noteNumber": 57, "velocity": 64 }, { "deltaTime": 22, "channel": 2, "type": "channel", "noteNumber": 69, "velocity": 65, "subtype": "noteOn" }, { "deltaTime": 108, "channel": 2, "type": "channel", "noteNumber": 62, "velocity": 67, "subtype": "noteOn" }, { "deltaTime": 102, "channel": 2, "type": "channel", "noteNumber": 66, "velocity": 63, "subtype": "noteOn" }, { "deltaTime": 100, "channel": 2, "type": "channel", "subtype": "noteOff", "noteNumber": 69, "velocity": 64 }, { "deltaTime": 0, "channel": 2, "type": "channel", "noteNumber": 69, "velocity": 54, "subtype": "noteOn" }, { "deltaTime": 42, "channel": 2, "type": "channel", "subtype": "noteOff", "noteNumber": 73, "velocity": 64 }, { "deltaTime": 32, "channel": 2, "type": "channel", "subtype": "noteOff", "noteNumber": 76, "velocity": 64 }, { "deltaTime": 24, "channel": 2, "type": "channel", "noteNumber": 74, "velocity": 69, "subtype": "noteOn" }, { "deltaTime": 100, "channel": 2, "type": "channel", "noteNumber": 78, "velocity": 57, "subtype": "noteOn" }, { "deltaTime": 88, "channel": 2, "type": "channel", "noteNumber": 81, "velocity": 63, "subtype": "noteOn" }, { "deltaTime": 42, "channel": 2, "type": "channel", "subtype": "noteOff", "noteNumber": 78, "velocity": 64 }, { "deltaTime": 14, "channel": 2, "type": "channel", "subtype": "noteOff", "noteNumber": 74, "velocity": 64 }, { "deltaTime": 30, "channel": 2, "type": "channel", "noteNumber": 78, "velocity": 80, "subtype": "noteOn" }, { "deltaTime": 2, "channel": 2, "type": "channel", "subtype": "noteOff", "noteNumber": 66, "velocity": 64 }, { "deltaTime": 2, "channel": 2, "type": "channel", "subtype": "noteOff", "noteNumber": 69, "velocity": 64 }, { "deltaTime": 28, "channel": 2, "type": "channel", "subtype": "noteOff", "noteNumber": 62, "velocity": 64 }, { "deltaTime": 60, "channel": 2, "type": "channel", "noteNumber": 74, "velocity": 79, "subtype": "noteOn" }, { "deltaTime": 26, "channel": 2, "type": "channel", "subtype": "noteOff", "noteNumber": 78, "velocity": 64 }, { "deltaTime": 84, "channel": 2, "type": "channel", "noteNumber": 62, "velocity": 72, "subtype": "noteOn" }, { "deltaTime": 14, "channel": 2, "type": "channel", "subtype": "noteOff", "noteNumber": 81, "velocity": 64 }, { "deltaTime": 86, "channel": 2, "type": "channel", "noteNumber": 66, "velocity": 65, "subtype": "noteOn" }, { "deltaTime": 98, "channel": 2, "type": "channel", "noteNumber": 69, "velocity": 50, "subtype": "noteOn" }, { "deltaTime": 64, "channel": 2, "type": "channel", "subtype": "noteOff", "noteNumber": 66, "velocity": 64 }, { "deltaTime": 56, "channel": 2, "type": "channel", "noteNumber": 81, "velocity": 19, "subtype": "noteOn" }, { "deltaTime": 166, "channel": 2, "type": "channel", "noteNumber": 78, "velocity": 77, "subtype": "noteOn" }, { "deltaTime": 42, "channel": 2, "type": "channel", "subtype": "noteOff", "noteNumber": 74, "velocity": 64 }, { "deltaTime": 48, "channel": 2, "type": "channel", "subtype": "noteOff", "noteNumber": 69, "velocity": 64 }, { "deltaTime": 4, "channel": 2, "type": "channel", "noteNumber": 74, "velocity": 65, "subtype": "noteOn" }, { "deltaTime": 10, "channel": 2, "type": "channel", "subtype": "noteOff", "noteNumber": 62, "velocity": 64 }, { "deltaTime": 64, "channel": 2, "type": "channel", "subtype": "noteOff", "noteNumber": 78, "velocity": 64 }, { "deltaTime": 114, "channel": 2, "type": "channel", "noteNumber": 62, "velocity": 71, "subtype": "noteOn" }, { "deltaTime": 180, "channel": 2, "type": "channel", "noteNumber": 66, "velocity": 75, "subtype": "noteOn" }, { "deltaTime": 100, "channel": 2, "type": "channel", "noteNumber": 69, "velocity": 60, "subtype": "noteOn" }, { "deltaTime": 14, "channel": 2, "type": "channel", "subtype": "noteOff", "noteNumber": 81, "velocity": 64 }, { "deltaTime": 6, "channel": 2, "type": "channel", "subtype": "noteOff", "noteNumber": 74, "velocity": 64 }, { "deltaTime": 78, "channel": 2, "type": "channel", "noteNumber": 74, "velocity": 79, "subtype": "noteOn" }, { "deltaTime": 100, "channel": 2, "type": "channel", "noteNumber": 78, "velocity": 57, "subtype": "noteOn" }, { "deltaTime": 88, "channel": 2, "type": "channel", "noteNumber": 81, "velocity": 64, "subtype": "noteOn" }, { "deltaTime": 60, "channel": 2, "type": "channel", "subtype": "noteOff", "noteNumber": 74, "velocity": 64 }, { "deltaTime": 20, "channel": 2, "type": "channel", "subtype": "noteOff", "noteNumber": 78, "velocity": 64 }, { "deltaTime": 26, "channel": 2, "type": "channel", "noteNumber": 74, "velocity": 61, "subtype": "noteOn" }, { "deltaTime": 6, "channel": 2, "type": "channel", "subtype": "noteOff", "noteNumber": 66, "velocity": 64 }, { "deltaTime": 2, "channel": 2, "type": "channel", "subtype": "noteOff", "noteNumber": 69, "velocity": 64 }, { "deltaTime": 14, "channel": 2, "type": "channel", "subtype": "noteOff", "noteNumber": 62, "velocity": 64 }, { "deltaTime": 70, "channel": 2, "type": "channel", "noteNumber": 62, "velocity": 71, "subtype": "noteOn" }, { "deltaTime": 20, "channel": 2, "type": "channel", "subtype": "noteOff", "noteNumber": 81, "velocity": 64 }, { "deltaTime": 182, "channel": 2, "type": "channel", "noteNumber": 69, "velocity": 79, "subtype": "noteOn" }, { "deltaTime": 34, "channel": 2, "type": "channel", "subtype": "noteOff", "noteNumber": 74, "velocity": 64 }, { "deltaTime": 58, "channel": 2, "type": "channel", "noteNumber": 74, "velocity": 80, "subtype": "noteOn" }, { "deltaTime": 96, "channel": 2, "type": "channel", "noteNumber": 66, "velocity": 84, "subtype": "noteOn" }, { "deltaTime": 88, "channel": 2, "type": "channel", "noteNumber": 81, "velocity": 65, "subtype": "noteOn" }, { "deltaTime": 110, "channel": 2, "type": "channel", "noteNumber": 78, "velocity": 65, "subtype": "noteOn" }, { "deltaTime": 8, "channel": 2, "type": "channel", "subtype": "noteOff", "noteNumber": 66, "velocity": 64 }, { "deltaTime": 2, "channel": 2, "type": "channel", "subtype": "noteOff", "noteNumber": 62, "velocity": 64 }, { "deltaTime": 0, "channel": 2, "type": "channel", "subtype": "noteOff", "noteNumber": 69, "velocity": 64 }, { "deltaTime": 98, "channel": 2, "type": "channel", "subtype": "noteOff", "noteNumber": 78, "velocity": 64 }, { "deltaTime": 62, "channel": 2, "type": "channel", "subtype": "noteOff", "noteNumber": 81, "velocity": 64 }, { "deltaTime": 2, "channel": 2, "type": "channel", "noteNumber": 64, "velocity": 70, "subtype": "noteOn" }, { "deltaTime": 6, "channel": 2, "type": "channel", "subtype": "noteOff", "noteNumber": 74, "velocity": 64 }, { "deltaTime": 100, "channel": 2, "type": "channel", "noteNumber": 67, "velocity": 66, "subtype": "noteOn" }, { "deltaTime": 94, "channel": 2, "type": "channel", "noteNumber": 71, "velocity": 65, "subtype": "noteOn" }, { "deltaTime": 80, "channel": 2, "type": "channel", "subtype": "noteOff", "noteNumber": 71, "velocity": 64 }, { "deltaTime": 2, "channel": 2, "type": "channel", "noteNumber": 76, "velocity": 79, "subtype": "noteOn" }, { "deltaTime": 10, "channel": 2, "type": "channel", "subtype": "noteOff", "noteNumber": 67, "velocity": 64 }, { "deltaTime": 10, "channel": 2, "type": "channel", "subtype": "noteOff", "noteNumber": 64, "velocity": 64 }, { "deltaTime": 96, "channel": 2, "type": "channel", "noteNumber": 57, "velocity": 66, "subtype": "noteOn" }, { "deltaTime": 56, "channel": 2, "type": "channel", "subtype": "noteOff", "noteNumber": 76, "velocity": 64 }, { "deltaTime": 32, "channel": 2, "type": "channel", "noteNumber": 61, "velocity": 73, "subtype": "noteOn" }, { "deltaTime": 94, "channel": 2, "type": "channel", "noteNumber": 64, "velocity": 73, "subtype": "noteOn" }, { "deltaTime": 82, "channel": 2, "type": "channel", "noteNumber": 69, "velocity": 81, "subtype": "noteOn" }, { "deltaTime": 14, "channel": 2, "type": "channel", "subtype": "noteOff", "noteNumber": 57, "velocity": 64 }, { "deltaTime": 8, "channel": 2, "type": "channel", "subtype": "noteOff", "noteNumber": 61, "velocity": 64 }, { "deltaTime": 0, "channel": 2, "type": "channel", "subtype": "noteOff", "noteNumber": 64, "velocity": 64 }, { "deltaTime": 86, "channel": 2, "type": "channel", "noteNumber": 62, "velocity": 72, "subtype": "noteOn" }, { "deltaTime": 22, "channel": 2, "type": "channel", "subtype": "noteOff", "noteNumber": 69, "velocity": 64 }, { "deltaTime": 68, "channel": 2, "type": "channel", "noteNumber": 66, "velocity": 78, "subtype": "noteOn" }, { "deltaTime": 98, "channel": 2, "type": "channel", "noteNumber": 69, "velocity": 63, "subtype": "noteOn" }, { "deltaTime": 94, "channel": 2, "type": "channel", "noteNumber": 74, "velocity": 81, "subtype": "noteOn" }, { "deltaTime": 188, "channel": 2, "type": "channel", "noteNumber": 81, "velocity": 64, "subtype": "noteOn" }, { "deltaTime": 106, "channel": 2, "type": "channel", "noteNumber": 78, "velocity": 85, "subtype": "noteOn" }, { "deltaTime": 22, "channel": 2, "type": "channel", "subtype": "noteOff", "noteNumber": 69, "velocity": 64 }, { "deltaTime": 2, "channel": 2, "type": "channel", "subtype": "noteOff", "noteNumber": 62, "velocity": 64 }, { "deltaTime": 2, "channel": 2, "type": "channel", "subtype": "noteOff", "noteNumber": 66, "velocity": 64 }, { "deltaTime": 4, "channel": 2, "type": "channel", "subtype": "noteOff", "noteNumber": 74, "velocity": 64 }, { "deltaTime": 68, "channel": 2, "type": "channel", "noteNumber": 74, "velocity": 62, "subtype": "noteOn" }, { "deltaTime": 66, "channel": 2, "type": "channel", "subtype": "noteOff", "noteNumber": 78, "velocity": 64 }, { "deltaTime": 26, "channel": 2, "type": "channel", "subtype": "noteOff", "noteNumber": 81, "velocity": 64 }, { "deltaTime": 0, "channel": 2, "type": "channel", "noteNumber": 64, "velocity": 69, "subtype": "noteOn" }, { "deltaTime": 14, "channel": 2, "type": "channel", "subtype": "noteOff", "noteNumber": 74, "velocity": 64 }, { "deltaTime": 94, "channel": 2, "type": "channel", "noteNumber": 67, "velocity": 58, "subtype": "noteOn" }, { "deltaTime": 100, "channel": 2, "type": "channel", "noteNumber": 71, "velocity": 65, "subtype": "noteOn" }, { "deltaTime": 88, "channel": 2, "type": "channel", "noteNumber": 76, "velocity": 78, "subtype": "noteOn" }, { "deltaTime": 102, "channel": 2, "type": "channel", "subtype": "noteOff", "noteNumber": 67, "velocity": 64 }, { "deltaTime": 10, "channel": 2, "type": "channel", "noteNumber": 79, "velocity": 63, "subtype": "noteOn" }, { "deltaTime": 122, "channel": 2, "type": "channel", "noteNumber": 67, "velocity": 46, "subtype": "noteOn" }, { "deltaTime": 50, "channel": 2, "type": "channel", "subtype": "noteOff", "noteNumber": 71, "velocity": 64 }, { "deltaTime": 0, "channel": 2, "type": "channel", "noteNumber": 83, "velocity": 81, "subtype": "noteOn" }, { "deltaTime": 18, "channel": 2, "type": "channel", "subtype": "noteOff", "noteNumber": 67, "velocity": 64 }, { "deltaTime": 10, "channel": 2, "type": "channel", "subtype": "noteOff", "noteNumber": 64, "velocity": 64 }, { "deltaTime": 30, "channel": 2, "type": "channel", "subtype": "noteOff", "noteNumber": 76, "velocity": 64 }, { "deltaTime": 32, "channel": 2, "type": "channel", "noteNumber": 76, "velocity": 57, "subtype": "noteOn" }, { "deltaTime": 68, "channel": 2, "type": "channel", "subtype": "noteOff", "noteNumber": 83, "velocity": 64 }, { "deltaTime": 6, "channel": 2, "type": "channel", "subtype": "noteOff", "noteNumber": 79, "velocity": 64 }, { "deltaTime": 24, "channel": 2, "type": "channel", "noteNumber": 57, "velocity": 64, "subtype": "noteOn" }, { "deltaTime": 6, "channel": 2, "type": "channel", "subtype": "noteOff", "noteNumber": 76, "velocity": 64 }, { "deltaTime": 96, "channel": 2, "type": "channel", "noteNumber": 61, "velocity": 53, "subtype": "noteOn" }, { "deltaTime": 102, "channel": 2, "type": "channel", "noteNumber": 64, "velocity": 57, "subtype": "noteOn" }, { "deltaTime": 90, "channel": 2, "type": "channel", "noteNumber": 69, "velocity": 65, "subtype": "noteOn" }, { "deltaTime": 102, "channel": 2, "type": "channel", "noteNumber": 73, "velocity": 72, "subtype": "noteOn" }, { "deltaTime": 88, "channel": 2, "type": "channel", "noteNumber": 76, "velocity": 69, "subtype": "noteOn" }, { "deltaTime": 24, "channel": 2, "type": "channel", "subtype": "noteOff", "noteNumber": 73, "velocity": 64 }, { "deltaTime": 28, "channel": 2, "type": "channel", "subtype": "noteOff", "noteNumber": 69, "velocity": 64 }, { "deltaTime": 44, "channel": 2, "type": "channel", "noteNumber": 69, "velocity": 58, "subtype": "noteOn" }, { "deltaTime": 62, "channel": 2, "type": "channel", "subtype": "noteOff", "noteNumber": 61, "velocity": 64 }, { "deltaTime": 2, "channel": 2, "type": "channel", "subtype": "noteOff", "noteNumber": 57, "velocity": 64 }, { "deltaTime": 0, "channel": 2, "type": "channel", "subtype": "noteOff", "noteNumber": 64, "velocity": 64 }, { "deltaTime": 36, "channel": 2, "type": "channel", "noteNumber": 73, "velocity": 78, "subtype": "noteOn" }, { "deltaTime": 92, "channel": 2, "type": "channel", "noteNumber": 62, "velocity": 68, "subtype": "noteOn" }, { "deltaTime": 18, "channel": 2, "type": "channel", "subtype": "noteOff", "noteNumber": 69, "velocity": 64 }, { "deltaTime": 4, "channel": 2, "type": "channel", "subtype": "noteOff", "noteNumber": 73, "velocity": 64 }, { "deltaTime": 20, "channel": 2, "type": "channel", "subtype": "noteOff", "noteNumber": 76, "velocity": 64 }, { "deltaTime": 50, "channel": 2, "type": "channel", "noteNumber": 66, "velocity": 70, "subtype": "noteOn" }, { "deltaTime": 96, "channel": 2, "type": "channel", "noteNumber": 69, "velocity": 61, "subtype": "noteOn" }, { "deltaTime": 102, "channel": 2, "type": "channel", "noteNumber": 74, "velocity": 72, "subtype": "noteOn" }, { "deltaTime": 186, "channel": 2, "type": "channel", "noteNumber": 81, "velocity": 67, "subtype": "noteOn" }, { "deltaTime": 102, "channel": 2, "type": "channel", "noteNumber": 78, "velocity": 82, "subtype": "noteOn" }, { "deltaTime": 20, "channel": 2, "type": "channel", "subtype": "noteOff", "noteNumber": 74, "velocity": 64 }, { "deltaTime": 24, "channel": 2, "type": "channel", "subtype": "noteOff", "noteNumber": 69, "velocity": 64 }, { "deltaTime": 2, "channel": 2, "type": "channel", "subtype": "noteOff", "noteNumber": 66, "velocity": 64 }, { "deltaTime": 10, "channel": 2, "type": "channel", "subtype": "noteOff", "noteNumber": 62, "velocity": 64 }, { "deltaTime": 142, "channel": 2, "type": "channel", "noteNumber": 59, "velocity": 79, "subtype": "noteOn" }, { "deltaTime": 4, "channel": 2, "type": "channel", "subtype": "noteOff", "noteNumber": 78, "velocity": 64 }, { "deltaTime": 2, "channel": 2, "type": "channel", "subtype": "noteOff", "noteNumber": 81, "velocity": 64 }, { "deltaTime": 176, "channel": 2, "type": "channel", "noteNumber": 62, "velocity": 62, "subtype": "noteOn" }, { "deltaTime": 100, "channel": 2, "type": "channel", "noteNumber": 66, "velocity": 80, "subtype": "noteOn" }, { "deltaTime": 90, "channel": 2, "type": "channel", "noteNumber": 71, "velocity": 63, "subtype": "noteOn" }, { "deltaTime": 90, "channel": 2, "type": "channel", "noteNumber": 74, "velocity": 62, "subtype": "noteOn" }, { "deltaTime": 68, "channel": 2, "type": "channel", "subtype": "noteOff", "noteNumber": 62, "velocity": 64 }, { "deltaTime": 8, "channel": 2, "type": "channel", "subtype": "noteOff", "noteNumber": 59, "velocity": 64 }, { "deltaTime": 0, "channel": 2, "type": "channel", "subtype": "noteOff", "noteNumber": 66, "velocity": 64 }, { "deltaTime": 26, "channel": 2, "type": "channel", "noteNumber": 78, "velocity": 77, "subtype": "noteOn" }, { "deltaTime": 36, "channel": 2, "type": "channel", "subtype": "noteOff", "noteNumber": 71, "velocity": 64 }, { "deltaTime": 52, "channel": 2, "type": "channel", "noteNumber": 71, "velocity": 57, "subtype": "noteOn" }, { "deltaTime": 86, "channel": 2, "type": "channel", "subtype": "noteOff", "noteNumber": 74, "velocity": 64 }, { "deltaTime": 2, "channel": 2, "type": "channel", "subtype": "noteOff", "noteNumber": 78, "velocity": 64 }, { "deltaTime": 8, "channel": 2, "type": "channel", "noteNumber": 64, "velocity": 54, "subtype": "noteOn" }, { "deltaTime": 6, "channel": 2, "type": "channel", "subtype": "noteOff", "noteNumber": 71, "velocity": 64 }, { "deltaTime": 106, "channel": 2, "type": "channel", "noteNumber": 67, "velocity": 52, "subtype": "noteOn" }, { "deltaTime": 96, "channel": 2, "type": "channel", "noteNumber": 71, "velocity": 61, "subtype": "noteOn" }, { "deltaTime": 96, "channel": 2, "type": "channel", "noteNumber": 76, "velocity": 48, "subtype": "noteOn" }, { "deltaTime": 118, "channel": 2, "type": "channel", "subtype": "noteOff", "noteNumber": 76, "velocity": 64 }, { "deltaTime": 76, "channel": 2, "type": "channel", "noteNumber": 83, "velocity": 70, "subtype": "noteOn" }, { "deltaTime": 64, "channel": 2, "type": "channel", "subtype": "noteOff", "noteNumber": 71, "velocity": 64 }, { "deltaTime": 22, "channel": 2, "type": "channel", "subtype": "noteOff", "noteNumber": 67, "velocity": 64 }, { "deltaTime": 14, "channel": 2, "type": "channel", "subtype": "noteOff", "noteNumber": 64, "velocity": 64 }, { "deltaTime": 12, "channel": 2, "type": "channel", "noteNumber": 79, "velocity": 53, "subtype": "noteOn" }, { "deltaTime": 86, "channel": 2, "type": "channel", "noteNumber": 76, "velocity": 71, "subtype": "noteOn" }, { "deltaTime": 82, "channel": 2, "type": "channel", "noteNumber": 57, "velocity": 54, "subtype": "noteOn" }, { "deltaTime": 12, "channel": 2, "type": "channel", "subtype": "noteOff", "noteNumber": 79, "velocity": 64 }, { "deltaTime": 0, "channel": 2, "type": "channel", "subtype": "noteOff", "noteNumber": 83, "velocity": 64 }, { "deltaTime": 28, "channel": 2, "type": "channel", "subtype": "noteOff", "noteNumber": 76, "velocity": 64 }, { "deltaTime": 66, "channel": 2, "type": "channel", "noteNumber": 61, "velocity": 74, "subtype": "noteOn" }, { "deltaTime": 100, "channel": 2, "type": "channel", "noteNumber": 64, "velocity": 57, "subtype": "noteOn" }, { "deltaTime": 90, "channel": 2, "type": "channel", "noteNumber": 69, "velocity": 78, "subtype": "noteOn" }, { "deltaTime": 182, "channel": 2, "type": "channel", "noteNumber": 76, "velocity": 51, "subtype": "noteOn" }, { "deltaTime": 84, "channel": 2, "type": "channel", "noteNumber": 73, "velocity": 78, "subtype": "noteOn" }, { "deltaTime": 14, "channel": 2, "type": "channel", "subtype": "noteOff", "noteNumber": 64, "velocity": 64 }, { "deltaTime": 6, "channel": 2, "type": "channel", "subtype": "noteOff", "noteNumber": 61, "velocity": 64 }, { "deltaTime": 2, "channel": 2, "type": "channel", "subtype": "noteOff", "noteNumber": 57, "velocity": 64 }, { "deltaTime": 178, "channel": 2, "type": "channel", "noteNumber": 62, "velocity": 67, "subtype": "noteOn" }, { "deltaTime": 2, "channel": 2, "type": "channel", "subtype": "noteOff", "noteNumber": 69, "velocity": 64 }, { "deltaTime": 4, "channel": 2, "type": "channel", "subtype": "noteOff", "noteNumber": 73, "velocity": 64 }, { "deltaTime": 14, "channel": 2, "type": "channel", "subtype": "noteOff", "noteNumber": 76, "velocity": 64 }, { "deltaTime": 84, "channel": 2, "type": "channel", "noteNumber": 66, "velocity": 56, "subtype": "noteOn" }, { "deltaTime": 104, "channel": 2, "type": "channel", "noteNumber": 69, "velocity": 49, "subtype": "noteOn" }, { "deltaTime": 88, "channel": 2, "type": "channel", "noteNumber": 74, "velocity": 70, "subtype": "noteOn" }, { "deltaTime": 184, "channel": 2, "type": "channel", "noteNumber": 81, "velocity": 58, "subtype": "noteOn" }, { "deltaTime": 100, "channel": 2, "type": "channel", "noteNumber": 78, "velocity": 78, "subtype": "noteOn" }, { "deltaTime": 12, "channel": 2, "type": "channel", "subtype": "noteOff", "noteNumber": 69, "velocity": 64 }, { "deltaTime": 4, "channel": 2, "type": "channel", "subtype": "noteOff", "noteNumber": 66, "velocity": 64 }, { "deltaTime": 14, "channel": 2, "type": "channel", "subtype": "noteOff", "noteNumber": 74, "velocity": 64 }, { "deltaTime": 2, "channel": 2, "type": "channel", "subtype": "noteOff", "noteNumber": 62, "velocity": 64 }, { "deltaTime": 60, "channel": 2, "type": "channel", "noteNumber": 74, "velocity": 64, "subtype": "noteOn" }, { "deltaTime": 58, "channel": 2, "type": "channel", "subtype": "noteOff", "noteNumber": 78, "velocity": 64 }, { "deltaTime": 44, "channel": 2, "type": "channel", "noteNumber": 62, "velocity": 75, "subtype": "noteOn" }, { "deltaTime": 54, "channel": 2, "type": "channel", "subtype": "noteOff", "noteNumber": 81, "velocity": 64 }, { "deltaTime": 132, "channel": 2, "type": "channel", "noteNumber": 66, "velocity": 72, "subtype": "noteOn" }, { "deltaTime": 102, "channel": 2, "type": "channel", "noteNumber": 69, "velocity": 58, "subtype": "noteOn" }, { "deltaTime": 186, "channel": 2, "type": "channel", "noteNumber": 78, "velocity": 78, "subtype": "noteOn" }, { "deltaTime": 62, "channel": 2, "type": "channel", "subtype": "noteOff", "noteNumber": 69, "velocity": 64 }, { "deltaTime": 14, "channel": 2, "type": "channel", "subtype": "noteOff", "noteNumber": 66, "velocity": 64 }, { "deltaTime": 12, "channel": 2, "type": "channel", "noteNumber": 81, "velocity": 67, "subtype": "noteOn" }, { "deltaTime": 12, "channel": 2, "type": "channel", "subtype": "noteOff", "noteNumber": 62, "velocity": 64 }, { "deltaTime": 52, "channel": 2, "type": "channel", "subtype": "noteOff", "noteNumber": 74, "velocity": 64 }, { "deltaTime": 34, "channel": 2, "type": "channel", "noteNumber": 74, "velocity": 58, "subtype": "noteOn" }, { "deltaTime": 80, "channel": 2, "type": "channel", "subtype": "noteOff", "noteNumber": 78, "velocity": 64 }, { "deltaTime": 20, "channel": 2, "type": "channel", "noteNumber": 64, "velocity": 70, "subtype": "noteOn" }, { "deltaTime": 24, "channel": 2, "type": "channel", "subtype": "noteOff", "noteNumber": 81, "velocity": 64 }, { "deltaTime": 72, "channel": 2, "type": "channel", "noteNumber": 67, "velocity": 54, "subtype": "noteOn" }, { "deltaTime": 42, "channel": 2, "type": "channel", "subtype": "noteOff", "noteNumber": 74, "velocity": 64 }, { "deltaTime": 60, "channel": 2, "type": "channel", "noteNumber": 71, "velocity": 63, "subtype": "noteOn" }, { "deltaTime": 92, "channel": 2, "type": "channel", "noteNumber": 79, "velocity": 65, "subtype": "noteOn" }, { "deltaTime": 38, "channel": 2, "type": "channel", "subtype": "noteOff", "noteNumber": 71, "velocity": 64 }, { "deltaTime": 36, "channel": 2, "type": "channel", "subtype": "noteOff", "noteNumber": 67, "velocity": 64 }, { "deltaTime": 20, "channel": 2, "type": "channel", "subtype": "noteOff", "noteNumber": 64, "velocity": 64 }, { "deltaTime": 14, "channel": 2, "type": "channel", "noteNumber": 76, "velocity": 64, "subtype": "noteOn" }, { "deltaTime": 22, "channel": 2, "type": "channel", "subtype": "noteOff", "noteNumber": 79, "velocity": 64 }, { "deltaTime": 60, "channel": 2, "type": "channel", "noteNumber": 57, "velocity": 48, "subtype": "noteOn" }, { "deltaTime": 44, "channel": 2, "type": "channel", "subtype": "noteOff", "noteNumber": 76, "velocity": 64 }, { "deltaTime": 72, "channel": 2, "type": "channel", "noteNumber": 61, "velocity": 77, "subtype": "noteOn" }, { "deltaTime": 96, "channel": 2, "type": "channel", "noteNumber": 64, "velocity": 69, "subtype": "noteOn" }, { "deltaTime": 94, "channel": 2, "type": "channel", "noteNumber": 74, "velocity": 82, "subtype": "noteOn" }, { "deltaTime": 6, "channel": 2, "type": "channel", "subtype": "noteOff", "noteNumber": 57, "velocity": 64 }, { "deltaTime": 8, "channel": 2, "type": "channel", "subtype": "noteOff", "noteNumber": 64, "velocity": 64 }, { "deltaTime": 2, "channel": 2, "type": "channel", "subtype": "noteOff", "noteNumber": 61, "velocity": 64 }, { "deltaTime": 172, "channel": 2, "type": "channel", "noteNumber": 62, "velocity": 64, "subtype": "noteOn" }, { "deltaTime": 100, "channel": 2, "type": "channel", "noteNumber": 66, "velocity": 75, "subtype": "noteOn" }, { "deltaTime": 100, "channel": 2, "type": "channel", "noteNumber": 69, "velocity": 62, "subtype": "noteOn" }, { "deltaTime": 86, "channel": 2, "type": "channel", "noteNumber": 81, "velocity": 57, "subtype": "noteOn" }, { "deltaTime": 104, "channel": 2, "type": "channel", "noteNumber": 78, "velocity": 79, "subtype": "noteOn" }, { "deltaTime": 32, "channel": 2, "type": "channel", "subtype": "noteOff", "noteNumber": 69, "velocity": 64 }, { "deltaTime": 6, "channel": 2, "type": "channel", "subtype": "noteOff", "noteNumber": 62, "velocity": 64 }, { "deltaTime": 2, "channel": 2, "type": "channel", "subtype": "noteOff", "noteNumber": 66, "velocity": 64 }, { "deltaTime": 10, "channel": 2, "type": "channel", "subtype": "noteOff", "noteNumber": 74, "velocity": 64 }, { "deltaTime": 38, "channel": 2, "type": "channel", "noteNumber": 74, "velocity": 55, "subtype": "noteOn" }, { "deltaTime": 100, "channel": 2, "type": "channel", "noteNumber": 64, "velocity": 61, "subtype": "noteOn" }, { "deltaTime": 14, "channel": 2, "type": "channel", "subtype": "noteOff", "noteNumber": 78, "velocity": 64 }, { "deltaTime": 12, "channel": 2, "type": "channel", "subtype": "noteOff", "noteNumber": 81, "velocity": 64 }, { "deltaTime": 12, "channel": 2, "type": "channel", "subtype": "noteOff", "noteNumber": 74, "velocity": 64 }, { "deltaTime": 146, "channel": 2, "type": "channel", "noteNumber": 67, "velocity": 50, "subtype": "noteOn" }, { "deltaTime": 108, "channel": 2, "type": "channel", "noteNumber": 71, "velocity": 64, "subtype": "noteOn" }, { "deltaTime": 172, "channel": 2, "type": "channel", "noteNumber": 76, "velocity": 71, "subtype": "noteOn" }, { "deltaTime": 94, "channel": 2, "type": "channel", "subtype": "noteOff", "noteNumber": 71, "velocity": 64 }, { "deltaTime": 4, "channel": 2, "type": "channel", "noteNumber": 79, "velocity": 59, "subtype": "noteOn" }, { "deltaTime": 16, "channel": 2, "type": "channel", "subtype": "noteOff", "noteNumber": 67, "velocity": 64 }, { "deltaTime": 4, "channel": 2, "type": "channel", "subtype": "noteOff", "noteNumber": 64, "velocity": 64 }, { "deltaTime": 74, "channel": 2, "type": "channel", "noteNumber": 83, "velocity": 68, "subtype": "noteOn" }, { "deltaTime": 104, "channel": 2, "type": "channel", "noteNumber": 57, "velocity": 65, "subtype": "noteOn" }, { "deltaTime": 4, "channel": 2, "type": "channel", "subtype": "noteOff", "noteNumber": 83, "velocity": 64 }, { "deltaTime": 4, "channel": 2, "type": "channel", "subtype": "noteOff", "noteNumber": 79, "velocity": 64 }, { "deltaTime": 30, "channel": 2, "type": "channel", "subtype": "noteOff", "noteNumber": 76, "velocity": 64 }, { "deltaTime": 60, "channel": 2, "type": "channel", "noteNumber": 61, "velocity": 68, "subtype": "noteOn" }, { "deltaTime": 98, "channel": 2, "type": "channel", "noteNumber": 64, "velocity": 55, "subtype": "noteOn" }, { "deltaTime": 96, "channel": 2, "type": "channel", "noteNumber": 69, "velocity": 69, "subtype": "noteOn" }, { "deltaTime": 184, "channel": 2, "type": "channel", "noteNumber": 76, "velocity": 63, "subtype": "noteOn" }, { "deltaTime": 98, "channel": 2, "type": "channel", "noteNumber": 73, "velocity": 79, "subtype": "noteOn" }, { "deltaTime": 16, "channel": 2, "type": "channel", "subtype": "noteOff", "noteNumber": 64, "velocity": 64 }, { "deltaTime": 8, "channel": 2, "type": "channel", "subtype": "noteOff", "noteNumber": 57, "velocity": 64 }, { "deltaTime": 2, "channel": 2, "type": "channel", "subtype": "noteOff", "noteNumber": 61, "velocity": 64 }, { "deltaTime": 168, "channel": 2, "type": "channel", "noteNumber": 62, "velocity": 71, "subtype": "noteOn" }, { "deltaTime": 20, "channel": 2, "type": "channel", "subtype": "noteOff", "noteNumber": 73, "velocity": 64 }, { "deltaTime": 8, "channel": 2, "type": "channel", "subtype": "noteOff", "noteNumber": 69, "velocity": 64 }, { "deltaTime": 28, "channel": 2, "type": "channel", "subtype": "noteOff", "noteNumber": 76, "velocity": 64 }, { "deltaTime": 44, "channel": 2, "type": "channel", "noteNumber": 66, "velocity": 72, "subtype": "noteOn" }, { "deltaTime": 118, "channel": 2, "type": "channel", "noteNumber": 69, "velocity": 31, "subtype": "noteOn" }, { "deltaTime": 82, "channel": 2, "type": "channel", "noteNumber": 74, "velocity": 81, "subtype": "noteOn" }, { "deltaTime": 188, "channel": 2, "type": "channel", "noteNumber": 81, "velocity": 41, "subtype": "noteOn" }, { "deltaTime": 94, "channel": 2, "type": "channel", "noteNumber": 78, "velocity": 80, "subtype": "noteOn" }, { "deltaTime": 36, "channel": 2, "type": "channel", "subtype": "noteOff", "noteNumber": 69, "velocity": 64 }, { "deltaTime": 6, "channel": 2, "type": "channel", "subtype": "noteOff", "noteNumber": 62, "velocity": 64 }, { "deltaTime": 2, "channel": 2, "type": "channel", "subtype": "noteOff", "noteNumber": 66, "velocity": 64 }, { "deltaTime": 142, "channel": 2, "type": "channel", "noteNumber": 64, "velocity": 58, "subtype": "noteOn" }, { "deltaTime": 2, "channel": 2, "type": "channel", "subtype": "noteOff", "noteNumber": 78, "velocity": 64 }, { "deltaTime": 12, "channel": 2, "type": "channel", "subtype": "noteOff", "noteNumber": 74, "velocity": 64 }, { "deltaTime": 2, "channel": 2, "type": "channel", "subtype": "noteOff", "noteNumber": 81, "velocity": 64 }, { "deltaTime": 86, "channel": 2, "type": "channel", "noteNumber": 67, "velocity": 58, "subtype": "noteOn" }, { "deltaTime": 90, "channel": 2, "type": "channel", "noteNumber": 79, "velocity": 69, "subtype": "noteOn" }, { "deltaTime": 34, "channel": 2, "type": "channel", "subtype": "noteOff", "noteNumber": 67, "velocity": 64 }, { "deltaTime": 18, "channel": 2, "type": "channel", "subtype": "noteOff", "noteNumber": 64, "velocity": 64 }, { "deltaTime": 42, "channel": 2, "type": "channel", "noteNumber": 76, "velocity": 66, "subtype": "noteOn" }, { "deltaTime": 64, "channel": 2, "type": "channel", "subtype": "noteOff", "noteNumber": 79, "velocity": 64 }, { "deltaTime": 36, "channel": 2, "type": "channel", "noteNumber": 57, "velocity": 60, "subtype": "noteOn" }, { "deltaTime": 26, "channel": 2, "type": "channel", "subtype": "noteOff", "noteNumber": 76, "velocity": 64 }, { "deltaTime": 70, "channel": 2, "type": "channel", "noteNumber": 61, "velocity": 75, "subtype": "noteOn" }, { "deltaTime": 94, "channel": 2, "type": "channel", "noteNumber": 64, "velocity": 65, "subtype": "noteOn" }, { "deltaTime": 92, "channel": 2, "type": "channel", "noteNumber": 69, "velocity": 70, "subtype": "noteOn" }, { "deltaTime": 20, "channel": 2, "type": "channel", "subtype": "noteOff", "noteNumber": 57, "velocity": 64 }, { "deltaTime": 4, "channel": 2, "type": "channel", "subtype": "noteOff", "noteNumber": 64, "velocity": 64 }, { "deltaTime": 4, "channel": 2, "type": "channel", "subtype": "noteOff", "noteNumber": 61, "velocity": 64 }, { "deltaTime": 82, "channel": 2, "type": "channel", "noteNumber": 62, "velocity": 68, "subtype": "noteOn" }, { "deltaTime": 70, "channel": 2, "type": "channel", "subtype": "noteOff", "noteNumber": 69, "velocity": 64 }, { "deltaTime": 110, "channel": 2, "type": "channel", "noteNumber": 66, "velocity": 79, "subtype": "noteOn" }, { "deltaTime": 104, "channel": 2, "type": "channel", "noteNumber": 69, "velocity": 58, "subtype": "noteOn" }, { "deltaTime": 100, "channel": 2, "type": "channel", "noteNumber": 74, "velocity": 65, "subtype": "noteOn" }, { "deltaTime": 94, "channel": 2, "type": "channel", "noteNumber": 78, "velocity": 66, "subtype": "noteOn" }, { "deltaTime": 86, "channel": 2, "type": "channel", "noteNumber": 81, "velocity": 63, "subtype": "noteOn" }, { "deltaTime": 24, "channel": 2, "type": "channel", "subtype": "noteOff", "noteNumber": 78, "velocity": 64 }, { "deltaTime": 74, "channel": 2, "type": "channel", "subtype": "noteOff", "noteNumber": 69, "velocity": 64 }, { "deltaTime": 2, "channel": 2, "type": "channel", "subtype": "noteOff", "noteNumber": 74, "velocity": 64 }, { "deltaTime": 4, "channel": 2, "type": "channel", "subtype": "noteOff", "noteNumber": 66, "velocity": 64 }, { "deltaTime": 10, "channel": 2, "type": "channel", "subtype": "noteOff", "noteNumber": 62, "velocity": 64 }, { "deltaTime": 62, "channel": 2, "type": "channel", "noteNumber": 74, "velocity": 1, "subtype": "noteOn" }, { "deltaTime": 18, "channel": 2, "type": "channel", "noteNumber": 62, "velocity": 63, "subtype": "noteOn" }, { "deltaTime": 104, "channel": 2, "type": "channel", "noteNumber": 66, "velocity": 69, "subtype": "noteOn" }, { "deltaTime": 96, "channel": 2, "type": "channel", "noteNumber": 69, "velocity": 56, "subtype": "noteOn" }, { "deltaTime": 14, "channel": 2, "type": "channel", "subtype": "noteOff", "noteNumber": 74, "velocity": 64 }, { "deltaTime": 12, "channel": 2, "type": "channel", "subtype": "noteOff", "noteNumber": 81, "velocity": 64 }, { "deltaTime": 64, "channel": 2, "type": "channel", "noteNumber": 74, "velocity": 63, "subtype": "noteOn" }, { "deltaTime": 114, "channel": 2, "type": "channel", "noteNumber": 78, "velocity": 58, "subtype": "noteOn" }, { "deltaTime": 82, "channel": 2, "type": "channel", "noteNumber": 81, "velocity": 54, "subtype": "noteOn" }, { "deltaTime": 36, "channel": 2, "type": "channel", "subtype": "noteOff", "noteNumber": 78, "velocity": 64 }, { "deltaTime": 12, "channel": 2, "type": "channel", "subtype": "noteOff", "noteNumber": 74, "velocity": 64 }, { "deltaTime": 54, "channel": 2, "type": "channel", "noteNumber": 78, "velocity": 65, "subtype": "noteOn" }, { "deltaTime": 22, "channel": 2, "type": "channel", "subtype": "noteOff", "noteNumber": 69, "velocity": 64 }, { "deltaTime": 12, "channel": 2, "type": "channel", "subtype": "noteOff", "noteNumber": 66, "velocity": 64 }, { "deltaTime": 18, "channel": 2, "type": "channel", "subtype": "noteOff", "noteNumber": 62, "velocity": 64 }, { "deltaTime": 40, "channel": 2, "type": "channel", "noteNumber": 74, "velocity": 77, "subtype": "noteOn" }, { "deltaTime": 94, "channel": 2, "type": "channel", "subtype": "noteOff", "noteNumber": 78, "velocity": 64 }, { "deltaTime": 0, "channel": 2, "type": "channel", "noteNumber": 62, "velocity": 73, "subtype": "noteOn" }, { "deltaTime": 26, "channel": 2, "type": "channel", "subtype": "noteOff", "noteNumber": 81, "velocity": 64 }, { "deltaTime": 80, "channel": 2, "type": "channel", "noteNumber": 66, "velocity": 57, "subtype": "noteOn" }, { "deltaTime": 98, "channel": 2, "type": "channel", "noteNumber": 69, "velocity": 55, "subtype": "noteOn" }, { "deltaTime": 90, "channel": 2, "type": "channel", "noteNumber": 81, "velocity": 62, "subtype": "noteOn" }, { "deltaTime": 180, "channel": 2, "type": "channel", "noteNumber": 78, "velocity": 86, "subtype": "noteOn" }, { "deltaTime": 28, "channel": 2, "type": "channel", "subtype": "noteOff", "noteNumber": 74, "velocity": 64 }, { "deltaTime": 18, "channel": 2, "type": "channel", "subtype": "noteOff", "noteNumber": 69, "velocity": 64 }, { "deltaTime": 14, "channel": 2, "type": "channel", "subtype": "noteOff", "noteNumber": 66, "velocity": 64 }, { "deltaTime": 26, "channel": 2, "type": "channel", "subtype": "noteOff", "noteNumber": 62, "velocity": 64 }, { "deltaTime": 16, "channel": 2, "type": "channel", "noteNumber": 74, "velocity": 66, "subtype": "noteOn" }, { "deltaTime": 182, "channel": 2, "type": "channel", "subtype": "noteOff", "noteNumber": 81, "velocity": 64 }, { "deltaTime": 0, "channel": 2, "type": "channel", "subtype": "noteOff", "noteNumber": 78, "velocity": 64 }, { "deltaTime": 2, "channel": 2, "type": "channel", "noteNumber": 57, "velocity": 59, "subtype": "noteOn" }, { "deltaTime": 34, "channel": 2, "type": "channel", "subtype": "noteOff", "noteNumber": 74, "velocity": 64 }, { "deltaTime": 68, "channel": 2, "type": "channel", "noteNumber": 61, "velocity": 65, "subtype": "noteOn" }, { "deltaTime": 98, "channel": 2, "type": "channel", "noteNumber": 64, "velocity": 60, "subtype": "noteOn" }, { "deltaTime": 94, "channel": 2, "type": "channel", "noteNumber": 69, "velocity": 65, "subtype": "noteOn" }, { "deltaTime": 162, "channel": 2, "type": "channel", "noteNumber": 76, "velocity": 61, "subtype": "noteOn" }, { "deltaTime": 106, "channel": 2, "type": "channel", "noteNumber": 73, "velocity": 82, "subtype": "noteOn" }, { "deltaTime": 20, "channel": 2, "type": "channel", "subtype": "noteOff", "noteNumber": 64, "velocity": 64 }, { "deltaTime": 8, "channel": 2, "type": "channel", "subtype": "noteOff", "noteNumber": 69, "velocity": 64 }, { "deltaTime": 4, "channel": 2, "type": "channel", "subtype": "noteOff", "noteNumber": 57, "velocity": 64 }, { "deltaTime": 0, "channel": 2, "type": "channel", "subtype": "noteOff", "noteNumber": 61, "velocity": 64 }, { "deltaTime": 68, "channel": 2, "type": "channel", "noteNumber": 69, "velocity": 57, "subtype": "noteOn" }, { "deltaTime": 102, "channel": 2, "type": "channel", "noteNumber": 62, "velocity": 65, "subtype": "noteOn" }, { "deltaTime": 12, "channel": 2, "type": "channel", "subtype": "noteOff", "noteNumber": 69, "velocity": 64 }, { "deltaTime": 4, "channel": 2, "type": "channel", "subtype": "noteOff", "noteNumber": 73, "velocity": 64 }, { "deltaTime": 30, "channel": 2, "type": "channel", "subtype": "noteOff", "noteNumber": 76, "velocity": 64 }, { "deltaTime": 60, "channel": 2, "type": "channel", "noteNumber": 66, "velocity": 60, "subtype": "noteOn" }, { "deltaTime": 98, "channel": 2, "type": "channel", "noteNumber": 69, "velocity": 62, "subtype": "noteOn" }, { "deltaTime": 90, "channel": 2, "type": "channel", "noteNumber": 74, "velocity": 71, "subtype": "noteOn" }, { "deltaTime": 94, "channel": 2, "type": "channel", "noteNumber": 78, "velocity": 60, "subtype": "noteOn" }, { "deltaTime": 94, "channel": 2, "type": "channel", "noteNumber": 81, "velocity": 63, "subtype": "noteOn" }, { "deltaTime": 38, "channel": 2, "type": "channel", "subtype": "noteOff", "noteNumber": 78, "velocity": 64 }, { "deltaTime": 12, "channel": 2, "type": "channel", "subtype": "noteOff", "noteNumber": 74, "velocity": 64 }, { "deltaTime": 50, "channel": 2, "type": "channel", "noteNumber": 78, "velocity": 77, "subtype": "noteOn" }, { "deltaTime": 26, "channel": 2, "type": "channel", "subtype": "noteOff", "noteNumber": 69, "velocity": 64 }, { "deltaTime": 4, "channel": 2, "type": "channel", "subtype": "noteOff", "noteNumber": 66, "velocity": 64 }, { "deltaTime": 24, "channel": 2, "type": "channel", "subtype": "noteOff", "noteNumber": 62, "velocity": 64 }, { "deltaTime": 40, "channel": 2, "type": "channel", "noteNumber": 74, "velocity": 65, "subtype": "noteOn" }, { "deltaTime": 98, "channel": 2, "type": "channel", "noteNumber": 62, "velocity": 70, "subtype": "noteOn" }, { "deltaTime": 6, "channel": 2, "type": "channel", "subtype": "noteOff", "noteNumber": 78, "velocity": 64 }, { "deltaTime": 14, "channel": 2, "type": "channel", "subtype": "noteOff", "noteNumber": 81, "velocity": 64 }, { "deltaTime": 84, "channel": 2, "type": "channel", "noteNumber": 66, "velocity": 62, "subtype": "noteOn" }, { "deltaTime": 94, "channel": 2, "type": "channel", "noteNumber": 69, "velocity": 65, "subtype": "noteOn" }, { "deltaTime": 26, "channel": 2, "type": "channel", "subtype": "noteOff", "noteNumber": 74, "velocity": 64 }, { "deltaTime": 76, "channel": 2, "type": "channel", "noteNumber": 74, "velocity": 66, "subtype": "noteOn" }, { "deltaTime": 98, "channel": 2, "type": "channel", "noteNumber": 78, "velocity": 67, "subtype": "noteOn" }, { "deltaTime": 80, "channel": 2, "type": "channel", "noteNumber": 81, "velocity": 64, "subtype": "noteOn" }, { "deltaTime": 32, "channel": 2, "type": "channel", "subtype": "noteOff", "noteNumber": 78, "velocity": 64 }, { "deltaTime": 4, "channel": 2, "type": "channel", "subtype": "noteOff", "noteNumber": 69, "velocity": 64 }, { "deltaTime": 8, "channel": 2, "type": "channel", "subtype": "noteOff", "noteNumber": 66, "velocity": 64 }, { "deltaTime": 2, "channel": 2, "type": "channel", "subtype": "noteOff", "noteNumber": 74, "velocity": 64 }, { "deltaTime": 18, "channel": 2, "type": "channel", "subtype": "noteOff", "noteNumber": 62, "velocity": 64 }, { "deltaTime": 30, "channel": 2, "type": "channel", "noteNumber": 78, "velocity": 67, "subtype": "noteOn" }, { "deltaTime": 94, "channel": 2, "type": "channel", "noteNumber": 74, "velocity": 64, "subtype": "noteOn" }, { "deltaTime": 22, "channel": 2, "type": "channel", "subtype": "noteOff", "noteNumber": 81, "velocity": 64 }, { "deltaTime": 6, "channel": 2, "type": "channel", "subtype": "noteOff", "noteNumber": 78, "velocity": 64 }, { "deltaTime": 24, "channel": 2, "type": "channel", "subtype": "noteOff", "noteNumber": 74, "velocity": 64 }, { "deltaTime": 64, "channel": 2, "type": "channel", "noteNumber": 62, "velocity": 75, "subtype": "noteOn" }, { "deltaTime": 2, "channel": 2, "type": "channel", "noteNumber": 54, "velocity": 72, "subtype": "noteOn" }, { "deltaTime": 0, "channel": 2, "type": "channel", "noteNumber": 66, "velocity": 78, "subtype": "noteOn" }, { "deltaTime": 2, "channel": 2, "type": "channel", "noteNumber": 71, "velocity": 69, "subtype": "noteOn" }, { "deltaTime": 0, "channel": 2, "type": "channel", "noteNumber": 59, "velocity": 65, "subtype": "noteOn" }, { "deltaTime": 2, "channel": 2, "type": "channel", "noteNumber": 50, "velocity": 62, "subtype": "noteOn" }, { "deltaTime": 1172, "channel": 2, "type": "channel", "subtype": "noteOff", "noteNumber": 50, "velocity": 64 }, { "deltaTime": 4, "channel": 2, "type": "channel", "subtype": "noteOff", "noteNumber": 54, "velocity": 64 }, { "deltaTime": 4, "channel": 2, "type": "channel", "subtype": "noteOff", "noteNumber": 59, "velocity": 64 }, { "deltaTime": 172, "channel": 2, "type": "channel", "subtype": "noteOff", "noteNumber": 62, "velocity": 64 }, { "deltaTime": 2, "channel": 2, "type": "channel", "subtype": "noteOff", "noteNumber": 66, "velocity": 64 }, { "deltaTime": 18, "channel": 2, "type": "channel", "subtype": "noteOff", "noteNumber": 71, "velocity": 64 }, { "deltaTime": 134, "channel": 2, "type": "channel", "noteNumber": 62, "velocity": 66, "subtype": "noteOn" }, { "deltaTime": 102, "channel": 2, "type": "channel", "noteNumber": 66, "velocity": 55, "subtype": "noteOn" }, { "deltaTime": 108, "channel": 2, "type": "channel", "noteNumber": 69, "velocity": 62, "subtype": "noteOn" }, { "deltaTime": 96, "channel": 2, "type": "channel", "noteNumber": 74, "velocity": 49, "subtype": "noteOn" }, { "deltaTime": 194, "channel": 2, "type": "channel", "noteNumber": 81, "velocity": 61, "subtype": "noteOn" }, { "deltaTime": 96, "channel": 2, "type": "channel", "noteNumber": 78, "velocity": 76, "subtype": "noteOn" }, { "deltaTime": 14, "channel": 2, "type": "channel", "subtype": "noteOff", "noteNumber": 74, "velocity": 64 }, { "deltaTime": 2, "channel": 2, "type": "channel", "subtype": "noteOff", "noteNumber": 66, "velocity": 64 }, { "deltaTime": 0, "channel": 2, "type": "channel", "subtype": "noteOff", "noteNumber": 69, "velocity": 64 }, { "deltaTime": 26, "channel": 2, "type": "channel", "subtype": "noteOff", "noteNumber": 62, "velocity": 64 }, { "deltaTime": 48, "channel": 2, "type": "channel", "noteNumber": 74, "velocity": 58, "subtype": "noteOn" }, { "deltaTime": 108, "channel": 2, "type": "channel", "noteNumber": 62, "velocity": 69, "subtype": "noteOn" }, { "deltaTime": 178, "channel": 2, "type": "channel", "noteNumber": 66, "velocity": 67, "subtype": "noteOn" }, { "deltaTime": 106, "channel": 2, "type": "channel", "noteNumber": 69, "velocity": 62, "subtype": "noteOn" }, { "deltaTime": 38, "channel": 2, "type": "channel", "subtype": "noteOff", "noteNumber": 74, "velocity": 64 }, { "deltaTime": 124, "channel": 2, "type": "channel", "subtype": "noteOff", "noteNumber": 69, "velocity": 64 }, { "deltaTime": 10, "channel": 2, "type": "channel", "subtype": "noteOff", "noteNumber": 66, "velocity": 64 }, { "deltaTime": 0, "channel": 2, "type": "channel", "noteNumber": 74, "velocity": 75, "subtype": "noteOn" }, { "deltaTime": 12, "channel": 2, "type": "channel", "subtype": "noteOff", "noteNumber": 62, "velocity": 64 }, { "deltaTime": 42, "channel": 2, "type": "channel", "subtype": "noteOff", "noteNumber": 78, "velocity": 64 }, { "deltaTime": 46, "channel": 2, "type": "channel", "noteNumber": 78, "velocity": 74, "subtype": "noteOn" }, { "deltaTime": 56, "channel": 2, "type": "channel", "subtype": "noteOff", "noteNumber": 81, "velocity": 64 }, { "deltaTime": 24, "channel": 2, "type": "channel", "subtype": "noteOff", "noteNumber": 78, "velocity": 64 }, { "deltaTime": 20, "channel": 2, "type": "channel", "subtype": "noteOff", "noteNumber": 74, "velocity": 64 }, { "deltaTime": 102, "channel": 2, "type": "channel", "noteNumber": 62, "velocity": 80, "subtype": "noteOn" }, { "deltaTime": 2, "channel": 2, "type": "channel", "noteNumber": 71, "velocity": 74, "subtype": "noteOn" }, { "deltaTime": 2, "channel": 2, "type": "channel", "noteNumber": 66, "velocity": 84, "subtype": "noteOn" }, { "deltaTime": 2, "channel": 2, "type": "channel", "noteNumber": 54, "velocity": 75, "subtype": "noteOn" }, { "deltaTime": 2, "channel": 2, "type": "channel", "noteNumber": 59, "velocity": 72, "subtype": "noteOn" }, { "deltaTime": 0, "channel": 2, "type": "channel", "noteNumber": 50, "velocity": 65, "subtype": "noteOn" }, { "deltaTime": 1318, "channel": 2, "type": "channel", "subtype": "noteOff", "noteNumber": 54, "velocity": 64 }, { "deltaTime": 4, "channel": 2, "type": "channel", "subtype": "noteOff", "noteNumber": 59, "velocity": 64 }, { "deltaTime": 10, "channel": 2, "type": "channel", "subtype": "noteOff", "noteNumber": 50, "velocity": 64 }, { "deltaTime": 176, "channel": 2, "type": "channel", "noteNumber": 50, "velocity": 67, "subtype": "noteOn" }, { "deltaTime": 30, "channel": 2, "type": "channel", "subtype": "noteOff", "noteNumber": 71, "velocity": 64 }, { "deltaTime": 10, "channel": 2, "type": "channel", "subtype": "noteOff", "noteNumber": 66, "velocity": 64 }, { "deltaTime": 16, "channel": 2, "type": "channel", "subtype": "noteOff", "noteNumber": 62, "velocity": 64 }, { "deltaTime": 58, "channel": 2, "type": "channel", "noteNumber": 54, "velocity": 63, "subtype": "noteOn" }, { "deltaTime": 96, "channel": 2, "type": "channel", "noteNumber": 57, "velocity": 59, "subtype": "noteOn" }, { "deltaTime": 96, "channel": 2, "type": "channel", "noteNumber": 62, "velocity": 79, "subtype": "noteOn" }, { "deltaTime": 110, "channel": 2, "type": "channel", "noteNumber": 66, "velocity": 69, "subtype": "noteOn" }, { "deltaTime": 94, "channel": 2, "type": "channel", "noteNumber": 69, "velocity": 62, "subtype": "noteOn" }, { "deltaTime": 28, "channel": 2, "type": "channel", "subtype": "noteOff", "noteNumber": 66, "velocity": 64 }, { "deltaTime": 54, "channel": 2, "type": "channel", "subtype": "noteOff", "noteNumber": 62, "velocity": 64 }, { "deltaTime": 18, "channel": 2, "type": "channel", "noteNumber": 66, "velocity": 76, "subtype": "noteOn" }, { "deltaTime": 22, "channel": 2, "type": "channel", "subtype": "noteOff", "noteNumber": 57, "velocity": 64 }, { "deltaTime": 8, "channel": 2, "type": "channel", "subtype": "noteOff", "noteNumber": 50, "velocity": 64 }, { "deltaTime": 0, "channel": 2, "type": "channel", "subtype": "noteOff", "noteNumber": 54, "velocity": 64 }, { "deltaTime": 58, "channel": 2, "type": "channel", "noteNumber": 62, "velocity": 63, "subtype": "noteOn" }, { "deltaTime": 94, "channel": 2, "type": "channel", "noteNumber": 50, "velocity": 68, "subtype": "noteOn" }, { "deltaTime": 186, "channel": 2, "type": "channel", "noteNumber": 54, "velocity": 68, "subtype": "noteOn" }, { "deltaTime": 102, "channel": 2, "type": "channel", "noteNumber": 57, "velocity": 58, "subtype": "noteOn" }, { "deltaTime": 32, "channel": 2, "type": "channel", "subtype": "noteOff", "noteNumber": 62, "velocity": 64 }, { "deltaTime": 90, "channel": 2, "type": "channel", "subtype": "noteOff", "noteNumber": 66, "velocity": 64 }, { "deltaTime": 22, "channel": 2, "type": "channel", "subtype": "noteOff", "noteNumber": 69, "velocity": 64 }, { "deltaTime": 42, "channel": 2, "type": "channel", "noteNumber": 62, "velocity": 71, "subtype": "noteOn" }, { "deltaTime": 92, "channel": 2, "type": "channel", "noteNumber": 66, "velocity": 61, "subtype": "noteOn" }, { "deltaTime": 102, "channel": 2, "type": "channel", "subtype": "noteOff", "noteNumber": 50, "velocity": 64 }, { "deltaTime": 2, "channel": 2, "type": "channel", "noteNumber": 69, "velocity": 64, "subtype": "noteOn" }, { "deltaTime": 2, "channel": 2, "type": "channel", "subtype": "noteOff", "noteNumber": 54, "velocity": 64 }, { "deltaTime": 10, "channel": 2, "type": "channel", "subtype": "noteOff", "noteNumber": 57, "velocity": 64 }, { "deltaTime": 28, "channel": 2, "type": "channel", "subtype": "noteOff", "noteNumber": 62, "velocity": 64 }, { "deltaTime": 6, "channel": 2, "type": "channel", "subtype": "noteOff", "noteNumber": 66, "velocity": 64 }, { "deltaTime": 20, "channel": 2, "type": "channel", "subtype": "noteOff", "noteNumber": 69, "velocity": 64 }, { "deltaTime": 154, "channel": 2, "type": "channel", "noteNumber": 64, "velocity": 77, "subtype": "noteOn" }, { "deltaTime": 2, "channel": 2, "type": "channel", "noteNumber": 61, "velocity": 78, "subtype": "noteOn" }, { "deltaTime": 0, "channel": 2, "type": "channel", "noteNumber": 69, "velocity": 54, "subtype": "noteOn" }, { "deltaTime": 10, "channel": 2, "type": "channel", "noteNumber": 57, "velocity": 63, "subtype": "noteOn" }, { "deltaTime": 8, "channel": 2, "type": "channel", "noteNumber": 52, "velocity": 58, "subtype": "noteOn" }, { "deltaTime": 0, "channel": 2, "type": "channel", "noteNumber": 49, "velocity": 56, "subtype": "noteOn" }, { "deltaTime": 40, "channel": 2, "type": "channel", "subtype": "noteOff", "noteNumber": 49, "velocity": 64 }, { "deltaTime": 18, "channel": 2, "type": "channel", "subtype": "noteOff", "noteNumber": 61, "velocity": 64 }, { "deltaTime": 16, "channel": 2, "type": "channel", "subtype": "noteOff", "noteNumber": 57, "velocity": 64 }, { "deltaTime": 8, "channel": 2, "type": "channel", "subtype": "noteOff", "noteNumber": 52, "velocity": 64 }, { "deltaTime": 2, "channel": 2, "type": "channel", "subtype": "noteOff", "noteNumber": 69, "velocity": 64 }, { "deltaTime": 10, "channel": 2, "type": "channel", "subtype": "noteOff", "noteNumber": 64, "velocity": 64 }, { "deltaTime": 40, "channel": 2, "type": "channel", "noteNumber": 64, "velocity": 66, "subtype": "noteOn" }, { "deltaTime": 4, "channel": 2, "type": "channel", "noteNumber": 69, "velocity": 66, "subtype": "noteOn" }, { "deltaTime": 2, "channel": 2, "type": "channel", "noteNumber": 61, "velocity": 87, "subtype": "noteOn" }, { "deltaTime": 2, "channel": 2, "type": "channel", "noteNumber": 57, "velocity": 53, "subtype": "noteOn" }, { "deltaTime": 6, "channel": 2, "type": "channel", "noteNumber": 52, "velocity": 51, "subtype": "noteOn" }, { "deltaTime": 0, "channel": 2, "type": "channel", "noteNumber": 49, "velocity": 49, "subtype": "noteOn" }, { "deltaTime": 60, "channel": 2, "type": "channel", "subtype": "noteOff", "noteNumber": 49, "velocity": 64 }, { "deltaTime": 2, "channel": 2, "type": "channel", "subtype": "noteOff", "noteNumber": 61, "velocity": 64 }, { "deltaTime": 2, "channel": 2, "type": "channel", "subtype": "noteOff", "noteNumber": 57, "velocity": 64 }, { "deltaTime": 10, "channel": 2, "type": "channel", "subtype": "noteOff", "noteNumber": 69, "velocity": 64 }, { "deltaTime": 2, "channel": 2, "type": "channel", "subtype": "noteOff", "noteNumber": 52, "velocity": 64 }, { "deltaTime": 6, "channel": 2, "type": "channel", "subtype": "noteOff", "noteNumber": 64, "velocity": 64 }, { "deltaTime": 24, "channel": 2, "type": "channel", "noteNumber": 64, "velocity": 66, "subtype": "noteOn" }, { "deltaTime": 2, "channel": 2, "type": "channel", "noteNumber": 57, "velocity": 68, "subtype": "noteOn" }, { "deltaTime": 2, "channel": 2, "type": "channel", "noteNumber": 61, "velocity": 82, "subtype": "noteOn" }, { "deltaTime": 0, "channel": 2, "type": "channel", "noteNumber": 49, "velocity": 71, "subtype": "noteOn" }, { "deltaTime": 2, "channel": 2, "type": "channel", "noteNumber": 52, "velocity": 59, "subtype": "noteOn" }, { "deltaTime": 0, "channel": 2, "type": "channel", "noteNumber": 69, "velocity": 72, "subtype": "noteOn" }, { "deltaTime": 56, "channel": 2, "type": "channel", "subtype": "noteOff", "noteNumber": 57, "velocity": 64 }, { "deltaTime": 0, "channel": 2, "type": "channel", "subtype": "noteOff", "noteNumber": 61, "velocity": 64 }, { "deltaTime": 6, "channel": 2, "type": "channel", "subtype": "noteOff", "noteNumber": 49, "velocity": 64 }, { "deltaTime": 4, "channel": 2, "type": "channel", "subtype": "noteOff", "noteNumber": 52, "velocity": 64 }, { "deltaTime": 8, "channel": 2, "type": "channel", "subtype": "noteOff", "noteNumber": 69, "velocity": 64 }, { "deltaTime": 6, "channel": 2, "type": "channel", "subtype": "noteOff", "noteNumber": 64, "velocity": 64 }, { "deltaTime": 356, "channel": 2, "type": "channel", "noteNumber": 61, "velocity": 77, "subtype": "noteOn" }, { "deltaTime": 0, "channel": 2, "type": "channel", "noteNumber": 69, "velocity": 64, "subtype": "noteOn" }, { "deltaTime": 2, "channel": 2, "type": "channel", "noteNumber": 64, "velocity": 73, "subtype": "noteOn" }, { "deltaTime": 0, "channel": 2, "type": "channel", "noteNumber": 57, "velocity": 63, "subtype": "noteOn" }, { "deltaTime": 4, "channel": 2, "type": "channel", "noteNumber": 49, "velocity": 72, "subtype": "noteOn" }, { "deltaTime": 0, "channel": 2, "type": "channel", "noteNumber": 52, "velocity": 61, "subtype": "noteOn" }, { "deltaTime": 98, "channel": 2, "type": "channel", "subtype": "noteOff", "noteNumber": 49, "velocity": 64 }, { "deltaTime": 4, "channel": 2, "type": "channel", "subtype": "noteOff", "noteNumber": 57, "velocity": 64 }, { "deltaTime": 2, "channel": 2, "type": "channel", "subtype": "noteOff", "noteNumber": 61, "velocity": 64 }, { "deltaTime": 8, "channel": 2, "type": "channel", "subtype": "noteOff", "noteNumber": 52, "velocity": 64 }, { "deltaTime": 4, "channel": 2, "type": "channel", "subtype": "noteOff", "noteNumber": 69, "velocity": 64 }, { "deltaTime": 2, "channel": 2, "type": "channel", "subtype": "noteOff", "noteNumber": 64, "velocity": 64 }, { "deltaTime": 64, "channel": 2, "type": "channel", "noteNumber": 57, "velocity": 61, "subtype": "noteOn" }, { "deltaTime": 2, "channel": 2, "type": "channel", "noteNumber": 69, "velocity": 55, "subtype": "noteOn" }, { "deltaTime": 0, "channel": 2, "type": "channel", "noteNumber": 61, "velocity": 81, "subtype": "noteOn" }, { "deltaTime": 2, "channel": 2, "type": "channel", "noteNumber": 64, "velocity": 73, "subtype": "noteOn" }, { "deltaTime": 0, "channel": 2, "type": "channel", "noteNumber": 52, "velocity": 58, "subtype": "noteOn" }, { "deltaTime": 2, "channel": 2, "type": "channel", "noteNumber": 49, "velocity": 64, "subtype": "noteOn" }, { "deltaTime": 62, "channel": 2, "type": "channel", "subtype": "noteOff", "noteNumber": 61, "velocity": 64 }, { "deltaTime": 2, "channel": 2, "type": "channel", "subtype": "noteOff", "noteNumber": 57, "velocity": 64 }, { "deltaTime": 0, "channel": 2, "type": "channel", "subtype": "noteOff", "noteNumber": 49, "velocity": 64 }, { "deltaTime": 14, "channel": 2, "type": "channel", "subtype": "noteOff", "noteNumber": 69, "velocity": 64 }, { "deltaTime": 0, "channel": 2, "type": "channel", "subtype": "noteOff", "noteNumber": 52, "velocity": 64 }, { "deltaTime": 2, "channel": 2, "type": "channel", "subtype": "noteOff", "noteNumber": 64, "velocity": 64 }, { "deltaTime": 32, "channel": 2, "type": "channel", "noteNumber": 57, "velocity": 67, "subtype": "noteOn" }, { "deltaTime": 2, "channel": 2, "type": "channel", "noteNumber": 69, "velocity": 63, "subtype": "noteOn" }, { "deltaTime": 0, "channel": 2, "type": "channel", "noteNumber": 49, "velocity": 70, "subtype": "noteOn" }, { "deltaTime": 2, "channel": 2, "type": "channel", "noteNumber": 52, "velocity": 61, "subtype": "noteOn" }, { "deltaTime": 2, "channel": 2, "type": "channel", "noteNumber": 64, "velocity": 73, "subtype": "noteOn" }, { "deltaTime": 0, "channel": 2, "type": "channel", "noteNumber": 61, "velocity": 82, "subtype": "noteOn" }, { "deltaTime": 64, "channel": 2, "type": "channel", "subtype": "noteOff", "noteNumber": 57, "velocity": 64 }, { "deltaTime": 2, "channel": 2, "type": "channel", "subtype": "noteOff", "noteNumber": 49, "velocity": 64 }, { "deltaTime": 0, "channel": 2, "type": "channel", "subtype": "noteOff", "noteNumber": 61, "velocity": 64 }, { "deltaTime": 8, "channel": 2, "type": "channel", "subtype": "noteOff", "noteNumber": 52, "velocity": 64 }, { "deltaTime": 14, "channel": 2, "type": "channel", "subtype": "noteOff", "noteNumber": 64, "velocity": 64 }, { "deltaTime": 4, "channel": 2, "type": "channel", "subtype": "noteOff", "noteNumber": 69, "velocity": 64 }, { "deltaTime": 304, "channel": 2, "type": "channel", "noteNumber": 57, "velocity": 79, "subtype": "noteOn" }, { "deltaTime": 2, "channel": 2, "type": "channel", "noteNumber": 61, "velocity": 86, "subtype": "noteOn" }, { "deltaTime": 0, "channel": 2, "type": "channel", "noteNumber": 49, "velocity": 74, "subtype": "noteOn" }, { "deltaTime": 0, "channel": 2, "type": "channel", "noteNumber": 64, "velocity": 77, "subtype": "noteOn" }, { "deltaTime": 2, "channel": 2, "type": "channel", "noteNumber": 52, "velocity": 67, "subtype": "noteOn" }, { "deltaTime": 2, "channel": 2, "type": "channel", "noteNumber": 69, "velocity": 59, "subtype": "noteOn" }, { "deltaTime": 574, "channel": 2, "type": "channel", "subtype": "noteOff", "noteNumber": 52, "velocity": 64 }, { "deltaTime": 4, "channel": 2, "type": "channel", "subtype": "noteOff", "noteNumber": 49, "velocity": 64 }, { "deltaTime": 6, "channel": 2, "type": "channel", "subtype": "noteOff", "noteNumber": 61, "velocity": 64 }, { "deltaTime": 10, "channel": 2, "type": "channel", "subtype": "noteOff", "noteNumber": 57, "velocity": 64 }, { "deltaTime": 6, "channel": 2, "type": "channel", "subtype": "noteOff", "noteNumber": 64, "velocity": 64 }, { "deltaTime": 4, "channel": 2, "type": "channel", "subtype": "noteOff", "noteNumber": 69, "velocity": 64 }, { "deltaTime": 126, "channel": 2, "type": "channel", "noteNumber": 61, "velocity": 73, "subtype": "noteOn" }, { "deltaTime": 2, "channel": 2, "type": "channel", "noteNumber": 57, "velocity": 67, "subtype": "noteOn" }, { "deltaTime": 2, "channel": 2, "type": "channel", "noteNumber": 64, "velocity": 74, "subtype": "noteOn" }, { "deltaTime": 0, "channel": 2, "type": "channel", "noteNumber": 69, "velocity": 53, "subtype": "noteOn" }, { "deltaTime": 2, "channel": 2, "type": "channel", "noteNumber": 49, "velocity": 70, "subtype": "noteOn" }, { "deltaTime": 0, "channel": 2, "type": "channel", "noteNumber": 52, "velocity": 62, "subtype": "noteOn" }, { "deltaTime": 564, "channel": 2, "type": "channel", "subtype": "noteOff", "noteNumber": 52, "velocity": 64 }, { "deltaTime": 6, "channel": 2, "type": "channel", "subtype": "noteOff", "noteNumber": 49, "velocity": 64 }, { "deltaTime": 6, "channel": 2, "type": "channel", "subtype": "noteOff", "noteNumber": 57, "velocity": 64 }, { "deltaTime": 194, "channel": 2, "type": "channel", "noteNumber": 50, "velocity": 72, "subtype": "noteOn" }, { "deltaTime": 16, "channel": 2, "type": "channel", "subtype": "noteOff", "noteNumber": 61, "velocity": 64 }, { "deltaTime": 4, "channel": 2, "type": "channel", "subtype": "noteOff", "noteNumber": 64, "velocity": 64 }, { "deltaTime": 16, "channel": 2, "type": "channel", "subtype": "noteOff", "noteNumber": 69, "velocity": 64 }, { "deltaTime": 154, "channel": 2, "type": "channel", "noteNumber": 54, "velocity": 66, "subtype": "noteOn" }, { "deltaTime": 104, "channel": 2, "type": "channel", "noteNumber": 57, "velocity": 63, "subtype": "noteOn" }, { "deltaTime": 108, "channel": 2, "type": "channel", "noteNumber": 62, "velocity": 67, "subtype": "noteOn" }, { "deltaTime": 100, "channel": 2, "type": "channel", "noteNumber": 66, "velocity": 61, "subtype": "noteOn" }, { "deltaTime": 166, "channel": 2, "type": "channel", "noteNumber": 69, "velocity": 69, "subtype": "noteOn" }, { "deltaTime": 18, "channel": 2, "type": "channel", "subtype": "noteOff", "noteNumber": 57, "velocity": 64 }, { "deltaTime": 4, "channel": 2, "type": "channel", "subtype": "noteOff", "noteNumber": 54, "velocity": 64 }, { "deltaTime": 2, "channel": 2, "type": "channel", "subtype": "noteOff", "noteNumber": 50, "velocity": 64 }, { "deltaTime": 86, "channel": 2, "type": "channel", "noteNumber": 50, "velocity": 70, "subtype": "noteOn" }, { "deltaTime": 188, "channel": 2, "type": "channel", "noteNumber": 54, "velocity": 72, "subtype": "noteOn" }, { "deltaTime": 100, "channel": 2, "type": "channel", "noteNumber": 57, "velocity": 56, "subtype": "noteOn" }, { "deltaTime": 34, "channel": 2, "type": "channel", "subtype": "noteOff", "noteNumber": 62, "velocity": 64 }, { "deltaTime": 2, "channel": 2, "type": "channel", "subtype": "noteOff", "noteNumber": 66, "velocity": 64 }, { "deltaTime": 12, "channel": 2, "type": "channel", "subtype": "noteOff", "noteNumber": 69, "velocity": 64 }, { "deltaTime": 64, "channel": 2, "type": "channel", "noteNumber": 62, "velocity": 69, "subtype": "noteOn" }, { "deltaTime": 92, "channel": 2, "type": "channel", "noteNumber": 66, "velocity": 70, "subtype": "noteOn" }, { "deltaTime": 92, "channel": 2, "type": "channel", "noteNumber": 69, "velocity": 65, "subtype": "noteOn" }, { "deltaTime": 40, "channel": 2, "type": "channel", "subtype": "noteOff", "noteNumber": 50, "velocity": 64 }, { "deltaTime": 2, "channel": 2, "type": "channel", "subtype": "noteOff", "noteNumber": 54, "velocity": 64 }, { "deltaTime": 2, "channel": 2, "type": "channel", "subtype": "noteOff", "noteNumber": 57, "velocity": 64 }, { "deltaTime": 12, "channel": 2, "type": "channel", "subtype": "noteOff", "noteNumber": 66, "velocity": 64 }, { "deltaTime": 132, "channel": 2, "type": "channel", "noteNumber": 52, "velocity": 58, "subtype": "noteOn" }, { "deltaTime": 32, "channel": 2, "type": "channel", "subtype": "noteOff", "noteNumber": 69, "velocity": 64 }, { "deltaTime": 0, "channel": 2, "type": "channel", "subtype": "noteOff", "noteNumber": 62, "velocity": 64 }, { "deltaTime": 66, "channel": 2, "type": "channel", "noteNumber": 55, "velocity": 65, "subtype": "noteOn" }, { "deltaTime": 96, "channel": 2, "type": "channel", "noteNumber": 59, "velocity": 64, "subtype": "noteOn" }, { "deltaTime": 86, "channel": 2, "type": "channel", "noteNumber": 64, "velocity": 80, "subtype": "noteOn" }, { "deltaTime": 20, "channel": 2, "type": "channel", "subtype": "noteOff", "noteNumber": 55, "velocity": 64 }, { "deltaTime": 6, "channel": 2, "type": "channel", "subtype": "noteOff", "noteNumber": 59, "velocity": 64 }, { "deltaTime": 2, "channel": 2, "type": "channel", "subtype": "noteOff", "noteNumber": 52, "velocity": 64 }, { "deltaTime": 90, "channel": 2, "type": "channel", "noteNumber": 49, "velocity": 82, "subtype": "noteOn" }, { "deltaTime": 42, "channel": 2, "type": "channel", "subtype": "noteOff", "noteNumber": 64, "velocity": 64 }, { "deltaTime": 44, "channel": 2, "type": "channel", "noteNumber": 52, "velocity": 65, "subtype": "noteOn" }, { "deltaTime": 88, "channel": 2, "type": "channel", "noteNumber": 57, "velocity": 71, "subtype": "noteOn" }, { "deltaTime": 82, "channel": 2, "type": "channel", "noteNumber": 69, "velocity": 87, "subtype": "noteOn" }, { "deltaTime": 26, "channel": 2, "type": "channel", "subtype": "noteOff", "noteNumber": 49, "velocity": 64 }, { "deltaTime": 16, "channel": 2, "type": "channel", "subtype": "noteOff", "noteNumber": 57, "velocity": 64 }, { "deltaTime": 2, "channel": 2, "type": "channel", "subtype": "noteOff", "noteNumber": 52, "velocity": 64 }, { "deltaTime": 68, "channel": 2, "type": "channel", "noteNumber": 50, "velocity": 64, "subtype": "noteOn" }, { "deltaTime": 136, "channel": 2, "type": "channel", "noteNumber": 54, "velocity": 35, "subtype": "noteOn" }, { "deltaTime": 20, "channel": 2, "type": "channel", "subtype": "noteOff", "noteNumber": 69, "velocity": 64 }, { "deltaTime": 124, "channel": 2, "type": "channel", "noteNumber": 57, "velocity": 62, "subtype": "noteOn" }, { "deltaTime": 104, "channel": 2, "type": "channel", "noteNumber": 62, "velocity": 79, "subtype": "noteOn" }, { "deltaTime": 90, "channel": 2, "type": "channel", "noteNumber": 66, "velocity": 76, "subtype": "noteOn" }, { "deltaTime": 100, "channel": 2, "type": "channel", "noteNumber": 69, "velocity": 74, "subtype": "noteOn" }, { "deltaTime": 24, "channel": 2, "type": "channel", "subtype": "noteOff", "noteNumber": 54, "velocity": 64 }, { "deltaTime": 0, "channel": 2, "type": "channel", "subtype": "noteOff", "noteNumber": 57, "velocity": 64 }, { "deltaTime": 2, "channel": 2, "type": "channel", "subtype": "noteOff", "noteNumber": 50, "velocity": 64 }, { "deltaTime": 164, "channel": 2, "type": "channel", "noteNumber": 52, "velocity": 66, "subtype": "noteOn" }, { "deltaTime": 12, "channel": 2, "type": "channel", "subtype": "noteOff", "noteNumber": 66, "velocity": 64 }, { "deltaTime": 6, "channel": 2, "type": "channel", "subtype": "noteOff", "noteNumber": 62, "velocity": 64 }, { "deltaTime": 12, "channel": 2, "type": "channel", "subtype": "noteOff", "noteNumber": 69, "velocity": 64 }, { "deltaTime": 76, "channel": 2, "type": "channel", "noteNumber": 55, "velocity": 65, "subtype": "noteOn" }, { "deltaTime": 100, "channel": 2, "type": "channel", "noteNumber": 59, "velocity": 65, "subtype": "noteOn" }, { "deltaTime": 90, "channel": 2, "type": "channel", "noteNumber": 64, "velocity": 77, "subtype": "noteOn" }, { "deltaTime": 166, "channel": 2, "type": "channel", "noteNumber": 67, "velocity": 67, "subtype": "noteOn" }, { "deltaTime": 34, "channel": 2, "type": "channel", "subtype": "noteOff", "noteNumber": 64, "velocity": 64 }, { "deltaTime": 70, "channel": 2, "type": "channel", "noteNumber": 71, "velocity": 65, "subtype": "noteOn" }, { "deltaTime": 40, "channel": 2, "type": "channel", "subtype": "noteOff", "noteNumber": 55, "velocity": 64 }, { "deltaTime": 4, "channel": 2, "type": "channel", "subtype": "noteOff", "noteNumber": 59, "velocity": 64 }, { "deltaTime": 12, "channel": 2, "type": "channel", "subtype": "noteOff", "noteNumber": 52, "velocity": 64 }, { "deltaTime": 40, "channel": 2, "type": "channel", "noteNumber": 64, "velocity": 69, "subtype": "noteOn" }, { "deltaTime": 108, "channel": 2, "type": "channel", "subtype": "noteOff", "noteNumber": 64, "velocity": 64 }, { "deltaTime": 6, "channel": 2, "type": "channel", "subtype": "noteOff", "noteNumber": 67, "velocity": 64 }, { "deltaTime": 2, "channel": 2, "type": "channel", "noteNumber": 52, "velocity": 70, "subtype": "noteOn" }, { "deltaTime": 0, "channel": 2, "type": "channel", "noteNumber": 49, "velocity": 74, "subtype": "noteOn" }, { "deltaTime": 2, "channel": 2, "type": "channel", "subtype": "noteOff", "noteNumber": 71, "velocity": 64 }, { "deltaTime": 96, "channel": 2, "type": "channel", "noteNumber": 57, "velocity": 61, "subtype": "noteOn" }, { "deltaTime": 90, "channel": 2, "type": "channel", "noteNumber": 69, "velocity": 67, "subtype": "noteOn" }, { "deltaTime": 100, "channel": 2, "type": "channel", "noteNumber": 73, "velocity": 68, "subtype": "noteOn" }, { "deltaTime": 168, "channel": 2, "type": "channel", "noteNumber": 76, "velocity": 70, "subtype": "noteOn" }, { "deltaTime": 10, "channel": 2, "type": "channel", "subtype": "noteOff", "noteNumber": 73, "velocity": 64 }, { "deltaTime": 96, "channel": 2, "type": "channel", "noteNumber": 73, "velocity": 89, "subtype": "noteOn" }, { "deltaTime": 24, "channel": 2, "type": "channel", "subtype": "noteOff", "noteNumber": 69, "velocity": 64 }, { "deltaTime": 18, "channel": 2, "type": "channel", "subtype": "noteOff", "noteNumber": 49, "velocity": 64 }, { "deltaTime": 2, "channel": 2, "type": "channel", "subtype": "noteOff", "noteNumber": 57, "velocity": 64 }, { "deltaTime": 6, "channel": 2, "type": "channel", "subtype": "noteOff", "noteNumber": 52, "velocity": 64 }, { "deltaTime": 46, "channel": 2, "type": "channel", "noteNumber": 69, "velocity": 65, "subtype": "noteOn" }, { "deltaTime": 96, "channel": 2, "type": "channel", "subtype": "noteOff", "noteNumber": 73, "velocity": 64 }, { "deltaTime": 8, "channel": 2, "type": "channel", "subtype": "noteOff", "noteNumber": 76, "velocity": 64 }, { "deltaTime": 2, "channel": 2, "type": "channel", "noteNumber": 50, "velocity": 69, "subtype": "noteOn" }, { "deltaTime": 20, "channel": 2, "type": "channel", "subtype": "noteOff", "noteNumber": 69, "velocity": 64 }, { "deltaTime": 78, "channel": 2, "type": "channel", "noteNumber": 54, "velocity": 75, "subtype": "noteOn" }, { "deltaTime": 98, "channel": 2, "type": "channel", "noteNumber": 57, "velocity": 57, "subtype": "noteOn" }, { "deltaTime": 90, "channel": 2, "type": "channel", "noteNumber": 62, "velocity": 80, "subtype": "noteOn" }, { "deltaTime": 188, "channel": 2, "type": "channel", "noteNumber": 69, "velocity": 68, "subtype": "noteOn" }, { "deltaTime": 94, "channel": 2, "type": "channel", "noteNumber": 66, "velocity": 84, "subtype": "noteOn" }, { "deltaTime": 38, "channel": 2, "type": "channel", "subtype": "noteOff", "noteNumber": 50, "velocity": 64 }, { "deltaTime": 2, "channel": 2, "type": "channel", "subtype": "noteOff", "noteNumber": 54, "velocity": 64 }, { "deltaTime": 10, "channel": 2, "type": "channel", "subtype": "noteOff", "noteNumber": 62, "velocity": 64 }, { "deltaTime": 6, "channel": 2, "type": "channel", "subtype": "noteOff", "noteNumber": 57, "velocity": 64 }, { "deltaTime": 36, "channel": 2, "type": "channel", "noteNumber": 62, "velocity": 64, "subtype": "noteOn" }, { "deltaTime": 108, "channel": 2, "type": "channel", "subtype": "noteOff", "noteNumber": 66, "velocity": 64 }, { "deltaTime": 2, "channel": 2, "type": "channel", "noteNumber": 52, "velocity": 50, "subtype": "noteOn" }, { "deltaTime": 2, "channel": 2, "type": "channel", "noteNumber": 55, "velocity": 60, "subtype": "noteOn" }, { "deltaTime": 8, "channel": 2, "type": "channel", "noteNumber": 59, "velocity": 64, "subtype": "noteOn" }, { "deltaTime": 8, "channel": 2, "type": "channel", "subtype": "noteOff", "noteNumber": 62, "velocity": 64 }, { "deltaTime": 0, "channel": 2, "type": "channel", "subtype": "noteOff", "noteNumber": 69, "velocity": 64 }, { "deltaTime": 158, "channel": 2, "type": "channel", "noteNumber": 67, "velocity": 71, "subtype": "noteOn" }, { "deltaTime": 8, "channel": 2, "type": "channel", "noteNumber": 64, "velocity": 62, "subtype": "noteOn" }, { "deltaTime": 56, "channel": 2, "type": "channel", "subtype": "noteOff", "noteNumber": 55, "velocity": 64 }, { "deltaTime": 14, "channel": 2, "type": "channel", "subtype": "noteOff", "noteNumber": 59, "velocity": 64 }, { "deltaTime": 2, "channel": 2, "type": "channel", "subtype": "noteOff", "noteNumber": 52, "velocity": 64 }, { "deltaTime": 46, "channel": 2, "type": "channel", "noteNumber": 71, "velocity": 30, "subtype": "noteOn" }, { "deltaTime": 84, "channel": 2, "type": "channel", "subtype": "noteOff", "noteNumber": 71, "velocity": 64 }, { "deltaTime": 0, "channel": 2, "type": "channel", "noteNumber": 52, "velocity": 63, "subtype": "noteOn" }, { "deltaTime": 2, "channel": 2, "type": "channel", "noteNumber": 49, "velocity": 73, "subtype": "noteOn" }, { "deltaTime": 12, "channel": 2, "type": "channel", "subtype": "noteOff", "noteNumber": 67, "velocity": 64 }, { "deltaTime": 60, "channel": 2, "type": "channel", "subtype": "noteOff", "noteNumber": 64, "velocity": 64 }, { "deltaTime": 30, "channel": 2, "type": "channel", "noteNumber": 57, "velocity": 59, "subtype": "noteOn" }, { "deltaTime": 82, "channel": 2, "type": "channel", "noteNumber": 61, "velocity": 80, "subtype": "noteOn" }, { "deltaTime": 88, "channel": 2, "type": "channel", "noteNumber": 64, "velocity": 52, "subtype": "noteOn" }, { "deltaTime": 18, "channel": 2, "type": "channel", "subtype": "noteOff", "noteNumber": 49, "velocity": 64 }, { "deltaTime": 4, "channel": 2, "type": "channel", "subtype": "noteOff", "noteNumber": 57, "velocity": 64 }, { "deltaTime": 12, "channel": 2, "type": "channel", "subtype": "noteOff", "noteNumber": 52, "velocity": 64 }, { "deltaTime": 72, "channel": 2, "type": "channel", "noteNumber": 50, "velocity": 66, "subtype": "noteOn" }, { "deltaTime": 6, "channel": 2, "type": "channel", "noteNumber": 57, "velocity": 69, "subtype": "noteOn" }, { "deltaTime": 10, "channel": 2, "type": "channel", "subtype": "noteOff", "noteNumber": 61, "velocity": 64 }, { "deltaTime": 12, "channel": 2, "type": "channel", "subtype": "noteOff", "noteNumber": 64, "velocity": 64 }, { "deltaTime": 140, "channel": 2, "type": "channel", "noteNumber": 54, "velocity": 76, "subtype": "noteOn" }, { "deltaTime": 108, "channel": 2, "type": "channel", "noteNumber": 62, "velocity": 72, "subtype": "noteOn" }, { "deltaTime": 100, "channel": 2, "type": "channel", "noteNumber": 66, "velocity": 74, "subtype": "noteOn" }, { "deltaTime": 92, "channel": 2, "type": "channel", "noteNumber": 69, "velocity": 63, "subtype": "noteOn" }, { "deltaTime": 26, "channel": 2, "type": "channel", "subtype": "noteOff", "noteNumber": 66, "velocity": 64 }, { "deltaTime": 38, "channel": 2, "type": "channel", "subtype": "noteOff", "noteNumber": 62, "velocity": 64 }, { "deltaTime": 40, "channel": 2, "type": "channel", "noteNumber": 66, "velocity": 75, "subtype": "noteOn" }, { "deltaTime": 44, "channel": 2, "type": "channel", "subtype": "noteOff", "noteNumber": 57, "velocity": 64 }, { "deltaTime": 2, "channel": 2, "type": "channel", "subtype": "noteOff", "noteNumber": 54, "velocity": 64 }, { "deltaTime": 2, "channel": 2, "type": "channel", "subtype": "noteOff", "noteNumber": 50, "velocity": 64 }, { "deltaTime": 40, "channel": 2, "type": "channel", "noteNumber": 62, "velocity": 65, "subtype": "noteOn" }, { "deltaTime": 98, "channel": 2, "type": "channel", "noteNumber": 50, "velocity": 62, "subtype": "noteOn" }, { "deltaTime": 106, "channel": 2, "type": "channel", "noteNumber": 54, "velocity": 66, "subtype": "noteOn" }, { "deltaTime": 94, "channel": 2, "type": "channel", "noteNumber": 57, "velocity": 53, "subtype": "noteOn" }, { "deltaTime": 22, "channel": 2, "type": "channel", "subtype": "noteOff", "noteNumber": 62, "velocity": 64 }, { "deltaTime": 8, "channel": 2, "type": "channel", "subtype": "noteOff", "noteNumber": 66, "velocity": 64 }, { "deltaTime": 10, "channel": 2, "type": "channel", "subtype": "noteOff", "noteNumber": 69, "velocity": 64 }, { "deltaTime": 56, "channel": 2, "type": "channel", "noteNumber": 62, "velocity": 66, "subtype": "noteOn" }, { "deltaTime": 188, "channel": 2, "type": "channel", "noteNumber": 69, "velocity": 66, "subtype": "noteOn" }, { "deltaTime": 100, "channel": 2, "type": "channel", "noteNumber": 66, "velocity": 84, "subtype": "noteOn" }, { "deltaTime": 24, "channel": 2, "type": "channel", "subtype": "noteOff", "noteNumber": 62, "velocity": 64 }, { "deltaTime": 24, "channel": 2, "type": "channel", "subtype": "noteOff", "noteNumber": 54, "velocity": 64 }, { "deltaTime": 6, "channel": 2, "type": "channel", "subtype": "noteOff", "noteNumber": 57, "velocity": 64 }, { "deltaTime": 8, "channel": 2, "type": "channel", "subtype": "noteOff", "noteNumber": 50, "velocity": 64 }, { "deltaTime": 34, "channel": 2, "type": "channel", "noteNumber": 62, "velocity": 73, "subtype": "noteOn" }, { "deltaTime": 100, "channel": 2, "type": "channel", "noteNumber": 50, "velocity": 80, "subtype": "noteOn" }, { "deltaTime": 30, "channel": 2, "type": "channel", "subtype": "noteOff", "noteNumber": 66, "velocity": 64 }, { "deltaTime": 84, "channel": 2, "type": "channel", "noteNumber": 54, "velocity": 46, "subtype": "noteOn" }, { "deltaTime": 82, "channel": 2, "type": "channel", "subtype": "noteOff", "noteNumber": 69, "velocity": 64 }, { "deltaTime": 16, "channel": 2, "type": "channel", "subtype": "noteOff", "noteNumber": 62, "velocity": 64 }, { "deltaTime": 70, "channel": 2, "type": "channel", "noteNumber": 57, "velocity": 53, "subtype": "noteOn" }, { "deltaTime": 106, "channel": 2, "type": "channel", "noteNumber": 69, "velocity": 70, "subtype": "noteOn" }, { "deltaTime": 86, "channel": 2, "type": "channel", "noteNumber": 66, "velocity": 75, "subtype": "noteOn" }, { "deltaTime": 90, "channel": 2, "type": "channel", "noteNumber": 62, "velocity": 71, "subtype": "noteOn" }, { "deltaTime": 10, "channel": 2, "type": "channel", "subtype": "noteOff", "noteNumber": 57, "velocity": 64 }, { "deltaTime": 2, "channel": 2, "type": "channel", "subtype": "noteOff", "noteNumber": 50, "velocity": 64 }, { "deltaTime": 2, "channel": 2, "type": "channel", "subtype": "noteOff", "noteNumber": 54, "velocity": 64 }, { "deltaTime": 164, "channel": 2, "type": "channel", "subtype": "noteOff", "noteNumber": 66, "velocity": 64 }, { "deltaTime": 12, "channel": 2, "type": "channel", "subtype": "noteOff", "noteNumber": 69, "velocity": 64 }, { "deltaTime": 14, "channel": 2, "type": "channel", "noteNumber": 49, "velocity": 89, "subtype": "noteOn" }, { "deltaTime": 26, "channel": 2, "type": "channel", "subtype": "noteOff", "noteNumber": 62, "velocity": 64 }, { "deltaTime": 70, "channel": 2, "type": "channel", "noteNumber": 52, "velocity": 63, "subtype": "noteOn" }, { "deltaTime": 84, "channel": 2, "type": "channel", "noteNumber": 57, "velocity": 67, "subtype": "noteOn" }, { "deltaTime": 96, "channel": 2, "type": "channel", "noteNumber": 61, "velocity": 80, "subtype": "noteOn" }, { "deltaTime": 196, "channel": 2, "type": "channel", "noteNumber": 69, "velocity": 48, "subtype": "noteOn" }, { "deltaTime": 100, "channel": 2, "type": "channel", "noteNumber": 64, "velocity": 67, "subtype": "noteOn" }, { "deltaTime": 28, "channel": 2, "type": "channel", "subtype": "noteOff", "noteNumber": 49, "velocity": 64 }, { "deltaTime": 12, "channel": 2, "type": "channel", "subtype": "noteOff", "noteNumber": 57, "velocity": 64 }, { "deltaTime": 12, "channel": 2, "type": "channel", "subtype": "noteOff", "noteNumber": 52, "velocity": 64 }, { "deltaTime": 132, "channel": 2, "type": "channel", "subtype": "noteOff", "noteNumber": 61, "velocity": 64 }, { "deltaTime": 4, "channel": 2, "type": "channel", "noteNumber": 50, "velocity": 66, "subtype": "noteOn" }, { "deltaTime": 6, "channel": 2, "type": "channel", "noteNumber": 57, "velocity": 70, "subtype": "noteOn" }, { "deltaTime": 2, "channel": 2, "type": "channel", "subtype": "noteOff", "noteNumber": 64, "velocity": 64 }, { "deltaTime": 34, "channel": 2, "type": "channel", "subtype": "noteOff", "noteNumber": 69, "velocity": 64 }, { "deltaTime": 142, "channel": 2, "type": "channel", "noteNumber": 54, "velocity": 72, "subtype": "noteOn" }, { "deltaTime": 106, "channel": 2, "type": "channel", "noteNumber": 62, "velocity": 68, "subtype": "noteOn" }, { "deltaTime": 100, "channel": 2, "type": "channel", "noteNumber": 66, "velocity": 70, "subtype": "noteOn" }, { "deltaTime": 84, "channel": 2, "type": "channel", "noteNumber": 69, "velocity": 61, "subtype": "noteOn" }, { "deltaTime": 34, "channel": 2, "type": "channel", "subtype": "noteOff", "noteNumber": 66, "velocity": 64 }, { "deltaTime": 32, "channel": 2, "type": "channel", "subtype": "noteOff", "noteNumber": 62, "velocity": 64 }, { "deltaTime": 38, "channel": 2, "type": "channel", "noteNumber": 66, "velocity": 78, "subtype": "noteOn" }, { "deltaTime": 26, "channel": 2, "type": "channel", "subtype": "noteOff", "noteNumber": 57, "velocity": 64 }, { "deltaTime": 2, "channel": 2, "type": "channel", "subtype": "noteOff", "noteNumber": 54, "velocity": 64 }, { "deltaTime": 2, "channel": 2, "type": "channel", "subtype": "noteOff", "noteNumber": 50, "velocity": 64 }, { "deltaTime": 56, "channel": 2, "type": "channel", "noteNumber": 62, "velocity": 65, "subtype": "noteOn" }, { "deltaTime": 100, "channel": 2, "type": "channel", "noteNumber": 50, "velocity": 65, "subtype": "noteOn" }, { "deltaTime": 192, "channel": 2, "type": "channel", "noteNumber": 54, "velocity": 69, "subtype": "noteOn" }, { "deltaTime": 48, "channel": 2, "type": "channel", "subtype": "noteOff", "noteNumber": 62, "velocity": 64 }, { "deltaTime": 6, "channel": 2, "type": "channel", "subtype": "noteOff", "noteNumber": 66, "velocity": 64 }, { "deltaTime": 26, "channel": 2, "type": "channel", "subtype": "noteOff", "noteNumber": 69, "velocity": 64 }, { "deltaTime": 24, "channel": 2, "type": "channel", "noteNumber": 57, "velocity": 65, "subtype": "noteOn" }, { "deltaTime": 96, "channel": 2, "type": "channel", "noteNumber": 74, "velocity": 67, "subtype": "noteOn" }, { "deltaTime": 94, "channel": 2, "type": "channel", "noteNumber": 78, "velocity": 64, "subtype": "noteOn" }, { "deltaTime": 94, "channel": 2, "type": "channel", "noteNumber": 81, "velocity": 65, "subtype": "noteOn" }, { "deltaTime": 44, "channel": 2, "type": "channel", "subtype": "noteOff", "noteNumber": 74, "velocity": 64 }, { "deltaTime": 46, "channel": 2, "type": "channel", "subtype": "noteOff", "noteNumber": 57, "velocity": 64 }, { "deltaTime": 2, "channel": 2, "type": "channel", "subtype": "noteOff", "noteNumber": 54, "velocity": 64 }, { "deltaTime": 6, "channel": 2, "type": "channel", "noteNumber": 74, "velocity": 64, "subtype": "noteOn" }, { "deltaTime": 2, "channel": 2, "type": "channel", "subtype": "noteOff", "noteNumber": 50, "velocity": 64 }, { "deltaTime": 68, "channel": 2, "type": "channel", "subtype": "noteOff", "noteNumber": 81, "velocity": 64 }, { "deltaTime": 6, "channel": 2, "type": "channel", "subtype": "noteOff", "noteNumber": 78, "velocity": 64 }, { "deltaTime": 20, "channel": 2, "type": "channel", "noteNumber": 50, "velocity": 80, "subtype": "noteOn" }, { "deltaTime": 12, "channel": 2, "type": "channel", "subtype": "noteOff", "noteNumber": 74, "velocity": 64 }, { "deltaTime": 180, "channel": 2, "type": "channel", "noteNumber": 54, "velocity": 76, "subtype": "noteOn" }, { "deltaTime": 100, "channel": 2, "type": "channel", "noteNumber": 57, "velocity": 53, "subtype": "noteOn" }, { "deltaTime": 96, "channel": 2, "type": "channel", "noteNumber": 62, "velocity": 78, "subtype": "noteOn" }, { "deltaTime": 96, "channel": 2, "type": "channel", "noteNumber": 66, "velocity": 63, "subtype": "noteOn" }, { "deltaTime": 96, "channel": 2, "type": "channel", "noteNumber": 69, "velocity": 55, "subtype": "noteOn" }, { "deltaTime": 46, "channel": 2, "type": "channel", "subtype": "noteOff", "noteNumber": 62, "velocity": 64 }, { "deltaTime": 16, "channel": 2, "type": "channel", "subtype": "noteOff", "noteNumber": 66, "velocity": 64 }, { "deltaTime": 28, "channel": 2, "type": "channel", "noteNumber": 62, "velocity": 64, "subtype": "noteOn" }, { "deltaTime": 14, "channel": 2, "type": "channel", "subtype": "noteOff", "noteNumber": 57, "velocity": 64 }, { "deltaTime": 2, "channel": 2, "type": "channel", "subtype": "noteOff", "noteNumber": 54, "velocity": 64 }, { "deltaTime": 4, "channel": 2, "type": "channel", "subtype": "noteOff", "noteNumber": 50, "velocity": 64 }, { "deltaTime": 80, "channel": 2, "type": "channel", "noteNumber": 50, "velocity": 70, "subtype": "noteOn" }, { "deltaTime": 182, "channel": 2, "type": "channel", "noteNumber": 54, "velocity": 71, "subtype": "noteOn" }, { "deltaTime": 108, "channel": 2, "type": "channel", "noteNumber": 57, "velocity": 57, "subtype": "noteOn" }, { "deltaTime": 184, "channel": 2, "type": "channel", "noteNumber": 66, "velocity": 87, "subtype": "noteOn" }, { "deltaTime": 32, "channel": 2, "type": "channel", "subtype": "noteOff", "noteNumber": 62, "velocity": 64 }, { "deltaTime": 74, "channel": 2, "type": "channel", "noteNumber": 62, "velocity": 71, "subtype": "noteOn" }, { "deltaTime": 18, "channel": 2, "type": "channel", "subtype": "noteOff", "noteNumber": 66, "velocity": 64 }, { "deltaTime": 10, "channel": 2, "type": "channel", "subtype": "noteOff", "noteNumber": 50, "velocity": 64 }, { "deltaTime": 12, "channel": 2, "type": "channel", "subtype": "noteOff", "noteNumber": 54, "velocity": 64 }, { "deltaTime": 12, "channel": 2, "type": "channel", "subtype": "noteOff", "noteNumber": 57, "velocity": 64 }, { "deltaTime": 54, "channel": 2, "type": "channel", "subtype": "noteOff", "noteNumber": 69, "velocity": 64 }, { "deltaTime": 90, "channel": 2, "type": "channel", "noteNumber": 52, "velocity": 73, "subtype": "noteOn" }, { "deltaTime": 34, "channel": 2, "type": "channel", "subtype": "noteOff", "noteNumber": 62, "velocity": 64 }, { "deltaTime": 110, "channel": 2, "type": "channel", "noteNumber": 55, "velocity": 25, "subtype": "noteOn" }, { "deltaTime": 66, "channel": 2, "type": "channel", "noteNumber": 59, "velocity": 35, "subtype": "noteOn" }, { "deltaTime": 34, "channel": 2, "type": "channel", "subtype": "noteOff", "noteNumber": 59, "velocity": 64 }, { "deltaTime": 28, "channel": 2, "type": "channel", "noteNumber": 67, "velocity": 74, "subtype": "noteOn" }, { "deltaTime": 40, "channel": 2, "type": "channel", "subtype": "noteOff", "noteNumber": 55, "velocity": 64 }, { "deltaTime": 8, "channel": 2, "type": "channel", "subtype": "noteOff", "noteNumber": 52, "velocity": 64 }, { "deltaTime": 42, "channel": 2, "type": "channel", "noteNumber": 64, "velocity": 87, "subtype": "noteOn" }, { "deltaTime": 30, "channel": 2, "type": "channel", "subtype": "noteOff", "noteNumber": 67, "velocity": 64 }, { "deltaTime": 68, "channel": 2, "type": "channel", "noteNumber": 49, "velocity": 78, "subtype": "noteOn" }, { "deltaTime": 106, "channel": 2, "type": "channel", "noteNumber": 52, "velocity": 60, "subtype": "noteOn" }, { "deltaTime": 58, "channel": 2, "type": "channel", "subtype": "noteOff", "noteNumber": 64, "velocity": 64 }, { "deltaTime": 38, "channel": 2, "type": "channel", "noteNumber": 57, "velocity": 66, "subtype": "noteOn" }, { "deltaTime": 42, "channel": 2, "type": "channel", "subtype": "noteOff", "noteNumber": 49, "velocity": 64 }, { "deltaTime": 56, "channel": 2, "type": "channel", "noteNumber": 62, "velocity": 89, "subtype": "noteOn" }, { "deltaTime": 18, "channel": 2, "type": "channel", "subtype": "noteOff", "noteNumber": 52, "velocity": 64 }, { "deltaTime": 18, "channel": 2, "type": "channel", "subtype": "noteOff", "noteNumber": 57, "velocity": 64 }, { "deltaTime": 58, "channel": 2, "type": "channel", "noteNumber": 50, "velocity": 56, "subtype": "noteOn" }, { "deltaTime": 96, "channel": 2, "type": "channel", "noteNumber": 54, "velocity": 66, "subtype": "noteOn" }, { "deltaTime": 100, "channel": 2, "type": "channel", "noteNumber": 57, "velocity": 63, "subtype": "noteOn" }, { "deltaTime": 98, "channel": 2, "type": "channel", "noteNumber": 69, "velocity": 70, "subtype": "noteOn" }, { "deltaTime": 92, "channel": 2, "type": "channel", "noteNumber": 66, "velocity": 76, "subtype": "noteOn" }, { "deltaTime": 14, "channel": 2, "type": "channel", "subtype": "noteOff", "noteNumber": 62, "velocity": 64 }, { "deltaTime": 78, "channel": 2, "type": "channel", "noteNumber": 62, "velocity": 70, "subtype": "noteOn" }, { "deltaTime": 8, "channel": 2, "type": "channel", "subtype": "noteOff", "noteNumber": 50, "velocity": 64 }, { "deltaTime": 6, "channel": 2, "type": "channel", "subtype": "noteOff", "noteNumber": 54, "velocity": 64 }, { "deltaTime": 6, "channel": 2, "type": "channel", "subtype": "noteOff", "noteNumber": 57, "velocity": 64 }, { "deltaTime": 4, "channel": 2, "type": "channel", "subtype": "noteOff", "noteNumber": 66, "velocity": 64 }, { "deltaTime": 170, "channel": 2, "type": "channel", "noteNumber": 52, "velocity": 70, "subtype": "noteOn" }, { "deltaTime": 14, "channel": 2, "type": "channel", "subtype": "noteOff", "noteNumber": 62, "velocity": 64 }, { "deltaTime": 12, "channel": 2, "type": "channel", "subtype": "noteOff", "noteNumber": 69, "velocity": 64 }, { "deltaTime": 76, "channel": 2, "type": "channel", "noteNumber": 55, "velocity": 69, "subtype": "noteOn" }, { "deltaTime": 102, "channel": 2, "type": "channel", "noteNumber": 59, "velocity": 60, "subtype": "noteOn" }, { "deltaTime": 82, "channel": 2, "type": "channel", "noteNumber": 67, "velocity": 69, "subtype": "noteOn" }, { "deltaTime": 96, "channel": 2, "type": "channel", "noteNumber": 71, "velocity": 67, "subtype": "noteOn" }, { "deltaTime": 192, "channel": 2, "type": "channel", "noteNumber": 64, "velocity": 78, "subtype": "noteOn" }, { "deltaTime": 40, "channel": 2, "type": "channel", "subtype": "noteOff", "noteNumber": 59, "velocity": 64 }, { "deltaTime": 8, "channel": 2, "type": "channel", "subtype": "noteOff", "noteNumber": 55, "velocity": 64 }, { "deltaTime": 4, "channel": 2, "type": "channel", "subtype": "noteOff", "noteNumber": 52, "velocity": 64 }, { "deltaTime": 148, "channel": 2, "type": "channel", "subtype": "noteOff", "noteNumber": 64, "velocity": 64 }, { "deltaTime": 4, "channel": 2, "type": "channel", "noteNumber": 49, "velocity": 86, "subtype": "noteOn" }, { "deltaTime": 14, "channel": 2, "type": "channel", "subtype": "noteOff", "noteNumber": 67, "velocity": 64 }, { "deltaTime": 8, "channel": 2, "type": "channel", "subtype": "noteOff", "noteNumber": 71, "velocity": 64 }, { "deltaTime": 158, "channel": 2, "type": "channel", "noteNumber": 52, "velocity": 67, "subtype": "noteOn" }, { "deltaTime": 96, "channel": 2, "type": "channel", "noteNumber": 57, "velocity": 66, "subtype": "noteOn" }, { "deltaTime": 104, "channel": 2, "type": "channel", "noteNumber": 61, "velocity": 80, "subtype": "noteOn" }, { "deltaTime": 88, "channel": 2, "type": "channel", "noteNumber": 64, "velocity": 57, "subtype": "noteOn" }, { "deltaTime": 96, "channel": 2, "type": "channel", "noteNumber": 69, "velocity": 38, "subtype": "noteOn" }, { "deltaTime": 16, "channel": 2, "type": "channel", "subtype": "noteOff", "noteNumber": 49, "velocity": 64 }, { "deltaTime": 0, "channel": 2, "type": "channel", "subtype": "noteOff", "noteNumber": 61, "velocity": 64 }, { "deltaTime": 12, "channel": 2, "type": "channel", "subtype": "noteOff", "noteNumber": 57, "velocity": 64 }, { "deltaTime": 8, "channel": 2, "type": "channel", "subtype": "noteOff", "noteNumber": 52, "velocity": 64 }, { "deltaTime": 144, "channel": 2, "type": "channel", "noteNumber": 50, "velocity": 69, "subtype": "noteOn" }, { "deltaTime": 20, "channel": 2, "type": "channel", "subtype": "noteOff", "noteNumber": 64, "velocity": 64 }, { "deltaTime": 30, "channel": 2, "type": "channel", "subtype": "noteOff", "noteNumber": 69, "velocity": 64 }, { "deltaTime": 72, "channel": 2, "type": "channel", "noteNumber": 54, "velocity": 61, "subtype": "noteOn" }, { "deltaTime": 104, "channel": 2, "type": "channel", "noteNumber": 57, "velocity": 61, "subtype": "noteOn" }, { "deltaTime": 86, "channel": 2, "type": "channel", "noteNumber": 62, "velocity": 72, "subtype": "noteOn" }, { "deltaTime": 182, "channel": 2, "type": "channel", "noteNumber": 69, "velocity": 67, "subtype": "noteOn" }, { "deltaTime": 94, "channel": 2, "type": "channel", "noteNumber": 66, "velocity": 71, "subtype": "noteOn" }, { "deltaTime": 6, "channel": 2, "type": "channel", "subtype": "noteOff", "noteNumber": 62, "velocity": 64 }, { "deltaTime": 70, "channel": 2, "type": "channel", "subtype": "noteOff", "noteNumber": 54, "velocity": 64 }, { "deltaTime": 6, "channel": 2, "type": "channel", "subtype": "noteOff", "noteNumber": 57, "velocity": 64 }, { "deltaTime": 6, "channel": 2, "type": "channel", "subtype": "noteOff", "noteNumber": 50, "velocity": 64 }, { "deltaTime": 8, "channel": 2, "type": "channel", "noteNumber": 62, "velocity": 67, "subtype": "noteOn" }, { "deltaTime": 78, "channel": 2, "type": "channel", "subtype": "noteOff", "noteNumber": 66, "velocity": 64 }, { "deltaTime": 8, "channel": 2, "type": "channel", "noteNumber": 50, "velocity": 68, "subtype": "noteOn" }, { "deltaTime": 10, "channel": 2, "type": "channel", "subtype": "noteOff", "noteNumber": 69, "velocity": 64 }, { "deltaTime": 26, "channel": 2, "type": "channel", "subtype": "noteOff", "noteNumber": 62, "velocity": 64 }, { "deltaTime": 66, "channel": 2, "type": "channel", "noteNumber": 54, "velocity": 69, "subtype": "noteOn" }, { "deltaTime": 102, "channel": 2, "type": "channel", "noteNumber": 59, "velocity": 58, "subtype": "noteOn" }, { "deltaTime": 90, "channel": 2, "type": "channel", "noteNumber": 62, "velocity": 68, "subtype": "noteOn" }, { "deltaTime": 102, "channel": 2, "type": "channel", "noteNumber": 66, "velocity": 70, "subtype": "noteOn" }, { "deltaTime": 88, "channel": 2, "type": "channel", "noteNumber": 71, "velocity": 69, "subtype": "noteOn" }, { "deltaTime": 30, "channel": 2, "type": "channel", "subtype": "noteOff", "noteNumber": 66, "velocity": 64 }, { "deltaTime": 8, "channel": 2, "type": "channel", "subtype": "noteOff", "noteNumber": 62, "velocity": 64 }, { "deltaTime": 64, "channel": 2, "type": "channel", "noteNumber": 62, "velocity": 68, "subtype": "noteOn" }, { "deltaTime": 54, "channel": 2, "type": "channel", "subtype": "noteOff", "noteNumber": 50, "velocity": 64 }, { "deltaTime": 0, "channel": 2, "type": "channel", "subtype": "noteOff", "noteNumber": 59, "velocity": 64 }, { "deltaTime": 4, "channel": 2, "type": "channel", "subtype": "noteOff", "noteNumber": 54, "velocity": 64 }, { "deltaTime": 30, "channel": 2, "type": "channel", "noteNumber": 66, "velocity": 76, "subtype": "noteOn" }, { "deltaTime": 100, "channel": 2, "type": "channel", "subtype": "noteOff", "noteNumber": 66, "velocity": 64 }, { "deltaTime": 6, "channel": 2, "type": "channel", "noteNumber": 52, "velocity": 70, "subtype": "noteOn" }, { "deltaTime": 2, "channel": 2, "type": "channel", "subtype": "noteOff", "noteNumber": 62, "velocity": 64 }, { "deltaTime": 22, "channel": 2, "type": "channel", "subtype": "noteOff", "noteNumber": 71, "velocity": 64 }, { "deltaTime": 74, "channel": 2, "type": "channel", "noteNumber": 55, "velocity": 57, "subtype": "noteOn" }, { "deltaTime": 92, "channel": 2, "type": "channel", "noteNumber": 59, "velocity": 67, "subtype": "noteOn" }, { "deltaTime": 100, "channel": 2, "type": "channel", "noteNumber": 71, "velocity": 72, "subtype": "noteOn" }, { "deltaTime": 182, "channel": 2, "type": "channel", "noteNumber": 67, "velocity": 73, "subtype": "noteOn" }, { "deltaTime": 94, "channel": 2, "type": "channel", "subtype": "noteOff", "noteNumber": 59, "velocity": 64 }, { "deltaTime": 6, "channel": 2, "type": "channel", "noteNumber": 64, "velocity": 73, "subtype": "noteOn" }, { "deltaTime": 6, "channel": 2, "type": "channel", "subtype": "noteOff", "noteNumber": 55, "velocity": 64 }, { "deltaTime": 14, "channel": 2, "type": "channel", "subtype": "noteOff", "noteNumber": 52, "velocity": 64 }, { "deltaTime": 8, "channel": 2, "type": "channel", "subtype": "noteOff", "noteNumber": 67, "velocity": 64 }, { "deltaTime": 68, "channel": 2, "type": "channel", "noteNumber": 67, "velocity": 69, "subtype": "noteOn" }, { "deltaTime": 22, "channel": 2, "type": "channel", "subtype": "noteOff", "noteNumber": 71, "velocity": 64 }, { "deltaTime": 54, "channel": 2, "type": "channel", "subtype": "noteOff", "noteNumber": 67, "velocity": 64 }, { "deltaTime": 18, "channel": 2, "type": "channel", "noteNumber": 45, "velocity": 61, "subtype": "noteOn" }, { "deltaTime": 8, "channel": 2, "type": "channel", "subtype": "noteOff", "noteNumber": 64, "velocity": 64 }, { "deltaTime": 90, "channel": 2, "type": "channel", "noteNumber": 49, "velocity": 71, "subtype": "noteOn" }, { "deltaTime": 96, "channel": 2, "type": "channel", "noteNumber": 52, "velocity": 63, "subtype": "noteOn" }, { "deltaTime": 94, "channel": 2, "type": "channel", "noteNumber": 57, "velocity": 62, "subtype": "noteOn" }, { "deltaTime": 100, "channel": 2, "type": "channel", "noteNumber": 61, "velocity": 70, "subtype": "noteOn" }, { "deltaTime": 84, "channel": 2, "type": "channel", "noteNumber": 64, "velocity": 69, "subtype": "noteOn" }, { "deltaTime": 28, "channel": 2, "type": "channel", "subtype": "noteOff", "noteNumber": 61, "velocity": 64 }, { "deltaTime": 14, "channel": 2, "type": "channel", "subtype": "noteOff", "noteNumber": 57, "velocity": 64 }, { "deltaTime": 58, "channel": 2, "type": "channel", "noteNumber": 57, "velocity": 65, "subtype": "noteOn" }, { "deltaTime": 24, "channel": 2, "type": "channel", "subtype": "noteOff", "noteNumber": 45, "velocity": 64 }, { "deltaTime": 6, "channel": 2, "type": "channel", "subtype": "noteOff", "noteNumber": 49, "velocity": 64 }, { "deltaTime": 0, "channel": 2, "type": "channel", "subtype": "noteOff", "noteNumber": 52, "velocity": 64 }, { "deltaTime": 60, "channel": 2, "type": "channel", "noteNumber": 61, "velocity": 76, "subtype": "noteOn" }, { "deltaTime": 88, "channel": 2, "type": "channel", "subtype": "noteOff", "noteNumber": 57, "velocity": 64 }, { "deltaTime": 10, "channel": 2, "type": "channel", "subtype": "noteOff", "noteNumber": 61, "velocity": 64 }, { "deltaTime": 2, "channel": 2, "type": "channel", "noteNumber": 50, "velocity": 78, "subtype": "noteOn" }, { "deltaTime": 5, "channel": 2, "type": "channel", "subtype": "noteOff", "noteNumber": 50, "velocity": 64 }, { "deltaTime": 7, "channel": 2, "type": "channel", "subtype": "noteOff", "noteNumber": 64, "velocity": 64 }, { "deltaTime": 90, "channel": 2, "type": "channel", "noteNumber": 54, "velocity": 68, "subtype": "noteOn" }, { "deltaTime": 96, "channel": 2, "type": "channel", "noteNumber": 57, "velocity": 63, "subtype": "noteOn" }, { "deltaTime": 102, "channel": 2, "type": "channel", "noteNumber": 62, "velocity": 68, "subtype": "noteOn" }, { "deltaTime": 98, "channel": 2, "type": "channel", "noteNumber": 66, "velocity": 71, "subtype": "noteOn" }, { "deltaTime": 92, "channel": 2, "type": "channel", "noteNumber": 69, "velocity": 69, "subtype": "noteOn" }, { "deltaTime": 18, "channel": 2, "type": "channel", "subtype": "noteOff", "noteNumber": 66, "velocity": 64 }, { "deltaTime": 12, "channel": 2, "type": "channel", "subtype": "noteOff", "noteNumber": 62, "velocity": 64 }, { "deltaTime": 70, "channel": 2, "type": "channel", "noteNumber": 66, "velocity": 72, "subtype": "noteOn" }, { "deltaTime": 78, "channel": 2, "type": "channel", "subtype": "noteOff", "noteNumber": 54, "velocity": 64 }, { "deltaTime": 4, "channel": 2, "type": "channel", "subtype": "noteOff", "noteNumber": 57, "velocity": 64 }, { "deltaTime": 8, "channel": 2, "type": "channel", "noteNumber": 62, "velocity": 70, "subtype": "noteOn" }, { "deltaTime": 106, "channel": 2, "type": "channel", "noteNumber": 50, "velocity": 80, "subtype": "noteOn" }, { "deltaTime": 186, "channel": 2, "type": "channel", "noteNumber": 54, "velocity": 73, "subtype": "noteOn" }, { "deltaTime": 102, "channel": 2, "type": "channel", "noteNumber": 57, "velocity": 74, "subtype": "noteOn" }, { "deltaTime": 24, "channel": 2, "type": "channel", "subtype": "noteOff", "noteNumber": 62, "velocity": 64 }, { "deltaTime": 6, "channel": 2, "type": "channel", "subtype": "noteOff", "noteNumber": 66, "velocity": 64 }, { "deltaTime": 10, "channel": 2, "type": "channel", "subtype": "noteOff", "noteNumber": 69, "velocity": 64 }, { "deltaTime": 132, "channel": 2, "type": "channel", "noteNumber": 62, "velocity": 74, "subtype": "noteOn" }, { "deltaTime": 106, "channel": 2, "type": "channel", "noteNumber": 66, "velocity": 72, "subtype": "noteOn" }, { "deltaTime": 90, "channel": 2, "type": "channel", "noteNumber": 69, "velocity": 70, "subtype": "noteOn" }, { "deltaTime": 16, "channel": 2, "type": "channel", "subtype": "noteOff", "noteNumber": 50, "velocity": 64 }, { "deltaTime": 18, "channel": 2, "type": "channel", "subtype": "noteOff", "noteNumber": 54, "velocity": 64 }, { "deltaTime": 0, "channel": 2, "type": "channel", "subtype": "noteOff", "noteNumber": 57, "velocity": 64 }, { "deltaTime": 72, "channel": 2, "type": "channel", "subtype": "noteOff", "noteNumber": 66, "velocity": 64 }, { "deltaTime": 8, "channel": 2, "type": "channel", "noteNumber": 52, "velocity": 75, "subtype": "noteOn" }, { "deltaTime": 18, "channel": 2, "type": "channel", "subtype": "noteOff", "noteNumber": 62, "velocity": 64 }, { "deltaTime": 36, "channel": 2, "type": "channel", "subtype": "noteOff", "noteNumber": 69, "velocity": 64 }, { "deltaTime": 42, "channel": 2, "type": "channel", "noteNumber": 55, "velocity": 58, "subtype": "noteOn" }, { "deltaTime": 96, "channel": 2, "type": "channel", "noteNumber": 59, "velocity": 72, "subtype": "noteOn" }, { "deltaTime": 78, "channel": 2, "type": "channel", "noteNumber": 71, "velocity": 78, "subtype": "noteOn" }, { "deltaTime": 20, "channel": 2, "type": "channel", "subtype": "noteOff", "noteNumber": 59, "velocity": 64 }, { "deltaTime": 4, "channel": 2, "type": "channel", "subtype": "noteOff", "noteNumber": 55, "velocity": 64 }, { "deltaTime": 12, "channel": 2, "type": "channel", "subtype": "noteOff", "noteNumber": 52, "velocity": 64 }, { "deltaTime": 82, "channel": 2, "type": "channel", "noteNumber": 45, "velocity": 77, "subtype": "noteOn" }, { "deltaTime": 40, "channel": 2, "type": "channel", "subtype": "noteOff", "noteNumber": 71, "velocity": 64 }, { "deltaTime": 46, "channel": 2, "type": "channel", "noteNumber": 49, "velocity": 66, "subtype": "noteOn" }, { "deltaTime": 92, "channel": 2, "type": "channel", "noteNumber": 52, "velocity": 68, "subtype": "noteOn" }, { "deltaTime": 92, "channel": 2, "type": "channel", "noteNumber": 57, "velocity": 77, "subtype": "noteOn" }, { "deltaTime": 14, "channel": 2, "type": "channel", "subtype": "noteOff", "noteNumber": 45, "velocity": 64 }, { "deltaTime": 16, "channel": 2, "type": "channel", "subtype": "noteOff", "noteNumber": 52, "velocity": 64 }, { "deltaTime": 2, "channel": 2, "type": "channel", "subtype": "noteOff", "noteNumber": 49, "velocity": 64 }, { "deltaTime": 80, "channel": 2, "type": "channel", "noteNumber": 50, "velocity": 80, "subtype": "noteOn" }, { "deltaTime": 34, "channel": 2, "type": "channel", "subtype": "noteOff", "noteNumber": 57, "velocity": 64 }, { "deltaTime": 66, "channel": 2, "type": "channel", "noteNumber": 54, "velocity": 70, "subtype": "noteOn" }, { "deltaTime": 82, "channel": 2, "type": "channel", "noteNumber": 57, "velocity": 66, "subtype": "noteOn" }, { "deltaTime": 96, "channel": 2, "type": "channel", "noteNumber": 62, "velocity": 75, "subtype": "noteOn" }, { "deltaTime": 186, "channel": 2, "type": "channel", "noteNumber": 69, "velocity": 71, "subtype": "noteOn" }, { "deltaTime": 106, "channel": 2, "type": "channel", "noteNumber": 66, "velocity": 82, "subtype": "noteOn" }, { "deltaTime": 16, "channel": 2, "type": "channel", "subtype": "noteOff", "noteNumber": 62, "velocity": 64 }, { "deltaTime": 44, "channel": 2, "type": "channel", "subtype": "noteOff", "noteNumber": 50, "velocity": 64 }, { "deltaTime": 0, "channel": 2, "type": "channel", "subtype": "noteOff", "noteNumber": 54, "velocity": 64 }, { "deltaTime": 10, "channel": 2, "type": "channel", "subtype": "noteOff", "noteNumber": 57, "velocity": 64 }, { "deltaTime": 20, "channel": 2, "type": "channel", "noteNumber": 62, "velocity": 70, "subtype": "noteOn" }, { "deltaTime": 80, "channel": 2, "type": "channel", "subtype": "noteOff", "noteNumber": 66, "velocity": 64 }, { "deltaTime": 16, "channel": 2, "type": "channel", "noteNumber": 52, "velocity": 62, "subtype": "noteOn" }, { "deltaTime": 4, "channel": 2, "type": "channel", "subtype": "noteOff", "noteNumber": 69, "velocity": 64 }, { "deltaTime": 14, "channel": 2, "type": "channel", "subtype": "noteOff", "noteNumber": 62, "velocity": 64 }, { "deltaTime": 84, "channel": 2, "type": "channel", "noteNumber": 55, "velocity": 63, "subtype": "noteOn" }, { "deltaTime": 94, "channel": 2, "type": "channel", "noteNumber": 59, "velocity": 66, "subtype": "noteOn" }, { "deltaTime": 104, "channel": 2, "type": "channel", "noteNumber": 71, "velocity": 69, "subtype": "noteOn" }, { "deltaTime": 90, "channel": 2, "type": "channel", "noteNumber": 67, "velocity": 65, "subtype": "noteOn" }, { "deltaTime": 88, "channel": 2, "type": "channel", "noteNumber": 64, "velocity": 72, "subtype": "noteOn" }, { "deltaTime": 26, "channel": 2, "type": "channel", "subtype": "noteOff", "noteNumber": 67, "velocity": 64 }, { "deltaTime": 24, "channel": 2, "type": "channel", "subtype": "noteOff", "noteNumber": 59, "velocity": 64 }, { "deltaTime": 28, "channel": 2, "type": "channel", "subtype": "noteOff", "noteNumber": 55, "velocity": 64 }, { "deltaTime": 6, "channel": 2, "type": "channel", "subtype": "noteOff", "noteNumber": 52, "velocity": 64 }, { "deltaTime": 6, "channel": 2, "type": "channel", "noteNumber": 67, "velocity": 67, "subtype": "noteOn" }, { "deltaTime": 16, "channel": 2, "type": "channel", "subtype": "noteOff", "noteNumber": 71, "velocity": 64 }, { "deltaTime": 90, "channel": 2, "type": "channel", "noteNumber": 71, "velocity": 81, "subtype": "noteOn" }, { "deltaTime": 78, "channel": 2, "type": "channel", "subtype": "noteOff", "noteNumber": 71, "velocity": 64 }, { "deltaTime": 6, "channel": 2, "type": "channel", "subtype": "noteOff", "noteNumber": 67, "velocity": 64 }, { "deltaTime": 6, "channel": 2, "type": "channel", "noteNumber": 45, "velocity": 63, "subtype": "noteOn" }, { "deltaTime": 14, "channel": 2, "type": "channel", "subtype": "noteOff", "noteNumber": 64, "velocity": 64 }, { "deltaTime": 82, "channel": 2, "type": "channel", "noteNumber": 49, "velocity": 69, "subtype": "noteOn" }, { "deltaTime": 96, "channel": 2, "type": "channel", "noteNumber": 52, "velocity": 65, "subtype": "noteOn" }, { "deltaTime": 94, "channel": 2, "type": "channel", "noteNumber": 57, "velocity": 71, "subtype": "noteOn" }, { "deltaTime": 102, "channel": 2, "type": "channel", "noteNumber": 61, "velocity": 71, "subtype": "noteOn" }, { "deltaTime": 90, "channel": 2, "type": "channel", "noteNumber": 64, "velocity": 70, "subtype": "noteOn" }, { "deltaTime": 18, "channel": 2, "type": "channel", "subtype": "noteOff", "noteNumber": 61, "velocity": 64 }, { "deltaTime": 30, "channel": 2, "type": "channel", "subtype": "noteOff", "noteNumber": 57, "velocity": 64 }, { "deltaTime": 60, "channel": 2, "type": "channel", "noteNumber": 57, "velocity": 66, "subtype": "noteOn" }, { "deltaTime": 16, "channel": 2, "type": "channel", "subtype": "noteOff", "noteNumber": 45, "velocity": 64 }, { "deltaTime": 8, "channel": 2, "type": "channel", "subtype": "noteOff", "noteNumber": 52, "velocity": 64 }, { "deltaTime": 2, "channel": 2, "type": "channel", "subtype": "noteOff", "noteNumber": 49, "velocity": 64 }, { "deltaTime": 68, "channel": 2, "type": "channel", "noteNumber": 61, "velocity": 86, "subtype": "noteOn" }, { "deltaTime": 90, "channel": 2, "type": "channel", "noteNumber": 50, "velocity": 74, "subtype": "noteOn" }, { "deltaTime": 6, "channel": 2, "type": "channel", "subtype": "noteOff", "noteNumber": 64, "velocity": 64 }, { "deltaTime": 4, "channel": 2, "type": "channel", "subtype": "noteOff", "noteNumber": 57, "velocity": 64 }, { "deltaTime": 6, "channel": 2, "type": "channel", "subtype": "noteOff", "noteNumber": 61, "velocity": 64 }, { "deltaTime": 80, "channel": 2, "type": "channel", "noteNumber": 54, "velocity": 71, "subtype": "noteOn" }, { "deltaTime": 92, "channel": 2, "type": "channel", "noteNumber": 57, "velocity": 56, "subtype": "noteOn" }, { "deltaTime": 90, "channel": 2, "type": "channel", "noteNumber": 62, "velocity": 71, "subtype": "noteOn" }, { "deltaTime": 102, "channel": 2, "type": "channel", "noteNumber": 66, "velocity": 76, "subtype": "noteOn" }, { "deltaTime": 86, "channel": 2, "type": "channel", "noteNumber": 69, "velocity": 69, "subtype": "noteOn" }, { "deltaTime": 20, "channel": 2, "type": "channel", "subtype": "noteOff", "noteNumber": 66, "velocity": 64 }, { "deltaTime": 14, "channel": 2, "type": "channel", "subtype": "noteOff", "noteNumber": 62, "velocity": 64 }, { "deltaTime": 80, "channel": 2, "type": "channel", "noteNumber": 66, "velocity": 67, "subtype": "noteOn" }, { "deltaTime": 78, "channel": 2, "type": "channel", "subtype": "noteOff", "noteNumber": 50, "velocity": 64 }, { "deltaTime": 8, "channel": 2, "type": "channel", "subtype": "noteOff", "noteNumber": 54, "velocity": 64 }, { "deltaTime": 4, "channel": 2, "type": "channel", "subtype": "noteOff", "noteNumber": 57, "velocity": 64 }, { "deltaTime": 2, "channel": 2, "type": "channel", "noteNumber": 62, "velocity": 78, "subtype": "noteOn" }, { "deltaTime": 88, "channel": 2, "type": "channel", "subtype": "noteOff", "noteNumber": 66, "velocity": 64 }, { "deltaTime": 12, "channel": 2, "type": "channel", "noteNumber": 52, "velocity": 73, "subtype": "noteOn" }, { "deltaTime": 10, "channel": 2, "type": "channel", "subtype": "noteOff", "noteNumber": 69, "velocity": 64 }, { "deltaTime": 12, "channel": 2, "type": "channel", "subtype": "noteOff", "noteNumber": 62, "velocity": 64 }, { "deltaTime": 74, "channel": 2, "type": "channel", "noteNumber": 55, "velocity": 60, "subtype": "noteOn" }, { "deltaTime": 92, "channel": 2, "type": "channel", "noteNumber": 59, "velocity": 65, "subtype": "noteOn" }, { "deltaTime": 82, "channel": 2, "type": "channel", "noteNumber": 71, "velocity": 73, "subtype": "noteOn" }, { "deltaTime": 30, "channel": 2, "type": "channel", "subtype": "noteOff", "noteNumber": 59, "velocity": 64 }, { "deltaTime": 6, "channel": 2, "type": "channel", "subtype": "noteOff", "noteNumber": 55, "velocity": 64 }, { "deltaTime": 18, "channel": 2, "type": "channel", "subtype": "noteOff", "noteNumber": 52, "velocity": 64 }, { "deltaTime": 74, "channel": 2, "type": "channel", "noteNumber": 45, "velocity": 60, "subtype": "noteOn" }, { "deltaTime": 10, "channel": 2, "type": "channel", "noteNumber": 43, "velocity": 31, "subtype": "noteOn" }, { "deltaTime": 14, "channel": 2, "type": "channel", "subtype": "noteOff", "noteNumber": 71, "velocity": 64 }, { "deltaTime": 12, "channel": 2, "type": "channel", "subtype": "noteOff", "noteNumber": 43, "velocity": 64 }, { "deltaTime": 50, "channel": 2, "type": "channel", "noteNumber": 49, "velocity": 70, "subtype": "noteOn" }, { "deltaTime": 92, "channel": 2, "type": "channel", "noteNumber": 52, "velocity": 66, "subtype": "noteOn" }, { "deltaTime": 88, "channel": 2, "type": "channel", "noteNumber": 57, "velocity": 73, "subtype": "noteOn" }, { "deltaTime": 26, "channel": 2, "type": "channel", "subtype": "noteOff", "noteNumber": 45, "velocity": 64 }, { "deltaTime": 8, "channel": 2, "type": "channel", "subtype": "noteOff", "noteNumber": 49, "velocity": 64 }, { "deltaTime": 2, "channel": 2, "type": "channel", "subtype": "noteOff", "noteNumber": 52, "velocity": 64 }, { "deltaTime": 84, "channel": 2, "type": "channel", "noteNumber": 50, "velocity": 50, "subtype": "noteOn" }, { "deltaTime": 2, "channel": 2, "type": "channel", "noteNumber": 52, "velocity": 50, "subtype": "noteOn" }, { "deltaTime": 6, "channel": 2, "type": "channel", "subtype": "noteOff", "noteNumber": 57, "velocity": 64 }, { "deltaTime": 12, "channel": 2, "type": "channel", "subtype": "noteOff", "noteNumber": 52, "velocity": 64 }, { "deltaTime": 48, "channel": 2, "type": "channel", "noteNumber": 54, "velocity": 81, "subtype": "noteOn" }, { "deltaTime": 94, "channel": 2, "type": "channel", "noteNumber": 57, "velocity": 63, "subtype": "noteOn" }, { "deltaTime": 106, "channel": 2, "type": "channel", "noteNumber": 62, "velocity": 72, "subtype": "noteOn" }, { "deltaTime": 104, "channel": 2, "type": "channel", "noteNumber": 66, "velocity": 70, "subtype": "noteOn" }, { "deltaTime": 88, "channel": 2, "type": "channel", "noteNumber": 69, "velocity": 62, "subtype": "noteOn" }, { "deltaTime": 26, "channel": 2, "type": "channel", "subtype": "noteOff", "noteNumber": 66, "velocity": 64 }, { "deltaTime": 14, "channel": 2, "type": "channel", "subtype": "noteOff", "noteNumber": 62, "velocity": 64 }, { "deltaTime": 64, "channel": 2, "type": "channel", "noteNumber": 66, "velocity": 66, "subtype": "noteOn" }, { "deltaTime": 48, "channel": 2, "type": "channel", "subtype": "noteOff", "noteNumber": 54, "velocity": 64 }, { "deltaTime": 2, "channel": 2, "type": "channel", "subtype": "noteOff", "noteNumber": 57, "velocity": 64 }, { "deltaTime": 16, "channel": 2, "type": "channel", "subtype": "noteOff", "noteNumber": 50, "velocity": 64 }, { "deltaTime": 20, "channel": 2, "type": "channel", "noteNumber": 62, "velocity": 64, "subtype": "noteOn" }, { "deltaTime": 96, "channel": 2, "type": "channel", "noteNumber": 50, "velocity": 81, "subtype": "noteOn" }, { "deltaTime": 102, "channel": 2, "type": "channel", "noteNumber": 54, "velocity": 68, "subtype": "noteOn" }, { "deltaTime": 96, "channel": 2, "type": "channel", "noteNumber": 57, "velocity": 64, "subtype": "noteOn" }, { "deltaTime": 30, "channel": 2, "type": "channel", "subtype": "noteOff", "noteNumber": 62, "velocity": 64 }, { "deltaTime": 2, "channel": 2, "type": "channel", "subtype": "noteOff", "noteNumber": 66, "velocity": 64 }, { "deltaTime": 14, "channel": 2, "type": "channel", "subtype": "noteOff", "noteNumber": 69, "velocity": 64 }, { "deltaTime": 48, "channel": 2, "type": "channel", "noteNumber": 62, "velocity": 67, "subtype": "noteOn" }, { "deltaTime": 102, "channel": 2, "type": "channel", "noteNumber": 66, "velocity": 68, "subtype": "noteOn" }, { "deltaTime": 94, "channel": 2, "type": "channel", "noteNumber": 69, "velocity": 56, "subtype": "noteOn" }, { "deltaTime": 40, "channel": 2, "type": "channel", "subtype": "noteOff", "noteNumber": 66, "velocity": 64 }, { "deltaTime": 126, "channel": 2, "type": "channel", "subtype": "noteOff", "noteNumber": 57, "velocity": 64 }, { "deltaTime": 2, "channel": 2, "type": "channel", "subtype": "noteOff", "noteNumber": 54, "velocity": 64 }, { "deltaTime": 10, "channel": 2, "type": "channel", "subtype": "noteOff", "noteNumber": 50, "velocity": 64 }, { "deltaTime": 14, "channel": 2, "type": "channel", "noteNumber": 66, "velocity": 70, "subtype": "noteOn" }, { "deltaTime": 90, "channel": 2, "type": "channel", "noteNumber": 50, "velocity": 68, "subtype": "noteOn" }, { "deltaTime": 96, "channel": 2, "type": "channel", "noteNumber": 54, "velocity": 69, "subtype": "noteOn" }, { "deltaTime": 96, "channel": 2, "type": "channel", "noteNumber": 57, "velocity": 65, "subtype": "noteOn" }, { "deltaTime": 18, "channel": 2, "type": "channel", "subtype": "noteOff", "noteNumber": 62, "velocity": 64 }, { "deltaTime": 6, "channel": 2, "type": "channel", "subtype": "noteOff", "noteNumber": 66, "velocity": 64 }, { "deltaTime": 8, "channel": 2, "type": "channel", "subtype": "noteOff", "noteNumber": 69, "velocity": 64 }, { "deltaTime": 74, "channel": 2, "type": "channel", "noteNumber": 62, "velocity": 71, "subtype": "noteOn" }, { "deltaTime": 94, "channel": 2, "type": "channel", "noteNumber": 66, "velocity": 70, "subtype": "noteOn" }, { "deltaTime": 78, "channel": 2, "type": "channel", "noteNumber": 69, "velocity": 66, "subtype": "noteOn" }, { "deltaTime": 22, "channel": 2, "type": "channel", "subtype": "noteOff", "noteNumber": 66, "velocity": 64 }, { "deltaTime": 18, "channel": 2, "type": "channel", "subtype": "noteOff", "noteNumber": 62, "velocity": 64 }, { "deltaTime": 58, "channel": 2, "type": "channel", "subtype": "noteOff", "noteNumber": 57, "velocity": 64 }, { "deltaTime": 0, "channel": 2, "type": "channel", "noteNumber": 66, "velocity": 76, "subtype": "noteOn" }, { "deltaTime": 6, "channel": 2, "type": "channel", "subtype": "noteOff", "noteNumber": 54, "velocity": 64 }, { "deltaTime": 22, "channel": 2, "type": "channel", "subtype": "noteOff", "noteNumber": 50, "velocity": 64 }, { "deltaTime": 72, "channel": 2, "type": "channel", "noteNumber": 62, "velocity": 79, "subtype": "noteOn" }, { "deltaTime": 38, "channel": 2, "type": "channel", "subtype": "noteOff", "noteNumber": 69, "velocity": 64 }, { "deltaTime": 2, "channel": 2, "type": "channel", "subtype": "noteOff", "noteNumber": 66, "velocity": 64 }, { "deltaTime": 50, "channel": 2, "type": "channel", "noteNumber": 45, "velocity": 61, "subtype": "noteOn" }, { "deltaTime": 14, "channel": 2, "type": "channel", "subtype": "noteOff", "noteNumber": 62, "velocity": 64 }, { "deltaTime": 82, "channel": 2, "type": "channel", "noteNumber": 49, "velocity": 71, "subtype": "noteOn" }, { "deltaTime": 104, "channel": 2, "type": "channel", "noteNumber": 52, "velocity": 65, "subtype": "noteOn" }, { "deltaTime": 94, "channel": 2, "type": "channel", "noteNumber": 57, "velocity": 61, "subtype": "noteOn" }, { "deltaTime": 106, "channel": 2, "type": "channel", "noteNumber": 61, "velocity": 71, "subtype": "noteOn" }, { "deltaTime": 86, "channel": 2, "type": "channel", "noteNumber": 64, "velocity": 53, "subtype": "noteOn" }, { "deltaTime": 20, "channel": 2, "type": "channel", "subtype": "noteOff", "noteNumber": 61, "velocity": 64 }, { "deltaTime": 18, "channel": 2, "type": "channel", "subtype": "noteOff", "noteNumber": 57, "velocity": 64 }, { "deltaTime": 62, "channel": 2, "type": "channel", "noteNumber": 61, "velocity": 69, "subtype": "noteOn" }, { "deltaTime": 52, "channel": 2, "type": "channel", "subtype": "noteOff", "noteNumber": 45, "velocity": 64 }, { "deltaTime": 2, "channel": 2, "type": "channel", "subtype": "noteOff", "noteNumber": 52, "velocity": 64 }, { "deltaTime": 8, "channel": 2, "type": "channel", "subtype": "noteOff", "noteNumber": 49, "velocity": 64 }, { "deltaTime": 32, "channel": 2, "type": "channel", "noteNumber": 57, "velocity": 60, "subtype": "noteOn" }, { "deltaTime": 88, "channel": 2, "type": "channel", "noteNumber": 50, "velocity": 70, "subtype": "noteOn" }, { "deltaTime": 8, "channel": 2, "type": "channel", "subtype": "noteOff", "noteNumber": 57, "velocity": 64 }, { "deltaTime": 4, "channel": 2, "type": "channel", "subtype": "noteOff", "noteNumber": 61, "velocity": 64 }, { "deltaTime": 14, "channel": 2, "type": "channel", "subtype": "noteOff", "noteNumber": 64, "velocity": 64 }, { "deltaTime": 66, "channel": 2, "type": "channel", "noteNumber": 54, "velocity": 65, "subtype": "noteOn" }, { "deltaTime": 108, "channel": 2, "type": "channel", "noteNumber": 57, "velocity": 64, "subtype": "noteOn" }, { "deltaTime": 96, "channel": 2, "type": "channel", "noteNumber": 62, "velocity": 69, "subtype": "noteOn" }, { "deltaTime": 98, "channel": 2, "type": "channel", "noteNumber": 66, "velocity": 72, "subtype": "noteOn" }, { "deltaTime": 92, "channel": 2, "type": "channel", "noteNumber": 69, "velocity": 59, "subtype": "noteOn" }, { "deltaTime": 22, "channel": 2, "type": "channel", "subtype": "noteOff", "noteNumber": 66, "velocity": 64 }, { "deltaTime": 26, "channel": 2, "type": "channel", "subtype": "noteOff", "noteNumber": 62, "velocity": 64 }, { "deltaTime": 54, "channel": 2, "type": "channel", "noteNumber": 66, "velocity": 68, "subtype": "noteOn" }, { "deltaTime": 66, "channel": 2, "type": "channel", "subtype": "noteOff", "noteNumber": 57, "velocity": 64 }, { "deltaTime": 4, "channel": 2, "type": "channel", "subtype": "noteOff", "noteNumber": 54, "velocity": 64 }, { "deltaTime": 4, "channel": 2, "type": "channel", "subtype": "noteOff", "noteNumber": 50, "velocity": 64 }, { "deltaTime": 10, "channel": 2, "type": "channel", "noteNumber": 62, "velocity": 60, "subtype": "noteOn" }, { "deltaTime": 112, "channel": 2, "type": "channel", "noteNumber": 50, "velocity": 75, "subtype": "noteOn" }, { "deltaTime": 104, "channel": 2, "type": "channel", "noteNumber": 54, "velocity": 59, "subtype": "noteOn" }, { "deltaTime": 94, "channel": 2, "type": "channel", "noteNumber": 57, "velocity": 53, "subtype": "noteOn" }, { "deltaTime": 16, "channel": 2, "type": "channel", "subtype": "noteOff", "noteNumber": 62, "velocity": 64 }, { "deltaTime": 12, "channel": 2, "type": "channel", "subtype": "noteOff", "noteNumber": 66, "velocity": 64 }, { "deltaTime": 6, "channel": 2, "type": "channel", "subtype": "noteOff", "noteNumber": 69, "velocity": 64 }, { "deltaTime": 60, "channel": 2, "type": "channel", "noteNumber": 62, "velocity": 65, "subtype": "noteOn" }, { "deltaTime": 92, "channel": 2, "type": "channel", "noteNumber": 66, "velocity": 69, "subtype": "noteOn" }, { "deltaTime": 76, "channel": 2, "type": "channel", "noteNumber": 69, "velocity": 62, "subtype": "noteOn" }, { "deltaTime": 30, "channel": 2, "type": "channel", "subtype": "noteOff", "noteNumber": 62, "velocity": 64 }, { "deltaTime": 18, "channel": 2, "type": "channel", "subtype": "noteOff", "noteNumber": 66, "velocity": 64 }, { "deltaTime": 6, "channel": 2, "type": "channel", "subtype": "noteOff", "noteNumber": 54, "velocity": 64 }, { "deltaTime": 6, "channel": 2, "type": "channel", "subtype": "noteOff", "noteNumber": 57, "velocity": 64 }, { "deltaTime": 42, "channel": 2, "type": "channel", "noteNumber": 66, "velocity": 58, "subtype": "noteOn" }, { "deltaTime": 36, "channel": 2, "type": "channel", "subtype": "noteOff", "noteNumber": 50, "velocity": 64 }, { "deltaTime": 68, "channel": 2, "type": "channel", "noteNumber": 62, "velocity": 64, "subtype": "noteOn" }, { "deltaTime": 22, "channel": 2, "type": "channel", "subtype": "noteOff", "noteNumber": 69, "velocity": 64 }, { "deltaTime": 26, "channel": 2, "type": "channel", "subtype": "noteOff", "noteNumber": 62, "velocity": 64 }, { "deltaTime": 28, "channel": 2, "type": "channel", "subtype": "noteOff", "noteNumber": 66, "velocity": 64 }, { "deltaTime": 22, "channel": 2, "type": "channel", "noteNumber": 54, "velocity": 71, "subtype": "noteOn" }, { "deltaTime": 0, "channel": 2, "type": "channel", "noteNumber": 50, "velocity": 69, "subtype": "noteOn" }, { "deltaTime": 2, "channel": 2, "type": "channel", "noteNumber": 59, "velocity": 84, "subtype": "noteOn" }, { "deltaTime": 0, "channel": 2, "type": "channel", "noteNumber": 66, "velocity": 77, "subtype": "noteOn" }, { "deltaTime": 6, "channel": 2, "type": "channel", "noteNumber": 62, "velocity": 83, "subtype": "noteOn" }, { "deltaTime": 0, "channel": 2, "type": "channel", "noteNumber": 71, "velocity": 83, "subtype": "noteOn" }, { "deltaTime": 1336, "channel": 2, "type": "channel", "subtype": "noteOff", "noteNumber": 54, "velocity": 64 }, { "deltaTime": 8, "channel": 2, "type": "channel", "subtype": "noteOff", "noteNumber": 59, "velocity": 64 }, { "deltaTime": 14, "channel": 2, "type": "channel", "subtype": "noteOff", "noteNumber": 50, "velocity": 64 }, { "deltaTime": 22, "channel": 2, "type": "channel", "subtype": "noteOff", "noteNumber": 66, "velocity": 64 }, { "deltaTime": 2, "channel": 2, "type": "channel", "subtype": "noteOff", "noteNumber": 71, "velocity": 64 }, { "deltaTime": 10, "channel": 2, "type": "channel", "subtype": "noteOff", "noteNumber": 62, "velocity": 64 }, { "deltaTime": 108, "channel": 2, "type": "channel", "noteNumber": 50, "velocity": 71, "subtype": "noteOn" }, { "deltaTime": 104, "channel": 2, "type": "channel", "noteNumber": 54, "velocity": 51, "subtype": "noteOn" }, { "deltaTime": 108, "channel": 2, "type": "channel", "noteNumber": 57, "velocity": 61, "subtype": "noteOn" }, { "deltaTime": 100, "channel": 2, "type": "channel", "noteNumber": 62, "velocity": 64, "subtype": "noteOn" }, { "deltaTime": 104, "channel": 2, "type": "channel", "noteNumber": 66, "velocity": 62, "subtype": "noteOn" }, { "deltaTime": 90, "channel": 2, "type": "channel", "noteNumber": 69, "velocity": 57, "subtype": "noteOn" }, { "deltaTime": 20, "channel": 2, "type": "channel", "subtype": "noteOff", "noteNumber": 62, "velocity": 64 }, { "deltaTime": 2, "channel": 2, "type": "channel", "subtype": "noteOff", "noteNumber": 66, "velocity": 64 }, { "deltaTime": 84, "channel": 2, "type": "channel", "noteNumber": 66, "velocity": 73, "subtype": "noteOn" }, { "deltaTime": 44, "channel": 2, "type": "channel", "subtype": "noteOff", "noteNumber": 54, "velocity": 64 }, { "deltaTime": 6, "channel": 2, "type": "channel", "subtype": "noteOff", "noteNumber": 57, "velocity": 64 }, { "deltaTime": 10, "channel": 2, "type": "channel", "subtype": "noteOff", "noteNumber": 50, "velocity": 64 }, { "deltaTime": 18, "channel": 2, "type": "channel", "noteNumber": 62, "velocity": 52, "subtype": "noteOn" }, { "deltaTime": 108, "channel": 2, "type": "channel", "noteNumber": 50, "velocity": 65, "subtype": "noteOn" }, { "deltaTime": 90, "channel": 2, "type": "channel", "noteNumber": 54, "velocity": 61, "subtype": "noteOn" }, { "deltaTime": 104, "channel": 2, "type": "channel", "noteNumber": 57, "velocity": 61, "subtype": "noteOn" }, { "deltaTime": 12, "channel": 2, "type": "channel", "subtype": "noteOff", "noteNumber": 62, "velocity": 64 }, { "deltaTime": 22, "channel": 2, "type": "channel", "subtype": "noteOff", "noteNumber": 66, "velocity": 64 }, { "deltaTime": 2, "channel": 2, "type": "channel", "subtype": "noteOff", "noteNumber": 69, "velocity": 64 }, { "deltaTime": 58, "channel": 2, "type": "channel", "noteNumber": 62, "velocity": 66, "subtype": "noteOn" }, { "deltaTime": 90, "channel": 2, "type": "channel", "noteNumber": 66, "velocity": 61, "subtype": "noteOn" }, { "deltaTime": 92, "channel": 2, "type": "channel", "noteNumber": 69, "velocity": 61, "subtype": "noteOn" }, { "deltaTime": 28, "channel": 2, "type": "channel", "subtype": "noteOff", "noteNumber": 62, "velocity": 64 }, { "deltaTime": 0, "channel": 2, "type": "channel", "subtype": "noteOff", "noteNumber": 66, "velocity": 64 }, { "deltaTime": 20, "channel": 2, "type": "channel", "subtype": "noteOff", "noteNumber": 57, "velocity": 64 }, { "deltaTime": 6, "channel": 2, "type": "channel", "subtype": "noteOff", "noteNumber": 54, "velocity": 64 }, { "deltaTime": 22, "channel": 2, "type": "channel", "subtype": "noteOff", "noteNumber": 50, "velocity": 64 }, { "deltaTime": 42, "channel": 2, "type": "channel", "noteNumber": 62, "velocity": 63, "subtype": "noteOn" }, { "deltaTime": 2, "channel": 2, "type": "channel", "noteNumber": 66, "velocity": 42, "subtype": "noteOn" }, { "deltaTime": 32, "channel": 2, "type": "channel", "subtype": "noteOff", "noteNumber": 66, "velocity": 64 }, { "deltaTime": 46, "channel": 2, "type": "channel", "noteNumber": 66, "velocity": 41, "subtype": "noteOn" }, { "deltaTime": 30, "channel": 2, "type": "channel", "subtype": "noteOff", "noteNumber": 69, "velocity": 64 }, { "deltaTime": 32, "channel": 2, "type": "channel", "subtype": "noteOff", "noteNumber": 62, "velocity": 64 }, { "deltaTime": 30, "channel": 2, "type": "channel", "subtype": "noteOff", "noteNumber": 66, "velocity": 64 }, { "deltaTime": 22, "channel": 2, "type": "channel", "noteNumber": 47, "velocity": 66, "subtype": "noteOn" }, { "deltaTime": 0, "channel": 2, "type": "channel", "noteNumber": 50, "velocity": 71, "subtype": "noteOn" }, { "deltaTime": 2, "channel": 2, "type": "channel", "noteNumber": 66, "velocity": 85, "subtype": "noteOn" }, { "deltaTime": 2, "channel": 2, "type": "channel", "noteNumber": 54, "velocity": 90, "subtype": "noteOn" }, { "deltaTime": 2, "channel": 2, "type": "channel", "noteNumber": 62, "velocity": 87, "subtype": "noteOn" }, { "deltaTime": 0, "channel": 2, "type": "channel", "noteNumber": 71, "velocity": 81, "subtype": "noteOn" }, { "deltaTime": 1246, "channel": 2, "type": "channel", "subtype": "noteOff", "noteNumber": 50, "velocity": 64 }, { "deltaTime": 16, "channel": 2, "type": "channel", "subtype": "noteOff", "noteNumber": 54, "velocity": 64 }, { "deltaTime": 2, "channel": 2, "type": "channel", "subtype": "noteOff", "noteNumber": 47, "velocity": 64 }, { "deltaTime": 232, "channel": 2, "type": "channel", "noteNumber": 50, "velocity": 72, "subtype": "noteOn" }, { "deltaTime": 44, "channel": 2, "type": "channel", "subtype": "noteOff", "noteNumber": 71, "velocity": 64 }, { "deltaTime": 0, "channel": 2, "type": "channel", "subtype": "noteOff", "noteNumber": 66, "velocity": 64 }, { "deltaTime": 38, "channel": 2, "type": "channel", "subtype": "noteOff", "noteNumber": 62, "velocity": 64 }, { "deltaTime": 26, "channel": 2, "type": "channel", "noteNumber": 54, "velocity": 65, "subtype": "noteOn" }, { "deltaTime": 104, "channel": 2, "type": "channel", "noteNumber": 57, "velocity": 66, "subtype": "noteOn" }, { "deltaTime": 96, "channel": 2, "type": "channel", "noteNumber": 62, "velocity": 64, "subtype": "noteOn" }, { "deltaTime": 98, "channel": 2, "type": "channel", "noteNumber": 66, "velocity": 66, "subtype": "noteOn" }, { "deltaTime": 96, "channel": 2, "type": "channel", "noteNumber": 69, "velocity": 64, "subtype": "noteOn" }, { "deltaTime": 22, "channel": 2, "type": "channel", "subtype": "noteOff", "noteNumber": 66, "velocity": 64 }, { "deltaTime": 22, "channel": 2, "type": "channel", "subtype": "noteOff", "noteNumber": 62, "velocity": 64 }, { "deltaTime": 48, "channel": 2, "type": "channel", "noteNumber": 66, "velocity": 77, "subtype": "noteOn" }, { "deltaTime": 28, "channel": 2, "type": "channel", "subtype": "noteOff", "noteNumber": 57, "velocity": 64 }, { "deltaTime": 2, "channel": 2, "type": "channel", "subtype": "noteOff", "noteNumber": 54, "velocity": 64 }, { "deltaTime": 12, "channel": 2, "type": "channel", "subtype": "noteOff", "noteNumber": 50, "velocity": 64 }, { "deltaTime": 48, "channel": 2, "type": "channel", "noteNumber": 62, "velocity": 68, "subtype": "noteOn" }, { "deltaTime": 104, "channel": 2, "type": "channel", "noteNumber": 50, "velocity": 59, "subtype": "noteOn" }, { "deltaTime": 106, "channel": 2, "type": "channel", "noteNumber": 54, "velocity": 57, "subtype": "noteOn" }, { "deltaTime": 98, "channel": 2, "type": "channel", "noteNumber": 57, "velocity": 59, "subtype": "noteOn" }, { "deltaTime": 20, "channel": 2, "type": "channel", "subtype": "noteOff", "noteNumber": 62, "velocity": 64 }, { "deltaTime": 50, "channel": 2, "type": "channel", "subtype": "noteOff", "noteNumber": 66, "velocity": 64 }, { "deltaTime": 16, "channel": 2, "type": "channel", "noteNumber": 62, "velocity": 58, "subtype": "noteOn" }, { "deltaTime": 28, "channel": 2, "type": "channel", "subtype": "noteOff", "noteNumber": 69, "velocity": 64 }, { "deltaTime": 70, "channel": 2, "type": "channel", "noteNumber": 66, "velocity": 66, "subtype": "noteOn" }, { "deltaTime": 82, "channel": 2, "type": "channel", "noteNumber": 69, "velocity": 60, "subtype": "noteOn" }, { "deltaTime": 20, "channel": 2, "type": "channel", "subtype": "noteOff", "noteNumber": 62, "velocity": 64 }, { "deltaTime": 4, "channel": 2, "type": "channel", "subtype": "noteOff", "noteNumber": 66, "velocity": 64 }, { "deltaTime": 62, "channel": 2, "type": "channel", "noteNumber": 66, "velocity": 68, "subtype": "noteOn" }, { "deltaTime": 102, "channel": 2, "type": "channel", "noteNumber": 62, "velocity": 73, "subtype": "noteOn" }, { "deltaTime": 18, "channel": 2, "type": "channel", "subtype": "noteOff", "noteNumber": 69, "velocity": 64 }, { "deltaTime": 10, "channel": 2, "type": "channel", "subtype": "noteOff", "noteNumber": 66, "velocity": 64 }, { "deltaTime": 2, "channel": 2, "type": "channel", "subtype": "noteOff", "noteNumber": 54, "velocity": 64 }, { "deltaTime": 4, "channel": 2, "type": "channel", "subtype": "noteOff", "noteNumber": 50, "velocity": 64 }, { "deltaTime": 2, "channel": 2, "type": "channel", "subtype": "noteOff", "noteNumber": 57, "velocity": 64 }, { "deltaTime": 24, "channel": 2, "type": "channel", "subtype": "noteOff", "noteNumber": 62, "velocity": 64 }, { "deltaTime": 152, "channel": 2, "type": "channel", "noteNumber": 64, "velocity": 74, "subtype": "noteOn" }, { "deltaTime": 2, "channel": 2, "type": "channel", "noteNumber": 69, "velocity": 62, "subtype": "noteOn" }, { "deltaTime": 0, "channel": 2, "type": "channel", "noteNumber": 61, "velocity": 85, "subtype": "noteOn" }, { "deltaTime": 2, "channel": 2, "type": "channel", "noteNumber": 57, "velocity": 67, "subtype": "noteOn" }, { "deltaTime": 4, "channel": 2, "type": "channel", "noteNumber": 49, "velocity": 73, "subtype": "noteOn" }, { "deltaTime": 2, "channel": 2, "type": "channel", "noteNumber": 52, "velocity": 65, "subtype": "noteOn" }, { "deltaTime": 80, "channel": 2, "type": "channel", "subtype": "noteOff", "noteNumber": 49, "velocity": 64 }, { "deltaTime": 4, "channel": 2, "type": "channel", "subtype": "noteOff", "noteNumber": 57, "velocity": 64 }, { "deltaTime": 2, "channel": 2, "type": "channel", "subtype": "noteOff", "noteNumber": 61, "velocity": 64 }, { "deltaTime": 4, "channel": 2, "type": "channel", "subtype": "noteOff", "noteNumber": 69, "velocity": 64 }, { "deltaTime": 6, "channel": 2, "type": "channel", "subtype": "noteOff", "noteNumber": 52, "velocity": 64 }, { "deltaTime": 2, "channel": 2, "type": "channel", "subtype": "noteOff", "noteNumber": 64, "velocity": 64 }, { "deltaTime": 62, "channel": 2, "type": "channel", "noteNumber": 64, "velocity": 62, "subtype": "noteOn" }, { "deltaTime": 0, "channel": 2, "type": "channel", "noteNumber": 69, "velocity": 52, "subtype": "noteOn" }, { "deltaTime": 2, "channel": 2, "type": "channel", "noteNumber": 61, "velocity": 70, "subtype": "noteOn" }, { "deltaTime": 2, "channel": 2, "type": "channel", "noteNumber": 57, "velocity": 54, "subtype": "noteOn" }, { "deltaTime": 2, "channel": 2, "type": "channel", "noteNumber": 52, "velocity": 56, "subtype": "noteOn" }, { "deltaTime": 2, "channel": 2, "type": "channel", "noteNumber": 49, "velocity": 62, "subtype": "noteOn" }, { "deltaTime": 60, "channel": 2, "type": "channel", "subtype": "noteOff", "noteNumber": 57, "velocity": 64 }, { "deltaTime": 2, "channel": 2, "type": "channel", "subtype": "noteOff", "noteNumber": 61, "velocity": 64 }, { "deltaTime": 0, "channel": 2, "type": "channel", "subtype": "noteOff", "noteNumber": 49, "velocity": 64 }, { "deltaTime": 14, "channel": 2, "type": "channel", "subtype": "noteOff", "noteNumber": 69, "velocity": 64 }, { "deltaTime": 2, "channel": 2, "type": "channel", "subtype": "noteOff", "noteNumber": 52, "velocity": 64 }, { "deltaTime": 2, "channel": 2, "type": "channel", "subtype": "noteOff", "noteNumber": 64, "velocity": 64 }, { "deltaTime": 28, "channel": 2, "type": "channel", "noteNumber": 69, "velocity": 55, "subtype": "noteOn" }, { "deltaTime": 2, "channel": 2, "type": "channel", "noteNumber": 64, "velocity": 65, "subtype": "noteOn" }, { "deltaTime": 0, "channel": 2, "type": "channel", "noteNumber": 49, "velocity": 66, "subtype": "noteOn" }, { "deltaTime": 2, "channel": 2, "type": "channel", "noteNumber": 61, "velocity": 80, "subtype": "noteOn" }, { "deltaTime": 0, "channel": 2, "type": "channel", "noteNumber": 57, "velocity": 65, "subtype": "noteOn" }, { "deltaTime": 2, "channel": 2, "type": "channel", "noteNumber": 52, "velocity": 54, "subtype": "noteOn" }, { "deltaTime": 62, "channel": 2, "type": "channel", "subtype": "noteOff", "noteNumber": 57, "velocity": 64 }, { "deltaTime": 2, "channel": 2, "type": "channel", "subtype": "noteOff", "noteNumber": 49, "velocity": 64 }, { "deltaTime": 0, "channel": 2, "type": "channel", "subtype": "noteOff", "noteNumber": 61, "velocity": 64 }, { "deltaTime": 12, "channel": 2, "type": "channel", "subtype": "noteOff", "noteNumber": 52, "velocity": 64 }, { "deltaTime": 2, "channel": 2, "type": "channel", "subtype": "noteOff", "noteNumber": 64, "velocity": 64 }, { "deltaTime": 2, "channel": 2, "type": "channel", "subtype": "noteOff", "noteNumber": 69, "velocity": 64 }, { "deltaTime": 348, "channel": 2, "type": "channel", "noteNumber": 61, "velocity": 75, "subtype": "noteOn" }, { "deltaTime": 2, "channel": 2, "type": "channel", "noteNumber": 64, "velocity": 75, "subtype": "noteOn" }, { "deltaTime": 0, "channel": 2, "type": "channel", "noteNumber": 57, "velocity": 59, "subtype": "noteOn" }, { "deltaTime": 0, "channel": 2, "type": "channel", "noteNumber": 69, "velocity": 58, "subtype": "noteOn" }, { "deltaTime": 4, "channel": 2, "type": "channel", "noteNumber": 49, "velocity": 68, "subtype": "noteOn" }, { "deltaTime": 0, "channel": 2, "type": "channel", "noteNumber": 52, "velocity": 63, "subtype": "noteOn" }, { "deltaTime": 116, "channel": 2, "type": "channel", "subtype": "noteOff", "noteNumber": 61, "velocity": 64 }, { "deltaTime": 2, "channel": 2, "type": "channel", "subtype": "noteOff", "noteNumber": 49, "velocity": 64 }, { "deltaTime": 4, "channel": 2, "type": "channel", "subtype": "noteOff", "noteNumber": 57, "velocity": 64 }, { "deltaTime": 0, "channel": 2, "type": "channel", "subtype": "noteOff", "noteNumber": 69, "velocity": 64 }, { "deltaTime": 2, "channel": 2, "type": "channel", "subtype": "noteOff", "noteNumber": 64, "velocity": 64 }, { "deltaTime": 2, "channel": 2, "type": "channel", "subtype": "noteOff", "noteNumber": 52, "velocity": 64 }, { "deltaTime": 72, "channel": 2, "type": "channel", "noteNumber": 69, "velocity": 40, "subtype": "noteOn" }, { "deltaTime": 2, "channel": 2, "type": "channel", "noteNumber": 57, "velocity": 57, "subtype": "noteOn" }, { "deltaTime": 2, "channel": 2, "type": "channel", "noteNumber": 64, "velocity": 70, "subtype": "noteOn" }, { "deltaTime": 0, "channel": 2, "type": "channel", "noteNumber": 61, "velocity": 75, "subtype": "noteOn" }, { "deltaTime": 4, "channel": 2, "type": "channel", "noteNumber": 49, "velocity": 61, "subtype": "noteOn" }, { "deltaTime": 2, "channel": 2, "type": "channel", "noteNumber": 52, "velocity": 56, "subtype": "noteOn" }, { "deltaTime": 64, "channel": 2, "type": "channel", "subtype": "noteOff", "noteNumber": 49, "velocity": 64 }, { "deltaTime": 2, "channel": 2, "type": "channel", "subtype": "noteOff", "noteNumber": 57, "velocity": 64 }, { "deltaTime": 0, "channel": 2, "type": "channel", "subtype": "noteOff", "noteNumber": 61, "velocity": 64 }, { "deltaTime": 10, "channel": 2, "type": "channel", "subtype": "noteOff", "noteNumber": 69, "velocity": 64 }, { "deltaTime": 2, "channel": 2, "type": "channel", "subtype": "noteOff", "noteNumber": 64, "velocity": 64 }, { "deltaTime": 2, "channel": 2, "type": "channel", "subtype": "noteOff", "noteNumber": 52, "velocity": 64 }, { "deltaTime": 34, "channel": 2, "type": "channel", "noteNumber": 69, "velocity": 57, "subtype": "noteOn" }, { "deltaTime": 2, "channel": 2, "type": "channel", "noteNumber": 61, "velocity": 76, "subtype": "noteOn" }, { "deltaTime": 0, "channel": 2, "type": "channel", "noteNumber": 64, "velocity": 73, "subtype": "noteOn" }, { "deltaTime": 2, "channel": 2, "type": "channel", "noteNumber": 57, "velocity": 60, "subtype": "noteOn" }, { "deltaTime": 0, "channel": 2, "type": "channel", "noteNumber": 49, "velocity": 62, "subtype": "noteOn" }, { "deltaTime": 4, "channel": 2, "type": "channel", "noteNumber": 52, "velocity": 57, "subtype": "noteOn" }, { "deltaTime": 70, "channel": 2, "type": "channel", "subtype": "noteOff", "noteNumber": 57, "velocity": 64 }, { "deltaTime": 0, "channel": 2, "type": "channel", "subtype": "noteOff", "noteNumber": 49, "velocity": 64 }, { "deltaTime": 4, "channel": 2, "type": "channel", "subtype": "noteOff", "noteNumber": 61, "velocity": 64 }, { "deltaTime": 6, "channel": 2, "type": "channel", "subtype": "noteOff", "noteNumber": 52, "velocity": 64 }, { "deltaTime": 14, "channel": 2, "type": "channel", "subtype": "noteOff", "noteNumber": 64, "velocity": 64 }, { "deltaTime": 16, "channel": 2, "type": "channel", "subtype": "noteOff", "noteNumber": 69, "velocity": 64 }, { "deltaTime": 270, "channel": 2, "type": "channel", "noteNumber": 61, "velocity": 69, "subtype": "noteOn" }, { "deltaTime": 0, "channel": 2, "type": "channel", "noteNumber": 69, "velocity": 49, "subtype": "noteOn" }, { "deltaTime": 2, "channel": 2, "type": "channel", "noteNumber": 57, "velocity": 71, "subtype": "noteOn" }, { "deltaTime": 0, "channel": 2, "type": "channel", "noteNumber": 64, "velocity": 74, "subtype": "noteOn" }, { "deltaTime": 2, "channel": 2, "type": "channel", "noteNumber": 49, "velocity": 70, "subtype": "noteOn" }, { "deltaTime": 2, "channel": 2, "type": "channel", "noteNumber": 52, "velocity": 63, "subtype": "noteOn" }, { "deltaTime": 590, "channel": 2, "type": "channel", "subtype": "noteOff", "noteNumber": 49, "velocity": 64 }, { "deltaTime": 4, "channel": 2, "type": "channel", "subtype": "noteOff", "noteNumber": 61, "velocity": 64 }, { "deltaTime": 0, "channel": 2, "type": "channel", "subtype": "noteOff", "noteNumber": 57, "velocity": 64 }, { "deltaTime": 6, "channel": 2, "type": "channel", "subtype": "noteOff", "noteNumber": 52, "velocity": 64 }, { "deltaTime": 10, "channel": 2, "type": "channel", "subtype": "noteOff", "noteNumber": 64, "velocity": 64 }, { "deltaTime": 2, "channel": 2, "type": "channel", "subtype": "noteOff", "noteNumber": 69, "velocity": 64 }, { "deltaTime": 124, "channel": 2, "type": "channel", "noteNumber": 61, "velocity": 53, "subtype": "noteOn" }, { "deltaTime": 2, "channel": 2, "type": "channel", "noteNumber": 64, "velocity": 66, "subtype": "noteOn" }, { "deltaTime": 0, "channel": 2, "type": "channel", "noteNumber": 57, "velocity": 42, "subtype": "noteOn" }, { "deltaTime": 2, "channel": 2, "type": "channel", "noteNumber": 52, "velocity": 57, "subtype": "noteOn" }, { "deltaTime": 0, "channel": 2, "type": "channel", "noteNumber": 69, "velocity": 52, "subtype": "noteOn" }, { "deltaTime": 2, "channel": 2, "type": "channel", "noteNumber": 49, "velocity": 57, "subtype": "noteOn" }, { "deltaTime": 582, "channel": 2, "type": "channel", "subtype": "noteOff", "noteNumber": 52, "velocity": 64 }, { "deltaTime": 6, "channel": 2, "type": "channel", "subtype": "noteOff", "noteNumber": 49, "velocity": 64 }, { "deltaTime": 8, "channel": 2, "type": "channel", "subtype": "noteOff", "noteNumber": 57, "velocity": 64 }, { "deltaTime": 170, "channel": 2, "type": "channel", "subtype": "noteOff", "noteNumber": 61, "velocity": 64 }, { "deltaTime": 6, "channel": 2, "type": "channel", "subtype": "noteOff", "noteNumber": 64, "velocity": 64 }, { "deltaTime": 6, "channel": 2, "type": "channel", "noteNumber": 50, "velocity": 69, "subtype": "noteOn" }, { "deltaTime": 26, "channel": 2, "type": "channel", "subtype": "noteOff", "noteNumber": 69, "velocity": 64 }, { "deltaTime": 74, "channel": 2, "type": "channel", "noteNumber": 54, "velocity": 68, "subtype": "noteOn" }, { "deltaTime": 102, "channel": 2, "type": "channel", "noteNumber": 57, "velocity": 61, "subtype": "noteOn" }, { "deltaTime": 92, "channel": 2, "type": "channel", "noteNumber": 62, "velocity": 69, "subtype": "noteOn" }, { "deltaTime": 102, "channel": 2, "type": "channel", "noteNumber": 66, "velocity": 69, "subtype": "noteOn" }, { "deltaTime": 92, "channel": 2, "type": "channel", "noteNumber": 69, "velocity": 58, "subtype": "noteOn" }, { "deltaTime": 24, "channel": 2, "type": "channel", "subtype": "noteOff", "noteNumber": 66, "velocity": 64 }, { "deltaTime": 10, "channel": 2, "type": "channel", "subtype": "noteOff", "noteNumber": 62, "velocity": 64 }, { "deltaTime": 64, "channel": 2, "type": "channel", "noteNumber": 66, "velocity": 76, "subtype": "noteOn" }, { "deltaTime": 36, "channel": 2, "type": "channel", "subtype": "noteOff", "noteNumber": 54, "velocity": 64 }, { "deltaTime": 2, "channel": 2, "type": "channel", "subtype": "noteOff", "noteNumber": 57, "velocity": 64 }, { "deltaTime": 12, "channel": 2, "type": "channel", "subtype": "noteOff", "noteNumber": 50, "velocity": 64 }, { "deltaTime": 34, "channel": 2, "type": "channel", "noteNumber": 62, "velocity": 57, "subtype": "noteOn" }, { "deltaTime": 100, "channel": 2, "type": "channel", "noteNumber": 50, "velocity": 69, "subtype": "noteOn" }, { "deltaTime": 110, "channel": 2, "type": "channel", "noteNumber": 54, "velocity": 59, "subtype": "noteOn" }, { "deltaTime": 96, "channel": 2, "type": "channel", "noteNumber": 57, "velocity": 56, "subtype": "noteOn" }, { "deltaTime": 18, "channel": 2, "type": "channel", "subtype": "noteOff", "noteNumber": 62, "velocity": 64 }, { "deltaTime": 52, "channel": 2, "type": "channel", "subtype": "noteOff", "noteNumber": 69, "velocity": 64 }, { "deltaTime": 2, "channel": 2, "type": "channel", "subtype": "noteOff", "noteNumber": 66, "velocity": 64 }, { "deltaTime": 16, "channel": 2, "type": "channel", "noteNumber": 62, "velocity": 62, "subtype": "noteOn" }, { "deltaTime": 92, "channel": 2, "type": "channel", "noteNumber": 66, "velocity": 69, "subtype": "noteOn" }, { "deltaTime": 96, "channel": 2, "type": "channel", "noteNumber": 69, "velocity": 59, "subtype": "noteOn" }, { "deltaTime": 24, "channel": 2, "type": "channel", "subtype": "noteOff", "noteNumber": 62, "velocity": 64 }, { "deltaTime": 8, "channel": 2, "type": "channel", "subtype": "noteOff", "noteNumber": 66, "velocity": 64 }, { "deltaTime": 72, "channel": 2, "type": "channel", "noteNumber": 62, "velocity": 62, "subtype": "noteOn" }, { "deltaTime": 84, "channel": 2, "type": "channel", "subtype": "noteOff", "noteNumber": 50, "velocity": 64 }, { "deltaTime": 8, "channel": 2, "type": "channel", "subtype": "noteOff", "noteNumber": 54, "velocity": 64 }, { "deltaTime": 0, "channel": 2, "type": "channel", "noteNumber": 66, "velocity": 74, "subtype": "noteOn" }, { "deltaTime": 8, "channel": 2, "type": "channel", "subtype": "noteOff", "noteNumber": 57, "velocity": 64 }, { "deltaTime": 96, "channel": 2, "type": "channel", "noteNumber": 52, "velocity": 62, "subtype": "noteOn" }, { "deltaTime": 74, "channel": 2, "type": "channel", "subtype": "noteOff", "noteNumber": 66, "velocity": 64 }, { "deltaTime": 14, "channel": 2, "type": "channel", "subtype": "noteOff", "noteNumber": 69, "velocity": 64 }, { "deltaTime": 2, "channel": 2, "type": "channel", "subtype": "noteOff", "noteNumber": 62, "velocity": 64 }, { "deltaTime": 0, "channel": 2, "type": "channel", "noteNumber": 55, "velocity": 55, "subtype": "noteOn" }, { "deltaTime": 94, "channel": 2, "type": "channel", "noteNumber": 59, "velocity": 69, "subtype": "noteOn" }, { "deltaTime": 88, "channel": 2, "type": "channel", "noteNumber": 64, "velocity": 75, "subtype": "noteOn" }, { "deltaTime": 24, "channel": 2, "type": "channel", "subtype": "noteOff", "noteNumber": 52, "velocity": 64 }, { "deltaTime": 4, "channel": 2, "type": "channel", "subtype": "noteOff", "noteNumber": 55, "velocity": 64 }, { "deltaTime": 8, "channel": 2, "type": "channel", "subtype": "noteOff", "noteNumber": 59, "velocity": 64 }, { "deltaTime": 76, "channel": 2, "type": "channel", "noteNumber": 49, "velocity": 85, "subtype": "noteOn" }, { "deltaTime": 90, "channel": 2, "type": "channel", "noteNumber": 52, "velocity": 64, "subtype": "noteOn" }, { "deltaTime": 84, "channel": 2, "type": "channel", "noteNumber": 57, "velocity": 75, "subtype": "noteOn" }, { "deltaTime": 12, "channel": 2, "type": "channel", "subtype": "noteOff", "noteNumber": 64, "velocity": 64 }, { "deltaTime": 74, "channel": 2, "type": "channel", "noteNumber": 64, "velocity": 51, "subtype": "noteOn" }, { "deltaTime": 0, "channel": 2, "type": "channel", "noteNumber": 61, "velocity": 51, "subtype": "noteOn" }, { "deltaTime": 38, "channel": 2, "type": "channel", "subtype": "noteOff", "noteNumber": 49, "velocity": 64 }, { "deltaTime": 6, "channel": 2, "type": "channel", "subtype": "noteOff", "noteNumber": 57, "velocity": 64 }, { "deltaTime": 8, "channel": 2, "type": "channel", "subtype": "noteOff", "noteNumber": 52, "velocity": 64 }, { "deltaTime": 56, "channel": 2, "type": "channel", "noteNumber": 50, "velocity": 71, "subtype": "noteOn" }, { "deltaTime": 32, "channel": 2, "type": "channel", "subtype": "noteOff", "noteNumber": 61, "velocity": 64 }, { "deltaTime": 18, "channel": 2, "type": "channel", "subtype": "noteOff", "noteNumber": 64, "velocity": 64 }, { "deltaTime": 46, "channel": 2, "type": "channel", "noteNumber": 54, "velocity": 64, "subtype": "noteOn" }, { "deltaTime": 98, "channel": 2, "type": "channel", "noteNumber": 57, "velocity": 61, "subtype": "noteOn" }, { "deltaTime": 94, "channel": 2, "type": "channel", "noteNumber": 62, "velocity": 64, "subtype": "noteOn" }, { "deltaTime": 100, "channel": 2, "type": "channel", "noteNumber": 66, "velocity": 70, "subtype": "noteOn" }, { "deltaTime": 86, "channel": 2, "type": "channel", "noteNumber": 69, "velocity": 65, "subtype": "noteOn" }, { "deltaTime": 18, "channel": 2, "type": "channel", "subtype": "noteOff", "noteNumber": 66, "velocity": 64 }, { "deltaTime": 10, "channel": 2, "type": "channel", "subtype": "noteOff", "noteNumber": 62, "velocity": 64 }, { "deltaTime": 72, "channel": 2, "type": "channel", "noteNumber": 66, "velocity": 75, "subtype": "noteOn" }, { "deltaTime": 82, "channel": 2, "type": "channel", "subtype": "noteOff", "noteNumber": 50, "velocity": 64 }, { "deltaTime": 0, "channel": 2, "type": "channel", "subtype": "noteOff", "noteNumber": 57, "velocity": 64 }, { "deltaTime": 2, "channel": 2, "type": "channel", "subtype": "noteOff", "noteNumber": 54, "velocity": 64 }, { "deltaTime": 14, "channel": 2, "type": "channel", "noteNumber": 62, "velocity": 72, "subtype": "noteOn" }, { "deltaTime": 94, "channel": 2, "type": "channel", "subtype": "noteOff", "noteNumber": 66, "velocity": 64 }, { "deltaTime": 14, "channel": 2, "type": "channel", "noteNumber": 52, "velocity": 37, "subtype": "noteOn" }, { "deltaTime": 6, "channel": 2, "type": "channel", "subtype": "noteOff", "noteNumber": 69, "velocity": 64 }, { "deltaTime": 8, "channel": 2, "type": "channel", "subtype": "noteOff", "noteNumber": 62, "velocity": 64 }, { "deltaTime": 84, "channel": 2, "type": "channel", "noteNumber": 55, "velocity": 46, "subtype": "noteOn" }, { "deltaTime": 98, "channel": 2, "type": "channel", "noteNumber": 59, "velocity": 60, "subtype": "noteOn" }, { "deltaTime": 38, "channel": 2, "type": "channel", "subtype": "noteOff", "noteNumber": 59, "velocity": 64 }, { "deltaTime": 56, "channel": 2, "type": "channel", "noteNumber": 64, "velocity": 70, "subtype": "noteOn" }, { "deltaTime": 176, "channel": 2, "type": "channel", "noteNumber": 67, "velocity": 65, "subtype": "noteOn" }, { "deltaTime": 94, "channel": 2, "type": "channel", "noteNumber": 71, "velocity": 61, "subtype": "noteOn" }, { "deltaTime": 22, "channel": 2, "type": "channel", "subtype": "noteOff", "noteNumber": 55, "velocity": 64 }, { "deltaTime": 0, "channel": 2, "type": "channel", "subtype": "noteOff", "noteNumber": 64, "velocity": 64 }, { "deltaTime": 20, "channel": 2, "type": "channel", "subtype": "noteOff", "noteNumber": 52, "velocity": 64 }, { "deltaTime": 56, "channel": 2, "type": "channel", "noteNumber": 64, "velocity": 66, "subtype": "noteOn" }, { "deltaTime": 78, "channel": 2, "type": "channel", "subtype": "noteOff", "noteNumber": 71, "velocity": 64 }, { "deltaTime": 8, "channel": 2, "type": "channel", "subtype": "noteOff", "noteNumber": 67, "velocity": 64 }, { "deltaTime": 12, "channel": 2, "type": "channel", "noteNumber": 45, "velocity": 62, "subtype": "noteOn" }, { "deltaTime": 16, "channel": 2, "type": "channel", "subtype": "noteOff", "noteNumber": 64, "velocity": 64 }, { "deltaTime": 80, "channel": 2, "type": "channel", "noteNumber": 49, "velocity": 71, "subtype": "noteOn" }, { "deltaTime": 102, "channel": 2, "type": "channel", "noteNumber": 52, "velocity": 65, "subtype": "noteOn" }, { "deltaTime": 100, "channel": 2, "type": "channel", "noteNumber": 57, "velocity": 65, "subtype": "noteOn" }, { "deltaTime": 184, "channel": 2, "type": "channel", "noteNumber": 64, "velocity": 66, "subtype": "noteOn" }, { "deltaTime": 100, "channel": 2, "type": "channel", "noteNumber": 61, "velocity": 78, "subtype": "noteOn" }, { "deltaTime": 28, "channel": 2, "type": "channel", "subtype": "noteOff", "noteNumber": 57, "velocity": 64 }, { "deltaTime": 6, "channel": 2, "type": "channel", "subtype": "noteOff", "noteNumber": 45, "velocity": 64 }, { "deltaTime": 0, "channel": 2, "type": "channel", "subtype": "noteOff", "noteNumber": 52, "velocity": 64 }, { "deltaTime": 8, "channel": 2, "type": "channel", "subtype": "noteOff", "noteNumber": 49, "velocity": 64 }, { "deltaTime": 58, "channel": 2, "type": "channel", "noteNumber": 57, "velocity": 58, "subtype": "noteOn" }, { "deltaTime": 98, "channel": 2, "type": "channel", "noteNumber": 50, "velocity": 70, "subtype": "noteOn" }, { "deltaTime": 12, "channel": 2, "type": "channel", "subtype": "noteOff", "noteNumber": 57, "velocity": 64 }, { "deltaTime": 4, "channel": 2, "type": "channel", "subtype": "noteOff", "noteNumber": 61, "velocity": 64 }, { "deltaTime": 12, "channel": 2, "type": "channel", "subtype": "noteOff", "noteNumber": 64, "velocity": 64 }, { "deltaTime": 66, "channel": 2, "type": "channel", "noteNumber": 54, "velocity": 81, "subtype": "noteOn" }, { "deltaTime": 98, "channel": 2, "type": "channel", "noteNumber": 57, "velocity": 61, "subtype": "noteOn" }, { "deltaTime": 92, "channel": 2, "type": "channel", "noteNumber": 62, "velocity": 74, "subtype": "noteOn" }, { "deltaTime": 180, "channel": 2, "type": "channel", "noteNumber": 66, "velocity": 76, "subtype": "noteOn" }, { "deltaTime": 96, "channel": 2, "type": "channel", "noteNumber": 69, "velocity": 74, "subtype": "noteOn" }, { "deltaTime": 20, "channel": 2, "type": "channel", "subtype": "noteOff", "noteNumber": 66, "velocity": 64 }, { "deltaTime": 60, "channel": 2, "type": "channel", "subtype": "noteOff", "noteNumber": 54, "velocity": 64 }, { "deltaTime": 6, "channel": 2, "type": "channel", "subtype": "noteOff", "noteNumber": 50, "velocity": 64 }, { "deltaTime": 24, "channel": 2, "type": "channel", "subtype": "noteOff", "noteNumber": 57, "velocity": 64 }, { "deltaTime": 94, "channel": 2, "type": "channel", "noteNumber": 52, "velocity": 52, "subtype": "noteOn" }, { "deltaTime": 24, "channel": 2, "type": "channel", "subtype": "noteOff", "noteNumber": 62, "velocity": 64 }, { "deltaTime": 36, "channel": 2, "type": "channel", "subtype": "noteOff", "noteNumber": 69, "velocity": 64 }, { "deltaTime": 32, "channel": 2, "type": "channel", "noteNumber": 55, "velocity": 62, "subtype": "noteOn" }, { "deltaTime": 102, "channel": 2, "type": "channel", "noteNumber": 59, "velocity": 61, "subtype": "noteOn" }, { "deltaTime": 82, "channel": 2, "type": "channel", "noteNumber": 64, "velocity": 81, "subtype": "noteOn" }, { "deltaTime": 6, "channel": 2, "type": "channel", "subtype": "noteOff", "noteNumber": 59, "velocity": 64 }, { "deltaTime": 2, "channel": 2, "type": "channel", "subtype": "noteOff", "noteNumber": 55, "velocity": 64 }, { "deltaTime": 12, "channel": 2, "type": "channel", "subtype": "noteOff", "noteNumber": 52, "velocity": 64 }, { "deltaTime": 84, "channel": 2, "type": "channel", "noteNumber": 45, "velocity": 67, "subtype": "noteOn" }, { "deltaTime": 30, "channel": 2, "type": "channel", "subtype": "noteOff", "noteNumber": 64, "velocity": 64 }, { "deltaTime": 58, "channel": 2, "type": "channel", "noteNumber": 49, "velocity": 69, "subtype": "noteOn" }, { "deltaTime": 98, "channel": 2, "type": "channel", "noteNumber": 52, "velocity": 73, "subtype": "noteOn" }, { "deltaTime": 88, "channel": 2, "type": "channel", "noteNumber": 57, "velocity": 73, "subtype": "noteOn" }, { "deltaTime": 22, "channel": 2, "type": "channel", "subtype": "noteOff", "noteNumber": 45, "velocity": 64 }, { "deltaTime": 4, "channel": 2, "type": "channel", "subtype": "noteOff", "noteNumber": 52, "velocity": 64 }, { "deltaTime": 4, "channel": 2, "type": "channel", "subtype": "noteOff", "noteNumber": 49, "velocity": 64 }, { "deltaTime": 78, "channel": 2, "type": "channel", "noteNumber": 50, "velocity": 78, "subtype": "noteOn" }, { "deltaTime": 38, "channel": 2, "type": "channel", "subtype": "noteOff", "noteNumber": 57, "velocity": 64 }, { "deltaTime": 42, "channel": 2, "type": "channel", "noteNumber": 54, "velocity": 73, "subtype": "noteOn" }, { "deltaTime": 104, "channel": 2, "type": "channel", "noteNumber": 57, "velocity": 64, "subtype": "noteOn" }, { "deltaTime": 100, "channel": 2, "type": "channel", "noteNumber": 62, "velocity": 73, "subtype": "noteOn" }, { "deltaTime": 104, "channel": 2, "type": "channel", "noteNumber": 66, "velocity": 72, "subtype": "noteOn" }, { "deltaTime": 94, "channel": 2, "type": "channel", "noteNumber": 69, "velocity": 58, "subtype": "noteOn" }, { "deltaTime": 26, "channel": 2, "type": "channel", "subtype": "noteOff", "noteNumber": 66, "velocity": 64 }, { "deltaTime": 12, "channel": 2, "type": "channel", "subtype": "noteOff", "noteNumber": 62, "velocity": 64 }, { "deltaTime": 56, "channel": 2, "type": "channel", "noteNumber": 66, "velocity": 74, "subtype": "noteOn" }, { "deltaTime": 32, "channel": 2, "type": "channel", "subtype": "noteOff", "noteNumber": 54, "velocity": 64 }, { "deltaTime": 4, "channel": 2, "type": "channel", "subtype": "noteOff", "noteNumber": 57, "velocity": 64 }, { "deltaTime": 12, "channel": 2, "type": "channel", "subtype": "noteOff", "noteNumber": 50, "velocity": 64 }, { "deltaTime": 38, "channel": 2, "type": "channel", "noteNumber": 62, "velocity": 63, "subtype": "noteOn" }, { "deltaTime": 102, "channel": 2, "type": "channel", "noteNumber": 50, "velocity": 73, "subtype": "noteOn" }, { "deltaTime": 98, "channel": 2, "type": "channel", "noteNumber": 54, "velocity": 54, "subtype": "noteOn" }, { "deltaTime": 94, "channel": 2, "type": "channel", "noteNumber": 57, "velocity": 57, "subtype": "noteOn" }, { "deltaTime": 16, "channel": 2, "type": "channel", "subtype": "noteOff", "noteNumber": 62, "velocity": 64 }, { "deltaTime": 8, "channel": 2, "type": "channel", "subtype": "noteOff", "noteNumber": 66, "velocity": 64 }, { "deltaTime": 2, "channel": 2, "type": "channel", "subtype": "noteOff", "noteNumber": 69, "velocity": 64 }, { "deltaTime": 76, "channel": 2, "type": "channel", "noteNumber": 62, "velocity": 68, "subtype": "noteOn" }, { "deltaTime": 104, "channel": 2, "type": "channel", "noteNumber": 66, "velocity": 62, "subtype": "noteOn" }, { "deltaTime": 86, "channel": 2, "type": "channel", "noteNumber": 69, "velocity": 56, "subtype": "noteOn" }, { "deltaTime": 14, "channel": 2, "type": "channel", "subtype": "noteOff", "noteNumber": 62, "velocity": 64 }, { "deltaTime": 16, "channel": 2, "type": "channel", "subtype": "noteOff", "noteNumber": 66, "velocity": 64 }, { "deltaTime": 68, "channel": 2, "type": "channel", "noteNumber": 66, "velocity": 74, "subtype": "noteOn" }, { "deltaTime": 38, "channel": 2, "type": "channel", "subtype": "noteOff", "noteNumber": 54, "velocity": 64 }, { "deltaTime": 0, "channel": 2, "type": "channel", "subtype": "noteOff", "noteNumber": 57, "velocity": 64 }, { "deltaTime": 16, "channel": 2, "type": "channel", "subtype": "noteOff", "noteNumber": 50, "velocity": 64 }, { "deltaTime": 38, "channel": 2, "type": "channel", "noteNumber": 62, "velocity": 62, "subtype": "noteOn" }, { "deltaTime": 98, "channel": 2, "type": "channel", "noteNumber": 50, "velocity": 69, "subtype": "noteOn" }, { "deltaTime": 100, "channel": 2, "type": "channel", "noteNumber": 54, "velocity": 57, "subtype": "noteOn" }, { "deltaTime": 100, "channel": 2, "type": "channel", "noteNumber": 57, "velocity": 59, "subtype": "noteOn" }, { "deltaTime": 12, "channel": 2, "type": "channel", "subtype": "noteOff", "noteNumber": 66, "velocity": 64 }, { "deltaTime": 0, "channel": 2, "type": "channel", "subtype": "noteOff", "noteNumber": 69, "velocity": 64 }, { "deltaTime": 4, "channel": 2, "type": "channel", "subtype": "noteOff", "noteNumber": 62, "velocity": 64 }, { "deltaTime": 82, "channel": 2, "type": "channel", "noteNumber": 62, "velocity": 73, "subtype": "noteOn" }, { "deltaTime": 190, "channel": 2, "type": "channel", "noteNumber": 69, "velocity": 62, "subtype": "noteOn" }, { "deltaTime": 80, "channel": 2, "type": "channel", "subtype": "noteOff", "noteNumber": 62, "velocity": 64 }, { "deltaTime": 14, "channel": 2, "type": "channel", "subtype": "noteOff", "noteNumber": 54, "velocity": 64 }, { "deltaTime": 0, "channel": 2, "type": "channel", "subtype": "noteOff", "noteNumber": 57, "velocity": 64 }, { "deltaTime": 4, "channel": 2, "type": "channel", "noteNumber": 66, "velocity": 66, "subtype": "noteOn" }, { "deltaTime": 10, "channel": 2, "type": "channel", "subtype": "noteOff", "noteNumber": 50, "velocity": 64 }, { "deltaTime": 80, "channel": 2, "type": "channel", "noteNumber": 62, "velocity": 75, "subtype": "noteOn" }, { "deltaTime": 34, "channel": 2, "type": "channel", "subtype": "noteOff", "noteNumber": 66, "velocity": 64 }, { "deltaTime": 14, "channel": 2, "type": "channel", "subtype": "noteOff", "noteNumber": 69, "velocity": 64 }, { "deltaTime": 48, "channel": 2, "type": "channel", "noteNumber": 45, "velocity": 67, "subtype": "noteOn" }, { "deltaTime": 10, "channel": 2, "type": "channel", "subtype": "noteOff", "noteNumber": 62, "velocity": 64 }, { "deltaTime": 84, "channel": 2, "type": "channel", "noteNumber": 49, "velocity": 69, "subtype": "noteOn" }, { "deltaTime": 94, "channel": 2, "type": "channel", "noteNumber": 52, "velocity": 59, "subtype": "noteOn" }, { "deltaTime": 96, "channel": 2, "type": "channel", "noteNumber": 57, "velocity": 66, "subtype": "noteOn" }, { "deltaTime": 96, "channel": 2, "type": "channel", "noteNumber": 61, "velocity": 73, "subtype": "noteOn" }, { "deltaTime": 90, "channel": 2, "type": "channel", "noteNumber": 64, "velocity": 68, "subtype": "noteOn" }, { "deltaTime": 20, "channel": 2, "type": "channel", "subtype": "noteOff", "noteNumber": 61, "velocity": 64 }, { "deltaTime": 18, "channel": 2, "type": "channel", "subtype": "noteOff", "noteNumber": 57, "velocity": 64 }, { "deltaTime": 56, "channel": 2, "type": "channel", "noteNumber": 61, "velocity": 73, "subtype": "noteOn" }, { "deltaTime": 36, "channel": 2, "type": "channel", "subtype": "noteOff", "noteNumber": 52, "velocity": 64 }, { "deltaTime": 6, "channel": 2, "type": "channel", "subtype": "noteOff", "noteNumber": 45, "velocity": 64 }, { "deltaTime": 2, "channel": 2, "type": "channel", "subtype": "noteOff", "noteNumber": 49, "velocity": 64 }, { "deltaTime": 56, "channel": 2, "type": "channel", "noteNumber": 57, "velocity": 63, "subtype": "noteOn" }, { "deltaTime": 98, "channel": 2, "type": "channel", "noteNumber": 50, "velocity": 68, "subtype": "noteOn" }, { "deltaTime": 16, "channel": 2, "type": "channel", "subtype": "noteOff", "noteNumber": 57, "velocity": 64 }, { "deltaTime": 4, "channel": 2, "type": "channel", "subtype": "noteOff", "noteNumber": 61, "velocity": 64 }, { "deltaTime": 20, "channel": 2, "type": "channel", "subtype": "noteOff", "noteNumber": 64, "velocity": 64 }, { "deltaTime": 56, "channel": 2, "type": "channel", "noteNumber": 54, "velocity": 64, "subtype": "noteOn" }, { "deltaTime": 98, "channel": 2, "type": "channel", "noteNumber": 57, "velocity": 59, "subtype": "noteOn" }, { "deltaTime": 90, "channel": 2, "type": "channel", "noteNumber": 62, "velocity": 65, "subtype": "noteOn" }, { "deltaTime": 98, "channel": 2, "type": "channel", "noteNumber": 66, "velocity": 69, "subtype": "noteOn" }, { "deltaTime": 96, "channel": 2, "type": "channel", "noteNumber": 69, "velocity": 63, "subtype": "noteOn" }, { "deltaTime": 20, "channel": 2, "type": "channel", "subtype": "noteOff", "noteNumber": 66, "velocity": 64 }, { "deltaTime": 22, "channel": 2, "type": "channel", "subtype": "noteOff", "noteNumber": 62, "velocity": 64 }, { "deltaTime": 62, "channel": 2, "type": "channel", "noteNumber": 66, "velocity": 75, "subtype": "noteOn" }, { "deltaTime": 50, "channel": 2, "type": "channel", "subtype": "noteOff", "noteNumber": 54, "velocity": 64 }, { "deltaTime": 0, "channel": 2, "type": "channel", "subtype": "noteOff", "noteNumber": 57, "velocity": 64 }, { "deltaTime": 24, "channel": 2, "type": "channel", "subtype": "noteOff", "noteNumber": 50, "velocity": 64 }, { "deltaTime": 14, "channel": 2, "type": "channel", "noteNumber": 62, "velocity": 62, "subtype": "noteOn" }, { "deltaTime": 108, "channel": 2, "type": "channel", "noteNumber": 50, "velocity": 71, "subtype": "noteOn" }, { "deltaTime": 96, "channel": 2, "type": "channel", "noteNumber": 54, "velocity": 57, "subtype": "noteOn" }, { "deltaTime": 94, "channel": 2, "type": "channel", "noteNumber": 57, "velocity": 59, "subtype": "noteOn" }, { "deltaTime": 20, "channel": 2, "type": "channel", "subtype": "noteOff", "noteNumber": 62, "velocity": 64 }, { "deltaTime": 14, "channel": 2, "type": "channel", "subtype": "noteOff", "noteNumber": 66, "velocity": 64 }, { "deltaTime": 6, "channel": 2, "type": "channel", "subtype": "noteOff", "noteNumber": 69, "velocity": 64 }, { "deltaTime": 60, "channel": 2, "type": "channel", "noteNumber": 62, "velocity": 64, "subtype": "noteOn" }, { "deltaTime": 98, "channel": 2, "type": "channel", "noteNumber": 66, "velocity": 62, "subtype": "noteOn" }, { "deltaTime": 84, "channel": 2, "type": "channel", "noteNumber": 69, "velocity": 57, "subtype": "noteOn" }, { "deltaTime": 22, "channel": 2, "type": "channel", "subtype": "noteOff", "noteNumber": 66, "velocity": 64 }, { "deltaTime": 24, "channel": 2, "type": "channel", "subtype": "noteOff", "noteNumber": 62, "velocity": 64 }, { "deltaTime": 60, "channel": 2, "type": "channel", "noteNumber": 66, "velocity": 69, "subtype": "noteOn" }, { "deltaTime": 58, "channel": 2, "type": "channel", "subtype": "noteOff", "noteNumber": 54, "velocity": 64 }, { "deltaTime": 8, "channel": 2, "type": "channel", "subtype": "noteOff", "noteNumber": 57, "velocity": 64 }, { "deltaTime": 16, "channel": 2, "type": "channel", "subtype": "noteOff", "noteNumber": 50, "velocity": 64 }, { "deltaTime": 2, "channel": 2, "type": "channel", "noteNumber": 62, "velocity": 64, "subtype": "noteOn" }, { "deltaTime": 110, "channel": 2, "type": "channel", "noteNumber": 50, "velocity": 74, "subtype": "noteOn" }, { "deltaTime": 92, "channel": 2, "type": "channel", "noteNumber": 54, "velocity": 59, "subtype": "noteOn" }, { "deltaTime": 100, "channel": 2, "type": "channel", "noteNumber": 57, "velocity": 46, "subtype": "noteOn" }, { "deltaTime": 24, "channel": 2, "type": "channel", "subtype": "noteOff", "noteNumber": 62, "velocity": 64 }, { "deltaTime": 16, "channel": 2, "type": "channel", "subtype": "noteOff", "noteNumber": 66, "velocity": 64 }, { "deltaTime": 4, "channel": 2, "type": "channel", "subtype": "noteOff", "noteNumber": 69, "velocity": 64 }, { "deltaTime": 50, "channel": 2, "type": "channel", "noteNumber": 62, "velocity": 62, "subtype": "noteOn" }, { "deltaTime": 98, "channel": 2, "type": "channel", "noteNumber": 66, "velocity": 65, "subtype": "noteOn" }, { "deltaTime": 82, "channel": 2, "type": "channel", "noteNumber": 69, "velocity": 57, "subtype": "noteOn" }, { "deltaTime": 28, "channel": 2, "type": "channel", "subtype": "noteOff", "noteNumber": 62, "velocity": 64 }, { "deltaTime": 14, "channel": 2, "type": "channel", "subtype": "noteOff", "noteNumber": 66, "velocity": 64 }, { "deltaTime": 54, "channel": 2, "type": "channel", "noteNumber": 62, "velocity": 65, "subtype": "noteOn" }, { "deltaTime": 66, "channel": 2, "type": "channel", "subtype": "noteOff", "noteNumber": 50, "velocity": 64 }, { "deltaTime": 0, "channel": 2, "type": "channel", "subtype": "noteOff", "noteNumber": 54, "velocity": 64 }, { "deltaTime": 16, "channel": 2, "type": "channel", "subtype": "noteOff", "noteNumber": 57, "velocity": 64 }, { "deltaTime": 4, "channel": 2, "type": "channel", "noteNumber": 66, "velocity": 69, "subtype": "noteOn" }, { "deltaTime": 12, "channel": 2, "type": "channel", "subtype": "noteOff", "noteNumber": 69, "velocity": 64 }, { "deltaTime": 48, "channel": 2, "type": "channel", "subtype": "noteOff", "noteNumber": 62, "velocity": 64 }, { "deltaTime": 8, "channel": 2, "type": "channel", "subtype": "noteOff", "noteNumber": 66, "velocity": 64 }, { "deltaTime": 46, "channel": 2, "type": "channel", "noteNumber": 64, "velocity": 81, "subtype": "noteOn" }, { "deltaTime": 6, "channel": 2, "type": "channel", "noteNumber": 67, "velocity": 61, "subtype": "noteOn" }, { "deltaTime": 0, "channel": 2, "type": "channel", "noteNumber": 59, "velocity": 64, "subtype": "noteOn" }, { "deltaTime": 2, "channel": 2, "type": "channel", "noteNumber": 55, "velocity": 61, "subtype": "noteOn" }, { "deltaTime": 0, "channel": 2, "type": "channel", "noteNumber": 52, "velocity": 52, "subtype": "noteOn" }, { "deltaTime": 288, "channel": 2, "type": "channel", "subtype": "noteOff", "noteNumber": 59, "velocity": 64 }, { "deltaTime": 10, "channel": 2, "type": "channel", "subtype": "noteOff", "noteNumber": 64, "velocity": 64 }, { "deltaTime": 4, "channel": 2, "type": "channel", "subtype": "noteOff", "noteNumber": 52, "velocity": 64 }, { "deltaTime": 4, "channel": 2, "type": "channel", "subtype": "noteOff", "noteNumber": 55, "velocity": 64 }, { "deltaTime": 16, "channel": 2, "type": "channel", "subtype": "noteOff", "noteNumber": 67, "velocity": 64 }, { "deltaTime": 60, "channel": 2, "type": "channel", "noteNumber": 64, "velocity": 68, "subtype": "noteOn" }, { "deltaTime": 4, "channel": 2, "type": "channel", "noteNumber": 67, "velocity": 60, "subtype": "noteOn" }, { "deltaTime": 2, "channel": 2, "type": "channel", "noteNumber": 71, "velocity": 63, "subtype": "noteOn" }, { "deltaTime": 0, "channel": 2, "type": "channel", "noteNumber": 59, "velocity": 58, "subtype": "noteOn" }, { "deltaTime": 2, "channel": 2, "type": "channel", "noteNumber": 52, "velocity": 48, "subtype": "noteOn" }, { "deltaTime": 0, "channel": 2, "type": "channel", "noteNumber": 55, "velocity": 52, "subtype": "noteOn" }, { "deltaTime": 232, "channel": 2, "type": "channel", "subtype": "noteOff", "noteNumber": 71, "velocity": 64 }, { "deltaTime": 6, "channel": 2, "type": "channel", "subtype": "noteOff", "noteNumber": 59, "velocity": 64 }, { "deltaTime": 6, "channel": 2, "type": "channel", "subtype": "noteOff", "noteNumber": 52, "velocity": 64 }, { "deltaTime": 6, "channel": 2, "type": "channel", "subtype": "noteOff", "noteNumber": 67, "velocity": 64 }, { "deltaTime": 0, "channel": 2, "type": "channel", "subtype": "noteOff", "noteNumber": 55, "velocity": 64 }, { "deltaTime": 32, "channel": 2, "type": "channel", "subtype": "noteOff", "noteNumber": 64, "velocity": 64 }, { "deltaTime": 86, "channel": 2, "type": "channel", "noteNumber": 62, "velocity": 77, "subtype": "noteOn" }, { "deltaTime": 0, "channel": 2, "type": "channel", "noteNumber": 66, "velocity": 73, "subtype": "noteOn" }, { "deltaTime": 0, "channel": 2, "type": "channel", "noteNumber": 69, "velocity": 66, "subtype": "noteOn" }, { "deltaTime": 2, "channel": 2, "type": "channel", "noteNumber": 54, "velocity": 75, "subtype": "noteOn" }, { "deltaTime": 2, "channel": 2, "type": "channel", "noteNumber": 50, "velocity": 54, "subtype": "noteOn" }, { "deltaTime": 2, "channel": 2, "type": "channel", "noteNumber": 57, "velocity": 67, "subtype": "noteOn" }, { "deltaTime": 812, "channel": 2, "type": "channel", "subtype": "noteOff", "noteNumber": 66, "velocity": 64 }, { "deltaTime": 4, "channel": 2, "type": "channel", "subtype": "noteOff", "noteNumber": 62, "velocity": 64 }, { "deltaTime": 10, "channel": 2, "type": "channel", "subtype": "noteOff", "noteNumber": 69, "velocity": 64 }, { "deltaTime": 298, "channel": 2, "type": "channel", "subtype": "noteOff", "noteNumber": 50, "velocity": 64 }, { "deltaTime": 20, "channel": 2, "type": "channel", "subtype": "noteOff", "noteNumber": 54, "velocity": 64 }, { "deltaTime": 12, "channel": 2, "type": "channel", "subtype": "noteOff", "noteNumber": 57, "velocity": 64 }, { "deltaTime": 0, "type": "meta", "subtype": "endOfTrack" }], [{ "deltaTime": 0, "type": "meta", "subtype": "unknown", "data": "\u0000" }, { "deltaTime": 0, "type": "meta", "subtype": "trackName", "text": "PIano.....          " }, { "deltaTime": 0, "channel": 3, "type": "channel", "subtype": "programChange", "programNumber": 5 }, { "deltaTime": 0, "channel": 3, "type": "channel", "subtype": "controller", "controllerType": 10, "value": 117 }, { "deltaTime": 0, "channel": 3, "type": "channel", "subtype": "controller", "controllerType": 0, "value": 0 }, { "deltaTime": 0, "channel": 3, "type": "channel", "subtype": "controller", "controllerType": 93, "value": 26 }, { "deltaTime": 0, "channel": 3, "type": "channel", "subtype": "controller", "controllerType": 91, "value": 40 }, { "deltaTime": 768, "channel": 3, "type": "channel", "subtype": "controller", "controllerType": 7, "value": 78 }, { "deltaTime": 1, "channel": 3, "type": "channel", "noteNumber": 50, "velocity": 87, "subtype": "noteOn" }, { "deltaTime": 1, "channel": 3, "type": "channel", "noteNumber": 62, "velocity": 109, "subtype": "noteOn" }, { "deltaTime": 8, "channel": 3, "type": "channel", "subtype": "controller", "controllerType": 64, "value": 127 }, { "deltaTime": 183, "channel": 3, "type": "channel", "noteNumber": 57, "velocity": 89, "subtype": "noteOn" }, { "deltaTime": 23, "channel": 3, "type": "channel", "subtype": "noteOff", "noteNumber": 62, "velocity": 64 }, { "deltaTime": 74, "channel": 3, "type": "channel", "noteNumber": 69, "velocity": 96, "subtype": "noteOn" }, { "deltaTime": 111, "channel": 3, "type": "channel", "subtype": "noteOff", "noteNumber": 50, "velocity": 64 }, { "deltaTime": 12, "channel": 3, "type": "channel", "subtype": "noteOff", "noteNumber": 57, "velocity": 64 }, { "deltaTime": 67, "channel": 3, "type": "channel", "noteNumber": 66, "velocity": 114, "subtype": "noteOn" }, { "deltaTime": 97, "channel": 3, "type": "channel", "noteNumber": 62, "velocity": 109, "subtype": "noteOn" }, { "deltaTime": 94, "channel": 3, "type": "channel", "noteNumber": 57, "velocity": 26, "subtype": "noteOn" }, { "deltaTime": 6, "channel": 3, "type": "channel", "subtype": "noteOff", "noteNumber": 62, "velocity": 64 }, { "deltaTime": 31, "channel": 3, "type": "channel", "subtype": "noteOff", "noteNumber": 66, "velocity": 64 }, { "deltaTime": 8, "channel": 3, "type": "channel", "subtype": "noteOff", "noteNumber": 69, "velocity": 64 }, { "deltaTime": 1, "channel": 3, "type": "channel", "noteNumber": 61, "velocity": 70, "subtype": "noteOn" }, { "deltaTime": 28, "channel": 3, "type": "channel", "subtype": "noteOff", "noteNumber": 61, "velocity": 64 }, { "deltaTime": 22, "channel": 3, "type": "channel", "noteNumber": 61, "velocity": 93, "subtype": "noteOn" }, { "deltaTime": 1, "channel": 3, "type": "channel", "noteNumber": 64, "velocity": 103, "subtype": "noteOn" }, { "deltaTime": 288, "channel": 3, "type": "channel", "noteNumber": 76, "velocity": 94, "subtype": "noteOn" }, { "deltaTime": 0, "channel": 3, "type": "channel", "noteNumber": 69, "velocity": 89, "subtype": "noteOn" }, { "deltaTime": 0, "channel": 3, "type": "channel", "noteNumber": 73, "velocity": 85, "subtype": "noteOn" }, { "deltaTime": 33, "channel": 3, "type": "channel", "subtype": "noteOff", "noteNumber": 61, "velocity": 64 }, { "deltaTime": 73, "channel": 3, "type": "channel", "subtype": "controller", "controllerType": 64, "value": 0 }, { "deltaTime": 82, "channel": 3, "type": "channel", "subtype": "noteOff", "noteNumber": 69, "velocity": 64 }, { "deltaTime": 4, "channel": 3, "type": "channel", "noteNumber": 61, "velocity": 107, "subtype": "noteOn" }, { "deltaTime": 12, "channel": 3, "type": "channel", "subtype": "noteOff", "noteNumber": 73, "velocity": 64 }, { "deltaTime": 28, "channel": 3, "type": "channel", "subtype": "noteOff", "noteNumber": 76, "velocity": 64 }, { "deltaTime": 57, "channel": 3, "type": "channel", "noteNumber": 76, "velocity": 92, "subtype": "noteOn" }, { "deltaTime": 0, "channel": 3, "type": "channel", "noteNumber": 69, "velocity": 94, "subtype": "noteOn" }, { "deltaTime": 0, "channel": 3, "type": "channel", "noteNumber": 73, "velocity": 102, "subtype": "noteOn" }, { "deltaTime": 31, "channel": 3, "type": "channel", "subtype": "noteOff", "noteNumber": 64, "velocity": 64 }, { "deltaTime": 10, "channel": 3, "type": "channel", "subtype": "noteOff", "noteNumber": 61, "velocity": 64 }, { "deltaTime": 27, "channel": 3, "type": "channel", "subtype": "noteOff", "noteNumber": 57, "velocity": 64 }, { "deltaTime": 114, "channel": 3, "type": "channel", "subtype": "noteOff", "noteNumber": 76, "velocity": 64 }, { "deltaTime": 0, "channel": 3, "type": "channel", "subtype": "noteOff", "noteNumber": 73, "velocity": 64 }, { "deltaTime": 10, "channel": 3, "type": "channel", "noteNumber": 50, "velocity": 93, "subtype": "noteOn" }, { "deltaTime": 0, "channel": 3, "type": "channel", "noteNumber": 57, "velocity": 93, "subtype": "noteOn" }, { "deltaTime": 16, "channel": 3, "type": "channel", "subtype": "noteOff", "noteNumber": 69, "velocity": 64 }, { "deltaTime": 175, "channel": 3, "type": "channel", "noteNumber": 54, "velocity": 101, "subtype": "noteOn" }, { "deltaTime": 96, "channel": 3, "type": "channel", "noteNumber": 62, "velocity": 100, "subtype": "noteOn" }, { "deltaTime": 97, "channel": 3, "type": "channel", "noteNumber": 66, "velocity": 97, "subtype": "noteOn" }, { "deltaTime": 191, "channel": 3, "type": "channel", "noteNumber": 69, "velocity": 101, "subtype": "noteOn" }, { "deltaTime": 68, "channel": 3, "type": "channel", "subtype": "noteOff", "noteNumber": 54, "velocity": 64 }, { "deltaTime": 3, "channel": 3, "type": "channel", "subtype": "noteOff", "noteNumber": 57, "velocity": 64 }, { "deltaTime": 8, "channel": 3, "type": "channel", "subtype": "noteOff", "noteNumber": 50, "velocity": 64 }, { "deltaTime": 113, "channel": 3, "type": "channel", "noteNumber": 50, "velocity": 81, "subtype": "noteOn" }, { "deltaTime": 1, "channel": 3, "type": "channel", "noteNumber": 57, "velocity": 98, "subtype": "noteOn" }, { "deltaTime": 191, "channel": 3, "type": "channel", "noteNumber": 54, "velocity": 86, "subtype": "noteOn" }, { "deltaTime": 39, "channel": 3, "type": "channel", "subtype": "noteOff", "noteNumber": 66, "velocity": 64 }, { "deltaTime": 5, "channel": 3, "type": "channel", "subtype": "noteOff", "noteNumber": 62, "velocity": 64 }, { "deltaTime": 4, "channel": 3, "type": "channel", "subtype": "noteOff", "noteNumber": 69, "velocity": 64 }, { "deltaTime": 49, "channel": 3, "type": "channel", "noteNumber": 62, "velocity": 98, "subtype": "noteOn" }, { "deltaTime": 191, "channel": 3, "type": "channel", "noteNumber": 66, "velocity": 101, "subtype": "noteOn" }, { "deltaTime": 96, "channel": 3, "type": "channel", "noteNumber": 69, "velocity": 91, "subtype": "noteOn" }, { "deltaTime": 4, "channel": 3, "type": "channel", "subtype": "noteOff", "noteNumber": 54, "velocity": 64 }, { "deltaTime": 7, "channel": 3, "type": "channel", "subtype": "noteOff", "noteNumber": 57, "velocity": 64 }, { "deltaTime": 3, "channel": 3, "type": "channel", "subtype": "noteOff", "noteNumber": 50, "velocity": 64 }, { "deltaTime": 184, "channel": 3, "type": "channel", "subtype": "noteOff", "noteNumber": 66, "velocity": 64 }, { "deltaTime": 6, "channel": 3, "type": "channel", "subtype": "noteOff", "noteNumber": 69, "velocity": 64 }, { "deltaTime": 83, "channel": 3, "type": "channel", "noteNumber": 66, "velocity": 98, "subtype": "noteOn" }, { "deltaTime": 97, "channel": 3, "type": "channel", "noteNumber": 69, "velocity": 90, "subtype": "noteOn" }, { "deltaTime": 97, "channel": 3, "type": "channel", "noteNumber": 74, "velocity": 107, "subtype": "noteOn" }, { "deltaTime": 0, "channel": 3, "type": "channel", "noteNumber": 78, "velocity": 105, "subtype": "noteOn" }, { "deltaTime": 45, "channel": 3, "type": "channel", "noteNumber": 81, "velocity": 86, "subtype": "noteOn" }, { "deltaTime": 157, "channel": 3, "type": "channel", "subtype": "noteOff", "noteNumber": 74, "velocity": 64 }, { "deltaTime": 73, "channel": 3, "type": "channel", "subtype": "noteOff", "noteNumber": 81, "velocity": 64 }, { "deltaTime": 13, "channel": 3, "type": "channel", "noteNumber": 74, "velocity": 86, "subtype": "noteOn" }, { "deltaTime": 39, "channel": 3, "type": "channel", "subtype": "noteOff", "noteNumber": 69, "velocity": 64 }, { "deltaTime": 9, "channel": 3, "type": "channel", "subtype": "noteOff", "noteNumber": 62, "velocity": 64 }, { "deltaTime": 4, "channel": 3, "type": "channel", "subtype": "noteOff", "noteNumber": 66, "velocity": 64 }, { "deltaTime": 88, "channel": 3, "type": "channel", "noteNumber": 81, "velocity": 84, "subtype": "noteOn" }, { "deltaTime": 52, "channel": 3, "type": "channel", "noteNumber": 62, "velocity": 91, "subtype": "noteOn" }, { "deltaTime": 141, "channel": 3, "type": "channel", "noteNumber": 66, "velocity": 72, "subtype": "noteOn" }, { "deltaTime": 52, "channel": 3, "type": "channel", "noteNumber": 69, "velocity": 94, "subtype": "noteOn" }, { "deltaTime": 21, "channel": 3, "type": "channel", "subtype": "noteOff", "noteNumber": 78, "velocity": 64 }, { "deltaTime": 8, "channel": 3, "type": "channel", "subtype": "noteOff", "noteNumber": 74, "velocity": 64 }, { "deltaTime": 18, "channel": 3, "type": "channel", "subtype": "noteOff", "noteNumber": 81, "velocity": 64 }, { "deltaTime": 93, "channel": 3, "type": "channel", "noteNumber": 78, "velocity": 103, "subtype": "noteOn" }, { "deltaTime": 0, "channel": 3, "type": "channel", "noteNumber": 74, "velocity": 96, "subtype": "noteOn" }, { "deltaTime": 78, "channel": 3, "type": "channel", "subtype": "noteOff", "noteNumber": 69, "velocity": 64 }, { "deltaTime": 39, "channel": 3, "type": "channel", "subtype": "noteOff", "noteNumber": 62, "velocity": 64 }, { "deltaTime": 5, "channel": 3, "type": "channel", "subtype": "noteOff", "noteNumber": 66, "velocity": 64 }, { "deltaTime": 70, "channel": 3, "type": "channel", "noteNumber": 81, "velocity": 94, "subtype": "noteOn" }, { "deltaTime": 178, "channel": 3, "type": "channel", "subtype": "noteOff", "noteNumber": 81, "velocity": 64 }, { "deltaTime": 6, "channel": 3, "type": "channel", "subtype": "noteOff", "noteNumber": 78, "velocity": 64 }, { "deltaTime": 28, "channel": 3, "type": "channel", "subtype": "noteOff", "noteNumber": 74, "velocity": 64 }, { "deltaTime": 30, "channel": 3, "type": "channel", "noteNumber": 59, "velocity": 93, "subtype": "noteOn" }, { "deltaTime": 0, "channel": 3, "type": "channel", "noteNumber": 55, "velocity": 85, "subtype": "noteOn" }, { "deltaTime": 0, "channel": 3, "type": "channel", "noteNumber": 52, "velocity": 83, "subtype": "noteOn" }, { "deltaTime": 192, "channel": 3, "type": "channel", "noteNumber": 64, "velocity": 100, "subtype": "noteOn" }, { "deltaTime": 0, "channel": 3, "type": "channel", "noteNumber": 71, "velocity": 94, "subtype": "noteOn" }, { "deltaTime": 1, "channel": 3, "type": "channel", "noteNumber": 67, "velocity": 88, "subtype": "noteOn" }, { "deltaTime": 57, "channel": 3, "type": "channel", "subtype": "noteOff", "noteNumber": 55, "velocity": 64 }, { "deltaTime": 0, "channel": 3, "type": "channel", "subtype": "noteOff", "noteNumber": 52, "velocity": 64 }, { "deltaTime": 12, "channel": 3, "type": "channel", "subtype": "noteOff", "noteNumber": 59, "velocity": 64 }, { "deltaTime": 76, "channel": 3, "type": "channel", "subtype": "noteOff", "noteNumber": 71, "velocity": 64 }, { "deltaTime": 9, "channel": 3, "type": "channel", "subtype": "noteOff", "noteNumber": 67, "velocity": 64 }, { "deltaTime": 38, "channel": 3, "type": "channel", "noteNumber": 57, "velocity": 90, "subtype": "noteOn" }, { "deltaTime": 1, "channel": 3, "type": "channel", "noteNumber": 52, "velocity": 81, "subtype": "noteOn" }, { "deltaTime": 0, "channel": 3, "type": "channel", "noteNumber": 49, "velocity": 100, "subtype": "noteOn" }, { "deltaTime": 32, "channel": 3, "type": "channel", "subtype": "noteOff", "noteNumber": 64, "velocity": 64 }, { "deltaTime": 108, "channel": 3, "type": "channel", "noteNumber": 64, "velocity": 88, "subtype": "noteOn" }, { "deltaTime": 0, "channel": 3, "type": "channel", "noteNumber": 61, "velocity": 102, "subtype": "noteOn" }, { "deltaTime": 0, "channel": 3, "type": "channel", "noteNumber": 69, "velocity": 86, "subtype": "noteOn" }, { "deltaTime": 102, "channel": 3, "type": "channel", "subtype": "noteOff", "noteNumber": 49, "velocity": 64 }, { "deltaTime": 15, "channel": 3, "type": "channel", "subtype": "noteOff", "noteNumber": 57, "velocity": 64 }, { "deltaTime": 1, "channel": 3, "type": "channel", "subtype": "noteOff", "noteNumber": 52, "velocity": 64 }, { "deltaTime": 125, "channel": 3, "type": "channel", "noteNumber": 50, "velocity": 94, "subtype": "noteOn" }, { "deltaTime": 1, "channel": 3, "type": "channel", "noteNumber": 57, "velocity": 96, "subtype": "noteOn" }, { "deltaTime": 30, "channel": 3, "type": "channel", "subtype": "noteOff", "noteNumber": 61, "velocity": 64 }, { "deltaTime": 10, "channel": 3, "type": "channel", "subtype": "noteOff", "noteNumber": 64, "velocity": 64 }, { "deltaTime": 30, "channel": 3, "type": "channel", "subtype": "noteOff", "noteNumber": 69, "velocity": 64 }, { "deltaTime": 120, "channel": 3, "type": "channel", "noteNumber": 54, "velocity": 96, "subtype": "noteOn" }, { "deltaTime": 97, "channel": 3, "type": "channel", "noteNumber": 62, "velocity": 104, "subtype": "noteOn" }, { "deltaTime": 189, "channel": 3, "type": "channel", "noteNumber": 66, "velocity": 100, "subtype": "noteOn" }, { "deltaTime": 97, "channel": 3, "type": "channel", "noteNumber": 69, "velocity": 93, "subtype": "noteOn" }, { "deltaTime": 42, "channel": 3, "type": "channel", "subtype": "noteOff", "noteNumber": 50, "velocity": 64 }, { "deltaTime": 11, "channel": 3, "type": "channel", "subtype": "noteOff", "noteNumber": 54, "velocity": 64 }, { "deltaTime": 14, "channel": 3, "type": "channel", "subtype": "noteOff", "noteNumber": 57, "velocity": 64 }, { "deltaTime": 123, "channel": 3, "type": "channel", "subtype": "noteOff", "noteNumber": 62, "velocity": 64 }, { "deltaTime": 3, "channel": 3, "type": "channel", "noteNumber": 59, "velocity": 99, "subtype": "noteOn" }, { "deltaTime": 0, "channel": 3, "type": "channel", "noteNumber": 55, "velocity": 88, "subtype": "noteOn" }, { "deltaTime": 0, "channel": 3, "type": "channel", "noteNumber": 52, "velocity": 83, "subtype": "noteOn" }, { "deltaTime": 9, "channel": 3, "type": "channel", "subtype": "noteOff", "noteNumber": 69, "velocity": 64 }, { "deltaTime": 11, "channel": 3, "type": "channel", "subtype": "noteOff", "noteNumber": 66, "velocity": 64 }, { "deltaTime": 52, "channel": 3, "type": "channel", "subtype": "controller", "controllerType": 64, "value": 127 }, { "deltaTime": 120, "channel": 3, "type": "channel", "noteNumber": 67, "velocity": 100, "subtype": "noteOn" }, { "deltaTime": 1, "channel": 3, "type": "channel", "noteNumber": 64, "velocity": 75, "subtype": "noteOn" }, { "deltaTime": 179, "channel": 3, "type": "channel", "subtype": "noteOff", "noteNumber": 55, "velocity": 64 }, { "deltaTime": 58, "channel": 3, "type": "channel", "noteNumber": 71, "velocity": 97, "subtype": "noteOn" }, { "deltaTime": 16, "channel": 3, "type": "channel", "subtype": "noteOff", "noteNumber": 67, "velocity": 64 }, { "deltaTime": 79, "channel": 3, "type": "channel", "noteNumber": 55, "velocity": 69, "subtype": "noteOn" }, { "deltaTime": 6, "channel": 3, "type": "channel", "subtype": "noteOff", "noteNumber": 64, "velocity": 64 }, { "deltaTime": 46, "channel": 3, "type": "channel", "noteNumber": 67, "velocity": 93, "subtype": "noteOn" }, { "deltaTime": 35, "channel": 3, "type": "channel", "subtype": "noteOff", "noteNumber": 59, "velocity": 64 }, { "deltaTime": 10, "channel": 3, "type": "channel", "subtype": "noteOff", "noteNumber": 52, "velocity": 64 }, { "deltaTime": 13, "channel": 3, "type": "channel", "subtype": "noteOff", "noteNumber": 55, "velocity": 64 }, { "deltaTime": 39, "channel": 3, "type": "channel", "noteNumber": 64, "velocity": 101, "subtype": "noteOn" }, { "deltaTime": 36, "channel": 3, "type": "channel", "subtype": "controller", "controllerType": 64, "value": 0 }, { "deltaTime": 48, "channel": 3, "type": "channel", "subtype": "noteOff", "noteNumber": 64, "velocity": 64 }, { "deltaTime": 11, "channel": 3, "type": "channel", "subtype": "noteOff", "noteNumber": 67, "velocity": 64 }, { "deltaTime": 0, "channel": 3, "type": "channel", "noteNumber": 49, "velocity": 97, "subtype": "noteOn" }, { "deltaTime": 0, "channel": 3, "type": "channel", "noteNumber": 57, "velocity": 94, "subtype": "noteOn" }, { "deltaTime": 0, "channel": 3, "type": "channel", "noteNumber": 52, "velocity": 92, "subtype": "noteOn" }, { "deltaTime": 43, "channel": 3, "type": "channel", "subtype": "noteOff", "noteNumber": 71, "velocity": 64 }, { "deltaTime": 243, "channel": 3, "type": "channel", "noteNumber": 69, "velocity": 95, "subtype": "noteOn" }, { "deltaTime": 97, "channel": 3, "type": "channel", "noteNumber": 73, "velocity": 98, "subtype": "noteOn" }, { "deltaTime": 192, "channel": 3, "type": "channel", "noteNumber": 76, "velocity": 101, "subtype": "noteOn" }, { "deltaTime": 29, "channel": 3, "type": "channel", "subtype": "noteOff", "noteNumber": 49, "velocity": 64 }, { "deltaTime": 2, "channel": 3, "type": "channel", "subtype": "noteOff", "noteNumber": 52, "velocity": 64 }, { "deltaTime": 14, "channel": 3, "type": "channel", "subtype": "noteOff", "noteNumber": 57, "velocity": 64 }, { "deltaTime": 127, "channel": 3, "type": "channel", "subtype": "noteOff", "noteNumber": 73, "velocity": 64 }, { "deltaTime": 0, "channel": 3, "type": "channel", "subtype": "noteOff", "noteNumber": 76, "velocity": 64 }, { "deltaTime": 19, "channel": 3, "type": "channel", "subtype": "noteOff", "noteNumber": 69, "velocity": 64 }, { "deltaTime": 0, "channel": 3, "type": "channel", "noteNumber": 50, "velocity": 94, "subtype": "noteOn" }, { "deltaTime": 1, "channel": 3, "type": "channel", "noteNumber": 57, "velocity": 97, "subtype": "noteOn" }, { "deltaTime": 22, "channel": 3, "type": "channel", "subtype": "controller", "controllerType": 64, "value": 127 }, { "deltaTime": 169, "channel": 3, "type": "channel", "noteNumber": 54, "velocity": 92, "subtype": "noteOn" }, { "deltaTime": 98, "channel": 3, "type": "channel", "noteNumber": 62, "velocity": 94, "subtype": "noteOn" }, { "deltaTime": 191, "channel": 3, "type": "channel", "noteNumber": 66, "velocity": 103, "subtype": "noteOn" }, { "deltaTime": 96, "channel": 3, "type": "channel", "noteNumber": 69, "velocity": 86, "subtype": "noteOn" }, { "deltaTime": 57, "channel": 3, "type": "channel", "subtype": "noteOff", "noteNumber": 54, "velocity": 64 }, { "deltaTime": 1, "channel": 3, "type": "channel", "subtype": "controller", "controllerType": 64, "value": 0 }, { "deltaTime": 11, "channel": 3, "type": "channel", "subtype": "noteOff", "noteNumber": 50, "velocity": 64 }, { "deltaTime": 3, "channel": 3, "type": "channel", "subtype": "noteOff", "noteNumber": 57, "velocity": 64 }, { "deltaTime": 101, "channel": 3, "type": "channel", "subtype": "noteOff", "noteNumber": 62, "velocity": 64 }, { "deltaTime": 5, "channel": 3, "type": "channel", "subtype": "noteOff", "noteNumber": 69, "velocity": 64 }, { "deltaTime": 2, "channel": 3, "type": "channel", "subtype": "noteOff", "noteNumber": 66, "velocity": 64 }, { "deltaTime": 12, "channel": 3, "type": "channel", "noteNumber": 54, "velocity": 93, "subtype": "noteOn" }, { "deltaTime": 0, "channel": 3, "type": "channel", "noteNumber": 50, "velocity": 79, "subtype": "noteOn" }, { "deltaTime": 0, "channel": 3, "type": "channel", "noteNumber": 59, "velocity": 94, "subtype": "noteOn" }, { "deltaTime": 288, "channel": 3, "type": "channel", "noteNumber": 62, "velocity": 107, "subtype": "noteOn" }, { "deltaTime": 97, "channel": 3, "type": "channel", "noteNumber": 66, "velocity": 103, "subtype": "noteOn" }, { "deltaTime": 94, "channel": 3, "type": "channel", "noteNumber": 71, "velocity": 95, "subtype": "noteOn" }, { "deltaTime": 37, "channel": 3, "type": "channel", "subtype": "noteOff", "noteNumber": 62, "velocity": 64 }, { "deltaTime": 61, "channel": 3, "type": "channel", "noteNumber": 62, "velocity": 106, "subtype": "noteOn" }, { "deltaTime": 25, "channel": 3, "type": "channel", "subtype": "noteOff", "noteNumber": 50, "velocity": 64 }, { "deltaTime": 4, "channel": 3, "type": "channel", "subtype": "noteOff", "noteNumber": 59, "velocity": 64 }, { "deltaTime": 6, "channel": 3, "type": "channel", "subtype": "noteOff", "noteNumber": 54, "velocity": 64 }, { "deltaTime": 157, "channel": 3, "type": "channel", "subtype": "noteOff", "noteNumber": 66, "velocity": 64 }, { "deltaTime": 0, "channel": 3, "type": "channel", "noteNumber": 59, "velocity": 96, "subtype": "noteOn" }, { "deltaTime": 1, "channel": 3, "type": "channel", "noteNumber": 52, "velocity": 85, "subtype": "noteOn" }, { "deltaTime": 0, "channel": 3, "type": "channel", "noteNumber": 55, "velocity": 87, "subtype": "noteOn" }, { "deltaTime": 21, "channel": 3, "type": "channel", "subtype": "noteOff", "noteNumber": 62, "velocity": 64 }, { "deltaTime": 32, "channel": 3, "type": "channel", "subtype": "noteOff", "noteNumber": 71, "velocity": 64 }, { "deltaTime": 227, "channel": 3, "type": "channel", "subtype": "noteOff", "noteNumber": 55, "velocity": 64 }, { "deltaTime": 4, "channel": 3, "type": "channel", "noteNumber": 67, "velocity": 95, "subtype": "noteOn" }, { "deltaTime": 0, "channel": 3, "type": "channel", "noteNumber": 71, "velocity": 89, "subtype": "noteOn" }, { "deltaTime": 1, "channel": 3, "type": "channel", "noteNumber": 64, "velocity": 70, "subtype": "noteOn" }, { "deltaTime": 143, "channel": 3, "type": "channel", "noteNumber": 55, "velocity": 73, "subtype": "noteOn" }, { "deltaTime": 9, "channel": 3, "type": "channel", "subtype": "noteOff", "noteNumber": 64, "velocity": 64 }, { "deltaTime": 11, "channel": 3, "type": "channel", "subtype": "noteOff", "noteNumber": 71, "velocity": 64 }, { "deltaTime": 12, "channel": 3, "type": "channel", "subtype": "noteOff", "noteNumber": 67, "velocity": 64 }, { "deltaTime": 115, "channel": 3, "type": "channel", "noteNumber": 67, "velocity": 84, "subtype": "noteOn" }, { "deltaTime": 0, "channel": 3, "type": "channel", "noteNumber": 71, "velocity": 88, "subtype": "noteOn" }, { "deltaTime": 0, "channel": 3, "type": "channel", "noteNumber": 64, "velocity": 86, "subtype": "noteOn" }, { "deltaTime": 31, "channel": 3, "type": "channel", "subtype": "noteOff", "noteNumber": 52, "velocity": 64 }, { "deltaTime": 9, "channel": 3, "type": "channel", "subtype": "noteOff", "noteNumber": 59, "velocity": 64 }, { "deltaTime": 27, "channel": 3, "type": "channel", "subtype": "noteOff", "noteNumber": 55, "velocity": 64 }, { "deltaTime": 89, "channel": 3, "type": "channel", "subtype": "noteOff", "noteNumber": 64, "velocity": 64 }, { "deltaTime": 20, "channel": 3, "type": "channel", "subtype": "noteOff", "noteNumber": 67, "velocity": 64 }, { "deltaTime": 8, "channel": 3, "type": "channel", "subtype": "noteOff", "noteNumber": 71, "velocity": 64 }, { "deltaTime": 7, "channel": 3, "type": "channel", "noteNumber": 57, "velocity": 89, "subtype": "noteOn" }, { "deltaTime": 0, "channel": 3, "type": "channel", "noteNumber": 49, "velocity": 97, "subtype": "noteOn" }, { "deltaTime": 0, "channel": 3, "type": "channel", "noteNumber": 52, "velocity": 86, "subtype": "noteOn" }, { "deltaTime": 241, "channel": 3, "type": "channel", "noteNumber": 73, "velocity": 77, "subtype": "noteOn" }, { "deltaTime": 47, "channel": 3, "type": "channel", "noteNumber": 69, "velocity": 32, "subtype": "noteOn" }, { "deltaTime": 96, "channel": 3, "type": "channel", "noteNumber": 76, "velocity": 87, "subtype": "noteOn" }, { "deltaTime": 95, "channel": 3, "type": "channel", "noteNumber": 79, "velocity": 87, "subtype": "noteOn" }, { "deltaTime": 15, "channel": 3, "type": "channel", "subtype": "noteOff", "noteNumber": 69, "velocity": 64 }, { "deltaTime": 78, "channel": 3, "type": "channel", "subtype": "noteOff", "noteNumber": 49, "velocity": 64 }, { "deltaTime": 3, "channel": 3, "type": "channel", "noteNumber": 69, "velocity": 97, "subtype": "noteOn" }, { "deltaTime": 3, "channel": 3, "type": "channel", "subtype": "noteOff", "noteNumber": 52, "velocity": 64 }, { "deltaTime": 12, "channel": 3, "type": "channel", "subtype": "noteOff", "noteNumber": 57, "velocity": 64 }, { "deltaTime": 111, "channel": 3, "type": "channel", "subtype": "noteOff", "noteNumber": 79, "velocity": 64 }, { "deltaTime": 14, "channel": 3, "type": "channel", "subtype": "noteOff", "noteNumber": 73, "velocity": 64 }, { "deltaTime": 5, "channel": 3, "type": "channel", "subtype": "noteOff", "noteNumber": 76, "velocity": 64 }, { "deltaTime": 35, "channel": 3, "type": "channel", "subtype": "noteOff", "noteNumber": 69, "velocity": 64 }, { "deltaTime": 12, "channel": 3, "type": "channel", "noteNumber": 50, "velocity": 91, "subtype": "noteOn" }, { "deltaTime": 0, "channel": 3, "type": "channel", "noteNumber": 57, "velocity": 94, "subtype": "noteOn" }, { "deltaTime": 193, "channel": 3, "type": "channel", "noteNumber": 54, "velocity": 94, "subtype": "noteOn" }, { "deltaTime": 97, "channel": 3, "type": "channel", "noteNumber": 62, "velocity": 103, "subtype": "noteOn" }, { "deltaTime": 191, "channel": 3, "type": "channel", "noteNumber": 66, "velocity": 110, "subtype": "noteOn" }, { "deltaTime": 96, "channel": 3, "type": "channel", "noteNumber": 69, "velocity": 91, "subtype": "noteOn" }, { "deltaTime": 68, "channel": 3, "type": "channel", "subtype": "noteOff", "noteNumber": 54, "velocity": 64 }, { "deltaTime": 31, "channel": 3, "type": "channel", "subtype": "noteOff", "noteNumber": 57, "velocity": 64 }, { "deltaTime": 2, "channel": 3, "type": "channel", "subtype": "noteOff", "noteNumber": 50, "velocity": 64 }, { "deltaTime": 91, "channel": 3, "type": "channel", "noteNumber": 50, "velocity": 86, "subtype": "noteOn" }, { "deltaTime": 0, "channel": 3, "type": "channel", "noteNumber": 57, "velocity": 102, "subtype": "noteOn" }, { "deltaTime": 193, "channel": 3, "type": "channel", "noteNumber": 54, "velocity": 96, "subtype": "noteOn" }, { "deltaTime": 36, "channel": 3, "type": "channel", "subtype": "noteOff", "noteNumber": 62, "velocity": 64 }, { "deltaTime": 17, "channel": 3, "type": "channel", "subtype": "noteOff", "noteNumber": 69, "velocity": 64 }, { "deltaTime": 0, "channel": 3, "type": "channel", "subtype": "noteOff", "noteNumber": 66, "velocity": 64 }, { "deltaTime": 87, "channel": 3, "type": "channel", "noteNumber": 62, "velocity": 98, "subtype": "noteOn" }, { "deltaTime": 195, "channel": 3, "type": "channel", "noteNumber": 66, "velocity": 107, "subtype": "noteOn" }, { "deltaTime": 0, "channel": 3, "type": "channel", "noteNumber": 69, "velocity": 90, "subtype": "noteOn" }, { "deltaTime": 57, "channel": 3, "type": "channel", "subtype": "noteOff", "noteNumber": 54, "velocity": 64 }, { "deltaTime": 15, "channel": 3, "type": "channel", "subtype": "noteOff", "noteNumber": 50, "velocity": 64 }, { "deltaTime": 10, "channel": 3, "type": "channel", "subtype": "noteOff", "noteNumber": 57, "velocity": 64 }, { "deltaTime": 146, "channel": 3, "type": "channel", "subtype": "noteOff", "noteNumber": 66, "velocity": 64 }, { "deltaTime": 6, "channel": 3, "type": "channel", "subtype": "noteOff", "noteNumber": 69, "velocity": 64 }, { "deltaTime": 4, "channel": 3, "type": "channel", "noteNumber": 59, "velocity": 98, "subtype": "noteOn" }, { "deltaTime": 0, "channel": 3, "type": "channel", "noteNumber": 52, "velocity": 92, "subtype": "noteOn" }, { "deltaTime": 1, "channel": 3, "type": "channel", "noteNumber": 55, "velocity": 90, "subtype": "noteOn" }, { "deltaTime": 8, "channel": 3, "type": "channel", "subtype": "noteOff", "noteNumber": 62, "velocity": 64 }, { "deltaTime": 263, "channel": 3, "type": "channel", "subtype": "noteOff", "noteNumber": 52, "velocity": 64 }, { "deltaTime": 15, "channel": 3, "type": "channel", "subtype": "noteOff", "noteNumber": 55, "velocity": 64 }, { "deltaTime": 23, "channel": 3, "type": "channel", "subtype": "noteOff", "noteNumber": 59, "velocity": 64 }, { "deltaTime": 75, "channel": 3, "type": "channel", "noteNumber": 49, "velocity": 58, "subtype": "noteOn" }, { "deltaTime": 1, "channel": 3, "type": "channel", "noteNumber": 52, "velocity": 97, "subtype": "noteOn" }, { "deltaTime": 0, "channel": 3, "type": "channel", "noteNumber": 57, "velocity": 102, "subtype": "noteOn" }, { "deltaTime": 261, "channel": 3, "type": "channel", "subtype": "noteOff", "noteNumber": 49, "velocity": 64 }, { "deltaTime": 61, "channel": 3, "type": "channel", "subtype": "noteOff", "noteNumber": 52, "velocity": 64 }, { "deltaTime": 6, "channel": 3, "type": "channel", "subtype": "noteOff", "noteNumber": 57, "velocity": 64 }, { "deltaTime": 56, "channel": 3, "type": "channel", "noteNumber": 50, "velocity": 83, "subtype": "noteOn" }, { "deltaTime": 1, "channel": 3, "type": "channel", "noteNumber": 57, "velocity": 93, "subtype": "noteOn" }, { "deltaTime": 0, "channel": 3, "type": "channel", "noteNumber": 54, "velocity": 98, "subtype": "noteOn" }, { "deltaTime": 287, "channel": 3, "type": "channel", "noteNumber": 62, "velocity": 99, "subtype": "noteOn" }, { "deltaTime": 192, "channel": 3, "type": "channel", "noteNumber": 69, "velocity": 94, "subtype": "noteOn" }, { "deltaTime": 97, "channel": 3, "type": "channel", "noteNumber": 66, "velocity": 105, "subtype": "noteOn" }, { "deltaTime": 28, "channel": 3, "type": "channel", "subtype": "noteOff", "noteNumber": 54, "velocity": 64 }, { "deltaTime": 15, "channel": 3, "type": "channel", "subtype": "noteOff", "noteNumber": 50, "velocity": 64 }, { "deltaTime": 35, "channel": 3, "type": "channel", "subtype": "noteOff", "noteNumber": 57, "velocity": 64 }, { "deltaTime": 100, "channel": 3, "type": "channel", "subtype": "noteOff", "noteNumber": 66, "velocity": 64 }, { "deltaTime": 13, "channel": 3, "type": "channel", "noteNumber": 59, "velocity": 96, "subtype": "noteOn" }, { "deltaTime": 0, "channel": 3, "type": "channel", "noteNumber": 52, "velocity": 84, "subtype": "noteOn" }, { "deltaTime": 0, "channel": 3, "type": "channel", "noteNumber": 55, "velocity": 89, "subtype": "noteOn" }, { "deltaTime": 6, "channel": 3, "type": "channel", "subtype": "noteOff", "noteNumber": 62, "velocity": 64 }, { "deltaTime": 14, "channel": 3, "type": "channel", "subtype": "noteOff", "noteNumber": 69, "velocity": 64 }, { "deltaTime": 268, "channel": 3, "type": "channel", "noteNumber": 71, "velocity": 94, "subtype": "noteOn" }, { "deltaTime": 97, "channel": 3, "type": "channel", "noteNumber": 67, "velocity": 80, "subtype": "noteOn" }, { "deltaTime": 96, "channel": 3, "type": "channel", "noteNumber": 64, "velocity": 89, "subtype": "noteOn" }, { "deltaTime": 30, "channel": 3, "type": "channel", "subtype": "noteOff", "noteNumber": 67, "velocity": 64 }, { "deltaTime": 66, "channel": 3, "type": "channel", "noteNumber": 67, "velocity": 93, "subtype": "noteOn" }, { "deltaTime": 25, "channel": 3, "type": "channel", "subtype": "noteOff", "noteNumber": 59, "velocity": 64 }, { "deltaTime": 2, "channel": 3, "type": "channel", "subtype": "noteOff", "noteNumber": 55, "velocity": 64 }, { "deltaTime": 2, "channel": 3, "type": "channel", "subtype": "noteOff", "noteNumber": 52, "velocity": 64 }, { "deltaTime": 149, "channel": 3, "type": "channel", "subtype": "noteOff", "noteNumber": 64, "velocity": 64 }, { "deltaTime": 8, "channel": 3, "type": "channel", "subtype": "noteOff", "noteNumber": 67, "velocity": 64 }, { "deltaTime": 5, "channel": 3, "type": "channel", "noteNumber": 57, "velocity": 94, "subtype": "noteOn" }, { "deltaTime": 1, "channel": 3, "type": "channel", "noteNumber": 49, "velocity": 98, "subtype": "noteOn" }, { "deltaTime": 0, "channel": 3, "type": "channel", "noteNumber": 52, "velocity": 86, "subtype": "noteOn" }, { "deltaTime": 19, "channel": 3, "type": "channel", "subtype": "noteOff", "noteNumber": 71, "velocity": 64 }, { "deltaTime": 218, "channel": 3, "type": "channel", "noteNumber": 69, "velocity": 96, "subtype": "noteOn" }, { "deltaTime": 96, "channel": 3, "type": "channel", "noteNumber": 73, "velocity": 102, "subtype": "noteOn" }, { "deltaTime": 146, "channel": 3, "type": "channel", "noteNumber": 76, "velocity": 97, "subtype": "noteOn" }, { "deltaTime": 58, "channel": 3, "type": "channel", "subtype": "noteOff", "noteNumber": 69, "velocity": 64 }, { "deltaTime": 11, "channel": 3, "type": "channel", "subtype": "noteOff", "noteNumber": 52, "velocity": 64 }, { "deltaTime": 6, "channel": 3, "type": "channel", "subtype": "noteOff", "noteNumber": 49, "velocity": 64 }, { "deltaTime": 13, "channel": 3, "type": "channel", "subtype": "noteOff", "noteNumber": 57, "velocity": 64 }, { "deltaTime": 9, "channel": 3, "type": "channel", "noteNumber": 69, "velocity": 101, "subtype": "noteOn" }, { "deltaTime": 188, "channel": 3, "type": "channel", "subtype": "noteOff", "noteNumber": 69, "velocity": 64 }, { "deltaTime": 2, "channel": 3, "type": "channel", "noteNumber": 50, "velocity": 96, "subtype": "noteOn" }, { "deltaTime": 27, "channel": 3, "type": "channel", "subtype": "noteOff", "noteNumber": 76, "velocity": 64 }, { "deltaTime": 6, "channel": 3, "type": "channel", "subtype": "noteOff", "noteNumber": 73, "velocity": 64 }, { "deltaTime": 63, "channel": 3, "type": "channel", "noteNumber": 54, "velocity": 95, "subtype": "noteOn" }, { "deltaTime": 98, "channel": 3, "type": "channel", "noteNumber": 57, "velocity": 87, "subtype": "noteOn" }, { "deltaTime": 96, "channel": 3, "type": "channel", "noteNumber": 74, "velocity": 101, "subtype": "noteOn" }, { "deltaTime": 191, "channel": 3, "type": "channel", "noteNumber": 78, "velocity": 104, "subtype": "noteOn" }, { "deltaTime": 97, "channel": 3, "type": "channel", "noteNumber": 81, "velocity": 96, "subtype": "noteOn" }, { "deltaTime": 44, "channel": 3, "type": "channel", "subtype": "noteOff", "noteNumber": 54, "velocity": 64 }, { "deltaTime": 4, "channel": 3, "type": "channel", "subtype": "noteOff", "noteNumber": 50, "velocity": 64 }, { "deltaTime": 8, "channel": 3, "type": "channel", "subtype": "noteOff", "noteNumber": 57, "velocity": 64 }, { "deltaTime": 100, "channel": 3, "type": "channel", "subtype": "noteOff", "noteNumber": 81, "velocity": 64 }, { "deltaTime": 15, "channel": 3, "type": "channel", "subtype": "noteOff", "noteNumber": 78, "velocity": 64 }, { "deltaTime": 19, "channel": 3, "type": "channel", "subtype": "noteOff", "noteNumber": 74, "velocity": 64 }, { "deltaTime": 1, "channel": 3, "type": "channel", "noteNumber": 52, "velocity": 86, "subtype": "noteOn" }, { "deltaTime": 0, "channel": 3, "type": "channel", "noteNumber": 55, "velocity": 87, "subtype": "noteOn" }, { "deltaTime": 0, "channel": 3, "type": "channel", "noteNumber": 59, "velocity": 98, "subtype": "noteOn" }, { "deltaTime": 97, "channel": 3, "type": "channel", "noteNumber": 64, "velocity": 101, "subtype": "noteOn" }, { "deltaTime": 95, "channel": 3, "type": "channel", "noteNumber": 67, "velocity": 88, "subtype": "noteOn" }, { "deltaTime": 60, "channel": 3, "type": "channel", "subtype": "noteOff", "noteNumber": 52, "velocity": 64 }, { "deltaTime": 0, "channel": 3, "type": "channel", "subtype": "noteOff", "noteNumber": 55, "velocity": 64 }, { "deltaTime": 16, "channel": 3, "type": "channel", "subtype": "noteOff", "noteNumber": 59, "velocity": 64 }, { "deltaTime": 20, "channel": 3, "type": "channel", "noteNumber": 71, "velocity": 98, "subtype": "noteOn" }, { "deltaTime": 57, "channel": 3, "type": "channel", "subtype": "noteOff", "noteNumber": 64, "velocity": 64 }, { "deltaTime": 23, "channel": 3, "type": "channel", "subtype": "noteOff", "noteNumber": 67, "velocity": 64 }, { "deltaTime": 12, "channel": 3, "type": "channel", "subtype": "noteOff", "noteNumber": 71, "velocity": 64 }, { "deltaTime": 4, "channel": 3, "type": "channel", "noteNumber": 49, "velocity": 83, "subtype": "noteOn" }, { "deltaTime": 1, "channel": 3, "type": "channel", "noteNumber": 52, "velocity": 84, "subtype": "noteOn" }, { "deltaTime": 0, "channel": 3, "type": "channel", "noteNumber": 57, "velocity": 88, "subtype": "noteOn" }, { "deltaTime": 95, "channel": 3, "type": "channel", "noteNumber": 69, "velocity": 104, "subtype": "noteOn" }, { "deltaTime": 95, "channel": 3, "type": "channel", "noteNumber": 73, "velocity": 96, "subtype": "noteOn" }, { "deltaTime": 87, "channel": 3, "type": "channel", "subtype": "noteOff", "noteNumber": 49, "velocity": 64 }, { "deltaTime": 9, "channel": 3, "type": "channel", "noteNumber": 76, "velocity": 75, "subtype": "noteOn" }, { "deltaTime": 2, "channel": 3, "type": "channel", "subtype": "noteOff", "noteNumber": 57, "velocity": 64 }, { "deltaTime": 8, "channel": 3, "type": "channel", "subtype": "noteOff", "noteNumber": 52, "velocity": 64 }, { "deltaTime": 87, "channel": 3, "type": "channel", "noteNumber": 50, "velocity": 85, "subtype": "noteOn" }, { "deltaTime": 0, "channel": 3, "type": "channel", "noteNumber": 57, "velocity": 90, "subtype": "noteOn" }, { "deltaTime": 22, "channel": 3, "type": "channel", "subtype": "noteOff", "noteNumber": 69, "velocity": 64 }, { "deltaTime": 15, "channel": 3, "type": "channel", "subtype": "noteOff", "noteNumber": 73, "velocity": 64 }, { "deltaTime": 10, "channel": 3, "type": "channel", "subtype": "noteOff", "noteNumber": 76, "velocity": 64 }, { "deltaTime": 144, "channel": 3, "type": "channel", "noteNumber": 54, "velocity": 103, "subtype": "noteOn" }, { "deltaTime": 96, "channel": 3, "type": "channel", "noteNumber": 74, "velocity": 94, "subtype": "noteOn" }, { "deltaTime": 98, "channel": 3, "type": "channel", "noteNumber": 78, "velocity": 79, "subtype": "noteOn" }, { "deltaTime": 96, "channel": 3, "type": "channel", "noteNumber": 81, "velocity": 90, "subtype": "noteOn" }, { "deltaTime": 48, "channel": 3, "type": "channel", "subtype": "noteOff", "noteNumber": 78, "velocity": 64 }, { "deltaTime": 80, "channel": 3, "type": "channel", "subtype": "noteOff", "noteNumber": 74, "velocity": 64 }, { "deltaTime": 12, "channel": 3, "type": "channel", "noteNumber": 78, "velocity": 111, "subtype": "noteOn" }, { "deltaTime": 46, "channel": 3, "type": "channel", "subtype": "noteOff", "noteNumber": 54, "velocity": 64 }, { "deltaTime": 5, "channel": 3, "type": "channel", "subtype": "noteOff", "noteNumber": 57, "velocity": 64 }, { "deltaTime": 1, "channel": 3, "type": "channel", "noteNumber": 74, "velocity": 81, "subtype": "noteOn" }, { "deltaTime": 3, "channel": 3, "type": "channel", "subtype": "noteOff", "noteNumber": 50, "velocity": 64 }, { "deltaTime": 94, "channel": 3, "type": "channel", "noteNumber": 50, "velocity": 57, "subtype": "noteOn" }, { "deltaTime": 139, "channel": 3, "type": "channel", "noteNumber": 54, "velocity": 97, "subtype": "noteOn" }, { "deltaTime": 96, "channel": 3, "type": "channel", "noteNumber": 57, "velocity": 86, "subtype": "noteOn" }, { "deltaTime": 10, "channel": 3, "type": "channel", "subtype": "noteOff", "noteNumber": 74, "velocity": 64 }, { "deltaTime": 42, "channel": 3, "type": "channel", "noteNumber": 74, "velocity": 89, "subtype": "noteOn" }, { "deltaTime": 28, "channel": 3, "type": "channel", "subtype": "noteOff", "noteNumber": 81, "velocity": 64 }, { "deltaTime": 20, "channel": 3, "type": "channel", "subtype": "noteOff", "noteNumber": 78, "velocity": 64 }, { "deltaTime": 143, "channel": 3, "type": "channel", "noteNumber": 78, "velocity": 94, "subtype": "noteOn" }, { "deltaTime": 96, "channel": 3, "type": "channel", "noteNumber": 81, "velocity": 83, "subtype": "noteOn" }, { "deltaTime": 50, "channel": 3, "type": "channel", "subtype": "noteOff", "noteNumber": 50, "velocity": 64 }, { "deltaTime": 21, "channel": 3, "type": "channel", "subtype": "noteOff", "noteNumber": 54, "velocity": 64 }, { "deltaTime": 8, "channel": 3, "type": "channel", "subtype": "noteOff", "noteNumber": 57, "velocity": 64 }, { "deltaTime": 111, "channel": 3, "type": "channel", "noteNumber": 50, "velocity": 87, "subtype": "noteOn" }, { "deltaTime": 0, "channel": 3, "type": "channel", "noteNumber": 57, "velocity": 104, "subtype": "noteOn" }, { "deltaTime": 18, "channel": 3, "type": "channel", "subtype": "noteOff", "noteNumber": 81, "velocity": 64 }, { "deltaTime": 4, "channel": 3, "type": "channel", "subtype": "noteOff", "noteNumber": 78, "velocity": 64 }, { "deltaTime": 129, "channel": 3, "type": "channel", "subtype": "noteOff", "noteNumber": 74, "velocity": 64 }, { "deltaTime": 41, "channel": 3, "type": "channel", "noteNumber": 54, "velocity": 98, "subtype": "noteOn" }, { "deltaTime": 98, "channel": 3, "type": "channel", "noteNumber": 62, "velocity": 96, "subtype": "noteOn" }, { "deltaTime": 96, "channel": 3, "type": "channel", "noteNumber": 66, "velocity": 96, "subtype": "noteOn" }, { "deltaTime": 95, "channel": 3, "type": "channel", "noteNumber": 69, "velocity": 86, "subtype": "noteOn" }, { "deltaTime": 35, "channel": 3, "type": "channel", "subtype": "noteOff", "noteNumber": 62, "velocity": 64 }, { "deltaTime": 0, "channel": 3, "type": "channel", "subtype": "noteOff", "noteNumber": 66, "velocity": 64 }, { "deltaTime": 110, "channel": 3, "type": "channel", "noteNumber": 66, "velocity": 49, "subtype": "noteOn" }, { "deltaTime": 28, "channel": 3, "type": "channel", "subtype": "noteOff", "noteNumber": 54, "velocity": 64 }, { "deltaTime": 28, "channel": 3, "type": "channel", "subtype": "noteOff", "noteNumber": 50, "velocity": 64 }, { "deltaTime": 12, "channel": 3, "type": "channel", "subtype": "noteOff", "noteNumber": 57, "velocity": 64 }, { "deltaTime": 25, "channel": 3, "type": "channel", "noteNumber": 62, "velocity": 110, "subtype": "noteOn" }, { "deltaTime": 52, "channel": 3, "type": "channel", "noteNumber": 49, "velocity": 103, "subtype": "noteOn" }, { "deltaTime": 1, "channel": 3, "type": "channel", "noteNumber": 57, "velocity": 98, "subtype": "noteOn" }, { "deltaTime": 34, "channel": 3, "type": "channel", "subtype": "noteOff", "noteNumber": 66, "velocity": 64 }, { "deltaTime": 11, "channel": 3, "type": "channel", "noteNumber": 52, "velocity": 49, "subtype": "noteOn" }, { "deltaTime": 8, "channel": 3, "type": "channel", "subtype": "noteOff", "noteNumber": 62, "velocity": 64 }, { "deltaTime": 4, "channel": 3, "type": "channel", "subtype": "noteOff", "noteNumber": 69, "velocity": 64 }, { "deltaTime": 134, "channel": 3, "type": "channel", "noteNumber": 69, "velocity": 106, "subtype": "noteOn" }, { "deltaTime": 140, "channel": 3, "type": "channel", "noteNumber": 73, "velocity": 100, "subtype": "noteOn" }, { "deltaTime": 146, "channel": 3, "type": "channel", "noteNumber": 76, "velocity": 94, "subtype": "noteOn" }, { "deltaTime": 44, "channel": 3, "type": "channel", "subtype": "noteOff", "noteNumber": 69, "velocity": 64 }, { "deltaTime": 54, "channel": 3, "type": "channel", "noteNumber": 69, "velocity": 99, "subtype": "noteOn" }, { "deltaTime": 12, "channel": 3, "type": "channel", "subtype": "noteOff", "noteNumber": 49, "velocity": 64 }, { "deltaTime": 15, "channel": 3, "type": "channel", "subtype": "noteOff", "noteNumber": 57, "velocity": 64 }, { "deltaTime": 13, "channel": 3, "type": "channel", "subtype": "noteOff", "noteNumber": 52, "velocity": 64 }, { "deltaTime": 118, "channel": 3, "type": "channel", "subtype": "noteOff", "noteNumber": 76, "velocity": 64 }, { "deltaTime": 18, "channel": 3, "type": "channel", "subtype": "noteOff", "noteNumber": 73, "velocity": 64 }, { "deltaTime": 2, "channel": 3, "type": "channel", "subtype": "noteOff", "noteNumber": 69, "velocity": 64 }, { "deltaTime": 12, "channel": 3, "type": "channel", "noteNumber": 54, "velocity": 95, "subtype": "noteOn" }, { "deltaTime": 1, "channel": 3, "type": "channel", "noteNumber": 50, "velocity": 83, "subtype": "noteOn" }, { "deltaTime": 0, "channel": 3, "type": "channel", "noteNumber": 57, "velocity": 91, "subtype": "noteOn" }, { "deltaTime": 193, "channel": 3, "type": "channel", "noteNumber": 62, "velocity": 98, "subtype": "noteOn" }, { "deltaTime": 96, "channel": 3, "type": "channel", "noteNumber": 66, "velocity": 99, "subtype": "noteOn" }, { "deltaTime": 191, "channel": 3, "type": "channel", "noteNumber": 69, "velocity": 100, "subtype": "noteOn" }, { "deltaTime": 33, "channel": 3, "type": "channel", "subtype": "noteOff", "noteNumber": 62, "velocity": 64 }, { "deltaTime": 64, "channel": 3, "type": "channel", "noteNumber": 62, "velocity": 107, "subtype": "noteOn" }, { "deltaTime": 36, "channel": 3, "type": "channel", "subtype": "noteOff", "noteNumber": 54, "velocity": 64 }, { "deltaTime": 1, "channel": 3, "type": "channel", "subtype": "noteOff", "noteNumber": 57, "velocity": 64 }, { "deltaTime": 2, "channel": 3, "type": "channel", "subtype": "noteOff", "noteNumber": 50, "velocity": 64 }, { "deltaTime": 150, "channel": 3, "type": "channel", "noteNumber": 50, "velocity": 93, "subtype": "noteOn" }, { "deltaTime": 99, "channel": 3, "type": "channel", "noteNumber": 54, "velocity": 91, "subtype": "noteOn" }, { "deltaTime": 96, "channel": 3, "type": "channel", "noteNumber": 57, "velocity": 87, "subtype": "noteOn" }, { "deltaTime": 24, "channel": 3, "type": "channel", "subtype": "noteOff", "noteNumber": 62, "velocity": 64 }, { "deltaTime": 6, "channel": 3, "type": "channel", "subtype": "noteOff", "noteNumber": 66, "velocity": 64 }, { "deltaTime": 17, "channel": 3, "type": "channel", "subtype": "noteOff", "noteNumber": 69, "velocity": 64 }, { "deltaTime": 49, "channel": 3, "type": "channel", "noteNumber": 62, "velocity": 94, "subtype": "noteOn" }, { "deltaTime": 191, "channel": 3, "type": "channel", "noteNumber": 66, "velocity": 107, "subtype": "noteOn" }, { "deltaTime": 96, "channel": 3, "type": "channel", "noteNumber": 69, "velocity": 90, "subtype": "noteOn" }, { "deltaTime": 35, "channel": 3, "type": "channel", "subtype": "noteOff", "noteNumber": 62, "velocity": 64 }, { "deltaTime": 20, "channel": 3, "type": "channel", "subtype": "noteOff", "noteNumber": 57, "velocity": 64 }, { "deltaTime": 4, "channel": 3, "type": "channel", "subtype": "noteOff", "noteNumber": 54, "velocity": 64 }, { "deltaTime": 19, "channel": 3, "type": "channel", "subtype": "noteOff", "noteNumber": 50, "velocity": 64 }, { "deltaTime": 84, "channel": 3, "type": "channel", "subtype": "noteOff", "noteNumber": 69, "velocity": 64 }, { "deltaTime": 31, "channel": 3, "type": "channel", "noteNumber": 54, "velocity": 95, "subtype": "noteOn" }, { "deltaTime": 0, "channel": 3, "type": "channel", "noteNumber": 59, "velocity": 101, "subtype": "noteOn" }, { "deltaTime": 0, "channel": 3, "type": "channel", "noteNumber": 62, "velocity": 100, "subtype": "noteOn" }, { "deltaTime": 1, "channel": 3, "type": "channel", "noteNumber": 50, "velocity": 90, "subtype": "noteOn" }, { "deltaTime": 0, "channel": 3, "type": "channel", "noteNumber": 71, "velocity": 98, "subtype": "noteOn" }, { "deltaTime": 1336, "channel": 3, "type": "channel", "subtype": "noteOff", "noteNumber": 50, "velocity": 64 }, { "deltaTime": 1, "channel": 3, "type": "channel", "subtype": "noteOff", "noteNumber": 59, "velocity": 64 }, { "deltaTime": 6, "channel": 3, "type": "channel", "subtype": "noteOff", "noteNumber": 54, "velocity": 64 }, { "deltaTime": 122, "channel": 3, "type": "channel", "subtype": "noteOff", "noteNumber": 62, "velocity": 64 }, { "deltaTime": 5, "channel": 3, "type": "channel", "subtype": "noteOff", "noteNumber": 71, "velocity": 64 }, { "deltaTime": 16, "channel": 3, "type": "channel", "noteNumber": 54, "velocity": 93, "subtype": "noteOn" }, { "deltaTime": 1, "channel": 3, "type": "channel", "noteNumber": 57, "velocity": 94, "subtype": "noteOn" }, { "deltaTime": 0, "channel": 3, "type": "channel", "noteNumber": 50, "velocity": 86, "subtype": "noteOn" }, { "deltaTime": 1, "channel": 3, "type": "channel", "subtype": "noteOff", "noteNumber": 66, "velocity": 64 }, { "deltaTime": 237, "channel": 3, "type": "channel", "noteNumber": 62, "velocity": 97, "subtype": "noteOn" }, { "deltaTime": 98, "channel": 3, "type": "channel", "noteNumber": 66, "velocity": 95, "subtype": "noteOn" }, { "deltaTime": 189, "channel": 3, "type": "channel", "noteNumber": 69, "velocity": 74, "subtype": "noteOn" }, { "deltaTime": 47, "channel": 3, "type": "channel", "subtype": "noteOff", "noteNumber": 66, "velocity": 64 }, { "deltaTime": 8, "channel": 3, "type": "channel", "subtype": "noteOff", "noteNumber": 62, "velocity": 64 }, { "deltaTime": 43, "channel": 3, "type": "channel", "noteNumber": 66, "velocity": 103, "subtype": "noteOn" }, { "deltaTime": 33, "channel": 3, "type": "channel", "subtype": "noteOff", "noteNumber": 57, "velocity": 64 }, { "deltaTime": 4, "channel": 3, "type": "channel", "subtype": "noteOff", "noteNumber": 50, "velocity": 64 }, { "deltaTime": 7, "channel": 3, "type": "channel", "subtype": "noteOff", "noteNumber": 54, "velocity": 64 }, { "deltaTime": 51, "channel": 3, "type": "channel", "noteNumber": 62, "velocity": 89, "subtype": "noteOn" }, { "deltaTime": 97, "channel": 3, "type": "channel", "noteNumber": 50, "velocity": 88, "subtype": "noteOn" }, { "deltaTime": 96, "channel": 3, "type": "channel", "noteNumber": 54, "velocity": 97, "subtype": "noteOn" }, { "deltaTime": 35, "channel": 3, "type": "channel", "subtype": "noteOff", "noteNumber": 62, "velocity": 64 }, { "deltaTime": 9, "channel": 3, "type": "channel", "subtype": "noteOff", "noteNumber": 66, "velocity": 64 }, { "deltaTime": 34, "channel": 3, "type": "channel", "subtype": "noteOff", "noteNumber": 69, "velocity": 64 }, { "deltaTime": 18, "channel": 3, "type": "channel", "noteNumber": 57, "velocity": 90, "subtype": "noteOn" }, { "deltaTime": 96, "channel": 3, "type": "channel", "noteNumber": 74, "velocity": 96, "subtype": "noteOn" }, { "deltaTime": 191, "channel": 3, "type": "channel", "noteNumber": 78, "velocity": 98, "subtype": "noteOn" }, { "deltaTime": 97, "channel": 3, "type": "channel", "noteNumber": 81, "velocity": 81, "subtype": "noteOn" }, { "deltaTime": 42, "channel": 3, "type": "channel", "subtype": "noteOff", "noteNumber": 54, "velocity": 64 }, { "deltaTime": 2, "channel": 3, "type": "channel", "subtype": "noteOff", "noteNumber": 74, "velocity": 64 }, { "deltaTime": 6, "channel": 3, "type": "channel", "subtype": "noteOff", "noteNumber": 57, "velocity": 64 }, { "deltaTime": 6, "channel": 3, "type": "channel", "subtype": "noteOff", "noteNumber": 50, "velocity": 64 }, { "deltaTime": 84, "channel": 3, "type": "channel", "subtype": "noteOff", "noteNumber": 81, "velocity": 64 }, { "deltaTime": 52, "channel": 3, "type": "channel", "noteNumber": 54, "velocity": 92, "subtype": "noteOn" }, { "deltaTime": 0, "channel": 3, "type": "channel", "noteNumber": 74, "velocity": 94, "subtype": "noteOn" }, { "deltaTime": 1, "channel": 3, "type": "channel", "noteNumber": 50, "velocity": 92, "subtype": "noteOn" }, { "deltaTime": 0, "channel": 3, "type": "channel", "noteNumber": 59, "velocity": 102, "subtype": "noteOn" }, { "deltaTime": 0, "channel": 3, "type": "channel", "noteNumber": 83, "velocity": 99, "subtype": "noteOn" }, { "deltaTime": 1113, "channel": 3, "type": "channel", "subtype": "noteOff", "noteNumber": 54, "velocity": 64 }, { "deltaTime": 7, "channel": 3, "type": "channel", "subtype": "noteOff", "noteNumber": 50, "velocity": 64 }, { "deltaTime": 6, "channel": 3, "type": "channel", "subtype": "noteOff", "noteNumber": 59, "velocity": 64 }, { "deltaTime": 152, "channel": 3, "type": "channel", "subtype": "noteOff", "noteNumber": 83, "velocity": 64 }, { "deltaTime": 24, "channel": 3, "type": "channel", "subtype": "noteOff", "noteNumber": 78, "velocity": 64 }, { "deltaTime": 7, "channel": 3, "type": "channel", "subtype": "noteOff", "noteNumber": 74, "velocity": 64 }, { "deltaTime": 225, "channel": 3, "type": "channel", "noteNumber": 54, "velocity": 94, "subtype": "noteOn" }, { "deltaTime": 0, "channel": 3, "type": "channel", "noteNumber": 50, "velocity": 87, "subtype": "noteOn" }, { "deltaTime": 1, "channel": 3, "type": "channel", "noteNumber": 57, "velocity": 93, "subtype": "noteOn" }, { "deltaTime": 191, "channel": 3, "type": "channel", "noteNumber": 62, "velocity": 98, "subtype": "noteOn" }, { "deltaTime": 98, "channel": 3, "type": "channel", "noteNumber": 66, "velocity": 94, "subtype": "noteOn" }, { "deltaTime": 191, "channel": 3, "type": "channel", "noteNumber": 69, "velocity": 97, "subtype": "noteOn" }, { "deltaTime": 33, "channel": 3, "type": "channel", "subtype": "noteOff", "noteNumber": 66, "velocity": 64 }, { "deltaTime": 18, "channel": 3, "type": "channel", "subtype": "noteOff", "noteNumber": 62, "velocity": 64 }, { "deltaTime": 47, "channel": 3, "type": "channel", "noteNumber": 66, "velocity": 107, "subtype": "noteOn" }, { "deltaTime": 45, "channel": 3, "type": "channel", "subtype": "noteOff", "noteNumber": 54, "velocity": 64 }, { "deltaTime": 5, "channel": 3, "type": "channel", "subtype": "noteOff", "noteNumber": 57, "velocity": 64 }, { "deltaTime": 1, "channel": 3, "type": "channel", "subtype": "noteOff", "noteNumber": 50, "velocity": 64 }, { "deltaTime": 88, "channel": 3, "type": "channel", "noteNumber": 62, "velocity": 86, "subtype": "noteOn" }, { "deltaTime": 52, "channel": 3, "type": "channel", "noteNumber": 50, "velocity": 99, "subtype": "noteOn" }, { "deltaTime": 96, "channel": 3, "type": "channel", "noteNumber": 54, "velocity": 88, "subtype": "noteOn" }, { "deltaTime": 96, "channel": 3, "type": "channel", "noteNumber": 57, "velocity": 81, "subtype": "noteOn" }, { "deltaTime": 41, "channel": 3, "type": "channel", "subtype": "noteOff", "noteNumber": 66, "velocity": 64 }, { "deltaTime": 23, "channel": 3, "type": "channel", "subtype": "noteOff", "noteNumber": 62, "velocity": 64 }, { "deltaTime": 3, "channel": 3, "type": "channel", "subtype": "noteOff", "noteNumber": 69, "velocity": 64 }, { "deltaTime": 28, "channel": 3, "type": "channel", "noteNumber": 62, "velocity": 98, "subtype": "noteOn" }, { "deltaTime": 192, "channel": 3, "type": "channel", "noteNumber": 69, "velocity": 97, "subtype": "noteOn" }, { "deltaTime": 96, "channel": 3, "type": "channel", "noteNumber": 66, "velocity": 115, "subtype": "noteOn" }, { "deltaTime": 29, "channel": 3, "type": "channel", "subtype": "noteOff", "noteNumber": 54, "velocity": 64 }, { "deltaTime": 2, "channel": 3, "type": "channel", "subtype": "noteOff", "noteNumber": 50, "velocity": 64 }, { "deltaTime": 6, "channel": 3, "type": "channel", "subtype": "noteOff", "noteNumber": 57, "velocity": 64 }, { "deltaTime": 71, "channel": 3, "type": "channel", "subtype": "noteOff", "noteNumber": 62, "velocity": 64 }, { "deltaTime": 18, "channel": 3, "type": "channel", "subtype": "noteOff", "noteNumber": 66, "velocity": 64 }, { "deltaTime": 16, "channel": 3, "type": "channel", "subtype": "noteOff", "noteNumber": 69, "velocity": 64 }, { "deltaTime": 146, "channel": 3, "type": "channel", "noteNumber": 69, "velocity": 101, "subtype": "noteOn" }, { "deltaTime": 0, "channel": 3, "type": "channel", "noteNumber": 57, "velocity": 94, "subtype": "noteOn" }, { "deltaTime": 0, "channel": 3, "type": "channel", "noteNumber": 73, "velocity": 104, "subtype": "noteOn" }, { "deltaTime": 0, "channel": 3, "type": "channel", "noteNumber": 76, "velocity": 94, "subtype": "noteOn" }, { "deltaTime": 0, "channel": 3, "type": "channel", "noteNumber": 52, "velocity": 94, "subtype": "noteOn" }, { "deltaTime": 0, "channel": 3, "type": "channel", "noteNumber": 49, "velocity": 98, "subtype": "noteOn" }, { "deltaTime": 86, "channel": 3, "type": "channel", "subtype": "noteOff", "noteNumber": 49, "velocity": 64 }, { "deltaTime": 14, "channel": 3, "type": "channel", "subtype": "noteOff", "noteNumber": 57, "velocity": 64 }, { "deltaTime": 2, "channel": 3, "type": "channel", "subtype": "noteOff", "noteNumber": 73, "velocity": 64 }, { "deltaTime": 2, "channel": 3, "type": "channel", "subtype": "noteOff", "noteNumber": 52, "velocity": 64 }, { "deltaTime": 8, "channel": 3, "type": "channel", "subtype": "noteOff", "noteNumber": 69, "velocity": 64 }, { "deltaTime": 2, "channel": 3, "type": "channel", "subtype": "noteOff", "noteNumber": 76, "velocity": 64 }, { "deltaTime": 77, "channel": 3, "type": "channel", "noteNumber": 69, "velocity": 83, "subtype": "noteOn" }, { "deltaTime": 0, "channel": 3, "type": "channel", "noteNumber": 73, "velocity": 96, "subtype": "noteOn" }, { "deltaTime": 0, "channel": 3, "type": "channel", "noteNumber": 76, "velocity": 88, "subtype": "noteOn" }, { "deltaTime": 0, "channel": 3, "type": "channel", "noteNumber": 57, "velocity": 85, "subtype": "noteOn" }, { "deltaTime": 0, "channel": 3, "type": "channel", "noteNumber": 52, "velocity": 78, "subtype": "noteOn" }, { "deltaTime": 1, "channel": 3, "type": "channel", "noteNumber": 49, "velocity": 80, "subtype": "noteOn" }, { "deltaTime": 52, "channel": 3, "type": "channel", "subtype": "noteOff", "noteNumber": 49, "velocity": 64 }, { "deltaTime": 11, "channel": 3, "type": "channel", "subtype": "noteOff", "noteNumber": 57, "velocity": 64 }, { "deltaTime": 8, "channel": 3, "type": "channel", "subtype": "noteOff", "noteNumber": 69, "velocity": 64 }, { "deltaTime": 0, "channel": 3, "type": "channel", "subtype": "noteOff", "noteNumber": 52, "velocity": 64 }, { "deltaTime": 2, "channel": 3, "type": "channel", "subtype": "noteOff", "noteNumber": 73, "velocity": 64 }, { "deltaTime": 8, "channel": 3, "type": "channel", "subtype": "noteOff", "noteNumber": 76, "velocity": 64 }, { "deltaTime": 16, "channel": 3, "type": "channel", "noteNumber": 57, "velocity": 92, "subtype": "noteOn" }, { "deltaTime": 0, "channel": 3, "type": "channel", "noteNumber": 49, "velocity": 94, "subtype": "noteOn" }, { "deltaTime": 0, "channel": 3, "type": "channel", "noteNumber": 73, "velocity": 100, "subtype": "noteOn" }, { "deltaTime": 0, "channel": 3, "type": "channel", "noteNumber": 76, "velocity": 96, "subtype": "noteOn" }, { "deltaTime": 0, "channel": 3, "type": "channel", "noteNumber": 69, "velocity": 91, "subtype": "noteOn" }, { "deltaTime": 1, "channel": 3, "type": "channel", "noteNumber": 52, "velocity": 80, "subtype": "noteOn" }, { "deltaTime": 55, "channel": 3, "type": "channel", "subtype": "noteOff", "noteNumber": 49, "velocity": 64 }, { "deltaTime": 0, "channel": 3, "type": "channel", "subtype": "noteOff", "noteNumber": 69, "velocity": 64 }, { "deltaTime": 3, "channel": 3, "type": "channel", "subtype": "noteOff", "noteNumber": 52, "velocity": 64 }, { "deltaTime": 3, "channel": 3, "type": "channel", "subtype": "noteOff", "noteNumber": 73, "velocity": 64 }, { "deltaTime": 2, "channel": 3, "type": "channel", "subtype": "noteOff", "noteNumber": 57, "velocity": 64 }, { "deltaTime": 12, "channel": 3, "type": "channel", "subtype": "noteOff", "noteNumber": 76, "velocity": 64 }, { "deltaTime": 403, "channel": 3, "type": "channel", "noteNumber": 69, "velocity": 100, "subtype": "noteOn" }, { "deltaTime": 0, "channel": 3, "type": "channel", "noteNumber": 57, "velocity": 92, "subtype": "noteOn" }, { "deltaTime": 0, "channel": 3, "type": "channel", "noteNumber": 73, "velocity": 106, "subtype": "noteOn" }, { "deltaTime": 1, "channel": 3, "type": "channel", "noteNumber": 76, "velocity": 101, "subtype": "noteOn" }, { "deltaTime": 0, "channel": 3, "type": "channel", "noteNumber": 49, "velocity": 98, "subtype": "noteOn" }, { "deltaTime": 0, "channel": 3, "type": "channel", "noteNumber": 52, "velocity": 94, "subtype": "noteOn" }, { "deltaTime": 86, "channel": 3, "type": "channel", "subtype": "noteOff", "noteNumber": 49, "velocity": 64 }, { "deltaTime": 11, "channel": 3, "type": "channel", "subtype": "noteOff", "noteNumber": 73, "velocity": 64 }, { "deltaTime": 2, "channel": 3, "type": "channel", "subtype": "noteOff", "noteNumber": 69, "velocity": 64 }, { "deltaTime": 1, "channel": 3, "type": "channel", "subtype": "noteOff", "noteNumber": 52, "velocity": 64 }, { "deltaTime": 3, "channel": 3, "type": "channel", "subtype": "noteOff", "noteNumber": 57, "velocity": 64 }, { "deltaTime": 11, "channel": 3, "type": "channel", "subtype": "noteOff", "noteNumber": 76, "velocity": 64 }, { "deltaTime": 76, "channel": 3, "type": "channel", "noteNumber": 57, "velocity": 93, "subtype": "noteOn" }, { "deltaTime": 0, "channel": 3, "type": "channel", "noteNumber": 69, "velocity": 99, "subtype": "noteOn" }, { "deltaTime": 0, "channel": 3, "type": "channel", "noteNumber": 76, "velocity": 93, "subtype": "noteOn" }, { "deltaTime": 0, "channel": 3, "type": "channel", "noteNumber": 73, "velocity": 102, "subtype": "noteOn" }, { "deltaTime": 1, "channel": 3, "type": "channel", "noteNumber": 49, "velocity": 80, "subtype": "noteOn" }, { "deltaTime": 0, "channel": 3, "type": "channel", "noteNumber": 52, "velocity": 77, "subtype": "noteOn" }, { "deltaTime": 48, "channel": 3, "type": "channel", "subtype": "noteOff", "noteNumber": 49, "velocity": 64 }, { "deltaTime": 11, "channel": 3, "type": "channel", "subtype": "noteOff", "noteNumber": 69, "velocity": 64 }, { "deltaTime": 6, "channel": 3, "type": "channel", "subtype": "noteOff", "noteNumber": 73, "velocity": 64 }, { "deltaTime": 1, "channel": 3, "type": "channel", "subtype": "noteOff", "noteNumber": 52, "velocity": 64 }, { "deltaTime": 1, "channel": 3, "type": "channel", "subtype": "noteOff", "noteNumber": 57, "velocity": 64 }, { "deltaTime": 10, "channel": 3, "type": "channel", "subtype": "noteOff", "noteNumber": 76, "velocity": 64 }, { "deltaTime": 19, "channel": 3, "type": "channel", "noteNumber": 57, "velocity": 85, "subtype": "noteOn" }, { "deltaTime": 1, "channel": 3, "type": "channel", "noteNumber": 49, "velocity": 86, "subtype": "noteOn" }, { "deltaTime": 0, "channel": 3, "type": "channel", "noteNumber": 73, "velocity": 101, "subtype": "noteOn" }, { "deltaTime": 0, "channel": 3, "type": "channel", "noteNumber": 76, "velocity": 99, "subtype": "noteOn" }, { "deltaTime": 0, "channel": 3, "type": "channel", "noteNumber": 69, "velocity": 93, "subtype": "noteOn" }, { "deltaTime": 0, "channel": 3, "type": "channel", "noteNumber": 52, "velocity": 75, "subtype": "noteOn" }, { "deltaTime": 52, "channel": 3, "type": "channel", "subtype": "noteOff", "noteNumber": 49, "velocity": 64 }, { "deltaTime": 5, "channel": 3, "type": "channel", "subtype": "noteOff", "noteNumber": 57, "velocity": 64 }, { "deltaTime": 1, "channel": 3, "type": "channel", "subtype": "noteOff", "noteNumber": 52, "velocity": 64 }, { "deltaTime": 4, "channel": 3, "type": "channel", "subtype": "noteOff", "noteNumber": 73, "velocity": 64 }, { "deltaTime": 0, "channel": 3, "type": "channel", "subtype": "noteOff", "noteNumber": 69, "velocity": 64 }, { "deltaTime": 12, "channel": 3, "type": "channel", "subtype": "noteOff", "noteNumber": 76, "velocity": 64 }, { "deltaTime": 307, "channel": 3, "type": "channel", "noteNumber": 73, "velocity": 99, "subtype": "noteOn" }, { "deltaTime": 0, "channel": 3, "type": "channel", "noteNumber": 69, "velocity": 89, "subtype": "noteOn" }, { "deltaTime": 0, "channel": 3, "type": "channel", "noteNumber": 57, "velocity": 81, "subtype": "noteOn" }, { "deltaTime": 0, "channel": 3, "type": "channel", "noteNumber": 76, "velocity": 96, "subtype": "noteOn" }, { "deltaTime": 0, "channel": 3, "type": "channel", "noteNumber": 52, "velocity": 83, "subtype": "noteOn" }, { "deltaTime": 1, "channel": 3, "type": "channel", "noteNumber": 49, "velocity": 90, "subtype": "noteOn" }, { "deltaTime": 405, "channel": 3, "type": "channel", "subtype": "controller", "controllerType": 64, "value": 127 }, { "deltaTime": 106, "channel": 3, "type": "channel", "subtype": "noteOff", "noteNumber": 69, "velocity": 64 }, { "deltaTime": 8, "channel": 3, "type": "channel", "subtype": "noteOff", "noteNumber": 73, "velocity": 64 }, { "deltaTime": 12, "channel": 3, "type": "channel", "subtype": "noteOff", "noteNumber": 76, "velocity": 64 }, { "deltaTime": 190, "channel": 3, "type": "channel", "noteNumber": 88, "velocity": 94, "subtype": "noteOn" }, { "deltaTime": 0, "channel": 3, "type": "channel", "noteNumber": 81, "velocity": 86, "subtype": "noteOn" }, { "deltaTime": 0, "channel": 3, "type": "channel", "noteNumber": 85, "velocity": 106, "subtype": "noteOn" }, { "deltaTime": 214, "channel": 3, "type": "channel", "subtype": "noteOff", "noteNumber": 88, "velocity": 64 }, { "deltaTime": 6, "channel": 3, "type": "channel", "subtype": "noteOff", "noteNumber": 85, "velocity": 64 }, { "deltaTime": 10, "channel": 3, "type": "channel", "subtype": "noteOff", "noteNumber": 81, "velocity": 64 }, { "deltaTime": 410, "channel": 3, "type": "channel", "subtype": "controller", "controllerType": 64, "value": 0 }, { "deltaTime": 16, "channel": 3, "type": "channel", "subtype": "noteOff", "noteNumber": 52, "velocity": 64 }, { "deltaTime": 1, "channel": 3, "type": "channel", "subtype": "noteOff", "noteNumber": 49, "velocity": 64 }, { "deltaTime": 11, "channel": 3, "type": "channel", "subtype": "noteOff", "noteNumber": 57, "velocity": 64 }, { "deltaTime": 147, "channel": 3, "type": "channel", "noteNumber": 54, "velocity": 99, "subtype": "noteOn" }, { "deltaTime": 0, "channel": 3, "type": "channel", "noteNumber": 57, "velocity": 84, "subtype": "noteOn" }, { "deltaTime": 1, "channel": 3, "type": "channel", "noteNumber": 50, "velocity": 81, "subtype": "noteOn" }, { "deltaTime": 192, "channel": 3, "type": "channel", "noteNumber": 62, "velocity": 97, "subtype": "noteOn" }, { "deltaTime": 97, "channel": 3, "type": "channel", "noteNumber": 66, "velocity": 94, "subtype": "noteOn" }, { "deltaTime": 191, "channel": 3, "type": "channel", "noteNumber": 69, "velocity": 92, "subtype": "noteOn" }, { "deltaTime": 42, "channel": 3, "type": "channel", "subtype": "noteOff", "noteNumber": 62, "velocity": 64 }, { "deltaTime": 54, "channel": 3, "type": "channel", "noteNumber": 62, "velocity": 96, "subtype": "noteOn" }, { "deltaTime": 9, "channel": 3, "type": "channel", "subtype": "noteOff", "noteNumber": 54, "velocity": 64 }, { "deltaTime": 10, "channel": 3, "type": "channel", "subtype": "noteOff", "noteNumber": 57, "velocity": 64 }, { "deltaTime": 1, "channel": 3, "type": "channel", "subtype": "noteOff", "noteNumber": 50, "velocity": 64 }, { "deltaTime": 172, "channel": 3, "type": "channel", "noteNumber": 50, "velocity": 91, "subtype": "noteOn" }, { "deltaTime": 96, "channel": 3, "type": "channel", "noteNumber": 54, "velocity": 91, "subtype": "noteOn" }, { "deltaTime": 96, "channel": 3, "type": "channel", "noteNumber": 57, "velocity": 89, "subtype": "noteOn" }, { "deltaTime": 34, "channel": 3, "type": "channel", "subtype": "noteOff", "noteNumber": 62, "velocity": 64 }, { "deltaTime": 47, "channel": 3, "type": "channel", "subtype": "noteOff", "noteNumber": 66, "velocity": 64 }, { "deltaTime": 14, "channel": 3, "type": "channel", "noteNumber": 62, "velocity": 93, "subtype": "noteOn" }, { "deltaTime": 1, "channel": 3, "type": "channel", "subtype": "noteOff", "noteNumber": 69, "velocity": 64 }, { "deltaTime": 112, "channel": 3, "type": "channel", "subtype": "noteOff", "noteNumber": 50, "velocity": 64 }, { "deltaTime": 2, "channel": 3, "type": "channel", "subtype": "noteOff", "noteNumber": 57, "velocity": 64 }, { "deltaTime": 4, "channel": 3, "type": "channel", "subtype": "noteOff", "noteNumber": 54, "velocity": 64 }, { "deltaTime": 73, "channel": 3, "type": "channel", "noteNumber": 66, "velocity": 114, "subtype": "noteOn" }, { "deltaTime": 2, "channel": 3, "type": "channel", "noteNumber": 69, "velocity": 47, "subtype": "noteOn" }, { "deltaTime": 200, "channel": 3, "type": "channel", "subtype": "noteOff", "noteNumber": 62, "velocity": 64 }, { "deltaTime": 14, "channel": 3, "type": "channel", "subtype": "noteOff", "noteNumber": 69, "velocity": 64 }, { "deltaTime": 14, "channel": 3, "type": "channel", "subtype": "noteOff", "noteNumber": 66, "velocity": 64 }, { "deltaTime": 56, "channel": 3, "type": "channel", "noteNumber": 64, "velocity": 84, "subtype": "noteOn" }, { "deltaTime": 0, "channel": 3, "type": "channel", "noteNumber": 67, "velocity": 89, "subtype": "noteOn" }, { "deltaTime": 1, "channel": 3, "type": "channel", "noteNumber": 71, "velocity": 81, "subtype": "noteOn" }, { "deltaTime": 194, "channel": 3, "type": "channel", "subtype": "noteOff", "noteNumber": 64, "velocity": 64 }, { "deltaTime": 0, "channel": 3, "type": "channel", "noteNumber": 64, "velocity": 88, "subtype": "noteOn" }, { "deltaTime": 192, "channel": 3, "type": "channel", "subtype": "noteOff", "noteNumber": 64, "velocity": 64 }, { "deltaTime": 0, "channel": 3, "type": "channel", "noteNumber": 49, "velocity": 90, "subtype": "noteOn" }, { "deltaTime": 1, "channel": 3, "type": "channel", "noteNumber": 57, "velocity": 80, "subtype": "noteOn" }, { "deltaTime": 0, "channel": 3, "type": "channel", "noteNumber": 52, "velocity": 87, "subtype": "noteOn" }, { "deltaTime": 42, "channel": 3, "type": "channel", "subtype": "noteOff", "noteNumber": 67, "velocity": 64 }, { "deltaTime": 1, "channel": 3, "type": "channel", "subtype": "noteOff", "noteNumber": 71, "velocity": 64 }, { "deltaTime": 146, "channel": 3, "type": "channel", "noteNumber": 69, "velocity": 90, "subtype": "noteOn" }, { "deltaTime": 0, "channel": 3, "type": "channel", "noteNumber": 76, "velocity": 89, "subtype": "noteOn" }, { "deltaTime": 0, "channel": 3, "type": "channel", "noteNumber": 73, "velocity": 96, "subtype": "noteOn" }, { "deltaTime": 71, "channel": 3, "type": "channel", "subtype": "noteOff", "noteNumber": 52, "velocity": 64 }, { "deltaTime": 3, "channel": 3, "type": "channel", "subtype": "noteOff", "noteNumber": 49, "velocity": 64 }, { "deltaTime": 1, "channel": 3, "type": "channel", "subtype": "noteOff", "noteNumber": 57, "velocity": 64 }, { "deltaTime": 115, "channel": 3, "type": "channel", "subtype": "noteOff", "noteNumber": 76, "velocity": 64 }, { "deltaTime": 0, "channel": 3, "type": "channel", "subtype": "noteOff", "noteNumber": 73, "velocity": 64 }, { "deltaTime": 4, "channel": 3, "type": "channel", "noteNumber": 50, "velocity": 93, "subtype": "noteOn" }, { "deltaTime": 1, "channel": 3, "type": "channel", "noteNumber": 54, "velocity": 103, "subtype": "noteOn" }, { "deltaTime": 0, "channel": 3, "type": "channel", "noteNumber": 57, "velocity": 81, "subtype": "noteOn" }, { "deltaTime": 25, "channel": 3, "type": "channel", "subtype": "noteOff", "noteNumber": 69, "velocity": 64 }, { "deltaTime": 167, "channel": 3, "type": "channel", "noteNumber": 62, "velocity": 107, "subtype": "noteOn" }, { "deltaTime": 96, "channel": 3, "type": "channel", "noteNumber": 66, "velocity": 94, "subtype": "noteOn" }, { "deltaTime": 191, "channel": 3, "type": "channel", "noteNumber": 69, "velocity": 98, "subtype": "noteOn" }, { "deltaTime": 96, "channel": 3, "type": "channel", "subtype": "noteOff", "noteNumber": 50, "velocity": 64 }, { "deltaTime": 5, "channel": 3, "type": "channel", "subtype": "noteOff", "noteNumber": 54, "velocity": 64 }, { "deltaTime": 24, "channel": 3, "type": "channel", "subtype": "noteOff", "noteNumber": 57, "velocity": 64 }, { "deltaTime": 138, "channel": 3, "type": "channel", "subtype": "noteOff", "noteNumber": 66, "velocity": 64 }, { "deltaTime": 2, "channel": 3, "type": "channel", "subtype": "noteOff", "noteNumber": 62, "velocity": 64 }, { "deltaTime": 13, "channel": 3, "type": "channel", "subtype": "noteOff", "noteNumber": 69, "velocity": 64 }, { "deltaTime": 8, "channel": 3, "type": "channel", "noteNumber": 59, "velocity": 95, "subtype": "noteOn" }, { "deltaTime": 1, "channel": 3, "type": "channel", "noteNumber": 55, "velocity": 89, "subtype": "noteOn" }, { "deltaTime": 0, "channel": 3, "type": "channel", "noteNumber": 52, "velocity": 85, "subtype": "noteOn" }, { "deltaTime": 193, "channel": 3, "type": "channel", "noteNumber": 64, "velocity": 90, "subtype": "noteOn" }, { "deltaTime": 0, "channel": 3, "type": "channel", "noteNumber": 71, "velocity": 82, "subtype": "noteOn" }, { "deltaTime": 0, "channel": 3, "type": "channel", "noteNumber": 67, "velocity": 81, "subtype": "noteOn" }, { "deltaTime": 208, "channel": 3, "type": "channel", "subtype": "noteOff", "noteNumber": 64, "velocity": 64 }, { "deltaTime": 24, "channel": 3, "type": "channel", "subtype": "noteOff", "noteNumber": 71, "velocity": 64 }, { "deltaTime": 4, "channel": 3, "type": "channel", "subtype": "noteOff", "noteNumber": 67, "velocity": 64 }, { "deltaTime": 53, "channel": 3, "type": "channel", "noteNumber": 67, "velocity": 85, "subtype": "noteOn" }, { "deltaTime": 0, "channel": 3, "type": "channel", "noteNumber": 71, "velocity": 87, "subtype": "noteOn" }, { "deltaTime": 0, "channel": 3, "type": "channel", "noteNumber": 64, "velocity": 78, "subtype": "noteOn" }, { "deltaTime": 119, "channel": 3, "type": "channel", "subtype": "noteOff", "noteNumber": 59, "velocity": 64 }, { "deltaTime": 3, "channel": 3, "type": "channel", "subtype": "noteOff", "noteNumber": 52, "velocity": 64 }, { "deltaTime": 2, "channel": 3, "type": "channel", "subtype": "noteOff", "noteNumber": 55, "velocity": 64 }, { "deltaTime": 118, "channel": 3, "type": "channel", "subtype": "noteOff", "noteNumber": 64, "velocity": 64 }, { "deltaTime": 22, "channel": 3, "type": "channel", "subtype": "noteOff", "noteNumber": 67, "velocity": 64 }, { "deltaTime": 6, "channel": 3, "type": "channel", "subtype": "noteOff", "noteNumber": 71, "velocity": 64 }, { "deltaTime": 16, "channel": 3, "type": "channel", "noteNumber": 57, "velocity": 97, "subtype": "noteOn" }, { "deltaTime": 0, "channel": 3, "type": "channel", "noteNumber": 49, "velocity": 94, "subtype": "noteOn" }, { "deltaTime": 0, "channel": 3, "type": "channel", "noteNumber": 52, "velocity": 84, "subtype": "noteOn" }, { "deltaTime": 194, "channel": 3, "type": "channel", "noteNumber": 69, "velocity": 104, "subtype": "noteOn" }, { "deltaTime": 1, "channel": 3, "type": "channel", "noteNumber": 73, "velocity": 105, "subtype": "noteOn" }, { "deltaTime": 0, "channel": 3, "type": "channel", "noteNumber": 76, "velocity": 94, "subtype": "noteOn" }, { "deltaTime": 193, "channel": 3, "type": "channel", "subtype": "noteOff", "noteNumber": 69, "velocity": 64 }, { "deltaTime": 15, "channel": 3, "type": "channel", "subtype": "noteOff", "noteNumber": 73, "velocity": 64 }, { "deltaTime": 4, "channel": 3, "type": "channel", "subtype": "noteOff", "noteNumber": 76, "velocity": 64 }, { "deltaTime": 74, "channel": 3, "type": "channel", "noteNumber": 69, "velocity": 100, "subtype": "noteOn" }, { "deltaTime": 0, "channel": 3, "type": "channel", "noteNumber": 73, "velocity": 99, "subtype": "noteOn" }, { "deltaTime": 0, "channel": 3, "type": "channel", "noteNumber": 76, "velocity": 89, "subtype": "noteOn" }, { "deltaTime": 63, "channel": 3, "type": "channel", "subtype": "noteOff", "noteNumber": 49, "velocity": 64 }, { "deltaTime": 2, "channel": 3, "type": "channel", "subtype": "noteOff", "noteNumber": 52, "velocity": 64 }, { "deltaTime": 12, "channel": 3, "type": "channel", "subtype": "noteOff", "noteNumber": 57, "velocity": 64 }, { "deltaTime": 165, "channel": 3, "type": "channel", "subtype": "noteOff", "noteNumber": 69, "velocity": 64 }, { "deltaTime": 0, "channel": 3, "type": "channel", "noteNumber": 54, "velocity": 98, "subtype": "noteOn" }, { "deltaTime": 2, "channel": 3, "type": "channel", "subtype": "noteOff", "noteNumber": 73, "velocity": 64 }, { "deltaTime": 24, "channel": 3, "type": "channel", "subtype": "noteOff", "noteNumber": 76, "velocity": 64 }, { "deltaTime": 17, "channel": 3, "type": "channel", "noteNumber": 50, "velocity": 85, "subtype": "noteOn" }, { "deltaTime": 1, "channel": 3, "type": "channel", "noteNumber": 57, "velocity": 93, "subtype": "noteOn" }, { "deltaTime": 290, "channel": 3, "type": "channel", "noteNumber": 74, "velocity": 91, "subtype": "noteOn" }, { "deltaTime": 1, "channel": 3, "type": "channel", "noteNumber": 81, "velocity": 84, "subtype": "noteOn" }, { "deltaTime": 0, "channel": 3, "type": "channel", "noteNumber": 78, "velocity": 91, "subtype": "noteOn" }, { "deltaTime": 49, "channel": 3, "type": "channel", "subtype": "noteOff", "noteNumber": 54, "velocity": 64 }, { "deltaTime": 95, "channel": 3, "type": "channel", "noteNumber": 54, "velocity": 95, "subtype": "noteOn" }, { "deltaTime": 22, "channel": 3, "type": "channel", "subtype": "noteOff", "noteNumber": 81, "velocity": 64 }, { "deltaTime": 1, "channel": 3, "type": "channel", "subtype": "noteOff", "noteNumber": 74, "velocity": 64 }, { "deltaTime": 3, "channel": 3, "type": "channel", "subtype": "noteOff", "noteNumber": 78, "velocity": 64 }, { "deltaTime": 118, "channel": 3, "type": "channel", "noteNumber": 78, "velocity": 104, "subtype": "noteOn" }, { "deltaTime": 1, "channel": 3, "type": "channel", "noteNumber": 74, "velocity": 82, "subtype": "noteOn" }, { "deltaTime": 0, "channel": 3, "type": "channel", "noteNumber": 81, "velocity": 81, "subtype": "noteOn" }, { "deltaTime": 35, "channel": 3, "type": "channel", "subtype": "noteOff", "noteNumber": 54, "velocity": 64 }, { "deltaTime": 22, "channel": 3, "type": "channel", "subtype": "noteOff", "noteNumber": 50, "velocity": 64 }, { "deltaTime": 33, "channel": 3, "type": "channel", "subtype": "noteOff", "noteNumber": 57, "velocity": 64 }, { "deltaTime": 46, "channel": 3, "type": "channel", "subtype": "noteOff", "noteNumber": 81, "velocity": 64 }, { "deltaTime": 9, "channel": 3, "type": "channel", "subtype": "noteOff", "noteNumber": 78, "velocity": 64 }, { "deltaTime": 15, "channel": 3, "type": "channel", "subtype": "noteOff", "noteNumber": 74, "velocity": 64 }, { "deltaTime": 30, "channel": 3, "type": "channel", "noteNumber": 59, "velocity": 94, "subtype": "noteOn" }, { "deltaTime": 0, "channel": 3, "type": "channel", "noteNumber": 52, "velocity": 75, "subtype": "noteOn" }, { "deltaTime": 0, "channel": 3, "type": "channel", "noteNumber": 55, "velocity": 89, "subtype": "noteOn" }, { "deltaTime": 193, "channel": 3, "type": "channel", "noteNumber": 64, "velocity": 88, "subtype": "noteOn" }, { "deltaTime": 0, "channel": 3, "type": "channel", "noteNumber": 71, "velocity": 85, "subtype": "noteOn" }, { "deltaTime": 0, "channel": 3, "type": "channel", "noteNumber": 67, "velocity": 81, "subtype": "noteOn" }, { "deltaTime": 71, "channel": 3, "type": "channel", "subtype": "noteOff", "noteNumber": 55, "velocity": 64 }, { "deltaTime": 6, "channel": 3, "type": "channel", "subtype": "noteOff", "noteNumber": 52, "velocity": 64 }, { "deltaTime": 6, "channel": 3, "type": "channel", "subtype": "noteOff", "noteNumber": 59, "velocity": 64 }, { "deltaTime": 117, "channel": 3, "type": "channel", "subtype": "noteOff", "noteNumber": 64, "velocity": 64 }, { "deltaTime": 6, "channel": 3, "type": "channel", "subtype": "noteOff", "noteNumber": 67, "velocity": 64 }, { "deltaTime": 12, "channel": 3, "type": "channel", "subtype": "noteOff", "noteNumber": 71, "velocity": 64 }, { "deltaTime": 18, "channel": 3, "type": "channel", "noteNumber": 57, "velocity": 94, "subtype": "noteOn" }, { "deltaTime": 0, "channel": 3, "type": "channel", "noteNumber": 52, "velocity": 86, "subtype": "noteOn" }, { "deltaTime": 0, "channel": 3, "type": "channel", "noteNumber": 49, "velocity": 88, "subtype": "noteOn" }, { "deltaTime": 147, "channel": 3, "type": "channel", "noteNumber": 69, "velocity": 96, "subtype": "noteOn" }, { "deltaTime": 0, "channel": 3, "type": "channel", "noteNumber": 73, "velocity": 99, "subtype": "noteOn" }, { "deltaTime": 0, "channel": 3, "type": "channel", "noteNumber": 76, "velocity": 88, "subtype": "noteOn" }, { "deltaTime": 89, "channel": 3, "type": "channel", "subtype": "noteOff", "noteNumber": 49, "velocity": 64 }, { "deltaTime": 6, "channel": 3, "type": "channel", "subtype": "noteOff", "noteNumber": 52, "velocity": 64 }, { "deltaTime": 6, "channel": 3, "type": "channel", "subtype": "noteOff", "noteNumber": 57, "velocity": 64 }, { "deltaTime": 65, "channel": 3, "type": "channel", "subtype": "noteOff", "noteNumber": 76, "velocity": 64 }, { "deltaTime": 2, "channel": 3, "type": "channel", "subtype": "noteOff", "noteNumber": 73, "velocity": 64 }, { "deltaTime": 24, "channel": 3, "type": "channel", "subtype": "noteOff", "noteNumber": 69, "velocity": 64 }, { "deltaTime": 0, "channel": 3, "type": "channel", "noteNumber": 50, "velocity": 83, "subtype": "noteOn" }, { "deltaTime": 0, "channel": 3, "type": "channel", "noteNumber": 54, "velocity": 101, "subtype": "noteOn" }, { "deltaTime": 0, "channel": 3, "type": "channel", "noteNumber": 57, "velocity": 88, "subtype": "noteOn" }, { "deltaTime": 193, "channel": 3, "type": "channel", "noteNumber": 62, "velocity": 107, "subtype": "noteOn" }, { "deltaTime": 95, "channel": 3, "type": "channel", "noteNumber": 66, "velocity": 98, "subtype": "noteOn" }, { "deltaTime": 193, "channel": 3, "type": "channel", "noteNumber": 69, "velocity": 95, "subtype": "noteOn" }, { "deltaTime": 139, "channel": 3, "type": "channel", "subtype": "noteOff", "noteNumber": 50, "velocity": 64 }, { "deltaTime": 0, "channel": 3, "type": "channel", "subtype": "noteOff", "noteNumber": 54, "velocity": 64 }, { "deltaTime": 12, "channel": 3, "type": "channel", "subtype": "noteOff", "noteNumber": 57, "velocity": 64 }, { "deltaTime": 134, "channel": 3, "type": "channel", "noteNumber": 54, "velocity": 84, "subtype": "noteOn" }, { "deltaTime": 1, "channel": 3, "type": "channel", "noteNumber": 50, "velocity": 76, "subtype": "noteOn" }, { "deltaTime": 0, "channel": 3, "type": "channel", "noteNumber": 57, "velocity": 94, "subtype": "noteOn" }, { "deltaTime": 13, "channel": 3, "type": "channel", "subtype": "noteOff", "noteNumber": 66, "velocity": 64 }, { "deltaTime": 5, "channel": 3, "type": "channel", "subtype": "noteOff", "noteNumber": 69, "velocity": 64 }, { "deltaTime": 4, "channel": 3, "type": "channel", "subtype": "noteOff", "noteNumber": 62, "velocity": 64 }, { "deltaTime": 201, "channel": 3, "type": "channel", "subtype": "controller", "controllerType": 64, "value": 127 }, { "deltaTime": 16, "channel": 3, "type": "channel", "noteNumber": 62, "velocity": 101, "subtype": "noteOn" }, { "deltaTime": 95, "channel": 3, "type": "channel", "noteNumber": 66, "velocity": 99, "subtype": "noteOn" }, { "deltaTime": 146, "channel": 3, "type": "channel", "noteNumber": 69, "velocity": 93, "subtype": "noteOn" }, { "deltaTime": 33, "channel": 3, "type": "channel", "subtype": "noteOff", "noteNumber": 54, "velocity": 64 }, { "deltaTime": 65, "channel": 3, "type": "channel", "noteNumber": 54, "velocity": 91, "subtype": "noteOn" }, { "deltaTime": 31, "channel": 3, "type": "channel", "subtype": "noteOff", "noteNumber": 62, "velocity": 64 }, { "deltaTime": 9, "channel": 3, "type": "channel", "subtype": "noteOff", "noteNumber": 69, "velocity": 64 }, { "deltaTime": 6, "channel": 3, "type": "channel", "subtype": "noteOff", "noteNumber": 66, "velocity": 64 }, { "deltaTime": 14, "channel": 3, "type": "channel", "subtype": "noteOff", "noteNumber": 57, "velocity": 64 }, { "deltaTime": 69, "channel": 3, "type": "channel", "subtype": "controller", "controllerType": 64, "value": 0 }, { "deltaTime": 62, "channel": 3, "type": "channel", "noteNumber": 57, "velocity": 65, "subtype": "noteOn" }, { "deltaTime": 0, "channel": 3, "type": "channel", "noteNumber": 74, "velocity": 111, "subtype": "noteOn" }, { "deltaTime": 178, "channel": 3, "type": "channel", "subtype": "controller", "controllerType": 64, "value": 127 }, { "deltaTime": 13, "channel": 3, "type": "channel", "noteNumber": 78, "velocity": 91, "subtype": "noteOn" }, { "deltaTime": 97, "channel": 3, "type": "channel", "noteNumber": 81, "velocity": 90, "subtype": "noteOn" }, { "deltaTime": 108, "channel": 3, "type": "channel", "subtype": "noteOff", "noteNumber": 74, "velocity": 64 }, { "deltaTime": 35, "channel": 3, "type": "channel", "subtype": "noteOff", "noteNumber": 78, "velocity": 64 }, { "deltaTime": 30, "channel": 3, "type": "channel", "subtype": "noteOff", "noteNumber": 54, "velocity": 64 }, { "deltaTime": 8, "channel": 3, "type": "channel", "subtype": "noteOff", "noteNumber": 50, "velocity": 64 }, { "deltaTime": 10, "channel": 3, "type": "channel", "noteNumber": 78, "velocity": 97, "subtype": "noteOn" }, { "deltaTime": 7, "channel": 3, "type": "channel", "subtype": "noteOff", "noteNumber": 57, "velocity": 64 }, { "deltaTime": 90, "channel": 3, "type": "channel", "noteNumber": 74, "velocity": 92, "subtype": "noteOn" }, { "deltaTime": 100, "channel": 3, "type": "channel", "subtype": "noteOff", "noteNumber": 81, "velocity": 64 }, { "deltaTime": 23, "channel": 3, "type": "channel", "subtype": "noteOff", "noteNumber": 78, "velocity": 64 }, { "deltaTime": 35, "channel": 3, "type": "channel", "subtype": "noteOff", "noteNumber": 74, "velocity": 64 }, { "deltaTime": 34, "channel": 3, "type": "channel", "subtype": "controller", "controllerType": 64, "value": 0 }, { "deltaTime": 0, "channel": 3, "type": "channel", "noteNumber": 61, "velocity": 98, "subtype": "noteOn" }, { "deltaTime": 0, "channel": 3, "type": "channel", "noteNumber": 64, "velocity": 94, "subtype": "noteOn" }, { "deltaTime": 0, "channel": 3, "type": "channel", "noteNumber": 57, "velocity": 72, "subtype": "noteOn" }, { "deltaTime": 192, "channel": 3, "type": "channel", "noteNumber": 69, "velocity": 95, "subtype": "noteOn" }, { "deltaTime": 96, "channel": 3, "type": "channel", "noteNumber": 73, "velocity": 98, "subtype": "noteOn" }, { "deltaTime": 192, "channel": 3, "type": "channel", "noteNumber": 76, "velocity": 91, "subtype": "noteOn" }, { "deltaTime": 42, "channel": 3, "type": "channel", "subtype": "noteOff", "noteNumber": 64, "velocity": 64 }, { "deltaTime": 14, "channel": 3, "type": "channel", "subtype": "noteOff", "noteNumber": 69, "velocity": 64 }, { "deltaTime": 2, "channel": 3, "type": "channel", "subtype": "noteOff", "noteNumber": 61, "velocity": 64 }, { "deltaTime": 16, "channel": 3, "type": "channel", "subtype": "noteOff", "noteNumber": 57, "velocity": 64 }, { "deltaTime": 23, "channel": 3, "type": "channel", "noteNumber": 69, "velocity": 92, "subtype": "noteOn" }, { "deltaTime": 45, "channel": 3, "type": "channel", "subtype": "controller", "controllerType": 64, "value": 127 }, { "deltaTime": 48, "channel": 3, "type": "channel", "subtype": "controller", "controllerType": 64, "value": 0 }, { "deltaTime": 88, "channel": 3, "type": "channel", "subtype": "noteOff", "noteNumber": 76, "velocity": 64 }, { "deltaTime": 4, "channel": 3, "type": "channel", "subtype": "noteOff", "noteNumber": 73, "velocity": 64 }, { "deltaTime": 5, "channel": 3, "type": "channel", "noteNumber": 54, "velocity": 99, "subtype": "noteOn" }, { "deltaTime": 1, "channel": 3, "type": "channel", "noteNumber": 50, "velocity": 90, "subtype": "noteOn" }, { "deltaTime": 0, "channel": 3, "type": "channel", "noteNumber": 57, "velocity": 88, "subtype": "noteOn" }, { "deltaTime": 4, "channel": 3, "type": "channel", "subtype": "controller", "controllerType": 64, "value": 127 }, { "deltaTime": 5, "channel": 3, "type": "channel", "subtype": "noteOff", "noteNumber": 69, "velocity": 64 }, { "deltaTime": 183, "channel": 3, "type": "channel", "noteNumber": 62, "velocity": 100, "subtype": "noteOn" }, { "deltaTime": 96, "channel": 3, "type": "channel", "noteNumber": 66, "velocity": 93, "subtype": "noteOn" }, { "deltaTime": 191, "channel": 3, "type": "channel", "noteNumber": 69, "velocity": 96, "subtype": "noteOn" }, { "deltaTime": 23, "channel": 3, "type": "channel", "subtype": "noteOff", "noteNumber": 62, "velocity": 64 }, { "deltaTime": 9, "channel": 3, "type": "channel", "subtype": "noteOff", "noteNumber": 54, "velocity": 64 }, { "deltaTime": 3, "channel": 3, "type": "channel", "subtype": "noteOff", "noteNumber": 57, "velocity": 64 }, { "deltaTime": 4, "channel": 3, "type": "channel", "subtype": "noteOff", "noteNumber": 50, "velocity": 64 }, { "deltaTime": 57, "channel": 3, "type": "channel", "noteNumber": 62, "velocity": 97, "subtype": "noteOn" }, { "deltaTime": 148, "channel": 3, "type": "channel", "subtype": "noteOff", "noteNumber": 62, "velocity": 64 }, { "deltaTime": 5, "channel": 3, "type": "channel", "subtype": "noteOff", "noteNumber": 66, "velocity": 64 }, { "deltaTime": 33, "channel": 3, "type": "channel", "subtype": "noteOff", "noteNumber": 69, "velocity": 64 }, { "deltaTime": 6, "channel": 3, "type": "channel", "noteNumber": 50, "velocity": 97, "subtype": "noteOn" }, { "deltaTime": 0, "channel": 3, "type": "channel", "noteNumber": 54, "velocity": 98, "subtype": "noteOn" }, { "deltaTime": 98, "channel": 3, "type": "channel", "noteNumber": 57, "velocity": 84, "subtype": "noteOn" }, { "deltaTime": 95, "channel": 3, "type": "channel", "noteNumber": 74, "velocity": 89, "subtype": "noteOn" }, { "deltaTime": 97, "channel": 3, "type": "channel", "noteNumber": 78, "velocity": 92, "subtype": "noteOn" }, { "deltaTime": 134, "channel": 3, "type": "channel", "subtype": "noteOff", "noteNumber": 54, "velocity": 64 }, { "deltaTime": 6, "channel": 3, "type": "channel", "subtype": "noteOff", "noteNumber": 57, "velocity": 64 }, { "deltaTime": 24, "channel": 3, "type": "channel", "subtype": "noteOff", "noteNumber": 50, "velocity": 64 }, { "deltaTime": 25, "channel": 3, "type": "channel", "noteNumber": 81, "velocity": 78, "subtype": "noteOn" }, { "deltaTime": 42, "channel": 3, "type": "channel", "subtype": "noteOff", "noteNumber": 74, "velocity": 64 }, { "deltaTime": 56, "channel": 3, "type": "channel", "noteNumber": 74, "velocity": 91, "subtype": "noteOn" }, { "deltaTime": 17, "channel": 3, "type": "channel", "subtype": "noteOff", "noteNumber": 78, "velocity": 64 }, { "deltaTime": 5, "channel": 3, "type": "channel", "subtype": "noteOff", "noteNumber": 81, "velocity": 64 }, { "deltaTime": 20, "channel": 3, "type": "channel", "subtype": "noteOff", "noteNumber": 74, "velocity": 64 }, { "deltaTime": 106, "channel": 3, "type": "channel", "subtype": "controller", "controllerType": 64, "value": 0 }, { "deltaTime": 43, "channel": 3, "type": "channel", "noteNumber": 54, "velocity": 95, "subtype": "noteOn" }, { "deltaTime": 0, "channel": 3, "type": "channel", "noteNumber": 57, "velocity": 91, "subtype": "noteOn" }, { "deltaTime": 0, "channel": 3, "type": "channel", "noteNumber": 50, "velocity": 85, "subtype": "noteOn" }, { "deltaTime": 193, "channel": 3, "type": "channel", "noteNumber": 62, "velocity": 93, "subtype": "noteOn" }, { "deltaTime": 6, "channel": 3, "type": "channel", "subtype": "controller", "controllerType": 64, "value": 127 }, { "deltaTime": 90, "channel": 3, "type": "channel", "noteNumber": 66, "velocity": 92, "subtype": "noteOn" }, { "deltaTime": 97, "channel": 3, "type": "channel", "noteNumber": 69, "velocity": 84, "subtype": "noteOn" }, { "deltaTime": 85, "channel": 3, "type": "channel", "subtype": "noteOff", "noteNumber": 62, "velocity": 64 }, { "deltaTime": 10, "channel": 3, "type": "channel", "subtype": "noteOff", "noteNumber": 66, "velocity": 64 }, { "deltaTime": 83, "channel": 3, "type": "channel", "subtype": "noteOff", "noteNumber": 54, "velocity": 64 }, { "deltaTime": 11, "channel": 3, "type": "channel", "noteNumber": 66, "velocity": 109, "subtype": "noteOn" }, { "deltaTime": 23, "channel": 3, "type": "channel", "subtype": "noteOff", "noteNumber": 50, "velocity": 64 }, { "deltaTime": 2, "channel": 3, "type": "channel", "subtype": "noteOff", "noteNumber": 57, "velocity": 64 }, { "deltaTime": 72, "channel": 3, "type": "channel", "noteNumber": 62, "velocity": 88, "subtype": "noteOn" }, { "deltaTime": 61, "channel": 3, "type": "channel", "subtype": "controller", "controllerType": 64, "value": 0 }, { "deltaTime": 35, "channel": 3, "type": "channel", "noteNumber": 50, "velocity": 91, "subtype": "noteOn" }, { "deltaTime": 1, "channel": 3, "type": "channel", "noteNumber": 57, "velocity": 100, "subtype": "noteOn" }, { "deltaTime": 11, "channel": 3, "type": "channel", "subtype": "noteOff", "noteNumber": 62, "velocity": 64 }, { "deltaTime": 10, "channel": 3, "type": "channel", "subtype": "noteOff", "noteNumber": 69, "velocity": 64 }, { "deltaTime": 11, "channel": 3, "type": "channel", "subtype": "noteOff", "noteNumber": 66, "velocity": 64 }, { "deltaTime": 0, "channel": 3, "type": "channel", "subtype": "controller", "controllerType": 64, "value": 127 }, { "deltaTime": 160, "channel": 3, "type": "channel", "noteNumber": 54, "velocity": 90, "subtype": "noteOn" }, { "deltaTime": 96, "channel": 3, "type": "channel", "noteNumber": 81, "velocity": 90, "subtype": "noteOn" }, { "deltaTime": 191, "channel": 3, "type": "channel", "noteNumber": 78, "velocity": 101, "subtype": "noteOn" }, { "deltaTime": 51, "channel": 3, "type": "channel", "subtype": "noteOff", "noteNumber": 54, "velocity": 64 }, { "deltaTime": 9, "channel": 3, "type": "channel", "subtype": "noteOff", "noteNumber": 50, "velocity": 64 }, { "deltaTime": 23, "channel": 3, "type": "channel", "subtype": "noteOff", "noteNumber": 57, "velocity": 64 }, { "deltaTime": 14, "channel": 3, "type": "channel", "noteNumber": 74, "velocity": 103, "subtype": "noteOn" }, { "deltaTime": 32, "channel": 3, "type": "channel", "subtype": "controller", "controllerType": 64, "value": 0 }, { "deltaTime": 70, "channel": 3, "type": "channel", "subtype": "noteOff", "noteNumber": 81, "velocity": 64 }, { "deltaTime": 17, "channel": 3, "type": "channel", "subtype": "noteOff", "noteNumber": 78, "velocity": 64 }, { "deltaTime": 15, "channel": 3, "type": "channel", "subtype": "noteOff", "noteNumber": 74, "velocity": 64 }, { "deltaTime": 57, "channel": 3, "type": "channel", "noteNumber": 52, "velocity": 87, "subtype": "noteOn" }, { "deltaTime": 0, "channel": 3, "type": "channel", "noteNumber": 59, "velocity": 89, "subtype": "noteOn" }, { "deltaTime": 1, "channel": 3, "type": "channel", "noteNumber": 55, "velocity": 83, "subtype": "noteOn" }, { "deltaTime": 16, "channel": 3, "type": "channel", "subtype": "controller", "controllerType": 64, "value": 127 }, { "deltaTime": 175, "channel": 3, "type": "channel", "noteNumber": 64, "velocity": 99, "subtype": "noteOn" }, { "deltaTime": 0, "channel": 3, "type": "channel", "noteNumber": 71, "velocity": 94, "subtype": "noteOn" }, { "deltaTime": 1, "channel": 3, "type": "channel", "noteNumber": 67, "velocity": 84, "subtype": "noteOn" }, { "deltaTime": 36, "channel": 3, "type": "channel", "subtype": "noteOff", "noteNumber": 55, "velocity": 64 }, { "deltaTime": 3, "channel": 3, "type": "channel", "subtype": "noteOff", "noteNumber": 52, "velocity": 64 }, { "deltaTime": 12, "channel": 3, "type": "channel", "subtype": "noteOff", "noteNumber": 59, "velocity": 64 }, { "deltaTime": 69, "channel": 3, "type": "channel", "subtype": "controller", "controllerType": 64, "value": 0 }, { "deltaTime": 63, "channel": 3, "type": "channel", "subtype": "noteOff", "noteNumber": 64, "velocity": 64 }, { "deltaTime": 3, "channel": 3, "type": "channel", "subtype": "noteOff", "noteNumber": 67, "velocity": 64 }, { "deltaTime": 4, "channel": 3, "type": "channel", "noteNumber": 57, "velocity": 88, "subtype": "noteOn" }, { "deltaTime": 1, "channel": 3, "type": "channel", "noteNumber": 49, "velocity": 98, "subtype": "noteOn" }, { "deltaTime": 0, "channel": 3, "type": "channel", "noteNumber": 52, "velocity": 84, "subtype": "noteOn" }, { "deltaTime": 10, "channel": 3, "type": "channel", "subtype": "noteOff", "noteNumber": 71, "velocity": 64 }, { "deltaTime": 86, "channel": 3, "type": "channel", "noteNumber": 69, "velocity": 96, "subtype": "noteOn" }, { "deltaTime": 0, "channel": 3, "type": "channel", "noteNumber": 73, "velocity": 95, "subtype": "noteOn" }, { "deltaTime": 191, "channel": 3, "type": "channel", "noteNumber": 76, "velocity": 97, "subtype": "noteOn" }, { "deltaTime": 1, "channel": 3, "type": "channel", "subtype": "noteOff", "noteNumber": 49, "velocity": 64 }, { "deltaTime": 6, "channel": 3, "type": "channel", "subtype": "noteOff", "noteNumber": 52, "velocity": 64 }, { "deltaTime": 17, "channel": 3, "type": "channel", "subtype": "noteOff", "noteNumber": 57, "velocity": 64 }, { "deltaTime": 75, "channel": 3, "type": "channel", "noteNumber": 50, "velocity": 85, "subtype": "noteOn" }, { "deltaTime": 0, "channel": 3, "type": "channel", "noteNumber": 54, "velocity": 101, "subtype": "noteOn" }, { "deltaTime": 0, "channel": 3, "type": "channel", "noteNumber": 57, "velocity": 84, "subtype": "noteOn" }, { "deltaTime": 20, "channel": 3, "type": "channel", "subtype": "noteOff", "noteNumber": 73, "velocity": 64 }, { "deltaTime": 3, "channel": 3, "type": "channel", "subtype": "noteOff", "noteNumber": 76, "velocity": 64 }, { "deltaTime": 23, "channel": 3, "type": "channel", "subtype": "noteOff", "noteNumber": 69, "velocity": 64 }, { "deltaTime": 144, "channel": 3, "type": "channel", "noteNumber": 62, "velocity": 99, "subtype": "noteOn" }, { "deltaTime": 1, "channel": 3, "type": "channel", "noteNumber": 66, "velocity": 103, "subtype": "noteOn" }, { "deltaTime": 0, "channel": 3, "type": "channel", "noteNumber": 69, "velocity": 86, "subtype": "noteOn" }, { "deltaTime": 389, "channel": 3, "type": "channel", "subtype": "noteOff", "noteNumber": 50, "velocity": 64 }, { "deltaTime": 2, "channel": 3, "type": "channel", "subtype": "noteOff", "noteNumber": 54, "velocity": 64 }, { "deltaTime": 72, "channel": 3, "type": "channel", "subtype": "noteOff", "noteNumber": 57, "velocity": 64 }, { "deltaTime": 112, "channel": 3, "type": "channel", "noteNumber": 52, "velocity": 78, "subtype": "noteOn" }, { "deltaTime": 0, "channel": 3, "type": "channel", "noteNumber": 59, "velocity": 96, "subtype": "noteOn" }, { "deltaTime": 2, "channel": 3, "type": "channel", "subtype": "noteOff", "noteNumber": 59, "velocity": 64 }, { "deltaTime": 0, "channel": 3, "type": "channel", "subtype": "noteOff", "noteNumber": 52, "velocity": 64 }, { "deltaTime": 0, "channel": 3, "type": "channel", "noteNumber": 52, "velocity": 90, "subtype": "noteOn" }, { "deltaTime": 0, "channel": 3, "type": "channel", "noteNumber": 59, "velocity": 95, "subtype": "noteOn" }, { "deltaTime": 0, "channel": 3, "type": "channel", "noteNumber": 55, "velocity": 90, "subtype": "noteOn" }, { "deltaTime": 24, "channel": 3, "type": "channel", "subtype": "noteOff", "noteNumber": 62, "velocity": 64 }, { "deltaTime": 1, "channel": 3, "type": "channel", "subtype": "noteOff", "noteNumber": 66, "velocity": 64 }, { "deltaTime": 4, "channel": 3, "type": "channel", "subtype": "noteOff", "noteNumber": 69, "velocity": 64 }, { "deltaTime": 256, "channel": 3, "type": "channel", "noteNumber": 64, "velocity": 95, "subtype": "noteOn" }, { "deltaTime": 99, "channel": 3, "type": "channel", "noteNumber": 67, "velocity": 83, "subtype": "noteOn" }, { "deltaTime": 94, "channel": 3, "type": "channel", "noteNumber": 71, "velocity": 95, "subtype": "noteOn" }, { "deltaTime": 19, "channel": 3, "type": "channel", "subtype": "noteOff", "noteNumber": 64, "velocity": 64 }, { "deltaTime": 79, "channel": 3, "type": "channel", "noteNumber": 64, "velocity": 103, "subtype": "noteOn" }, { "deltaTime": 10, "channel": 3, "type": "channel", "subtype": "noteOff", "noteNumber": 59, "velocity": 64 }, { "deltaTime": 10, "channel": 3, "type": "channel", "subtype": "noteOff", "noteNumber": 55, "velocity": 64 }, { "deltaTime": 2, "channel": 3, "type": "channel", "subtype": "noteOff", "noteNumber": 52, "velocity": 64 }, { "deltaTime": 164, "channel": 3, "type": "channel", "subtype": "noteOff", "noteNumber": 64, "velocity": 64 }, { "deltaTime": 5, "channel": 3, "type": "channel", "noteNumber": 57, "velocity": 96, "subtype": "noteOn" }, { "deltaTime": 0, "channel": 3, "type": "channel", "noteNumber": 49, "velocity": 98, "subtype": "noteOn" }, { "deltaTime": 0, "channel": 3, "type": "channel", "noteNumber": 52, "velocity": 94, "subtype": "noteOn" }, { "deltaTime": 13, "channel": 3, "type": "channel", "subtype": "noteOff", "noteNumber": 67, "velocity": 64 }, { "deltaTime": 18, "channel": 3, "type": "channel", "subtype": "noteOff", "noteNumber": 71, "velocity": 64 }, { "deltaTime": 256, "channel": 3, "type": "channel", "noteNumber": 69, "velocity": 87, "subtype": "noteOn" }, { "deltaTime": 0, "channel": 3, "type": "channel", "noteNumber": 76, "velocity": 91, "subtype": "noteOn" }, { "deltaTime": 0, "channel": 3, "type": "channel", "noteNumber": 73, "velocity": 91, "subtype": "noteOn" }, { "deltaTime": 142, "channel": 3, "type": "channel", "noteNumber": 79, "velocity": 92, "subtype": "noteOn" }, { "deltaTime": 127, "channel": 3, "type": "channel", "subtype": "noteOff", "noteNumber": 49, "velocity": 64 }, { "deltaTime": 6, "channel": 3, "type": "channel", "subtype": "noteOff", "noteNumber": 52, "velocity": 64 }, { "deltaTime": 6, "channel": 3, "type": "channel", "subtype": "noteOff", "noteNumber": 57, "velocity": 64 }, { "deltaTime": 200, "channel": 3, "type": "channel", "noteNumber": 54, "velocity": 97, "subtype": "noteOn" }, { "deltaTime": 0, "channel": 3, "type": "channel", "noteNumber": 50, "velocity": 82, "subtype": "noteOn" }, { "deltaTime": 0, "channel": 3, "type": "channel", "noteNumber": 57, "velocity": 87, "subtype": "noteOn" }, { "deltaTime": 11, "channel": 3, "type": "channel", "subtype": "noteOff", "noteNumber": 79, "velocity": 64 }, { "deltaTime": 0, "channel": 3, "type": "channel", "subtype": "noteOff", "noteNumber": 76, "velocity": 64 }, { "deltaTime": 2, "channel": 3, "type": "channel", "subtype": "noteOff", "noteNumber": 73, "velocity": 64 }, { "deltaTime": 26, "channel": 3, "type": "channel", "subtype": "noteOff", "noteNumber": 69, "velocity": 64 }, { "deltaTime": 248, "channel": 3, "type": "channel", "noteNumber": 62, "velocity": 102, "subtype": "noteOn" }, { "deltaTime": 96, "channel": 3, "type": "channel", "noteNumber": 66, "velocity": 92, "subtype": "noteOn" }, { "deltaTime": 97, "channel": 3, "type": "channel", "noteNumber": 69, "velocity": 90, "subtype": "noteOn" }, { "deltaTime": 59, "channel": 3, "type": "channel", "subtype": "noteOff", "noteNumber": 62, "velocity": 64 }, { "deltaTime": 38, "channel": 3, "type": "channel", "noteNumber": 62, "velocity": 89, "subtype": "noteOn" }, { "deltaTime": 59, "channel": 3, "type": "channel", "subtype": "noteOff", "noteNumber": 54, "velocity": 64 }, { "deltaTime": 4, "channel": 3, "type": "channel", "subtype": "noteOff", "noteNumber": 57, "velocity": 64 }, { "deltaTime": 4, "channel": 3, "type": "channel", "subtype": "noteOff", "noteNumber": 50, "velocity": 64 }, { "deltaTime": 125, "channel": 3, "type": "channel", "noteNumber": 54, "velocity": 95, "subtype": "noteOn" }, { "deltaTime": 0, "channel": 3, "type": "channel", "noteNumber": 59, "velocity": 96, "subtype": "noteOn" }, { "deltaTime": 0, "channel": 3, "type": "channel", "noteNumber": 50, "velocity": 88, "subtype": "noteOn" }, { "deltaTime": 22, "channel": 3, "type": "channel", "subtype": "noteOff", "noteNumber": 62, "velocity": 64 }, { "deltaTime": 12, "channel": 3, "type": "channel", "subtype": "noteOff", "noteNumber": 66, "velocity": 64 }, { "deltaTime": 3, "channel": 3, "type": "channel", "subtype": "noteOff", "noteNumber": 69, "velocity": 64 }, { "deltaTime": 249, "channel": 3, "type": "channel", "noteNumber": 62, "velocity": 94, "subtype": "noteOn" }, { "deltaTime": 98, "channel": 3, "type": "channel", "noteNumber": 66, "velocity": 91, "subtype": "noteOn" }, { "deltaTime": 190, "channel": 3, "type": "channel", "noteNumber": 71, "velocity": 95, "subtype": "noteOn" }, { "deltaTime": 48, "channel": 3, "type": "channel", "subtype": "noteOff", "noteNumber": 50, "velocity": 64 }, { "deltaTime": 2, "channel": 3, "type": "channel", "subtype": "noteOff", "noteNumber": 54, "velocity": 64 }, { "deltaTime": 2, "channel": 3, "type": "channel", "subtype": "noteOff", "noteNumber": 59, "velocity": 64 }, { "deltaTime": 142, "channel": 3, "type": "channel", "noteNumber": 59, "velocity": 95, "subtype": "noteOn" }, { "deltaTime": 0, "channel": 3, "type": "channel", "noteNumber": 52, "velocity": 86, "subtype": "noteOn" }, { "deltaTime": 0, "channel": 3, "type": "channel", "noteNumber": 55, "velocity": 87, "subtype": "noteOn" }, { "deltaTime": 14, "channel": 3, "type": "channel", "subtype": "noteOff", "noteNumber": 66, "velocity": 64 }, { "deltaTime": 20, "channel": 3, "type": "channel", "subtype": "noteOff", "noteNumber": 62, "velocity": 64 }, { "deltaTime": 16, "channel": 3, "type": "channel", "subtype": "noteOff", "noteNumber": 71, "velocity": 64 }, { "deltaTime": 236, "channel": 3, "type": "channel", "noteNumber": 71, "velocity": 95, "subtype": "noteOn" }, { "deltaTime": 96, "channel": 3, "type": "channel", "noteNumber": 67, "velocity": 79, "subtype": "noteOn" }, { "deltaTime": 97, "channel": 3, "type": "channel", "noteNumber": 64, "velocity": 94, "subtype": "noteOn" }, { "deltaTime": 83, "channel": 3, "type": "channel", "subtype": "noteOff", "noteNumber": 67, "velocity": 64 }, { "deltaTime": 14, "channel": 3, "type": "channel", "noteNumber": 67, "velocity": 94, "subtype": "noteOn" }, { "deltaTime": 14, "channel": 3, "type": "channel", "subtype": "noteOff", "noteNumber": 52, "velocity": 64 }, { "deltaTime": 6, "channel": 3, "type": "channel", "subtype": "noteOff", "noteNumber": 55, "velocity": 64 }, { "deltaTime": 20, "channel": 3, "type": "channel", "subtype": "noteOff", "noteNumber": 59, "velocity": 64 }, { "deltaTime": 151, "channel": 3, "type": "channel", "subtype": "noteOff", "noteNumber": 64, "velocity": 64 }, { "deltaTime": 0, "channel": 3, "type": "channel", "noteNumber": 57, "velocity": 99, "subtype": "noteOn" }, { "deltaTime": 1, "channel": 3, "type": "channel", "subtype": "noteOff", "noteNumber": 67, "velocity": 64 }, { "deltaTime": 0, "channel": 3, "type": "channel", "noteNumber": 49, "velocity": 104, "subtype": "noteOn" }, { "deltaTime": 0, "channel": 3, "type": "channel", "noteNumber": 52, "velocity": 90, "subtype": "noteOn" }, { "deltaTime": 30, "channel": 3, "type": "channel", "subtype": "noteOff", "noteNumber": 71, "velocity": 64 }, { "deltaTime": 256, "channel": 3, "type": "channel", "noteNumber": 73, "velocity": 105, "subtype": "noteOn" }, { "deltaTime": 1, "channel": 3, "type": "channel", "noteNumber": 69, "velocity": 75, "subtype": "noteOn" }, { "deltaTime": 192, "channel": 3, "type": "channel", "noteNumber": 76, "velocity": 94, "subtype": "noteOn" }, { "deltaTime": 60, "channel": 3, "type": "channel", "subtype": "noteOff", "noteNumber": 69, "velocity": 64 }, { "deltaTime": 36, "channel": 3, "type": "channel", "noteNumber": 69, "velocity": 95, "subtype": "noteOn" }, { "deltaTime": 11, "channel": 3, "type": "channel", "subtype": "noteOff", "noteNumber": 49, "velocity": 64 }, { "deltaTime": 0, "channel": 3, "type": "channel", "subtype": "noteOff", "noteNumber": 52, "velocity": 64 }, { "deltaTime": 15, "channel": 3, "type": "channel", "subtype": "noteOff", "noteNumber": 57, "velocity": 64 }, { "deltaTime": 44, "channel": 3, "type": "channel", "subtype": "noteOff", "noteNumber": 76, "velocity": 64 }, { "deltaTime": 29, "channel": 3, "type": "channel", "subtype": "noteOff", "noteNumber": 73, "velocity": 64 }, { "deltaTime": 7, "channel": 3, "type": "channel", "subtype": "noteOff", "noteNumber": 69, "velocity": 64 }, { "deltaTime": 85, "channel": 3, "type": "channel", "noteNumber": 50, "velocity": 79, "subtype": "noteOn" }, { "deltaTime": 0, "channel": 3, "type": "channel", "noteNumber": 54, "velocity": 99, "subtype": "noteOn" }, { "deltaTime": 0, "channel": 3, "type": "channel", "noteNumber": 57, "velocity": 93, "subtype": "noteOn" }, { "deltaTime": 344, "channel": 3, "type": "channel", "subtype": "noteOff", "noteNumber": 54, "velocity": 64 }, { "deltaTime": 138, "channel": 3, "type": "channel", "noteNumber": 54, "velocity": 94, "subtype": "noteOn" }, { "deltaTime": 48, "channel": 3, "type": "channel", "subtype": "noteOff", "noteNumber": 57, "velocity": 64 }, { "deltaTime": 48, "channel": 3, "type": "channel", "noteNumber": 57, "velocity": 86, "subtype": "noteOn" }, { "deltaTime": 96, "channel": 3, "type": "channel", "noteNumber": 62, "velocity": 96, "subtype": "noteOn" }, { "deltaTime": 24, "channel": 3, "type": "channel", "subtype": "noteOff", "noteNumber": 54, "velocity": 64 }, { "deltaTime": 0, "channel": 3, "type": "channel", "subtype": "noteOff", "noteNumber": 57, "velocity": 64 }, { "deltaTime": 20, "channel": 3, "type": "channel", "subtype": "noteOff", "noteNumber": 50, "velocity": 64 }, { "deltaTime": 53, "channel": 3, "type": "channel", "noteNumber": 50, "velocity": 86, "subtype": "noteOn" }, { "deltaTime": 190, "channel": 3, "type": "channel", "noteNumber": 54, "velocity": 79, "subtype": "noteOn" }, { "deltaTime": 97, "channel": 3, "type": "channel", "noteNumber": 57, "velocity": 86, "subtype": "noteOn" }, { "deltaTime": 191, "channel": 3, "type": "channel", "noteNumber": 69, "velocity": 90, "subtype": "noteOn" }, { "deltaTime": 88, "channel": 3, "type": "channel", "subtype": "noteOff", "noteNumber": 54, "velocity": 64 }, { "deltaTime": 6, "channel": 3, "type": "channel", "subtype": "noteOff", "noteNumber": 50, "velocity": 64 }, { "deltaTime": 3, "channel": 3, "type": "channel", "noteNumber": 66, "velocity": 105, "subtype": "noteOn" }, { "deltaTime": 22, "channel": 3, "type": "channel", "subtype": "noteOff", "noteNumber": 57, "velocity": 64 }, { "deltaTime": 158, "channel": 3, "type": "channel", "subtype": "noteOff", "noteNumber": 66, "velocity": 64 }, { "deltaTime": 4, "channel": 3, "type": "channel", "subtype": "noteOff", "noteNumber": 62, "velocity": 64 }, { "deltaTime": 7, "channel": 3, "type": "channel", "noteNumber": 52, "velocity": 85, "subtype": "noteOn" }, { "deltaTime": 0, "channel": 3, "type": "channel", "noteNumber": 59, "velocity": 96, "subtype": "noteOn" }, { "deltaTime": 0, "channel": 3, "type": "channel", "noteNumber": 55, "velocity": 87, "subtype": "noteOn" }, { "deltaTime": 12, "channel": 3, "type": "channel", "subtype": "noteOff", "noteNumber": 69, "velocity": 64 }, { "deltaTime": 180, "channel": 3, "type": "channel", "noteNumber": 64, "velocity": 91, "subtype": "noteOn" }, { "deltaTime": 0, "channel": 3, "type": "channel", "noteNumber": 71, "velocity": 82, "subtype": "noteOn" }, { "deltaTime": 1, "channel": 3, "type": "channel", "noteNumber": 67, "velocity": 72, "subtype": "noteOn" }, { "deltaTime": 49, "channel": 3, "type": "channel", "subtype": "noteOff", "noteNumber": 55, "velocity": 64 }, { "deltaTime": 4, "channel": 3, "type": "channel", "subtype": "noteOff", "noteNumber": 52, "velocity": 64 }, { "deltaTime": 4, "channel": 3, "type": "channel", "subtype": "noteOff", "noteNumber": 59, "velocity": 64 }, { "deltaTime": 135, "channel": 3, "type": "channel", "noteNumber": 57, "velocity": 97, "subtype": "noteOn" }, { "deltaTime": 0, "channel": 3, "type": "channel", "noteNumber": 52, "velocity": 90, "subtype": "noteOn" }, { "deltaTime": 0, "channel": 3, "type": "channel", "noteNumber": 49, "velocity": 98, "subtype": "noteOn" }, { "deltaTime": 1, "channel": 3, "type": "channel", "subtype": "noteOff", "noteNumber": 64, "velocity": 64 }, { "deltaTime": 7, "channel": 3, "type": "channel", "subtype": "noteOff", "noteNumber": 67, "velocity": 64 }, { "deltaTime": 5, "channel": 3, "type": "channel", "subtype": "noteOff", "noteNumber": 71, "velocity": 64 }, { "deltaTime": 82, "channel": 3, "type": "channel", "noteNumber": 69, "velocity": 94, "subtype": "noteOn" }, { "deltaTime": 0, "channel": 3, "type": "channel", "noteNumber": 73, "velocity": 99, "subtype": "noteOn" }, { "deltaTime": 98, "channel": 3, "type": "channel", "noteNumber": 76, "velocity": 87, "subtype": "noteOn" }, { "deltaTime": 55, "channel": 3, "type": "channel", "subtype": "noteOff", "noteNumber": 49, "velocity": 64 }, { "deltaTime": 26, "channel": 3, "type": "channel", "subtype": "noteOff", "noteNumber": 57, "velocity": 64 }, { "deltaTime": 0, "channel": 3, "type": "channel", "subtype": "noteOff", "noteNumber": 52, "velocity": 64 }, { "deltaTime": 99, "channel": 3, "type": "channel", "subtype": "noteOff", "noteNumber": 76, "velocity": 64 }, { "deltaTime": 10, "channel": 3, "type": "channel", "noteNumber": 50, "velocity": 84, "subtype": "noteOn" }, { "deltaTime": 0, "channel": 3, "type": "channel", "noteNumber": 54, "velocity": 92, "subtype": "noteOn" }, { "deltaTime": 1, "channel": 3, "type": "channel", "noteNumber": 57, "velocity": 81, "subtype": "noteOn" }, { "deltaTime": 5, "channel": 3, "type": "channel", "subtype": "noteOff", "noteNumber": 73, "velocity": 64 }, { "deltaTime": 22, "channel": 3, "type": "channel", "subtype": "noteOff", "noteNumber": 69, "velocity": 64 }, { "deltaTime": 260, "channel": 3, "type": "channel", "noteNumber": 62, "velocity": 106, "subtype": "noteOn" }, { "deltaTime": 97, "channel": 3, "type": "channel", "noteNumber": 66, "velocity": 101, "subtype": "noteOn" }, { "deltaTime": 191, "channel": 3, "type": "channel", "noteNumber": 69, "velocity": 93, "subtype": "noteOn" }, { "deltaTime": 12, "channel": 3, "type": "channel", "subtype": "noteOff", "noteNumber": 54, "velocity": 64 }, { "deltaTime": 2, "channel": 3, "type": "channel", "subtype": "noteOff", "noteNumber": 50, "velocity": 64 }, { "deltaTime": 25, "channel": 3, "type": "channel", "subtype": "noteOff", "noteNumber": 57, "velocity": 64 }, { "deltaTime": 153, "channel": 3, "type": "channel", "noteNumber": 59, "velocity": 99, "subtype": "noteOn" }, { "deltaTime": 0, "channel": 3, "type": "channel", "noteNumber": 52, "velocity": 88, "subtype": "noteOn" }, { "deltaTime": 0, "channel": 3, "type": "channel", "noteNumber": 55, "velocity": 92, "subtype": "noteOn" }, { "deltaTime": 1, "channel": 3, "type": "channel", "subtype": "noteOff", "noteNumber": 66, "velocity": 64 }, { "deltaTime": 9, "channel": 3, "type": "channel", "subtype": "noteOff", "noteNumber": 62, "velocity": 64 }, { "deltaTime": 14, "channel": 3, "type": "channel", "subtype": "noteOff", "noteNumber": 69, "velocity": 64 }, { "deltaTime": 263, "channel": 3, "type": "channel", "noteNumber": 76, "velocity": 101, "subtype": "noteOn" }, { "deltaTime": 191, "channel": 3, "type": "channel", "noteNumber": 79, "velocity": 91, "subtype": "noteOn" }, { "deltaTime": 82, "channel": 3, "type": "channel", "subtype": "noteOff", "noteNumber": 52, "velocity": 64 }, { "deltaTime": 4, "channel": 3, "type": "channel", "subtype": "noteOff", "noteNumber": 55, "velocity": 64 }, { "deltaTime": 8, "channel": 3, "type": "channel", "subtype": "noteOff", "noteNumber": 59, "velocity": 64 }, { "deltaTime": 4, "channel": 3, "type": "channel", "noteNumber": 83, "velocity": 96, "subtype": "noteOn" }, { "deltaTime": 154, "channel": 3, "type": "channel", "subtype": "noteOff", "noteNumber": 83, "velocity": 64 }, { "deltaTime": 22, "channel": 3, "type": "channel", "subtype": "noteOff", "noteNumber": 79, "velocity": 64 }, { "deltaTime": 13, "channel": 3, "type": "channel", "noteNumber": 57, "velocity": 93, "subtype": "noteOn" }, { "deltaTime": 0, "channel": 3, "type": "channel", "noteNumber": 49, "velocity": 95, "subtype": "noteOn" }, { "deltaTime": 0, "channel": 3, "type": "channel", "noteNumber": 52, "velocity": 86, "subtype": "noteOn" }, { "deltaTime": 4, "channel": 3, "type": "channel", "subtype": "noteOff", "noteNumber": 76, "velocity": 64 }, { "deltaTime": 286, "channel": 3, "type": "channel", "noteNumber": 69, "velocity": 74, "subtype": "noteOn" }, { "deltaTime": 0, "channel": 3, "type": "channel", "noteNumber": 73, "velocity": 86, "subtype": "noteOn" }, { "deltaTime": 0, "channel": 3, "type": "channel", "noteNumber": 76, "velocity": 81, "subtype": "noteOn" }, { "deltaTime": 194, "channel": 3, "type": "channel", "noteNumber": 79, "velocity": 87, "subtype": "noteOn" }, { "deltaTime": 94, "channel": 3, "type": "channel", "subtype": "noteOff", "noteNumber": 49, "velocity": 64 }, { "deltaTime": 8, "channel": 3, "type": "channel", "subtype": "noteOff", "noteNumber": 52, "velocity": 64 }, { "deltaTime": 10, "channel": 3, "type": "channel", "subtype": "noteOff", "noteNumber": 57, "velocity": 64 }, { "deltaTime": 104, "channel": 3, "type": "channel", "subtype": "noteOff", "noteNumber": 79, "velocity": 64 }, { "deltaTime": 44, "channel": 3, "type": "channel", "subtype": "noteOff", "noteNumber": 76, "velocity": 64 }, { "deltaTime": 6, "channel": 3, "type": "channel", "subtype": "noteOff", "noteNumber": 73, "velocity": 64 }, { "deltaTime": 19, "channel": 3, "type": "channel", "noteNumber": 50, "velocity": 86, "subtype": "noteOn" }, { "deltaTime": 0, "channel": 3, "type": "channel", "noteNumber": 54, "velocity": 94, "subtype": "noteOn" }, { "deltaTime": 1, "channel": 3, "type": "channel", "noteNumber": 57, "velocity": 81, "subtype": "noteOn" }, { "deltaTime": 8, "channel": 3, "type": "channel", "subtype": "noteOff", "noteNumber": 69, "velocity": 64 }, { "deltaTime": 281, "channel": 3, "type": "channel", "noteNumber": 62, "velocity": 104, "subtype": "noteOn" }, { "deltaTime": 0, "channel": 3, "type": "channel", "noteNumber": 66, "velocity": 75, "subtype": "noteOn" }, { "deltaTime": 18, "channel": 3, "type": "channel", "subtype": "noteOff", "noteNumber": 66, "velocity": 64 }, { "deltaTime": 78, "channel": 3, "type": "channel", "noteNumber": 66, "velocity": 101, "subtype": "noteOn" }, { "deltaTime": 96, "channel": 3, "type": "channel", "noteNumber": 69, "velocity": 91, "subtype": "noteOn" }, { "deltaTime": 54, "channel": 3, "type": "channel", "subtype": "noteOff", "noteNumber": 62, "velocity": 64 }, { "deltaTime": 40, "channel": 3, "type": "channel", "subtype": "noteOff", "noteNumber": 54, "velocity": 64 }, { "deltaTime": 2, "channel": 3, "type": "channel", "noteNumber": 62, "velocity": 100, "subtype": "noteOn" }, { "deltaTime": 4, "channel": 3, "type": "channel", "subtype": "noteOff", "noteNumber": 50, "velocity": 64 }, { "deltaTime": 19, "channel": 3, "type": "channel", "subtype": "noteOff", "noteNumber": 57, "velocity": 64 }, { "deltaTime": 127, "channel": 3, "type": "channel", "subtype": "noteOff", "noteNumber": 62, "velocity": 64 }, { "deltaTime": 4, "channel": 3, "type": "channel", "subtype": "noteOff", "noteNumber": 66, "velocity": 64 }, { "deltaTime": 14, "channel": 3, "type": "channel", "subtype": "noteOff", "noteNumber": 69, "velocity": 64 }, { "deltaTime": 24, "channel": 3, "type": "channel", "noteNumber": 59, "velocity": 94, "subtype": "noteOn" }, { "deltaTime": 0, "channel": 3, "type": "channel", "noteNumber": 52, "velocity": 73, "subtype": "noteOn" }, { "deltaTime": 0, "channel": 3, "type": "channel", "noteNumber": 55, "velocity": 87, "subtype": "noteOn" }, { "deltaTime": 254, "channel": 3, "type": "channel", "subtype": "noteOff", "noteNumber": 52, "velocity": 64 }, { "deltaTime": 24, "channel": 3, "type": "channel", "subtype": "noteOff", "noteNumber": 55, "velocity": 64 }, { "deltaTime": 18, "channel": 3, "type": "channel", "subtype": "noteOff", "noteNumber": 59, "velocity": 64 }, { "deltaTime": 87, "channel": 3, "type": "channel", "noteNumber": 49, "velocity": 98, "subtype": "noteOn" }, { "deltaTime": 1, "channel": 3, "type": "channel", "noteNumber": 57, "velocity": 99, "subtype": "noteOn" }, { "deltaTime": 0, "channel": 3, "type": "channel", "noteNumber": 52, "velocity": 81, "subtype": "noteOn" }, { "deltaTime": 191, "channel": 3, "type": "channel", "noteNumber": 69, "velocity": 79, "subtype": "noteOn" }, { "deltaTime": 0, "channel": 3, "type": "channel", "noteNumber": 73, "velocity": 86, "subtype": "noteOn" }, { "deltaTime": 1, "channel": 3, "type": "channel", "noteNumber": 76, "velocity": 75, "subtype": "noteOn" }, { "deltaTime": 42, "channel": 3, "type": "channel", "subtype": "noteOff", "noteNumber": 52, "velocity": 64 }, { "deltaTime": 1, "channel": 3, "type": "channel", "subtype": "noteOff", "noteNumber": 49, "velocity": 64 }, { "deltaTime": 17, "channel": 3, "type": "channel", "subtype": "noteOff", "noteNumber": 57, "velocity": 64 }, { "deltaTime": 100, "channel": 3, "type": "channel", "subtype": "noteOff", "noteNumber": 76, "velocity": 64 }, { "deltaTime": 5, "channel": 3, "type": "channel", "subtype": "noteOff", "noteNumber": 73, "velocity": 64 }, { "deltaTime": 25, "channel": 3, "type": "channel", "noteNumber": 54, "velocity": 98, "subtype": "noteOn" }, { "deltaTime": 1, "channel": 3, "type": "channel", "noteNumber": 50, "velocity": 81, "subtype": "noteOn" }, { "deltaTime": 0, "channel": 3, "type": "channel", "noteNumber": 57, "velocity": 88, "subtype": "noteOn" }, { "deltaTime": 2, "channel": 3, "type": "channel", "subtype": "noteOff", "noteNumber": 69, "velocity": 64 }, { "deltaTime": 286, "channel": 3, "type": "channel", "noteNumber": 62, "velocity": 89, "subtype": "noteOn" }, { "deltaTime": 97, "channel": 3, "type": "channel", "noteNumber": 66, "velocity": 96, "subtype": "noteOn" }, { "deltaTime": 97, "channel": 3, "type": "channel", "noteNumber": 69, "velocity": 89, "subtype": "noteOn" }, { "deltaTime": 64, "channel": 3, "type": "channel", "subtype": "noteOff", "noteNumber": 62, "velocity": 64 }, { "deltaTime": 32, "channel": 3, "type": "channel", "noteNumber": 62, "velocity": 91, "subtype": "noteOn" }, { "deltaTime": 9, "channel": 3, "type": "channel", "subtype": "noteOff", "noteNumber": 54, "velocity": 64 }, { "deltaTime": 3, "channel": 3, "type": "channel", "subtype": "noteOff", "noteNumber": 50, "velocity": 64 }, { "deltaTime": 2, "channel": 3, "type": "channel", "subtype": "noteOff", "noteNumber": 57, "velocity": 64 }, { "deltaTime": 126, "channel": 3, "type": "channel", "noteNumber": 50, "velocity": 36, "subtype": "noteOn" }, { "deltaTime": 51, "channel": 3, "type": "channel", "noteNumber": 54, "velocity": 110, "subtype": "noteOn" }, { "deltaTime": 21, "channel": 3, "type": "channel", "subtype": "noteOff", "noteNumber": 62, "velocity": 64 }, { "deltaTime": 15, "channel": 3, "type": "channel", "subtype": "noteOff", "noteNumber": 66, "velocity": 64 }, { "deltaTime": 13, "channel": 3, "type": "channel", "subtype": "noteOff", "noteNumber": 69, "velocity": 64 }, { "deltaTime": 47, "channel": 3, "type": "channel", "noteNumber": 57, "velocity": 94, "subtype": "noteOn" }, { "deltaTime": 97, "channel": 3, "type": "channel", "noteNumber": 74, "velocity": 103, "subtype": "noteOn" }, { "deltaTime": 96, "channel": 3, "type": "channel", "noteNumber": 78, "velocity": 90, "subtype": "noteOn" }, { "deltaTime": 191, "channel": 3, "type": "channel", "noteNumber": 81, "velocity": 86, "subtype": "noteOn" }, { "deltaTime": 35, "channel": 3, "type": "channel", "subtype": "noteOff", "noteNumber": 74, "velocity": 64 }, { "deltaTime": 53, "channel": 3, "type": "channel", "subtype": "noteOff", "noteNumber": 54, "velocity": 64 }, { "deltaTime": 8, "channel": 3, "type": "channel", "subtype": "noteOff", "noteNumber": 57, "velocity": 64 }, { "deltaTime": 0, "channel": 3, "type": "channel", "noteNumber": 74, "velocity": 95, "subtype": "noteOn" }, { "deltaTime": 19, "channel": 3, "type": "channel", "subtype": "noteOff", "noteNumber": 50, "velocity": 64 }, { "deltaTime": 172, "channel": 3, "type": "channel", "subtype": "noteOff", "noteNumber": 78, "velocity": 64 }, { "deltaTime": 1, "channel": 3, "type": "channel", "subtype": "noteOff", "noteNumber": 81, "velocity": 64 }, { "deltaTime": 0, "channel": 3, "type": "channel", "noteNumber": 50, "velocity": 97, "subtype": "noteOn" }, { "deltaTime": 28, "channel": 3, "type": "channel", "subtype": "noteOff", "noteNumber": 74, "velocity": 64 }, { "deltaTime": 68, "channel": 3, "type": "channel", "noteNumber": 54, "velocity": 98, "subtype": "noteOn" }, { "deltaTime": 96, "channel": 3, "type": "channel", "noteNumber": 57, "velocity": 97, "subtype": "noteOn" }, { "deltaTime": 96, "channel": 3, "type": "channel", "noteNumber": 62, "velocity": 99, "subtype": "noteOn" }, { "deltaTime": 192, "channel": 3, "type": "channel", "noteNumber": 69, "velocity": 88, "subtype": "noteOn" }, { "deltaTime": 96, "channel": 3, "type": "channel", "noteNumber": 66, "velocity": 105, "subtype": "noteOn" }, { "deltaTime": 38, "channel": 3, "type": "channel", "subtype": "noteOff", "noteNumber": 54, "velocity": 64 }, { "deltaTime": 8, "channel": 3, "type": "channel", "subtype": "noteOff", "noteNumber": 62, "velocity": 64 }, { "deltaTime": 4, "channel": 3, "type": "channel", "subtype": "noteOff", "noteNumber": 50, "velocity": 64 }, { "deltaTime": 0, "channel": 3, "type": "channel", "subtype": "noteOff", "noteNumber": 57, "velocity": 64 }, { "deltaTime": 45, "channel": 3, "type": "channel", "noteNumber": 62, "velocity": 50, "subtype": "noteOn" }, { "deltaTime": 89, "channel": 3, "type": "channel", "subtype": "noteOff", "noteNumber": 66, "velocity": 64 }, { "deltaTime": 3, "channel": 3, "type": "channel", "subtype": "noteOff", "noteNumber": 62, "velocity": 64 }, { "deltaTime": 5, "channel": 3, "type": "channel", "noteNumber": 57, "velocity": 84, "subtype": "noteOn" }, { "deltaTime": 0, "channel": 3, "type": "channel", "noteNumber": 49, "velocity": 92, "subtype": "noteOn" }, { "deltaTime": 1, "channel": 3, "type": "channel", "noteNumber": 52, "velocity": 82, "subtype": "noteOn" }, { "deltaTime": 9, "channel": 3, "type": "channel", "subtype": "noteOff", "noteNumber": 69, "velocity": 64 }, { "deltaTime": 183, "channel": 3, "type": "channel", "noteNumber": 69, "velocity": 99, "subtype": "noteOn" }, { "deltaTime": 96, "channel": 3, "type": "channel", "noteNumber": 73, "velocity": 99, "subtype": "noteOn" }, { "deltaTime": 191, "channel": 3, "type": "channel", "noteNumber": 76, "velocity": 91, "subtype": "noteOn" }, { "deltaTime": 47, "channel": 3, "type": "channel", "subtype": "noteOff", "noteNumber": 69, "velocity": 64 }, { "deltaTime": 50, "channel": 3, "type": "channel", "noteNumber": 69, "velocity": 92, "subtype": "noteOn" }, { "deltaTime": 7, "channel": 3, "type": "channel", "subtype": "noteOff", "noteNumber": 49, "velocity": 64 }, { "deltaTime": 5, "channel": 3, "type": "channel", "subtype": "noteOff", "noteNumber": 52, "velocity": 64 }, { "deltaTime": 29, "channel": 3, "type": "channel", "subtype": "noteOff", "noteNumber": 57, "velocity": 64 }, { "deltaTime": 117, "channel": 3, "type": "channel", "subtype": "noteOff", "noteNumber": 73, "velocity": 64 }, { "deltaTime": 9, "channel": 3, "type": "channel", "subtype": "noteOff", "noteNumber": 76, "velocity": 64 }, { "deltaTime": 15, "channel": 3, "type": "channel", "subtype": "noteOff", "noteNumber": 69, "velocity": 64 }, { "deltaTime": 9, "channel": 3, "type": "channel", "noteNumber": 54, "velocity": 91, "subtype": "noteOn" }, { "deltaTime": 0, "channel": 3, "type": "channel", "noteNumber": 50, "velocity": 82, "subtype": "noteOn" }, { "deltaTime": 0, "channel": 3, "type": "channel", "noteNumber": 57, "velocity": 86, "subtype": "noteOn" }, { "deltaTime": 193, "channel": 3, "type": "channel", "noteNumber": 62, "velocity": 96, "subtype": "noteOn" }, { "deltaTime": 96, "channel": 3, "type": "channel", "noteNumber": 66, "velocity": 96, "subtype": "noteOn" }, { "deltaTime": 191, "channel": 3, "type": "channel", "noteNumber": 69, "velocity": 92, "subtype": "noteOn" }, { "deltaTime": 37, "channel": 3, "type": "channel", "subtype": "noteOff", "noteNumber": 62, "velocity": 64 }, { "deltaTime": 61, "channel": 3, "type": "channel", "noteNumber": 62, "velocity": 95, "subtype": "noteOn" }, { "deltaTime": 28, "channel": 3, "type": "channel", "subtype": "noteOff", "noteNumber": 54, "velocity": 64 }, { "deltaTime": 10, "channel": 3, "type": "channel", "subtype": "noteOff", "noteNumber": 50, "velocity": 64 }, { "deltaTime": 0, "channel": 3, "type": "channel", "subtype": "noteOff", "noteNumber": 57, "velocity": 64 }, { "deltaTime": 152, "channel": 3, "type": "channel", "noteNumber": 50, "velocity": 92, "subtype": "noteOn" }, { "deltaTime": 96, "channel": 3, "type": "channel", "noteNumber": 54, "velocity": 95, "subtype": "noteOn" }, { "deltaTime": 6, "channel": 3, "type": "channel", "subtype": "noteOff", "noteNumber": 62, "velocity": 64 }, { "deltaTime": 19, "channel": 3, "type": "channel", "subtype": "noteOff", "noteNumber": 66, "velocity": 64 }, { "deltaTime": 19, "channel": 3, "type": "channel", "subtype": "noteOff", "noteNumber": 69, "velocity": 64 }, { "deltaTime": 52, "channel": 3, "type": "channel", "noteNumber": 57, "velocity": 92, "subtype": "noteOn" }, { "deltaTime": 60, "channel": 3, "type": "channel", "subtype": "controller", "controllerType": 64, "value": 127 }, { "deltaTime": 36, "channel": 3, "type": "channel", "noteNumber": 74, "velocity": 90, "subtype": "noteOn" }, { "deltaTime": 96, "channel": 3, "type": "channel", "noteNumber": 78, "velocity": 86, "subtype": "noteOn" }, { "deltaTime": 96, "channel": 3, "type": "channel", "noteNumber": 81, "velocity": 86, "subtype": "noteOn" }, { "deltaTime": 32, "channel": 3, "type": "channel", "subtype": "noteOff", "noteNumber": 74, "velocity": 64 }, { "deltaTime": 54, "channel": 3, "type": "channel", "subtype": "noteOff", "noteNumber": 54, "velocity": 64 }, { "deltaTime": 2, "channel": 3, "type": "channel", "subtype": "noteOff", "noteNumber": 50, "velocity": 64 }, { "deltaTime": 9, "channel": 3, "type": "channel", "noteNumber": 74, "velocity": 89, "subtype": "noteOn" }, { "deltaTime": 23, "channel": 3, "type": "channel", "subtype": "noteOff", "noteNumber": 57, "velocity": 64 }, { "deltaTime": 98, "channel": 3, "type": "channel", "subtype": "controller", "controllerType": 64, "value": 0 }, { "deltaTime": 26, "channel": 3, "type": "channel", "subtype": "noteOff", "noteNumber": 81, "velocity": 64 }, { "deltaTime": 6, "channel": 3, "type": "channel", "subtype": "noteOff", "noteNumber": 78, "velocity": 64 }, { "deltaTime": 7, "channel": 3, "type": "channel", "subtype": "noteOff", "noteNumber": 74, "velocity": 64 }, { "deltaTime": 31, "channel": 3, "type": "channel", "noteNumber": 54, "velocity": 106, "subtype": "noteOn" }, { "deltaTime": 0, "channel": 3, "type": "channel", "noteNumber": 50, "velocity": 96, "subtype": "noteOn" }, { "deltaTime": 0, "channel": 3, "type": "channel", "noteNumber": 59, "velocity": 112, "subtype": "noteOn" }, { "deltaTime": 1340, "channel": 3, "type": "channel", "subtype": "noteOff", "noteNumber": 59, "velocity": 64 }, { "deltaTime": 2, "channel": 3, "type": "channel", "subtype": "noteOff", "noteNumber": 50, "velocity": 64 }, { "deltaTime": 4, "channel": 3, "type": "channel", "subtype": "noteOff", "noteNumber": 54, "velocity": 64 }, { "deltaTime": 187, "channel": 3, "type": "channel", "noteNumber": 54, "velocity": 95, "subtype": "noteOn" }, { "deltaTime": 1, "channel": 3, "type": "channel", "noteNumber": 57, "velocity": 86, "subtype": "noteOn" }, { "deltaTime": 0, "channel": 3, "type": "channel", "noteNumber": 62, "velocity": 97, "subtype": "noteOn" }, { "deltaTime": 0, "channel": 3, "type": "channel", "noteNumber": 69, "velocity": 90, "subtype": "noteOn" }, { "deltaTime": 0, "channel": 3, "type": "channel", "noteNumber": 50, "velocity": 78, "subtype": "noteOn" }, { "deltaTime": 0, "channel": 3, "type": "channel", "noteNumber": 66, "velocity": 100, "subtype": "noteOn" }, { "deltaTime": 86, "channel": 3, "type": "channel", "subtype": "controller", "controllerType": 64, "value": 127 }, { "deltaTime": 146, "channel": 3, "type": "channel", "subtype": "noteOff", "noteNumber": 66, "velocity": 64 }, { "deltaTime": 0, "channel": 3, "type": "channel", "subtype": "noteOff", "noteNumber": 69, "velocity": 64 }, { "deltaTime": 0, "channel": 3, "type": "channel", "subtype": "noteOff", "noteNumber": 62, "velocity": 64 }, { "deltaTime": 56, "channel": 3, "type": "channel", "noteNumber": 62, "velocity": 89, "subtype": "noteOn" }, { "deltaTime": 99, "channel": 3, "type": "channel", "noteNumber": 66, "velocity": 95, "subtype": "noteOn" }, { "deltaTime": 86, "channel": 3, "type": "channel", "subtype": "noteOff", "noteNumber": 54, "velocity": 64 }, { "deltaTime": 5, "channel": 3, "type": "channel", "subtype": "noteOff", "noteNumber": 50, "velocity": 64 }, { "deltaTime": 5, "channel": 3, "type": "channel", "noteNumber": 69, "velocity": 98, "subtype": "noteOn" }, { "deltaTime": 3, "channel": 3, "type": "channel", "subtype": "noteOff", "noteNumber": 57, "velocity": 64 }, { "deltaTime": 72, "channel": 3, "type": "channel", "subtype": "noteOff", "noteNumber": 62, "velocity": 64 }, { "deltaTime": 15, "channel": 3, "type": "channel", "subtype": "noteOff", "noteNumber": 66, "velocity": 64 }, { "deltaTime": 12, "channel": 3, "type": "channel", "subtype": "noteOff", "noteNumber": 69, "velocity": 64 }, { "deltaTime": 186, "channel": 3, "type": "channel", "noteNumber": 62, "velocity": 75, "subtype": "noteOn" }, { "deltaTime": 0, "channel": 3, "type": "channel", "noteNumber": 66, "velocity": 99, "subtype": "noteOn" }, { "deltaTime": 0, "channel": 3, "type": "channel", "noteNumber": 69, "velocity": 98, "subtype": "noteOn" }, { "deltaTime": 73, "channel": 3, "type": "channel", "subtype": "controller", "controllerType": 64, "value": 0 }, { "deltaTime": 213, "channel": 3, "type": "channel", "noteNumber": 74, "velocity": 99, "subtype": "noteOn" }, { "deltaTime": 97, "channel": 3, "type": "channel", "noteNumber": 78, "velocity": 99, "subtype": "noteOn" }, { "deltaTime": 19, "channel": 3, "type": "channel", "subtype": "noteOff", "noteNumber": 69, "velocity": 64 }, { "deltaTime": 16, "channel": 3, "type": "channel", "subtype": "noteOff", "noteNumber": 66, "velocity": 64 }, { "deltaTime": 14, "channel": 3, "type": "channel", "subtype": "noteOff", "noteNumber": 62, "velocity": 64 }, { "deltaTime": 47, "channel": 3, "type": "channel", "noteNumber": 81, "velocity": 96, "subtype": "noteOn" }, { "deltaTime": 65, "channel": 3, "type": "channel", "subtype": "noteOff", "noteNumber": 74, "velocity": 64 }, { "deltaTime": 32, "channel": 3, "type": "channel", "noteNumber": 74, "velocity": 89, "subtype": "noteOn" }, { "deltaTime": 111, "channel": 3, "type": "channel", "subtype": "noteOff", "noteNumber": 81, "velocity": 64 }, { "deltaTime": 11, "channel": 3, "type": "channel", "subtype": "noteOff", "noteNumber": 74, "velocity": 64 }, { "deltaTime": 7, "channel": 3, "type": "channel", "subtype": "noteOff", "noteNumber": 78, "velocity": 64 }, { "deltaTime": 62, "channel": 3, "type": "channel", "noteNumber": 74, "velocity": 97, "subtype": "noteOn" }, { "deltaTime": 0, "channel": 3, "type": "channel", "noteNumber": 78, "velocity": 99, "subtype": "noteOn" }, { "deltaTime": 0, "channel": 3, "type": "channel", "noteNumber": 54, "velocity": 93, "subtype": "noteOn" }, { "deltaTime": 1, "channel": 3, "type": "channel", "noteNumber": 50, "velocity": 88, "subtype": "noteOn" }, { "deltaTime": 0, "channel": 3, "type": "channel", "noteNumber": 59, "velocity": 96, "subtype": "noteOn" }, { "deltaTime": 0, "channel": 3, "type": "channel", "noteNumber": 83, "velocity": 100, "subtype": "noteOn" }, { "deltaTime": 17, "channel": 3, "type": "channel", "subtype": "controller", "controllerType": 64, "value": 127 }, { "deltaTime": 318, "channel": 3, "type": "channel", "subtype": "controller", "controllerType": 64, "value": 0 }, { "deltaTime": 684, "channel": 3, "type": "channel", "subtype": "noteOff", "noteNumber": 54, "velocity": 64 }, { "deltaTime": 27, "channel": 3, "type": "channel", "subtype": "noteOff", "noteNumber": 59, "velocity": 64 }, { "deltaTime": 6, "channel": 3, "type": "channel", "subtype": "noteOff", "noteNumber": 50, "velocity": 64 }, { "deltaTime": 208, "channel": 3, "type": "channel", "subtype": "noteOff", "noteNumber": 83, "velocity": 64 }, { "deltaTime": 15, "channel": 3, "type": "channel", "subtype": "noteOff", "noteNumber": 78, "velocity": 64 }, { "deltaTime": 22, "channel": 3, "type": "channel", "subtype": "noteOff", "noteNumber": 74, "velocity": 64 }, { "deltaTime": 236, "channel": 3, "type": "channel", "noteNumber": 54, "velocity": 98, "subtype": "noteOn" }, { "deltaTime": 1, "channel": 3, "type": "channel", "noteNumber": 57, "velocity": 95, "subtype": "noteOn" }, { "deltaTime": 0, "channel": 3, "type": "channel", "noteNumber": 50, "velocity": 86, "subtype": "noteOn" }, { "deltaTime": 287, "channel": 3, "type": "channel", "noteNumber": 62, "velocity": 98, "subtype": "noteOn" }, { "deltaTime": 16, "channel": 3, "type": "channel", "subtype": "controller", "controllerType": 64, "value": 127 }, { "deltaTime": 83, "channel": 3, "type": "channel", "noteNumber": 66, "velocity": 93, "subtype": "noteOn" }, { "deltaTime": 96, "channel": 3, "type": "channel", "noteNumber": 69, "velocity": 91, "subtype": "noteOn" }, { "deltaTime": 57, "channel": 3, "type": "channel", "subtype": "noteOff", "noteNumber": 62, "velocity": 64 }, { "deltaTime": 10, "channel": 3, "type": "channel", "subtype": "noteOff", "noteNumber": 54, "velocity": 64 }, { "deltaTime": 28, "channel": 3, "type": "channel", "noteNumber": 62, "velocity": 98, "subtype": "noteOn" }, { "deltaTime": 7, "channel": 3, "type": "channel", "subtype": "noteOff", "noteNumber": 57, "velocity": 64 }, { "deltaTime": 2, "channel": 3, "type": "channel", "subtype": "noteOff", "noteNumber": 50, "velocity": 64 }, { "deltaTime": 184, "channel": 3, "type": "channel", "noteNumber": 50, "velocity": 94, "subtype": "noteOn" }, { "deltaTime": 96, "channel": 3, "type": "channel", "noteNumber": 54, "velocity": 95, "subtype": "noteOn" }, { "deltaTime": 97, "channel": 3, "type": "channel", "noteNumber": 57, "velocity": 88, "subtype": "noteOn" }, { "deltaTime": 46, "channel": 3, "type": "channel", "subtype": "noteOff", "noteNumber": 62, "velocity": 64 }, { "deltaTime": 9, "channel": 3, "type": "channel", "subtype": "noteOff", "noteNumber": 66, "velocity": 64 }, { "deltaTime": 12, "channel": 3, "type": "channel", "subtype": "noteOff", "noteNumber": 69, "velocity": 64 }, { "deltaTime": 72, "channel": 3, "type": "channel", "noteNumber": 62, "velocity": 96, "subtype": "noteOn" }, { "deltaTime": 146, "channel": 3, "type": "channel", "noteNumber": 66, "velocity": 105, "subtype": "noteOn" }, { "deltaTime": 98, "channel": 3, "type": "channel", "noteNumber": 69, "velocity": 97, "subtype": "noteOn" }, { "deltaTime": 22, "channel": 3, "type": "channel", "subtype": "noteOff", "noteNumber": 50, "velocity": 64 }, { "deltaTime": 4, "channel": 3, "type": "channel", "subtype": "noteOff", "noteNumber": 54, "velocity": 64 }, { "deltaTime": 9, "channel": 3, "type": "channel", "subtype": "noteOff", "noteNumber": 57, "velocity": 64 }, { "deltaTime": 101, "channel": 3, "type": "channel", "subtype": "noteOff", "noteNumber": 69, "velocity": 64 }, { "deltaTime": 5, "channel": 3, "type": "channel", "subtype": "controller", "controllerType": 64, "value": 0 }, { "deltaTime": 9, "channel": 3, "type": "channel", "subtype": "noteOff", "noteNumber": 66, "velocity": 64 }, { "deltaTime": 4, "channel": 3, "type": "channel", "subtype": "noteOff", "noteNumber": 62, "velocity": 64 }, { "deltaTime": 178, "channel": 3, "type": "channel", "noteNumber": 73, "velocity": 107, "subtype": "noteOn" }, { "deltaTime": 1, "channel": 3, "type": "channel", "noteNumber": 69, "velocity": 96, "subtype": "noteOn" }, { "deltaTime": 0, "channel": 3, "type": "channel", "noteNumber": 57, "velocity": 93, "subtype": "noteOn" }, { "deltaTime": 0, "channel": 3, "type": "channel", "noteNumber": 76, "velocity": 94, "subtype": "noteOn" }, { "deltaTime": 0, "channel": 3, "type": "channel", "noteNumber": 49, "velocity": 97, "subtype": "noteOn" }, { "deltaTime": 1, "channel": 3, "type": "channel", "noteNumber": 52, "velocity": 93, "subtype": "noteOn" }, { "deltaTime": 85, "channel": 3, "type": "channel", "subtype": "noteOff", "noteNumber": 49, "velocity": 64 }, { "deltaTime": 3, "channel": 3, "type": "channel", "subtype": "noteOff", "noteNumber": 52, "velocity": 64 }, { "deltaTime": 5, "channel": 3, "type": "channel", "subtype": "noteOff", "noteNumber": 57, "velocity": 64 }, { "deltaTime": 6, "channel": 3, "type": "channel", "subtype": "noteOff", "noteNumber": 69, "velocity": 64 }, { "deltaTime": 3, "channel": 3, "type": "channel", "subtype": "noteOff", "noteNumber": 73, "velocity": 64 }, { "deltaTime": 15, "channel": 3, "type": "channel", "subtype": "noteOff", "noteNumber": 76, "velocity": 64 }, { "deltaTime": 27, "channel": 3, "type": "channel", "noteNumber": 69, "velocity": 99, "subtype": "noteOn" }, { "deltaTime": 0, "channel": 3, "type": "channel", "noteNumber": 57, "velocity": 83, "subtype": "noteOn" }, { "deltaTime": 1, "channel": 3, "type": "channel", "noteNumber": 73, "velocity": 100, "subtype": "noteOn" }, { "deltaTime": 0, "channel": 3, "type": "channel", "noteNumber": 76, "velocity": 86, "subtype": "noteOn" }, { "deltaTime": 0, "channel": 3, "type": "channel", "noteNumber": 49, "velocity": 80, "subtype": "noteOn" }, { "deltaTime": 0, "channel": 3, "type": "channel", "noteNumber": 52, "velocity": 74, "subtype": "noteOn" }, { "deltaTime": 58, "channel": 3, "type": "channel", "subtype": "noteOff", "noteNumber": 49, "velocity": 64 }, { "deltaTime": 9, "channel": 3, "type": "channel", "subtype": "noteOff", "noteNumber": 57, "velocity": 64 }, { "deltaTime": 3, "channel": 3, "type": "channel", "subtype": "noteOff", "noteNumber": 52, "velocity": 64 }, { "deltaTime": 1, "channel": 3, "type": "channel", "subtype": "noteOff", "noteNumber": 69, "velocity": 64 }, { "deltaTime": 7, "channel": 3, "type": "channel", "subtype": "noteOff", "noteNumber": 73, "velocity": 64 }, { "deltaTime": 8, "channel": 3, "type": "channel", "subtype": "noteOff", "noteNumber": 76, "velocity": 64 }, { "deltaTime": 11, "channel": 3, "type": "channel", "noteNumber": 57, "velocity": 87, "subtype": "noteOn" }, { "deltaTime": 0, "channel": 3, "type": "channel", "noteNumber": 49, "velocity": 87, "subtype": "noteOn" }, { "deltaTime": 0, "channel": 3, "type": "channel", "noteNumber": 73, "velocity": 97, "subtype": "noteOn" }, { "deltaTime": 0, "channel": 3, "type": "channel", "noteNumber": 69, "velocity": 93, "subtype": "noteOn" }, { "deltaTime": 0, "channel": 3, "type": "channel", "noteNumber": 76, "velocity": 95, "subtype": "noteOn" }, { "deltaTime": 1, "channel": 3, "type": "channel", "noteNumber": 52, "velocity": 85, "subtype": "noteOn" }, { "deltaTime": 51, "channel": 3, "type": "channel", "subtype": "noteOff", "noteNumber": 49, "velocity": 64 }, { "deltaTime": 4, "channel": 3, "type": "channel", "subtype": "noteOff", "noteNumber": 57, "velocity": 64 }, { "deltaTime": 2, "channel": 3, "type": "channel", "subtype": "noteOff", "noteNumber": 69, "velocity": 64 }, { "deltaTime": 1, "channel": 3, "type": "channel", "subtype": "noteOff", "noteNumber": 52, "velocity": 64 }, { "deltaTime": 7, "channel": 3, "type": "channel", "subtype": "noteOff", "noteNumber": 73, "velocity": 64 }, { "deltaTime": 4, "channel": 3, "type": "channel", "subtype": "noteOff", "noteNumber": 76, "velocity": 64 }, { "deltaTime": 407, "channel": 3, "type": "channel", "noteNumber": 69, "velocity": 99, "subtype": "noteOn" }, { "deltaTime": 0, "channel": 3, "type": "channel", "noteNumber": 73, "velocity": 107, "subtype": "noteOn" }, { "deltaTime": 0, "channel": 3, "type": "channel", "noteNumber": 57, "velocity": 93, "subtype": "noteOn" }, { "deltaTime": 0, "channel": 3, "type": "channel", "noteNumber": 76, "velocity": 99, "subtype": "noteOn" }, { "deltaTime": 1, "channel": 3, "type": "channel", "noteNumber": 49, "velocity": 96, "subtype": "noteOn" }, { "deltaTime": 0, "channel": 3, "type": "channel", "noteNumber": 52, "velocity": 90, "subtype": "noteOn" }, { "deltaTime": 100, "channel": 3, "type": "channel", "subtype": "noteOff", "noteNumber": 49, "velocity": 64 }, { "deltaTime": 8, "channel": 3, "type": "channel", "subtype": "noteOff", "noteNumber": 52, "velocity": 64 }, { "deltaTime": 1, "channel": 3, "type": "channel", "subtype": "noteOff", "noteNumber": 57, "velocity": 64 }, { "deltaTime": 6, "channel": 3, "type": "channel", "subtype": "noteOff", "noteNumber": 69, "velocity": 64 }, { "deltaTime": 6, "channel": 3, "type": "channel", "subtype": "noteOff", "noteNumber": 73, "velocity": 64 }, { "deltaTime": 10, "channel": 3, "type": "channel", "subtype": "noteOff", "noteNumber": 76, "velocity": 64 }, { "deltaTime": 60, "channel": 3, "type": "channel", "noteNumber": 69, "velocity": 82, "subtype": "noteOn" }, { "deltaTime": 0, "channel": 3, "type": "channel", "noteNumber": 57, "velocity": 76, "subtype": "noteOn" }, { "deltaTime": 1, "channel": 3, "type": "channel", "noteNumber": 73, "velocity": 92, "subtype": "noteOn" }, { "deltaTime": 0, "channel": 3, "type": "channel", "noteNumber": 76, "velocity": 84, "subtype": "noteOn" }, { "deltaTime": 0, "channel": 3, "type": "channel", "noteNumber": 52, "velocity": 70, "subtype": "noteOn" }, { "deltaTime": 0, "channel": 3, "type": "channel", "noteNumber": 49, "velocity": 68, "subtype": "noteOn" }, { "deltaTime": 54, "channel": 3, "type": "channel", "subtype": "noteOff", "noteNumber": 49, "velocity": 64 }, { "deltaTime": 15, "channel": 3, "type": "channel", "subtype": "noteOff", "noteNumber": 57, "velocity": 64 }, { "deltaTime": 3, "channel": 3, "type": "channel", "subtype": "noteOff", "noteNumber": 52, "velocity": 64 }, { "deltaTime": 1, "channel": 3, "type": "channel", "subtype": "noteOff", "noteNumber": 69, "velocity": 64 }, { "deltaTime": 7, "channel": 3, "type": "channel", "subtype": "noteOff", "noteNumber": 73, "velocity": 64 }, { "deltaTime": 8, "channel": 3, "type": "channel", "subtype": "noteOff", "noteNumber": 76, "velocity": 64 }, { "deltaTime": 10, "channel": 3, "type": "channel", "noteNumber": 57, "velocity": 89, "subtype": "noteOn" }, { "deltaTime": 0, "channel": 3, "type": "channel", "noteNumber": 49, "velocity": 88, "subtype": "noteOn" }, { "deltaTime": 0, "channel": 3, "type": "channel", "noteNumber": 73, "velocity": 99, "subtype": "noteOn" }, { "deltaTime": 0, "channel": 3, "type": "channel", "noteNumber": 69, "velocity": 86, "subtype": "noteOn" }, { "deltaTime": 0, "channel": 3, "type": "channel", "noteNumber": 76, "velocity": 89, "subtype": "noteOn" }, { "deltaTime": 0, "channel": 3, "type": "channel", "noteNumber": 52, "velocity": 76, "subtype": "noteOn" }, { "deltaTime": 54, "channel": 3, "type": "channel", "subtype": "noteOff", "noteNumber": 49, "velocity": 64 }, { "deltaTime": 4, "channel": 3, "type": "channel", "subtype": "noteOff", "noteNumber": 69, "velocity": 64 }, { "deltaTime": 2, "channel": 3, "type": "channel", "subtype": "noteOff", "noteNumber": 57, "velocity": 64 }, { "deltaTime": 0, "channel": 3, "type": "channel", "subtype": "noteOff", "noteNumber": 52, "velocity": 64 }, { "deltaTime": 4, "channel": 3, "type": "channel", "subtype": "noteOff", "noteNumber": 73, "velocity": 64 }, { "deltaTime": 12, "channel": 3, "type": "channel", "subtype": "noteOff", "noteNumber": 76, "velocity": 64 }, { "deltaTime": 308, "channel": 3, "type": "channel", "noteNumber": 73, "velocity": 101, "subtype": "noteOn" }, { "deltaTime": 0, "channel": 3, "type": "channel", "noteNumber": 57, "velocity": 90, "subtype": "noteOn" }, { "deltaTime": 0, "channel": 3, "type": "channel", "noteNumber": 69, "velocity": 90, "subtype": "noteOn" }, { "deltaTime": 1, "channel": 3, "type": "channel", "noteNumber": 76, "velocity": 95, "subtype": "noteOn" }, { "deltaTime": 0, "channel": 3, "type": "channel", "noteNumber": 49, "velocity": 94, "subtype": "noteOn" }, { "deltaTime": 0, "channel": 3, "type": "channel", "noteNumber": 52, "velocity": 87, "subtype": "noteOn" }, { "deltaTime": 557, "channel": 3, "type": "channel", "subtype": "noteOff", "noteNumber": 69, "velocity": 64 }, { "deltaTime": 6, "channel": 3, "type": "channel", "subtype": "noteOff", "noteNumber": 73, "velocity": 64 }, { "deltaTime": 11, "channel": 3, "type": "channel", "subtype": "noteOff", "noteNumber": 76, "velocity": 64 }, { "deltaTime": 12, "channel": 3, "type": "channel", "subtype": "noteOff", "noteNumber": 49, "velocity": 64 }, { "deltaTime": 12, "channel": 3, "type": "channel", "subtype": "noteOff", "noteNumber": 52, "velocity": 64 }, { "deltaTime": 5, "channel": 3, "type": "channel", "subtype": "noteOff", "noteNumber": 57, "velocity": 64 }, { "deltaTime": 162, "channel": 3, "type": "channel", "noteNumber": 81, "velocity": 81, "subtype": "noteOn" }, { "deltaTime": 0, "channel": 3, "type": "channel", "noteNumber": 85, "velocity": 91, "subtype": "noteOn" }, { "deltaTime": 0, "channel": 3, "type": "channel", "noteNumber": 88, "velocity": 86, "subtype": "noteOn" }, { "deltaTime": 1, "channel": 3, "type": "channel", "subtype": "controller", "controllerType": 64, "value": 127 }, { "deltaTime": 0, "channel": 3, "type": "channel", "noteNumber": 49, "velocity": 91, "subtype": "noteOn" }, { "deltaTime": 0, "channel": 3, "type": "channel", "noteNumber": 57, "velocity": 82, "subtype": "noteOn" }, { "deltaTime": 0, "channel": 3, "type": "channel", "noteNumber": 91, "velocity": 95, "subtype": "noteOn" }, { "deltaTime": 0, "channel": 3, "type": "channel", "noteNumber": 52, "velocity": 79, "subtype": "noteOn" }, { "deltaTime": 322, "channel": 3, "type": "channel", "subtype": "noteOff", "noteNumber": 91, "velocity": 64 }, { "deltaTime": 21, "channel": 3, "type": "channel", "subtype": "noteOff", "noteNumber": 88, "velocity": 64 }, { "deltaTime": 4, "channel": 3, "type": "channel", "subtype": "noteOff", "noteNumber": 85, "velocity": 64 }, { "deltaTime": 18, "channel": 3, "type": "channel", "subtype": "noteOff", "noteNumber": 81, "velocity": 64 }, { "deltaTime": 229, "channel": 3, "type": "channel", "subtype": "noteOff", "noteNumber": 49, "velocity": 64 }, { "deltaTime": 2, "channel": 3, "type": "channel", "subtype": "noteOff", "noteNumber": 52, "velocity": 64 }, { "deltaTime": 12, "channel": 3, "type": "channel", "subtype": "noteOff", "noteNumber": 57, "velocity": 64 }, { "deltaTime": 4, "channel": 3, "type": "channel", "subtype": "controller", "controllerType": 64, "value": 0 }, { "deltaTime": 154, "channel": 3, "type": "channel", "subtype": "controller", "controllerType": 64, "value": 127 }, { "deltaTime": 0, "channel": 3, "type": "channel", "noteNumber": 50, "velocity": 84, "subtype": "noteOn" }, { "deltaTime": 1, "channel": 3, "type": "channel", "noteNumber": 54, "velocity": 96, "subtype": "noteOn" }, { "deltaTime": 0, "channel": 3, "type": "channel", "noteNumber": 57, "velocity": 82, "subtype": "noteOn" }, { "deltaTime": 192, "channel": 3, "type": "channel", "noteNumber": 62, "velocity": 90, "subtype": "noteOn" }, { "deltaTime": 97, "channel": 3, "type": "channel", "noteNumber": 66, "velocity": 96, "subtype": "noteOn" }, { "deltaTime": 97, "channel": 3, "type": "channel", "noteNumber": 69, "velocity": 102, "subtype": "noteOn" }, { "deltaTime": 39, "channel": 3, "type": "channel", "subtype": "noteOff", "noteNumber": 66, "velocity": 64 }, { "deltaTime": 3, "channel": 3, "type": "channel", "subtype": "noteOff", "noteNumber": 62, "velocity": 64 }, { "deltaTime": 2, "channel": 3, "type": "channel", "subtype": "noteOff", "noteNumber": 69, "velocity": 64 }, { "deltaTime": 26, "channel": 3, "type": "channel", "subtype": "noteOff", "noteNumber": 54, "velocity": 64 }, { "deltaTime": 226, "channel": 3, "type": "channel", "subtype": "noteOff", "noteNumber": 57, "velocity": 64 }, { "deltaTime": 7, "channel": 3, "type": "channel", "subtype": "noteOff", "noteNumber": 50, "velocity": 64 }, { "deltaTime": 56, "channel": 3, "type": "channel", "subtype": "controller", "controllerType": 64, "value": 0 }, { "deltaTime": 22, "channel": 3, "type": "channel", "noteNumber": 50, "velocity": 91, "subtype": "noteOn" }, { "deltaTime": 1, "channel": 3, "type": "channel", "noteNumber": 57, "velocity": 92, "subtype": "noteOn" }, { "deltaTime": 194, "channel": 3, "type": "channel", "noteNumber": 54, "velocity": 95, "subtype": "noteOn" }, { "deltaTime": 428, "channel": 3, "type": "channel", "subtype": "noteOff", "noteNumber": 54, "velocity": 64 }, { "deltaTime": 19, "channel": 3, "type": "channel", "subtype": "noteOff", "noteNumber": 50, "velocity": 64 }, { "deltaTime": 57, "channel": 3, "type": "channel", "subtype": "noteOff", "noteNumber": 57, "velocity": 64 }, { "deltaTime": 70, "channel": 3, "type": "channel", "noteNumber": 59, "velocity": 91, "subtype": "noteOn" }, { "deltaTime": 0, "channel": 3, "type": "channel", "noteNumber": 52, "velocity": 76, "subtype": "noteOn" }, { "deltaTime": 0, "channel": 3, "type": "channel", "noteNumber": 55, "velocity": 86, "subtype": "noteOn" }, { "deltaTime": 290, "channel": 3, "type": "channel", "subtype": "noteOff", "noteNumber": 52, "velocity": 64 }, { "deltaTime": 10, "channel": 3, "type": "channel", "subtype": "noteOff", "noteNumber": 55, "velocity": 64 }, { "deltaTime": 8, "channel": 3, "type": "channel", "subtype": "noteOff", "noteNumber": 59, "velocity": 64 }, { "deltaTime": 78, "channel": 3, "type": "channel", "noteNumber": 57, "velocity": 92, "subtype": "noteOn" }, { "deltaTime": 0, "channel": 3, "type": "channel", "noteNumber": 49, "velocity": 93, "subtype": "noteOn" }, { "deltaTime": 44, "channel": 3, "type": "channel", "noteNumber": 52, "velocity": 86, "subtype": "noteOn" }, { "deltaTime": 146, "channel": 3, "type": "channel", "noteNumber": 69, "velocity": 73, "subtype": "noteOn" }, { "deltaTime": 0, "channel": 3, "type": "channel", "noteNumber": 73, "velocity": 96, "subtype": "noteOn" }, { "deltaTime": 1, "channel": 3, "type": "channel", "noteNumber": 76, "velocity": 81, "subtype": "noteOn" }, { "deltaTime": 39, "channel": 3, "type": "channel", "subtype": "noteOff", "noteNumber": 49, "velocity": 64 }, { "deltaTime": 12, "channel": 3, "type": "channel", "subtype": "noteOff", "noteNumber": 57, "velocity": 64 }, { "deltaTime": 30, "channel": 3, "type": "channel", "subtype": "noteOff", "noteNumber": 52, "velocity": 64 }, { "deltaTime": 99, "channel": 3, "type": "channel", "subtype": "noteOff", "noteNumber": 76, "velocity": 64 }, { "deltaTime": 5, "channel": 3, "type": "channel", "subtype": "noteOff", "noteNumber": 73, "velocity": 64 }, { "deltaTime": 8, "channel": 3, "type": "channel", "noteNumber": 54, "velocity": 99, "subtype": "noteOn" }, { "deltaTime": 0, "channel": 3, "type": "channel", "noteNumber": 57, "velocity": 86, "subtype": "noteOn" }, { "deltaTime": 0, "channel": 3, "type": "channel", "noteNumber": 50, "velocity": 82, "subtype": "noteOn" }, { "deltaTime": 12, "channel": 3, "type": "channel", "subtype": "noteOff", "noteNumber": 69, "velocity": 64 }, { "deltaTime": 274, "channel": 3, "type": "channel", "noteNumber": 62, "velocity": 94, "subtype": "noteOn" }, { "deltaTime": 98, "channel": 3, "type": "channel", "noteNumber": 66, "velocity": 87, "subtype": "noteOn" }, { "deltaTime": 180, "channel": 3, "type": "channel", "subtype": "noteOff", "noteNumber": 54, "velocity": 64 }, { "deltaTime": 8, "channel": 3, "type": "channel", "subtype": "noteOff", "noteNumber": 50, "velocity": 64 }, { "deltaTime": 2, "channel": 3, "type": "channel", "noteNumber": 69, "velocity": 97, "subtype": "noteOn" }, { "deltaTime": 16, "channel": 3, "type": "channel", "subtype": "noteOff", "noteNumber": 57, "velocity": 64 }, { "deltaTime": 160, "channel": 3, "type": "channel", "subtype": "noteOff", "noteNumber": 66, "velocity": 64 }, { "deltaTime": 16, "channel": 3, "type": "channel", "noteNumber": 59, "velocity": 91, "subtype": "noteOn" }, { "deltaTime": 0, "channel": 3, "type": "channel", "noteNumber": 52, "velocity": 84, "subtype": "noteOn" }, { "deltaTime": 0, "channel": 3, "type": "channel", "noteNumber": 55, "velocity": 85, "subtype": "noteOn" }, { "deltaTime": 10, "channel": 3, "type": "channel", "subtype": "noteOff", "noteNumber": 62, "velocity": 64 }, { "deltaTime": 10, "channel": 3, "type": "channel", "subtype": "noteOff", "noteNumber": 69, "velocity": 64 }, { "deltaTime": 77, "channel": 3, "type": "channel", "noteNumber": 64, "velocity": 99, "subtype": "noteOn" }, { "deltaTime": 191, "channel": 3, "type": "channel", "noteNumber": 67, "velocity": 89, "subtype": "noteOn" }, { "deltaTime": 117, "channel": 3, "type": "channel", "subtype": "noteOff", "noteNumber": 64, "velocity": 64 }, { "deltaTime": 76, "channel": 3, "type": "channel", "noteNumber": 71, "velocity": 93, "subtype": "noteOn" }, { "deltaTime": 21, "channel": 3, "type": "channel", "subtype": "noteOff", "noteNumber": 55, "velocity": 64 }, { "deltaTime": 76, "channel": 3, "type": "channel", "noteNumber": 55, "velocity": 84, "subtype": "noteOn" }, { "deltaTime": 74, "channel": 3, "type": "channel", "subtype": "noteOff", "noteNumber": 55, "velocity": 64 }, { "deltaTime": 21, "channel": 3, "type": "channel", "noteNumber": 64, "velocity": 95, "subtype": "noteOn" }, { "deltaTime": 3, "channel": 3, "type": "channel", "subtype": "noteOff", "noteNumber": 52, "velocity": 64 }, { "deltaTime": 4, "channel": 3, "type": "channel", "subtype": "noteOff", "noteNumber": 59, "velocity": 64 }, { "deltaTime": 91, "channel": 3, "type": "channel", "noteNumber": 57, "velocity": 86, "subtype": "noteOn" }, { "deltaTime": 8, "channel": 3, "type": "channel", "subtype": "noteOff", "noteNumber": 64, "velocity": 64 }, { "deltaTime": 16, "channel": 3, "type": "channel", "subtype": "noteOff", "noteNumber": 71, "velocity": 64 }, { "deltaTime": 11, "channel": 3, "type": "channel", "subtype": "noteOff", "noteNumber": 67, "velocity": 64 }, { "deltaTime": 8, "channel": 3, "type": "channel", "noteNumber": 52, "velocity": 78, "subtype": "noteOn" }, { "deltaTime": 1, "channel": 3, "type": "channel", "noteNumber": 49, "velocity": 78, "subtype": "noteOn" }, { "deltaTime": 145, "channel": 3, "type": "channel", "noteNumber": 69, "velocity": 84, "subtype": "noteOn" }, { "deltaTime": 0, "channel": 3, "type": "channel", "noteNumber": 73, "velocity": 97, "subtype": "noteOn" }, { "deltaTime": 1, "channel": 3, "type": "channel", "noteNumber": 76, "velocity": 82, "subtype": "noteOn" }, { "deltaTime": 123, "channel": 3, "type": "channel", "subtype": "noteOff", "noteNumber": 69, "velocity": 64 }, { "deltaTime": 112, "channel": 3, "type": "channel", "subtype": "noteOff", "noteNumber": 73, "velocity": 64 }, { "deltaTime": 5, "channel": 3, "type": "channel", "subtype": "noteOff", "noteNumber": 76, "velocity": 64 }, { "deltaTime": 47, "channel": 3, "type": "channel", "noteNumber": 73, "velocity": 92, "subtype": "noteOn" }, { "deltaTime": 0, "channel": 3, "type": "channel", "noteNumber": 76, "velocity": 65, "subtype": "noteOn" }, { "deltaTime": 0, "channel": 3, "type": "channel", "noteNumber": 69, "velocity": 92, "subtype": "noteOn" }, { "deltaTime": 0, "channel": 3, "type": "channel", "noteNumber": 79, "velocity": 92, "subtype": "noteOn" }, { "deltaTime": 39, "channel": 3, "type": "channel", "subtype": "noteOff", "noteNumber": 57, "velocity": 64 }, { "deltaTime": 16, "channel": 3, "type": "channel", "subtype": "noteOff", "noteNumber": 49, "velocity": 64 }, { "deltaTime": 11, "channel": 3, "type": "channel", "subtype": "noteOff", "noteNumber": 52, "velocity": 64 }, { "deltaTime": 221, "channel": 3, "type": "channel", "noteNumber": 62, "velocity": 80, "subtype": "noteOn" }, { "deltaTime": 0, "channel": 3, "type": "channel", "noteNumber": 66, "velocity": 99, "subtype": "noteOn" }, { "deltaTime": 1, "channel": 3, "type": "channel", "subtype": "noteOff", "noteNumber": 73, "velocity": 64 }, { "deltaTime": 8, "channel": 3, "type": "channel", "subtype": "noteOff", "noteNumber": 76, "velocity": 64 }, { "deltaTime": 16, "channel": 3, "type": "channel", "subtype": "noteOff", "noteNumber": 79, "velocity": 64 }, { "deltaTime": 169, "channel": 3, "type": "channel", "noteNumber": 74, "velocity": 97, "subtype": "noteOn" }, { "deltaTime": 97, "channel": 3, "type": "channel", "noteNumber": 78, "velocity": 95, "subtype": "noteOn" }, { "deltaTime": 192, "channel": 3, "type": "channel", "noteNumber": 81, "velocity": 93, "subtype": "noteOn" }, { "deltaTime": 55, "channel": 3, "type": "channel", "subtype": "noteOff", "noteNumber": 74, "velocity": 64 }, { "deltaTime": 39, "channel": 3, "type": "channel", "subtype": "noteOff", "noteNumber": 69, "velocity": 64 }, { "deltaTime": 2, "channel": 3, "type": "channel", "noteNumber": 74, "velocity": 95, "subtype": "noteOn" }, { "deltaTime": 13, "channel": 3, "type": "channel", "subtype": "noteOff", "noteNumber": 66, "velocity": 64 }, { "deltaTime": 16, "channel": 3, "type": "channel", "subtype": "noteOff", "noteNumber": 62, "velocity": 64 }, { "deltaTime": 131, "channel": 3, "type": "channel", "subtype": "noteOff", "noteNumber": 81, "velocity": 64 }, { "deltaTime": 14, "channel": 3, "type": "channel", "subtype": "noteOff", "noteNumber": 78, "velocity": 64 }, { "deltaTime": 16, "channel": 3, "type": "channel", "noteNumber": 52, "velocity": 96, "subtype": "noteOn" }, { "deltaTime": 2, "channel": 3, "type": "channel", "subtype": "noteOff", "noteNumber": 74, "velocity": 64 }, { "deltaTime": 189, "channel": 3, "type": "channel", "noteNumber": 55, "velocity": 80, "subtype": "noteOn" }, { "deltaTime": 97, "channel": 3, "type": "channel", "noteNumber": 64, "velocity": 93, "subtype": "noteOn" }, { "deltaTime": 0, "channel": 3, "type": "channel", "noteNumber": 67, "velocity": 87, "subtype": "noteOn" }, { "deltaTime": 8, "channel": 3, "type": "channel", "subtype": "noteOff", "noteNumber": 52, "velocity": 64 }, { "deltaTime": 11, "channel": 3, "type": "channel", "subtype": "noteOff", "noteNumber": 55, "velocity": 64 }, { "deltaTime": 79, "channel": 3, "type": "channel", "noteNumber": 49, "velocity": 73, "subtype": "noteOn" }, { "deltaTime": 1, "channel": 3, "type": "channel", "noteNumber": 57, "velocity": 74, "subtype": "noteOn" }, { "deltaTime": 15, "channel": 3, "type": "channel", "subtype": "noteOff", "noteNumber": 64, "velocity": 64 }, { "deltaTime": 12, "channel": 3, "type": "channel", "subtype": "noteOff", "noteNumber": 67, "velocity": 64 }, { "deltaTime": 16, "channel": 3, "type": "channel", "noteNumber": 52, "velocity": 73, "subtype": "noteOn" }, { "deltaTime": 53, "channel": 3, "type": "channel", "noteNumber": 69, "velocity": 80, "subtype": "noteOn" }, { "deltaTime": 0, "channel": 3, "type": "channel", "noteNumber": 73, "velocity": 98, "subtype": "noteOn" }, { "deltaTime": 127, "channel": 3, "type": "channel", "subtype": "noteOff", "noteNumber": 49, "velocity": 64 }, { "deltaTime": 11, "channel": 3, "type": "channel", "subtype": "noteOff", "noteNumber": 57, "velocity": 64 }, { "deltaTime": 27, "channel": 3, "type": "channel", "subtype": "noteOff", "noteNumber": 52, "velocity": 64 }, { "deltaTime": 24, "channel": 3, "type": "channel", "noteNumber": 76, "velocity": 92, "subtype": "noteOn" }, { "deltaTime": 109, "channel": 3, "type": "channel", "subtype": "noteOff", "noteNumber": 69, "velocity": 64 }, { "deltaTime": 4, "channel": 3, "type": "channel", "subtype": "noteOff", "noteNumber": 73, "velocity": 64 }, { "deltaTime": 30, "channel": 3, "type": "channel", "noteNumber": 62, "velocity": 108, "subtype": "noteOn" }, { "deltaTime": 11, "channel": 3, "type": "channel", "subtype": "noteOff", "noteNumber": 76, "velocity": 64 }, { "deltaTime": 134, "channel": 3, "type": "channel", "noteNumber": 66, "velocity": 98, "subtype": "noteOn" }, { "deltaTime": 97, "channel": 3, "type": "channel", "noteNumber": 69, "velocity": 97, "subtype": "noteOn" }, { "deltaTime": 192, "channel": 3, "type": "channel", "noteNumber": 74, "velocity": 94, "subtype": "noteOn" }, { "deltaTime": 70, "channel": 3, "type": "channel", "subtype": "noteOff", "noteNumber": 69, "velocity": 64 }, { "deltaTime": 15, "channel": 3, "type": "channel", "subtype": "noteOff", "noteNumber": 66, "velocity": 64 }, { "deltaTime": 10, "channel": 3, "type": "channel", "noteNumber": 78, "velocity": 88, "subtype": "noteOn" }, { "deltaTime": 19, "channel": 3, "type": "channel", "subtype": "noteOff", "noteNumber": 62, "velocity": 64 }, { "deltaTime": 77, "channel": 3, "type": "channel", "noteNumber": 81, "velocity": 91, "subtype": "noteOn" }, { "deltaTime": 97, "channel": 3, "type": "channel", "noteNumber": 50, "velocity": 93, "subtype": "noteOn" }, { "deltaTime": 5, "channel": 3, "type": "channel", "subtype": "noteOff", "noteNumber": 81, "velocity": 64 }, { "deltaTime": 16, "channel": 3, "type": "channel", "subtype": "noteOff", "noteNumber": 78, "velocity": 64 }, { "deltaTime": 5, "channel": 3, "type": "channel", "subtype": "noteOff", "noteNumber": 74, "velocity": 64 }, { "deltaTime": 70, "channel": 3, "type": "channel", "noteNumber": 54, "velocity": 92, "subtype": "noteOn" }, { "deltaTime": 96, "channel": 3, "type": "channel", "noteNumber": 57, "velocity": 87, "subtype": "noteOn" }, { "deltaTime": 96, "channel": 3, "type": "channel", "noteNumber": 62, "velocity": 99, "subtype": "noteOn" }, { "deltaTime": 192, "channel": 3, "type": "channel", "noteNumber": 69, "velocity": 85, "subtype": "noteOn" }, { "deltaTime": 66, "channel": 3, "type": "channel", "subtype": "noteOff", "noteNumber": 54, "velocity": 64 }, { "deltaTime": 31, "channel": 3, "type": "channel", "noteNumber": 66, "velocity": 98, "subtype": "noteOn" }, { "deltaTime": 23, "channel": 3, "type": "channel", "subtype": "noteOff", "noteNumber": 57, "velocity": 64 }, { "deltaTime": 2, "channel": 3, "type": "channel", "subtype": "noteOff", "noteNumber": 50, "velocity": 64 }, { "deltaTime": 26, "channel": 3, "type": "channel", "subtype": "noteOff", "noteNumber": 62, "velocity": 64 }, { "deltaTime": 44, "channel": 3, "type": "channel", "noteNumber": 62, "velocity": 81, "subtype": "noteOn" }, { "deltaTime": 96, "channel": 3, "type": "channel", "noteNumber": 50, "velocity": 94, "subtype": "noteOn" }, { "deltaTime": 75, "channel": 3, "type": "channel", "subtype": "noteOff", "noteNumber": 66, "velocity": 64 }, { "deltaTime": 3, "channel": 3, "type": "channel", "subtype": "noteOff", "noteNumber": 62, "velocity": 64 }, { "deltaTime": 17, "channel": 3, "type": "channel", "noteNumber": 54, "velocity": 86, "subtype": "noteOn" }, { "deltaTime": 1, "channel": 3, "type": "channel", "subtype": "noteOff", "noteNumber": 69, "velocity": 64 }, { "deltaTime": 95, "channel": 3, "type": "channel", "noteNumber": 57, "velocity": 94, "subtype": "noteOn" }, { "deltaTime": 96, "channel": 3, "type": "channel", "noteNumber": 74, "velocity": 91, "subtype": "noteOn" }, { "deltaTime": 192, "channel": 3, "type": "channel", "noteNumber": 78, "velocity": 97, "subtype": "noteOn" }, { "deltaTime": 59, "channel": 3, "type": "channel", "subtype": "noteOff", "noteNumber": 50, "velocity": 64 }, { "deltaTime": 17, "channel": 3, "type": "channel", "subtype": "noteOff", "noteNumber": 54, "velocity": 64 }, { "deltaTime": 10, "channel": 3, "type": "channel", "subtype": "noteOff", "noteNumber": 57, "velocity": 64 }, { "deltaTime": 164, "channel": 3, "type": "channel", "subtype": "noteOff", "noteNumber": 78, "velocity": 64 }, { "deltaTime": 36, "channel": 3, "type": "channel", "subtype": "noteOff", "noteNumber": 74, "velocity": 64 }, { "deltaTime": 3, "channel": 3, "type": "channel", "noteNumber": 57, "velocity": 76, "subtype": "noteOn" }, { "deltaTime": 1, "channel": 3, "type": "channel", "noteNumber": 61, "velocity": 97, "subtype": "noteOn" }, { "deltaTime": 0, "channel": 3, "type": "channel", "noteNumber": 64, "velocity": 93, "subtype": "noteOn" }, { "deltaTime": 285, "channel": 3, "type": "channel", "noteNumber": 69, "velocity": 95, "subtype": "noteOn" }, { "deltaTime": 97, "channel": 3, "type": "channel", "noteNumber": 73, "velocity": 103, "subtype": "noteOn" }, { "deltaTime": 120, "channel": 3, "type": "channel", "subtype": "noteOff", "noteNumber": 64, "velocity": 64 }, { "deltaTime": 8, "channel": 3, "type": "channel", "subtype": "noteOff", "noteNumber": 61, "velocity": 64 }, { "deltaTime": 31, "channel": 3, "type": "channel", "subtype": "noteOff", "noteNumber": 57, "velocity": 64 }, { "deltaTime": 34, "channel": 3, "type": "channel", "noteNumber": 76, "velocity": 99, "subtype": "noteOn" }, { "deltaTime": 138, "channel": 3, "type": "channel", "subtype": "noteOff", "noteNumber": 76, "velocity": 64 }, { "deltaTime": 5, "channel": 3, "type": "channel", "subtype": "noteOff", "noteNumber": 73, "velocity": 64 }, { "deltaTime": 31, "channel": 3, "type": "channel", "subtype": "noteOff", "noteNumber": 69, "velocity": 64 }, { "deltaTime": 18, "channel": 3, "type": "channel", "noteNumber": 54, "velocity": 97, "subtype": "noteOn" }, { "deltaTime": 0, "channel": 3, "type": "channel", "noteNumber": 57, "velocity": 92, "subtype": "noteOn" }, { "deltaTime": 0, "channel": 3, "type": "channel", "noteNumber": 50, "velocity": 83, "subtype": "noteOn" }, { "deltaTime": 194, "channel": 3, "type": "channel", "noteNumber": 62, "velocity": 89, "subtype": "noteOn" }, { "deltaTime": 95, "channel": 3, "type": "channel", "noteNumber": 66, "velocity": 94, "subtype": "noteOn" }, { "deltaTime": 190, "channel": 3, "type": "channel", "noteNumber": 69, "velocity": 85, "subtype": "noteOn" }, { "deltaTime": 21, "channel": 3, "type": "channel", "subtype": "noteOff", "noteNumber": 62, "velocity": 64 }, { "deltaTime": 76, "channel": 3, "type": "channel", "subtype": "noteOff", "noteNumber": 54, "velocity": 64 }, { "deltaTime": 0, "channel": 3, "type": "channel", "noteNumber": 62, "velocity": 95, "subtype": "noteOn" }, { "deltaTime": 4, "channel": 3, "type": "channel", "subtype": "noteOff", "noteNumber": 50, "velocity": 64 }, { "deltaTime": 8, "channel": 3, "type": "channel", "subtype": "noteOff", "noteNumber": 57, "velocity": 64 }, { "deltaTime": 180, "channel": 3, "type": "channel", "noteNumber": 50, "velocity": 90, "subtype": "noteOn" }, { "deltaTime": 93, "channel": 3, "type": "channel", "subtype": "noteOff", "noteNumber": 66, "velocity": 64 }, { "deltaTime": 1, "channel": 3, "type": "channel", "subtype": "noteOff", "noteNumber": 62, "velocity": 64 }, { "deltaTime": 37, "channel": 3, "type": "channel", "subtype": "noteOff", "noteNumber": 69, "velocity": 64 }, { "deltaTime": 60, "channel": 3, "type": "channel", "noteNumber": 54, "velocity": 90, "subtype": "noteOn" }, { "deltaTime": 96, "channel": 3, "type": "channel", "noteNumber": 57, "velocity": 91, "subtype": "noteOn" }, { "deltaTime": 193, "channel": 3, "type": "channel", "noteNumber": 74, "velocity": 87, "subtype": "noteOn" }, { "deltaTime": 95, "channel": 3, "type": "channel", "noteNumber": 78, "velocity": 83, "subtype": "noteOn" }, { "deltaTime": 28, "channel": 3, "type": "channel", "subtype": "noteOff", "noteNumber": 54, "velocity": 64 }, { "deltaTime": 9, "channel": 3, "type": "channel", "subtype": "noteOff", "noteNumber": 50, "velocity": 64 }, { "deltaTime": 5, "channel": 3, "type": "channel", "subtype": "noteOff", "noteNumber": 57, "velocity": 64 }, { "deltaTime": 55, "channel": 3, "type": "channel", "noteNumber": 81, "velocity": 79, "subtype": "noteOn" }, { "deltaTime": 80, "channel": 3, "type": "channel", "subtype": "noteOff", "noteNumber": 81, "velocity": 64 }, { "deltaTime": 16, "channel": 3, "type": "channel", "noteNumber": 54, "velocity": 101, "subtype": "noteOn" }, { "deltaTime": 0, "channel": 3, "type": "channel", "noteNumber": 50, "velocity": 78, "subtype": "noteOn" }, { "deltaTime": 0, "channel": 3, "type": "channel", "noteNumber": 57, "velocity": 85, "subtype": "noteOn" }, { "deltaTime": 2, "channel": 3, "type": "channel", "subtype": "controller", "controllerType": 64, "value": 127 }, { "deltaTime": 1, "channel": 3, "type": "channel", "subtype": "noteOff", "noteNumber": 78, "velocity": 64 }, { "deltaTime": 13, "channel": 3, "type": "channel", "subtype": "noteOff", "noteNumber": 74, "velocity": 64 }, { "deltaTime": 177, "channel": 3, "type": "channel", "noteNumber": 62, "velocity": 84, "subtype": "noteOn" }, { "deltaTime": 96, "channel": 3, "type": "channel", "noteNumber": 66, "velocity": 88, "subtype": "noteOn" }, { "deltaTime": 191, "channel": 3, "type": "channel", "noteNumber": 69, "velocity": 90, "subtype": "noteOn" }, { "deltaTime": 27, "channel": 3, "type": "channel", "subtype": "noteOff", "noteNumber": 62, "velocity": 64 }, { "deltaTime": 33, "channel": 3, "type": "channel", "subtype": "noteOff", "noteNumber": 50, "velocity": 64 }, { "deltaTime": 6, "channel": 3, "type": "channel", "subtype": "noteOff", "noteNumber": 54, "velocity": 64 }, { "deltaTime": 1, "channel": 3, "type": "channel", "subtype": "noteOff", "noteNumber": 66, "velocity": 64 }, { "deltaTime": 1, "channel": 3, "type": "channel", "subtype": "noteOff", "noteNumber": 57, "velocity": 64 }, { "deltaTime": 28, "channel": 3, "type": "channel", "noteNumber": 62, "velocity": 84, "subtype": "noteOn" }, { "deltaTime": 80, "channel": 3, "type": "channel", "subtype": "noteOff", "noteNumber": 62, "velocity": 64 }, { "deltaTime": 16, "channel": 3, "type": "channel", "subtype": "noteOff", "noteNumber": 69, "velocity": 64 }, { "deltaTime": 112, "channel": 3, "type": "channel", "subtype": "controller", "controllerType": 64, "value": 0 }, { "deltaTime": 29, "channel": 3, "type": "channel", "noteNumber": 64, "velocity": 82, "subtype": "noteOn" }, { "deltaTime": 1, "channel": 3, "type": "channel", "noteNumber": 71, "velocity": 93, "subtype": "noteOn" }, { "deltaTime": 0, "channel": 3, "type": "channel", "noteNumber": 67, "velocity": 81, "subtype": "noteOn" }, { "deltaTime": 0, "channel": 3, "type": "channel", "noteNumber": 79, "velocity": 77, "subtype": "noteOn" }, { "deltaTime": 0, "channel": 3, "type": "channel", "noteNumber": 83, "velocity": 72, "subtype": "noteOn" }, { "deltaTime": 0, "channel": 3, "type": "channel", "noteNumber": 76, "velocity": 67, "subtype": "noteOn" }, { "deltaTime": 294, "channel": 3, "type": "channel", "subtype": "noteOff", "noteNumber": 83, "velocity": 64 }, { "deltaTime": 2, "channel": 3, "type": "channel", "subtype": "noteOff", "noteNumber": 76, "velocity": 64 }, { "deltaTime": 20, "channel": 3, "type": "channel", "subtype": "noteOff", "noteNumber": 79, "velocity": 64 }, { "deltaTime": 68, "channel": 3, "type": "channel", "noteNumber": 76, "velocity": 90, "subtype": "noteOn" }, { "deltaTime": 0, "channel": 3, "type": "channel", "noteNumber": 79, "velocity": 80, "subtype": "noteOn" }, { "deltaTime": 0, "channel": 3, "type": "channel", "noteNumber": 83, "velocity": 84, "subtype": "noteOn" }, { "deltaTime": 104, "channel": 3, "type": "channel", "subtype": "noteOff", "noteNumber": 71, "velocity": 64 }, { "deltaTime": 8, "channel": 3, "type": "channel", "subtype": "noteOff", "noteNumber": 67, "velocity": 64 }, { "deltaTime": 15, "channel": 3, "type": "channel", "subtype": "noteOff", "noteNumber": 64, "velocity": 64 }, { "deltaTime": 211, "channel": 3, "type": "channel", "noteNumber": 62, "velocity": 106, "subtype": "noteOn" }, { "deltaTime": 26, "channel": 3, "type": "channel", "subtype": "noteOff", "noteNumber": 83, "velocity": 64 }, { "deltaTime": 10, "channel": 3, "type": "channel", "subtype": "controller", "controllerType": 64, "value": 127 }, { "deltaTime": 4, "channel": 3, "type": "channel", "subtype": "noteOff", "noteNumber": 79, "velocity": 64 }, { "deltaTime": 84, "channel": 3, "type": "channel", "subtype": "noteOff", "noteNumber": 76, "velocity": 64 }, { "deltaTime": 21, "channel": 3, "type": "channel", "noteNumber": 66, "velocity": 73, "subtype": "noteOn" }, { "deltaTime": 95, "channel": 3, "type": "channel", "noteNumber": 69, "velocity": 74, "subtype": "noteOn" }, { "deltaTime": 97, "channel": 3, "type": "channel", "noteNumber": 74, "velocity": 55, "subtype": "noteOn" }, { "deltaTime": 47, "channel": 3, "type": "channel", "noteNumber": 78, "velocity": 89, "subtype": "noteOn" }, { "deltaTime": 39, "channel": 3, "type": "channel", "subtype": "noteOff", "noteNumber": 74, "velocity": 64 }, { "deltaTime": 10, "channel": 3, "type": "channel", "noteNumber": 81, "velocity": 41, "subtype": "noteOn" }, { "deltaTime": 33, "channel": 3, "type": "channel", "subtype": "noteOff", "noteNumber": 78, "velocity": 64 }, { "deltaTime": 5, "channel": 3, "type": "channel", "subtype": "noteOff", "noteNumber": 81, "velocity": 64 }, { "deltaTime": 106, "channel": 3, "type": "channel", "noteNumber": 86, "velocity": 28, "subtype": "noteOn" }, { "deltaTime": 92, "channel": 3, "type": "channel", "noteNumber": 90, "velocity": 72, "subtype": "noteOn" }, { "deltaTime": 3, "channel": 3, "type": "channel", "noteNumber": 93, "velocity": 58, "subtype": "noteOn" }, { "deltaTime": 27, "channel": 3, "type": "channel", "subtype": "noteOff", "noteNumber": 86, "velocity": 64 }, { "deltaTime": 11, "channel": 3, "type": "channel", "subtype": "noteOff", "noteNumber": 93, "velocity": 64 }, { "deltaTime": 4, "channel": 3, "type": "channel", "subtype": "noteOff", "noteNumber": 69, "velocity": 64 }, { "deltaTime": 5, "channel": 3, "type": "channel", "subtype": "noteOff", "noteNumber": 66, "velocity": 64 }, { "deltaTime": 13, "channel": 3, "type": "channel", "subtype": "noteOff", "noteNumber": 62, "velocity": 64 }, { "deltaTime": 1, "channel": 3, "type": "channel", "subtype": "noteOff", "noteNumber": 90, "velocity": 64 }, { "deltaTime": 761, "channel": 3, "type": "channel", "subtype": "controller", "controllerType": 64, "value": 0 }, { "deltaTime": 0, "type": "meta", "subtype": "endOfTrack" }], [{ "deltaTime": 0, "type": "meta", "subtype": "unknown", "data": "\u0000" }, { "deltaTime": 0, "type": "meta", "subtype": "trackName", "text": "fill.....           " }, { "deltaTime": 0, "channel": 4, "type": "channel", "subtype": "programChange", "programNumber": 72 }, { "deltaTime": 0, "channel": 4, "type": "channel", "subtype": "controller", "controllerType": 10, "value": 20 }, { "deltaTime": 0, "channel": 4, "type": "channel", "subtype": "controller", "controllerType": 0, "value": 0 }, { "deltaTime": 0, "channel": 4, "type": "channel", "subtype": "controller", "controllerType": 93, "value": 0 }, { "deltaTime": 0, "channel": 4, "type": "channel", "subtype": "controller", "controllerType": 91, "value": 60 }, { "deltaTime": 2496, "channel": 4, "type": "channel", "noteNumber": 81, "velocity": 120, "subtype": "noteOn" }, { "deltaTime": 34, "channel": 4, "type": "channel", "subtype": "noteOff", "noteNumber": 81, "velocity": 64 }, { "deltaTime": 54, "channel": 4, "type": "channel", "noteNumber": 83, "velocity": 120, "subtype": "noteOn" }, { "deltaTime": 36, "channel": 4, "type": "channel", "subtype": "noteOff", "noteNumber": 83, "velocity": 64 }, { "deltaTime": 66, "channel": 4, "type": "channel", "noteNumber": 81, "velocity": 120, "subtype": "noteOn" }, { "deltaTime": 34, "channel": 4, "type": "channel", "subtype": "noteOff", "noteNumber": 81, "velocity": 64 }, { "deltaTime": 4, "channel": 4, "type": "channel", "noteNumber": 83, "velocity": 120, "subtype": "noteOn" }, { "deltaTime": 26, "channel": 4, "type": "channel", "noteNumber": 81, "velocity": 120, "subtype": "noteOn" }, { "deltaTime": 6, "channel": 4, "type": "channel", "subtype": "noteOff", "noteNumber": 83, "velocity": 64 }, { "deltaTime": 24, "channel": 4, "type": "channel", "subtype": "noteOff", "noteNumber": 81, "velocity": 64 }, { "deltaTime": 2, "channel": 4, "type": "channel", "noteNumber": 83, "velocity": 120, "subtype": "noteOn" }, { "deltaTime": 28, "channel": 4, "type": "channel", "noteNumber": 81, "velocity": 120, "subtype": "noteOn" }, { "deltaTime": 4, "channel": 4, "type": "channel", "subtype": "noteOff", "noteNumber": 83, "velocity": 64 }, { "deltaTime": 24, "channel": 4, "type": "channel", "noteNumber": 83, "velocity": 120, "subtype": "noteOn" }, { "deltaTime": 4, "channel": 4, "type": "channel", "subtype": "noteOff", "noteNumber": 81, "velocity": 64 }, { "deltaTime": 20, "channel": 4, "type": "channel", "noteNumber": 81, "velocity": 120, "subtype": "noteOn" }, { "deltaTime": 8, "channel": 4, "type": "channel", "subtype": "noteOff", "noteNumber": 83, "velocity": 64 }, { "deltaTime": 32, "channel": 4, "type": "channel", "subtype": "noteOff", "noteNumber": 81, "velocity": 64 }, { "deltaTime": 376, "channel": 4, "type": "channel", "noteNumber": 81, "velocity": 120, "subtype": "noteOn" }, { "deltaTime": 34, "channel": 4, "type": "channel", "subtype": "noteOff", "noteNumber": 81, "velocity": 64 }, { "deltaTime": 54, "channel": 4, "type": "channel", "noteNumber": 83, "velocity": 120, "subtype": "noteOn" }, { "deltaTime": 40, "channel": 4, "type": "channel", "subtype": "noteOff", "noteNumber": 83, "velocity": 64 }, { "deltaTime": 48, "channel": 4, "type": "channel", "noteNumber": 81, "velocity": 120, "subtype": "noteOn" }, { "deltaTime": 32, "channel": 4, "type": "channel", "noteNumber": 83, "velocity": 120, "subtype": "noteOn" }, { "deltaTime": 2, "channel": 4, "type": "channel", "subtype": "noteOff", "noteNumber": 81, "velocity": 64 }, { "deltaTime": 32, "channel": 4, "type": "channel", "noteNumber": 81, "velocity": 120, "subtype": "noteOn" }, { "deltaTime": 6, "channel": 4, "type": "channel", "subtype": "noteOff", "noteNumber": 83, "velocity": 64 }, { "deltaTime": 26, "channel": 4, "type": "channel", "subtype": "noteOff", "noteNumber": 81, "velocity": 64 }, { "deltaTime": 0, "channel": 4, "type": "channel", "noteNumber": 83, "velocity": 112, "subtype": "noteOn" }, { "deltaTime": 24, "channel": 4, "type": "channel", "noteNumber": 81, "velocity": 120, "subtype": "noteOn" }, { "deltaTime": 12, "channel": 4, "type": "channel", "subtype": "noteOff", "noteNumber": 83, "velocity": 64 }, { "deltaTime": 20, "channel": 4, "type": "channel", "subtype": "noteOff", "noteNumber": 81, "velocity": 64 }, { "deltaTime": 0, "channel": 4, "type": "channel", "noteNumber": 83, "velocity": 100, "subtype": "noteOn" }, { "deltaTime": 22, "channel": 4, "type": "channel", "noteNumber": 81, "velocity": 120, "subtype": "noteOn" }, { "deltaTime": 6, "channel": 4, "type": "channel", "subtype": "noteOff", "noteNumber": 83, "velocity": 64 }, { "deltaTime": 64, "channel": 4, "type": "channel", "subtype": "noteOff", "noteNumber": 81, "velocity": 64 }, { "deltaTime": 14158, "channel": 4, "type": "channel", "noteNumber": 81, "velocity": 120, "subtype": "noteOn" }, { "deltaTime": 34, "channel": 4, "type": "channel", "subtype": "noteOff", "noteNumber": 81, "velocity": 64 }, { "deltaTime": 58, "channel": 4, "type": "channel", "noteNumber": 83, "velocity": 120, "subtype": "noteOn" }, { "deltaTime": 32, "channel": 4, "type": "channel", "subtype": "noteOff", "noteNumber": 83, "velocity": 64 }, { "deltaTime": 82, "channel": 4, "type": "channel", "noteNumber": 81, "velocity": 120, "subtype": "noteOn" }, { "deltaTime": 30, "channel": 4, "type": "channel", "subtype": "noteOff", "noteNumber": 81, "velocity": 64 }, { "deltaTime": 10, "channel": 4, "type": "channel", "noteNumber": 83, "velocity": 120, "subtype": "noteOn" }, { "deltaTime": 30, "channel": 4, "type": "channel", "subtype": "noteOff", "noteNumber": 83, "velocity": 64 }, { "deltaTime": 0, "channel": 4, "type": "channel", "noteNumber": 81, "velocity": 120, "subtype": "noteOn" }, { "deltaTime": 20, "channel": 4, "type": "channel", "subtype": "noteOff", "noteNumber": 81, "velocity": 64 }, { "deltaTime": 4, "channel": 4, "type": "channel", "noteNumber": 83, "velocity": 116, "subtype": "noteOn" }, { "deltaTime": 30, "channel": 4, "type": "channel", "noteNumber": 81, "velocity": 120, "subtype": "noteOn" }, { "deltaTime": 2, "channel": 4, "type": "channel", "subtype": "noteOff", "noteNumber": 83, "velocity": 64 }, { "deltaTime": 22, "channel": 4, "type": "channel", "subtype": "noteOff", "noteNumber": 81, "velocity": 64 }, { "deltaTime": 4, "channel": 4, "type": "channel", "noteNumber": 83, "velocity": 120, "subtype": "noteOn" }, { "deltaTime": 30, "channel": 4, "type": "channel", "noteNumber": 81, "velocity": 120, "subtype": "noteOn" }, { "deltaTime": 4, "channel": 4, "type": "channel", "subtype": "noteOff", "noteNumber": 83, "velocity": 64 }, { "deltaTime": 78, "channel": 4, "type": "channel", "subtype": "noteOff", "noteNumber": 81, "velocity": 64 }, { "deltaTime": 314, "channel": 4, "type": "channel", "noteNumber": 81, "velocity": 120, "subtype": "noteOn" }, { "deltaTime": 34, "channel": 4, "type": "channel", "subtype": "noteOff", "noteNumber": 81, "velocity": 64 }, { "deltaTime": 58, "channel": 4, "type": "channel", "noteNumber": 83, "velocity": 120, "subtype": "noteOn" }, { "deltaTime": 36, "channel": 4, "type": "channel", "subtype": "noteOff", "noteNumber": 83, "velocity": 64 }, { "deltaTime": 64, "channel": 4, "type": "channel", "noteNumber": 81, "velocity": 120, "subtype": "noteOn" }, { "deltaTime": 32, "channel": 4, "type": "channel", "subtype": "noteOff", "noteNumber": 81, "velocity": 64 }, { "deltaTime": 6, "channel": 4, "type": "channel", "noteNumber": 83, "velocity": 120, "subtype": "noteOn" }, { "deltaTime": 32, "channel": 4, "type": "channel", "noteNumber": 81, "velocity": 120, "subtype": "noteOn" }, { "deltaTime": 2, "channel": 4, "type": "channel", "subtype": "noteOff", "noteNumber": 83, "velocity": 64 }, { "deltaTime": 26, "channel": 4, "type": "channel", "subtype": "noteOff", "noteNumber": 81, "velocity": 64 }, { "deltaTime": 10, "channel": 4, "type": "channel", "noteNumber": 83, "velocity": 120, "subtype": "noteOn" }, { "deltaTime": 24, "channel": 4, "type": "channel", "subtype": "noteOff", "noteNumber": 83, "velocity": 64 }, { "deltaTime": 0, "channel": 4, "type": "channel", "noteNumber": 81, "velocity": 120, "subtype": "noteOn" }, { "deltaTime": 28, "channel": 4, "type": "channel", "subtype": "noteOff", "noteNumber": 81, "velocity": 64 }, { "deltaTime": 6, "channel": 4, "type": "channel", "noteNumber": 83, "velocity": 120, "subtype": "noteOn" }, { "deltaTime": 26, "channel": 4, "type": "channel", "subtype": "noteOff", "noteNumber": 83, "velocity": 64 }, { "deltaTime": 0, "channel": 4, "type": "channel", "noteNumber": 81, "velocity": 120, "subtype": "noteOn" }, { "deltaTime": 28, "channel": 4, "type": "channel", "noteNumber": 83, "velocity": 113, "subtype": "noteOn" }, { "deltaTime": 2, "channel": 4, "type": "channel", "subtype": "noteOff", "noteNumber": 81, "velocity": 64 }, { "deltaTime": 22, "channel": 4, "type": "channel", "subtype": "noteOff", "noteNumber": 83, "velocity": 64 }, { "deltaTime": 0, "channel": 4, "type": "channel", "noteNumber": 81, "velocity": 120, "subtype": "noteOn" }, { "deltaTime": 90, "channel": 4, "type": "channel", "subtype": "noteOff", "noteNumber": 81, "velocity": 64 }, { "deltaTime": 1760, "channel": 4, "type": "channel", "noteNumber": 81, "velocity": 120, "subtype": "noteOn" }, { "deltaTime": 34, "channel": 4, "type": "channel", "subtype": "noteOff", "noteNumber": 81, "velocity": 64 }, { "deltaTime": 60, "channel": 4, "type": "channel", "noteNumber": 83, "velocity": 120, "subtype": "noteOn" }, { "deltaTime": 32, "channel": 4, "type": "channel", "subtype": "noteOff", "noteNumber": 83, "velocity": 64 }, { "deltaTime": 64, "channel": 4, "type": "channel", "noteNumber": 81, "velocity": 120, "subtype": "noteOn" }, { "deltaTime": 34, "channel": 4, "type": "channel", "subtype": "noteOff", "noteNumber": 81, "velocity": 64 }, { "deltaTime": 4, "channel": 4, "type": "channel", "noteNumber": 83, "velocity": 120, "subtype": "noteOn" }, { "deltaTime": 28, "channel": 4, "type": "channel", "noteNumber": 81, "velocity": 120, "subtype": "noteOn" }, { "deltaTime": 2, "channel": 4, "type": "channel", "subtype": "noteOff", "noteNumber": 83, "velocity": 64 }, { "deltaTime": 32, "channel": 4, "type": "channel", "subtype": "noteOff", "noteNumber": 81, "velocity": 64 }, { "deltaTime": 2, "channel": 4, "type": "channel", "noteNumber": 83, "velocity": 120, "subtype": "noteOn" }, { "deltaTime": 28, "channel": 4, "type": "channel", "noteNumber": 81, "velocity": 120, "subtype": "noteOn" }, { "deltaTime": 2, "channel": 4, "type": "channel", "subtype": "noteOff", "noteNumber": 83, "velocity": 64 }, { "deltaTime": 24, "channel": 4, "type": "channel", "subtype": "noteOff", "noteNumber": 81, "velocity": 64 }, { "deltaTime": 8, "channel": 4, "type": "channel", "noteNumber": 83, "velocity": 118, "subtype": "noteOn" }, { "deltaTime": 18, "channel": 4, "type": "channel", "noteNumber": 81, "velocity": 120, "subtype": "noteOn" }, { "deltaTime": 4, "channel": 4, "type": "channel", "subtype": "noteOff", "noteNumber": 83, "velocity": 64 }, { "deltaTime": 22, "channel": 4, "type": "channel", "subtype": "noteOff", "noteNumber": 81, "velocity": 64 }, { "deltaTime": 4, "channel": 4, "type": "channel", "noteNumber": 83, "velocity": 120, "subtype": "noteOn" }, { "deltaTime": 20, "channel": 4, "type": "channel", "subtype": "noteOff", "noteNumber": 83, "velocity": 64 }, { "deltaTime": 0, "channel": 4, "type": "channel", "noteNumber": 81, "velocity": 120, "subtype": "noteOn" }, { "deltaTime": 44, "channel": 4, "type": "channel", "subtype": "noteOff", "noteNumber": 81, "velocity": 64 }, { "deltaTime": 314, "channel": 4, "type": "channel", "noteNumber": 81, "velocity": 120, "subtype": "noteOn" }, { "deltaTime": 34, "channel": 4, "type": "channel", "subtype": "noteOff", "noteNumber": 81, "velocity": 64 }, { "deltaTime": 52, "channel": 4, "type": "channel", "noteNumber": 83, "velocity": 120, "subtype": "noteOn" }, { "deltaTime": 36, "channel": 4, "type": "channel", "subtype": "noteOff", "noteNumber": 83, "velocity": 64 }, { "deltaTime": 70, "channel": 4, "type": "channel", "noteNumber": 83, "velocity": 120, "subtype": "noteOn" }, { "deltaTime": 32, "channel": 4, "type": "channel", "subtype": "noteOff", "noteNumber": 83, "velocity": 64 }, { "deltaTime": 0, "channel": 4, "type": "channel", "noteNumber": 81, "velocity": 120, "subtype": "noteOn" }, { "deltaTime": 24, "channel": 4, "type": "channel", "subtype": "noteOff", "noteNumber": 81, "velocity": 64 }, { "deltaTime": 8, "channel": 4, "type": "channel", "noteNumber": 83, "velocity": 119, "subtype": "noteOn" }, { "deltaTime": 28, "channel": 4, "type": "channel", "subtype": "noteOff", "noteNumber": 83, "velocity": 64 }, { "deltaTime": 2, "channel": 4, "type": "channel", "noteNumber": 81, "velocity": 120, "subtype": "noteOn" }, { "deltaTime": 24, "channel": 4, "type": "channel", "subtype": "noteOff", "noteNumber": 81, "velocity": 64 }, { "deltaTime": 8, "channel": 4, "type": "channel", "noteNumber": 83, "velocity": 119, "subtype": "noteOn" }, { "deltaTime": 24, "channel": 4, "type": "channel", "subtype": "noteOff", "noteNumber": 83, "velocity": 64 }, { "deltaTime": 2, "channel": 4, "type": "channel", "noteNumber": 81, "velocity": 118, "subtype": "noteOn" }, { "deltaTime": 30, "channel": 4, "type": "channel", "subtype": "noteOff", "noteNumber": 81, "velocity": 64 }, { "deltaTime": 4, "channel": 4, "type": "channel", "noteNumber": 83, "velocity": 118, "subtype": "noteOn" }, { "deltaTime": 24, "channel": 4, "type": "channel", "noteNumber": 81, "velocity": 109, "subtype": "noteOn" }, { "deltaTime": 6, "channel": 4, "type": "channel", "subtype": "noteOff", "noteNumber": 83, "velocity": 64 }, { "deltaTime": 128, "channel": 4, "type": "channel", "subtype": "noteOff", "noteNumber": 81, "velocity": 64 }, { "deltaTime": 1756, "channel": 4, "type": "channel", "noteNumber": 81, "velocity": 120, "subtype": "noteOn" }, { "deltaTime": 28, "channel": 4, "type": "channel", "subtype": "noteOff", "noteNumber": 81, "velocity": 64 }, { "deltaTime": 62, "channel": 4, "type": "channel", "noteNumber": 83, "velocity": 120, "subtype": "noteOn" }, { "deltaTime": 34, "channel": 4, "type": "channel", "subtype": "noteOff", "noteNumber": 83, "velocity": 64 }, { "deltaTime": 70, "channel": 4, "type": "channel", "noteNumber": 81, "velocity": 120, "subtype": "noteOn" }, { "deltaTime": 36, "channel": 4, "type": "channel", "subtype": "noteOff", "noteNumber": 81, "velocity": 64 }, { "deltaTime": 4, "channel": 4, "type": "channel", "noteNumber": 83, "velocity": 120, "subtype": "noteOn" }, { "deltaTime": 30, "channel": 4, "type": "channel", "noteNumber": 81, "velocity": 120, "subtype": "noteOn" }, { "deltaTime": 4, "channel": 4, "type": "channel", "subtype": "noteOff", "noteNumber": 83, "velocity": 64 }, { "deltaTime": 24, "channel": 4, "type": "channel", "subtype": "noteOff", "noteNumber": 81, "velocity": 64 }, { "deltaTime": 2, "channel": 4, "type": "channel", "noteNumber": 83, "velocity": 113, "subtype": "noteOn" }, { "deltaTime": 28, "channel": 4, "type": "channel", "subtype": "noteOff", "noteNumber": 83, "velocity": 64 }, { "deltaTime": 2, "channel": 4, "type": "channel", "noteNumber": 81, "velocity": 120, "subtype": "noteOn" }, { "deltaTime": 26, "channel": 4, "type": "channel", "subtype": "noteOff", "noteNumber": 81, "velocity": 64 }, { "deltaTime": 10, "channel": 4, "type": "channel", "noteNumber": 83, "velocity": 120, "subtype": "noteOn" }, { "deltaTime": 22, "channel": 4, "type": "channel", "subtype": "noteOff", "noteNumber": 83, "velocity": 64 }, { "deltaTime": 0, "channel": 4, "type": "channel", "noteNumber": 81, "velocity": 120, "subtype": "noteOn" }, { "deltaTime": 86, "channel": 4, "type": "channel", "subtype": "noteOff", "noteNumber": 81, "velocity": 64 }, { "deltaTime": 298, "channel": 4, "type": "channel", "noteNumber": 81, "velocity": 120, "subtype": "noteOn" }, { "deltaTime": 34, "channel": 4, "type": "channel", "subtype": "noteOff", "noteNumber": 81, "velocity": 64 }, { "deltaTime": 56, "channel": 4, "type": "channel", "noteNumber": 83, "velocity": 120, "subtype": "noteOn" }, { "deltaTime": 36, "channel": 4, "type": "channel", "subtype": "noteOff", "noteNumber": 83, "velocity": 64 }, { "deltaTime": 60, "channel": 4, "type": "channel", "noteNumber": 81, "velocity": 120, "subtype": "noteOn" }, { "deltaTime": 24, "channel": 4, "type": "channel", "subtype": "noteOff", "noteNumber": 81, "velocity": 64 }, { "deltaTime": 6, "channel": 4, "type": "channel", "noteNumber": 83, "velocity": 120, "subtype": "noteOn" }, { "deltaTime": 30, "channel": 4, "type": "channel", "subtype": "noteOff", "noteNumber": 83, "velocity": 64 }, { "deltaTime": 2, "channel": 4, "type": "channel", "noteNumber": 81, "velocity": 120, "subtype": "noteOn" }, { "deltaTime": 24, "channel": 4, "type": "channel", "subtype": "noteOff", "noteNumber": 81, "velocity": 64 }, { "deltaTime": 8, "channel": 4, "type": "channel", "noteNumber": 83, "velocity": 118, "subtype": "noteOn" }, { "deltaTime": 22, "channel": 4, "type": "channel", "subtype": "noteOff", "noteNumber": 83, "velocity": 64 }, { "deltaTime": 4, "channel": 4, "type": "channel", "noteNumber": 81, "velocity": 120, "subtype": "noteOn" }, { "deltaTime": 26, "channel": 4, "type": "channel", "subtype": "noteOff", "noteNumber": 81, "velocity": 64 }, { "deltaTime": 10, "channel": 4, "type": "channel", "noteNumber": 83, "velocity": 120, "subtype": "noteOn" }, { "deltaTime": 24, "channel": 4, "type": "channel", "subtype": "noteOff", "noteNumber": 83, "velocity": 64 }, { "deltaTime": 0, "channel": 4, "type": "channel", "noteNumber": 81, "velocity": 113, "subtype": "noteOn" }, { "deltaTime": 112, "channel": 4, "type": "channel", "subtype": "noteOff", "noteNumber": 81, "velocity": 64 }, { "deltaTime": 1832, "channel": 4, "type": "channel", "noteNumber": 81, "velocity": 120, "subtype": "noteOn" }, { "deltaTime": 30, "channel": 4, "type": "channel", "subtype": "noteOff", "noteNumber": 81, "velocity": 64 }, { "deltaTime": 64, "channel": 4, "type": "channel", "noteNumber": 83, "velocity": 120, "subtype": "noteOn" }, { "deltaTime": 32, "channel": 4, "type": "channel", "subtype": "noteOff", "noteNumber": 83, "velocity": 64 }, { "deltaTime": 62, "channel": 4, "type": "channel", "noteNumber": 81, "velocity": 120, "subtype": "noteOn" }, { "deltaTime": 42, "channel": 4, "type": "channel", "subtype": "noteOff", "noteNumber": 81, "velocity": 64 }, { "deltaTime": 2, "channel": 4, "type": "channel", "noteNumber": 83, "velocity": 120, "subtype": "noteOn" }, { "deltaTime": 38, "channel": 4, "type": "channel", "noteNumber": 81, "velocity": 118, "subtype": "noteOn" }, { "deltaTime": 2, "channel": 4, "type": "channel", "subtype": "noteOff", "noteNumber": 83, "velocity": 64 }, { "deltaTime": 22, "channel": 4, "type": "channel", "subtype": "noteOff", "noteNumber": 81, "velocity": 64 }, { "deltaTime": 4, "channel": 4, "type": "channel", "noteNumber": 83, "velocity": 116, "subtype": "noteOn" }, { "deltaTime": 28, "channel": 4, "type": "channel", "noteNumber": 81, "velocity": 120, "subtype": "noteOn" }, { "deltaTime": 2, "channel": 4, "type": "channel", "subtype": "noteOff", "noteNumber": 83, "velocity": 64 }, { "deltaTime": 26, "channel": 4, "type": "channel", "subtype": "noteOff", "noteNumber": 81, "velocity": 64 }, { "deltaTime": 2, "channel": 4, "type": "channel", "noteNumber": 83, "velocity": 113, "subtype": "noteOn" }, { "deltaTime": 22, "channel": 4, "type": "channel", "noteNumber": 81, "velocity": 120, "subtype": "noteOn" }, { "deltaTime": 2, "channel": 4, "type": "channel", "subtype": "noteOff", "noteNumber": 83, "velocity": 64 }, { "deltaTime": 124, "channel": 4, "type": "channel", "subtype": "noteOff", "noteNumber": 81, "velocity": 64 }, { "deltaTime": 260, "channel": 4, "type": "channel", "noteNumber": 81, "velocity": 120, "subtype": "noteOn" }, { "deltaTime": 34, "channel": 4, "type": "channel", "subtype": "noteOff", "noteNumber": 81, "velocity": 64 }, { "deltaTime": 60, "channel": 4, "type": "channel", "noteNumber": 83, "velocity": 120, "subtype": "noteOn" }, { "deltaTime": 32, "channel": 4, "type": "channel", "subtype": "noteOff", "noteNumber": 83, "velocity": 64 }, { "deltaTime": 62, "channel": 4, "type": "channel", "noteNumber": 81, "velocity": 120, "subtype": "noteOn" }, { "deltaTime": 36, "channel": 4, "type": "channel", "subtype": "noteOff", "noteNumber": 81, "velocity": 64 }, { "deltaTime": 0, "channel": 4, "type": "channel", "noteNumber": 83, "velocity": 120, "subtype": "noteOn" }, { "deltaTime": 28, "channel": 4, "type": "channel", "subtype": "noteOff", "noteNumber": 83, "velocity": 64 }, { "deltaTime": 2, "channel": 4, "type": "channel", "noteNumber": 81, "velocity": 120, "subtype": "noteOn" }, { "deltaTime": 34, "channel": 4, "type": "channel", "subtype": "noteOff", "noteNumber": 81, "velocity": 64 }, { "deltaTime": 4, "channel": 4, "type": "channel", "noteNumber": 83, "velocity": 120, "subtype": "noteOn" }, { "deltaTime": 20, "channel": 4, "type": "channel", "subtype": "noteOff", "noteNumber": 83, "velocity": 64 }, { "deltaTime": 0, "channel": 4, "type": "channel", "noteNumber": 81, "velocity": 115, "subtype": "noteOn" }, { "deltaTime": 32, "channel": 4, "type": "channel", "subtype": "noteOff", "noteNumber": 81, "velocity": 64 }, { "deltaTime": 2, "channel": 4, "type": "channel", "noteNumber": 83, "velocity": 113, "subtype": "noteOn" }, { "deltaTime": 24, "channel": 4, "type": "channel", "subtype": "noteOff", "noteNumber": 83, "velocity": 64 }, { "deltaTime": 0, "channel": 4, "type": "channel", "noteNumber": 81, "velocity": 119, "subtype": "noteOn" }, { "deltaTime": 108, "channel": 4, "type": "channel", "subtype": "noteOff", "noteNumber": 81, "velocity": 64 }, { "deltaTime": 1660, "channel": 4, "type": "channel", "noteNumber": 81, "velocity": 120, "subtype": "noteOn" }, { "deltaTime": 32, "channel": 4, "type": "channel", "subtype": "noteOff", "noteNumber": 81, "velocity": 64 }, { "deltaTime": 0, "channel": 4, "type": "channel", "noteNumber": 83, "velocity": 120, "subtype": "noteOn" }, { "deltaTime": 32, "channel": 4, "type": "channel", "noteNumber": 81, "velocity": 120, "subtype": "noteOn" }, { "deltaTime": 4, "channel": 4, "type": "channel", "subtype": "noteOff", "noteNumber": 83, "velocity": 64 }, { "deltaTime": 24, "channel": 4, "type": "channel", "subtype": "noteOff", "noteNumber": 81, "velocity": 64 }, { "deltaTime": 4, "channel": 4, "type": "channel", "noteNumber": 83, "velocity": 113, "subtype": "noteOn" }, { "deltaTime": 24, "channel": 4, "type": "channel", "noteNumber": 81, "velocity": 116, "subtype": "noteOn" }, { "deltaTime": 2, "channel": 4, "type": "channel", "subtype": "noteOff", "noteNumber": 83, "velocity": 64 }, { "deltaTime": 30, "channel": 4, "type": "channel", "subtype": "noteOff", "noteNumber": 81, "velocity": 64 }, { "deltaTime": 2, "channel": 4, "type": "channel", "noteNumber": 83, "velocity": 120, "subtype": "noteOn" }, { "deltaTime": 26, "channel": 4, "type": "channel", "subtype": "noteOff", "noteNumber": 83, "velocity": 64 }, { "deltaTime": 0, "channel": 4, "type": "channel", "noteNumber": 81, "velocity": 117, "subtype": "noteOn" }, { "deltaTime": 34, "channel": 4, "type": "channel", "subtype": "noteOff", "noteNumber": 81, "velocity": 64 }, { "deltaTime": 2, "channel": 4, "type": "channel", "noteNumber": 83, "velocity": 120, "subtype": "noteOn" }, { "deltaTime": 18, "channel": 4, "type": "channel", "subtype": "noteOff", "noteNumber": 83, "velocity": 64 }, { "deltaTime": 6, "channel": 4, "type": "channel", "noteNumber": 81, "velocity": 120, "subtype": "noteOn" }, { "deltaTime": 34, "channel": 4, "type": "channel", "subtype": "noteOff", "noteNumber": 81, "velocity": 64 }, { "deltaTime": 0, "channel": 4, "type": "channel", "noteNumber": 83, "velocity": 120, "subtype": "noteOn" }, { "deltaTime": 20, "channel": 4, "type": "channel", "subtype": "noteOff", "noteNumber": 83, "velocity": 64 }, { "deltaTime": 6, "channel": 4, "type": "channel", "noteNumber": 81, "velocity": 120, "subtype": "noteOn" }, { "deltaTime": 22, "channel": 4, "type": "channel", "subtype": "noteOff", "noteNumber": 81, "velocity": 64 }, { "deltaTime": 6, "channel": 4, "type": "channel", "noteNumber": 83, "velocity": 120, "subtype": "noteOn" }, { "deltaTime": 28, "channel": 4, "type": "channel", "subtype": "noteOff", "noteNumber": 83, "velocity": 64 }, { "deltaTime": 0, "channel": 4, "type": "channel", "noteNumber": 81, "velocity": 113, "subtype": "noteOn" }, { "deltaTime": 22, "channel": 4, "type": "channel", "subtype": "noteOff", "noteNumber": 81, "velocity": 64 }, { "deltaTime": 4, "channel": 4, "type": "channel", "noteNumber": 83, "velocity": 118, "subtype": "noteOn" }, { "deltaTime": 22, "channel": 4, "type": "channel", "noteNumber": 81, "velocity": 118, "subtype": "noteOn" }, { "deltaTime": 6, "channel": 4, "type": "channel", "subtype": "noteOff", "noteNumber": 83, "velocity": 64 }, { "deltaTime": 26, "channel": 4, "type": "channel", "subtype": "noteOff", "noteNumber": 81, "velocity": 64 }, { "deltaTime": 2, "channel": 4, "type": "channel", "noteNumber": 83, "velocity": 116, "subtype": "noteOn" }, { "deltaTime": 18, "channel": 4, "type": "channel", "subtype": "noteOff", "noteNumber": 83, "velocity": 64 }, { "deltaTime": 2, "channel": 4, "type": "channel", "noteNumber": 81, "velocity": 120, "subtype": "noteOn" }, { "deltaTime": 32, "channel": 4, "type": "channel", "subtype": "noteOff", "noteNumber": 81, "velocity": 64 }, { "deltaTime": 2, "channel": 4, "type": "channel", "noteNumber": 83, "velocity": 120, "subtype": "noteOn" }, { "deltaTime": 24, "channel": 4, "type": "channel", "subtype": "noteOff", "noteNumber": 83, "velocity": 64 }, { "deltaTime": 0, "channel": 4, "type": "channel", "noteNumber": 81, "velocity": 112, "subtype": "noteOn" }, { "deltaTime": 22, "channel": 4, "type": "channel", "subtype": "noteOff", "noteNumber": 81, "velocity": 64 }, { "deltaTime": 8, "channel": 4, "type": "channel", "noteNumber": 83, "velocity": 105, "subtype": "noteOn" }, { "deltaTime": 20, "channel": 4, "type": "channel", "subtype": "noteOff", "noteNumber": 83, "velocity": 64 }, { "deltaTime": 0, "channel": 4, "type": "channel", "noteNumber": 81, "velocity": 116, "subtype": "noteOn" }, { "deltaTime": 24, "channel": 4, "type": "channel", "subtype": "noteOff", "noteNumber": 81, "velocity": 64 }, { "deltaTime": 4, "channel": 4, "type": "channel", "noteNumber": 83, "velocity": 100, "subtype": "noteOn" }, { "deltaTime": 24, "channel": 4, "type": "channel", "subtype": "noteOff", "noteNumber": 83, "velocity": 64 }, { "deltaTime": 0, "channel": 4, "type": "channel", "noteNumber": 81, "velocity": 113, "subtype": "noteOn" }, { "deltaTime": 30, "channel": 4, "type": "channel", "subtype": "noteOff", "noteNumber": 81, "velocity": 64 }, { "deltaTime": 0, "channel": 4, "type": "channel", "noteNumber": 83, "velocity": 116, "subtype": "noteOn" }, { "deltaTime": 26, "channel": 4, "type": "channel", "noteNumber": 81, "velocity": 120, "subtype": "noteOn" }, { "deltaTime": 2, "channel": 4, "type": "channel", "subtype": "noteOff", "noteNumber": 83, "velocity": 64 }, { "deltaTime": 28, "channel": 4, "type": "channel", "subtype": "noteOff", "noteNumber": 81, "velocity": 64 }, { "deltaTime": 4, "channel": 4, "type": "channel", "noteNumber": 83, "velocity": 120, "subtype": "noteOn" }, { "deltaTime": 22, "channel": 4, "type": "channel", "noteNumber": 81, "velocity": 120, "subtype": "noteOn" }, { "deltaTime": 2, "channel": 4, "type": "channel", "subtype": "noteOff", "noteNumber": 83, "velocity": 64 }, { "deltaTime": 34, "channel": 4, "type": "channel", "subtype": "noteOff", "noteNumber": 81, "velocity": 64 }, { "deltaTime": 0, "channel": 4, "type": "channel", "noteNumber": 83, "velocity": 120, "subtype": "noteOn" }, { "deltaTime": 30, "channel": 4, "type": "channel", "subtype": "noteOff", "noteNumber": 83, "velocity": 64 }, { "deltaTime": 0, "channel": 4, "type": "channel", "noteNumber": 81, "velocity": 101, "subtype": "noteOn" }, { "deltaTime": 26, "channel": 4, "type": "channel", "subtype": "noteOff", "noteNumber": 81, "velocity": 64 }, { "deltaTime": 22, "channel": 4, "type": "channel", "noteNumber": 81, "velocity": 88, "subtype": "noteOn" }, { "deltaTime": 22, "channel": 4, "type": "channel", "noteNumber": 83, "velocity": 120, "subtype": "noteOn" }, { "deltaTime": 2, "channel": 4, "type": "channel", "subtype": "noteOff", "noteNumber": 81, "velocity": 64 }, { "deltaTime": 22, "channel": 4, "type": "channel", "noteNumber": 81, "velocity": 120, "subtype": "noteOn" }, { "deltaTime": 2, "channel": 4, "type": "channel", "subtype": "noteOff", "noteNumber": 83, "velocity": 64 }, { "deltaTime": 52, "channel": 4, "type": "channel", "noteNumber": 83, "velocity": 102, "subtype": "noteOn" }, { "deltaTime": 16, "channel": 4, "type": "channel", "subtype": "noteOff", "noteNumber": 81, "velocity": 64 }, { "deltaTime": 18, "channel": 4, "type": "channel", "noteNumber": 81, "velocity": 104, "subtype": "noteOn" }, { "deltaTime": 2, "channel": 4, "type": "channel", "subtype": "noteOff", "noteNumber": 83, "velocity": 64 }, { "deltaTime": 32, "channel": 4, "type": "channel", "noteNumber": 83, "velocity": 116, "subtype": "noteOn" }, { "deltaTime": 2, "channel": 4, "type": "channel", "subtype": "noteOff", "noteNumber": 81, "velocity": 64 }, { "deltaTime": 20, "channel": 4, "type": "channel", "subtype": "noteOff", "noteNumber": 83, "velocity": 64 }, { "deltaTime": 2, "channel": 4, "type": "channel", "noteNumber": 81, "velocity": 92, "subtype": "noteOn" }, { "deltaTime": 26, "channel": 4, "type": "channel", "subtype": "noteOff", "noteNumber": 81, "velocity": 64 }, { "deltaTime": 4, "channel": 4, "type": "channel", "noteNumber": 83, "velocity": 106, "subtype": "noteOn" }, { "deltaTime": 18, "channel": 4, "type": "channel", "noteNumber": 81, "velocity": 111, "subtype": "noteOn" }, { "deltaTime": 4, "channel": 4, "type": "channel", "subtype": "noteOff", "noteNumber": 83, "velocity": 64 }, { "deltaTime": 26, "channel": 4, "type": "channel", "noteNumber": 83, "velocity": 116, "subtype": "noteOn" }, { "deltaTime": 6, "channel": 4, "type": "channel", "subtype": "noteOff", "noteNumber": 81, "velocity": 64 }, { "deltaTime": 22, "channel": 4, "type": "channel", "noteNumber": 81, "velocity": 107, "subtype": "noteOn" }, { "deltaTime": 4, "channel": 4, "type": "channel", "subtype": "noteOff", "noteNumber": 83, "velocity": 64 }, { "deltaTime": 28, "channel": 4, "type": "channel", "subtype": "noteOff", "noteNumber": 81, "velocity": 64 }, { "deltaTime": 0, "channel": 4, "type": "channel", "noteNumber": 83, "velocity": 120, "subtype": "noteOn" }, { "deltaTime": 30, "channel": 4, "type": "channel", "noteNumber": 81, "velocity": 108, "subtype": "noteOn" }, { "deltaTime": 8, "channel": 4, "type": "channel", "subtype": "noteOff", "noteNumber": 83, "velocity": 64 }, { "deltaTime": 26, "channel": 4, "type": "channel", "noteNumber": 83, "velocity": 115, "subtype": "noteOn" }, { "deltaTime": 2, "channel": 4, "type": "channel", "subtype": "noteOff", "noteNumber": 81, "velocity": 64 }, { "deltaTime": 26, "channel": 4, "type": "channel", "noteNumber": 81, "velocity": 120, "subtype": "noteOn" }, { "deltaTime": 6, "channel": 4, "type": "channel", "subtype": "noteOff", "noteNumber": 83, "velocity": 64 }, { "deltaTime": 30, "channel": 4, "type": "channel", "noteNumber": 83, "velocity": 120, "subtype": "noteOn" }, { "deltaTime": 6, "channel": 4, "type": "channel", "subtype": "noteOff", "noteNumber": 81, "velocity": 64 }, { "deltaTime": 26, "channel": 4, "type": "channel", "noteNumber": 81, "velocity": 106, "subtype": "noteOn" }, { "deltaTime": 2, "channel": 4, "type": "channel", "subtype": "noteOff", "noteNumber": 83, "velocity": 64 }, { "deltaTime": 142, "channel": 4, "type": "channel", "subtype": "noteOff", "noteNumber": 81, "velocity": 64 }, { "deltaTime": 6368, "channel": 4, "type": "channel", "noteNumber": 81, "velocity": 120, "subtype": "noteOn" }, { "deltaTime": 26, "channel": 4, "type": "channel", "subtype": "noteOff", "noteNumber": 81, "velocity": 64 }, { "deltaTime": 68, "channel": 4, "type": "channel", "noteNumber": 83, "velocity": 120, "subtype": "noteOn" }, { "deltaTime": 34, "channel": 4, "type": "channel", "subtype": "noteOff", "noteNumber": 83, "velocity": 64 }, { "deltaTime": 66, "channel": 4, "type": "channel", "noteNumber": 81, "velocity": 120, "subtype": "noteOn" }, { "deltaTime": 26, "channel": 4, "type": "channel", "subtype": "noteOff", "noteNumber": 81, "velocity": 64 }, { "deltaTime": 8, "channel": 4, "type": "channel", "noteNumber": 83, "velocity": 120, "subtype": "noteOn" }, { "deltaTime": 28, "channel": 4, "type": "channel", "subtype": "noteOff", "noteNumber": 83, "velocity": 64 }, { "deltaTime": 0, "channel": 4, "type": "channel", "noteNumber": 81, "velocity": 120, "subtype": "noteOn" }, { "deltaTime": 28, "channel": 4, "type": "channel", "subtype": "noteOff", "noteNumber": 81, "velocity": 64 }, { "deltaTime": 6, "channel": 4, "type": "channel", "noteNumber": 83, "velocity": 120, "subtype": "noteOn" }, { "deltaTime": 20, "channel": 4, "type": "channel", "subtype": "noteOff", "noteNumber": 83, "velocity": 64 }, { "deltaTime": 0, "channel": 4, "type": "channel", "noteNumber": 81, "velocity": 120, "subtype": "noteOn" }, { "deltaTime": 32, "channel": 4, "type": "channel", "subtype": "noteOff", "noteNumber": 81, "velocity": 64 }, { "deltaTime": 6, "channel": 4, "type": "channel", "noteNumber": 83, "velocity": 99, "subtype": "noteOn" }, { "deltaTime": 16, "channel": 4, "type": "channel", "noteNumber": 81, "velocity": 120, "subtype": "noteOn" }, { "deltaTime": 22, "channel": 4, "type": "channel", "subtype": "noteOff", "noteNumber": 81, "velocity": 64 }, { "deltaTime": 14, "channel": 4, "type": "channel", "noteNumber": 81, "velocity": 103, "subtype": "noteOn" }, { "deltaTime": 4, "channel": 4, "type": "channel", "subtype": "noteOff", "noteNumber": 83, "velocity": 64 }, { "deltaTime": 44, "channel": 4, "type": "channel", "subtype": "noteOff", "noteNumber": 81, "velocity": 64 }, { "deltaTime": 334, "channel": 4, "type": "channel", "noteNumber": 81, "velocity": 120, "subtype": "noteOn" }, { "deltaTime": 32, "channel": 4, "type": "channel", "subtype": "noteOff", "noteNumber": 81, "velocity": 64 }, { "deltaTime": 62, "channel": 4, "type": "channel", "noteNumber": 83, "velocity": 120, "subtype": "noteOn" }, { "deltaTime": 34, "channel": 4, "type": "channel", "subtype": "noteOff", "noteNumber": 83, "velocity": 64 }, { "deltaTime": 58, "channel": 4, "type": "channel", "noteNumber": 81, "velocity": 120, "subtype": "noteOn" }, { "deltaTime": 30, "channel": 4, "type": "channel", "subtype": "noteOff", "noteNumber": 81, "velocity": 64 }, { "deltaTime": 8, "channel": 4, "type": "channel", "noteNumber": 83, "velocity": 120, "subtype": "noteOn" }, { "deltaTime": 24, "channel": 4, "type": "channel", "subtype": "noteOff", "noteNumber": 83, "velocity": 64 }, { "deltaTime": 4, "channel": 4, "type": "channel", "noteNumber": 81, "velocity": 120, "subtype": "noteOn" }, { "deltaTime": 28, "channel": 4, "type": "channel", "subtype": "noteOff", "noteNumber": 81, "velocity": 64 }, { "deltaTime": 6, "channel": 4, "type": "channel", "noteNumber": 83, "velocity": 120, "subtype": "noteOn" }, { "deltaTime": 18, "channel": 4, "type": "channel", "subtype": "noteOff", "noteNumber": 83, "velocity": 64 }, { "deltaTime": 2, "channel": 4, "type": "channel", "noteNumber": 81, "velocity": 120, "subtype": "noteOn" }, { "deltaTime": 34, "channel": 4, "type": "channel", "subtype": "noteOff", "noteNumber": 81, "velocity": 64 }, { "deltaTime": 4, "channel": 4, "type": "channel", "noteNumber": 83, "velocity": 120, "subtype": "noteOn" }, { "deltaTime": 18, "channel": 4, "type": "channel", "noteNumber": 81, "velocity": 120, "subtype": "noteOn" }, { "deltaTime": 6, "channel": 4, "type": "channel", "subtype": "noteOff", "noteNumber": 83, "velocity": 64 }, { "deltaTime": 48, "channel": 4, "type": "channel", "subtype": "noteOff", "noteNumber": 81, "velocity": 64 }, { "deltaTime": 1886, "channel": 4, "type": "channel", "noteNumber": 81, "velocity": 120, "subtype": "noteOn" }, { "deltaTime": 26, "channel": 4, "type": "channel", "subtype": "noteOff", "noteNumber": 81, "velocity": 64 }, { "deltaTime": 60, "channel": 4, "type": "channel", "noteNumber": 83, "velocity": 120, "subtype": "noteOn" }, { "deltaTime": 36, "channel": 4, "type": "channel", "subtype": "noteOff", "noteNumber": 83, "velocity": 64 }, { "deltaTime": 56, "channel": 4, "type": "channel", "noteNumber": 81, "velocity": 120, "subtype": "noteOn" }, { "deltaTime": 26, "channel": 4, "type": "channel", "subtype": "noteOff", "noteNumber": 81, "velocity": 64 }, { "deltaTime": 6, "channel": 4, "type": "channel", "noteNumber": 83, "velocity": 120, "subtype": "noteOn" }, { "deltaTime": 28, "channel": 4, "type": "channel", "noteNumber": 81, "velocity": 120, "subtype": "noteOn" }, { "deltaTime": 6, "channel": 4, "type": "channel", "subtype": "noteOff", "noteNumber": 83, "velocity": 64 }, { "deltaTime": 24, "channel": 4, "type": "channel", "subtype": "noteOff", "noteNumber": 81, "velocity": 64 }, { "deltaTime": 4, "channel": 4, "type": "channel", "noteNumber": 83, "velocity": 110, "subtype": "noteOn" }, { "deltaTime": 22, "channel": 4, "type": "channel", "noteNumber": 81, "velocity": 120, "subtype": "noteOn" }, { "deltaTime": 2, "channel": 4, "type": "channel", "subtype": "noteOff", "noteNumber": 83, "velocity": 64 }, { "deltaTime": 34, "channel": 4, "type": "channel", "subtype": "noteOff", "noteNumber": 81, "velocity": 64 }, { "deltaTime": 0, "channel": 4, "type": "channel", "noteNumber": 83, "velocity": 120, "subtype": "noteOn" }, { "deltaTime": 22, "channel": 4, "type": "channel", "subtype": "noteOff", "noteNumber": 83, "velocity": 64 }, { "deltaTime": 0, "channel": 4, "type": "channel", "noteNumber": 81, "velocity": 120, "subtype": "noteOn" }, { "deltaTime": 66, "channel": 4, "type": "channel", "subtype": "noteOff", "noteNumber": 81, "velocity": 64 }, { "deltaTime": 342, "channel": 4, "type": "channel", "noteNumber": 81, "velocity": 120, "subtype": "noteOn" }, { "deltaTime": 34, "channel": 4, "type": "channel", "subtype": "noteOff", "noteNumber": 81, "velocity": 64 }, { "deltaTime": 64, "channel": 4, "type": "channel", "noteNumber": 83, "velocity": 120, "subtype": "noteOn" }, { "deltaTime": 36, "channel": 4, "type": "channel", "subtype": "noteOff", "noteNumber": 83, "velocity": 64 }, { "deltaTime": 6, "channel": 4, "type": "channel", "noteNumber": 81, "velocity": 106, "subtype": "noteOn" }, { "deltaTime": 28, "channel": 4, "type": "channel", "subtype": "noteOff", "noteNumber": 81, "velocity": 64 }, { "deltaTime": 10, "channel": 4, "type": "channel", "noteNumber": 83, "velocity": 115, "subtype": "noteOn" }, { "deltaTime": 22, "channel": 4, "type": "channel", "subtype": "noteOff", "noteNumber": 83, "velocity": 64 }, { "deltaTime": 4, "channel": 4, "type": "channel", "noteNumber": 81, "velocity": 120, "subtype": "noteOn" }, { "deltaTime": 30, "channel": 4, "type": "channel", "subtype": "noteOff", "noteNumber": 81, "velocity": 64 }, { "deltaTime": 4, "channel": 4, "type": "channel", "noteNumber": 83, "velocity": 120, "subtype": "noteOn" }, { "deltaTime": 22, "channel": 4, "type": "channel", "noteNumber": 81, "velocity": 115, "subtype": "noteOn" }, { "deltaTime": 2, "channel": 4, "type": "channel", "subtype": "noteOff", "noteNumber": 83, "velocity": 64 }, { "deltaTime": 200, "channel": 4, "type": "channel", "subtype": "noteOff", "noteNumber": 81, "velocity": 64 }, { "deltaTime": 14128, "channel": 4, "type": "channel", "noteNumber": 81, "velocity": 120, "subtype": "noteOn" }, { "deltaTime": 24, "channel": 4, "type": "channel", "subtype": "noteOff", "noteNumber": 81, "velocity": 64 }, { "deltaTime": 66, "channel": 4, "type": "channel", "noteNumber": 83, "velocity": 120, "subtype": "noteOn" }, { "deltaTime": 38, "channel": 4, "type": "channel", "subtype": "noteOff", "noteNumber": 83, "velocity": 64 }, { "deltaTime": 66, "channel": 4, "type": "channel", "noteNumber": 81, "velocity": 120, "subtype": "noteOn" }, { "deltaTime": 24, "channel": 4, "type": "channel", "subtype": "noteOff", "noteNumber": 81, "velocity": 64 }, { "deltaTime": 10, "channel": 4, "type": "channel", "noteNumber": 83, "velocity": 120, "subtype": "noteOn" }, { "deltaTime": 26, "channel": 4, "type": "channel", "noteNumber": 81, "velocity": 120, "subtype": "noteOn" }, { "deltaTime": 2, "channel": 4, "type": "channel", "subtype": "noteOff", "noteNumber": 83, "velocity": 64 }, { "deltaTime": 26, "channel": 4, "type": "channel", "subtype": "noteOff", "noteNumber": 81, "velocity": 64 }, { "deltaTime": 4, "channel": 4, "type": "channel", "noteNumber": 83, "velocity": 120, "subtype": "noteOn" }, { "deltaTime": 30, "channel": 4, "type": "channel", "noteNumber": 81, "velocity": 120, "subtype": "noteOn" }, { "deltaTime": 2, "channel": 4, "type": "channel", "subtype": "noteOff", "noteNumber": 83, "velocity": 64 }, { "deltaTime": 20, "channel": 4, "type": "channel", "subtype": "noteOff", "noteNumber": 81, "velocity": 64 }, { "deltaTime": 4, "channel": 4, "type": "channel", "noteNumber": 83, "velocity": 120, "subtype": "noteOn" }, { "deltaTime": 22, "channel": 4, "type": "channel", "noteNumber": 81, "velocity": 120, "subtype": "noteOn" }, { "deltaTime": 2, "channel": 4, "type": "channel", "subtype": "noteOff", "noteNumber": 83, "velocity": 64 }, { "deltaTime": 86, "channel": 4, "type": "channel", "subtype": "noteOff", "noteNumber": 81, "velocity": 64 }, { "deltaTime": 312, "channel": 4, "type": "channel", "noteNumber": 81, "velocity": 120, "subtype": "noteOn" }, { "deltaTime": 34, "channel": 4, "type": "channel", "subtype": "noteOff", "noteNumber": 81, "velocity": 64 }, { "deltaTime": 62, "channel": 4, "type": "channel", "noteNumber": 83, "velocity": 120, "subtype": "noteOn" }, { "deltaTime": 32, "channel": 4, "type": "channel", "subtype": "noteOff", "noteNumber": 83, "velocity": 64 }, { "deltaTime": 70, "channel": 4, "type": "channel", "noteNumber": 81, "velocity": 120, "subtype": "noteOn" }, { "deltaTime": 32, "channel": 4, "type": "channel", "subtype": "noteOff", "noteNumber": 81, "velocity": 64 }, { "deltaTime": 12, "channel": 4, "type": "channel", "noteNumber": 83, "velocity": 120, "subtype": "noteOn" }, { "deltaTime": 30, "channel": 4, "type": "channel", "subtype": "noteOff", "noteNumber": 83, "velocity": 64 }, { "deltaTime": 0, "channel": 4, "type": "channel", "noteNumber": 81, "velocity": 120, "subtype": "noteOn" }, { "deltaTime": 26, "channel": 4, "type": "channel", "subtype": "noteOff", "noteNumber": 81, "velocity": 64 }, { "deltaTime": 6, "channel": 4, "type": "channel", "noteNumber": 83, "velocity": 120, "subtype": "noteOn" }, { "deltaTime": 30, "channel": 4, "type": "channel", "noteNumber": 81, "velocity": 120, "subtype": "noteOn" }, { "deltaTime": 4, "channel": 4, "type": "channel", "subtype": "noteOff", "noteNumber": 83, "velocity": 64 }, { "deltaTime": 24, "channel": 4, "type": "channel", "noteNumber": 83, "velocity": 113, "subtype": "noteOn" }, { "deltaTime": 2, "channel": 4, "type": "channel", "subtype": "noteOff", "noteNumber": 81, "velocity": 64 }, { "deltaTime": 18, "channel": 4, "type": "channel", "subtype": "noteOff", "noteNumber": 83, "velocity": 64 }, { "deltaTime": 2, "channel": 4, "type": "channel", "noteNumber": 81, "velocity": 120, "subtype": "noteOn" }, { "deltaTime": 102, "channel": 4, "type": "channel", "subtype": "noteOff", "noteNumber": 81, "velocity": 64 }, { "deltaTime": 1824, "channel": 4, "type": "channel", "noteNumber": 81, "velocity": 120, "subtype": "noteOn" }, { "deltaTime": 30, "channel": 4, "type": "channel", "subtype": "noteOff", "noteNumber": 81, "velocity": 64 }, { "deltaTime": 60, "channel": 4, "type": "channel", "noteNumber": 83, "velocity": 120, "subtype": "noteOn" }, { "deltaTime": 30, "channel": 4, "type": "channel", "subtype": "noteOff", "noteNumber": 83, "velocity": 64 }, { "deltaTime": 64, "channel": 4, "type": "channel", "noteNumber": 81, "velocity": 120, "subtype": "noteOn" }, { "deltaTime": 26, "channel": 4, "type": "channel", "subtype": "noteOff", "noteNumber": 81, "velocity": 64 }, { "deltaTime": 10, "channel": 4, "type": "channel", "noteNumber": 83, "velocity": 120, "subtype": "noteOn" }, { "deltaTime": 22, "channel": 4, "type": "channel", "subtype": "noteOff", "noteNumber": 83, "velocity": 64 }, { "deltaTime": 2, "channel": 4, "type": "channel", "noteNumber": 81, "velocity": 120, "subtype": "noteOn" }, { "deltaTime": 32, "channel": 4, "type": "channel", "subtype": "noteOff", "noteNumber": 81, "velocity": 64 }, { "deltaTime": 2, "channel": 4, "type": "channel", "noteNumber": 83, "velocity": 120, "subtype": "noteOn" }, { "deltaTime": 22, "channel": 4, "type": "channel", "noteNumber": 81, "velocity": 120, "subtype": "noteOn" }, { "deltaTime": 6, "channel": 4, "type": "channel", "subtype": "noteOff", "noteNumber": 83, "velocity": 64 }, { "deltaTime": 28, "channel": 4, "type": "channel", "noteNumber": 83, "velocity": 114, "subtype": "noteOn" }, { "deltaTime": 18, "channel": 4, "type": "channel", "subtype": "noteOff", "noteNumber": 83, "velocity": 64 }, { "deltaTime": 96, "channel": 4, "type": "channel", "subtype": "noteOff", "noteNumber": 81, "velocity": 64 }, { "deltaTime": 316, "channel": 4, "type": "channel", "noteNumber": 81, "velocity": 120, "subtype": "noteOn" }, { "deltaTime": 30, "channel": 4, "type": "channel", "subtype": "noteOff", "noteNumber": 81, "velocity": 64 }, { "deltaTime": 62, "channel": 4, "type": "channel", "noteNumber": 83, "velocity": 120, "subtype": "noteOn" }, { "deltaTime": 32, "channel": 4, "type": "channel", "subtype": "noteOff", "noteNumber": 83, "velocity": 64 }, { "deltaTime": 58, "channel": 4, "type": "channel", "noteNumber": 83, "velocity": 107, "subtype": "noteOn" }, { "deltaTime": 20, "channel": 4, "type": "channel", "subtype": "noteOff", "noteNumber": 83, "velocity": 64 }, { "deltaTime": 2, "channel": 4, "type": "channel", "noteNumber": 81, "velocity": 120, "subtype": "noteOn" }, { "deltaTime": 32, "channel": 4, "type": "channel", "subtype": "noteOff", "noteNumber": 81, "velocity": 64 }, { "deltaTime": 8, "channel": 4, "type": "channel", "noteNumber": 83, "velocity": 120, "subtype": "noteOn" }, { "deltaTime": 20, "channel": 4, "type": "channel", "subtype": "noteOff", "noteNumber": 83, "velocity": 64 }, { "deltaTime": 0, "channel": 4, "type": "channel", "noteNumber": 81, "velocity": 120, "subtype": "noteOn" }, { "deltaTime": 32, "channel": 4, "type": "channel", "noteNumber": 83, "velocity": 108, "subtype": "noteOn" }, { "deltaTime": 2, "channel": 4, "type": "channel", "subtype": "noteOff", "noteNumber": 81, "velocity": 64 }, { "deltaTime": 24, "channel": 4, "type": "channel", "noteNumber": 81, "velocity": 120, "subtype": "noteOn" }, { "deltaTime": 6, "channel": 4, "type": "channel", "subtype": "noteOff", "noteNumber": 83, "velocity": 64 }, { "deltaTime": 104, "channel": 4, "type": "channel", "subtype": "noteOff", "noteNumber": 81, "velocity": 64 }, { "deltaTime": 1876, "channel": 4, "type": "channel", "noteNumber": 81, "velocity": 120, "subtype": "noteOn" }, { "deltaTime": 32, "channel": 4, "type": "channel", "subtype": "noteOff", "noteNumber": 81, "velocity": 64 }, { "deltaTime": 60, "channel": 4, "type": "channel", "noteNumber": 83, "velocity": 120, "subtype": "noteOn" }, { "deltaTime": 36, "channel": 4, "type": "channel", "subtype": "noteOff", "noteNumber": 83, "velocity": 64 }, { "deltaTime": 62, "channel": 4, "type": "channel", "noteNumber": 81, "velocity": 120, "subtype": "noteOn" }, { "deltaTime": 34, "channel": 4, "type": "channel", "subtype": "noteOff", "noteNumber": 81, "velocity": 64 }, { "deltaTime": 10, "channel": 4, "type": "channel", "noteNumber": 83, "velocity": 120, "subtype": "noteOn" }, { "deltaTime": 22, "channel": 4, "type": "channel", "subtype": "noteOff", "noteNumber": 83, "velocity": 64 }, { "deltaTime": 6, "channel": 4, "type": "channel", "noteNumber": 81, "velocity": 120, "subtype": "noteOn" }, { "deltaTime": 20, "channel": 4, "type": "channel", "subtype": "noteOff", "noteNumber": 81, "velocity": 64 }, { "deltaTime": 10, "channel": 4, "type": "channel", "noteNumber": 83, "velocity": 120, "subtype": "noteOn" }, { "deltaTime": 24, "channel": 4, "type": "channel", "subtype": "noteOff", "noteNumber": 83, "velocity": 64 }, { "deltaTime": 2, "channel": 4, "type": "channel", "noteNumber": 81, "velocity": 120, "subtype": "noteOn" }, { "deltaTime": 28, "channel": 4, "type": "channel", "noteNumber": 83, "velocity": 103, "subtype": "noteOn" }, { "deltaTime": 22, "channel": 4, "type": "channel", "subtype": "noteOff", "noteNumber": 83, "velocity": 64 }, { "deltaTime": 94, "channel": 4, "type": "channel", "subtype": "noteOff", "noteNumber": 81, "velocity": 64 }, { "deltaTime": 316, "channel": 4, "type": "channel", "noteNumber": 81, "velocity": 120, "subtype": "noteOn" }, { "deltaTime": 32, "channel": 4, "type": "channel", "subtype": "noteOff", "noteNumber": 81, "velocity": 64 }, { "deltaTime": 60, "channel": 4, "type": "channel", "noteNumber": 83, "velocity": 120, "subtype": "noteOn" }, { "deltaTime": 30, "channel": 4, "type": "channel", "subtype": "noteOff", "noteNumber": 83, "velocity": 64 }, { "deltaTime": 62, "channel": 4, "type": "channel", "noteNumber": 81, "velocity": 120, "subtype": "noteOn" }, { "deltaTime": 28, "channel": 4, "type": "channel", "subtype": "noteOff", "noteNumber": 81, "velocity": 64 }, { "deltaTime": 8, "channel": 4, "type": "channel", "noteNumber": 83, "velocity": 120, "subtype": "noteOn" }, { "deltaTime": 22, "channel": 4, "type": "channel", "subtype": "noteOff", "noteNumber": 83, "velocity": 64 }, { "deltaTime": 0, "channel": 4, "type": "channel", "noteNumber": 81, "velocity": 120, "subtype": "noteOn" }, { "deltaTime": 30, "channel": 4, "type": "channel", "noteNumber": 83, "velocity": 116, "subtype": "noteOn" }, { "deltaTime": 2, "channel": 4, "type": "channel", "subtype": "noteOff", "noteNumber": 81, "velocity": 64 }, { "deltaTime": 22, "channel": 4, "type": "channel", "noteNumber": 81, "velocity": 120, "subtype": "noteOn" }, { "deltaTime": 2, "channel": 4, "type": "channel", "subtype": "noteOff", "noteNumber": 83, "velocity": 64 }, { "deltaTime": 28, "channel": 4, "type": "channel", "noteNumber": 83, "velocity": 120, "subtype": "noteOn" }, { "deltaTime": 2, "channel": 4, "type": "channel", "subtype": "noteOff", "noteNumber": 81, "velocity": 64 }, { "deltaTime": 22, "channel": 4, "type": "channel", "subtype": "noteOff", "noteNumber": 83, "velocity": 64 }, { "deltaTime": 2, "channel": 4, "type": "channel", "noteNumber": 81, "velocity": 120, "subtype": "noteOn" }, { "deltaTime": 90, "channel": 4, "type": "channel", "subtype": "noteOff", "noteNumber": 81, "velocity": 64 }, { "deltaTime": 1852, "channel": 4, "type": "channel", "noteNumber": 81, "velocity": 120, "subtype": "noteOn" }, { "deltaTime": 32, "channel": 4, "type": "channel", "subtype": "noteOff", "noteNumber": 81, "velocity": 64 }, { "deltaTime": 60, "channel": 4, "type": "channel", "noteNumber": 83, "velocity": 120, "subtype": "noteOn" }, { "deltaTime": 32, "channel": 4, "type": "channel", "subtype": "noteOff", "noteNumber": 83, "velocity": 64 }, { "deltaTime": 64, "channel": 4, "type": "channel", "noteNumber": 81, "velocity": 120, "subtype": "noteOn" }, { "deltaTime": 34, "channel": 4, "type": "channel", "subtype": "noteOff", "noteNumber": 81, "velocity": 64 }, { "deltaTime": 4, "channel": 4, "type": "channel", "noteNumber": 83, "velocity": 120, "subtype": "noteOn" }, { "deltaTime": 28, "channel": 4, "type": "channel", "noteNumber": 81, "velocity": 120, "subtype": "noteOn" }, { "deltaTime": 8, "channel": 4, "type": "channel", "subtype": "noteOff", "noteNumber": 83, "velocity": 64 }, { "deltaTime": 22, "channel": 4, "type": "channel", "noteNumber": 83, "velocity": 120, "subtype": "noteOn" }, { "deltaTime": 2, "channel": 4, "type": "channel", "subtype": "noteOff", "noteNumber": 81, "velocity": 64 }, { "deltaTime": 22, "channel": 4, "type": "channel", "noteNumber": 81, "velocity": 120, "subtype": "noteOn" }, { "deltaTime": 4, "channel": 4, "type": "channel", "subtype": "noteOff", "noteNumber": 83, "velocity": 64 }, { "deltaTime": 20, "channel": 4, "type": "channel", "noteNumber": 83, "velocity": 120, "subtype": "noteOn" }, { "deltaTime": 28, "channel": 4, "type": "channel", "subtype": "noteOff", "noteNumber": 83, "velocity": 64 }, { "deltaTime": 86, "channel": 4, "type": "channel", "subtype": "noteOff", "noteNumber": 81, "velocity": 64 }, { "deltaTime": 318, "channel": 4, "type": "channel", "noteNumber": 81, "velocity": 120, "subtype": "noteOn" }, { "deltaTime": 36, "channel": 4, "type": "channel", "subtype": "noteOff", "noteNumber": 81, "velocity": 64 }, { "deltaTime": 60, "channel": 4, "type": "channel", "noteNumber": 83, "velocity": 120, "subtype": "noteOn" }, { "deltaTime": 32, "channel": 4, "type": "channel", "subtype": "noteOff", "noteNumber": 83, "velocity": 64 }, { "deltaTime": 82, "channel": 4, "type": "channel", "noteNumber": 81, "velocity": 120, "subtype": "noteOn" }, { "deltaTime": 32, "channel": 4, "type": "channel", "subtype": "noteOff", "noteNumber": 81, "velocity": 64 }, { "deltaTime": 6, "channel": 4, "type": "channel", "noteNumber": 83, "velocity": 120, "subtype": "noteOn" }, { "deltaTime": 24, "channel": 4, "type": "channel", "noteNumber": 81, "velocity": 120, "subtype": "noteOn" }, { "deltaTime": 4, "channel": 4, "type": "channel", "subtype": "noteOff", "noteNumber": 83, "velocity": 64 }, { "deltaTime": 26, "channel": 4, "type": "channel", "subtype": "noteOff", "noteNumber": 81, "velocity": 64 }, { "deltaTime": 0, "channel": 4, "type": "channel", "noteNumber": 83, "velocity": 120, "subtype": "noteOn" }, { "deltaTime": 28, "channel": 4, "type": "channel", "noteNumber": 81, "velocity": 120, "subtype": "noteOn" }, { "deltaTime": 6, "channel": 4, "type": "channel", "subtype": "noteOff", "noteNumber": 83, "velocity": 64 }, { "deltaTime": 22, "channel": 4, "type": "channel", "noteNumber": 83, "velocity": 120, "subtype": "noteOn" }, { "deltaTime": 6, "channel": 4, "type": "channel", "subtype": "noteOff", "noteNumber": 81, "velocity": 64 }, { "deltaTime": 20, "channel": 4, "type": "channel", "noteNumber": 81, "velocity": 120, "subtype": "noteOn" }, { "deltaTime": 4, "channel": 4, "type": "channel", "subtype": "noteOff", "noteNumber": 83, "velocity": 64 }, { "deltaTime": 100, "channel": 4, "type": "channel", "subtype": "noteOff", "noteNumber": 81, "velocity": 64 }, { "deltaTime": 1632, "channel": 4, "type": "channel", "noteNumber": 81, "velocity": 116, "subtype": "noteOn" }, { "deltaTime": 22, "channel": 4, "type": "channel", "subtype": "noteOff", "noteNumber": 81, "velocity": 64 }, { "deltaTime": 2, "channel": 4, "type": "channel", "noteNumber": 83, "velocity": 120, "subtype": "noteOn" }, { "deltaTime": 34, "channel": 4, "type": "channel", "noteNumber": 81, "velocity": 120, "subtype": "noteOn" }, { "deltaTime": 4, "channel": 4, "type": "channel", "subtype": "noteOff", "noteNumber": 83, "velocity": 64 }, { "deltaTime": 28, "channel": 4, "type": "channel", "subtype": "noteOff", "noteNumber": 81, "velocity": 64 }, { "deltaTime": 0, "channel": 4, "type": "channel", "noteNumber": 83, "velocity": 120, "subtype": "noteOn" }, { "deltaTime": 28, "channel": 4, "type": "channel", "subtype": "noteOff", "noteNumber": 83, "velocity": 64 }, { "deltaTime": 0, "channel": 4, "type": "channel", "noteNumber": 81, "velocity": 113, "subtype": "noteOn" }, { "deltaTime": 28, "channel": 4, "type": "channel", "subtype": "noteOff", "noteNumber": 81, "velocity": 64 }, { "deltaTime": 0, "channel": 4, "type": "channel", "noteNumber": 83, "velocity": 120, "subtype": "noteOn" }, { "deltaTime": 32, "channel": 4, "type": "channel", "noteNumber": 81, "velocity": 120, "subtype": "noteOn" }, { "deltaTime": 2, "channel": 4, "type": "channel", "subtype": "noteOff", "noteNumber": 83, "velocity": 64 }, { "deltaTime": 22, "channel": 4, "type": "channel", "subtype": "noteOff", "noteNumber": 81, "velocity": 64 }, { "deltaTime": 4, "channel": 4, "type": "channel", "noteNumber": 83, "velocity": 113, "subtype": "noteOn" }, { "deltaTime": 24, "channel": 4, "type": "channel", "subtype": "noteOff", "noteNumber": 83, "velocity": 64 }, { "deltaTime": 2, "channel": 4, "type": "channel", "noteNumber": 81, "velocity": 112, "subtype": "noteOn" }, { "deltaTime": 28, "channel": 4, "type": "channel", "subtype": "noteOff", "noteNumber": 81, "velocity": 64 }, { "deltaTime": 4, "channel": 4, "type": "channel", "noteNumber": 83, "velocity": 120, "subtype": "noteOn" }, { "deltaTime": 24, "channel": 4, "type": "channel", "subtype": "noteOff", "noteNumber": 83, "velocity": 64 }, { "deltaTime": 0, "channel": 4, "type": "channel", "noteNumber": 81, "velocity": 110, "subtype": "noteOn" }, { "deltaTime": 30, "channel": 4, "type": "channel", "subtype": "noteOff", "noteNumber": 81, "velocity": 64 }, { "deltaTime": 4, "channel": 4, "type": "channel", "noteNumber": 83, "velocity": 120, "subtype": "noteOn" }, { "deltaTime": 20, "channel": 4, "type": "channel", "subtype": "noteOff", "noteNumber": 83, "velocity": 64 }, { "deltaTime": 2, "channel": 4, "type": "channel", "noteNumber": 81, "velocity": 111, "subtype": "noteOn" }, { "deltaTime": 32, "channel": 4, "type": "channel", "noteNumber": 83, "velocity": 120, "subtype": "noteOn" }, { "deltaTime": 2, "channel": 4, "type": "channel", "subtype": "noteOff", "noteNumber": 81, "velocity": 64 }, { "deltaTime": 22, "channel": 4, "type": "channel", "subtype": "noteOff", "noteNumber": 83, "velocity": 64 }, { "deltaTime": 4, "channel": 4, "type": "channel", "noteNumber": 81, "velocity": 120, "subtype": "noteOn" }, { "deltaTime": 24, "channel": 4, "type": "channel", "subtype": "noteOff", "noteNumber": 81, "velocity": 64 }, { "deltaTime": 6, "channel": 4, "type": "channel", "noteNumber": 83, "velocity": 120, "subtype": "noteOn" }, { "deltaTime": 22, "channel": 4, "type": "channel", "noteNumber": 81, "velocity": 112, "subtype": "noteOn" }, { "deltaTime": 2, "channel": 4, "type": "channel", "subtype": "noteOff", "noteNumber": 83, "velocity": 64 }, { "deltaTime": 28, "channel": 4, "type": "channel", "noteNumber": 83, "velocity": 113, "subtype": "noteOn" }, { "deltaTime": 6, "channel": 4, "type": "channel", "subtype": "noteOff", "noteNumber": 81, "velocity": 64 }, { "deltaTime": 14, "channel": 4, "type": "channel", "subtype": "noteOff", "noteNumber": 83, "velocity": 64 }, { "deltaTime": 2, "channel": 4, "type": "channel", "noteNumber": 81, "velocity": 96, "subtype": "noteOn" }, { "deltaTime": 30, "channel": 4, "type": "channel", "noteNumber": 83, "velocity": 117, "subtype": "noteOn" }, { "deltaTime": 6, "channel": 4, "type": "channel", "subtype": "noteOff", "noteNumber": 81, "velocity": 64 }, { "deltaTime": 20, "channel": 4, "type": "channel", "subtype": "noteOff", "noteNumber": 83, "velocity": 64 }, { "deltaTime": 4, "channel": 4, "type": "channel", "noteNumber": 81, "velocity": 98, "subtype": "noteOn" }, { "deltaTime": 22, "channel": 4, "type": "channel", "subtype": "noteOff", "noteNumber": 81, "velocity": 64 }, { "deltaTime": 2, "channel": 4, "type": "channel", "noteNumber": 83, "velocity": 116, "subtype": "noteOn" }, { "deltaTime": 20, "channel": 4, "type": "channel", "subtype": "noteOff", "noteNumber": 83, "velocity": 64 }, { "deltaTime": 6, "channel": 4, "type": "channel", "noteNumber": 81, "velocity": 105, "subtype": "noteOn" }, { "deltaTime": 22, "channel": 4, "type": "channel", "subtype": "noteOff", "noteNumber": 81, "velocity": 64 }, { "deltaTime": 4, "channel": 4, "type": "channel", "noteNumber": 83, "velocity": 93, "subtype": "noteOn" }, { "deltaTime": 20, "channel": 4, "type": "channel", "subtype": "noteOff", "noteNumber": 83, "velocity": 64 }, { "deltaTime": 0, "channel": 4, "type": "channel", "noteNumber": 81, "velocity": 115, "subtype": "noteOn" }, { "deltaTime": 22, "channel": 4, "type": "channel", "subtype": "noteOff", "noteNumber": 81, "velocity": 64 }, { "deltaTime": 4, "channel": 4, "type": "channel", "noteNumber": 83, "velocity": 113, "subtype": "noteOn" }, { "deltaTime": 26, "channel": 4, "type": "channel", "noteNumber": 81, "velocity": 120, "subtype": "noteOn" }, { "deltaTime": 6, "channel": 4, "type": "channel", "subtype": "noteOff", "noteNumber": 83, "velocity": 64 }, { "deltaTime": 22, "channel": 4, "type": "channel", "noteNumber": 83, "velocity": 120, "subtype": "noteOn" }, { "deltaTime": 18, "channel": 4, "type": "channel", "subtype": "noteOff", "noteNumber": 83, "velocity": 64 }, { "deltaTime": 38, "channel": 4, "type": "channel", "subtype": "noteOff", "noteNumber": 81, "velocity": 64 }, { "deltaTime": 6, "channel": 4, "type": "channel", "noteNumber": 83, "velocity": 111, "subtype": "noteOn" }, { "deltaTime": 14, "channel": 4, "type": "channel", "noteNumber": 81, "velocity": 113, "subtype": "noteOn" }, { "deltaTime": 6, "channel": 4, "type": "channel", "subtype": "noteOff", "noteNumber": 83, "velocity": 64 }, { "deltaTime": 24, "channel": 4, "type": "channel", "noteNumber": 83, "velocity": 116, "subtype": "noteOn" }, { "deltaTime": 20, "channel": 4, "type": "channel", "subtype": "noteOff", "noteNumber": 83, "velocity": 64 }, { "deltaTime": 30, "channel": 4, "type": "channel", "noteNumber": 83, "velocity": 107, "subtype": "noteOn" }, { "deltaTime": 6, "channel": 4, "type": "channel", "subtype": "noteOff", "noteNumber": 81, "velocity": 64 }, { "deltaTime": 24, "channel": 4, "type": "channel", "subtype": "noteOff", "noteNumber": 83, "velocity": 64 }, { "deltaTime": 4, "channel": 4, "type": "channel", "noteNumber": 81, "velocity": 102, "subtype": "noteOn" }, { "deltaTime": 18, "channel": 4, "type": "channel", "noteNumber": 83, "velocity": 119, "subtype": "noteOn" }, { "deltaTime": 4, "channel": 4, "type": "channel", "subtype": "noteOff", "noteNumber": 81, "velocity": 64 }, { "deltaTime": 24, "channel": 4, "type": "channel", "subtype": "noteOff", "noteNumber": 83, "velocity": 64 }, { "deltaTime": 2, "channel": 4, "type": "channel", "noteNumber": 81, "velocity": 104, "subtype": "noteOn" }, { "deltaTime": 24, "channel": 4, "type": "channel", "subtype": "noteOff", "noteNumber": 81, "velocity": 64 }, { "deltaTime": 4, "channel": 4, "type": "channel", "noteNumber": 83, "velocity": 119, "subtype": "noteOn" }, { "deltaTime": 26, "channel": 4, "type": "channel", "noteNumber": 81, "velocity": 105, "subtype": "noteOn" }, { "deltaTime": 6, "channel": 4, "type": "channel", "subtype": "noteOff", "noteNumber": 83, "velocity": 64 }, { "deltaTime": 22, "channel": 4, "type": "channel", "noteNumber": 83, "velocity": 120, "subtype": "noteOn" }, { "deltaTime": 4, "channel": 4, "type": "channel", "subtype": "noteOff", "noteNumber": 81, "velocity": 64 }, { "deltaTime": 26, "channel": 4, "type": "channel", "subtype": "noteOff", "noteNumber": 83, "velocity": 64 }, { "deltaTime": 4, "channel": 4, "type": "channel", "noteNumber": 81, "velocity": 109, "subtype": "noteOn" }, { "deltaTime": 20, "channel": 4, "type": "channel", "noteNumber": 83, "velocity": 113, "subtype": "noteOn" }, { "deltaTime": 26, "channel": 4, "type": "channel", "subtype": "noteOff", "noteNumber": 83, "velocity": 64 }, { "deltaTime": 30, "channel": 4, "type": "channel", "noteNumber": 83, "velocity": 104, "subtype": "noteOn" }, { "deltaTime": 24, "channel": 4, "type": "channel", "subtype": "noteOff", "noteNumber": 83, "velocity": 64 }, { "deltaTime": 22, "channel": 4, "type": "channel", "noteNumber": 83, "velocity": 120, "subtype": "noteOn" }, { "deltaTime": 2, "channel": 4, "type": "channel", "subtype": "noteOff", "noteNumber": 81, "velocity": 64 }, { "deltaTime": 28, "channel": 4, "type": "channel", "noteNumber": 81, "velocity": 117, "subtype": "noteOn" }, { "deltaTime": 6, "channel": 4, "type": "channel", "subtype": "noteOff", "noteNumber": 83, "velocity": 64 }, { "deltaTime": 26, "channel": 4, "type": "channel", "noteNumber": 83, "velocity": 116, "subtype": "noteOn" }, { "deltaTime": 2, "channel": 4, "type": "channel", "subtype": "noteOff", "noteNumber": 81, "velocity": 64 }, { "deltaTime": 26, "channel": 4, "type": "channel", "noteNumber": 81, "velocity": 119, "subtype": "noteOn" }, { "deltaTime": 4, "channel": 4, "type": "channel", "subtype": "noteOff", "noteNumber": 83, "velocity": 64 }, { "deltaTime": 70, "channel": 4, "type": "channel", "subtype": "noteOff", "noteNumber": 81, "velocity": 64 }, { "deltaTime": 6486, "channel": 4, "type": "channel", "noteNumber": 81, "velocity": 120, "subtype": "noteOn" }, { "deltaTime": 30, "channel": 4, "type": "channel", "subtype": "noteOff", "noteNumber": 81, "velocity": 64 }, { "deltaTime": 60, "channel": 4, "type": "channel", "noteNumber": 83, "velocity": 120, "subtype": "noteOn" }, { "deltaTime": 32, "channel": 4, "type": "channel", "subtype": "noteOff", "noteNumber": 83, "velocity": 64 }, { "deltaTime": 58, "channel": 4, "type": "channel", "noteNumber": 81, "velocity": 120, "subtype": "noteOn" }, { "deltaTime": 28, "channel": 4, "type": "channel", "subtype": "noteOff", "noteNumber": 81, "velocity": 64 }, { "deltaTime": 8, "channel": 4, "type": "channel", "noteNumber": 83, "velocity": 120, "subtype": "noteOn" }, { "deltaTime": 24, "channel": 4, "type": "channel", "subtype": "noteOff", "noteNumber": 83, "velocity": 64 }, { "deltaTime": 4, "channel": 4, "type": "channel", "noteNumber": 81, "velocity": 120, "subtype": "noteOn" }, { "deltaTime": 22, "channel": 4, "type": "channel", "subtype": "noteOff", "noteNumber": 81, "velocity": 64 }, { "deltaTime": 6, "channel": 4, "type": "channel", "noteNumber": 83, "velocity": 119, "subtype": "noteOn" }, { "deltaTime": 22, "channel": 4, "type": "channel", "subtype": "noteOff", "noteNumber": 83, "velocity": 64 }, { "deltaTime": 2, "channel": 4, "type": "channel", "noteNumber": 81, "velocity": 120, "subtype": "noteOn" }, { "deltaTime": 30, "channel": 4, "type": "channel", "noteNumber": 83, "velocity": 120, "subtype": "noteOn" }, { "deltaTime": 4, "channel": 4, "type": "channel", "subtype": "noteOff", "noteNumber": 81, "velocity": 64 }, { "deltaTime": 18, "channel": 4, "type": "channel", "noteNumber": 81, "velocity": 120, "subtype": "noteOn" }, { "deltaTime": 4, "channel": 4, "type": "channel", "subtype": "noteOff", "noteNumber": 83, "velocity": 64 }, { "deltaTime": 116, "channel": 4, "type": "channel", "subtype": "noteOff", "noteNumber": 81, "velocity": 64 }, { "deltaTime": 298, "channel": 4, "type": "channel", "noteNumber": 81, "velocity": 120, "subtype": "noteOn" }, { "deltaTime": 32, "channel": 4, "type": "channel", "subtype": "noteOff", "noteNumber": 81, "velocity": 64 }, { "deltaTime": 58, "channel": 4, "type": "channel", "noteNumber": 83, "velocity": 120, "subtype": "noteOn" }, { "deltaTime": 36, "channel": 4, "type": "channel", "subtype": "noteOff", "noteNumber": 83, "velocity": 64 }, { "deltaTime": 58, "channel": 4, "type": "channel", "noteNumber": 81, "velocity": 120, "subtype": "noteOn" }, { "deltaTime": 34, "channel": 4, "type": "channel", "subtype": "noteOff", "noteNumber": 81, "velocity": 64 }, { "deltaTime": 6, "channel": 4, "type": "channel", "noteNumber": 83, "velocity": 120, "subtype": "noteOn" }, { "deltaTime": 26, "channel": 4, "type": "channel", "noteNumber": 81, "velocity": 120, "subtype": "noteOn" }, { "deltaTime": 6, "channel": 4, "type": "channel", "subtype": "noteOff", "noteNumber": 83, "velocity": 64 }, { "deltaTime": 26, "channel": 4, "type": "channel", "noteNumber": 83, "velocity": 120, "subtype": "noteOn" }, { "deltaTime": 2, "channel": 4, "type": "channel", "subtype": "noteOff", "noteNumber": 81, "velocity": 64 }, { "deltaTime": 24, "channel": 4, "type": "channel", "subtype": "noteOff", "noteNumber": 83, "velocity": 64 }, { "deltaTime": 0, "channel": 4, "type": "channel", "noteNumber": 81, "velocity": 120, "subtype": "noteOn" }, { "deltaTime": 34, "channel": 4, "type": "channel", "subtype": "noteOff", "noteNumber": 81, "velocity": 64 }, { "deltaTime": 2, "channel": 4, "type": "channel", "noteNumber": 83, "velocity": 120, "subtype": "noteOn" }, { "deltaTime": 22, "channel": 4, "type": "channel", "subtype": "noteOff", "noteNumber": 83, "velocity": 64 }, { "deltaTime": 2, "channel": 4, "type": "channel", "noteNumber": 81, "velocity": 120, "subtype": "noteOn" }, { "deltaTime": 90, "channel": 4, "type": "channel", "subtype": "noteOff", "noteNumber": 81, "velocity": 64 }, { "deltaTime": 1842, "channel": 4, "type": "channel", "noteNumber": 81, "velocity": 120, "subtype": "noteOn" }, { "deltaTime": 30, "channel": 4, "type": "channel", "subtype": "noteOff", "noteNumber": 81, "velocity": 64 }, { "deltaTime": 56, "channel": 4, "type": "channel", "noteNumber": 83, "velocity": 120, "subtype": "noteOn" }, { "deltaTime": 36, "channel": 4, "type": "channel", "subtype": "noteOff", "noteNumber": 83, "velocity": 64 }, { "deltaTime": 56, "channel": 4, "type": "channel", "noteNumber": 81, "velocity": 120, "subtype": "noteOn" }, { "deltaTime": 32, "channel": 4, "type": "channel", "subtype": "noteOff", "noteNumber": 81, "velocity": 64 }, { "deltaTime": 4, "channel": 4, "type": "channel", "noteNumber": 83, "velocity": 120, "subtype": "noteOn" }, { "deltaTime": 28, "channel": 4, "type": "channel", "noteNumber": 81, "velocity": 120, "subtype": "noteOn" }, { "deltaTime": 2, "channel": 4, "type": "channel", "subtype": "noteOff", "noteNumber": 83, "velocity": 64 }, { "deltaTime": 30, "channel": 4, "type": "channel", "subtype": "noteOff", "noteNumber": 81, "velocity": 64 }, { "deltaTime": 8, "channel": 4, "type": "channel", "noteNumber": 83, "velocity": 120, "subtype": "noteOn" }, { "deltaTime": 12, "channel": 4, "type": "channel", "noteNumber": 81, "velocity": 120, "subtype": "noteOn" }, { "deltaTime": 6, "channel": 4, "type": "channel", "subtype": "noteOff", "noteNumber": 83, "velocity": 64 }, { "deltaTime": 22, "channel": 4, "type": "channel", "noteNumber": 83, "velocity": 118, "subtype": "noteOn" }, { "deltaTime": 8, "channel": 4, "type": "channel", "subtype": "noteOff", "noteNumber": 81, "velocity": 64 }, { "deltaTime": 16, "channel": 4, "type": "channel", "subtype": "noteOff", "noteNumber": 83, "velocity": 64 }, { "deltaTime": 2, "channel": 4, "type": "channel", "noteNumber": 81, "velocity": 120, "subtype": "noteOn" }, { "deltaTime": 76, "channel": 4, "type": "channel", "subtype": "noteOff", "noteNumber": 81, "velocity": 64 }, { "deltaTime": 332, "channel": 4, "type": "channel", "noteNumber": 81, "velocity": 120, "subtype": "noteOn" }, { "deltaTime": 34, "channel": 4, "type": "channel", "subtype": "noteOff", "noteNumber": 81, "velocity": 64 }, { "deltaTime": 56, "channel": 4, "type": "channel", "noteNumber": 83, "velocity": 120, "subtype": "noteOn" }, { "deltaTime": 40, "channel": 4, "type": "channel", "subtype": "noteOff", "noteNumber": 83, "velocity": 64 }, { "deltaTime": 68, "channel": 4, "type": "channel", "noteNumber": 81, "velocity": 120, "subtype": "noteOn" }, { "deltaTime": 34, "channel": 4, "type": "channel", "subtype": "noteOff", "noteNumber": 81, "velocity": 64 }, { "deltaTime": 6, "channel": 4, "type": "channel", "noteNumber": 83, "velocity": 120, "subtype": "noteOn" }, { "deltaTime": 24, "channel": 4, "type": "channel", "subtype": "noteOff", "noteNumber": 83, "velocity": 64 }, { "deltaTime": 2, "channel": 4, "type": "channel", "noteNumber": 81, "velocity": 120, "subtype": "noteOn" }, { "deltaTime": 34, "channel": 4, "type": "channel", "subtype": "noteOff", "noteNumber": 81, "velocity": 64 }, { "deltaTime": 0, "channel": 4, "type": "channel", "noteNumber": 83, "velocity": 120, "subtype": "noteOn" }, { "deltaTime": 22, "channel": 4, "type": "channel", "subtype": "noteOff", "noteNumber": 83, "velocity": 64 }, { "deltaTime": 4, "channel": 4, "type": "channel", "noteNumber": 81, "velocity": 107, "subtype": "noteOn" }, { "deltaTime": 22, "channel": 4, "type": "channel", "subtype": "noteOff", "noteNumber": 81, "velocity": 64 }, { "deltaTime": 6, "channel": 4, "type": "channel", "noteNumber": 83, "velocity": 115, "subtype": "noteOn" }, { "deltaTime": 16, "channel": 4, "type": "channel", "noteNumber": 81, "velocity": 120, "subtype": "noteOn" }, { "deltaTime": 4, "channel": 4, "type": "channel", "subtype": "noteOff", "noteNumber": 83, "velocity": 64 }, { "deltaTime": 62, "channel": 4, "type": "channel", "subtype": "noteOff", "noteNumber": 81, "velocity": 64 }, { "deltaTime": 0, "type": "meta", "subtype": "endOfTrack" }], [{ "deltaTime": 0, "type": "meta", "subtype": "unknown", "data": "\u0000" }, { "deltaTime": 0, "type": "meta", "subtype": "trackName", "text": "Fruit....           " }, { "deltaTime": 0, "channel": 5, "type": "channel", "subtype": "programChange", "programNumber": 77 }, { "deltaTime": 0, "channel": 5, "type": "channel", "subtype": "controller", "controllerType": 10, "value": 107 }, { "deltaTime": 0, "channel": 5, "type": "channel", "subtype": "controller", "controllerType": 0, "value": 0 }, { "deltaTime": 0, "channel": 5, "type": "channel", "subtype": "controller", "controllerType": 93, "value": 0 }, { "deltaTime": 0, "channel": 5, "type": "channel", "subtype": "controller", "controllerType": 91, "value": 60 }, { "deltaTime": 0, "channel": 5, "type": "channel", "subtype": "controller", "controllerType": 91, "value": 60 }, { "deltaTime": 14024, "channel": 5, "type": "channel", "noteNumber": 69, "velocity": 111, "subtype": "noteOn" }, { "deltaTime": 82, "channel": 5, "type": "channel", "noteNumber": 71, "velocity": 114, "subtype": "noteOn" }, { "deltaTime": 42, "channel": 5, "type": "channel", "subtype": "noteOff", "noteNumber": 69, "velocity": 64 }, { "deltaTime": 58, "channel": 5, "type": "channel", "noteNumber": 69, "velocity": 114, "subtype": "noteOn" }, { "deltaTime": 12, "channel": 5, "type": "channel", "subtype": "noteOff", "noteNumber": 71, "velocity": 64 }, { "deltaTime": 174, "channel": 5, "type": "channel", "noteNumber": 66, "velocity": 114, "subtype": "noteOn" }, { "deltaTime": 26, "channel": 5, "type": "channel", "subtype": "noteOff", "noteNumber": 69, "velocity": 64 }, { "deltaTime": 164, "channel": 5, "type": "channel", "noteNumber": 64, "velocity": 114, "subtype": "noteOn" }, { "deltaTime": 16, "channel": 5, "type": "channel", "subtype": "noteOff", "noteNumber": 66, "velocity": 64 }, { "deltaTime": 764, "channel": 5, "type": "channel", "subtype": "noteOff", "noteNumber": 64, "velocity": 64 }, { "deltaTime": 958, "channel": 5, "type": "channel", "noteNumber": 69, "velocity": 114, "subtype": "noteOn" }, { "deltaTime": 88, "channel": 5, "type": "channel", "noteNumber": 71, "velocity": 109, "subtype": "noteOn" }, { "deltaTime": 26, "channel": 5, "type": "channel", "subtype": "noteOff", "noteNumber": 69, "velocity": 64 }, { "deltaTime": 70, "channel": 5, "type": "channel", "noteNumber": 69, "velocity": 103, "subtype": "noteOn" }, { "deltaTime": 34, "channel": 5, "type": "channel", "subtype": "noteOff", "noteNumber": 71, "velocity": 64 }, { "deltaTime": 150, "channel": 5, "type": "channel", "noteNumber": 66, "velocity": 112, "subtype": "noteOn" }, { "deltaTime": 34, "channel": 5, "type": "channel", "subtype": "noteOff", "noteNumber": 69, "velocity": 64 }, { "deltaTime": 164, "channel": 5, "type": "channel", "noteNumber": 64, "velocity": 114, "subtype": "noteOn" }, { "deltaTime": 10, "channel": 5, "type": "channel", "subtype": "noteOff", "noteNumber": 66, "velocity": 64 }, { "deltaTime": 624, "channel": 5, "type": "channel", "subtype": "noteOff", "noteNumber": 64, "velocity": 64 }, { "deltaTime": 4752, "channel": 5, "type": "channel", "noteNumber": 59, "velocity": 114, "subtype": "noteOn" }, { "deltaTime": 190, "channel": 5, "type": "channel", "noteNumber": 62, "velocity": 114, "subtype": "noteOn" }, { "deltaTime": 30, "channel": 5, "type": "channel", "subtype": "noteOff", "noteNumber": 59, "velocity": 64 }, { "deltaTime": 156, "channel": 5, "type": "channel", "noteNumber": 59, "velocity": 112, "subtype": "noteOn" }, { "deltaTime": 26, "channel": 5, "type": "channel", "subtype": "noteOff", "noteNumber": 62, "velocity": 64 }, { "deltaTime": 182, "channel": 5, "type": "channel", "noteNumber": 62, "velocity": 104, "subtype": "noteOn" }, { "deltaTime": 26, "channel": 5, "type": "channel", "subtype": "noteOff", "noteNumber": 59, "velocity": 64 }, { "deltaTime": 142, "channel": 5, "type": "channel", "noteNumber": 59, "velocity": 103, "subtype": "noteOn" }, { "deltaTime": 34, "channel": 5, "type": "channel", "subtype": "noteOff", "noteNumber": 62, "velocity": 64 }, { "deltaTime": 156, "channel": 5, "type": "channel", "noteNumber": 62, "velocity": 91, "subtype": "noteOn" }, { "deltaTime": 26, "channel": 5, "type": "channel", "subtype": "noteOff", "noteNumber": 59, "velocity": 64 }, { "deltaTime": 146, "channel": 5, "type": "channel", "noteNumber": 59, "velocity": 113, "subtype": "noteOn" }, { "deltaTime": 50, "channel": 5, "type": "channel", "subtype": "noteOff", "noteNumber": 62, "velocity": 64 }, { "deltaTime": 148, "channel": 5, "type": "channel", "noteNumber": 57, "velocity": 90, "subtype": "noteOn" }, { "deltaTime": 20, "channel": 5, "type": "channel", "subtype": "noteOff", "noteNumber": 59, "velocity": 64 }, { "deltaTime": 216, "channel": 5, "type": "channel", "subtype": "noteOff", "noteNumber": 57, "velocity": 64 }, { "deltaTime": 1530, "channel": 5, "type": "channel", "noteNumber": 59, "velocity": 113, "subtype": "noteOn" }, { "deltaTime": 200, "channel": 5, "type": "channel", "noteNumber": 62, "velocity": 104, "subtype": "noteOn" }, { "deltaTime": 34, "channel": 5, "type": "channel", "subtype": "noteOff", "noteNumber": 59, "velocity": 64 }, { "deltaTime": 164, "channel": 5, "type": "channel", "noteNumber": 59, "velocity": 112, "subtype": "noteOn" }, { "deltaTime": 32, "channel": 5, "type": "channel", "subtype": "noteOff", "noteNumber": 62, "velocity": 64 }, { "deltaTime": 156, "channel": 5, "type": "channel", "noteNumber": 62, "velocity": 92, "subtype": "noteOn" }, { "deltaTime": 22, "channel": 5, "type": "channel", "subtype": "noteOff", "noteNumber": 59, "velocity": 64 }, { "deltaTime": 150, "channel": 5, "type": "channel", "noteNumber": 59, "velocity": 98, "subtype": "noteOn" }, { "deltaTime": 34, "channel": 5, "type": "channel", "subtype": "noteOff", "noteNumber": 62, "velocity": 64 }, { "deltaTime": 152, "channel": 5, "type": "channel", "noteNumber": 62, "velocity": 90, "subtype": "noteOn" }, { "deltaTime": 26, "channel": 5, "type": "channel", "subtype": "noteOff", "noteNumber": 59, "velocity": 64 }, { "deltaTime": 150, "channel": 5, "type": "channel", "noteNumber": 59, "velocity": 104, "subtype": "noteOn" }, { "deltaTime": 38, "channel": 5, "type": "channel", "subtype": "noteOff", "noteNumber": 62, "velocity": 64 }, { "deltaTime": 158, "channel": 5, "type": "channel", "noteNumber": 57, "velocity": 85, "subtype": "noteOn" }, { "deltaTime": 16, "channel": 5, "type": "channel", "subtype": "noteOff", "noteNumber": 59, "velocity": 64 }, { "deltaTime": 192, "channel": 5, "type": "channel", "subtype": "noteOff", "noteNumber": 57, "velocity": 64 }, { "deltaTime": 16318, "channel": 5, "type": "channel", "noteNumber": 69, "velocity": 103, "subtype": "noteOn" }, { "deltaTime": 92, "channel": 5, "type": "channel", "noteNumber": 71, "velocity": 106, "subtype": "noteOn" }, { "deltaTime": 28, "channel": 5, "type": "channel", "subtype": "noteOff", "noteNumber": 69, "velocity": 64 }, { "deltaTime": 94, "channel": 5, "type": "channel", "noteNumber": 66, "velocity": 114, "subtype": "noteOn" }, { "deltaTime": 32, "channel": 5, "type": "channel", "subtype": "noteOff", "noteNumber": 71, "velocity": 64 }, { "deltaTime": 136, "channel": 5, "type": "channel", "noteNumber": 62, "velocity": 114, "subtype": "noteOn" }, { "deltaTime": 8, "channel": 5, "type": "channel", "subtype": "noteOff", "noteNumber": 66, "velocity": 64 }, { "deltaTime": 196, "channel": 5, "type": "channel", "noteNumber": 64, "velocity": 114, "subtype": "noteOn" }, { "deltaTime": 26, "channel": 5, "type": "channel", "subtype": "noteOff", "noteNumber": 62, "velocity": 64 }, { "deltaTime": 668, "channel": 5, "type": "channel", "subtype": "noteOff", "noteNumber": 64, "velocity": 64 }, { "deltaTime": 268, "channel": 5, "type": "channel", "noteNumber": 69, "velocity": 102, "subtype": "noteOn" }, { "deltaTime": 76, "channel": 5, "type": "channel", "noteNumber": 71, "velocity": 105, "subtype": "noteOn" }, { "deltaTime": 28, "channel": 5, "type": "channel", "subtype": "noteOff", "noteNumber": 69, "velocity": 64 }, { "deltaTime": 72, "channel": 5, "type": "channel", "noteNumber": 69, "velocity": 108, "subtype": "noteOn" }, { "deltaTime": 32, "channel": 5, "type": "channel", "subtype": "noteOff", "noteNumber": 71, "velocity": 64 }, { "deltaTime": 150, "channel": 5, "type": "channel", "noteNumber": 66, "velocity": 114, "subtype": "noteOn" }, { "deltaTime": 32, "channel": 5, "type": "channel", "subtype": "noteOff", "noteNumber": 69, "velocity": 64 }, { "deltaTime": 170, "channel": 5, "type": "channel", "subtype": "noteOff", "noteNumber": 66, "velocity": 64 }, { "deltaTime": 2, "channel": 5, "type": "channel", "noteNumber": 64, "velocity": 114, "subtype": "noteOn" }, { "deltaTime": 702, "channel": 5, "type": "channel", "subtype": "noteOff", "noteNumber": 64, "velocity": 64 }, { "deltaTime": 2582, "channel": 5, "type": "channel", "noteNumber": 66, "velocity": 114, "subtype": "noteOn" }, { "deltaTime": 100, "channel": 5, "type": "channel", "noteNumber": 69, "velocity": 114, "subtype": "noteOn" }, { "deltaTime": 8, "channel": 5, "type": "channel", "subtype": "noteOff", "noteNumber": 66, "velocity": 64 }, { "deltaTime": 84, "channel": 5, "type": "channel", "noteNumber": 71, "velocity": 112, "subtype": "noteOn" }, { "deltaTime": 34, "channel": 5, "type": "channel", "subtype": "noteOff", "noteNumber": 69, "velocity": 64 }, { "deltaTime": 128, "channel": 5, "type": "channel", "noteNumber": 74, "velocity": 114, "subtype": "noteOn" }, { "deltaTime": 20, "channel": 5, "type": "channel", "subtype": "noteOff", "noteNumber": 71, "velocity": 64 }, { "deltaTime": 166, "channel": 5, "type": "channel", "noteNumber": 73, "velocity": 114, "subtype": "noteOn" }, { "deltaTime": 18, "channel": 5, "type": "channel", "subtype": "noteOff", "noteNumber": 74, "velocity": 64 }, { "deltaTime": 280, "channel": 5, "type": "channel", "subtype": "noteOff", "noteNumber": 73, "velocity": 64 }, { "deltaTime": 10, "channel": 5, "type": "channel", "noteNumber": 78, "velocity": 114, "subtype": "noteOn" }, { "deltaTime": 102, "channel": 5, "type": "channel", "noteNumber": 83, "velocity": 114, "subtype": "noteOn" }, { "deltaTime": 16, "channel": 5, "type": "channel", "subtype": "noteOff", "noteNumber": 78, "velocity": 64 }, { "deltaTime": 78, "channel": 5, "type": "channel", "noteNumber": 81, "velocity": 110, "subtype": "noteOn" }, { "deltaTime": 46, "channel": 5, "type": "channel", "subtype": "noteOff", "noteNumber": 83, "velocity": 64 }, { "deltaTime": 50, "channel": 5, "type": "channel", "noteNumber": 78, "velocity": 114, "subtype": "noteOn" }, { "deltaTime": 46, "channel": 5, "type": "channel", "subtype": "noteOff", "noteNumber": 81, "velocity": 64 }, { "deltaTime": 56, "channel": 5, "type": "channel", "noteNumber": 76, "velocity": 109, "subtype": "noteOn" }, { "deltaTime": 8, "channel": 5, "type": "channel", "subtype": "noteOff", "noteNumber": 78, "velocity": 64 }, { "deltaTime": 98, "channel": 5, "type": "channel", "noteNumber": 74, "velocity": 114, "subtype": "noteOn" }, { "deltaTime": 18, "channel": 5, "type": "channel", "subtype": "noteOff", "noteNumber": 76, "velocity": 64 }, { "deltaTime": 566, "channel": 5, "type": "channel", "subtype": "noteOff", "noteNumber": 74, "velocity": 64 }, { "deltaTime": 1910, "channel": 5, "type": "channel", "noteNumber": 69, "velocity": 114, "subtype": "noteOn" }, { "deltaTime": 90, "channel": 5, "type": "channel", "noteNumber": 71, "velocity": 102, "subtype": "noteOn" }, { "deltaTime": 20, "channel": 5, "type": "channel", "subtype": "noteOff", "noteNumber": 69, "velocity": 64 }, { "deltaTime": 78, "channel": 5, "type": "channel", "noteNumber": 69, "velocity": 100, "subtype": "noteOn" }, { "deltaTime": 34, "channel": 5, "type": "channel", "subtype": "noteOff", "noteNumber": 71, "velocity": 64 }, { "deltaTime": 156, "channel": 5, "type": "channel", "noteNumber": 66, "velocity": 114, "subtype": "noteOn" }, { "deltaTime": 28, "channel": 5, "type": "channel", "subtype": "noteOff", "noteNumber": 69, "velocity": 64 }, { "deltaTime": 164, "channel": 5, "type": "channel", "noteNumber": 64, "velocity": 114, "subtype": "noteOn" }, { "deltaTime": 6, "channel": 5, "type": "channel", "subtype": "noteOff", "noteNumber": 66, "velocity": 64 }, { "deltaTime": 722, "channel": 5, "type": "channel", "subtype": "noteOff", "noteNumber": 64, "velocity": 64 }, { "deltaTime": 976, "channel": 5, "type": "channel", "noteNumber": 69, "velocity": 103, "subtype": "noteOn" }, { "deltaTime": 88, "channel": 5, "type": "channel", "noteNumber": 71, "velocity": 99, "subtype": "noteOn" }, { "deltaTime": 28, "channel": 5, "type": "channel", "subtype": "noteOff", "noteNumber": 69, "velocity": 64 }, { "deltaTime": 90, "channel": 5, "type": "channel", "noteNumber": 69, "velocity": 106, "subtype": "noteOn" }, { "deltaTime": 16, "channel": 5, "type": "channel", "subtype": "noteOff", "noteNumber": 71, "velocity": 64 }, { "deltaTime": 180, "channel": 5, "type": "channel", "noteNumber": 66, "velocity": 114, "subtype": "noteOn" }, { "deltaTime": 20, "channel": 5, "type": "channel", "subtype": "noteOff", "noteNumber": 69, "velocity": 64 }, { "deltaTime": 166, "channel": 5, "type": "channel", "noteNumber": 64, "velocity": 114, "subtype": "noteOn" }, { "deltaTime": 12, "channel": 5, "type": "channel", "subtype": "noteOff", "noteNumber": 66, "velocity": 64 }, { "deltaTime": 590, "channel": 5, "type": "channel", "subtype": "noteOff", "noteNumber": 64, "velocity": 64 }, { "deltaTime": 4774, "channel": 5, "type": "channel", "noteNumber": 59, "velocity": 114, "subtype": "noteOn" }, { "deltaTime": 196, "channel": 5, "type": "channel", "noteNumber": 62, "velocity": 102, "subtype": "noteOn" }, { "deltaTime": 30, "channel": 5, "type": "channel", "subtype": "noteOff", "noteNumber": 59, "velocity": 64 }, { "deltaTime": 146, "channel": 5, "type": "channel", "noteNumber": 59, "velocity": 106, "subtype": "noteOn" }, { "deltaTime": 38, "channel": 5, "type": "channel", "subtype": "noteOff", "noteNumber": 62, "velocity": 64 }, { "deltaTime": 148, "channel": 5, "type": "channel", "noteNumber": 62, "velocity": 91, "subtype": "noteOn" }, { "deltaTime": 28, "channel": 5, "type": "channel", "subtype": "noteOff", "noteNumber": 59, "velocity": 64 }, { "deltaTime": 148, "channel": 5, "type": "channel", "noteNumber": 59, "velocity": 108, "subtype": "noteOn" }, { "deltaTime": 30, "channel": 5, "type": "channel", "subtype": "noteOff", "noteNumber": 62, "velocity": 64 }, { "deltaTime": 164, "channel": 5, "type": "channel", "noteNumber": 62, "velocity": 85, "subtype": "noteOn" }, { "deltaTime": 30, "channel": 5, "type": "channel", "subtype": "noteOff", "noteNumber": 59, "velocity": 64 }, { "deltaTime": 136, "channel": 5, "type": "channel", "noteNumber": 59, "velocity": 109, "subtype": "noteOn" }, { "deltaTime": 50, "channel": 5, "type": "channel", "subtype": "noteOff", "noteNumber": 62, "velocity": 64 }, { "deltaTime": 148, "channel": 5, "type": "channel", "noteNumber": 57, "velocity": 92, "subtype": "noteOn" }, { "deltaTime": 28, "channel": 5, "type": "channel", "subtype": "noteOff", "noteNumber": 59, "velocity": 64 }, { "deltaTime": 212, "channel": 5, "type": "channel", "subtype": "noteOff", "noteNumber": 57, "velocity": 64 }, { "deltaTime": 1554, "channel": 5, "type": "channel", "noteNumber": 59, "velocity": 114, "subtype": "noteOn" }, { "deltaTime": 190, "channel": 5, "type": "channel", "noteNumber": 62, "velocity": 109, "subtype": "noteOn" }, { "deltaTime": 34, "channel": 5, "type": "channel", "subtype": "noteOff", "noteNumber": 59, "velocity": 64 }, { "deltaTime": 154, "channel": 5, "type": "channel", "noteNumber": 59, "velocity": 104, "subtype": "noteOn" }, { "deltaTime": 34, "channel": 5, "type": "channel", "subtype": "noteOff", "noteNumber": 62, "velocity": 64 }, { "deltaTime": 146, "channel": 5, "type": "channel", "noteNumber": 62, "velocity": 102, "subtype": "noteOn" }, { "deltaTime": 30, "channel": 5, "type": "channel", "subtype": "noteOff", "noteNumber": 59, "velocity": 64 }, { "deltaTime": 168, "channel": 5, "type": "channel", "noteNumber": 59, "velocity": 97, "subtype": "noteOn" }, { "deltaTime": 34, "channel": 5, "type": "channel", "subtype": "noteOff", "noteNumber": 62, "velocity": 64 }, { "deltaTime": 140, "channel": 5, "type": "channel", "noteNumber": 62, "velocity": 92, "subtype": "noteOn" }, { "deltaTime": 30, "channel": 5, "type": "channel", "subtype": "noteOff", "noteNumber": 59, "velocity": 64 }, { "deltaTime": 156, "channel": 5, "type": "channel", "noteNumber": 59, "velocity": 106, "subtype": "noteOn" }, { "deltaTime": 42, "channel": 5, "type": "channel", "subtype": "noteOff", "noteNumber": 62, "velocity": 64 }, { "deltaTime": 128, "channel": 5, "type": "channel", "noteNumber": 57, "velocity": 103, "subtype": "noteOn" }, { "deltaTime": 32, "channel": 5, "type": "channel", "subtype": "noteOff", "noteNumber": 59, "velocity": 64 }, { "deltaTime": 224, "channel": 5, "type": "channel", "subtype": "noteOff", "noteNumber": 57, "velocity": 64 }, { "deltaTime": 15140, "channel": 5, "type": "channel", "noteNumber": 57, "velocity": 114, "subtype": "noteOn" }, { "deltaTime": 50, "channel": 5, "type": "channel", "noteNumber": 59, "velocity": 114, "subtype": "noteOn" }, { "deltaTime": 32, "channel": 5, "type": "channel", "subtype": "noteOff", "noteNumber": 57, "velocity": 64 }, { "deltaTime": 20, "channel": 5, "type": "channel", "noteNumber": 62, "velocity": 114, "subtype": "noteOn" }, { "deltaTime": 32, "channel": 5, "type": "channel", "subtype": "noteOff", "noteNumber": 59, "velocity": 64 }, { "deltaTime": 20, "channel": 5, "type": "channel", "noteNumber": 64, "velocity": 114, "subtype": "noteOn" }, { "deltaTime": 14, "channel": 5, "type": "channel", "subtype": "noteOff", "noteNumber": 62, "velocity": 64 }, { "deltaTime": 58, "channel": 5, "type": "channel", "noteNumber": 66, "velocity": 114, "subtype": "noteOn" }, { "deltaTime": 4, "channel": 5, "type": "channel", "subtype": "noteOff", "noteNumber": 64, "velocity": 64 }, { "deltaTime": 730, "channel": 5, "type": "channel", "noteNumber": 64, "velocity": 111, "subtype": "noteOn" }, { "deltaTime": 6, "channel": 5, "type": "channel", "subtype": "noteOff", "noteNumber": 66, "velocity": 64 }, { "deltaTime": 352, "channel": 5, "type": "channel", "subtype": "noteOff", "noteNumber": 64, "velocity": 64 }, { "deltaTime": 54, "channel": 5, "type": "channel", "noteNumber": 64, "velocity": 109, "subtype": "noteOn" }, { "deltaTime": 372, "channel": 5, "type": "channel", "subtype": "noteOff", "noteNumber": 64, "velocity": 64 }, { "deltaTime": 2, "channel": 5, "type": "channel", "noteNumber": 66, "velocity": 108, "subtype": "noteOn" }, { "deltaTime": 2, "channel": 5, "type": "channel", "noteNumber": 62, "velocity": 94, "subtype": "noteOn" }, { "deltaTime": 780, "channel": 5, "type": "channel", "subtype": "noteOff", "noteNumber": 66, "velocity": 64 }, { "deltaTime": 44, "channel": 5, "type": "channel", "subtype": "noteOff", "noteNumber": 62, "velocity": 64 }, { "deltaTime": 0, "type": "meta", "subtype": "endOfTrack" }], [{ "deltaTime": 0, "type": "meta", "subtype": "unknown", "data": "\u0000" }, { "deltaTime": 0, "type": "meta", "subtype": "trackName", "text": "kim......           " }, { "deltaTime": 0, "channel": 6, "type": "channel", "subtype": "programChange", "programNumber": 105 }, { "deltaTime": 0, "channel": 6, "type": "channel", "subtype": "controller", "controllerType": 10, "value": 100 }, { "deltaTime": 0, "channel": 6, "type": "channel", "subtype": "controller", "controllerType": 0, "value": 0 }, { "deltaTime": 0, "channel": 6, "type": "channel", "subtype": "controller", "controllerType": 93, "value": 0 }, { "deltaTime": 572, "channel": 6, "type": "channel", "noteNumber": 57, "velocity": 80, "subtype": "noteOn" }, { "deltaTime": 48, "channel": 6, "type": "channel", "noteNumber": 59, "velocity": 80, "subtype": "noteOn" }, { "deltaTime": 32, "channel": 6, "type": "channel", "subtype": "noteOff", "noteNumber": 57, "velocity": 64 }, { "deltaTime": 20, "channel": 6, "type": "channel", "noteNumber": 62, "velocity": 80, "subtype": "noteOn" }, { "deltaTime": 26, "channel": 6, "type": "channel", "subtype": "noteOff", "noteNumber": 59, "velocity": 64 }, { "deltaTime": 24, "channel": 6, "type": "channel", "noteNumber": 64, "velocity": 80, "subtype": "noteOn" }, { "deltaTime": 10, "channel": 6, "type": "channel", "subtype": "noteOff", "noteNumber": 62, "velocity": 64 }, { "deltaTime": 52, "channel": 6, "type": "channel", "subtype": "noteOff", "noteNumber": 64, "velocity": 64 }, { "deltaTime": 40, "channel": 6, "type": "channel", "noteNumber": 66, "velocity": 80, "subtype": "noteOn" }, { "deltaTime": 30, "channel": 6, "type": "channel", "subtype": "noteOff", "noteNumber": 66, "velocity": 64 }, { "deltaTime": 6, "channel": 6, "type": "channel", "noteNumber": 69, "velocity": 80, "subtype": "noteOn" }, { "deltaTime": 24, "channel": 6, "type": "channel", "noteNumber": 66, "velocity": 75, "subtype": "noteOn" }, { "deltaTime": 26, "channel": 6, "type": "channel", "subtype": "noteOff", "noteNumber": 66, "velocity": 64 }, { "deltaTime": 28, "channel": 6, "type": "channel", "noteNumber": 66, "velocity": 72, "subtype": "noteOn" }, { "deltaTime": 28, "channel": 6, "type": "channel", "subtype": "noteOff", "noteNumber": 66, "velocity": 64 }, { "deltaTime": 62, "channel": 6, "type": "channel", "noteNumber": 66, "velocity": 8, "subtype": "noteOn" }, { "deltaTime": 18, "channel": 6, "type": "channel", "subtype": "noteOff", "noteNumber": 69, "velocity": 64 }, { "deltaTime": 20, "channel": 6, "type": "channel", "subtype": "noteOff", "noteNumber": 66, "velocity": 64 }, { "deltaTime": 4, "channel": 6, "type": "channel", "noteNumber": 69, "velocity": 72, "subtype": "noteOn" }, { "deltaTime": 40, "channel": 6, "type": "channel", "noteNumber": 66, "velocity": 73, "subtype": "noteOn" }, { "deltaTime": 16, "channel": 6, "type": "channel", "subtype": "noteOff", "noteNumber": 69, "velocity": 64 }, { "deltaTime": 14, "channel": 6, "type": "channel", "subtype": "noteOff", "noteNumber": 66, "velocity": 64 }, { "deltaTime": 10, "channel": 6, "type": "channel", "noteNumber": 69, "velocity": 52, "subtype": "noteOn" }, { "deltaTime": 18, "channel": 6, "type": "channel", "noteNumber": 66, "velocity": 72, "subtype": "noteOn" }, { "deltaTime": 32, "channel": 6, "type": "channel", "subtype": "noteOff", "noteNumber": 66, "velocity": 64 }, { "deltaTime": 28, "channel": 6, "type": "channel", "subtype": "noteOff", "noteNumber": 69, "velocity": 64 }, { "deltaTime": 310, "channel": 6, "type": "channel", "noteNumber": 57, "velocity": 62, "subtype": "noteOn" }, { "deltaTime": 8, "channel": 6, "type": "channel", "noteNumber": 61, "velocity": 33, "subtype": "noteOn" }, { "deltaTime": 22, "channel": 6, "type": "channel", "subtype": "noteOff", "noteNumber": 61, "velocity": 64 }, { "deltaTime": 14, "channel": 6, "type": "channel", "noteNumber": 61, "velocity": 25, "subtype": "noteOn" }, { "deltaTime": 4, "channel": 6, "type": "channel", "subtype": "noteOff", "noteNumber": 57, "velocity": 64 }, { "deltaTime": 16, "channel": 6, "type": "channel", "subtype": "noteOff", "noteNumber": 61, "velocity": 64 }, { "deltaTime": 8, "channel": 6, "type": "channel", "noteNumber": 57, "velocity": 80, "subtype": "noteOn" }, { "deltaTime": 28, "channel": 6, "type": "channel", "noteNumber": 61, "velocity": 47, "subtype": "noteOn" }, { "deltaTime": 18, "channel": 6, "type": "channel", "subtype": "noteOff", "noteNumber": 57, "velocity": 64 }, { "deltaTime": 22, "channel": 6, "type": "channel", "subtype": "noteOff", "noteNumber": 61, "velocity": 64 }, { "deltaTime": 4, "channel": 6, "type": "channel", "noteNumber": 57, "velocity": 68, "subtype": "noteOn" }, { "deltaTime": 56, "channel": 6, "type": "channel", "subtype": "noteOff", "noteNumber": 57, "velocity": 64 }, { "deltaTime": 128, "channel": 6, "type": "channel", "noteNumber": 62, "velocity": 74, "subtype": "noteOn" }, { "deltaTime": 22, "channel": 6, "type": "channel", "subtype": "noteOff", "noteNumber": 62, "velocity": 64 }, { "deltaTime": 6, "channel": 6, "type": "channel", "noteNumber": 59, "velocity": 72, "subtype": "noteOn" }, { "deltaTime": 26, "channel": 6, "type": "channel", "subtype": "noteOff", "noteNumber": 59, "velocity": 64 }, { "deltaTime": 2, "channel": 6, "type": "channel", "noteNumber": 62, "velocity": 74, "subtype": "noteOn" }, { "deltaTime": 30, "channel": 6, "type": "channel", "noteNumber": 59, "velocity": 77, "subtype": "noteOn" }, { "deltaTime": 52, "channel": 6, "type": "channel", "subtype": "noteOff", "noteNumber": 62, "velocity": 64 }, { "deltaTime": 20, "channel": 6, "type": "channel", "subtype": "noteOff", "noteNumber": 59, "velocity": 64 }, { "deltaTime": 56, "channel": 6, "type": "channel", "noteNumber": 61, "velocity": 71, "subtype": "noteOn" }, { "deltaTime": 20, "channel": 6, "type": "channel", "noteNumber": 57, "velocity": 60, "subtype": "noteOn" }, { "deltaTime": 14, "channel": 6, "type": "channel", "subtype": "noteOff", "noteNumber": 61, "velocity": 64 }, { "deltaTime": 36, "channel": 6, "type": "channel", "subtype": "noteOff", "noteNumber": 57, "velocity": 64 }, { "deltaTime": 54, "channel": 6, "type": "channel", "noteNumber": 59, "velocity": 79, "subtype": "noteOn" }, { "deltaTime": 6, "channel": 6, "type": "channel", "noteNumber": 62, "velocity": 34, "subtype": "noteOn" }, { "deltaTime": 24, "channel": 6, "type": "channel", "subtype": "noteOff", "noteNumber": 59, "velocity": 64 }, { "deltaTime": 6, "channel": 6, "type": "channel", "subtype": "noteOff", "noteNumber": 62, "velocity": 64 }, { "deltaTime": 70, "channel": 6, "type": "channel", "noteNumber": 62, "velocity": 67, "subtype": "noteOn" }, { "deltaTime": 6, "channel": 6, "type": "channel", "noteNumber": 66, "velocity": 74, "subtype": "noteOn" }, { "deltaTime": 20, "channel": 6, "type": "channel", "subtype": "noteOff", "noteNumber": 62, "velocity": 64 }, { "deltaTime": 16, "channel": 6, "type": "channel", "subtype": "noteOff", "noteNumber": 66, "velocity": 64 }, { "deltaTime": 8, "channel": 6, "type": "channel", "noteNumber": 62, "velocity": 80, "subtype": "noteOn" }, { "deltaTime": 26, "channel": 6, "type": "channel", "noteNumber": 66, "velocity": 64, "subtype": "noteOn" }, { "deltaTime": 14, "channel": 6, "type": "channel", "subtype": "noteOff", "noteNumber": 62, "velocity": 64 }, { "deltaTime": 8, "channel": 6, "type": "channel", "subtype": "noteOff", "noteNumber": 66, "velocity": 64 }, { "deltaTime": 10, "channel": 6, "type": "channel", "noteNumber": 62, "velocity": 63, "subtype": "noteOn" }, { "deltaTime": 36, "channel": 6, "type": "channel", "noteNumber": 66, "velocity": 68, "subtype": "noteOn" }, { "deltaTime": 10, "channel": 6, "type": "channel", "subtype": "noteOff", "noteNumber": 62, "velocity": 64 }, { "deltaTime": 28, "channel": 6, "type": "channel", "noteNumber": 62, "velocity": 73, "subtype": "noteOn" }, { "deltaTime": 4, "channel": 6, "type": "channel", "subtype": "noteOff", "noteNumber": 66, "velocity": 64 }, { "deltaTime": 30, "channel": 6, "type": "channel", "subtype": "noteOff", "noteNumber": 62, "velocity": 64 }, { "deltaTime": 2, "channel": 6, "type": "channel", "noteNumber": 66, "velocity": 79, "subtype": "noteOn" }, { "deltaTime": 42, "channel": 6, "type": "channel", "noteNumber": 62, "velocity": 68, "subtype": "noteOn" }, { "deltaTime": 2, "channel": 6, "type": "channel", "subtype": "noteOff", "noteNumber": 66, "velocity": 64 }, { "deltaTime": 26, "channel": 6, "type": "channel", "noteNumber": 66, "velocity": 80, "subtype": "noteOn" }, { "deltaTime": 2, "channel": 6, "type": "channel", "subtype": "noteOff", "noteNumber": 62, "velocity": 64 }, { "deltaTime": 38, "channel": 6, "type": "channel", "noteNumber": 62, "velocity": 80, "subtype": "noteOn" }, { "deltaTime": 4, "channel": 6, "type": "channel", "subtype": "noteOff", "noteNumber": 66, "velocity": 64 }, { "deltaTime": 20, "channel": 6, "type": "channel", "subtype": "noteOff", "noteNumber": 62, "velocity": 64 }, { "deltaTime": 8, "channel": 6, "type": "channel", "noteNumber": 66, "velocity": 77, "subtype": "noteOn" }, { "deltaTime": 28, "channel": 6, "type": "channel", "noteNumber": 62, "velocity": 71, "subtype": "noteOn" }, { "deltaTime": 4, "channel": 6, "type": "channel", "subtype": "noteOff", "noteNumber": 66, "velocity": 64 }, { "deltaTime": 30, "channel": 6, "type": "channel", "subtype": "noteOff", "noteNumber": 62, "velocity": 64 }, { "deltaTime": 0, "channel": 6, "type": "channel", "noteNumber": 66, "velocity": 73, "subtype": "noteOn" }, { "deltaTime": 30, "channel": 6, "type": "channel", "subtype": "noteOff", "noteNumber": 66, "velocity": 64 }, { "deltaTime": 0, "channel": 6, "type": "channel", "noteNumber": 62, "velocity": 73, "subtype": "noteOn" }, { "deltaTime": 32, "channel": 6, "type": "channel", "subtype": "noteOff", "noteNumber": 62, "velocity": 64 }, { "deltaTime": 0, "channel": 6, "type": "channel", "noteNumber": 66, "velocity": 75, "subtype": "noteOn" }, { "deltaTime": 30, "channel": 6, "type": "channel", "noteNumber": 62, "velocity": 70, "subtype": "noteOn" }, { "deltaTime": 6, "channel": 6, "type": "channel", "subtype": "noteOff", "noteNumber": 66, "velocity": 64 }, { "deltaTime": 30, "channel": 6, "type": "channel", "subtype": "noteOff", "noteNumber": 62, "velocity": 64 }, { "deltaTime": 0, "channel": 6, "type": "channel", "noteNumber": 66, "velocity": 79, "subtype": "noteOn" }, { "deltaTime": 38, "channel": 6, "type": "channel", "noteNumber": 62, "velocity": 62, "subtype": "noteOn" }, { "deltaTime": 2, "channel": 6, "type": "channel", "subtype": "noteOff", "noteNumber": 66, "velocity": 64 }, { "deltaTime": 30, "channel": 6, "type": "channel", "noteNumber": 66, "velocity": 75, "subtype": "noteOn" }, { "deltaTime": 4, "channel": 6, "type": "channel", "subtype": "noteOff", "noteNumber": 62, "velocity": 64 }, { "deltaTime": 36, "channel": 6, "type": "channel", "subtype": "noteOff", "noteNumber": 66, "velocity": 64 }, { "deltaTime": 0, "channel": 6, "type": "channel", "noteNumber": 62, "velocity": 69, "subtype": "noteOn" }, { "deltaTime": 26, "channel": 6, "type": "channel", "subtype": "noteOff", "noteNumber": 62, "velocity": 64 }, { "deltaTime": 8, "channel": 6, "type": "channel", "noteNumber": 66, "velocity": 63, "subtype": "noteOn" }, { "deltaTime": 28, "channel": 6, "type": "channel", "subtype": "noteOff", "noteNumber": 66, "velocity": 64 }, { "deltaTime": 0, "channel": 6, "type": "channel", "noteNumber": 62, "velocity": 80, "subtype": "noteOn" }, { "deltaTime": 40, "channel": 6, "type": "channel", "subtype": "noteOff", "noteNumber": 62, "velocity": 64 }, { "deltaTime": 0, "channel": 6, "type": "channel", "noteNumber": 66, "velocity": 80, "subtype": "noteOn" }, { "deltaTime": 36, "channel": 6, "type": "channel", "subtype": "noteOff", "noteNumber": 66, "velocity": 64 }, { "deltaTime": 4, "channel": 6, "type": "channel", "noteNumber": 62, "velocity": 68, "subtype": "noteOn" }, { "deltaTime": 28, "channel": 6, "type": "channel", "subtype": "noteOff", "noteNumber": 62, "velocity": 64 }, { "deltaTime": 2, "channel": 6, "type": "channel", "noteNumber": 66, "velocity": 68, "subtype": "noteOn" }, { "deltaTime": 40, "channel": 6, "type": "channel", "noteNumber": 62, "velocity": 46, "subtype": "noteOn" }, { "deltaTime": 2, "channel": 6, "type": "channel", "subtype": "noteOff", "noteNumber": 66, "velocity": 64 }, { "deltaTime": 26, "channel": 6, "type": "channel", "subtype": "noteOff", "noteNumber": 62, "velocity": 64 }, { "deltaTime": 2, "channel": 6, "type": "channel", "noteNumber": 66, "velocity": 80, "subtype": "noteOn" }, { "deltaTime": 38, "channel": 6, "type": "channel", "subtype": "noteOff", "noteNumber": 66, "velocity": 64 }, { "deltaTime": 4, "channel": 6, "type": "channel", "noteNumber": 62, "velocity": 53, "subtype": "noteOn" }, { "deltaTime": 26, "channel": 6, "type": "channel", "noteNumber": 66, "velocity": 78, "subtype": "noteOn" }, { "deltaTime": 2, "channel": 6, "type": "channel", "subtype": "noteOff", "noteNumber": 62, "velocity": 64 }, { "deltaTime": 38, "channel": 6, "type": "channel", "subtype": "noteOff", "noteNumber": 66, "velocity": 64 }, { "deltaTime": 2, "channel": 6, "type": "channel", "noteNumber": 62, "velocity": 60, "subtype": "noteOn" }, { "deltaTime": 30, "channel": 6, "type": "channel", "subtype": "noteOff", "noteNumber": 62, "velocity": 64 }, { "deltaTime": 2, "channel": 6, "type": "channel", "noteNumber": 66, "velocity": 73, "subtype": "noteOn" }, { "deltaTime": 38, "channel": 6, "type": "channel", "subtype": "noteOff", "noteNumber": 66, "velocity": 64 }, { "deltaTime": 0, "channel": 6, "type": "channel", "noteNumber": 62, "velocity": 58, "subtype": "noteOn" }, { "deltaTime": 26, "channel": 6, "type": "channel", "subtype": "noteOff", "noteNumber": 62, "velocity": 64 }, { "deltaTime": 4, "channel": 6, "type": "channel", "noteNumber": 66, "velocity": 80, "subtype": "noteOn" }, { "deltaTime": 36, "channel": 6, "type": "channel", "subtype": "noteOff", "noteNumber": 66, "velocity": 64 }, { "deltaTime": 6, "channel": 6, "type": "channel", "noteNumber": 62, "velocity": 52, "subtype": "noteOn" }, { "deltaTime": 26, "channel": 6, "type": "channel", "subtype": "noteOff", "noteNumber": 62, "velocity": 64 }, { "deltaTime": 2, "channel": 6, "type": "channel", "noteNumber": 66, "velocity": 66, "subtype": "noteOn" }, { "deltaTime": 36, "channel": 6, "type": "channel", "subtype": "noteOff", "noteNumber": 66, "velocity": 64 }, { "deltaTime": 0, "channel": 6, "type": "channel", "noteNumber": 62, "velocity": 52, "subtype": "noteOn" }, { "deltaTime": 32, "channel": 6, "type": "channel", "subtype": "noteOff", "noteNumber": 62, "velocity": 64 }, { "deltaTime": 0, "channel": 6, "type": "channel", "noteNumber": 66, "velocity": 63, "subtype": "noteOn" }, { "deltaTime": 40, "channel": 6, "type": "channel", "subtype": "noteOff", "noteNumber": 66, "velocity": 64 }, { "deltaTime": 2, "channel": 6, "type": "channel", "noteNumber": 62, "velocity": 62, "subtype": "noteOn" }, { "deltaTime": 30, "channel": 6, "type": "channel", "noteNumber": 66, "velocity": 75, "subtype": "noteOn" }, { "deltaTime": 2, "channel": 6, "type": "channel", "subtype": "noteOff", "noteNumber": 62, "velocity": 64 }, { "deltaTime": 40, "channel": 6, "type": "channel", "noteNumber": 62, "velocity": 47, "subtype": "noteOn" }, { "deltaTime": 4, "channel": 6, "type": "channel", "subtype": "noteOff", "noteNumber": 66, "velocity": 64 }, { "deltaTime": 18, "channel": 6, "type": "channel", "subtype": "noteOff", "noteNumber": 62, "velocity": 64 }, { "deltaTime": 6488, "channel": 6, "type": "channel", "noteNumber": 54, "velocity": 80, "subtype": "noteOn" }, { "deltaTime": 76, "channel": 6, "type": "channel", "subtype": "noteOff", "noteNumber": 54, "velocity": 64 }, { "deltaTime": 8, "channel": 6, "type": "channel", "noteNumber": 57, "velocity": 74, "subtype": "noteOn" }, { "deltaTime": 100, "channel": 6, "type": "channel", "noteNumber": 59, "velocity": 76, "subtype": "noteOn" }, { "deltaTime": 96, "channel": 6, "type": "channel", "subtype": "noteOff", "noteNumber": 57, "velocity": 64 }, { "deltaTime": 94, "channel": 6, "type": "channel", "noteNumber": 62, "velocity": 74, "subtype": "noteOn" }, { "deltaTime": 16, "channel": 6, "type": "channel", "subtype": "noteOff", "noteNumber": 59, "velocity": 64 }, { "deltaTime": 174, "channel": 6, "type": "channel", "noteNumber": 61, "velocity": 80, "subtype": "noteOn" }, { "deltaTime": 2, "channel": 6, "type": "channel", "subtype": "noteOff", "noteNumber": 62, "velocity": 64 }, { "deltaTime": 164, "channel": 6, "type": "channel", "subtype": "noteOff", "noteNumber": 61, "velocity": 64 }, { "deltaTime": 126, "channel": 6, "type": "channel", "noteNumber": 66, "velocity": 80, "subtype": "noteOn" }, { "deltaTime": 92, "channel": 6, "type": "channel", "subtype": "noteOff", "noteNumber": 66, "velocity": 64 }, { "deltaTime": 0, "channel": 6, "type": "channel", "noteNumber": 71, "velocity": 79, "subtype": "noteOn" }, { "deltaTime": 98, "channel": 6, "type": "channel", "noteNumber": 69, "velocity": 80, "subtype": "noteOn" }, { "deltaTime": 2, "channel": 6, "type": "channel", "subtype": "noteOff", "noteNumber": 71, "velocity": 64 }, { "deltaTime": 100, "channel": 6, "type": "channel", "noteNumber": 66, "velocity": 80, "subtype": "noteOn" }, { "deltaTime": 8, "channel": 6, "type": "channel", "subtype": "noteOff", "noteNumber": 69, "velocity": 64 }, { "deltaTime": 80, "channel": 6, "type": "channel", "subtype": "noteOff", "noteNumber": 66, "velocity": 64 }, { "deltaTime": 4, "channel": 6, "type": "channel", "noteNumber": 64, "velocity": 80, "subtype": "noteOn" }, { "deltaTime": 108, "channel": 6, "type": "channel", "noteNumber": 66, "velocity": 80, "subtype": "noteOn" }, { "deltaTime": 16, "channel": 6, "type": "channel", "subtype": "noteOff", "noteNumber": 64, "velocity": 64 }, { "deltaTime": 278, "channel": 6, "type": "channel", "subtype": "noteOff", "noteNumber": 66, "velocity": 64 }, { "deltaTime": 9098, "channel": 6, "type": "channel", "noteNumber": 62, "velocity": 80, "subtype": "noteOn" }, { "deltaTime": 66, "channel": 6, "type": "channel", "subtype": "noteOff", "noteNumber": 62, "velocity": 64 }, { "deltaTime": 24, "channel": 6, "type": "channel", "noteNumber": 64, "velocity": 80, "subtype": "noteOn" }, { "deltaTime": 32, "channel": 6, "type": "channel", "subtype": "noteOff", "noteNumber": 64, "velocity": 64 }, { "deltaTime": 72, "channel": 6, "type": "channel", "noteNumber": 66, "velocity": 80, "subtype": "noteOn" }, { "deltaTime": 36, "channel": 6, "type": "channel", "subtype": "noteOff", "noteNumber": 66, "velocity": 64 }, { "deltaTime": 170, "channel": 6, "type": "channel", "noteNumber": 62, "velocity": 80, "subtype": "noteOn" }, { "deltaTime": 40, "channel": 6, "type": "channel", "subtype": "noteOff", "noteNumber": 62, "velocity": 64 }, { "deltaTime": 218, "channel": 6, "type": "channel", "noteNumber": 62, "velocity": 80, "subtype": "noteOn" }, { "deltaTime": 40, "channel": 6, "type": "channel", "subtype": "noteOff", "noteNumber": 62, "velocity": 64 }, { "deltaTime": 160, "channel": 6, "type": "channel", "noteNumber": 64, "velocity": 80, "subtype": "noteOn" }, { "deltaTime": 38, "channel": 6, "type": "channel", "subtype": "noteOff", "noteNumber": 64, "velocity": 64 }, { "deltaTime": 60, "channel": 6, "type": "channel", "noteNumber": 66, "velocity": 80, "subtype": "noteOn" }, { "deltaTime": 36, "channel": 6, "type": "channel", "subtype": "noteOff", "noteNumber": 66, "velocity": 64 }, { "deltaTime": 50, "channel": 6, "type": "channel", "noteNumber": 66, "velocity": 80, "subtype": "noteOn" }, { "deltaTime": 38, "channel": 6, "type": "channel", "subtype": "noteOff", "noteNumber": 66, "velocity": 64 }, { "deltaTime": 58, "channel": 6, "type": "channel", "noteNumber": 62, "velocity": 80, "subtype": "noteOn" }, { "deltaTime": 44, "channel": 6, "type": "channel", "subtype": "noteOff", "noteNumber": 62, "velocity": 64 }, { "deltaTime": 1902, "channel": 6, "type": "channel", "noteNumber": 62, "velocity": 80, "subtype": "noteOn" }, { "deltaTime": 38, "channel": 6, "type": "channel", "subtype": "noteOff", "noteNumber": 62, "velocity": 64 }, { "deltaTime": 56, "channel": 6, "type": "channel", "noteNumber": 64, "velocity": 80, "subtype": "noteOn" }, { "deltaTime": 40, "channel": 6, "type": "channel", "subtype": "noteOff", "noteNumber": 64, "velocity": 64 }, { "deltaTime": 58, "channel": 6, "type": "channel", "noteNumber": 66, "velocity": 80, "subtype": "noteOn" }, { "deltaTime": 40, "channel": 6, "type": "channel", "subtype": "noteOff", "noteNumber": 66, "velocity": 64 }, { "deltaTime": 144, "channel": 6, "type": "channel", "noteNumber": 62, "velocity": 80, "subtype": "noteOn" }, { "deltaTime": 50, "channel": 6, "type": "channel", "subtype": "noteOff", "noteNumber": 62, "velocity": 64 }, { "deltaTime": 154, "channel": 6, "type": "channel", "noteNumber": 74, "velocity": 80, "subtype": "noteOn" }, { "deltaTime": 32, "channel": 6, "type": "channel", "subtype": "noteOff", "noteNumber": 74, "velocity": 64 }, { "deltaTime": 48, "channel": 6, "type": "channel", "noteNumber": 74, "velocity": 80, "subtype": "noteOn" }, { "deltaTime": 36, "channel": 6, "type": "channel", "subtype": "noteOff", "noteNumber": 74, "velocity": 64 }, { "deltaTime": 174, "channel": 6, "type": "channel", "noteNumber": 64, "velocity": 80, "subtype": "noteOn" }, { "deltaTime": 36, "channel": 6, "type": "channel", "subtype": "noteOff", "noteNumber": 64, "velocity": 64 }, { "deltaTime": 52, "channel": 6, "type": "channel", "noteNumber": 66, "velocity": 80, "subtype": "noteOn" }, { "deltaTime": 34, "channel": 6, "type": "channel", "subtype": "noteOff", "noteNumber": 66, "velocity": 64 }, { "deltaTime": 58, "channel": 6, "type": "channel", "noteNumber": 66, "velocity": 80, "subtype": "noteOn" }, { "deltaTime": 34, "channel": 6, "type": "channel", "subtype": "noteOff", "noteNumber": 66, "velocity": 64 }, { "deltaTime": 60, "channel": 6, "type": "channel", "noteNumber": 62, "velocity": 80, "subtype": "noteOn" }, { "deltaTime": 44, "channel": 6, "type": "channel", "subtype": "noteOff", "noteNumber": 62, "velocity": 64 }, { "deltaTime": 1880, "channel": 6, "type": "channel", "noteNumber": 62, "velocity": 80, "subtype": "noteOn" }, { "deltaTime": 38, "channel": 6, "type": "channel", "subtype": "noteOff", "noteNumber": 62, "velocity": 64 }, { "deltaTime": 52, "channel": 6, "type": "channel", "noteNumber": 64, "velocity": 80, "subtype": "noteOn" }, { "deltaTime": 38, "channel": 6, "type": "channel", "subtype": "noteOff", "noteNumber": 64, "velocity": 64 }, { "deltaTime": 64, "channel": 6, "type": "channel", "noteNumber": 66, "velocity": 80, "subtype": "noteOn" }, { "deltaTime": 32, "channel": 6, "type": "channel", "subtype": "noteOff", "noteNumber": 66, "velocity": 64 }, { "deltaTime": 166, "channel": 6, "type": "channel", "noteNumber": 62, "velocity": 80, "subtype": "noteOn" }, { "deltaTime": 40, "channel": 6, "type": "channel", "subtype": "noteOff", "noteNumber": 62, "velocity": 64 }, { "deltaTime": 144, "channel": 6, "type": "channel", "noteNumber": 74, "velocity": 80, "subtype": "noteOn" }, { "deltaTime": 36, "channel": 6, "type": "channel", "subtype": "noteOff", "noteNumber": 74, "velocity": 64 }, { "deltaTime": 56, "channel": 6, "type": "channel", "noteNumber": 74, "velocity": 80, "subtype": "noteOn" }, { "deltaTime": 38, "channel": 6, "type": "channel", "subtype": "noteOff", "noteNumber": 74, "velocity": 64 }, { "deltaTime": 180, "channel": 6, "type": "channel", "noteNumber": 64, "velocity": 80, "subtype": "noteOn" }, { "deltaTime": 40, "channel": 6, "type": "channel", "subtype": "noteOff", "noteNumber": 64, "velocity": 64 }, { "deltaTime": 50, "channel": 6, "type": "channel", "noteNumber": 66, "velocity": 80, "subtype": "noteOn" }, { "deltaTime": 32, "channel": 6, "type": "channel", "subtype": "noteOff", "noteNumber": 66, "velocity": 64 }, { "deltaTime": 54, "channel": 6, "type": "channel", "noteNumber": 66, "velocity": 80, "subtype": "noteOn" }, { "deltaTime": 30, "channel": 6, "type": "channel", "subtype": "noteOff", "noteNumber": 66, "velocity": 64 }, { "deltaTime": 66, "channel": 6, "type": "channel", "noteNumber": 62, "velocity": 80, "subtype": "noteOn" }, { "deltaTime": 42, "channel": 6, "type": "channel", "subtype": "noteOff", "noteNumber": 62, "velocity": 64 }, { "deltaTime": 2450, "channel": 6, "type": "channel", "noteNumber": 57, "velocity": 80, "subtype": "noteOn" }, { "deltaTime": 144, "channel": 6, "type": "channel", "subtype": "noteOff", "noteNumber": 57, "velocity": 64 }, { "deltaTime": 38, "channel": 6, "type": "channel", "noteNumber": 57, "velocity": 80, "subtype": "noteOn" }, { "deltaTime": 184, "channel": 6, "type": "channel", "subtype": "noteOff", "noteNumber": 57, "velocity": 64 }, { "deltaTime": 10, "channel": 6, "type": "channel", "noteNumber": 59, "velocity": 79, "subtype": "noteOn" }, { "deltaTime": 182, "channel": 6, "type": "channel", "noteNumber": 61, "velocity": 80, "subtype": "noteOn" }, { "deltaTime": 18, "channel": 6, "type": "channel", "subtype": "noteOff", "noteNumber": 59, "velocity": 64 }, { "deltaTime": 96, "channel": 6, "type": "channel", "subtype": "noteOff", "noteNumber": 61, "velocity": 64 }, { "deltaTime": 80, "channel": 6, "type": "channel", "noteNumber": 66, "velocity": 80, "subtype": "noteOn" }, { "deltaTime": 20, "channel": 6, "type": "channel", "subtype": "noteOff", "noteNumber": 66, "velocity": 64 }, { "deltaTime": 4, "channel": 6, "type": "channel", "noteNumber": 62, "velocity": 79, "subtype": "noteOn" }, { "deltaTime": 36, "channel": 6, "type": "channel", "subtype": "noteOff", "noteNumber": 62, "velocity": 64 }, { "deltaTime": 2, "channel": 6, "type": "channel", "noteNumber": 66, "velocity": 80, "subtype": "noteOn" }, { "deltaTime": 28, "channel": 6, "type": "channel", "noteNumber": 62, "velocity": 73, "subtype": "noteOn" }, { "deltaTime": 4, "channel": 6, "type": "channel", "subtype": "noteOff", "noteNumber": 66, "velocity": 64 }, { "deltaTime": 26, "channel": 6, "type": "channel", "noteNumber": 66, "velocity": 78, "subtype": "noteOn" }, { "deltaTime": 8, "channel": 6, "type": "channel", "subtype": "noteOff", "noteNumber": 62, "velocity": 64 }, { "deltaTime": 22, "channel": 6, "type": "channel", "noteNumber": 62, "velocity": 39, "subtype": "noteOn" }, { "deltaTime": 2, "channel": 6, "type": "channel", "subtype": "noteOff", "noteNumber": 66, "velocity": 64 }, { "deltaTime": 28, "channel": 6, "type": "channel", "noteNumber": 66, "velocity": 74, "subtype": "noteOn" }, { "deltaTime": 8, "channel": 6, "type": "channel", "subtype": "noteOff", "noteNumber": 62, "velocity": 64 }, { "deltaTime": 34, "channel": 6, "type": "channel", "subtype": "noteOff", "noteNumber": 66, "velocity": 64 }, { "deltaTime": 2, "channel": 6, "type": "channel", "noteNumber": 62, "velocity": 55, "subtype": "noteOn" }, { "deltaTime": 32, "channel": 6, "type": "channel", "noteNumber": 66, "velocity": 67, "subtype": "noteOn" }, { "deltaTime": 48, "channel": 6, "type": "channel", "subtype": "noteOff", "noteNumber": 62, "velocity": 64 }, { "deltaTime": 14, "channel": 6, "type": "channel", "subtype": "noteOff", "noteNumber": 66, "velocity": 64 }, { "deltaTime": 106, "channel": 6, "type": "channel", "noteNumber": 66, "velocity": 80, "subtype": "noteOn" }, { "deltaTime": 32, "channel": 6, "type": "channel", "subtype": "noteOff", "noteNumber": 66, "velocity": 64 }, { "deltaTime": 8, "channel": 6, "type": "channel", "noteNumber": 69, "velocity": 59, "subtype": "noteOn" }, { "deltaTime": 26, "channel": 6, "type": "channel", "noteNumber": 66, "velocity": 80, "subtype": "noteOn" }, { "deltaTime": 10, "channel": 6, "type": "channel", "subtype": "noteOff", "noteNumber": 69, "velocity": 64 }, { "deltaTime": 18, "channel": 6, "type": "channel", "subtype": "noteOff", "noteNumber": 66, "velocity": 64 }, { "deltaTime": 8, "channel": 6, "type": "channel", "noteNumber": 69, "velocity": 51, "subtype": "noteOn" }, { "deltaTime": 22, "channel": 6, "type": "channel", "noteNumber": 66, "velocity": 80, "subtype": "noteOn" }, { "deltaTime": 12, "channel": 6, "type": "channel", "subtype": "noteOff", "noteNumber": 69, "velocity": 64 }, { "deltaTime": 22, "channel": 6, "type": "channel", "subtype": "noteOff", "noteNumber": 66, "velocity": 64 }, { "deltaTime": 4, "channel": 6, "type": "channel", "noteNumber": 69, "velocity": 47, "subtype": "noteOn" }, { "deltaTime": 22, "channel": 6, "type": "channel", "noteNumber": 66, "velocity": 79, "subtype": "noteOn" }, { "deltaTime": 62, "channel": 6, "type": "channel", "subtype": "noteOff", "noteNumber": 69, "velocity": 64 }, { "deltaTime": 8, "channel": 6, "type": "channel", "subtype": "noteOff", "noteNumber": 66, "velocity": 64 }, { "deltaTime": 10114, "channel": 6, "type": "channel", "noteNumber": 66, "velocity": 80, "subtype": "noteOn" }, { "deltaTime": 30, "channel": 6, "type": "channel", "subtype": "noteOff", "noteNumber": 66, "velocity": 64 }, { "deltaTime": 2, "channel": 6, "type": "channel", "noteNumber": 69, "velocity": 59, "subtype": "noteOn" }, { "deltaTime": 20, "channel": 6, "type": "channel", "noteNumber": 66, "velocity": 80, "subtype": "noteOn" }, { "deltaTime": 10, "channel": 6, "type": "channel", "subtype": "noteOff", "noteNumber": 69, "velocity": 64 }, { "deltaTime": 26, "channel": 6, "type": "channel", "subtype": "noteOff", "noteNumber": 66, "velocity": 64 }, { "deltaTime": 2, "channel": 6, "type": "channel", "noteNumber": 69, "velocity": 62, "subtype": "noteOn" }, { "deltaTime": 20, "channel": 6, "type": "channel", "noteNumber": 66, "velocity": 80, "subtype": "noteOn" }, { "deltaTime": 36, "channel": 6, "type": "channel", "subtype": "noteOff", "noteNumber": 66, "velocity": 64 }, { "deltaTime": 36, "channel": 6, "type": "channel", "subtype": "noteOff", "noteNumber": 69, "velocity": 64 }, { "deltaTime": 144, "channel": 6, "type": "channel", "noteNumber": 73, "velocity": 80, "subtype": "noteOn" }, { "deltaTime": 20, "channel": 6, "type": "channel", "subtype": "noteOff", "noteNumber": 73, "velocity": 64 }, { "deltaTime": 18, "channel": 6, "type": "channel", "noteNumber": 69, "velocity": 29, "subtype": "noteOn" }, { "deltaTime": 14, "channel": 6, "type": "channel", "noteNumber": 73, "velocity": 79, "subtype": "noteOn" }, { "deltaTime": 48, "channel": 6, "type": "channel", "subtype": "noteOff", "noteNumber": 73, "velocity": 64 }, { "deltaTime": 20, "channel": 6, "type": "channel", "subtype": "noteOff", "noteNumber": 69, "velocity": 64 }, { "deltaTime": 80, "channel": 6, "type": "channel", "noteNumber": 71, "velocity": 80, "subtype": "noteOn" }, { "deltaTime": 38, "channel": 6, "type": "channel", "subtype": "noteOff", "noteNumber": 71, "velocity": 64 }, { "deltaTime": 2, "channel": 6, "type": "channel", "noteNumber": 74, "velocity": 80, "subtype": "noteOn" }, { "deltaTime": 20, "channel": 6, "type": "channel", "noteNumber": 71, "velocity": 80, "subtype": "noteOn" }, { "deltaTime": 16, "channel": 6, "type": "channel", "subtype": "noteOff", "noteNumber": 74, "velocity": 64 }, { "deltaTime": 20, "channel": 6, "type": "channel", "subtype": "noteOff", "noteNumber": 71, "velocity": 64 }, { "deltaTime": 102, "channel": 6, "type": "channel", "noteNumber": 66, "velocity": 80, "subtype": "noteOn" }, { "deltaTime": 20, "channel": 6, "type": "channel", "subtype": "noteOff", "noteNumber": 66, "velocity": 64 }, { "deltaTime": 2, "channel": 6, "type": "channel", "noteNumber": 69, "velocity": 68, "subtype": "noteOn" }, { "deltaTime": 36, "channel": 6, "type": "channel", "noteNumber": 66, "velocity": 80, "subtype": "noteOn" }, { "deltaTime": 6, "channel": 6, "type": "channel", "subtype": "noteOff", "noteNumber": 69, "velocity": 64 }, { "deltaTime": 22, "channel": 6, "type": "channel", "subtype": "noteOff", "noteNumber": 66, "velocity": 64 }, { "deltaTime": 4, "channel": 6, "type": "channel", "noteNumber": 69, "velocity": 53, "subtype": "noteOn" }, { "deltaTime": 22, "channel": 6, "type": "channel", "noteNumber": 66, "velocity": 80, "subtype": "noteOn" }, { "deltaTime": 4, "channel": 6, "type": "channel", "subtype": "noteOff", "noteNumber": 69, "velocity": 64 }, { "deltaTime": 30, "channel": 6, "type": "channel", "subtype": "noteOff", "noteNumber": 66, "velocity": 64 }, { "deltaTime": 2, "channel": 6, "type": "channel", "noteNumber": 69, "velocity": 60, "subtype": "noteOn" }, { "deltaTime": 30, "channel": 6, "type": "channel", "noteNumber": 66, "velocity": 80, "subtype": "noteOn" }, { "deltaTime": 12, "channel": 6, "type": "channel", "subtype": "noteOff", "noteNumber": 69, "velocity": 64 }, { "deltaTime": 24, "channel": 6, "type": "channel", "subtype": "noteOff", "noteNumber": 66, "velocity": 64 }, { "deltaTime": 6, "channel": 6, "type": "channel", "noteNumber": 69, "velocity": 58, "subtype": "noteOn" }, { "deltaTime": 24, "channel": 6, "type": "channel", "noteNumber": 66, "velocity": 75, "subtype": "noteOn" }, { "deltaTime": 14, "channel": 6, "type": "channel", "subtype": "noteOff", "noteNumber": 69, "velocity": 64 }, { "deltaTime": 20, "channel": 6, "type": "channel", "subtype": "noteOff", "noteNumber": 66, "velocity": 64 }, { "deltaTime": 4, "channel": 6, "type": "channel", "noteNumber": 69, "velocity": 67, "subtype": "noteOn" }, { "deltaTime": 30, "channel": 6, "type": "channel", "subtype": "noteOff", "noteNumber": 69, "velocity": 64 }, { "deltaTime": 2, "channel": 6, "type": "channel", "noteNumber": 66, "velocity": 80, "subtype": "noteOn" }, { "deltaTime": 24, "channel": 6, "type": "channel", "noteNumber": 69, "velocity": 68, "subtype": "noteOn" }, { "deltaTime": 6, "channel": 6, "type": "channel", "subtype": "noteOff", "noteNumber": 66, "velocity": 64 }, { "deltaTime": 26, "channel": 6, "type": "channel", "subtype": "noteOff", "noteNumber": 69, "velocity": 64 }, { "deltaTime": 8, "channel": 6, "type": "channel", "noteNumber": 66, "velocity": 43, "subtype": "noteOn" }, { "deltaTime": 58, "channel": 6, "type": "channel", "subtype": "noteOff", "noteNumber": 66, "velocity": 64 }, { "deltaTime": 120, "channel": 6, "type": "channel", "noteNumber": 66, "velocity": 77, "subtype": "noteOn" }, { "deltaTime": 18, "channel": 6, "type": "channel", "subtype": "noteOff", "noteNumber": 66, "velocity": 64 }, { "deltaTime": 18, "channel": 6, "type": "channel", "noteNumber": 62, "velocity": 53, "subtype": "noteOn" }, { "deltaTime": 16, "channel": 6, "type": "channel", "noteNumber": 66, "velocity": 80, "subtype": "noteOn" }, { "deltaTime": 6, "channel": 6, "type": "channel", "subtype": "noteOff", "noteNumber": 62, "velocity": 64 }, { "deltaTime": 28, "channel": 6, "type": "channel", "noteNumber": 62, "velocity": 66, "subtype": "noteOn" }, { "deltaTime": 2, "channel": 6, "type": "channel", "subtype": "noteOff", "noteNumber": 66, "velocity": 64 }, { "deltaTime": 18, "channel": 6, "type": "channel", "noteNumber": 66, "velocity": 53, "subtype": "noteOn" }, { "deltaTime": 10, "channel": 6, "type": "channel", "subtype": "noteOff", "noteNumber": 62, "velocity": 64 }, { "deltaTime": 14, "channel": 6, "type": "channel", "subtype": "noteOff", "noteNumber": 66, "velocity": 64 }, { "deltaTime": 92, "channel": 6, "type": "channel", "noteNumber": 64, "velocity": 67, "subtype": "noteOn" }, { "deltaTime": 28, "channel": 6, "type": "channel", "subtype": "noteOff", "noteNumber": 64, "velocity": 64 }, { "deltaTime": 8, "channel": 6, "type": "channel", "noteNumber": 67, "velocity": 63, "subtype": "noteOn" }, { "deltaTime": 22, "channel": 6, "type": "channel", "subtype": "noteOff", "noteNumber": 67, "velocity": 64 }, { "deltaTime": 0, "channel": 6, "type": "channel", "noteNumber": 64, "velocity": 74, "subtype": "noteOn" }, { "deltaTime": 26, "channel": 6, "type": "channel", "noteNumber": 67, "velocity": 72, "subtype": "noteOn" }, { "deltaTime": 6, "channel": 6, "type": "channel", "subtype": "noteOff", "noteNumber": 64, "velocity": 64 }, { "deltaTime": 28, "channel": 6, "type": "channel", "subtype": "noteOff", "noteNumber": 67, "velocity": 64 }, { "deltaTime": 6, "channel": 6, "type": "channel", "noteNumber": 64, "velocity": 49, "subtype": "noteOn" }, { "deltaTime": 14, "channel": 6, "type": "channel", "noteNumber": 67, "velocity": 80, "subtype": "noteOn" }, { "deltaTime": 46, "channel": 6, "type": "channel", "subtype": "noteOff", "noteNumber": 67, "velocity": 64 }, { "deltaTime": 22, "channel": 6, "type": "channel", "subtype": "noteOff", "noteNumber": 64, "velocity": 64 }, { "deltaTime": 74, "channel": 6, "type": "channel", "noteNumber": 62, "velocity": 80, "subtype": "noteOn" }, { "deltaTime": 4, "channel": 6, "type": "channel", "noteNumber": 66, "velocity": 55, "subtype": "noteOn" }, { "deltaTime": 18, "channel": 6, "type": "channel", "subtype": "noteOff", "noteNumber": 66, "velocity": 64 }, { "deltaTime": 10, "channel": 6, "type": "channel", "subtype": "noteOff", "noteNumber": 62, "velocity": 64 }, { "deltaTime": 64, "channel": 6, "type": "channel", "noteNumber": 67, "velocity": 53, "subtype": "noteOn" }, { "deltaTime": 18, "channel": 6, "type": "channel", "noteNumber": 64, "velocity": 70, "subtype": "noteOn" }, { "deltaTime": 6, "channel": 6, "type": "channel", "subtype": "noteOff", "noteNumber": 67, "velocity": 64 }, { "deltaTime": 26, "channel": 6, "type": "channel", "noteNumber": 67, "velocity": 77, "subtype": "noteOn" }, { "deltaTime": 4, "channel": 6, "type": "channel", "subtype": "noteOff", "noteNumber": 64, "velocity": 64 }, { "deltaTime": 26, "channel": 6, "type": "channel", "noteNumber": 64, "velocity": 80, "subtype": "noteOn" }, { "deltaTime": 4, "channel": 6, "type": "channel", "subtype": "noteOff", "noteNumber": 67, "velocity": 64 }, { "deltaTime": 30, "channel": 6, "type": "channel", "noteNumber": 67, "velocity": 58, "subtype": "noteOn" }, { "deltaTime": 8, "channel": 6, "type": "channel", "subtype": "noteOff", "noteNumber": 64, "velocity": 64 }, { "deltaTime": 20, "channel": 6, "type": "channel", "subtype": "noteOff", "noteNumber": 67, "velocity": 64 }, { "deltaTime": 56, "channel": 6, "type": "channel", "noteNumber": 73, "velocity": 80, "subtype": "noteOn" }, { "deltaTime": 8, "channel": 6, "type": "channel", "noteNumber": 69, "velocity": 43, "subtype": "noteOn" }, { "deltaTime": 6, "channel": 6, "type": "channel", "subtype": "noteOff", "noteNumber": 73, "velocity": 64 }, { "deltaTime": 30, "channel": 6, "type": "channel", "noteNumber": 73, "velocity": 77, "subtype": "noteOn" }, { "deltaTime": 48, "channel": 6, "type": "channel", "subtype": "noteOff", "noteNumber": 73, "velocity": 64 }, { "deltaTime": 20, "channel": 6, "type": "channel", "subtype": "noteOff", "noteNumber": 69, "velocity": 64 }, { "deltaTime": 110, "channel": 6, "type": "channel", "noteNumber": 69, "velocity": 70, "subtype": "noteOn" }, { "deltaTime": 44, "channel": 6, "type": "channel", "noteNumber": 66, "velocity": 80, "subtype": "noteOn" }, { "deltaTime": 2, "channel": 6, "type": "channel", "subtype": "noteOff", "noteNumber": 69, "velocity": 64 }, { "deltaTime": 26, "channel": 6, "type": "channel", "subtype": "noteOff", "noteNumber": 66, "velocity": 64 }, { "deltaTime": 0, "channel": 6, "type": "channel", "noteNumber": 69, "velocity": 71, "subtype": "noteOn" }, { "deltaTime": 34, "channel": 6, "type": "channel", "noteNumber": 66, "velocity": 78, "subtype": "noteOn" }, { "deltaTime": 28, "channel": 6, "type": "channel", "subtype": "noteOff", "noteNumber": 66, "velocity": 64 }, { "deltaTime": 32, "channel": 6, "type": "channel", "noteNumber": 66, "velocity": 80, "subtype": "noteOn" }, { "deltaTime": 8, "channel": 6, "type": "channel", "subtype": "noteOff", "noteNumber": 69, "velocity": 64 }, { "deltaTime": 22, "channel": 6, "type": "channel", "subtype": "noteOff", "noteNumber": 66, "velocity": 64 }, { "deltaTime": 2, "channel": 6, "type": "channel", "noteNumber": 69, "velocity": 60, "subtype": "noteOn" }, { "deltaTime": 30, "channel": 6, "type": "channel", "noteNumber": 66, "velocity": 80, "subtype": "noteOn" }, { "deltaTime": 4, "channel": 6, "type": "channel", "subtype": "noteOff", "noteNumber": 69, "velocity": 64 }, { "deltaTime": 26, "channel": 6, "type": "channel", "subtype": "noteOff", "noteNumber": 66, "velocity": 64 }, { "deltaTime": 2, "channel": 6, "type": "channel", "noteNumber": 69, "velocity": 62, "subtype": "noteOn" }, { "deltaTime": 36, "channel": 6, "type": "channel", "noteNumber": 66, "velocity": 59, "subtype": "noteOn" }, { "deltaTime": 8, "channel": 6, "type": "channel", "subtype": "noteOff", "noteNumber": 69, "velocity": 64 }, { "deltaTime": 28, "channel": 6, "type": "channel", "subtype": "noteOff", "noteNumber": 66, "velocity": 64 }, { "deltaTime": 0, "channel": 6, "type": "channel", "noteNumber": 69, "velocity": 65, "subtype": "noteOn" }, { "deltaTime": 36, "channel": 6, "type": "channel", "noteNumber": 66, "velocity": 75, "subtype": "noteOn" }, { "deltaTime": 4, "channel": 6, "type": "channel", "subtype": "noteOff", "noteNumber": 69, "velocity": 64 }, { "deltaTime": 24, "channel": 6, "type": "channel", "noteNumber": 69, "velocity": 69, "subtype": "noteOn" }, { "deltaTime": 4, "channel": 6, "type": "channel", "subtype": "noteOff", "noteNumber": 66, "velocity": 64 }, { "deltaTime": 38, "channel": 6, "type": "channel", "noteNumber": 66, "velocity": 80, "subtype": "noteOn" }, { "deltaTime": 2, "channel": 6, "type": "channel", "subtype": "noteOff", "noteNumber": 69, "velocity": 64 }, { "deltaTime": 24, "channel": 6, "type": "channel", "noteNumber": 69, "velocity": 60, "subtype": "noteOn" }, { "deltaTime": 4, "channel": 6, "type": "channel", "subtype": "noteOff", "noteNumber": 66, "velocity": 64 }, { "deltaTime": 26, "channel": 6, "type": "channel", "subtype": "noteOff", "noteNumber": 69, "velocity": 64 }, { "deltaTime": 4, "channel": 6, "type": "channel", "noteNumber": 66, "velocity": 61, "subtype": "noteOn" }, { "deltaTime": 26, "channel": 6, "type": "channel", "noteNumber": 69, "velocity": 59, "subtype": "noteOn" }, { "deltaTime": 46, "channel": 6, "type": "channel", "subtype": "noteOff", "noteNumber": 69, "velocity": 64 }, { "deltaTime": 8, "channel": 6, "type": "channel", "subtype": "noteOff", "noteNumber": 66, "velocity": 64 }, { "deltaTime": 152, "channel": 6, "type": "channel", "noteNumber": 67, "velocity": 68, "subtype": "noteOn" }, { "deltaTime": 22, "channel": 6, "type": "channel", "subtype": "noteOff", "noteNumber": 67, "velocity": 64 }, { "deltaTime": 6, "channel": 6, "type": "channel", "noteNumber": 64, "velocity": 74, "subtype": "noteOn" }, { "deltaTime": 22, "channel": 6, "type": "channel", "noteNumber": 67, "velocity": 80, "subtype": "noteOn" }, { "deltaTime": 12, "channel": 6, "type": "channel", "subtype": "noteOff", "noteNumber": 64, "velocity": 64 }, { "deltaTime": 26, "channel": 6, "type": "channel", "noteNumber": 64, "velocity": 77, "subtype": "noteOn" }, { "deltaTime": 4, "channel": 6, "type": "channel", "subtype": "noteOff", "noteNumber": 67, "velocity": 64 }, { "deltaTime": 24, "channel": 6, "type": "channel", "noteNumber": 67, "velocity": 74, "subtype": "noteOn" }, { "deltaTime": 2, "channel": 6, "type": "channel", "subtype": "noteOff", "noteNumber": 64, "velocity": 64 }, { "deltaTime": 18, "channel": 6, "type": "channel", "subtype": "noteOff", "noteNumber": 67, "velocity": 64 }, { "deltaTime": 50, "channel": 6, "type": "channel", "noteNumber": 67, "velocity": 79, "subtype": "noteOn" }, { "deltaTime": 28, "channel": 6, "type": "channel", "noteNumber": 64, "velocity": 68, "subtype": "noteOn" }, { "deltaTime": 6, "channel": 6, "type": "channel", "subtype": "noteOff", "noteNumber": 67, "velocity": 64 }, { "deltaTime": 24, "channel": 6, "type": "channel", "noteNumber": 67, "velocity": 80, "subtype": "noteOn" }, { "deltaTime": 4, "channel": 6, "type": "channel", "subtype": "noteOff", "noteNumber": 64, "velocity": 64 }, { "deltaTime": 28, "channel": 6, "type": "channel", "noteNumber": 64, "velocity": 66, "subtype": "noteOn" }, { "deltaTime": 8, "channel": 6, "type": "channel", "subtype": "noteOff", "noteNumber": 67, "velocity": 64 }, { "deltaTime": 18, "channel": 6, "type": "channel", "subtype": "noteOff", "noteNumber": 64, "velocity": 64 }, { "deltaTime": 56, "channel": 6, "type": "channel", "noteNumber": 64, "velocity": 59, "subtype": "noteOn" }, { "deltaTime": 30, "channel": 6, "type": "channel", "noteNumber": 67, "velocity": 80, "subtype": "noteOn" }, { "deltaTime": 4, "channel": 6, "type": "channel", "subtype": "noteOff", "noteNumber": 64, "velocity": 64 }, { "deltaTime": 24, "channel": 6, "type": "channel", "noteNumber": 64, "velocity": 79, "subtype": "noteOn" }, { "deltaTime": 12, "channel": 6, "type": "channel", "subtype": "noteOff", "noteNumber": 67, "velocity": 64 }, { "deltaTime": 28, "channel": 6, "type": "channel", "subtype": "noteOff", "noteNumber": 64, "velocity": 64 }, { "deltaTime": 122, "channel": 6, "type": "channel", "noteNumber": 66, "velocity": 80, "subtype": "noteOn" }, { "deltaTime": 22, "channel": 6, "type": "channel", "noteNumber": 69, "velocity": 80, "subtype": "noteOn" }, { "deltaTime": 2, "channel": 6, "type": "channel", "subtype": "noteOff", "noteNumber": 66, "velocity": 64 }, { "deltaTime": 24, "channel": 6, "type": "channel", "noteNumber": 66, "velocity": 80, "subtype": "noteOn" }, { "deltaTime": 24, "channel": 6, "type": "channel", "subtype": "noteOff", "noteNumber": 69, "velocity": 64 }, { "deltaTime": 14, "channel": 6, "type": "channel", "subtype": "noteOff", "noteNumber": 66, "velocity": 64 }, { "deltaTime": 62, "channel": 6, "type": "channel", "noteNumber": 67, "velocity": 46, "subtype": "noteOn" }, { "deltaTime": 26, "channel": 6, "type": "channel", "subtype": "noteOff", "noteNumber": 67, "velocity": 64 }, { "deltaTime": 4, "channel": 6, "type": "channel", "noteNumber": 64, "velocity": 74, "subtype": "noteOn" }, { "deltaTime": 28, "channel": 6, "type": "channel", "noteNumber": 67, "velocity": 45, "subtype": "noteOn" }, { "deltaTime": 4, "channel": 6, "type": "channel", "subtype": "noteOff", "noteNumber": 64, "velocity": 64 }, { "deltaTime": 34, "channel": 6, "type": "channel", "noteNumber": 64, "velocity": 80, "subtype": "noteOn" }, { "deltaTime": 28, "channel": 6, "type": "channel", "subtype": "noteOff", "noteNumber": 67, "velocity": 64 }, { "deltaTime": 12, "channel": 6, "type": "channel", "subtype": "noteOff", "noteNumber": 64, "velocity": 64 }, { "deltaTime": 96, "channel": 6, "type": "channel", "noteNumber": 61, "velocity": 80, "subtype": "noteOn" }, { "deltaTime": 32, "channel": 6, "type": "channel", "subtype": "noteOff", "noteNumber": 61, "velocity": 64 }, { "deltaTime": 2, "channel": 6, "type": "channel", "noteNumber": 64, "velocity": 79, "subtype": "noteOn" }, { "deltaTime": 20, "channel": 6, "type": "channel", "noteNumber": 61, "velocity": 80, "subtype": "noteOn" }, { "deltaTime": 28, "channel": 6, "type": "channel", "subtype": "noteOff", "noteNumber": 64, "velocity": 64 }, { "deltaTime": 12, "channel": 6, "type": "channel", "subtype": "noteOff", "noteNumber": 61, "velocity": 64 }, { "deltaTime": 68, "channel": 6, "type": "channel", "noteNumber": 62, "velocity": 77, "subtype": "noteOn" }, { "deltaTime": 30, "channel": 6, "type": "channel", "subtype": "noteOff", "noteNumber": 62, "velocity": 64 }, { "deltaTime": 0, "channel": 6, "type": "channel", "noteNumber": 59, "velocity": 80, "subtype": "noteOn" }, { "deltaTime": 32, "channel": 6, "type": "channel", "noteNumber": 62, "velocity": 75, "subtype": "noteOn" }, { "deltaTime": 4, "channel": 6, "type": "channel", "subtype": "noteOff", "noteNumber": 59, "velocity": 64 }, { "deltaTime": 32, "channel": 6, "type": "channel", "noteNumber": 59, "velocity": 22, "subtype": "noteOn" }, { "deltaTime": 22, "channel": 6, "type": "channel", "subtype": "noteOff", "noteNumber": 62, "velocity": 64 }, { "deltaTime": 6, "channel": 6, "type": "channel", "subtype": "noteOff", "noteNumber": 59, "velocity": 64 }, { "deltaTime": 62, "channel": 6, "type": "channel", "noteNumber": 61, "velocity": 74, "subtype": "noteOn" }, { "deltaTime": 16, "channel": 6, "type": "channel", "subtype": "noteOff", "noteNumber": 61, "velocity": 64 }, { "deltaTime": 8, "channel": 6, "type": "channel", "noteNumber": 57, "velocity": 80, "subtype": "noteOn" }, { "deltaTime": 28, "channel": 6, "type": "channel", "noteNumber": 61, "velocity": 60, "subtype": "noteOn" }, { "deltaTime": 26, "channel": 6, "type": "channel", "subtype": "noteOff", "noteNumber": 57, "velocity": 64 }, { "deltaTime": 18, "channel": 6, "type": "channel", "subtype": "noteOff", "noteNumber": 61, "velocity": 64 }, { "deltaTime": 120, "channel": 6, "type": "channel", "noteNumber": 62, "velocity": 80, "subtype": "noteOn" }, { "deltaTime": 10, "channel": 6, "type": "channel", "noteNumber": 66, "velocity": 80, "subtype": "noteOn" }, { "deltaTime": 22, "channel": 6, "type": "channel", "subtype": "noteOff", "noteNumber": 62, "velocity": 64 }, { "deltaTime": 10, "channel": 6, "type": "channel", "subtype": "noteOff", "noteNumber": 66, "velocity": 64 }, { "deltaTime": 20, "channel": 6, "type": "channel", "noteNumber": 62, "velocity": 80, "subtype": "noteOn" }, { "deltaTime": 28, "channel": 6, "type": "channel", "noteNumber": 66, "velocity": 26, "subtype": "noteOn" }, { "deltaTime": 12, "channel": 6, "type": "channel", "subtype": "noteOff", "noteNumber": 62, "velocity": 64 }, { "deltaTime": 10, "channel": 6, "type": "channel", "subtype": "noteOff", "noteNumber": 66, "velocity": 64 }, { "deltaTime": 8, "channel": 6, "type": "channel", "noteNumber": 62, "velocity": 58, "subtype": "noteOn" }, { "deltaTime": 26, "channel": 6, "type": "channel", "subtype": "noteOff", "noteNumber": 62, "velocity": 64 }, { "deltaTime": 0, "channel": 6, "type": "channel", "noteNumber": 66, "velocity": 66, "subtype": "noteOn" }, { "deltaTime": 20, "channel": 6, "type": "channel", "subtype": "noteOff", "noteNumber": 66, "velocity": 64 }, { "deltaTime": 10, "channel": 6, "type": "channel", "noteNumber": 62, "velocity": 80, "subtype": "noteOn" }, { "deltaTime": 28, "channel": 6, "type": "channel", "noteNumber": 66, "velocity": 50, "subtype": "noteOn" }, { "deltaTime": 8, "channel": 6, "type": "channel", "subtype": "noteOff", "noteNumber": 62, "velocity": 64 }, { "deltaTime": 16, "channel": 6, "type": "channel", "subtype": "noteOff", "noteNumber": 66, "velocity": 64 }, { "deltaTime": 8, "channel": 6, "type": "channel", "noteNumber": 62, "velocity": 66, "subtype": "noteOn" }, { "deltaTime": 22, "channel": 6, "type": "channel", "noteNumber": 66, "velocity": 79, "subtype": "noteOn" }, { "deltaTime": 4, "channel": 6, "type": "channel", "subtype": "noteOff", "noteNumber": 62, "velocity": 64 }, { "deltaTime": 34, "channel": 6, "type": "channel", "subtype": "noteOff", "noteNumber": 66, "velocity": 64 }, { "deltaTime": 0, "channel": 6, "type": "channel", "noteNumber": 62, "velocity": 70, "subtype": "noteOn" }, { "deltaTime": 28, "channel": 6, "type": "channel", "subtype": "noteOff", "noteNumber": 62, "velocity": 64 }, { "deltaTime": 0, "channel": 6, "type": "channel", "noteNumber": 66, "velocity": 76, "subtype": "noteOn" }, { "deltaTime": 22, "channel": 6, "type": "channel", "subtype": "noteOff", "noteNumber": 66, "velocity": 64 }, { "deltaTime": 2, "channel": 6, "type": "channel", "noteNumber": 62, "velocity": 80, "subtype": "noteOn" }, { "deltaTime": 42, "channel": 6, "type": "channel", "subtype": "noteOff", "noteNumber": 62, "velocity": 64 }, { "deltaTime": 142, "channel": 6, "type": "channel", "noteNumber": 64, "velocity": 72, "subtype": "noteOn" }, { "deltaTime": 6, "channel": 6, "type": "channel", "noteNumber": 67, "velocity": 61, "subtype": "noteOn" }, { "deltaTime": 38, "channel": 6, "type": "channel", "subtype": "noteOff", "noteNumber": 64, "velocity": 64 }, { "deltaTime": 12, "channel": 6, "type": "channel", "subtype": "noteOff", "noteNumber": 67, "velocity": 64 }, { "deltaTime": 140, "channel": 6, "type": "channel", "noteNumber": 66, "velocity": 80, "subtype": "noteOn" }, { "deltaTime": 30, "channel": 6, "type": "channel", "subtype": "noteOff", "noteNumber": 66, "velocity": 64 }, { "deltaTime": 2, "channel": 6, "type": "channel", "noteNumber": 69, "velocity": 69, "subtype": "noteOn" }, { "deltaTime": 32, "channel": 6, "type": "channel", "noteNumber": 66, "velocity": 80, "subtype": "noteOn" }, { "deltaTime": 12, "channel": 6, "type": "channel", "subtype": "noteOff", "noteNumber": 69, "velocity": 64 }, { "deltaTime": 22, "channel": 6, "type": "channel", "subtype": "noteOff", "noteNumber": 66, "velocity": 64 }, { "deltaTime": 4, "channel": 6, "type": "channel", "noteNumber": 69, "velocity": 57, "subtype": "noteOn" }, { "deltaTime": 28, "channel": 6, "type": "channel", "noteNumber": 66, "velocity": 55, "subtype": "noteOn" }, { "deltaTime": 26, "channel": 6, "type": "channel", "subtype": "noteOff", "noteNumber": 69, "velocity": 64 }, { "deltaTime": 28, "channel": 6, "type": "channel", "noteNumber": 69, "velocity": 63, "subtype": "noteOn" }, { "deltaTime": 50, "channel": 6, "type": "channel", "subtype": "noteOff", "noteNumber": 69, "velocity": 64 }, { "deltaTime": 2, "channel": 6, "type": "channel", "subtype": "noteOff", "noteNumber": 66, "velocity": 64 }, { "deltaTime": 70, "channel": 6, "type": "channel", "noteNumber": 64, "velocity": 73, "subtype": "noteOn" }, { "deltaTime": 2, "channel": 6, "type": "channel", "noteNumber": 67, "velocity": 50, "subtype": "noteOn" }, { "deltaTime": 22, "channel": 6, "type": "channel", "subtype": "noteOff", "noteNumber": 64, "velocity": 64 }, { "deltaTime": 10, "channel": 6, "type": "channel", "subtype": "noteOff", "noteNumber": 67, "velocity": 64 }, { "deltaTime": 74, "channel": 6, "type": "channel", "noteNumber": 69, "velocity": 54, "subtype": "noteOn" }, { "deltaTime": 18, "channel": 6, "type": "channel", "noteNumber": 66, "velocity": 80, "subtype": "noteOn" }, { "deltaTime": 6, "channel": 6, "type": "channel", "subtype": "noteOff", "noteNumber": 69, "velocity": 64 }, { "deltaTime": 26, "channel": 6, "type": "channel", "subtype": "noteOff", "noteNumber": 66, "velocity": 64 }, { "deltaTime": 2, "channel": 6, "type": "channel", "noteNumber": 69, "velocity": 68, "subtype": "noteOn" }, { "deltaTime": 34, "channel": 6, "type": "channel", "noteNumber": 66, "velocity": 80, "subtype": "noteOn" }, { "deltaTime": 8, "channel": 6, "type": "channel", "subtype": "noteOff", "noteNumber": 69, "velocity": 64 }, { "deltaTime": 14, "channel": 6, "type": "channel", "noteNumber": 69, "velocity": 52, "subtype": "noteOn" }, { "deltaTime": 8, "channel": 6, "type": "channel", "subtype": "noteOff", "noteNumber": 66, "velocity": 64 }, { "deltaTime": 28, "channel": 6, "type": "channel", "subtype": "noteOff", "noteNumber": 69, "velocity": 64 }, { "deltaTime": 52, "channel": 6, "type": "channel", "noteNumber": 73, "velocity": 80, "subtype": "noteOn" }, { "deltaTime": 20, "channel": 6, "type": "channel", "subtype": "noteOff", "noteNumber": 73, "velocity": 64 }, { "deltaTime": 2, "channel": 6, "type": "channel", "noteNumber": 69, "velocity": 66, "subtype": "noteOn" }, { "deltaTime": 32, "channel": 6, "type": "channel", "noteNumber": 73, "velocity": 68, "subtype": "noteOn" }, { "deltaTime": 64, "channel": 6, "type": "channel", "subtype": "noteOff", "noteNumber": 73, "velocity": 64 }, { "deltaTime": 16, "channel": 6, "type": "channel", "subtype": "noteOff", "noteNumber": 69, "velocity": 64 }, { "deltaTime": 84, "channel": 6, "type": "channel", "noteNumber": 64, "velocity": 70, "subtype": "noteOn" }, { "deltaTime": 26, "channel": 6, "type": "channel", "subtype": "noteOff", "noteNumber": 64, "velocity": 64 }, { "deltaTime": 6, "channel": 6, "type": "channel", "noteNumber": 67, "velocity": 57, "subtype": "noteOn" }, { "deltaTime": 28, "channel": 6, "type": "channel", "subtype": "noteOff", "noteNumber": 67, "velocity": 64 }, { "deltaTime": 0, "channel": 6, "type": "channel", "noteNumber": 64, "velocity": 79, "subtype": "noteOn" }, { "deltaTime": 28, "channel": 6, "type": "channel", "subtype": "noteOff", "noteNumber": 64, "velocity": 64 }, { "deltaTime": 4, "channel": 6, "type": "channel", "noteNumber": 67, "velocity": 61, "subtype": "noteOn" }, { "deltaTime": 30, "channel": 6, "type": "channel", "subtype": "noteOff", "noteNumber": 67, "velocity": 64 }, { "deltaTime": 28, "channel": 6, "type": "channel", "noteNumber": 67, "velocity": 59, "subtype": "noteOn" }, { "deltaTime": 46, "channel": 6, "type": "channel", "subtype": "noteOff", "noteNumber": 67, "velocity": 64 }, { "deltaTime": 2, "channel": 6, "type": "channel", "noteNumber": 64, "velocity": 31, "subtype": "noteOn" }, { "deltaTime": 24, "channel": 6, "type": "channel", "noteNumber": 67, "velocity": 66, "subtype": "noteOn" }, { "deltaTime": 2, "channel": 6, "type": "channel", "subtype": "noteOff", "noteNumber": 64, "velocity": 64 }, { "deltaTime": 36, "channel": 6, "type": "channel", "noteNumber": 64, "velocity": 63, "subtype": "noteOn" }, { "deltaTime": 4, "channel": 6, "type": "channel", "subtype": "noteOff", "noteNumber": 67, "velocity": 64 }, { "deltaTime": 26, "channel": 6, "type": "channel", "noteNumber": 67, "velocity": 65, "subtype": "noteOn" }, { "deltaTime": 6, "channel": 6, "type": "channel", "subtype": "noteOff", "noteNumber": 64, "velocity": 64 }, { "deltaTime": 32, "channel": 6, "type": "channel", "subtype": "noteOff", "noteNumber": 67, "velocity": 64 }, { "deltaTime": 0, "channel": 6, "type": "channel", "noteNumber": 64, "velocity": 55, "subtype": "noteOn" }, { "deltaTime": 28, "channel": 6, "type": "channel", "noteNumber": 67, "velocity": 72, "subtype": "noteOn" }, { "deltaTime": 4, "channel": 6, "type": "channel", "subtype": "noteOff", "noteNumber": 64, "velocity": 64 }, { "deltaTime": 34, "channel": 6, "type": "channel", "subtype": "noteOff", "noteNumber": 67, "velocity": 64 }, { "deltaTime": 2, "channel": 6, "type": "channel", "noteNumber": 64, "velocity": 39, "subtype": "noteOn" }, { "deltaTime": 26, "channel": 6, "type": "channel", "subtype": "noteOff", "noteNumber": 64, "velocity": 64 }, { "deltaTime": 0, "channel": 6, "type": "channel", "noteNumber": 67, "velocity": 60, "subtype": "noteOn" }, { "deltaTime": 40, "channel": 6, "type": "channel", "noteNumber": 64, "velocity": 57, "subtype": "noteOn" }, { "deltaTime": 2, "channel": 6, "type": "channel", "subtype": "noteOff", "noteNumber": 67, "velocity": 64 }, { "deltaTime": 30, "channel": 6, "type": "channel", "noteNumber": 67, "velocity": 74, "subtype": "noteOn" }, { "deltaTime": 8, "channel": 6, "type": "channel", "subtype": "noteOff", "noteNumber": 64, "velocity": 64 }, { "deltaTime": 26, "channel": 6, "type": "channel", "noteNumber": 64, "velocity": 68, "subtype": "noteOn" }, { "deltaTime": 8, "channel": 6, "type": "channel", "subtype": "noteOff", "noteNumber": 67, "velocity": 64 }, { "deltaTime": 38, "channel": 6, "type": "channel", "subtype": "noteOff", "noteNumber": 64, "velocity": 64 }, { "deltaTime": 0, "channel": 6, "type": "channel", "noteNumber": 67, "velocity": 41, "subtype": "noteOn" }, { "deltaTime": 28, "channel": 6, "type": "channel", "noteNumber": 64, "velocity": 58, "subtype": "noteOn" }, { "deltaTime": 2, "channel": 6, "type": "channel", "subtype": "noteOff", "noteNumber": 67, "velocity": 64 }, { "deltaTime": 36, "channel": 6, "type": "channel", "noteNumber": 67, "velocity": 52, "subtype": "noteOn" }, { "deltaTime": 2, "channel": 6, "type": "channel", "subtype": "noteOff", "noteNumber": 64, "velocity": 64 }, { "deltaTime": 26, "channel": 6, "type": "channel", "subtype": "noteOff", "noteNumber": 67, "velocity": 64 }, { "deltaTime": 8, "channel": 6, "type": "channel", "noteNumber": 64, "velocity": 45, "subtype": "noteOn" }, { "deltaTime": 32, "channel": 6, "type": "channel", "noteNumber": 67, "velocity": 55, "subtype": "noteOn" }, { "deltaTime": 2, "channel": 6, "type": "channel", "subtype": "noteOff", "noteNumber": 64, "velocity": 64 }, { "deltaTime": 26, "channel": 6, "type": "channel", "noteNumber": 64, "velocity": 67, "subtype": "noteOn" }, { "deltaTime": 6, "channel": 6, "type": "channel", "subtype": "noteOff", "noteNumber": 67, "velocity": 64 }, { "deltaTime": 42, "channel": 6, "type": "channel", "subtype": "noteOff", "noteNumber": 64, "velocity": 64 }, { "deltaTime": 0, "channel": 6, "type": "channel", "noteNumber": 67, "velocity": 53, "subtype": "noteOn" }, { "deltaTime": 28, "channel": 6, "type": "channel", "noteNumber": 64, "velocity": 42, "subtype": "noteOn" }, { "deltaTime": 2, "channel": 6, "type": "channel", "subtype": "noteOff", "noteNumber": 67, "velocity": 64 }, { "deltaTime": 30, "channel": 6, "type": "channel", "noteNumber": 67, "velocity": 63, "subtype": "noteOn" }, { "deltaTime": 12, "channel": 6, "type": "channel", "subtype": "noteOff", "noteNumber": 64, "velocity": 64 }, { "deltaTime": 34, "channel": 6, "type": "channel", "subtype": "noteOff", "noteNumber": 67, "velocity": 64 }, { "deltaTime": 38, "channel": 6, "type": "channel", "noteNumber": 67, "velocity": 46, "subtype": "noteOn" }, { "deltaTime": 34, "channel": 6, "type": "channel", "noteNumber": 64, "velocity": 49, "subtype": "noteOn" }, { "deltaTime": 14, "channel": 6, "type": "channel", "subtype": "noteOff", "noteNumber": 67, "velocity": 64 }, { "deltaTime": 26, "channel": 6, "type": "channel", "subtype": "noteOff", "noteNumber": 64, "velocity": 64 }, { "deltaTime": 0, "channel": 6, "type": "channel", "noteNumber": 67, "velocity": 47, "subtype": "noteOn" }, { "deltaTime": 34, "channel": 6, "type": "channel", "noteNumber": 64, "velocity": 59, "subtype": "noteOn" }, { "deltaTime": 6, "channel": 6, "type": "channel", "subtype": "noteOff", "noteNumber": 67, "velocity": 64 }, { "deltaTime": 28, "channel": 6, "type": "channel", "noteNumber": 67, "velocity": 58, "subtype": "noteOn" }, { "deltaTime": 8, "channel": 6, "type": "channel", "subtype": "noteOff", "noteNumber": 64, "velocity": 64 }, { "deltaTime": 26, "channel": 6, "type": "channel", "noteNumber": 64, "velocity": 71, "subtype": "noteOn" }, { "deltaTime": 10, "channel": 6, "type": "channel", "subtype": "noteOff", "noteNumber": 67, "velocity": 64 }, { "deltaTime": 32, "channel": 6, "type": "channel", "noteNumber": 67, "velocity": 68, "subtype": "noteOn" }, { "deltaTime": 6, "channel": 6, "type": "channel", "subtype": "noteOff", "noteNumber": 64, "velocity": 64 }, { "deltaTime": 36, "channel": 6, "type": "channel", "subtype": "noteOff", "noteNumber": 67, "velocity": 64 }, { "deltaTime": 30, "channel": 6, "type": "channel", "noteNumber": 67, "velocity": 60, "subtype": "noteOn" }, { "deltaTime": 42, "channel": 6, "type": "channel", "noteNumber": 64, "velocity": 42, "subtype": "noteOn" }, { "deltaTime": 2, "channel": 6, "type": "channel", "subtype": "noteOff", "noteNumber": 67, "velocity": 64 }, { "deltaTime": 34, "channel": 6, "type": "channel", "noteNumber": 67, "velocity": 49, "subtype": "noteOn" }, { "deltaTime": 6, "channel": 6, "type": "channel", "subtype": "noteOff", "noteNumber": 64, "velocity": 64 }, { "deltaTime": 32, "channel": 6, "type": "channel", "subtype": "noteOff", "noteNumber": 67, "velocity": 64 }, { "deltaTime": 0, "channel": 6, "type": "channel", "noteNumber": 64, "velocity": 57, "subtype": "noteOn" }, { "deltaTime": 22, "channel": 6, "type": "channel", "noteNumber": 67, "velocity": 80, "subtype": "noteOn" }, { "deltaTime": 20, "channel": 6, "type": "channel", "subtype": "noteOff", "noteNumber": 67, "velocity": 64 }, { "deltaTime": 10, "channel": 6, "type": "channel", "subtype": "noteOff", "noteNumber": 64, "velocity": 64 }, { "deltaTime": 9572, "channel": 6, "type": "channel", "noteNumber": 62, "velocity": 80, "subtype": "noteOn" }, { "deltaTime": 42, "channel": 6, "type": "channel", "subtype": "noteOff", "noteNumber": 62, "velocity": 64 }, { "deltaTime": 50, "channel": 6, "type": "channel", "noteNumber": 64, "velocity": 80, "subtype": "noteOn" }, { "deltaTime": 40, "channel": 6, "type": "channel", "subtype": "noteOff", "noteNumber": 64, "velocity": 64 }, { "deltaTime": 56, "channel": 6, "type": "channel", "noteNumber": 66, "velocity": 80, "subtype": "noteOn" }, { "deltaTime": 36, "channel": 6, "type": "channel", "subtype": "noteOff", "noteNumber": 66, "velocity": 64 }, { "deltaTime": 162, "channel": 6, "type": "channel", "noteNumber": 62, "velocity": 80, "subtype": "noteOn" }, { "deltaTime": 40, "channel": 6, "type": "channel", "subtype": "noteOff", "noteNumber": 62, "velocity": 64 }, { "deltaTime": 234, "channel": 6, "type": "channel", "noteNumber": 62, "velocity": 80, "subtype": "noteOn" }, { "deltaTime": 42, "channel": 6, "type": "channel", "subtype": "noteOff", "noteNumber": 62, "velocity": 64 }, { "deltaTime": 146, "channel": 6, "type": "channel", "noteNumber": 64, "velocity": 80, "subtype": "noteOn" }, { "deltaTime": 34, "channel": 6, "type": "channel", "subtype": "noteOff", "noteNumber": 64, "velocity": 64 }, { "deltaTime": 64, "channel": 6, "type": "channel", "noteNumber": 66, "velocity": 80, "subtype": "noteOn" }, { "deltaTime": 34, "channel": 6, "type": "channel", "subtype": "noteOff", "noteNumber": 66, "velocity": 64 }, { "deltaTime": 52, "channel": 6, "type": "channel", "noteNumber": 66, "velocity": 80, "subtype": "noteOn" }, { "deltaTime": 38, "channel": 6, "type": "channel", "subtype": "noteOff", "noteNumber": 66, "velocity": 64 }, { "deltaTime": 66, "channel": 6, "type": "channel", "noteNumber": 62, "velocity": 80, "subtype": "noteOn" }, { "deltaTime": 52, "channel": 6, "type": "channel", "subtype": "noteOff", "noteNumber": 62, "velocity": 64 }, { "deltaTime": 1886, "channel": 6, "type": "channel", "noteNumber": 62, "velocity": 80, "subtype": "noteOn" }, { "deltaTime": 38, "channel": 6, "type": "channel", "subtype": "noteOff", "noteNumber": 62, "velocity": 64 }, { "deltaTime": 52, "channel": 6, "type": "channel", "noteNumber": 64, "velocity": 80, "subtype": "noteOn" }, { "deltaTime": 42, "channel": 6, "type": "channel", "subtype": "noteOff", "noteNumber": 64, "velocity": 64 }, { "deltaTime": 56, "channel": 6, "type": "channel", "noteNumber": 66, "velocity": 80, "subtype": "noteOn" }, { "deltaTime": 40, "channel": 6, "type": "channel", "subtype": "noteOff", "noteNumber": 66, "velocity": 64 }, { "deltaTime": 146, "channel": 6, "type": "channel", "noteNumber": 62, "velocity": 80, "subtype": "noteOn" }, { "deltaTime": 50, "channel": 6, "type": "channel", "subtype": "noteOff", "noteNumber": 62, "velocity": 64 }, { "deltaTime": 150, "channel": 6, "type": "channel", "noteNumber": 74, "velocity": 80, "subtype": "noteOn" }, { "deltaTime": 34, "channel": 6, "type": "channel", "subtype": "noteOff", "noteNumber": 74, "velocity": 64 }, { "deltaTime": 48, "channel": 6, "type": "channel", "noteNumber": 74, "velocity": 80, "subtype": "noteOn" }, { "deltaTime": 38, "channel": 6, "type": "channel", "subtype": "noteOff", "noteNumber": 74, "velocity": 64 }, { "deltaTime": 176, "channel": 6, "type": "channel", "noteNumber": 64, "velocity": 80, "subtype": "noteOn" }, { "deltaTime": 34, "channel": 6, "type": "channel", "subtype": "noteOff", "noteNumber": 64, "velocity": 64 }, { "deltaTime": 60, "channel": 6, "type": "channel", "noteNumber": 66, "velocity": 80, "subtype": "noteOn" }, { "deltaTime": 30, "channel": 6, "type": "channel", "subtype": "noteOff", "noteNumber": 66, "velocity": 64 }, { "deltaTime": 48, "channel": 6, "type": "channel", "noteNumber": 66, "velocity": 80, "subtype": "noteOn" }, { "deltaTime": 34, "channel": 6, "type": "channel", "subtype": "noteOff", "noteNumber": 66, "velocity": 64 }, { "deltaTime": 74, "channel": 6, "type": "channel", "noteNumber": 60, "velocity": 54, "subtype": "noteOn" }, { "deltaTime": 2, "channel": 6, "type": "channel", "noteNumber": 62, "velocity": 54, "subtype": "noteOn" }, { "deltaTime": 24, "channel": 6, "type": "channel", "subtype": "noteOff", "noteNumber": 60, "velocity": 64 }, { "deltaTime": 2, "channel": 6, "type": "channel", "subtype": "noteOff", "noteNumber": 62, "velocity": 64 }, { "deltaTime": 1890, "channel": 6, "type": "channel", "noteNumber": 62, "velocity": 80, "subtype": "noteOn" }, { "deltaTime": 38, "channel": 6, "type": "channel", "subtype": "noteOff", "noteNumber": 62, "velocity": 64 }, { "deltaTime": 52, "channel": 6, "type": "channel", "noteNumber": 64, "velocity": 80, "subtype": "noteOn" }, { "deltaTime": 38, "channel": 6, "type": "channel", "subtype": "noteOff", "noteNumber": 64, "velocity": 64 }, { "deltaTime": 60, "channel": 6, "type": "channel", "noteNumber": 66, "velocity": 80, "subtype": "noteOn" }, { "deltaTime": 36, "channel": 6, "type": "channel", "subtype": "noteOff", "noteNumber": 66, "velocity": 64 }, { "deltaTime": 156, "channel": 6, "type": "channel", "noteNumber": 62, "velocity": 80, "subtype": "noteOn" }, { "deltaTime": 44, "channel": 6, "type": "channel", "subtype": "noteOff", "noteNumber": 62, "velocity": 64 }, { "deltaTime": 142, "channel": 6, "type": "channel", "noteNumber": 74, "velocity": 80, "subtype": "noteOn" }, { "deltaTime": 38, "channel": 6, "type": "channel", "subtype": "noteOff", "noteNumber": 74, "velocity": 64 }, { "deltaTime": 54, "channel": 6, "type": "channel", "noteNumber": 74, "velocity": 80, "subtype": "noteOn" }, { "deltaTime": 40, "channel": 6, "type": "channel", "subtype": "noteOff", "noteNumber": 74, "velocity": 64 }, { "deltaTime": 174, "channel": 6, "type": "channel", "noteNumber": 64, "velocity": 80, "subtype": "noteOn" }, { "deltaTime": 40, "channel": 6, "type": "channel", "subtype": "noteOff", "noteNumber": 64, "velocity": 64 }, { "deltaTime": 50, "channel": 6, "type": "channel", "noteNumber": 66, "velocity": 80, "subtype": "noteOn" }, { "deltaTime": 30, "channel": 6, "type": "channel", "subtype": "noteOff", "noteNumber": 66, "velocity": 64 }, { "deltaTime": 52, "channel": 6, "type": "channel", "noteNumber": 66, "velocity": 80, "subtype": "noteOn" }, { "deltaTime": 42, "channel": 6, "type": "channel", "subtype": "noteOff", "noteNumber": 66, "velocity": 64 }, { "deltaTime": 52, "channel": 6, "type": "channel", "noteNumber": 62, "velocity": 80, "subtype": "noteOn" }, { "deltaTime": 52, "channel": 6, "type": "channel", "subtype": "noteOff", "noteNumber": 62, "velocity": 64 }, { "deltaTime": 2454, "channel": 6, "type": "channel", "noteNumber": 57, "velocity": 80, "subtype": "noteOn" }, { "deltaTime": 146, "channel": 6, "type": "channel", "subtype": "noteOff", "noteNumber": 57, "velocity": 64 }, { "deltaTime": 40, "channel": 6, "type": "channel", "noteNumber": 57, "velocity": 80, "subtype": "noteOn" }, { "deltaTime": 196, "channel": 6, "type": "channel", "noteNumber": 59, "velocity": 80, "subtype": "noteOn" }, { "deltaTime": 24, "channel": 6, "type": "channel", "subtype": "noteOff", "noteNumber": 57, "velocity": 64 }, { "deltaTime": 164, "channel": 6, "type": "channel", "noteNumber": 61, "velocity": 80, "subtype": "noteOn" }, { "deltaTime": 30, "channel": 6, "type": "channel", "subtype": "noteOff", "noteNumber": 59, "velocity": 64 }, { "deltaTime": 68, "channel": 6, "type": "channel", "subtype": "noteOff", "noteNumber": 61, "velocity": 64 }, { "deltaTime": 92, "channel": 6, "type": "channel", "noteNumber": 62, "velocity": 80, "subtype": "noteOn" }, { "deltaTime": 44, "channel": 6, "type": "channel", "subtype": "noteOff", "noteNumber": 62, "velocity": 64 }, { "deltaTime": 2, "channel": 6, "type": "channel", "noteNumber": 66, "velocity": 68, "subtype": "noteOn" }, { "deltaTime": 24, "channel": 6, "type": "channel", "noteNumber": 62, "velocity": 80, "subtype": "noteOn" }, { "deltaTime": 2, "channel": 6, "type": "channel", "subtype": "noteOff", "noteNumber": 66, "velocity": 64 }, { "deltaTime": 38, "channel": 6, "type": "channel", "noteNumber": 66, "velocity": 67, "subtype": "noteOn" }, { "deltaTime": 4, "channel": 6, "type": "channel", "subtype": "noteOff", "noteNumber": 62, "velocity": 64 }, { "deltaTime": 32, "channel": 6, "type": "channel", "noteNumber": 62, "velocity": 53, "subtype": "noteOn" }, { "deltaTime": 6, "channel": 6, "type": "channel", "subtype": "noteOff", "noteNumber": 66, "velocity": 64 }, { "deltaTime": 34, "channel": 6, "type": "channel", "subtype": "noteOff", "noteNumber": 62, "velocity": 64 }, { "deltaTime": 4, "channel": 6, "type": "channel", "noteNumber": 66, "velocity": 68, "subtype": "noteOn" }, { "deltaTime": 22, "channel": 6, "type": "channel", "noteNumber": 62, "velocity": 57, "subtype": "noteOn" }, { "deltaTime": 16, "channel": 6, "type": "channel", "subtype": "noteOff", "noteNumber": 66, "velocity": 64 }, { "deltaTime": 90, "channel": 6, "type": "channel", "subtype": "noteOff", "noteNumber": 62, "velocity": 64 }, { "deltaTime": 74, "channel": 6, "type": "channel", "noteNumber": 69, "velocity": 50, "subtype": "noteOn" }, { "deltaTime": 28, "channel": 6, "type": "channel", "noteNumber": 66, "velocity": 80, "subtype": "noteOn" }, { "deltaTime": 4, "channel": 6, "type": "channel", "subtype": "noteOff", "noteNumber": 69, "velocity": 64 }, { "deltaTime": 28, "channel": 6, "type": "channel", "subtype": "noteOff", "noteNumber": 66, "velocity": 64 }, { "deltaTime": 6, "channel": 6, "type": "channel", "noteNumber": 69, "velocity": 71, "subtype": "noteOn" }, { "deltaTime": 28, "channel": 6, "type": "channel", "noteNumber": 66, "velocity": 80, "subtype": "noteOn" }, { "deltaTime": 6, "channel": 6, "type": "channel", "subtype": "noteOff", "noteNumber": 69, "velocity": 64 }, { "deltaTime": 30, "channel": 6, "type": "channel", "subtype": "noteOff", "noteNumber": 66, "velocity": 64 }, { "deltaTime": 2, "channel": 6, "type": "channel", "noteNumber": 69, "velocity": 58, "subtype": "noteOn" }, { "deltaTime": 24, "channel": 6, "type": "channel", "noteNumber": 66, "velocity": 78, "subtype": "noteOn" }, { "deltaTime": 6, "channel": 6, "type": "channel", "subtype": "noteOff", "noteNumber": 69, "velocity": 64 }, { "deltaTime": 32, "channel": 6, "type": "channel", "subtype": "noteOff", "noteNumber": 66, "velocity": 64 }, { "deltaTime": 2, "channel": 6, "type": "channel", "noteNumber": 69, "velocity": 57, "subtype": "noteOn" }, { "deltaTime": 30, "channel": 6, "type": "channel", "noteNumber": 66, "velocity": 73, "subtype": "noteOn" }, { "deltaTime": 22, "channel": 6, "type": "channel", "subtype": "noteOff", "noteNumber": 69, "velocity": 64 }, { "deltaTime": 18, "channel": 6, "type": "channel", "subtype": "noteOff", "noteNumber": 66, "velocity": 64 }, { "deltaTime": 0, "type": "meta", "subtype": "endOfTrack" }], [{ "deltaTime": 0, "type": "meta", "subtype": "unknown", "data": "\u0000" }, { "deltaTime": 0, "type": "meta", "subtype": "trackName", "text": "brass......         " }, { "deltaTime": 0, "channel": 7, "type": "channel", "subtype": "programChange", "programNumber": 61 }, { "deltaTime": 0, "channel": 7, "type": "channel", "subtype": "controller", "controllerType": 10, "value": 64 }, { "deltaTime": 0, "channel": 7, "type": "channel", "subtype": "controller", "controllerType": 0, "value": 0 }, { "deltaTime": 0, "channel": 7, "type": "channel", "subtype": "controller", "controllerType": 93, "value": 0 }, { "deltaTime": 0, "channel": 7, "type": "channel", "subtype": "controller", "controllerType": 91, "value": 60 }, { "deltaTime": 22272, "channel": 7, "type": "channel", "noteNumber": 66, "velocity": 90, "subtype": "noteOn" }, { "deltaTime": 2, "channel": 7, "type": "channel", "noteNumber": 71, "velocity": 94, "subtype": "noteOn" }, { "deltaTime": 10, "channel": 7, "type": "channel", "noteNumber": 62, "velocity": 87, "subtype": "noteOn" }, { "deltaTime": 1390, "channel": 7, "type": "channel", "subtype": "noteOff", "noteNumber": 71, "velocity": 64 }, { "deltaTime": 10, "channel": 7, "type": "channel", "subtype": "noteOff", "noteNumber": 62, "velocity": 64 }, { "deltaTime": 4, "channel": 7, "type": "channel", "subtype": "noteOff", "noteNumber": 66, "velocity": 64 }, { "deltaTime": 114, "channel": 7, "type": "channel", "noteNumber": 66, "velocity": 69, "subtype": "noteOn" }, { "deltaTime": 22, "channel": 7, "type": "channel", "noteNumber": 69, "velocity": 67, "subtype": "noteOn" }, { "deltaTime": 6, "channel": 7, "type": "channel", "noteNumber": 62, "velocity": 61, "subtype": "noteOn" }, { "deltaTime": 1366, "channel": 7, "type": "channel", "subtype": "noteOff", "noteNumber": 66, "velocity": 64 }, { "deltaTime": 2, "channel": 7, "type": "channel", "subtype": "noteOff", "noteNumber": 62, "velocity": 64 }, { "deltaTime": 4, "channel": 7, "type": "channel", "subtype": "noteOff", "noteNumber": 69, "velocity": 64 }, { "deltaTime": 144, "channel": 7, "type": "channel", "noteNumber": 71, "velocity": 91, "subtype": "noteOn" }, { "deltaTime": 6, "channel": 7, "type": "channel", "noteNumber": 66, "velocity": 99, "subtype": "noteOn" }, { "deltaTime": 2, "channel": 7, "type": "channel", "noteNumber": 62, "velocity": 83, "subtype": "noteOn" }, { "deltaTime": 1398, "channel": 7, "type": "channel", "subtype": "noteOff", "noteNumber": 71, "velocity": 64 }, { "deltaTime": 2, "channel": 7, "type": "channel", "subtype": "noteOff", "noteNumber": 62, "velocity": 64 }, { "deltaTime": 6, "channel": 7, "type": "channel", "subtype": "noteOff", "noteNumber": 66, "velocity": 64 }, { "deltaTime": 142, "channel": 7, "type": "channel", "noteNumber": 66, "velocity": 81, "subtype": "noteOn" }, { "deltaTime": 2, "channel": 7, "type": "channel", "noteNumber": 62, "velocity": 67, "subtype": "noteOn" }, { "deltaTime": 20, "channel": 7, "type": "channel", "noteNumber": 69, "velocity": 64, "subtype": "noteOn" }, { "deltaTime": 1320, "channel": 7, "type": "channel", "subtype": "noteOff", "noteNumber": 62, "velocity": 64 }, { "deltaTime": 2, "channel": 7, "type": "channel", "subtype": "noteOff", "noteNumber": 66, "velocity": 64 }, { "deltaTime": 10, "channel": 7, "type": "channel", "subtype": "noteOff", "noteNumber": 69, "velocity": 64 }, { "deltaTime": 280, "channel": 7, "type": "channel", "noteNumber": 69, "velocity": 127, "subtype": "noteOn" }, { "deltaTime": 0, "channel": 7, "type": "channel", "noteNumber": 73, "velocity": 127, "subtype": "noteOn" }, { "deltaTime": 2, "channel": 7, "type": "channel", "noteNumber": 81, "velocity": 127, "subtype": "noteOn" }, { "deltaTime": 4, "channel": 7, "type": "channel", "noteNumber": 76, "velocity": 127, "subtype": "noteOn" }, { "deltaTime": 52, "channel": 7, "type": "channel", "subtype": "noteOff", "noteNumber": 73, "velocity": 64 }, { "deltaTime": 6, "channel": 7, "type": "channel", "subtype": "noteOff", "noteNumber": 69, "velocity": 64 }, { "deltaTime": 10, "channel": 7, "type": "channel", "subtype": "noteOff", "noteNumber": 76, "velocity": 64 }, { "deltaTime": 4, "channel": 7, "type": "channel", "subtype": "noteOff", "noteNumber": 81, "velocity": 64 }, { "deltaTime": 88, "channel": 7, "type": "channel", "noteNumber": 69, "velocity": 124, "subtype": "noteOn" }, { "deltaTime": 0, "channel": 7, "type": "channel", "noteNumber": 76, "velocity": 127, "subtype": "noteOn" }, { "deltaTime": 2, "channel": 7, "type": "channel", "noteNumber": 73, "velocity": 127, "subtype": "noteOn" }, { "deltaTime": 8, "channel": 7, "type": "channel", "noteNumber": 81, "velocity": 125, "subtype": "noteOn" }, { "deltaTime": 44, "channel": 7, "type": "channel", "subtype": "noteOff", "noteNumber": 69, "velocity": 64 }, { "deltaTime": 2, "channel": 7, "type": "channel", "subtype": "noteOff", "noteNumber": 73, "velocity": 64 }, { "deltaTime": 10, "channel": 7, "type": "channel", "subtype": "noteOff", "noteNumber": 81, "velocity": 64 }, { "deltaTime": 10, "channel": 7, "type": "channel", "subtype": "noteOff", "noteNumber": 76, "velocity": 64 }, { "deltaTime": 36, "channel": 7, "type": "channel", "noteNumber": 76, "velocity": 127, "subtype": "noteOn" }, { "deltaTime": 2, "channel": 7, "type": "channel", "noteNumber": 73, "velocity": 127, "subtype": "noteOn" }, { "deltaTime": 0, "channel": 7, "type": "channel", "noteNumber": 69, "velocity": 127, "subtype": "noteOn" }, { "deltaTime": 8, "channel": 7, "type": "channel", "noteNumber": 81, "velocity": 127, "subtype": "noteOn" }, { "deltaTime": 30, "channel": 7, "type": "channel", "subtype": "noteOff", "noteNumber": 69, "velocity": 64 }, { "deltaTime": 4, "channel": 7, "type": "channel", "subtype": "noteOff", "noteNumber": 73, "velocity": 64 }, { "deltaTime": 6, "channel": 7, "type": "channel", "subtype": "noteOff", "noteNumber": 81, "velocity": 64 }, { "deltaTime": 8, "channel": 7, "type": "channel", "subtype": "noteOff", "noteNumber": 76, "velocity": 64 }, { "deltaTime": 406, "channel": 7, "type": "channel", "noteNumber": 73, "velocity": 127, "subtype": "noteOn" }, { "deltaTime": 2, "channel": 7, "type": "channel", "noteNumber": 69, "velocity": 127, "subtype": "noteOn" }, { "deltaTime": 2, "channel": 7, "type": "channel", "noteNumber": 76, "velocity": 127, "subtype": "noteOn" }, { "deltaTime": 4, "channel": 7, "type": "channel", "noteNumber": 81, "velocity": 127, "subtype": "noteOn" }, { "deltaTime": 66, "channel": 7, "type": "channel", "subtype": "noteOff", "noteNumber": 69, "velocity": 64 }, { "deltaTime": 4, "channel": 7, "type": "channel", "subtype": "noteOff", "noteNumber": 73, "velocity": 64 }, { "deltaTime": 20, "channel": 7, "type": "channel", "subtype": "noteOff", "noteNumber": 76, "velocity": 64 }, { "deltaTime": 2, "channel": 7, "type": "channel", "subtype": "noteOff", "noteNumber": 81, "velocity": 64 }, { "deltaTime": 86, "channel": 7, "type": "channel", "noteNumber": 69, "velocity": 127, "subtype": "noteOn" }, { "deltaTime": 0, "channel": 7, "type": "channel", "noteNumber": 73, "velocity": 127, "subtype": "noteOn" }, { "deltaTime": 4, "channel": 7, "type": "channel", "noteNumber": 76, "velocity": 127, "subtype": "noteOn" }, { "deltaTime": 6, "channel": 7, "type": "channel", "noteNumber": 81, "velocity": 125, "subtype": "noteOn" }, { "deltaTime": 44, "channel": 7, "type": "channel", "subtype": "noteOff", "noteNumber": 69, "velocity": 64 }, { "deltaTime": 10, "channel": 7, "type": "channel", "subtype": "noteOff", "noteNumber": 73, "velocity": 64 }, { "deltaTime": 14, "channel": 7, "type": "channel", "subtype": "noteOff", "noteNumber": 76, "velocity": 64 }, { "deltaTime": 2, "channel": 7, "type": "channel", "subtype": "noteOff", "noteNumber": 81, "velocity": 64 }, { "deltaTime": 34, "channel": 7, "type": "channel", "noteNumber": 69, "velocity": 127, "subtype": "noteOn" }, { "deltaTime": 2, "channel": 7, "type": "channel", "noteNumber": 73, "velocity": 127, "subtype": "noteOn" }, { "deltaTime": 2, "channel": 7, "type": "channel", "noteNumber": 81, "velocity": 127, "subtype": "noteOn" }, { "deltaTime": 2, "channel": 7, "type": "channel", "noteNumber": 76, "velocity": 127, "subtype": "noteOn" }, { "deltaTime": 46, "channel": 7, "type": "channel", "subtype": "noteOff", "noteNumber": 69, "velocity": 64 }, { "deltaTime": 6, "channel": 7, "type": "channel", "subtype": "noteOff", "noteNumber": 73, "velocity": 64 }, { "deltaTime": 12, "channel": 7, "type": "channel", "subtype": "noteOff", "noteNumber": 76, "velocity": 64 }, { "deltaTime": 12, "channel": 7, "type": "channel", "subtype": "noteOff", "noteNumber": 81, "velocity": 64 }, { "deltaTime": 342, "channel": 7, "type": "channel", "noteNumber": 73, "velocity": 126, "subtype": "noteOn" }, { "deltaTime": 4, "channel": 7, "type": "channel", "noteNumber": 69, "velocity": 118, "subtype": "noteOn" }, { "deltaTime": 2, "channel": 7, "type": "channel", "noteNumber": 76, "velocity": 127, "subtype": "noteOn" }, { "deltaTime": 8, "channel": 7, "type": "channel", "noteNumber": 81, "velocity": 127, "subtype": "noteOn" }, { "deltaTime": 1452, "channel": 7, "type": "channel", "subtype": "noteOff", "noteNumber": 73, "velocity": 64 }, { "deltaTime": 2, "channel": 7, "type": "channel", "subtype": "noteOff", "noteNumber": 81, "velocity": 64 }, { "deltaTime": 4, "channel": 7, "type": "channel", "subtype": "noteOff", "noteNumber": 69, "velocity": 64 }, { "deltaTime": 4, "channel": 7, "type": "channel", "subtype": "noteOff", "noteNumber": 76, "velocity": 64 }, { "deltaTime": 29196, "channel": 7, "type": "channel", "noteNumber": 66, "velocity": 101, "subtype": "noteOn" }, { "deltaTime": 14, "channel": 7, "type": "channel", "noteNumber": 71, "velocity": 104, "subtype": "noteOn" }, { "deltaTime": 4, "channel": 7, "type": "channel", "noteNumber": 62, "velocity": 98, "subtype": "noteOn" }, { "deltaTime": 1408, "channel": 7, "type": "channel", "subtype": "noteOff", "noteNumber": 62, "velocity": 64 }, { "deltaTime": 2, "channel": 7, "type": "channel", "subtype": "noteOff", "noteNumber": 71, "velocity": 64 }, { "deltaTime": 10, "channel": 7, "type": "channel", "subtype": "noteOff", "noteNumber": 66, "velocity": 64 }, { "deltaTime": 84, "channel": 7, "type": "channel", "noteNumber": 66, "velocity": 73, "subtype": "noteOn" }, { "deltaTime": 12, "channel": 7, "type": "channel", "noteNumber": 69, "velocity": 73, "subtype": "noteOn" }, { "deltaTime": 8, "channel": 7, "type": "channel", "noteNumber": 62, "velocity": 65, "subtype": "noteOn" }, { "deltaTime": 1346, "channel": 7, "type": "channel", "subtype": "noteOff", "noteNumber": 62, "velocity": 64 }, { "deltaTime": 2, "channel": 7, "type": "channel", "subtype": "noteOff", "noteNumber": 66, "velocity": 64 }, { "deltaTime": 4, "channel": 7, "type": "channel", "subtype": "noteOff", "noteNumber": 69, "velocity": 64 }, { "deltaTime": 178, "channel": 7, "type": "channel", "noteNumber": 71, "velocity": 88, "subtype": "noteOn" }, { "deltaTime": 2, "channel": 7, "type": "channel", "noteNumber": 66, "velocity": 88, "subtype": "noteOn" }, { "deltaTime": 8, "channel": 7, "type": "channel", "noteNumber": 62, "velocity": 79, "subtype": "noteOn" }, { "deltaTime": 1414, "channel": 7, "type": "channel", "subtype": "noteOff", "noteNumber": 71, "velocity": 64 }, { "deltaTime": 8, "channel": 7, "type": "channel", "subtype": "noteOff", "noteNumber": 62, "velocity": 64 }, { "deltaTime": 4, "channel": 7, "type": "channel", "subtype": "noteOff", "noteNumber": 66, "velocity": 64 }, { "deltaTime": 90, "channel": 7, "type": "channel", "noteNumber": 66, "velocity": 80, "subtype": "noteOn" }, { "deltaTime": 8, "channel": 7, "type": "channel", "noteNumber": 62, "velocity": 80, "subtype": "noteOn" }, { "deltaTime": 20, "channel": 7, "type": "channel", "noteNumber": 69, "velocity": 70, "subtype": "noteOn" }, { "deltaTime": 1390, "channel": 7, "type": "channel", "subtype": "noteOff", "noteNumber": 62, "velocity": 64 }, { "deltaTime": 10, "channel": 7, "type": "channel", "subtype": "noteOff", "noteNumber": 66, "velocity": 64 }, { "deltaTime": 8, "channel": 7, "type": "channel", "subtype": "noteOff", "noteNumber": 69, "velocity": 64 }, { "deltaTime": 224, "channel": 7, "type": "channel", "noteNumber": 81, "velocity": 127, "subtype": "noteOn" }, { "deltaTime": 4, "channel": 7, "type": "channel", "noteNumber": 73, "velocity": 127, "subtype": "noteOn" }, { "deltaTime": 2, "channel": 7, "type": "channel", "noteNumber": 69, "velocity": 115, "subtype": "noteOn" }, { "deltaTime": 6, "channel": 7, "type": "channel", "noteNumber": 76, "velocity": 112, "subtype": "noteOn" }, { "deltaTime": 48, "channel": 7, "type": "channel", "subtype": "noteOff", "noteNumber": 73, "velocity": 64 }, { "deltaTime": 4, "channel": 7, "type": "channel", "subtype": "noteOff", "noteNumber": 69, "velocity": 64 }, { "deltaTime": 12, "channel": 7, "type": "channel", "subtype": "noteOff", "noteNumber": 81, "velocity": 64 }, { "deltaTime": 4, "channel": 7, "type": "channel", "subtype": "noteOff", "noteNumber": 76, "velocity": 64 }, { "deltaTime": 78, "channel": 7, "type": "channel", "noteNumber": 69, "velocity": 124, "subtype": "noteOn" }, { "deltaTime": 2, "channel": 7, "type": "channel", "noteNumber": 73, "velocity": 127, "subtype": "noteOn" }, { "deltaTime": 0, "channel": 7, "type": "channel", "noteNumber": 76, "velocity": 127, "subtype": "noteOn" }, { "deltaTime": 8, "channel": 7, "type": "channel", "noteNumber": 81, "velocity": 127, "subtype": "noteOn" }, { "deltaTime": 46, "channel": 7, "type": "channel", "subtype": "noteOff", "noteNumber": 69, "velocity": 64 }, { "deltaTime": 2, "channel": 7, "type": "channel", "subtype": "noteOff", "noteNumber": 73, "velocity": 64 }, { "deltaTime": 16, "channel": 7, "type": "channel", "subtype": "noteOff", "noteNumber": 81, "velocity": 64 }, { "deltaTime": 4, "channel": 7, "type": "channel", "subtype": "noteOff", "noteNumber": 76, "velocity": 64 }, { "deltaTime": 40, "channel": 7, "type": "channel", "noteNumber": 69, "velocity": 127, "subtype": "noteOn" }, { "deltaTime": 2, "channel": 7, "type": "channel", "noteNumber": 73, "velocity": 127, "subtype": "noteOn" }, { "deltaTime": 0, "channel": 7, "type": "channel", "noteNumber": 76, "velocity": 127, "subtype": "noteOn" }, { "deltaTime": 10, "channel": 7, "type": "channel", "noteNumber": 81, "velocity": 126, "subtype": "noteOn" }, { "deltaTime": 28, "channel": 7, "type": "channel", "subtype": "noteOff", "noteNumber": 69, "velocity": 64 }, { "deltaTime": 0, "channel": 7, "type": "channel", "subtype": "noteOff", "noteNumber": 73, "velocity": 64 }, { "deltaTime": 14, "channel": 7, "type": "channel", "subtype": "noteOff", "noteNumber": 81, "velocity": 64 }, { "deltaTime": 6, "channel": 7, "type": "channel", "subtype": "noteOff", "noteNumber": 76, "velocity": 64 }, { "deltaTime": 444, "channel": 7, "type": "channel", "noteNumber": 73, "velocity": 127, "subtype": "noteOn" }, { "deltaTime": 2, "channel": 7, "type": "channel", "noteNumber": 69, "velocity": 127, "subtype": "noteOn" }, { "deltaTime": 2, "channel": 7, "type": "channel", "noteNumber": 76, "velocity": 127, "subtype": "noteOn" }, { "deltaTime": 6, "channel": 7, "type": "channel", "noteNumber": 81, "velocity": 127, "subtype": "noteOn" }, { "deltaTime": 62, "channel": 7, "type": "channel", "subtype": "noteOff", "noteNumber": 69, "velocity": 64 }, { "deltaTime": 2, "channel": 7, "type": "channel", "subtype": "noteOff", "noteNumber": 73, "velocity": 64 }, { "deltaTime": 16, "channel": 7, "type": "channel", "subtype": "noteOff", "noteNumber": 76, "velocity": 64 }, { "deltaTime": 4, "channel": 7, "type": "channel", "subtype": "noteOff", "noteNumber": 81, "velocity": 64 }, { "deltaTime": 76, "channel": 7, "type": "channel", "noteNumber": 69, "velocity": 125, "subtype": "noteOn" }, { "deltaTime": 4, "channel": 7, "type": "channel", "noteNumber": 73, "velocity": 127, "subtype": "noteOn" }, { "deltaTime": 2, "channel": 7, "type": "channel", "noteNumber": 76, "velocity": 127, "subtype": "noteOn" }, { "deltaTime": 6, "channel": 7, "type": "channel", "noteNumber": 81, "velocity": 127, "subtype": "noteOn" }, { "deltaTime": 50, "channel": 7, "type": "channel", "subtype": "noteOff", "noteNumber": 69, "velocity": 64 }, { "deltaTime": 4, "channel": 7, "type": "channel", "subtype": "noteOff", "noteNumber": 73, "velocity": 64 }, { "deltaTime": 16, "channel": 7, "type": "channel", "subtype": "noteOff", "noteNumber": 76, "velocity": 64 }, { "deltaTime": 2, "channel": 7, "type": "channel", "subtype": "noteOff", "noteNumber": 81, "velocity": 64 }, { "deltaTime": 28, "channel": 7, "type": "channel", "noteNumber": 69, "velocity": 127, "subtype": "noteOn" }, { "deltaTime": 2, "channel": 7, "type": "channel", "noteNumber": 73, "velocity": 127, "subtype": "noteOn" }, { "deltaTime": 2, "channel": 7, "type": "channel", "noteNumber": 76, "velocity": 127, "subtype": "noteOn" }, { "deltaTime": 4, "channel": 7, "type": "channel", "noteNumber": 81, "velocity": 127, "subtype": "noteOn" }, { "deltaTime": 36, "channel": 7, "type": "channel", "subtype": "noteOff", "noteNumber": 73, "velocity": 64 }, { "deltaTime": 4, "channel": 7, "type": "channel", "subtype": "noteOff", "noteNumber": 69, "velocity": 64 }, { "deltaTime": 14, "channel": 7, "type": "channel", "subtype": "noteOff", "noteNumber": 76, "velocity": 64 }, { "deltaTime": 4, "channel": 7, "type": "channel", "subtype": "noteOff", "noteNumber": 81, "velocity": 64 }, { "deltaTime": 310, "channel": 7, "type": "channel", "noteNumber": 69, "velocity": 100, "subtype": "noteOn" }, { "deltaTime": 4, "channel": 7, "type": "channel", "noteNumber": 76, "velocity": 118, "subtype": "noteOn" }, { "deltaTime": 4, "channel": 7, "type": "channel", "noteNumber": 73, "velocity": 125, "subtype": "noteOn" }, { "deltaTime": 4, "channel": 7, "type": "channel", "noteNumber": 81, "velocity": 115, "subtype": "noteOn" }, { "deltaTime": 1484, "channel": 7, "type": "channel", "subtype": "noteOff", "noteNumber": 81, "velocity": 64 }, { "deltaTime": 2, "channel": 7, "type": "channel", "subtype": "noteOff", "noteNumber": 73, "velocity": 64 }, { "deltaTime": 8, "channel": 7, "type": "channel", "subtype": "noteOff", "noteNumber": 76, "velocity": 64 }, { "deltaTime": 14, "channel": 7, "type": "channel", "subtype": "noteOff", "noteNumber": 69, "velocity": 64 }, { "deltaTime": 10750, "channel": 7, "type": "channel", "noteNumber": 62, "velocity": 78, "subtype": "noteOn" }, { "deltaTime": 0, "channel": 7, "type": "channel", "noteNumber": 66, "velocity": 73, "subtype": "noteOn" }, { "deltaTime": 28, "channel": 7, "type": "channel", "noteNumber": 69, "velocity": 65, "subtype": "noteOn" }, { "deltaTime": 598, "channel": 7, "type": "channel", "subtype": "noteOff", "noteNumber": 62, "velocity": 64 }, { "deltaTime": 22, "channel": 7, "type": "channel", "subtype": "noteOff", "noteNumber": 66, "velocity": 64 }, { "deltaTime": 2, "channel": 7, "type": "channel", "subtype": "noteOff", "noteNumber": 69, "velocity": 64 }, { "deltaTime": 130, "channel": 7, "type": "channel", "noteNumber": 71, "velocity": 78, "subtype": "noteOn" }, { "deltaTime": 4, "channel": 7, "type": "channel", "noteNumber": 64, "velocity": 70, "subtype": "noteOn" }, { "deltaTime": 14, "channel": 7, "type": "channel", "noteNumber": 67, "velocity": 89, "subtype": "noteOn" }, { "deltaTime": 280, "channel": 7, "type": "channel", "subtype": "noteOff", "noteNumber": 71, "velocity": 64 }, { "deltaTime": 0, "channel": 7, "type": "channel", "subtype": "noteOff", "noteNumber": 64, "velocity": 64 }, { "deltaTime": 14, "channel": 7, "type": "channel", "subtype": "noteOff", "noteNumber": 67, "velocity": 64 }, { "deltaTime": 86, "channel": 7, "type": "channel", "noteNumber": 71, "velocity": 71, "subtype": "noteOn" }, { "deltaTime": 12, "channel": 7, "type": "channel", "noteNumber": 67, "velocity": 67, "subtype": "noteOn" }, { "deltaTime": 8, "channel": 7, "type": "channel", "noteNumber": 64, "velocity": 59, "subtype": "noteOn" }, { "deltaTime": 214, "channel": 7, "type": "channel", "subtype": "noteOff", "noteNumber": 71, "velocity": 64 }, { "deltaTime": 6, "channel": 7, "type": "channel", "subtype": "noteOff", "noteNumber": 67, "velocity": 64 }, { "deltaTime": 12, "channel": 7, "type": "channel", "subtype": "noteOff", "noteNumber": 64, "velocity": 64 }, { "deltaTime": 102, "channel": 7, "type": "channel", "noteNumber": 66, "velocity": 82, "subtype": "noteOn" }, { "deltaTime": 6, "channel": 7, "type": "channel", "noteNumber": 62, "velocity": 69, "subtype": "noteOn" }, { "deltaTime": 10, "channel": 7, "type": "channel", "noteNumber": 69, "velocity": 71, "subtype": "noteOn" }, { "deltaTime": 876, "channel": 7, "type": "channel", "subtype": "noteOff", "noteNumber": 66, "velocity": 64 }, { "deltaTime": 70, "channel": 7, "type": "channel", "subtype": "noteOff", "noteNumber": 69, "velocity": 64 }, { "deltaTime": 62, "channel": 7, "type": "channel", "subtype": "noteOff", "noteNumber": 62, "velocity": 64 }, { "deltaTime": 0, "type": "meta", "subtype": "endOfTrack" }], [{ "deltaTime": 0, "type": "meta", "subtype": "unknown", "data": "\u0000" }, { "deltaTime": 0, "type": "meta", "subtype": "trackName", "text": "bass....            " }, { "deltaTime": 0, "channel": 0, "type": "channel", "subtype": "programChange", "programNumber": 33 }, { "deltaTime": 0, "channel": 0, "type": "channel", "subtype": "controller", "controllerType": 0, "value": 0 }, { "deltaTime": 0, "channel": 0, "type": "channel", "subtype": "controller", "controllerType": 93, "value": 0 }, { "deltaTime": 0, "channel": 0, "type": "channel", "subtype": "controller", "controllerType": 91, "value": 0 }, { "deltaTime": 0, "channel": 0, "type": "channel", "subtype": "controller", "controllerType": 7, "value": 70 }, { "deltaTime": 562, "channel": 0, "type": "channel", "noteNumber": 33, "velocity": 121, "subtype": "noteOn" }, { "deltaTime": 140, "channel": 0, "type": "channel", "subtype": "noteOff", "noteNumber": 33, "velocity": 64 }, { "deltaTime": 66, "channel": 0, "type": "channel", "noteNumber": 38, "velocity": 121, "subtype": "noteOn" }, { "deltaTime": 214, "channel": 0, "type": "channel", "subtype": "noteOff", "noteNumber": 38, "velocity": 64 }, { "deltaTime": 72, "channel": 0, "type": "channel", "noteNumber": 38, "velocity": 121, "subtype": "noteOn" }, { "deltaTime": 42, "channel": 0, "type": "channel", "subtype": "noteOff", "noteNumber": 38, "velocity": 64 }, { "deltaTime": 58, "channel": 0, "type": "channel", "noteNumber": 38, "velocity": 121, "subtype": "noteOn" }, { "deltaTime": 370, "channel": 0, "type": "channel", "subtype": "noteOff", "noteNumber": 38, "velocity": 64 }, { "deltaTime": 12, "channel": 0, "type": "channel", "noteNumber": 33, "velocity": 121, "subtype": "noteOn" }, { "deltaTime": 222, "channel": 0, "type": "channel", "subtype": "noteOff", "noteNumber": 33, "velocity": 64 }, { "deltaTime": 70, "channel": 0, "type": "channel", "noteNumber": 33, "velocity": 121, "subtype": "noteOn" }, { "deltaTime": 50, "channel": 0, "type": "channel", "subtype": "noteOff", "noteNumber": 33, "velocity": 64 }, { "deltaTime": 46, "channel": 0, "type": "channel", "noteNumber": 33, "velocity": 121, "subtype": "noteOn" }, { "deltaTime": 332, "channel": 0, "type": "channel", "subtype": "noteOff", "noteNumber": 33, "velocity": 64 }, { "deltaTime": 64, "channel": 0, "type": "channel", "noteNumber": 38, "velocity": 121, "subtype": "noteOn" }, { "deltaTime": 208, "channel": 0, "type": "channel", "subtype": "noteOff", "noteNumber": 38, "velocity": 64 }, { "deltaTime": 66, "channel": 0, "type": "channel", "noteNumber": 38, "velocity": 121, "subtype": "noteOn" }, { "deltaTime": 46, "channel": 0, "type": "channel", "subtype": "noteOff", "noteNumber": 38, "velocity": 64 }, { "deltaTime": 56, "channel": 0, "type": "channel", "noteNumber": 38, "velocity": 121, "subtype": "noteOn" }, { "deltaTime": 320, "channel": 0, "type": "channel", "subtype": "noteOff", "noteNumber": 38, "velocity": 64 }, { "deltaTime": 54, "channel": 0, "type": "channel", "noteNumber": 38, "velocity": 121, "subtype": "noteOn" }, { "deltaTime": 204, "channel": 0, "type": "channel", "subtype": "noteOff", "noteNumber": 38, "velocity": 64 }, { "deltaTime": 90, "channel": 0, "type": "channel", "noteNumber": 38, "velocity": 121, "subtype": "noteOn" }, { "deltaTime": 50, "channel": 0, "type": "channel", "subtype": "noteOff", "noteNumber": 38, "velocity": 64 }, { "deltaTime": 50, "channel": 0, "type": "channel", "noteNumber": 38, "velocity": 121, "subtype": "noteOn" }, { "deltaTime": 130, "channel": 0, "type": "channel", "subtype": "noteOff", "noteNumber": 38, "velocity": 64 }, { "deltaTime": 56, "channel": 0, "type": "channel", "noteNumber": 45, "velocity": 121, "subtype": "noteOn" }, { "deltaTime": 192, "channel": 0, "type": "channel", "subtype": "noteOff", "noteNumber": 45, "velocity": 64 }, { "deltaTime": 6, "channel": 0, "type": "channel", "noteNumber": 38, "velocity": 121, "subtype": "noteOn" }, { "deltaTime": 216, "channel": 0, "type": "channel", "subtype": "noteOff", "noteNumber": 38, "velocity": 64 }, { "deltaTime": 62, "channel": 0, "type": "channel", "noteNumber": 38, "velocity": 121, "subtype": "noteOn" }, { "deltaTime": 48, "channel": 0, "type": "channel", "subtype": "noteOff", "noteNumber": 38, "velocity": 64 }, { "deltaTime": 60, "channel": 0, "type": "channel", "noteNumber": 38, "velocity": 121, "subtype": "noteOn" }, { "deltaTime": 322, "channel": 0, "type": "channel", "subtype": "noteOff", "noteNumber": 38, "velocity": 64 }, { "deltaTime": 54, "channel": 0, "type": "channel", "noteNumber": 38, "velocity": 121, "subtype": "noteOn" }, { "deltaTime": 216, "channel": 0, "type": "channel", "subtype": "noteOff", "noteNumber": 38, "velocity": 64 }, { "deltaTime": 74, "channel": 0, "type": "channel", "noteNumber": 38, "velocity": 121, "subtype": "noteOn" }, { "deltaTime": 46, "channel": 0, "type": "channel", "subtype": "noteOff", "noteNumber": 38, "velocity": 64 }, { "deltaTime": 50, "channel": 0, "type": "channel", "noteNumber": 38, "velocity": 121, "subtype": "noteOn" }, { "deltaTime": 314, "channel": 0, "type": "channel", "subtype": "noteOff", "noteNumber": 38, "velocity": 64 }, { "deltaTime": 66, "channel": 0, "type": "channel", "noteNumber": 40, "velocity": 121, "subtype": "noteOn" }, { "deltaTime": 234, "channel": 0, "type": "channel", "subtype": "noteOff", "noteNumber": 40, "velocity": 64 }, { "deltaTime": 56, "channel": 0, "type": "channel", "noteNumber": 40, "velocity": 121, "subtype": "noteOn" }, { "deltaTime": 46, "channel": 0, "type": "channel", "subtype": "noteOff", "noteNumber": 40, "velocity": 64 }, { "deltaTime": 58, "channel": 0, "type": "channel", "noteNumber": 45, "velocity": 121, "subtype": "noteOn" }, { "deltaTime": 312, "channel": 0, "type": "channel", "subtype": "noteOff", "noteNumber": 45, "velocity": 64 }, { "deltaTime": 52, "channel": 0, "type": "channel", "noteNumber": 38, "velocity": 121, "subtype": "noteOn" }, { "deltaTime": 226, "channel": 0, "type": "channel", "subtype": "noteOff", "noteNumber": 38, "velocity": 64 }, { "deltaTime": 72, "channel": 0, "type": "channel", "noteNumber": 38, "velocity": 121, "subtype": "noteOn" }, { "deltaTime": 40, "channel": 0, "type": "channel", "subtype": "noteOff", "noteNumber": 38, "velocity": 64 }, { "deltaTime": 58, "channel": 0, "type": "channel", "noteNumber": 38, "velocity": 121, "subtype": "noteOn" }, { "deltaTime": 322, "channel": 0, "type": "channel", "subtype": "noteOff", "noteNumber": 38, "velocity": 64 }, { "deltaTime": 66, "channel": 0, "type": "channel", "noteNumber": 40, "velocity": 121, "subtype": "noteOn" }, { "deltaTime": 228, "channel": 0, "type": "channel", "subtype": "noteOff", "noteNumber": 40, "velocity": 64 }, { "deltaTime": 68, "channel": 0, "type": "channel", "noteNumber": 40, "velocity": 121, "subtype": "noteOn" }, { "deltaTime": 38, "channel": 0, "type": "channel", "subtype": "noteOff", "noteNumber": 40, "velocity": 64 }, { "deltaTime": 56, "channel": 0, "type": "channel", "noteNumber": 40, "velocity": 121, "subtype": "noteOn" }, { "deltaTime": 256, "channel": 0, "type": "channel", "subtype": "noteOff", "noteNumber": 40, "velocity": 64 }, { "deltaTime": 116, "channel": 0, "type": "channel", "noteNumber": 33, "velocity": 121, "subtype": "noteOn" }, { "deltaTime": 220, "channel": 0, "type": "channel", "subtype": "noteOff", "noteNumber": 33, "velocity": 64 }, { "deltaTime": 82, "channel": 0, "type": "channel", "noteNumber": 33, "velocity": 121, "subtype": "noteOn" }, { "deltaTime": 48, "channel": 0, "type": "channel", "subtype": "noteOff", "noteNumber": 33, "velocity": 64 }, { "deltaTime": 50, "channel": 0, "type": "channel", "noteNumber": 33, "velocity": 121, "subtype": "noteOn" }, { "deltaTime": 282, "channel": 0, "type": "channel", "subtype": "noteOff", "noteNumber": 33, "velocity": 64 }, { "deltaTime": 84, "channel": 0, "type": "channel", "noteNumber": 38, "velocity": 121, "subtype": "noteOn" }, { "deltaTime": 224, "channel": 0, "type": "channel", "subtype": "noteOff", "noteNumber": 38, "velocity": 64 }, { "deltaTime": 72, "channel": 0, "type": "channel", "noteNumber": 38, "velocity": 121, "subtype": "noteOn" }, { "deltaTime": 42, "channel": 0, "type": "channel", "subtype": "noteOff", "noteNumber": 38, "velocity": 64 }, { "deltaTime": 58, "channel": 0, "type": "channel", "noteNumber": 38, "velocity": 121, "subtype": "noteOn" }, { "deltaTime": 136, "channel": 0, "type": "channel", "subtype": "noteOff", "noteNumber": 38, "velocity": 64 }, { "deltaTime": 64, "channel": 0, "type": "channel", "noteNumber": 37, "velocity": 121, "subtype": "noteOn" }, { "deltaTime": 124, "channel": 0, "type": "channel", "subtype": "noteOff", "noteNumber": 37, "velocity": 64 }, { "deltaTime": 68, "channel": 0, "type": "channel", "noteNumber": 35, "velocity": 121, "subtype": "noteOn" }, { "deltaTime": 218, "channel": 0, "type": "channel", "subtype": "noteOff", "noteNumber": 35, "velocity": 64 }, { "deltaTime": 60, "channel": 0, "type": "channel", "noteNumber": 35, "velocity": 121, "subtype": "noteOn" }, { "deltaTime": 48, "channel": 0, "type": "channel", "subtype": "noteOff", "noteNumber": 35, "velocity": 64 }, { "deltaTime": 50, "channel": 0, "type": "channel", "noteNumber": 35, "velocity": 121, "subtype": "noteOn" }, { "deltaTime": 314, "channel": 0, "type": "channel", "subtype": "noteOff", "noteNumber": 35, "velocity": 64 }, { "deltaTime": 68, "channel": 0, "type": "channel", "noteNumber": 40, "velocity": 121, "subtype": "noteOn" }, { "deltaTime": 226, "channel": 0, "type": "channel", "subtype": "noteOff", "noteNumber": 40, "velocity": 64 }, { "deltaTime": 62, "channel": 0, "type": "channel", "noteNumber": 40, "velocity": 121, "subtype": "noteOn" }, { "deltaTime": 42, "channel": 0, "type": "channel", "subtype": "noteOff", "noteNumber": 40, "velocity": 64 }, { "deltaTime": 58, "channel": 0, "type": "channel", "noteNumber": 40, "velocity": 121, "subtype": "noteOn" }, { "deltaTime": 312, "channel": 0, "type": "channel", "subtype": "noteOff", "noteNumber": 40, "velocity": 64 }, { "deltaTime": 50, "channel": 0, "type": "channel", "noteNumber": 33, "velocity": 121, "subtype": "noteOn" }, { "deltaTime": 218, "channel": 0, "type": "channel", "subtype": "noteOff", "noteNumber": 33, "velocity": 64 }, { "deltaTime": 72, "channel": 0, "type": "channel", "noteNumber": 33, "velocity": 121, "subtype": "noteOn" }, { "deltaTime": 56, "channel": 0, "type": "channel", "subtype": "noteOff", "noteNumber": 33, "velocity": 64 }, { "deltaTime": 40, "channel": 0, "type": "channel", "noteNumber": 35, "velocity": 121, "subtype": "noteOn" }, { "deltaTime": 156, "channel": 0, "type": "channel", "subtype": "noteOff", "noteNumber": 35, "velocity": 64 }, { "deltaTime": 56, "channel": 0, "type": "channel", "noteNumber": 37, "velocity": 121, "subtype": "noteOn" }, { "deltaTime": 142, "channel": 0, "type": "channel", "subtype": "noteOff", "noteNumber": 37, "velocity": 64 }, { "deltaTime": 44, "channel": 0, "type": "channel", "noteNumber": 38, "velocity": 121, "subtype": "noteOn" }, { "deltaTime": 222, "channel": 0, "type": "channel", "subtype": "noteOff", "noteNumber": 38, "velocity": 64 }, { "deltaTime": 66, "channel": 0, "type": "channel", "noteNumber": 38, "velocity": 121, "subtype": "noteOn" }, { "deltaTime": 40, "channel": 0, "type": "channel", "subtype": "noteOff", "noteNumber": 38, "velocity": 64 }, { "deltaTime": 62, "channel": 0, "type": "channel", "noteNumber": 38, "velocity": 121, "subtype": "noteOn" }, { "deltaTime": 328, "channel": 0, "type": "channel", "subtype": "noteOff", "noteNumber": 38, "velocity": 64 }, { "deltaTime": 54, "channel": 0, "type": "channel", "noteNumber": 38, "velocity": 121, "subtype": "noteOn" }, { "deltaTime": 206, "channel": 0, "type": "channel", "subtype": "noteOff", "noteNumber": 38, "velocity": 64 }, { "deltaTime": 72, "channel": 0, "type": "channel", "noteNumber": 38, "velocity": 121, "subtype": "noteOn" }, { "deltaTime": 38, "channel": 0, "type": "channel", "subtype": "noteOff", "noteNumber": 38, "velocity": 64 }, { "deltaTime": 64, "channel": 0, "type": "channel", "noteNumber": 38, "velocity": 121, "subtype": "noteOn" }, { "deltaTime": 328, "channel": 0, "type": "channel", "subtype": "noteOff", "noteNumber": 38, "velocity": 64 }, { "deltaTime": 52, "channel": 0, "type": "channel", "noteNumber": 40, "velocity": 121, "subtype": "noteOn" }, { "deltaTime": 228, "channel": 0, "type": "channel", "subtype": "noteOff", "noteNumber": 40, "velocity": 64 }, { "deltaTime": 74, "channel": 0, "type": "channel", "noteNumber": 40, "velocity": 121, "subtype": "noteOn" }, { "deltaTime": 42, "channel": 0, "type": "channel", "subtype": "noteOff", "noteNumber": 40, "velocity": 64 }, { "deltaTime": 52, "channel": 0, "type": "channel", "noteNumber": 33, "velocity": 121, "subtype": "noteOn" }, { "deltaTime": 282, "channel": 0, "type": "channel", "subtype": "noteOff", "noteNumber": 33, "velocity": 64 }, { "deltaTime": 82, "channel": 0, "type": "channel", "noteNumber": 38, "velocity": 121, "subtype": "noteOn" }, { "deltaTime": 228, "channel": 0, "type": "channel", "subtype": "noteOff", "noteNumber": 38, "velocity": 64 }, { "deltaTime": 62, "channel": 0, "type": "channel", "noteNumber": 38, "velocity": 121, "subtype": "noteOn" }, { "deltaTime": 42, "channel": 0, "type": "channel", "subtype": "noteOff", "noteNumber": 38, "velocity": 64 }, { "deltaTime": 58, "channel": 0, "type": "channel", "noteNumber": 38, "velocity": 121, "subtype": "noteOn" }, { "deltaTime": 340, "channel": 0, "type": "channel", "subtype": "noteOff", "noteNumber": 38, "velocity": 64 }, { "deltaTime": 42, "channel": 0, "type": "channel", "noteNumber": 40, "velocity": 121, "subtype": "noteOn" }, { "deltaTime": 218, "channel": 0, "type": "channel", "subtype": "noteOff", "noteNumber": 40, "velocity": 64 }, { "deltaTime": 68, "channel": 0, "type": "channel", "noteNumber": 40, "velocity": 121, "subtype": "noteOn" }, { "deltaTime": 46, "channel": 0, "type": "channel", "subtype": "noteOff", "noteNumber": 40, "velocity": 64 }, { "deltaTime": 58, "channel": 0, "type": "channel", "noteNumber": 40, "velocity": 121, "subtype": "noteOn" }, { "deltaTime": 354, "channel": 0, "type": "channel", "subtype": "noteOff", "noteNumber": 40, "velocity": 64 }, { "deltaTime": 28, "channel": 0, "type": "channel", "noteNumber": 33, "velocity": 121, "subtype": "noteOn" }, { "deltaTime": 210, "channel": 0, "type": "channel", "subtype": "noteOff", "noteNumber": 33, "velocity": 64 }, { "deltaTime": 66, "channel": 0, "type": "channel", "noteNumber": 33, "velocity": 121, "subtype": "noteOn" }, { "deltaTime": 50, "channel": 0, "type": "channel", "subtype": "noteOff", "noteNumber": 33, "velocity": 64 }, { "deltaTime": 54, "channel": 0, "type": "channel", "noteNumber": 33, "velocity": 121, "subtype": "noteOn" }, { "deltaTime": 354, "channel": 0, "type": "channel", "subtype": "noteOff", "noteNumber": 33, "velocity": 64 }, { "deltaTime": 42, "channel": 0, "type": "channel", "noteNumber": 38, "velocity": 121, "subtype": "noteOn" }, { "deltaTime": 218, "channel": 0, "type": "channel", "subtype": "noteOff", "noteNumber": 38, "velocity": 64 }, { "deltaTime": 60, "channel": 0, "type": "channel", "noteNumber": 38, "velocity": 121, "subtype": "noteOn" }, { "deltaTime": 48, "channel": 0, "type": "channel", "subtype": "noteOff", "noteNumber": 38, "velocity": 64 }, { "deltaTime": 56, "channel": 0, "type": "channel", "noteNumber": 38, "velocity": 121, "subtype": "noteOn" }, { "deltaTime": 336, "channel": 0, "type": "channel", "subtype": "noteOff", "noteNumber": 38, "velocity": 64 }, { "deltaTime": 48, "channel": 0, "type": "channel", "noteNumber": 40, "velocity": 121, "subtype": "noteOn" }, { "deltaTime": 258, "channel": 0, "type": "channel", "subtype": "noteOff", "noteNumber": 40, "velocity": 64 }, { "deltaTime": 34, "channel": 0, "type": "channel", "noteNumber": 40, "velocity": 121, "subtype": "noteOn" }, { "deltaTime": 52, "channel": 0, "type": "channel", "subtype": "noteOff", "noteNumber": 40, "velocity": 64 }, { "deltaTime": 52, "channel": 0, "type": "channel", "noteNumber": 45, "velocity": 121, "subtype": "noteOn" }, { "deltaTime": 312, "channel": 0, "type": "channel", "subtype": "noteOff", "noteNumber": 45, "velocity": 64 }, { "deltaTime": 52, "channel": 0, "type": "channel", "noteNumber": 38, "velocity": 121, "subtype": "noteOn" }, { "deltaTime": 212, "channel": 0, "type": "channel", "subtype": "noteOff", "noteNumber": 38, "velocity": 64 }, { "deltaTime": 54, "channel": 0, "type": "channel", "noteNumber": 38, "velocity": 121, "subtype": "noteOn" }, { "deltaTime": 40, "channel": 0, "type": "channel", "subtype": "noteOff", "noteNumber": 38, "velocity": 64 }, { "deltaTime": 62, "channel": 0, "type": "channel", "noteNumber": 38, "velocity": 121, "subtype": "noteOn" }, { "deltaTime": 322, "channel": 0, "type": "channel", "subtype": "noteOff", "noteNumber": 38, "velocity": 64 }, { "deltaTime": 82, "channel": 0, "type": "channel", "noteNumber": 38, "velocity": 121, "subtype": "noteOn" }, { "deltaTime": 222, "channel": 0, "type": "channel", "subtype": "noteOff", "noteNumber": 38, "velocity": 64 }, { "deltaTime": 54, "channel": 0, "type": "channel", "noteNumber": 38, "velocity": 121, "subtype": "noteOn" }, { "deltaTime": 48, "channel": 0, "type": "channel", "subtype": "noteOff", "noteNumber": 38, "velocity": 64 }, { "deltaTime": 54, "channel": 0, "type": "channel", "noteNumber": 38, "velocity": 121, "subtype": "noteOn" }, { "deltaTime": 150, "channel": 0, "type": "channel", "subtype": "noteOff", "noteNumber": 38, "velocity": 64 }, { "deltaTime": 42, "channel": 0, "type": "channel", "noteNumber": 45, "velocity": 121, "subtype": "noteOn" }, { "deltaTime": 178, "channel": 0, "type": "channel", "subtype": "noteOff", "noteNumber": 45, "velocity": 64 }, { "deltaTime": 14, "channel": 0, "type": "channel", "noteNumber": 38, "velocity": 121, "subtype": "noteOn" }, { "deltaTime": 224, "channel": 0, "type": "channel", "subtype": "noteOff", "noteNumber": 38, "velocity": 64 }, { "deltaTime": 76, "channel": 0, "type": "channel", "noteNumber": 38, "velocity": 121, "subtype": "noteOn" }, { "deltaTime": 48, "channel": 0, "type": "channel", "subtype": "noteOff", "noteNumber": 38, "velocity": 64 }, { "deltaTime": 50, "channel": 0, "type": "channel", "noteNumber": 38, "velocity": 121, "subtype": "noteOn" }, { "deltaTime": 328, "channel": 0, "type": "channel", "subtype": "noteOff", "noteNumber": 38, "velocity": 64 }, { "deltaTime": 50, "channel": 0, "type": "channel", "noteNumber": 45, "velocity": 121, "subtype": "noteOn" }, { "deltaTime": 210, "channel": 0, "type": "channel", "subtype": "noteOff", "noteNumber": 45, "velocity": 64 }, { "deltaTime": 62, "channel": 0, "type": "channel", "noteNumber": 45, "velocity": 121, "subtype": "noteOn" }, { "deltaTime": 42, "channel": 0, "type": "channel", "subtype": "noteOff", "noteNumber": 45, "velocity": 64 }, { "deltaTime": 62, "channel": 0, "type": "channel", "noteNumber": 45, "velocity": 121, "subtype": "noteOn" }, { "deltaTime": 278, "channel": 0, "type": "channel", "subtype": "noteOff", "noteNumber": 45, "velocity": 64 }, { "deltaTime": 104, "channel": 0, "type": "channel", "noteNumber": 38, "velocity": 121, "subtype": "noteOn" }, { "deltaTime": 220, "channel": 0, "type": "channel", "subtype": "noteOff", "noteNumber": 38, "velocity": 64 }, { "deltaTime": 76, "channel": 0, "type": "channel", "noteNumber": 38, "velocity": 121, "subtype": "noteOn" }, { "deltaTime": 48, "channel": 0, "type": "channel", "subtype": "noteOff", "noteNumber": 38, "velocity": 64 }, { "deltaTime": 58, "channel": 0, "type": "channel", "noteNumber": 38, "velocity": 121, "subtype": "noteOn" }, { "deltaTime": 282, "channel": 0, "type": "channel", "subtype": "noteOff", "noteNumber": 38, "velocity": 64 }, { "deltaTime": 80, "channel": 0, "type": "channel", "noteNumber": 38, "velocity": 121, "subtype": "noteOn" }, { "deltaTime": 230, "channel": 0, "type": "channel", "subtype": "noteOff", "noteNumber": 38, "velocity": 64 }, { "deltaTime": 74, "channel": 0, "type": "channel", "noteNumber": 38, "velocity": 121, "subtype": "noteOn" }, { "deltaTime": 44, "channel": 0, "type": "channel", "subtype": "noteOff", "noteNumber": 38, "velocity": 64 }, { "deltaTime": 52, "channel": 0, "type": "channel", "noteNumber": 38, "velocity": 121, "subtype": "noteOn" }, { "deltaTime": 134, "channel": 0, "type": "channel", "subtype": "noteOff", "noteNumber": 38, "velocity": 64 }, { "deltaTime": 68, "channel": 0, "type": "channel", "noteNumber": 37, "velocity": 121, "subtype": "noteOn" }, { "deltaTime": 148, "channel": 0, "type": "channel", "subtype": "noteOff", "noteNumber": 37, "velocity": 64 }, { "deltaTime": 44, "channel": 0, "type": "channel", "noteNumber": 35, "velocity": 121, "subtype": "noteOn" }, { "deltaTime": 1368, "channel": 0, "type": "channel", "subtype": "noteOff", "noteNumber": 35, "velocity": 64 }, { "deltaTime": 152, "channel": 0, "type": "channel", "noteNumber": 38, "velocity": 121, "subtype": "noteOn" }, { "deltaTime": 220, "channel": 0, "type": "channel", "subtype": "noteOff", "noteNumber": 38, "velocity": 64 }, { "deltaTime": 70, "channel": 0, "type": "channel", "noteNumber": 38, "velocity": 121, "subtype": "noteOn" }, { "deltaTime": 40, "channel": 0, "type": "channel", "subtype": "noteOff", "noteNumber": 38, "velocity": 64 }, { "deltaTime": 62, "channel": 0, "type": "channel", "noteNumber": 38, "velocity": 121, "subtype": "noteOn" }, { "deltaTime": 286, "channel": 0, "type": "channel", "subtype": "noteOff", "noteNumber": 38, "velocity": 64 }, { "deltaTime": 88, "channel": 0, "type": "channel", "noteNumber": 38, "velocity": 121, "subtype": "noteOn" }, { "deltaTime": 214, "channel": 0, "type": "channel", "subtype": "noteOff", "noteNumber": 38, "velocity": 64 }, { "deltaTime": 78, "channel": 0, "type": "channel", "noteNumber": 38, "velocity": 121, "subtype": "noteOn" }, { "deltaTime": 40, "channel": 0, "type": "channel", "subtype": "noteOff", "noteNumber": 38, "velocity": 64 }, { "deltaTime": 56, "channel": 0, "type": "channel", "noteNumber": 38, "velocity": 121, "subtype": "noteOn" }, { "deltaTime": 138, "channel": 0, "type": "channel", "subtype": "noteOff", "noteNumber": 38, "velocity": 64 }, { "deltaTime": 52, "channel": 0, "type": "channel", "noteNumber": 37, "velocity": 121, "subtype": "noteOn" }, { "deltaTime": 160, "channel": 0, "type": "channel", "subtype": "noteOff", "noteNumber": 37, "velocity": 64 }, { "deltaTime": 40, "channel": 0, "type": "channel", "noteNumber": 35, "velocity": 121, "subtype": "noteOn" }, { "deltaTime": 846, "channel": 0, "type": "channel", "subtype": "noteOff", "noteNumber": 35, "velocity": 64 }, { "deltaTime": 676, "channel": 0, "type": "channel", "noteNumber": 38, "velocity": 121, "subtype": "noteOn" }, { "deltaTime": 232, "channel": 0, "type": "channel", "subtype": "noteOff", "noteNumber": 38, "velocity": 64 }, { "deltaTime": 64, "channel": 0, "type": "channel", "noteNumber": 38, "velocity": 121, "subtype": "noteOn" }, { "deltaTime": 42, "channel": 0, "type": "channel", "subtype": "noteOff", "noteNumber": 38, "velocity": 64 }, { "deltaTime": 62, "channel": 0, "type": "channel", "noteNumber": 38, "velocity": 121, "subtype": "noteOn" }, { "deltaTime": 308, "channel": 0, "type": "channel", "subtype": "noteOff", "noteNumber": 38, "velocity": 64 }, { "deltaTime": 74, "channel": 0, "type": "channel", "noteNumber": 38, "velocity": 121, "subtype": "noteOn" }, { "deltaTime": 218, "channel": 0, "type": "channel", "subtype": "noteOff", "noteNumber": 38, "velocity": 64 }, { "deltaTime": 72, "channel": 0, "type": "channel", "noteNumber": 38, "velocity": 121, "subtype": "noteOn" }, { "deltaTime": 44, "channel": 0, "type": "channel", "subtype": "noteOff", "noteNumber": 38, "velocity": 64 }, { "deltaTime": 52, "channel": 0, "type": "channel", "noteNumber": 38, "velocity": 121, "subtype": "noteOn" }, { "deltaTime": 230, "channel": 0, "type": "channel", "subtype": "noteOff", "noteNumber": 38, "velocity": 64 }, { "deltaTime": 244, "channel": 0, "type": "channel", "noteNumber": 45, "velocity": 121, "subtype": "noteOn" }, { "deltaTime": 116, "channel": 0, "type": "channel", "subtype": "noteOff", "noteNumber": 45, "velocity": 64 }, { "deltaTime": 60, "channel": 0, "type": "channel", "noteNumber": 45, "velocity": 121, "subtype": "noteOn" }, { "deltaTime": 68, "channel": 0, "type": "channel", "subtype": "noteOff", "noteNumber": 45, "velocity": 64 }, { "deltaTime": 50, "channel": 0, "type": "channel", "noteNumber": 45, "velocity": 121, "subtype": "noteOn" }, { "deltaTime": 90, "channel": 0, "type": "channel", "subtype": "noteOff", "noteNumber": 45, "velocity": 64 }, { "deltaTime": 374, "channel": 0, "type": "channel", "noteNumber": 45, "velocity": 121, "subtype": "noteOn" }, { "deltaTime": 134, "channel": 0, "type": "channel", "subtype": "noteOff", "noteNumber": 45, "velocity": 64 }, { "deltaTime": 60, "channel": 0, "type": "channel", "noteNumber": 45, "velocity": 121, "subtype": "noteOn" }, { "deltaTime": 56, "channel": 0, "type": "channel", "subtype": "noteOff", "noteNumber": 45, "velocity": 64 }, { "deltaTime": 48, "channel": 0, "type": "channel", "noteNumber": 45, "velocity": 121, "subtype": "noteOn" }, { "deltaTime": 132, "channel": 0, "type": "channel", "subtype": "noteOff", "noteNumber": 45, "velocity": 64 }, { "deltaTime": 234, "channel": 0, "type": "channel", "noteNumber": 44, "velocity": 117, "subtype": "noteOn" }, { "deltaTime": 32, "channel": 0, "type": "channel", "noteNumber": 45, "velocity": 121, "subtype": "noteOn" }, { "deltaTime": 8, "channel": 0, "type": "channel", "subtype": "noteOff", "noteNumber": 44, "velocity": 64 }, { "deltaTime": 712, "channel": 0, "type": "channel", "subtype": "noteOff", "noteNumber": 45, "velocity": 64 }, { "deltaTime": 6, "channel": 0, "type": "channel", "noteNumber": 33, "velocity": 121, "subtype": "noteOn" }, { "deltaTime": 178, "channel": 0, "type": "channel", "subtype": "noteOff", "noteNumber": 33, "velocity": 64 }, { "deltaTime": 34, "channel": 0, "type": "channel", "noteNumber": 33, "velocity": 121, "subtype": "noteOn" }, { "deltaTime": 200, "channel": 0, "type": "channel", "noteNumber": 35, "velocity": 121, "subtype": "noteOn" }, { "deltaTime": 14, "channel": 0, "type": "channel", "subtype": "noteOff", "noteNumber": 33, "velocity": 64 }, { "deltaTime": 166, "channel": 0, "type": "channel", "noteNumber": 37, "velocity": 121, "subtype": "noteOn" }, { "deltaTime": 34, "channel": 0, "type": "channel", "subtype": "noteOff", "noteNumber": 35, "velocity": 64 }, { "deltaTime": 142, "channel": 0, "type": "channel", "subtype": "noteOff", "noteNumber": 37, "velocity": 64 }, { "deltaTime": 22, "channel": 0, "type": "channel", "noteNumber": 38, "velocity": 121, "subtype": "noteOn" }, { "deltaTime": 218, "channel": 0, "type": "channel", "subtype": "noteOff", "noteNumber": 38, "velocity": 64 }, { "deltaTime": 70, "channel": 0, "type": "channel", "noteNumber": 38, "velocity": 121, "subtype": "noteOn" }, { "deltaTime": 46, "channel": 0, "type": "channel", "subtype": "noteOff", "noteNumber": 38, "velocity": 64 }, { "deltaTime": 60, "channel": 0, "type": "channel", "noteNumber": 38, "velocity": 121, "subtype": "noteOn" }, { "deltaTime": 314, "channel": 0, "type": "channel", "subtype": "noteOff", "noteNumber": 38, "velocity": 64 }, { "deltaTime": 64, "channel": 0, "type": "channel", "noteNumber": 38, "velocity": 121, "subtype": "noteOn" }, { "deltaTime": 212, "channel": 0, "type": "channel", "subtype": "noteOff", "noteNumber": 38, "velocity": 64 }, { "deltaTime": 72, "channel": 0, "type": "channel", "noteNumber": 38, "velocity": 121, "subtype": "noteOn" }, { "deltaTime": 48, "channel": 0, "type": "channel", "subtype": "noteOff", "noteNumber": 38, "velocity": 64 }, { "deltaTime": 52, "channel": 0, "type": "channel", "noteNumber": 38, "velocity": 121, "subtype": "noteOn" }, { "deltaTime": 314, "channel": 0, "type": "channel", "subtype": "noteOff", "noteNumber": 38, "velocity": 64 }, { "deltaTime": 60, "channel": 0, "type": "channel", "noteNumber": 40, "velocity": 121, "subtype": "noteOn" }, { "deltaTime": 216, "channel": 0, "type": "channel", "subtype": "noteOff", "noteNumber": 40, "velocity": 64 }, { "deltaTime": 66, "channel": 0, "type": "channel", "noteNumber": 40, "velocity": 121, "subtype": "noteOn" }, { "deltaTime": 52, "channel": 0, "type": "channel", "subtype": "noteOff", "noteNumber": 40, "velocity": 64 }, { "deltaTime": 44, "channel": 0, "type": "channel", "noteNumber": 33, "velocity": 121, "subtype": "noteOn" }, { "deltaTime": 342, "channel": 0, "type": "channel", "subtype": "noteOff", "noteNumber": 33, "velocity": 64 }, { "deltaTime": 58, "channel": 0, "type": "channel", "noteNumber": 38, "velocity": 121, "subtype": "noteOn" }, { "deltaTime": 220, "channel": 0, "type": "channel", "subtype": "noteOff", "noteNumber": 38, "velocity": 64 }, { "deltaTime": 68, "channel": 0, "type": "channel", "noteNumber": 38, "velocity": 121, "subtype": "noteOn" }, { "deltaTime": 42, "channel": 0, "type": "channel", "subtype": "noteOff", "noteNumber": 38, "velocity": 64 }, { "deltaTime": 62, "channel": 0, "type": "channel", "noteNumber": 38, "velocity": 121, "subtype": "noteOn" }, { "deltaTime": 346, "channel": 0, "type": "channel", "subtype": "noteOff", "noteNumber": 38, "velocity": 64 }, { "deltaTime": 32, "channel": 0, "type": "channel", "noteNumber": 40, "velocity": 121, "subtype": "noteOn" }, { "deltaTime": 232, "channel": 0, "type": "channel", "subtype": "noteOff", "noteNumber": 40, "velocity": 64 }, { "deltaTime": 58, "channel": 0, "type": "channel", "noteNumber": 40, "velocity": 121, "subtype": "noteOn" }, { "deltaTime": 42, "channel": 0, "type": "channel", "subtype": "noteOff", "noteNumber": 40, "velocity": 64 }, { "deltaTime": 64, "channel": 0, "type": "channel", "noteNumber": 40, "velocity": 121, "subtype": "noteOn" }, { "deltaTime": 358, "channel": 0, "type": "channel", "subtype": "noteOff", "noteNumber": 40, "velocity": 64 }, { "deltaTime": 20, "channel": 0, "type": "channel", "noteNumber": 33, "velocity": 121, "subtype": "noteOn" }, { "deltaTime": 220, "channel": 0, "type": "channel", "subtype": "noteOff", "noteNumber": 33, "velocity": 64 }, { "deltaTime": 62, "channel": 0, "type": "channel", "noteNumber": 33, "velocity": 121, "subtype": "noteOn" }, { "deltaTime": 48, "channel": 0, "type": "channel", "subtype": "noteOff", "noteNumber": 33, "velocity": 64 }, { "deltaTime": 50, "channel": 0, "type": "channel", "noteNumber": 33, "velocity": 121, "subtype": "noteOn" }, { "deltaTime": 314, "channel": 0, "type": "channel", "subtype": "noteOff", "noteNumber": 33, "velocity": 64 }, { "deltaTime": 64, "channel": 0, "type": "channel", "noteNumber": 38, "velocity": 121, "subtype": "noteOn" }, { "deltaTime": 232, "channel": 0, "type": "channel", "subtype": "noteOff", "noteNumber": 38, "velocity": 64 }, { "deltaTime": 60, "channel": 0, "type": "channel", "noteNumber": 38, "velocity": 121, "subtype": "noteOn" }, { "deltaTime": 42, "channel": 0, "type": "channel", "subtype": "noteOff", "noteNumber": 38, "velocity": 64 }, { "deltaTime": 56, "channel": 0, "type": "channel", "noteNumber": 38, "velocity": 121, "subtype": "noteOn" }, { "deltaTime": 312, "channel": 0, "type": "channel", "subtype": "noteOff", "noteNumber": 38, "velocity": 64 }, { "deltaTime": 62, "channel": 0, "type": "channel", "noteNumber": 40, "velocity": 121, "subtype": "noteOn" }, { "deltaTime": 224, "channel": 0, "type": "channel", "subtype": "noteOff", "noteNumber": 40, "velocity": 64 }, { "deltaTime": 68, "channel": 0, "type": "channel", "noteNumber": 40, "velocity": 121, "subtype": "noteOn" }, { "deltaTime": 50, "channel": 0, "type": "channel", "subtype": "noteOff", "noteNumber": 40, "velocity": 64 }, { "deltaTime": 64, "channel": 0, "type": "channel", "noteNumber": 33, "velocity": 121, "subtype": "noteOn" }, { "deltaTime": 276, "channel": 0, "type": "channel", "subtype": "noteOff", "noteNumber": 33, "velocity": 64 }, { "deltaTime": 78, "channel": 0, "type": "channel", "noteNumber": 38, "velocity": 121, "subtype": "noteOn" }, { "deltaTime": 242, "channel": 0, "type": "channel", "subtype": "noteOff", "noteNumber": 38, "velocity": 64 }, { "deltaTime": 70, "channel": 0, "type": "channel", "noteNumber": 38, "velocity": 121, "subtype": "noteOn" }, { "deltaTime": 42, "channel": 0, "type": "channel", "subtype": "noteOff", "noteNumber": 38, "velocity": 64 }, { "deltaTime": 56, "channel": 0, "type": "channel", "noteNumber": 38, "velocity": 121, "subtype": "noteOn" }, { "deltaTime": 276, "channel": 0, "type": "channel", "subtype": "noteOff", "noteNumber": 38, "velocity": 64 }, { "deltaTime": 90, "channel": 0, "type": "channel", "noteNumber": 38, "velocity": 121, "subtype": "noteOn" }, { "deltaTime": 208, "channel": 0, "type": "channel", "subtype": "noteOff", "noteNumber": 38, "velocity": 64 }, { "deltaTime": 84, "channel": 0, "type": "channel", "noteNumber": 38, "velocity": 121, "subtype": "noteOn" }, { "deltaTime": 44, "channel": 0, "type": "channel", "subtype": "noteOff", "noteNumber": 38, "velocity": 64 }, { "deltaTime": 58, "channel": 0, "type": "channel", "noteNumber": 38, "velocity": 121, "subtype": "noteOn" }, { "deltaTime": 164, "channel": 0, "type": "channel", "subtype": "noteOff", "noteNumber": 38, "velocity": 64 }, { "deltaTime": 22, "channel": 0, "type": "channel", "noteNumber": 33, "velocity": 121, "subtype": "noteOn" }, { "deltaTime": 150, "channel": 0, "type": "channel", "subtype": "noteOff", "noteNumber": 33, "velocity": 64 }, { "deltaTime": 50, "channel": 0, "type": "channel", "noteNumber": 38, "velocity": 121, "subtype": "noteOn" }, { "deltaTime": 234, "channel": 0, "type": "channel", "subtype": "noteOff", "noteNumber": 38, "velocity": 64 }, { "deltaTime": 54, "channel": 0, "type": "channel", "noteNumber": 38, "velocity": 121, "subtype": "noteOn" }, { "deltaTime": 42, "channel": 0, "type": "channel", "subtype": "noteOff", "noteNumber": 38, "velocity": 64 }, { "deltaTime": 60, "channel": 0, "type": "channel", "noteNumber": 38, "velocity": 121, "subtype": "noteOn" }, { "deltaTime": 338, "channel": 0, "type": "channel", "subtype": "noteOff", "noteNumber": 38, "velocity": 64 }, { "deltaTime": 36, "channel": 0, "type": "channel", "noteNumber": 33, "velocity": 121, "subtype": "noteOn" }, { "deltaTime": 200, "channel": 0, "type": "channel", "subtype": "noteOff", "noteNumber": 33, "velocity": 64 }, { "deltaTime": 74, "channel": 0, "type": "channel", "noteNumber": 33, "velocity": 121, "subtype": "noteOn" }, { "deltaTime": 38, "channel": 0, "type": "channel", "subtype": "noteOff", "noteNumber": 33, "velocity": 64 }, { "deltaTime": 68, "channel": 0, "type": "channel", "noteNumber": 33, "velocity": 121, "subtype": "noteOn" }, { "deltaTime": 326, "channel": 0, "type": "channel", "subtype": "noteOff", "noteNumber": 33, "velocity": 64 }, { "deltaTime": 68, "channel": 0, "type": "channel", "noteNumber": 38, "velocity": 121, "subtype": "noteOn" }, { "deltaTime": 202, "channel": 0, "type": "channel", "subtype": "noteOff", "noteNumber": 38, "velocity": 64 }, { "deltaTime": 80, "channel": 0, "type": "channel", "noteNumber": 38, "velocity": 121, "subtype": "noteOn" }, { "deltaTime": 48, "channel": 0, "type": "channel", "subtype": "noteOff", "noteNumber": 38, "velocity": 64 }, { "deltaTime": 56, "channel": 0, "type": "channel", "noteNumber": 38, "velocity": 121, "subtype": "noteOn" }, { "deltaTime": 268, "channel": 0, "type": "channel", "subtype": "noteOff", "noteNumber": 38, "velocity": 64 }, { "deltaTime": 106, "channel": 0, "type": "channel", "noteNumber": 38, "velocity": 121, "subtype": "noteOn" }, { "deltaTime": 198, "channel": 0, "type": "channel", "subtype": "noteOff", "noteNumber": 38, "velocity": 64 }, { "deltaTime": 88, "channel": 0, "type": "channel", "noteNumber": 38, "velocity": 121, "subtype": "noteOn" }, { "deltaTime": 40, "channel": 0, "type": "channel", "subtype": "noteOff", "noteNumber": 38, "velocity": 64 }, { "deltaTime": 60, "channel": 0, "type": "channel", "noteNumber": 38, "velocity": 121, "subtype": "noteOn" }, { "deltaTime": 136, "channel": 0, "type": "channel", "subtype": "noteOff", "noteNumber": 38, "velocity": 64 }, { "deltaTime": 56, "channel": 0, "type": "channel", "noteNumber": 33, "velocity": 121, "subtype": "noteOn" }, { "deltaTime": 54, "channel": 0, "type": "channel", "subtype": "noteOff", "noteNumber": 33, "velocity": 64 }, { "deltaTime": 46, "channel": 0, "type": "channel", "noteNumber": 33, "velocity": 121, "subtype": "noteOn" }, { "deltaTime": 48, "channel": 0, "type": "channel", "subtype": "noteOff", "noteNumber": 33, "velocity": 64 }, { "deltaTime": 54, "channel": 0, "type": "channel", "noteNumber": 38, "velocity": 121, "subtype": "noteOn" }, { "deltaTime": 218, "channel": 0, "type": "channel", "subtype": "noteOff", "noteNumber": 38, "velocity": 64 }, { "deltaTime": 66, "channel": 0, "type": "channel", "noteNumber": 38, "velocity": 121, "subtype": "noteOn" }, { "deltaTime": 42, "channel": 0, "type": "channel", "subtype": "noteOff", "noteNumber": 38, "velocity": 64 }, { "deltaTime": 58, "channel": 0, "type": "channel", "noteNumber": 38, "velocity": 121, "subtype": "noteOn" }, { "deltaTime": 304, "channel": 0, "type": "channel", "subtype": "noteOff", "noteNumber": 38, "velocity": 64 }, { "deltaTime": 68, "channel": 0, "type": "channel", "noteNumber": 38, "velocity": 121, "subtype": "noteOn" }, { "deltaTime": 214, "channel": 0, "type": "channel", "subtype": "noteOff", "noteNumber": 38, "velocity": 64 }, { "deltaTime": 76, "channel": 0, "type": "channel", "noteNumber": 38, "velocity": 121, "subtype": "noteOn" }, { "deltaTime": 38, "channel": 0, "type": "channel", "subtype": "noteOff", "noteNumber": 38, "velocity": 64 }, { "deltaTime": 60, "channel": 0, "type": "channel", "noteNumber": 38, "velocity": 121, "subtype": "noteOn" }, { "deltaTime": 330, "channel": 0, "type": "channel", "subtype": "noteOff", "noteNumber": 38, "velocity": 64 }, { "deltaTime": 44, "channel": 0, "type": "channel", "noteNumber": 40, "velocity": 121, "subtype": "noteOn" }, { "deltaTime": 224, "channel": 0, "type": "channel", "subtype": "noteOff", "noteNumber": 40, "velocity": 64 }, { "deltaTime": 60, "channel": 0, "type": "channel", "noteNumber": 40, "velocity": 121, "subtype": "noteOn" }, { "deltaTime": 42, "channel": 0, "type": "channel", "subtype": "noteOff", "noteNumber": 40, "velocity": 64 }, { "deltaTime": 62, "channel": 0, "type": "channel", "noteNumber": 33, "velocity": 121, "subtype": "noteOn" }, { "deltaTime": 252, "channel": 0, "type": "channel", "subtype": "noteOff", "noteNumber": 33, "velocity": 64 }, { "deltaTime": 136, "channel": 0, "type": "channel", "noteNumber": 38, "velocity": 121, "subtype": "noteOn" }, { "deltaTime": 196, "channel": 0, "type": "channel", "subtype": "noteOff", "noteNumber": 38, "velocity": 64 }, { "deltaTime": 78, "channel": 0, "type": "channel", "noteNumber": 38, "velocity": 121, "subtype": "noteOn" }, { "deltaTime": 38, "channel": 0, "type": "channel", "subtype": "noteOff", "noteNumber": 38, "velocity": 64 }, { "deltaTime": 64, "channel": 0, "type": "channel", "noteNumber": 38, "velocity": 121, "subtype": "noteOn" }, { "deltaTime": 338, "channel": 0, "type": "channel", "subtype": "noteOff", "noteNumber": 38, "velocity": 64 }, { "deltaTime": 54, "channel": 0, "type": "channel", "noteNumber": 40, "velocity": 121, "subtype": "noteOn" }, { "deltaTime": 202, "channel": 0, "type": "channel", "subtype": "noteOff", "noteNumber": 40, "velocity": 64 }, { "deltaTime": 80, "channel": 0, "type": "channel", "noteNumber": 40, "velocity": 121, "subtype": "noteOn" }, { "deltaTime": 42, "channel": 0, "type": "channel", "subtype": "noteOff", "noteNumber": 40, "velocity": 64 }, { "deltaTime": 62, "channel": 0, "type": "channel", "noteNumber": 40, "velocity": 121, "subtype": "noteOn" }, { "deltaTime": 270, "channel": 0, "type": "channel", "subtype": "noteOff", "noteNumber": 40, "velocity": 64 }, { "deltaTime": 102, "channel": 0, "type": "channel", "noteNumber": 33, "velocity": 121, "subtype": "noteOn" }, { "deltaTime": 218, "channel": 0, "type": "channel", "subtype": "noteOff", "noteNumber": 33, "velocity": 64 }, { "deltaTime": 86, "channel": 0, "type": "channel", "noteNumber": 33, "velocity": 121, "subtype": "noteOn" }, { "deltaTime": 48, "channel": 0, "type": "channel", "subtype": "noteOff", "noteNumber": 33, "velocity": 64 }, { "deltaTime": 44, "channel": 0, "type": "channel", "noteNumber": 33, "velocity": 121, "subtype": "noteOn" }, { "deltaTime": 270, "channel": 0, "type": "channel", "subtype": "noteOff", "noteNumber": 33, "velocity": 64 }, { "deltaTime": 100, "channel": 0, "type": "channel", "noteNumber": 38, "velocity": 121, "subtype": "noteOn" }, { "deltaTime": 236, "channel": 0, "type": "channel", "subtype": "noteOff", "noteNumber": 38, "velocity": 64 }, { "deltaTime": 62, "channel": 0, "type": "channel", "noteNumber": 38, "velocity": 121, "subtype": "noteOn" }, { "deltaTime": 46, "channel": 0, "type": "channel", "subtype": "noteOff", "noteNumber": 38, "velocity": 64 }, { "deltaTime": 52, "channel": 0, "type": "channel", "noteNumber": 38, "velocity": 121, "subtype": "noteOn" }, { "deltaTime": 146, "channel": 0, "type": "channel", "subtype": "noteOff", "noteNumber": 38, "velocity": 64 }, { "deltaTime": 42, "channel": 0, "type": "channel", "noteNumber": 37, "velocity": 121, "subtype": "noteOn" }, { "deltaTime": 140, "channel": 0, "type": "channel", "subtype": "noteOff", "noteNumber": 37, "velocity": 64 }, { "deltaTime": 52, "channel": 0, "type": "channel", "noteNumber": 35, "velocity": 121, "subtype": "noteOn" }, { "deltaTime": 230, "channel": 0, "type": "channel", "subtype": "noteOff", "noteNumber": 35, "velocity": 64 }, { "deltaTime": 60, "channel": 0, "type": "channel", "noteNumber": 35, "velocity": 121, "subtype": "noteOn" }, { "deltaTime": 52, "channel": 0, "type": "channel", "subtype": "noteOff", "noteNumber": 35, "velocity": 64 }, { "deltaTime": 50, "channel": 0, "type": "channel", "noteNumber": 35, "velocity": 121, "subtype": "noteOn" }, { "deltaTime": 310, "channel": 0, "type": "channel", "subtype": "noteOff", "noteNumber": 35, "velocity": 64 }, { "deltaTime": 62, "channel": 0, "type": "channel", "noteNumber": 40, "velocity": 121, "subtype": "noteOn" }, { "deltaTime": 232, "channel": 0, "type": "channel", "subtype": "noteOff", "noteNumber": 40, "velocity": 64 }, { "deltaTime": 58, "channel": 0, "type": "channel", "noteNumber": 40, "velocity": 121, "subtype": "noteOn" }, { "deltaTime": 50, "channel": 0, "type": "channel", "subtype": "noteOff", "noteNumber": 40, "velocity": 64 }, { "deltaTime": 48, "channel": 0, "type": "channel", "noteNumber": 40, "velocity": 121, "subtype": "noteOn" }, { "deltaTime": 284, "channel": 0, "type": "channel", "subtype": "noteOff", "noteNumber": 40, "velocity": 64 }, { "deltaTime": 84, "channel": 0, "type": "channel", "noteNumber": 33, "velocity": 121, "subtype": "noteOn" }, { "deltaTime": 222, "channel": 0, "type": "channel", "subtype": "noteOff", "noteNumber": 33, "velocity": 64 }, { "deltaTime": 66, "channel": 0, "type": "channel", "noteNumber": 33, "velocity": 121, "subtype": "noteOn" }, { "deltaTime": 72, "channel": 0, "type": "channel", "subtype": "noteOff", "noteNumber": 33, "velocity": 64 }, { "deltaTime": 22, "channel": 0, "type": "channel", "noteNumber": 35, "velocity": 121, "subtype": "noteOn" }, { "deltaTime": 170, "channel": 0, "type": "channel", "subtype": "noteOff", "noteNumber": 35, "velocity": 64 }, { "deltaTime": 30, "channel": 0, "type": "channel", "noteNumber": 37, "velocity": 121, "subtype": "noteOn" }, { "deltaTime": 142, "channel": 0, "type": "channel", "subtype": "noteOff", "noteNumber": 37, "velocity": 64 }, { "deltaTime": 42, "channel": 0, "type": "channel", "noteNumber": 38, "velocity": 121, "subtype": "noteOn" }, { "deltaTime": 4, "channel": 0, "type": "channel", "noteNumber": 36, "velocity": 121, "subtype": "noteOn" }, { "deltaTime": 14, "channel": 0, "type": "channel", "subtype": "noteOff", "noteNumber": 36, "velocity": 64 }, { "deltaTime": 250, "channel": 0, "type": "channel", "subtype": "noteOff", "noteNumber": 38, "velocity": 64 }, { "deltaTime": 50, "channel": 0, "type": "channel", "noteNumber": 38, "velocity": 121, "subtype": "noteOn" }, { "deltaTime": 40, "channel": 0, "type": "channel", "subtype": "noteOff", "noteNumber": 38, "velocity": 64 }, { "deltaTime": 56, "channel": 0, "type": "channel", "noteNumber": 38, "velocity": 121, "subtype": "noteOn" }, { "deltaTime": 306, "channel": 0, "type": "channel", "subtype": "noteOff", "noteNumber": 38, "velocity": 64 }, { "deltaTime": 60, "channel": 0, "type": "channel", "noteNumber": 38, "velocity": 121, "subtype": "noteOn" }, { "deltaTime": 236, "channel": 0, "type": "channel", "subtype": "noteOff", "noteNumber": 38, "velocity": 64 }, { "deltaTime": 58, "channel": 0, "type": "channel", "noteNumber": 38, "velocity": 121, "subtype": "noteOn" }, { "deltaTime": 44, "channel": 0, "type": "channel", "subtype": "noteOff", "noteNumber": 38, "velocity": 64 }, { "deltaTime": 54, "channel": 0, "type": "channel", "noteNumber": 38, "velocity": 121, "subtype": "noteOn" }, { "deltaTime": 316, "channel": 0, "type": "channel", "subtype": "noteOff", "noteNumber": 38, "velocity": 64 }, { "deltaTime": 58, "channel": 0, "type": "channel", "noteNumber": 40, "velocity": 121, "subtype": "noteOn" }, { "deltaTime": 256, "channel": 0, "type": "channel", "subtype": "noteOff", "noteNumber": 40, "velocity": 64 }, { "deltaTime": 52, "channel": 0, "type": "channel", "noteNumber": 40, "velocity": 121, "subtype": "noteOn" }, { "deltaTime": 42, "channel": 0, "type": "channel", "subtype": "noteOff", "noteNumber": 40, "velocity": 64 }, { "deltaTime": 52, "channel": 0, "type": "channel", "noteNumber": 33, "velocity": 121, "subtype": "noteOn" }, { "deltaTime": 308, "channel": 0, "type": "channel", "subtype": "noteOff", "noteNumber": 33, "velocity": 64 }, { "deltaTime": 64, "channel": 0, "type": "channel", "noteNumber": 38, "velocity": 121, "subtype": "noteOn" }, { "deltaTime": 234, "channel": 0, "type": "channel", "subtype": "noteOff", "noteNumber": 38, "velocity": 64 }, { "deltaTime": 60, "channel": 0, "type": "channel", "noteNumber": 38, "velocity": 121, "subtype": "noteOn" }, { "deltaTime": 40, "channel": 0, "type": "channel", "subtype": "noteOff", "noteNumber": 38, "velocity": 64 }, { "deltaTime": 56, "channel": 0, "type": "channel", "noteNumber": 38, "velocity": 121, "subtype": "noteOn" }, { "deltaTime": 310, "channel": 0, "type": "channel", "subtype": "noteOff", "noteNumber": 38, "velocity": 64 }, { "deltaTime": 62, "channel": 0, "type": "channel", "noteNumber": 40, "velocity": 121, "subtype": "noteOn" }, { "deltaTime": 224, "channel": 0, "type": "channel", "subtype": "noteOff", "noteNumber": 40, "velocity": 64 }, { "deltaTime": 70, "channel": 0, "type": "channel", "noteNumber": 40, "velocity": 121, "subtype": "noteOn" }, { "deltaTime": 38, "channel": 0, "type": "channel", "subtype": "noteOff", "noteNumber": 40, "velocity": 64 }, { "deltaTime": 64, "channel": 0, "type": "channel", "noteNumber": 40, "velocity": 121, "subtype": "noteOn" }, { "deltaTime": 278, "channel": 0, "type": "channel", "subtype": "noteOff", "noteNumber": 40, "velocity": 64 }, { "deltaTime": 100, "channel": 0, "type": "channel", "noteNumber": 33, "velocity": 121, "subtype": "noteOn" }, { "deltaTime": 220, "channel": 0, "type": "channel", "subtype": "noteOff", "noteNumber": 33, "velocity": 64 }, { "deltaTime": 68, "channel": 0, "type": "channel", "noteNumber": 33, "velocity": 121, "subtype": "noteOn" }, { "deltaTime": 48, "channel": 0, "type": "channel", "subtype": "noteOff", "noteNumber": 33, "velocity": 64 }, { "deltaTime": 48, "channel": 0, "type": "channel", "noteNumber": 33, "velocity": 121, "subtype": "noteOn" }, { "deltaTime": 216, "channel": 0, "type": "channel", "subtype": "noteOff", "noteNumber": 33, "velocity": 64 }, { "deltaTime": 184, "channel": 0, "type": "channel", "noteNumber": 38, "velocity": 121, "subtype": "noteOn" }, { "deltaTime": 200, "channel": 0, "type": "channel", "subtype": "noteOff", "noteNumber": 38, "velocity": 64 }, { "deltaTime": 78, "channel": 0, "type": "channel", "noteNumber": 38, "velocity": 121, "subtype": "noteOn" }, { "deltaTime": 44, "channel": 0, "type": "channel", "subtype": "noteOff", "noteNumber": 38, "velocity": 64 }, { "deltaTime": 56, "channel": 0, "type": "channel", "noteNumber": 38, "velocity": 121, "subtype": "noteOn" }, { "deltaTime": 286, "channel": 0, "type": "channel", "subtype": "noteOff", "noteNumber": 38, "velocity": 64 }, { "deltaTime": 80, "channel": 0, "type": "channel", "noteNumber": 40, "velocity": 121, "subtype": "noteOn" }, { "deltaTime": 210, "channel": 0, "type": "channel", "subtype": "noteOff", "noteNumber": 40, "velocity": 64 }, { "deltaTime": 90, "channel": 0, "type": "channel", "noteNumber": 40, "velocity": 121, "subtype": "noteOn" }, { "deltaTime": 44, "channel": 0, "type": "channel", "subtype": "noteOff", "noteNumber": 40, "velocity": 64 }, { "deltaTime": 52, "channel": 0, "type": "channel", "noteNumber": 33, "velocity": 121, "subtype": "noteOn" }, { "deltaTime": 282, "channel": 0, "type": "channel", "subtype": "noteOff", "noteNumber": 33, "velocity": 64 }, { "deltaTime": 90, "channel": 0, "type": "channel", "noteNumber": 38, "velocity": 121, "subtype": "noteOn" }, { "deltaTime": 214, "channel": 0, "type": "channel", "subtype": "noteOff", "noteNumber": 38, "velocity": 64 }, { "deltaTime": 86, "channel": 0, "type": "channel", "noteNumber": 38, "velocity": 121, "subtype": "noteOn" }, { "deltaTime": 38, "channel": 0, "type": "channel", "subtype": "noteOff", "noteNumber": 38, "velocity": 64 }, { "deltaTime": 62, "channel": 0, "type": "channel", "noteNumber": 38, "velocity": 121, "subtype": "noteOn" }, { "deltaTime": 304, "channel": 0, "type": "channel", "subtype": "noteOff", "noteNumber": 38, "velocity": 64 }, { "deltaTime": 86, "channel": 0, "type": "channel", "noteNumber": 38, "velocity": 121, "subtype": "noteOn" }, { "deltaTime": 204, "channel": 0, "type": "channel", "subtype": "noteOff", "noteNumber": 38, "velocity": 64 }, { "deltaTime": 76, "channel": 0, "type": "channel", "noteNumber": 38, "velocity": 121, "subtype": "noteOn" }, { "deltaTime": 44, "channel": 0, "type": "channel", "subtype": "noteOff", "noteNumber": 38, "velocity": 64 }, { "deltaTime": 58, "channel": 0, "type": "channel", "noteNumber": 38, "velocity": 121, "subtype": "noteOn" }, { "deltaTime": 172, "channel": 0, "type": "channel", "subtype": "noteOff", "noteNumber": 38, "velocity": 64 }, { "deltaTime": 16, "channel": 0, "type": "channel", "noteNumber": 33, "velocity": 121, "subtype": "noteOn" }, { "deltaTime": 128, "channel": 0, "type": "channel", "subtype": "noteOff", "noteNumber": 33, "velocity": 64 }, { "deltaTime": 66, "channel": 0, "type": "channel", "noteNumber": 38, "velocity": 121, "subtype": "noteOn" }, { "deltaTime": 198, "channel": 0, "type": "channel", "subtype": "noteOff", "noteNumber": 38, "velocity": 64 }, { "deltaTime": 72, "channel": 0, "type": "channel", "noteNumber": 38, "velocity": 121, "subtype": "noteOn" }, { "deltaTime": 42, "channel": 0, "type": "channel", "subtype": "noteOff", "noteNumber": 38, "velocity": 64 }, { "deltaTime": 60, "channel": 0, "type": "channel", "noteNumber": 38, "velocity": 121, "subtype": "noteOn" }, { "deltaTime": 358, "channel": 0, "type": "channel", "subtype": "noteOff", "noteNumber": 38, "velocity": 64 }, { "deltaTime": 38, "channel": 0, "type": "channel", "noteNumber": 33, "velocity": 121, "subtype": "noteOn" }, { "deltaTime": 202, "channel": 0, "type": "channel", "subtype": "noteOff", "noteNumber": 33, "velocity": 64 }, { "deltaTime": 74, "channel": 0, "type": "channel", "noteNumber": 33, "velocity": 121, "subtype": "noteOn" }, { "deltaTime": 46, "channel": 0, "type": "channel", "subtype": "noteOff", "noteNumber": 33, "velocity": 64 }, { "deltaTime": 52, "channel": 0, "type": "channel", "noteNumber": 33, "velocity": 121, "subtype": "noteOn" }, { "deltaTime": 284, "channel": 0, "type": "channel", "subtype": "noteOff", "noteNumber": 33, "velocity": 64 }, { "deltaTime": 104, "channel": 0, "type": "channel", "noteNumber": 38, "velocity": 121, "subtype": "noteOn" }, { "deltaTime": 214, "channel": 0, "type": "channel", "subtype": "noteOff", "noteNumber": 38, "velocity": 64 }, { "deltaTime": 74, "channel": 0, "type": "channel", "noteNumber": 38, "velocity": 121, "subtype": "noteOn" }, { "deltaTime": 46, "channel": 0, "type": "channel", "subtype": "noteOff", "noteNumber": 38, "velocity": 64 }, { "deltaTime": 54, "channel": 0, "type": "channel", "noteNumber": 38, "velocity": 121, "subtype": "noteOn" }, { "deltaTime": 268, "channel": 0, "type": "channel", "subtype": "noteOff", "noteNumber": 38, "velocity": 64 }, { "deltaTime": 108, "channel": 0, "type": "channel", "noteNumber": 38, "velocity": 121, "subtype": "noteOn" }, { "deltaTime": 208, "channel": 0, "type": "channel", "subtype": "noteOff", "noteNumber": 38, "velocity": 64 }, { "deltaTime": 78, "channel": 0, "type": "channel", "noteNumber": 38, "velocity": 121, "subtype": "noteOn" }, { "deltaTime": 38, "channel": 0, "type": "channel", "subtype": "noteOff", "noteNumber": 38, "velocity": 64 }, { "deltaTime": 64, "channel": 0, "type": "channel", "noteNumber": 38, "velocity": 121, "subtype": "noteOn" }, { "deltaTime": 136, "channel": 0, "type": "channel", "subtype": "noteOff", "noteNumber": 38, "velocity": 64 }, { "deltaTime": 66, "channel": 0, "type": "channel", "noteNumber": 37, "velocity": 121, "subtype": "noteOn" }, { "deltaTime": 144, "channel": 0, "type": "channel", "subtype": "noteOff", "noteNumber": 37, "velocity": 64 }, { "deltaTime": 42, "channel": 0, "type": "channel", "noteNumber": 35, "velocity": 121, "subtype": "noteOn" }, { "deltaTime": 1358, "channel": 0, "type": "channel", "subtype": "noteOff", "noteNumber": 35, "velocity": 64 }, { "deltaTime": 166, "channel": 0, "type": "channel", "noteNumber": 38, "velocity": 121, "subtype": "noteOn" }, { "deltaTime": 208, "channel": 0, "type": "channel", "subtype": "noteOff", "noteNumber": 38, "velocity": 64 }, { "deltaTime": 68, "channel": 0, "type": "channel", "noteNumber": 38, "velocity": 121, "subtype": "noteOn" }, { "deltaTime": 40, "channel": 0, "type": "channel", "subtype": "noteOff", "noteNumber": 38, "velocity": 64 }, { "deltaTime": 74, "channel": 0, "type": "channel", "noteNumber": 38, "velocity": 121, "subtype": "noteOn" }, { "deltaTime": 302, "channel": 0, "type": "channel", "subtype": "noteOff", "noteNumber": 38, "velocity": 64 }, { "deltaTime": 80, "channel": 0, "type": "channel", "noteNumber": 38, "velocity": 121, "subtype": "noteOn" }, { "deltaTime": 218, "channel": 0, "type": "channel", "subtype": "noteOff", "noteNumber": 38, "velocity": 64 }, { "deltaTime": 82, "channel": 0, "type": "channel", "noteNumber": 38, "velocity": 121, "subtype": "noteOn" }, { "deltaTime": 38, "channel": 0, "type": "channel", "subtype": "noteOff", "noteNumber": 38, "velocity": 64 }, { "deltaTime": 58, "channel": 0, "type": "channel", "noteNumber": 38, "velocity": 121, "subtype": "noteOn" }, { "deltaTime": 134, "channel": 0, "type": "channel", "subtype": "noteOff", "noteNumber": 38, "velocity": 64 }, { "deltaTime": 52, "channel": 0, "type": "channel", "noteNumber": 37, "velocity": 121, "subtype": "noteOn" }, { "deltaTime": 124, "channel": 0, "type": "channel", "subtype": "noteOff", "noteNumber": 37, "velocity": 64 }, { "deltaTime": 80, "channel": 0, "type": "channel", "noteNumber": 35, "velocity": 121, "subtype": "noteOn" }, { "deltaTime": 722, "channel": 0, "type": "channel", "subtype": "noteOff", "noteNumber": 35, "velocity": 64 }, { "deltaTime": 784, "channel": 0, "type": "channel", "noteNumber": 38, "velocity": 121, "subtype": "noteOn" }, { "deltaTime": 216, "channel": 0, "type": "channel", "subtype": "noteOff", "noteNumber": 38, "velocity": 64 }, { "deltaTime": 74, "channel": 0, "type": "channel", "noteNumber": 38, "velocity": 121, "subtype": "noteOn" }, { "deltaTime": 46, "channel": 0, "type": "channel", "subtype": "noteOff", "noteNumber": 38, "velocity": 64 }, { "deltaTime": 62, "channel": 0, "type": "channel", "noteNumber": 38, "velocity": 121, "subtype": "noteOn" }, { "deltaTime": 286, "channel": 0, "type": "channel", "subtype": "noteOff", "noteNumber": 38, "velocity": 64 }, { "deltaTime": 100, "channel": 0, "type": "channel", "noteNumber": 38, "velocity": 121, "subtype": "noteOn" }, { "deltaTime": 192, "channel": 0, "type": "channel", "subtype": "noteOff", "noteNumber": 38, "velocity": 64 }, { "deltaTime": 94, "channel": 0, "type": "channel", "noteNumber": 38, "velocity": 121, "subtype": "noteOn" }, { "deltaTime": 48, "channel": 0, "type": "channel", "subtype": "noteOff", "noteNumber": 38, "velocity": 64 }, { "deltaTime": 56, "channel": 0, "type": "channel", "noteNumber": 38, "velocity": 121, "subtype": "noteOn" }, { "deltaTime": 278, "channel": 0, "type": "channel", "subtype": "noteOff", "noteNumber": 38, "velocity": 64 }, { "deltaTime": 204, "channel": 0, "type": "channel", "noteNumber": 33, "velocity": 121, "subtype": "noteOn" }, { "deltaTime": 114, "channel": 0, "type": "channel", "subtype": "noteOff", "noteNumber": 33, "velocity": 64 }, { "deltaTime": 62, "channel": 0, "type": "channel", "noteNumber": 33, "velocity": 121, "subtype": "noteOn" }, { "deltaTime": 66, "channel": 0, "type": "channel", "subtype": "noteOff", "noteNumber": 33, "velocity": 64 }, { "deltaTime": 42, "channel": 0, "type": "channel", "noteNumber": 33, "velocity": 121, "subtype": "noteOn" }, { "deltaTime": 90, "channel": 0, "type": "channel", "subtype": "noteOff", "noteNumber": 33, "velocity": 64 }, { "deltaTime": 370, "channel": 0, "type": "channel", "noteNumber": 33, "velocity": 121, "subtype": "noteOn" }, { "deltaTime": 132, "channel": 0, "type": "channel", "subtype": "noteOff", "noteNumber": 33, "velocity": 64 }, { "deltaTime": 64, "channel": 0, "type": "channel", "noteNumber": 33, "velocity": 121, "subtype": "noteOn" }, { "deltaTime": 54, "channel": 0, "type": "channel", "subtype": "noteOff", "noteNumber": 33, "velocity": 64 }, { "deltaTime": 52, "channel": 0, "type": "channel", "noteNumber": 33, "velocity": 121, "subtype": "noteOn" }, { "deltaTime": 86, "channel": 0, "type": "channel", "subtype": "noteOff", "noteNumber": 33, "velocity": 64 }, { "deltaTime": 276, "channel": 0, "type": "channel", "noteNumber": 44, "velocity": 121, "subtype": "noteOn" }, { "deltaTime": 18, "channel": 0, "type": "channel", "noteNumber": 45, "velocity": 121, "subtype": "noteOn" }, { "deltaTime": 10, "channel": 0, "type": "channel", "subtype": "noteOff", "noteNumber": 44, "velocity": 64 }, { "deltaTime": 654, "channel": 0, "type": "channel", "subtype": "noteOff", "noteNumber": 45, "velocity": 64 }, { "deltaTime": 114, "channel": 0, "type": "channel", "noteNumber": 33, "velocity": 121, "subtype": "noteOn" }, { "deltaTime": 142, "channel": 0, "type": "channel", "subtype": "noteOff", "noteNumber": 33, "velocity": 64 }, { "deltaTime": 42, "channel": 0, "type": "channel", "noteNumber": 33, "velocity": 121, "subtype": "noteOn" }, { "deltaTime": 168, "channel": 0, "type": "channel", "subtype": "noteOff", "noteNumber": 33, "velocity": 64 }, { "deltaTime": 18, "channel": 0, "type": "channel", "noteNumber": 35, "velocity": 121, "subtype": "noteOn" }, { "deltaTime": 160, "channel": 0, "type": "channel", "subtype": "noteOff", "noteNumber": 35, "velocity": 64 }, { "deltaTime": 32, "channel": 0, "type": "channel", "noteNumber": 37, "velocity": 121, "subtype": "noteOn" }, { "deltaTime": 160, "channel": 0, "type": "channel", "subtype": "noteOff", "noteNumber": 37, "velocity": 64 }, { "deltaTime": 30, "channel": 0, "type": "channel", "noteNumber": 38, "velocity": 121, "subtype": "noteOn" }, { "deltaTime": 216, "channel": 0, "type": "channel", "subtype": "noteOff", "noteNumber": 38, "velocity": 64 }, { "deltaTime": 84, "channel": 0, "type": "channel", "noteNumber": 38, "velocity": 121, "subtype": "noteOn" }, { "deltaTime": 40, "channel": 0, "type": "channel", "subtype": "noteOff", "noteNumber": 38, "velocity": 64 }, { "deltaTime": 66, "channel": 0, "type": "channel", "noteNumber": 38, "velocity": 121, "subtype": "noteOn" }, { "deltaTime": 322, "channel": 0, "type": "channel", "subtype": "noteOff", "noteNumber": 38, "velocity": 64 }, { "deltaTime": 58, "channel": 0, "type": "channel", "noteNumber": 38, "velocity": 121, "subtype": "noteOn" }, { "deltaTime": 216, "channel": 0, "type": "channel", "subtype": "noteOff", "noteNumber": 38, "velocity": 64 }, { "deltaTime": 62, "channel": 0, "type": "channel", "noteNumber": 38, "velocity": 121, "subtype": "noteOn" }, { "deltaTime": 40, "channel": 0, "type": "channel", "subtype": "noteOff", "noteNumber": 38, "velocity": 64 }, { "deltaTime": 62, "channel": 0, "type": "channel", "noteNumber": 38, "velocity": 121, "subtype": "noteOn" }, { "deltaTime": 316, "channel": 0, "type": "channel", "subtype": "noteOff", "noteNumber": 38, "velocity": 64 }, { "deltaTime": 56, "channel": 0, "type": "channel", "noteNumber": 40, "velocity": 121, "subtype": "noteOn" }, { "deltaTime": 228, "channel": 0, "type": "channel", "subtype": "noteOff", "noteNumber": 40, "velocity": 64 }, { "deltaTime": 60, "channel": 0, "type": "channel", "noteNumber": 40, "velocity": 121, "subtype": "noteOn" }, { "deltaTime": 48, "channel": 0, "type": "channel", "subtype": "noteOff", "noteNumber": 40, "velocity": 64 }, { "deltaTime": 54, "channel": 0, "type": "channel", "noteNumber": 33, "velocity": 121, "subtype": "noteOn" }, { "deltaTime": 266, "channel": 0, "type": "channel", "subtype": "noteOff", "noteNumber": 33, "velocity": 64 }, { "deltaTime": 126, "channel": 0, "type": "channel", "noteNumber": 38, "velocity": 121, "subtype": "noteOn" }, { "deltaTime": 218, "channel": 0, "type": "channel", "subtype": "noteOff", "noteNumber": 38, "velocity": 64 }, { "deltaTime": 68, "channel": 0, "type": "channel", "noteNumber": 38, "velocity": 121, "subtype": "noteOn" }, { "deltaTime": 42, "channel": 0, "type": "channel", "subtype": "noteOff", "noteNumber": 38, "velocity": 64 }, { "deltaTime": 56, "channel": 0, "type": "channel", "noteNumber": 38, "velocity": 121, "subtype": "noteOn" }, { "deltaTime": 342, "channel": 0, "type": "channel", "subtype": "noteOff", "noteNumber": 38, "velocity": 64 }, { "deltaTime": 44, "channel": 0, "type": "channel", "noteNumber": 40, "velocity": 121, "subtype": "noteOn" }, { "deltaTime": 240, "channel": 0, "type": "channel", "subtype": "noteOff", "noteNumber": 40, "velocity": 64 }, { "deltaTime": 44, "channel": 0, "type": "channel", "noteNumber": 40, "velocity": 121, "subtype": "noteOn" }, { "deltaTime": 46, "channel": 0, "type": "channel", "subtype": "noteOff", "noteNumber": 40, "velocity": 64 }, { "deltaTime": 54, "channel": 0, "type": "channel", "noteNumber": 40, "velocity": 121, "subtype": "noteOn" }, { "deltaTime": 308, "channel": 0, "type": "channel", "subtype": "noteOff", "noteNumber": 40, "velocity": 64 }, { "deltaTime": 64, "channel": 0, "type": "channel", "noteNumber": 33, "velocity": 121, "subtype": "noteOn" }, { "deltaTime": 216, "channel": 0, "type": "channel", "subtype": "noteOff", "noteNumber": 33, "velocity": 64 }, { "deltaTime": 80, "channel": 0, "type": "channel", "noteNumber": 33, "velocity": 121, "subtype": "noteOn" }, { "deltaTime": 50, "channel": 0, "type": "channel", "subtype": "noteOff", "noteNumber": 33, "velocity": 64 }, { "deltaTime": 46, "channel": 0, "type": "channel", "noteNumber": 33, "velocity": 121, "subtype": "noteOn" }, { "deltaTime": 252, "channel": 0, "type": "channel", "subtype": "noteOff", "noteNumber": 33, "velocity": 64 }, { "deltaTime": 134, "channel": 0, "type": "channel", "noteNumber": 38, "velocity": 121, "subtype": "noteOn" }, { "deltaTime": 212, "channel": 0, "type": "channel", "subtype": "noteOff", "noteNumber": 38, "velocity": 64 }, { "deltaTime": 68, "channel": 0, "type": "channel", "noteNumber": 38, "velocity": 121, "subtype": "noteOn" }, { "deltaTime": 46, "channel": 0, "type": "channel", "subtype": "noteOff", "noteNumber": 38, "velocity": 64 }, { "deltaTime": 58, "channel": 0, "type": "channel", "noteNumber": 38, "velocity": 121, "subtype": "noteOn" }, { "deltaTime": 314, "channel": 0, "type": "channel", "subtype": "noteOff", "noteNumber": 38, "velocity": 64 }, { "deltaTime": 56, "channel": 0, "type": "channel", "noteNumber": 40, "velocity": 121, "subtype": "noteOn" }, { "deltaTime": 216, "channel": 0, "type": "channel", "subtype": "noteOff", "noteNumber": 40, "velocity": 64 }, { "deltaTime": 68, "channel": 0, "type": "channel", "noteNumber": 40, "velocity": 121, "subtype": "noteOn" }, { "deltaTime": 52, "channel": 0, "type": "channel", "subtype": "noteOff", "noteNumber": 40, "velocity": 64 }, { "deltaTime": 52, "channel": 0, "type": "channel", "noteNumber": 33, "velocity": 121, "subtype": "noteOn" }, { "deltaTime": 314, "channel": 0, "type": "channel", "subtype": "noteOff", "noteNumber": 33, "velocity": 64 }, { "deltaTime": 76, "channel": 0, "type": "channel", "noteNumber": 38, "velocity": 121, "subtype": "noteOn" }, { "deltaTime": 218, "channel": 0, "type": "channel", "subtype": "noteOff", "noteNumber": 38, "velocity": 64 }, { "deltaTime": 72, "channel": 0, "type": "channel", "noteNumber": 38, "velocity": 121, "subtype": "noteOn" }, { "deltaTime": 42, "channel": 0, "type": "channel", "subtype": "noteOff", "noteNumber": 38, "velocity": 64 }, { "deltaTime": 56, "channel": 0, "type": "channel", "noteNumber": 38, "velocity": 121, "subtype": "noteOn" }, { "deltaTime": 272, "channel": 0, "type": "channel", "subtype": "noteOff", "noteNumber": 38, "velocity": 64 }, { "deltaTime": 94, "channel": 0, "type": "channel", "noteNumber": 38, "velocity": 121, "subtype": "noteOn" }, { "deltaTime": 224, "channel": 0, "type": "channel", "subtype": "noteOff", "noteNumber": 38, "velocity": 64 }, { "deltaTime": 82, "channel": 0, "type": "channel", "noteNumber": 38, "velocity": 121, "subtype": "noteOn" }, { "deltaTime": 40, "channel": 0, "type": "channel", "subtype": "noteOff", "noteNumber": 38, "velocity": 64 }, { "deltaTime": 56, "channel": 0, "type": "channel", "noteNumber": 38, "velocity": 121, "subtype": "noteOn" }, { "deltaTime": 160, "channel": 0, "type": "channel", "subtype": "noteOff", "noteNumber": 38, "velocity": 64 }, { "deltaTime": 24, "channel": 0, "type": "channel", "noteNumber": 33, "velocity": 121, "subtype": "noteOn" }, { "deltaTime": 134, "channel": 0, "type": "channel", "subtype": "noteOff", "noteNumber": 33, "velocity": 64 }, { "deltaTime": 64, "channel": 0, "type": "channel", "noteNumber": 38, "velocity": 121, "subtype": "noteOn" }, { "deltaTime": 216, "channel": 0, "type": "channel", "subtype": "noteOff", "noteNumber": 38, "velocity": 64 }, { "deltaTime": 66, "channel": 0, "type": "channel", "noteNumber": 38, "velocity": 121, "subtype": "noteOn" }, { "deltaTime": 44, "channel": 0, "type": "channel", "subtype": "noteOff", "noteNumber": 38, "velocity": 64 }, { "deltaTime": 54, "channel": 0, "type": "channel", "noteNumber": 38, "velocity": 121, "subtype": "noteOn" }, { "deltaTime": 320, "channel": 0, "type": "channel", "subtype": "noteOff", "noteNumber": 38, "velocity": 64 }, { "deltaTime": 56, "channel": 0, "type": "channel", "noteNumber": 33, "velocity": 121, "subtype": "noteOn" }, { "deltaTime": 224, "channel": 0, "type": "channel", "subtype": "noteOff", "noteNumber": 33, "velocity": 64 }, { "deltaTime": 64, "channel": 0, "type": "channel", "noteNumber": 33, "velocity": 121, "subtype": "noteOn" }, { "deltaTime": 56, "channel": 0, "type": "channel", "subtype": "noteOff", "noteNumber": 33, "velocity": 64 }, { "deltaTime": 48, "channel": 0, "type": "channel", "noteNumber": 33, "velocity": 121, "subtype": "noteOn" }, { "deltaTime": 300, "channel": 0, "type": "channel", "subtype": "noteOff", "noteNumber": 33, "velocity": 64 }, { "deltaTime": 72, "channel": 0, "type": "channel", "noteNumber": 38, "velocity": 121, "subtype": "noteOn" }, { "deltaTime": 234, "channel": 0, "type": "channel", "subtype": "noteOff", "noteNumber": 38, "velocity": 64 }, { "deltaTime": 58, "channel": 0, "type": "channel", "noteNumber": 38, "velocity": 121, "subtype": "noteOn" }, { "deltaTime": 50, "channel": 0, "type": "channel", "subtype": "noteOff", "noteNumber": 38, "velocity": 64 }, { "deltaTime": 50, "channel": 0, "type": "channel", "noteNumber": 38, "velocity": 121, "subtype": "noteOn" }, { "deltaTime": 306, "channel": 0, "type": "channel", "subtype": "noteOff", "noteNumber": 38, "velocity": 64 }, { "deltaTime": 78, "channel": 0, "type": "channel", "noteNumber": 38, "velocity": 121, "subtype": "noteOn" }, { "deltaTime": 4, "channel": 0, "type": "channel", "subtype": "noteOff", "noteNumber": 38, "velocity": 64 }, { "deltaTime": 0, "channel": 0, "type": "channel", "noteNumber": 38, "velocity": 121, "subtype": "noteOn" }, { "deltaTime": 212, "channel": 0, "type": "channel", "subtype": "noteOff", "noteNumber": 38, "velocity": 64 }, { "deltaTime": 70, "channel": 0, "type": "channel", "noteNumber": 38, "velocity": 121, "subtype": "noteOn" }, { "deltaTime": 40, "channel": 0, "type": "channel", "subtype": "noteOff", "noteNumber": 38, "velocity": 64 }, { "deltaTime": 60, "channel": 0, "type": "channel", "noteNumber": 38, "velocity": 121, "subtype": "noteOn" }, { "deltaTime": 178, "channel": 0, "type": "channel", "subtype": "noteOff", "noteNumber": 38, "velocity": 64 }, { "deltaTime": 12, "channel": 0, "type": "channel", "noteNumber": 33, "velocity": 121, "subtype": "noteOn" }, { "deltaTime": 52, "channel": 0, "type": "channel", "subtype": "noteOff", "noteNumber": 33, "velocity": 64 }, { "deltaTime": 38, "channel": 0, "type": "channel", "noteNumber": 33, "velocity": 121, "subtype": "noteOn" }, { "deltaTime": 56, "channel": 0, "type": "channel", "subtype": "noteOff", "noteNumber": 33, "velocity": 64 }, { "deltaTime": 50, "channel": 0, "type": "channel", "noteNumber": 38, "velocity": 121, "subtype": "noteOn" }, { "deltaTime": 226, "channel": 0, "type": "channel", "subtype": "noteOff", "noteNumber": 38, "velocity": 64 }, { "deltaTime": 62, "channel": 0, "type": "channel", "noteNumber": 38, "velocity": 121, "subtype": "noteOn" }, { "deltaTime": 42, "channel": 0, "type": "channel", "subtype": "noteOff", "noteNumber": 38, "velocity": 64 }, { "deltaTime": 56, "channel": 0, "type": "channel", "noteNumber": 38, "velocity": 121, "subtype": "noteOn" }, { "deltaTime": 338, "channel": 0, "type": "channel", "subtype": "noteOff", "noteNumber": 38, "velocity": 64 }, { "deltaTime": 46, "channel": 0, "type": "channel", "noteNumber": 40, "velocity": 121, "subtype": "noteOn" }, { "deltaTime": 350, "channel": 0, "type": "channel", "subtype": "noteOff", "noteNumber": 40, "velocity": 64 }, { "deltaTime": 70, "channel": 0, "type": "channel", "noteNumber": 40, "velocity": 121, "subtype": "noteOn" }, { "deltaTime": 300, "channel": 0, "type": "channel", "subtype": "noteOff", "noteNumber": 40, "velocity": 64 }, { "deltaTime": 54, "channel": 0, "type": "channel", "noteNumber": 38, "velocity": 121, "subtype": "noteOn" }, { "deltaTime": 1430, "channel": 0, "type": "channel", "subtype": "noteOff", "noteNumber": 38, "velocity": 64 }, { "deltaTime": 0, "type": "meta", "subtype": "endOfTrack" }], [{ "deltaTime": 0, "type": "meta", "subtype": "unknown", "data": "\u0000" }, { "deltaTime": 0, "type": "meta", "subtype": "trackName", "text": "Melody.....         " }, { "deltaTime": 0, "channel": 8, "type": "channel", "subtype": "programChange", "programNumber": 107 }, { "deltaTime": 0, "channel": 8, "type": "channel", "subtype": "controller", "controllerType": 7, "value": 102 }, { "deltaTime": 0, "channel": 8, "type": "channel", "subtype": "controller", "controllerType": 10, "value": 64 }, { "deltaTime": 0, "channel": 8, "type": "channel", "subtype": "pitchBend", "value": 8192 }, { "deltaTime": 0, "channel": 8, "type": "channel", "subtype": "controller", "controllerType": 1, "value": 0 }, { "deltaTime": 0, "channel": 8, "type": "channel", "subtype": "controller", "controllerType": 64, "value": 0 }, { "deltaTime": 192, "channel": 8, "type": "channel", "subtype": "controller", "controllerType": 7, "value": 102 }, { "deltaTime": 3648, "channel": 8, "type": "channel", "noteNumber": 66, "velocity": 104, "subtype": "noteOn" }, { "deltaTime": 384, "channel": 8, "type": "channel", "noteNumber": 69, "velocity": 85, "subtype": "noteOn" }, { "deltaTime": 8, "channel": 8, "type": "channel", "subtype": "noteOff", "noteNumber": 66, "velocity": 64 }, { "deltaTime": 184, "channel": 8, "type": "channel", "noteNumber": 71, "velocity": 85, "subtype": "noteOn" }, { "deltaTime": 24, "channel": 8, "type": "channel", "subtype": "noteOff", "noteNumber": 69, "velocity": 64 }, { "deltaTime": 168, "channel": 8, "type": "channel", "subtype": "noteOff", "noteNumber": 71, "velocity": 64 }, { "deltaTime": 0, "channel": 8, "type": "channel", "noteNumber": 66, "velocity": 82, "subtype": "noteOn" }, { "deltaTime": 444, "channel": 8, "type": "channel", "subtype": "noteOff", "noteNumber": 66, "velocity": 64 }, { "deltaTime": 132, "channel": 8, "type": "channel", "noteNumber": 62, "velocity": 85, "subtype": "noteOn" }, { "deltaTime": 192, "channel": 8, "type": "channel", "noteNumber": 64, "velocity": 86, "subtype": "noteOn" }, { "deltaTime": 4, "channel": 8, "type": "channel", "subtype": "noteOff", "noteNumber": 62, "velocity": 64 }, { "deltaTime": 276, "channel": 8, "type": "channel", "subtype": "noteOff", "noteNumber": 64, "velocity": 64 }, { "deltaTime": 8, "channel": 8, "type": "channel", "noteNumber": 62, "velocity": 85, "subtype": "noteOn" }, { "deltaTime": 96, "channel": 8, "type": "channel", "subtype": "noteOff", "noteNumber": 62, "velocity": 64 }, { "deltaTime": 0, "channel": 8, "type": "channel", "noteNumber": 64, "velocity": 91, "subtype": "noteOn" }, { "deltaTime": 192, "channel": 8, "type": "channel", "subtype": "noteOff", "noteNumber": 64, "velocity": 64 }, { "deltaTime": 0, "channel": 8, "type": "channel", "noteNumber": 69, "velocity": 88, "subtype": "noteOn" }, { "deltaTime": 192, "channel": 8, "type": "channel", "subtype": "noteOff", "noteNumber": 69, "velocity": 64 }, { "deltaTime": 0, "channel": 8, "type": "channel", "noteNumber": 66, "velocity": 99, "subtype": "noteOn" }, { "deltaTime": 760, "channel": 8, "type": "channel", "subtype": "noteOff", "noteNumber": 66, "velocity": 64 }, { "deltaTime": 8, "channel": 8, "type": "channel", "noteNumber": 64, "velocity": 92, "subtype": "noteOn" }, { "deltaTime": 144, "channel": 8, "type": "channel", "subtype": "noteOff", "noteNumber": 64, "velocity": 64 }, { "deltaTime": 48, "channel": 8, "type": "channel", "noteNumber": 64, "velocity": 93, "subtype": "noteOn" }, { "deltaTime": 128, "channel": 8, "type": "channel", "subtype": "noteOff", "noteNumber": 64, "velocity": 64 }, { "deltaTime": 64, "channel": 8, "type": "channel", "noteNumber": 64, "velocity": 98, "subtype": "noteOn" }, { "deltaTime": 172, "channel": 8, "type": "channel", "subtype": "noteOff", "noteNumber": 64, "velocity": 64 }, { "deltaTime": 20, "channel": 8, "type": "channel", "noteNumber": 66, "velocity": 84, "subtype": "noteOn" }, { "deltaTime": 192, "channel": 8, "type": "channel", "subtype": "noteOff", "noteNumber": 66, "velocity": 64 }, { "deltaTime": 0, "channel": 8, "type": "channel", "noteNumber": 64, "velocity": 97, "subtype": "noteOn" }, { "deltaTime": 180, "channel": 8, "type": "channel", "subtype": "noteOff", "noteNumber": 64, "velocity": 64 }, { "deltaTime": 12, "channel": 8, "type": "channel", "noteNumber": 62, "velocity": 85, "subtype": "noteOn" }, { "deltaTime": 192, "channel": 8, "type": "channel", "noteNumber": 59, "velocity": 92, "subtype": "noteOn" }, { "deltaTime": 24, "channel": 8, "type": "channel", "subtype": "noteOff", "noteNumber": 62, "velocity": 64 }, { "deltaTime": 148, "channel": 8, "type": "channel", "subtype": "noteOff", "noteNumber": 59, "velocity": 64 }, { "deltaTime": 20, "channel": 8, "type": "channel", "noteNumber": 57, "velocity": 85, "subtype": "noteOn" }, { "deltaTime": 92, "channel": 8, "type": "channel", "subtype": "noteOff", "noteNumber": 57, "velocity": 64 }, { "deltaTime": 4, "channel": 8, "type": "channel", "noteNumber": 59, "velocity": 85, "subtype": "noteOn" }, { "deltaTime": 96, "channel": 8, "type": "channel", "noteNumber": 62, "velocity": 88, "subtype": "noteOn" }, { "deltaTime": 24, "channel": 8, "type": "channel", "subtype": "noteOff", "noteNumber": 59, "velocity": 64 }, { "deltaTime": 540, "channel": 8, "type": "channel", "subtype": "noteOff", "noteNumber": 62, "velocity": 64 }, { "deltaTime": 12, "channel": 8, "type": "channel", "noteNumber": 64, "velocity": 96, "subtype": "noteOn" }, { "deltaTime": 192, "channel": 8, "type": "channel", "subtype": "noteOff", "noteNumber": 64, "velocity": 64 }, { "deltaTime": 0, "channel": 8, "type": "channel", "noteNumber": 66, "velocity": 95, "subtype": "noteOn" }, { "deltaTime": 280, "channel": 8, "type": "channel", "subtype": "noteOff", "noteNumber": 66, "velocity": 64 }, { "deltaTime": 8, "channel": 8, "type": "channel", "noteNumber": 64, "velocity": 85, "subtype": "noteOn" }, { "deltaTime": 96, "channel": 8, "type": "channel", "subtype": "noteOff", "noteNumber": 64, "velocity": 64 }, { "deltaTime": 0, "channel": 8, "type": "channel", "noteNumber": 66, "velocity": 82, "subtype": "noteOn" }, { "deltaTime": 192, "channel": 8, "type": "channel", "noteNumber": 69, "velocity": 86, "subtype": "noteOn" }, { "deltaTime": 4, "channel": 8, "type": "channel", "subtype": "noteOff", "noteNumber": 66, "velocity": 64 }, { "deltaTime": 188, "channel": 8, "type": "channel", "subtype": "noteOff", "noteNumber": 69, "velocity": 64 }, { "deltaTime": 0, "channel": 8, "type": "channel", "noteNumber": 64, "velocity": 93, "subtype": "noteOn" }, { "deltaTime": 1408, "channel": 8, "type": "channel", "subtype": "noteOff", "noteNumber": 64, "velocity": 64 }, { "deltaTime": 128, "channel": 8, "type": "channel", "noteNumber": 66, "velocity": 112, "subtype": "noteOn" }, { "deltaTime": 384, "channel": 8, "type": "channel", "noteNumber": 69, "velocity": 92, "subtype": "noteOn" }, { "deltaTime": 20, "channel": 8, "type": "channel", "subtype": "noteOff", "noteNumber": 66, "velocity": 64 }, { "deltaTime": 168, "channel": 8, "type": "channel", "subtype": "noteOff", "noteNumber": 69, "velocity": 64 }, { "deltaTime": 4, "channel": 8, "type": "channel", "noteNumber": 71, "velocity": 89, "subtype": "noteOn" }, { "deltaTime": 184, "channel": 8, "type": "channel", "subtype": "noteOff", "noteNumber": 71, "velocity": 64 }, { "deltaTime": 8, "channel": 8, "type": "channel", "noteNumber": 66, "velocity": 91, "subtype": "noteOn" }, { "deltaTime": 444, "channel": 8, "type": "channel", "subtype": "noteOff", "noteNumber": 66, "velocity": 64 }, { "deltaTime": 132, "channel": 8, "type": "channel", "noteNumber": 62, "velocity": 85, "subtype": "noteOn" }, { "deltaTime": 192, "channel": 8, "type": "channel", "subtype": "noteOff", "noteNumber": 62, "velocity": 64 }, { "deltaTime": 0, "channel": 8, "type": "channel", "noteNumber": 64, "velocity": 85, "subtype": "noteOn" }, { "deltaTime": 280, "channel": 8, "type": "channel", "subtype": "noteOff", "noteNumber": 64, "velocity": 64 }, { "deltaTime": 8, "channel": 8, "type": "channel", "noteNumber": 62, "velocity": 85, "subtype": "noteOn" }, { "deltaTime": 96, "channel": 8, "type": "channel", "noteNumber": 64, "velocity": 85, "subtype": "noteOn" }, { "deltaTime": 4, "channel": 8, "type": "channel", "subtype": "noteOff", "noteNumber": 62, "velocity": 64 }, { "deltaTime": 188, "channel": 8, "type": "channel", "noteNumber": 69, "velocity": 88, "subtype": "noteOn" }, { "deltaTime": 8, "channel": 8, "type": "channel", "subtype": "noteOff", "noteNumber": 64, "velocity": 64 }, { "deltaTime": 184, "channel": 8, "type": "channel", "noteNumber": 66, "velocity": 95, "subtype": "noteOn" }, { "deltaTime": 12, "channel": 8, "type": "channel", "subtype": "noteOff", "noteNumber": 69, "velocity": 64 }, { "deltaTime": 756, "channel": 8, "type": "channel", "subtype": "noteOff", "noteNumber": 66, "velocity": 64 }, { "deltaTime": 0, "channel": 8, "type": "channel", "noteNumber": 64, "velocity": 91, "subtype": "noteOn" }, { "deltaTime": 148, "channel": 8, "type": "channel", "subtype": "noteOff", "noteNumber": 64, "velocity": 64 }, { "deltaTime": 44, "channel": 8, "type": "channel", "noteNumber": 64, "velocity": 86, "subtype": "noteOn" }, { "deltaTime": 148, "channel": 8, "type": "channel", "subtype": "noteOff", "noteNumber": 64, "velocity": 64 }, { "deltaTime": 44, "channel": 8, "type": "channel", "noteNumber": 64, "velocity": 88, "subtype": "noteOn" }, { "deltaTime": 192, "channel": 8, "type": "channel", "noteNumber": 66, "velocity": 86, "subtype": "noteOn" }, { "deltaTime": 4, "channel": 8, "type": "channel", "subtype": "noteOff", "noteNumber": 64, "velocity": 64 }, { "deltaTime": 188, "channel": 8, "type": "channel", "subtype": "noteOff", "noteNumber": 66, "velocity": 64 }, { "deltaTime": 0, "channel": 8, "type": "channel", "noteNumber": 64, "velocity": 97, "subtype": "noteOn" }, { "deltaTime": 192, "channel": 8, "type": "channel", "subtype": "noteOff", "noteNumber": 64, "velocity": 64 }, { "deltaTime": 0, "channel": 8, "type": "channel", "noteNumber": 62, "velocity": 85, "subtype": "noteOn" }, { "deltaTime": 192, "channel": 8, "type": "channel", "noteNumber": 59, "velocity": 85, "subtype": "noteOn" }, { "deltaTime": 4, "channel": 8, "type": "channel", "subtype": "noteOff", "noteNumber": 62, "velocity": 64 }, { "deltaTime": 188, "channel": 8, "type": "channel", "subtype": "noteOff", "noteNumber": 59, "velocity": 64 }, { "deltaTime": 0, "channel": 8, "type": "channel", "noteNumber": 57, "velocity": 85, "subtype": "noteOn" }, { "deltaTime": 96, "channel": 8, "type": "channel", "noteNumber": 59, "velocity": 85, "subtype": "noteOn" }, { "deltaTime": 8, "channel": 8, "type": "channel", "subtype": "noteOff", "noteNumber": 57, "velocity": 64 }, { "deltaTime": 88, "channel": 8, "type": "channel", "noteNumber": 62, "velocity": 85, "subtype": "noteOn" }, { "deltaTime": 20, "channel": 8, "type": "channel", "subtype": "noteOff", "noteNumber": 59, "velocity": 64 }, { "deltaTime": 412, "channel": 8, "type": "channel", "subtype": "noteOff", "noteNumber": 62, "velocity": 64 }, { "deltaTime": 144, "channel": 8, "type": "channel", "noteNumber": 66, "velocity": 88, "subtype": "noteOn" }, { "deltaTime": 192, "channel": 8, "type": "channel", "subtype": "noteOff", "noteNumber": 66, "velocity": 64 }, { "deltaTime": 0, "channel": 8, "type": "channel", "noteNumber": 64, "velocity": 88, "subtype": "noteOn" }, { "deltaTime": 192, "channel": 8, "type": "channel", "subtype": "noteOff", "noteNumber": 64, "velocity": 64 }, { "deltaTime": 0, "channel": 8, "type": "channel", "noteNumber": 62, "velocity": 88, "subtype": "noteOn" }, { "deltaTime": 192, "channel": 8, "type": "channel", "subtype": "noteOff", "noteNumber": 62, "velocity": 64 }, { "deltaTime": 0, "channel": 8, "type": "channel", "noteNumber": 59, "velocity": 88, "subtype": "noteOn" }, { "deltaTime": 192, "channel": 8, "type": "channel", "subtype": "noteOff", "noteNumber": 59, "velocity": 64 }, { "deltaTime": 0, "channel": 8, "type": "channel", "noteNumber": 57, "velocity": 85, "subtype": "noteOn" }, { "deltaTime": 88, "channel": 8, "type": "channel", "subtype": "noteOff", "noteNumber": 57, "velocity": 64 }, { "deltaTime": 8, "channel": 8, "type": "channel", "noteNumber": 59, "velocity": 85, "subtype": "noteOn" }, { "deltaTime": 88, "channel": 8, "type": "channel", "subtype": "noteOff", "noteNumber": 59, "velocity": 64 }, { "deltaTime": 8, "channel": 8, "type": "channel", "noteNumber": 62, "velocity": 92, "subtype": "noteOn" }, { "deltaTime": 1376, "channel": 8, "type": "channel", "subtype": "noteOff", "noteNumber": 62, "velocity": 64 }, { "deltaTime": 160, "channel": 8, "type": "channel", "noteNumber": 66, "velocity": 107, "subtype": "noteOn" }, { "deltaTime": 760, "channel": 8, "type": "channel", "subtype": "noteOff", "noteNumber": 66, "velocity": 64 }, { "deltaTime": 8, "channel": 8, "type": "channel", "noteNumber": 57, "velocity": 85, "subtype": "noteOn" }, { "deltaTime": 384, "channel": 8, "type": "channel", "noteNumber": 59, "velocity": 85, "subtype": "noteOn" }, { "deltaTime": 8, "channel": 8, "type": "channel", "subtype": "noteOff", "noteNumber": 57, "velocity": 64 }, { "deltaTime": 180, "channel": 8, "type": "channel", "subtype": "noteOff", "noteNumber": 59, "velocity": 64 }, { "deltaTime": 4, "channel": 8, "type": "channel", "noteNumber": 57, "velocity": 85, "subtype": "noteOn" }, { "deltaTime": 88, "channel": 8, "type": "channel", "subtype": "noteOff", "noteNumber": 57, "velocity": 64 }, { "deltaTime": 8, "channel": 8, "type": "channel", "noteNumber": 59, "velocity": 85, "subtype": "noteOn" }, { "deltaTime": 96, "channel": 8, "type": "channel", "noteNumber": 62, "velocity": 88, "subtype": "noteOn" }, { "deltaTime": 12, "channel": 8, "type": "channel", "subtype": "noteOff", "noteNumber": 59, "velocity": 64 }, { "deltaTime": 1524, "channel": 8, "type": "channel", "subtype": "noteOff", "noteNumber": 62, "velocity": 64 }, { "deltaTime": 0, "channel": 8, "type": "channel", "noteNumber": 59, "velocity": 88, "subtype": "noteOn" }, { "deltaTime": 188, "channel": 8, "type": "channel", "subtype": "noteOff", "noteNumber": 59, "velocity": 64 }, { "deltaTime": 4, "channel": 8, "type": "channel", "noteNumber": 62, "velocity": 97, "subtype": "noteOn" }, { "deltaTime": 192, "channel": 8, "type": "channel", "noteNumber": 59, "velocity": 95, "subtype": "noteOn" }, { "deltaTime": 8, "channel": 8, "type": "channel", "subtype": "noteOff", "noteNumber": 62, "velocity": 64 }, { "deltaTime": 180, "channel": 8, "type": "channel", "subtype": "noteOff", "noteNumber": 59, "velocity": 64 }, { "deltaTime": 4, "channel": 8, "type": "channel", "noteNumber": 62, "velocity": 97, "subtype": "noteOn" }, { "deltaTime": 192, "channel": 8, "type": "channel", "noteNumber": 59, "velocity": 96, "subtype": "noteOn" }, { "deltaTime": 8, "channel": 8, "type": "channel", "subtype": "noteOff", "noteNumber": 62, "velocity": 64 }, { "deltaTime": 176, "channel": 8, "type": "channel", "subtype": "noteOff", "noteNumber": 59, "velocity": 64 }, { "deltaTime": 8, "channel": 8, "type": "channel", "noteNumber": 62, "velocity": 97, "subtype": "noteOn" }, { "deltaTime": 192, "channel": 8, "type": "channel", "noteNumber": 59, "velocity": 103, "subtype": "noteOn" }, { "deltaTime": 16, "channel": 8, "type": "channel", "subtype": "noteOff", "noteNumber": 62, "velocity": 64 }, { "deltaTime": 172, "channel": 8, "type": "channel", "subtype": "noteOff", "noteNumber": 59, "velocity": 64 }, { "deltaTime": 4, "channel": 8, "type": "channel", "noteNumber": 57, "velocity": 88, "subtype": "noteOn" }, { "deltaTime": 16, "channel": 8, "type": "channel", "subtype": "noteOff", "noteNumber": 57, "velocity": 64 }, { "deltaTime": 176, "channel": 8, "type": "channel", "noteNumber": 66, "velocity": 122, "subtype": "noteOn" }, { "deltaTime": 1172, "channel": 8, "type": "channel", "subtype": "noteOff", "noteNumber": 66, "velocity": 64 }, { "deltaTime": 364, "channel": 8, "type": "channel", "noteNumber": 59, "velocity": 98, "subtype": "noteOn" }, { "deltaTime": 192, "channel": 8, "type": "channel", "noteNumber": 62, "velocity": 95, "subtype": "noteOn" }, { "deltaTime": 8, "channel": 8, "type": "channel", "subtype": "noteOff", "noteNumber": 59, "velocity": 64 }, { "deltaTime": 184, "channel": 8, "type": "channel", "noteNumber": 59, "velocity": 98, "subtype": "noteOn" }, { "deltaTime": 8, "channel": 8, "type": "channel", "subtype": "noteOff", "noteNumber": 62, "velocity": 64 }, { "deltaTime": 184, "channel": 8, "type": "channel", "noteNumber": 62, "velocity": 93, "subtype": "noteOn" }, { "deltaTime": 4, "channel": 8, "type": "channel", "subtype": "noteOff", "noteNumber": 59, "velocity": 64 }, { "deltaTime": 188, "channel": 8, "type": "channel", "noteNumber": 59, "velocity": 96, "subtype": "noteOn" }, { "deltaTime": 8, "channel": 8, "type": "channel", "subtype": "noteOff", "noteNumber": 62, "velocity": 64 }, { "deltaTime": 180, "channel": 8, "type": "channel", "subtype": "noteOff", "noteNumber": 59, "velocity": 64 }, { "deltaTime": 4, "channel": 8, "type": "channel", "noteNumber": 62, "velocity": 96, "subtype": "noteOn" }, { "deltaTime": 192, "channel": 8, "type": "channel", "subtype": "noteOff", "noteNumber": 62, "velocity": 64 }, { "deltaTime": 0, "channel": 8, "type": "channel", "noteNumber": 59, "velocity": 106, "subtype": "noteOn" }, { "deltaTime": 184, "channel": 8, "type": "channel", "subtype": "noteOff", "noteNumber": 59, "velocity": 64 }, { "deltaTime": 8, "channel": 8, "type": "channel", "noteNumber": 57, "velocity": 91, "subtype": "noteOn" }, { "deltaTime": 192, "channel": 8, "type": "channel", "noteNumber": 66, "velocity": 107, "subtype": "noteOn" }, { "deltaTime": 12, "channel": 8, "type": "channel", "subtype": "noteOff", "noteNumber": 57, "velocity": 64 }, { "deltaTime": 752, "channel": 8, "type": "channel", "subtype": "noteOff", "noteNumber": 66, "velocity": 64 }, { "deltaTime": 484, "channel": 8, "type": "channel", "noteNumber": 69, "velocity": 114, "subtype": "noteOn" }, { "deltaTime": 168, "channel": 8, "type": "channel", "subtype": "noteOff", "noteNumber": 69, "velocity": 64 }, { "deltaTime": 24, "channel": 8, "type": "channel", "noteNumber": 71, "velocity": 97, "subtype": "noteOn" }, { "deltaTime": 68, "channel": 8, "type": "channel", "subtype": "noteOff", "noteNumber": 71, "velocity": 64 }, { "deltaTime": 28, "channel": 8, "type": "channel", "noteNumber": 69, "velocity": 120, "subtype": "noteOn" }, { "deltaTime": 540, "channel": 8, "type": "channel", "subtype": "noteOff", "noteNumber": 69, "velocity": 64 }, { "deltaTime": 36, "channel": 8, "type": "channel", "noteNumber": 71, "velocity": 120, "subtype": "noteOn" }, { "deltaTime": 36, "channel": 8, "type": "channel", "subtype": "noteOff", "noteNumber": 71, "velocity": 64 }, { "deltaTime": 156, "channel": 8, "type": "channel", "noteNumber": 69, "velocity": 123, "subtype": "noteOn" }, { "deltaTime": 508, "channel": 8, "type": "channel", "subtype": "noteOff", "noteNumber": 69, "velocity": 64 }, { "deltaTime": 68, "channel": 8, "type": "channel", "noteNumber": 71, "velocity": 117, "subtype": "noteOn" }, { "deltaTime": 36, "channel": 8, "type": "channel", "subtype": "noteOff", "noteNumber": 71, "velocity": 64 }, { "deltaTime": 156, "channel": 8, "type": "channel", "noteNumber": 69, "velocity": 117, "subtype": "noteOn" }, { "deltaTime": 40, "channel": 8, "type": "channel", "subtype": "noteOff", "noteNumber": 69, "velocity": 64 }, { "deltaTime": 152, "channel": 8, "type": "channel", "noteNumber": 71, "velocity": 120, "subtype": "noteOn" }, { "deltaTime": 28, "channel": 8, "type": "channel", "subtype": "noteOff", "noteNumber": 71, "velocity": 64 }, { "deltaTime": 164, "channel": 8, "type": "channel", "noteNumber": 69, "velocity": 117, "subtype": "noteOn" }, { "deltaTime": 32, "channel": 8, "type": "channel", "subtype": "noteOff", "noteNumber": 69, "velocity": 64 }, { "deltaTime": 160, "channel": 8, "type": "channel", "noteNumber": 71, "velocity": 114, "subtype": "noteOn" }, { "deltaTime": 68, "channel": 8, "type": "channel", "subtype": "noteOff", "noteNumber": 71, "velocity": 64 }, { "deltaTime": 124, "channel": 8, "type": "channel", "noteNumber": 69, "velocity": 120, "subtype": "noteOn" }, { "deltaTime": 740, "channel": 8, "type": "channel", "subtype": "noteOff", "noteNumber": 69, "velocity": 64 }, { "deltaTime": 28, "channel": 8, "type": "channel", "noteNumber": 66, "velocity": 112, "subtype": "noteOn" }, { "deltaTime": 384, "channel": 8, "type": "channel", "noteNumber": 69, "velocity": 92, "subtype": "noteOn" }, { "deltaTime": 20, "channel": 8, "type": "channel", "subtype": "noteOff", "noteNumber": 66, "velocity": 64 }, { "deltaTime": 168, "channel": 8, "type": "channel", "subtype": "noteOff", "noteNumber": 69, "velocity": 64 }, { "deltaTime": 4, "channel": 8, "type": "channel", "noteNumber": 71, "velocity": 89, "subtype": "noteOn" }, { "deltaTime": 184, "channel": 8, "type": "channel", "subtype": "noteOff", "noteNumber": 71, "velocity": 64 }, { "deltaTime": 8, "channel": 8, "type": "channel", "noteNumber": 66, "velocity": 91, "subtype": "noteOn" }, { "deltaTime": 444, "channel": 8, "type": "channel", "subtype": "noteOff", "noteNumber": 66, "velocity": 64 }, { "deltaTime": 132, "channel": 8, "type": "channel", "noteNumber": 62, "velocity": 85, "subtype": "noteOn" }, { "deltaTime": 192, "channel": 8, "type": "channel", "subtype": "noteOff", "noteNumber": 62, "velocity": 64 }, { "deltaTime": 0, "channel": 8, "type": "channel", "noteNumber": 64, "velocity": 85, "subtype": "noteOn" }, { "deltaTime": 280, "channel": 8, "type": "channel", "subtype": "noteOff", "noteNumber": 64, "velocity": 64 }, { "deltaTime": 8, "channel": 8, "type": "channel", "noteNumber": 62, "velocity": 85, "subtype": "noteOn" }, { "deltaTime": 96, "channel": 8, "type": "channel", "noteNumber": 64, "velocity": 85, "subtype": "noteOn" }, { "deltaTime": 4, "channel": 8, "type": "channel", "subtype": "noteOff", "noteNumber": 62, "velocity": 64 }, { "deltaTime": 188, "channel": 8, "type": "channel", "noteNumber": 69, "velocity": 88, "subtype": "noteOn" }, { "deltaTime": 8, "channel": 8, "type": "channel", "subtype": "noteOff", "noteNumber": 64, "velocity": 64 }, { "deltaTime": 184, "channel": 8, "type": "channel", "noteNumber": 66, "velocity": 95, "subtype": "noteOn" }, { "deltaTime": 12, "channel": 8, "type": "channel", "subtype": "noteOff", "noteNumber": 69, "velocity": 64 }, { "deltaTime": 756, "channel": 8, "type": "channel", "subtype": "noteOff", "noteNumber": 66, "velocity": 64 }, { "deltaTime": 0, "channel": 8, "type": "channel", "noteNumber": 64, "velocity": 91, "subtype": "noteOn" }, { "deltaTime": 148, "channel": 8, "type": "channel", "subtype": "noteOff", "noteNumber": 64, "velocity": 64 }, { "deltaTime": 44, "channel": 8, "type": "channel", "noteNumber": 64, "velocity": 86, "subtype": "noteOn" }, { "deltaTime": 148, "channel": 8, "type": "channel", "subtype": "noteOff", "noteNumber": 64, "velocity": 64 }, { "deltaTime": 44, "channel": 8, "type": "channel", "noteNumber": 64, "velocity": 88, "subtype": "noteOn" }, { "deltaTime": 192, "channel": 8, "type": "channel", "noteNumber": 66, "velocity": 86, "subtype": "noteOn" }, { "deltaTime": 4, "channel": 8, "type": "channel", "subtype": "noteOff", "noteNumber": 64, "velocity": 64 }, { "deltaTime": 188, "channel": 8, "type": "channel", "subtype": "noteOff", "noteNumber": 66, "velocity": 64 }, { "deltaTime": 0, "channel": 8, "type": "channel", "noteNumber": 64, "velocity": 97, "subtype": "noteOn" }, { "deltaTime": 192, "channel": 8, "type": "channel", "subtype": "noteOff", "noteNumber": 64, "velocity": 64 }, { "deltaTime": 0, "channel": 8, "type": "channel", "noteNumber": 62, "velocity": 85, "subtype": "noteOn" }, { "deltaTime": 192, "channel": 8, "type": "channel", "noteNumber": 59, "velocity": 85, "subtype": "noteOn" }, { "deltaTime": 4, "channel": 8, "type": "channel", "subtype": "noteOff", "noteNumber": 62, "velocity": 64 }, { "deltaTime": 188, "channel": 8, "type": "channel", "subtype": "noteOff", "noteNumber": 59, "velocity": 64 }, { "deltaTime": 0, "channel": 8, "type": "channel", "noteNumber": 57, "velocity": 85, "subtype": "noteOn" }, { "deltaTime": 96, "channel": 8, "type": "channel", "noteNumber": 59, "velocity": 85, "subtype": "noteOn" }, { "deltaTime": 8, "channel": 8, "type": "channel", "subtype": "noteOff", "noteNumber": 57, "velocity": 64 }, { "deltaTime": 88, "channel": 8, "type": "channel", "noteNumber": 62, "velocity": 85, "subtype": "noteOn" }, { "deltaTime": 20, "channel": 8, "type": "channel", "subtype": "noteOff", "noteNumber": 59, "velocity": 64 }, { "deltaTime": 412, "channel": 8, "type": "channel", "subtype": "noteOff", "noteNumber": 62, "velocity": 64 }, { "deltaTime": 144, "channel": 8, "type": "channel", "noteNumber": 66, "velocity": 88, "subtype": "noteOn" }, { "deltaTime": 192, "channel": 8, "type": "channel", "subtype": "noteOff", "noteNumber": 66, "velocity": 64 }, { "deltaTime": 0, "channel": 8, "type": "channel", "noteNumber": 64, "velocity": 88, "subtype": "noteOn" }, { "deltaTime": 192, "channel": 8, "type": "channel", "subtype": "noteOff", "noteNumber": 64, "velocity": 64 }, { "deltaTime": 0, "channel": 8, "type": "channel", "noteNumber": 62, "velocity": 88, "subtype": "noteOn" }, { "deltaTime": 192, "channel": 8, "type": "channel", "subtype": "noteOff", "noteNumber": 62, "velocity": 64 }, { "deltaTime": 0, "channel": 8, "type": "channel", "noteNumber": 59, "velocity": 88, "subtype": "noteOn" }, { "deltaTime": 192, "channel": 8, "type": "channel", "subtype": "noteOff", "noteNumber": 59, "velocity": 64 }, { "deltaTime": 0, "channel": 8, "type": "channel", "noteNumber": 57, "velocity": 85, "subtype": "noteOn" }, { "deltaTime": 88, "channel": 8, "type": "channel", "subtype": "noteOff", "noteNumber": 57, "velocity": 64 }, { "deltaTime": 8, "channel": 8, "type": "channel", "noteNumber": 59, "velocity": 85, "subtype": "noteOn" }, { "deltaTime": 88, "channel": 8, "type": "channel", "subtype": "noteOff", "noteNumber": 59, "velocity": 64 }, { "deltaTime": 8, "channel": 8, "type": "channel", "noteNumber": 62, "velocity": 92, "subtype": "noteOn" }, { "deltaTime": 1376, "channel": 8, "type": "channel", "subtype": "noteOff", "noteNumber": 62, "velocity": 64 }, { "deltaTime": 160, "channel": 8, "type": "channel", "noteNumber": 66, "velocity": 107, "subtype": "noteOn" }, { "deltaTime": 760, "channel": 8, "type": "channel", "subtype": "noteOff", "noteNumber": 66, "velocity": 64 }, { "deltaTime": 8, "channel": 8, "type": "channel", "noteNumber": 57, "velocity": 85, "subtype": "noteOn" }, { "deltaTime": 384, "channel": 8, "type": "channel", "noteNumber": 59, "velocity": 85, "subtype": "noteOn" }, { "deltaTime": 8, "channel": 8, "type": "channel", "subtype": "noteOff", "noteNumber": 57, "velocity": 64 }, { "deltaTime": 180, "channel": 8, "type": "channel", "subtype": "noteOff", "noteNumber": 59, "velocity": 64 }, { "deltaTime": 4, "channel": 8, "type": "channel", "noteNumber": 57, "velocity": 85, "subtype": "noteOn" }, { "deltaTime": 88, "channel": 8, "type": "channel", "subtype": "noteOff", "noteNumber": 57, "velocity": 64 }, { "deltaTime": 8, "channel": 8, "type": "channel", "noteNumber": 59, "velocity": 85, "subtype": "noteOn" }, { "deltaTime": 96, "channel": 8, "type": "channel", "noteNumber": 62, "velocity": 88, "subtype": "noteOn" }, { "deltaTime": 12, "channel": 8, "type": "channel", "subtype": "noteOff", "noteNumber": 59, "velocity": 64 }, { "deltaTime": 1524, "channel": 8, "type": "channel", "subtype": "noteOff", "noteNumber": 62, "velocity": 64 }, { "deltaTime": 7680, "channel": 8, "type": "channel", "noteNumber": 66, "velocity": 112, "subtype": "noteOn" }, { "deltaTime": 384, "channel": 8, "type": "channel", "noteNumber": 69, "velocity": 92, "subtype": "noteOn" }, { "deltaTime": 20, "channel": 8, "type": "channel", "subtype": "noteOff", "noteNumber": 66, "velocity": 64 }, { "deltaTime": 168, "channel": 8, "type": "channel", "subtype": "noteOff", "noteNumber": 69, "velocity": 64 }, { "deltaTime": 4, "channel": 8, "type": "channel", "noteNumber": 71, "velocity": 89, "subtype": "noteOn" }, { "deltaTime": 184, "channel": 8, "type": "channel", "subtype": "noteOff", "noteNumber": 71, "velocity": 64 }, { "deltaTime": 8, "channel": 8, "type": "channel", "noteNumber": 66, "velocity": 91, "subtype": "noteOn" }, { "deltaTime": 444, "channel": 8, "type": "channel", "subtype": "noteOff", "noteNumber": 66, "velocity": 64 }, { "deltaTime": 132, "channel": 8, "type": "channel", "noteNumber": 62, "velocity": 85, "subtype": "noteOn" }, { "deltaTime": 192, "channel": 8, "type": "channel", "subtype": "noteOff", "noteNumber": 62, "velocity": 64 }, { "deltaTime": 0, "channel": 8, "type": "channel", "noteNumber": 64, "velocity": 85, "subtype": "noteOn" }, { "deltaTime": 280, "channel": 8, "type": "channel", "subtype": "noteOff", "noteNumber": 64, "velocity": 64 }, { "deltaTime": 8, "channel": 8, "type": "channel", "noteNumber": 62, "velocity": 85, "subtype": "noteOn" }, { "deltaTime": 96, "channel": 8, "type": "channel", "noteNumber": 64, "velocity": 85, "subtype": "noteOn" }, { "deltaTime": 4, "channel": 8, "type": "channel", "subtype": "noteOff", "noteNumber": 62, "velocity": 64 }, { "deltaTime": 188, "channel": 8, "type": "channel", "noteNumber": 69, "velocity": 88, "subtype": "noteOn" }, { "deltaTime": 8, "channel": 8, "type": "channel", "subtype": "noteOff", "noteNumber": 64, "velocity": 64 }, { "deltaTime": 184, "channel": 8, "type": "channel", "noteNumber": 66, "velocity": 95, "subtype": "noteOn" }, { "deltaTime": 12, "channel": 8, "type": "channel", "subtype": "noteOff", "noteNumber": 69, "velocity": 64 }, { "deltaTime": 756, "channel": 8, "type": "channel", "subtype": "noteOff", "noteNumber": 66, "velocity": 64 }, { "deltaTime": 0, "channel": 8, "type": "channel", "noteNumber": 64, "velocity": 91, "subtype": "noteOn" }, { "deltaTime": 148, "channel": 8, "type": "channel", "subtype": "noteOff", "noteNumber": 64, "velocity": 64 }, { "deltaTime": 44, "channel": 8, "type": "channel", "noteNumber": 64, "velocity": 86, "subtype": "noteOn" }, { "deltaTime": 148, "channel": 8, "type": "channel", "subtype": "noteOff", "noteNumber": 64, "velocity": 64 }, { "deltaTime": 44, "channel": 8, "type": "channel", "noteNumber": 64, "velocity": 88, "subtype": "noteOn" }, { "deltaTime": 192, "channel": 8, "type": "channel", "noteNumber": 66, "velocity": 86, "subtype": "noteOn" }, { "deltaTime": 4, "channel": 8, "type": "channel", "subtype": "noteOff", "noteNumber": 64, "velocity": 64 }, { "deltaTime": 188, "channel": 8, "type": "channel", "subtype": "noteOff", "noteNumber": 66, "velocity": 64 }, { "deltaTime": 0, "channel": 8, "type": "channel", "noteNumber": 64, "velocity": 97, "subtype": "noteOn" }, { "deltaTime": 192, "channel": 8, "type": "channel", "subtype": "noteOff", "noteNumber": 64, "velocity": 64 }, { "deltaTime": 0, "channel": 8, "type": "channel", "noteNumber": 62, "velocity": 85, "subtype": "noteOn" }, { "deltaTime": 192, "channel": 8, "type": "channel", "noteNumber": 59, "velocity": 85, "subtype": "noteOn" }, { "deltaTime": 4, "channel": 8, "type": "channel", "subtype": "noteOff", "noteNumber": 62, "velocity": 64 }, { "deltaTime": 188, "channel": 8, "type": "channel", "subtype": "noteOff", "noteNumber": 59, "velocity": 64 }, { "deltaTime": 0, "channel": 8, "type": "channel", "noteNumber": 57, "velocity": 85, "subtype": "noteOn" }, { "deltaTime": 96, "channel": 8, "type": "channel", "noteNumber": 59, "velocity": 85, "subtype": "noteOn" }, { "deltaTime": 8, "channel": 8, "type": "channel", "subtype": "noteOff", "noteNumber": 57, "velocity": 64 }, { "deltaTime": 88, "channel": 8, "type": "channel", "noteNumber": 62, "velocity": 85, "subtype": "noteOn" }, { "deltaTime": 20, "channel": 8, "type": "channel", "subtype": "noteOff", "noteNumber": 59, "velocity": 64 }, { "deltaTime": 412, "channel": 8, "type": "channel", "subtype": "noteOff", "noteNumber": 62, "velocity": 64 }, { "deltaTime": 144, "channel": 8, "type": "channel", "noteNumber": 66, "velocity": 88, "subtype": "noteOn" }, { "deltaTime": 192, "channel": 8, "type": "channel", "subtype": "noteOff", "noteNumber": 66, "velocity": 64 }, { "deltaTime": 0, "channel": 8, "type": "channel", "noteNumber": 64, "velocity": 88, "subtype": "noteOn" }, { "deltaTime": 192, "channel": 8, "type": "channel", "subtype": "noteOff", "noteNumber": 64, "velocity": 64 }, { "deltaTime": 0, "channel": 8, "type": "channel", "noteNumber": 62, "velocity": 88, "subtype": "noteOn" }, { "deltaTime": 192, "channel": 8, "type": "channel", "subtype": "noteOff", "noteNumber": 62, "velocity": 64 }, { "deltaTime": 0, "channel": 8, "type": "channel", "noteNumber": 59, "velocity": 88, "subtype": "noteOn" }, { "deltaTime": 192, "channel": 8, "type": "channel", "subtype": "noteOff", "noteNumber": 59, "velocity": 64 }, { "deltaTime": 0, "channel": 8, "type": "channel", "noteNumber": 57, "velocity": 85, "subtype": "noteOn" }, { "deltaTime": 88, "channel": 8, "type": "channel", "subtype": "noteOff", "noteNumber": 57, "velocity": 64 }, { "deltaTime": 8, "channel": 8, "type": "channel", "noteNumber": 59, "velocity": 85, "subtype": "noteOn" }, { "deltaTime": 88, "channel": 8, "type": "channel", "subtype": "noteOff", "noteNumber": 59, "velocity": 64 }, { "deltaTime": 8, "channel": 8, "type": "channel", "noteNumber": 62, "velocity": 92, "subtype": "noteOn" }, { "deltaTime": 1376, "channel": 8, "type": "channel", "subtype": "noteOff", "noteNumber": 62, "velocity": 64 }, { "deltaTime": 160, "channel": 8, "type": "channel", "noteNumber": 66, "velocity": 107, "subtype": "noteOn" }, { "deltaTime": 760, "channel": 8, "type": "channel", "subtype": "noteOff", "noteNumber": 66, "velocity": 64 }, { "deltaTime": 8, "channel": 8, "type": "channel", "noteNumber": 57, "velocity": 85, "subtype": "noteOn" }, { "deltaTime": 384, "channel": 8, "type": "channel", "noteNumber": 59, "velocity": 85, "subtype": "noteOn" }, { "deltaTime": 8, "channel": 8, "type": "channel", "subtype": "noteOff", "noteNumber": 57, "velocity": 64 }, { "deltaTime": 180, "channel": 8, "type": "channel", "subtype": "noteOff", "noteNumber": 59, "velocity": 64 }, { "deltaTime": 4, "channel": 8, "type": "channel", "noteNumber": 57, "velocity": 85, "subtype": "noteOn" }, { "deltaTime": 88, "channel": 8, "type": "channel", "subtype": "noteOff", "noteNumber": 57, "velocity": 64 }, { "deltaTime": 8, "channel": 8, "type": "channel", "noteNumber": 59, "velocity": 85, "subtype": "noteOn" }, { "deltaTime": 96, "channel": 8, "type": "channel", "noteNumber": 62, "velocity": 88, "subtype": "noteOn" }, { "deltaTime": 12, "channel": 8, "type": "channel", "subtype": "noteOff", "noteNumber": 59, "velocity": 64 }, { "deltaTime": 1524, "channel": 8, "type": "channel", "subtype": "noteOff", "noteNumber": 62, "velocity": 64 }, { "deltaTime": 0, "channel": 8, "type": "channel", "noteNumber": 59, "velocity": 88, "subtype": "noteOn" }, { "deltaTime": 188, "channel": 8, "type": "channel", "subtype": "noteOff", "noteNumber": 59, "velocity": 64 }, { "deltaTime": 4, "channel": 8, "type": "channel", "noteNumber": 62, "velocity": 97, "subtype": "noteOn" }, { "deltaTime": 192, "channel": 8, "type": "channel", "noteNumber": 59, "velocity": 95, "subtype": "noteOn" }, { "deltaTime": 8, "channel": 8, "type": "channel", "subtype": "noteOff", "noteNumber": 62, "velocity": 64 }, { "deltaTime": 180, "channel": 8, "type": "channel", "subtype": "noteOff", "noteNumber": 59, "velocity": 64 }, { "deltaTime": 4, "channel": 8, "type": "channel", "noteNumber": 62, "velocity": 97, "subtype": "noteOn" }, { "deltaTime": 192, "channel": 8, "type": "channel", "noteNumber": 59, "velocity": 96, "subtype": "noteOn" }, { "deltaTime": 8, "channel": 8, "type": "channel", "subtype": "noteOff", "noteNumber": 62, "velocity": 64 }, { "deltaTime": 176, "channel": 8, "type": "channel", "subtype": "noteOff", "noteNumber": 59, "velocity": 64 }, { "deltaTime": 8, "channel": 8, "type": "channel", "noteNumber": 62, "velocity": 97, "subtype": "noteOn" }, { "deltaTime": 192, "channel": 8, "type": "channel", "noteNumber": 59, "velocity": 103, "subtype": "noteOn" }, { "deltaTime": 16, "channel": 8, "type": "channel", "subtype": "noteOff", "noteNumber": 62, "velocity": 64 }, { "deltaTime": 172, "channel": 8, "type": "channel", "subtype": "noteOff", "noteNumber": 59, "velocity": 64 }, { "deltaTime": 4, "channel": 8, "type": "channel", "noteNumber": 57, "velocity": 88, "subtype": "noteOn" }, { "deltaTime": 16, "channel": 8, "type": "channel", "subtype": "noteOff", "noteNumber": 57, "velocity": 64 }, { "deltaTime": 176, "channel": 8, "type": "channel", "noteNumber": 66, "velocity": 122, "subtype": "noteOn" }, { "deltaTime": 1172, "channel": 8, "type": "channel", "subtype": "noteOff", "noteNumber": 66, "velocity": 64 }, { "deltaTime": 364, "channel": 8, "type": "channel", "noteNumber": 59, "velocity": 98, "subtype": "noteOn" }, { "deltaTime": 192, "channel": 8, "type": "channel", "noteNumber": 62, "velocity": 95, "subtype": "noteOn" }, { "deltaTime": 8, "channel": 8, "type": "channel", "subtype": "noteOff", "noteNumber": 59, "velocity": 64 }, { "deltaTime": 184, "channel": 8, "type": "channel", "noteNumber": 59, "velocity": 98, "subtype": "noteOn" }, { "deltaTime": 8, "channel": 8, "type": "channel", "subtype": "noteOff", "noteNumber": 62, "velocity": 64 }, { "deltaTime": 184, "channel": 8, "type": "channel", "noteNumber": 62, "velocity": 93, "subtype": "noteOn" }, { "deltaTime": 4, "channel": 8, "type": "channel", "subtype": "noteOff", "noteNumber": 59, "velocity": 64 }, { "deltaTime": 188, "channel": 8, "type": "channel", "noteNumber": 59, "velocity": 96, "subtype": "noteOn" }, { "deltaTime": 8, "channel": 8, "type": "channel", "subtype": "noteOff", "noteNumber": 62, "velocity": 64 }, { "deltaTime": 180, "channel": 8, "type": "channel", "subtype": "noteOff", "noteNumber": 59, "velocity": 64 }, { "deltaTime": 4, "channel": 8, "type": "channel", "noteNumber": 62, "velocity": 96, "subtype": "noteOn" }, { "deltaTime": 192, "channel": 8, "type": "channel", "subtype": "noteOff", "noteNumber": 62, "velocity": 64 }, { "deltaTime": 0, "channel": 8, "type": "channel", "noteNumber": 59, "velocity": 106, "subtype": "noteOn" }, { "deltaTime": 184, "channel": 8, "type": "channel", "subtype": "noteOff", "noteNumber": 59, "velocity": 64 }, { "deltaTime": 8, "channel": 8, "type": "channel", "noteNumber": 57, "velocity": 91, "subtype": "noteOn" }, { "deltaTime": 192, "channel": 8, "type": "channel", "noteNumber": 66, "velocity": 107, "subtype": "noteOn" }, { "deltaTime": 12, "channel": 8, "type": "channel", "subtype": "noteOff", "noteNumber": 57, "velocity": 64 }, { "deltaTime": 752, "channel": 8, "type": "channel", "subtype": "noteOff", "noteNumber": 66, "velocity": 64 }, { "deltaTime": 484, "channel": 8, "type": "channel", "noteNumber": 69, "velocity": 114, "subtype": "noteOn" }, { "deltaTime": 168, "channel": 8, "type": "channel", "subtype": "noteOff", "noteNumber": 69, "velocity": 64 }, { "deltaTime": 24, "channel": 8, "type": "channel", "noteNumber": 71, "velocity": 97, "subtype": "noteOn" }, { "deltaTime": 68, "channel": 8, "type": "channel", "subtype": "noteOff", "noteNumber": 71, "velocity": 64 }, { "deltaTime": 28, "channel": 8, "type": "channel", "noteNumber": 69, "velocity": 120, "subtype": "noteOn" }, { "deltaTime": 540, "channel": 8, "type": "channel", "subtype": "noteOff", "noteNumber": 69, "velocity": 64 }, { "deltaTime": 36, "channel": 8, "type": "channel", "noteNumber": 71, "velocity": 120, "subtype": "noteOn" }, { "deltaTime": 36, "channel": 8, "type": "channel", "subtype": "noteOff", "noteNumber": 71, "velocity": 64 }, { "deltaTime": 156, "channel": 8, "type": "channel", "noteNumber": 69, "velocity": 123, "subtype": "noteOn" }, { "deltaTime": 508, "channel": 8, "type": "channel", "subtype": "noteOff", "noteNumber": 69, "velocity": 64 }, { "deltaTime": 68, "channel": 8, "type": "channel", "noteNumber": 71, "velocity": 117, "subtype": "noteOn" }, { "deltaTime": 36, "channel": 8, "type": "channel", "subtype": "noteOff", "noteNumber": 71, "velocity": 64 }, { "deltaTime": 156, "channel": 8, "type": "channel", "noteNumber": 69, "velocity": 117, "subtype": "noteOn" }, { "deltaTime": 40, "channel": 8, "type": "channel", "subtype": "noteOff", "noteNumber": 69, "velocity": 64 }, { "deltaTime": 152, "channel": 8, "type": "channel", "noteNumber": 71, "velocity": 120, "subtype": "noteOn" }, { "deltaTime": 28, "channel": 8, "type": "channel", "subtype": "noteOff", "noteNumber": 71, "velocity": 64 }, { "deltaTime": 164, "channel": 8, "type": "channel", "noteNumber": 69, "velocity": 117, "subtype": "noteOn" }, { "deltaTime": 32, "channel": 8, "type": "channel", "subtype": "noteOff", "noteNumber": 69, "velocity": 64 }, { "deltaTime": 160, "channel": 8, "type": "channel", "noteNumber": 71, "velocity": 114, "subtype": "noteOn" }, { "deltaTime": 68, "channel": 8, "type": "channel", "subtype": "noteOff", "noteNumber": 71, "velocity": 64 }, { "deltaTime": 124, "channel": 8, "type": "channel", "noteNumber": 69, "velocity": 120, "subtype": "noteOn" }, { "deltaTime": 740, "channel": 8, "type": "channel", "subtype": "noteOff", "noteNumber": 69, "velocity": 64 }, { "deltaTime": 28, "channel": 8, "type": "channel", "noteNumber": 66, "velocity": 112, "subtype": "noteOn" }, { "deltaTime": 384, "channel": 8, "type": "channel", "noteNumber": 69, "velocity": 92, "subtype": "noteOn" }, { "deltaTime": 20, "channel": 8, "type": "channel", "subtype": "noteOff", "noteNumber": 66, "velocity": 64 }, { "deltaTime": 168, "channel": 8, "type": "channel", "subtype": "noteOff", "noteNumber": 69, "velocity": 64 }, { "deltaTime": 4, "channel": 8, "type": "channel", "noteNumber": 71, "velocity": 89, "subtype": "noteOn" }, { "deltaTime": 184, "channel": 8, "type": "channel", "subtype": "noteOff", "noteNumber": 71, "velocity": 64 }, { "deltaTime": 8, "channel": 8, "type": "channel", "noteNumber": 66, "velocity": 91, "subtype": "noteOn" }, { "deltaTime": 444, "channel": 8, "type": "channel", "subtype": "noteOff", "noteNumber": 66, "velocity": 64 }, { "deltaTime": 132, "channel": 8, "type": "channel", "noteNumber": 62, "velocity": 85, "subtype": "noteOn" }, { "deltaTime": 192, "channel": 8, "type": "channel", "subtype": "noteOff", "noteNumber": 62, "velocity": 64 }, { "deltaTime": 0, "channel": 8, "type": "channel", "noteNumber": 64, "velocity": 85, "subtype": "noteOn" }, { "deltaTime": 280, "channel": 8, "type": "channel", "subtype": "noteOff", "noteNumber": 64, "velocity": 64 }, { "deltaTime": 8, "channel": 8, "type": "channel", "noteNumber": 62, "velocity": 85, "subtype": "noteOn" }, { "deltaTime": 96, "channel": 8, "type": "channel", "noteNumber": 64, "velocity": 85, "subtype": "noteOn" }, { "deltaTime": 4, "channel": 8, "type": "channel", "subtype": "noteOff", "noteNumber": 62, "velocity": 64 }, { "deltaTime": 188, "channel": 8, "type": "channel", "noteNumber": 69, "velocity": 88, "subtype": "noteOn" }, { "deltaTime": 8, "channel": 8, "type": "channel", "subtype": "noteOff", "noteNumber": 64, "velocity": 64 }, { "deltaTime": 184, "channel": 8, "type": "channel", "noteNumber": 66, "velocity": 95, "subtype": "noteOn" }, { "deltaTime": 12, "channel": 8, "type": "channel", "subtype": "noteOff", "noteNumber": 69, "velocity": 64 }, { "deltaTime": 756, "channel": 8, "type": "channel", "subtype": "noteOff", "noteNumber": 66, "velocity": 64 }, { "deltaTime": 0, "channel": 8, "type": "channel", "noteNumber": 64, "velocity": 91, "subtype": "noteOn" }, { "deltaTime": 148, "channel": 8, "type": "channel", "subtype": "noteOff", "noteNumber": 64, "velocity": 64 }, { "deltaTime": 44, "channel": 8, "type": "channel", "noteNumber": 64, "velocity": 86, "subtype": "noteOn" }, { "deltaTime": 148, "channel": 8, "type": "channel", "subtype": "noteOff", "noteNumber": 64, "velocity": 64 }, { "deltaTime": 44, "channel": 8, "type": "channel", "noteNumber": 64, "velocity": 88, "subtype": "noteOn" }, { "deltaTime": 192, "channel": 8, "type": "channel", "noteNumber": 66, "velocity": 86, "subtype": "noteOn" }, { "deltaTime": 4, "channel": 8, "type": "channel", "subtype": "noteOff", "noteNumber": 64, "velocity": 64 }, { "deltaTime": 188, "channel": 8, "type": "channel", "subtype": "noteOff", "noteNumber": 66, "velocity": 64 }, { "deltaTime": 0, "channel": 8, "type": "channel", "noteNumber": 64, "velocity": 97, "subtype": "noteOn" }, { "deltaTime": 192, "channel": 8, "type": "channel", "subtype": "noteOff", "noteNumber": 64, "velocity": 64 }, { "deltaTime": 0, "channel": 8, "type": "channel", "noteNumber": 62, "velocity": 85, "subtype": "noteOn" }, { "deltaTime": 192, "channel": 8, "type": "channel", "noteNumber": 59, "velocity": 85, "subtype": "noteOn" }, { "deltaTime": 4, "channel": 8, "type": "channel", "subtype": "noteOff", "noteNumber": 62, "velocity": 64 }, { "deltaTime": 188, "channel": 8, "type": "channel", "subtype": "noteOff", "noteNumber": 59, "velocity": 64 }, { "deltaTime": 0, "channel": 8, "type": "channel", "noteNumber": 57, "velocity": 85, "subtype": "noteOn" }, { "deltaTime": 96, "channel": 8, "type": "channel", "noteNumber": 59, "velocity": 85, "subtype": "noteOn" }, { "deltaTime": 8, "channel": 8, "type": "channel", "subtype": "noteOff", "noteNumber": 57, "velocity": 64 }, { "deltaTime": 88, "channel": 8, "type": "channel", "noteNumber": 62, "velocity": 85, "subtype": "noteOn" }, { "deltaTime": 20, "channel": 8, "type": "channel", "subtype": "noteOff", "noteNumber": 59, "velocity": 64 }, { "deltaTime": 412, "channel": 8, "type": "channel", "subtype": "noteOff", "noteNumber": 62, "velocity": 64 }, { "deltaTime": 144, "channel": 8, "type": "channel", "noteNumber": 66, "velocity": 88, "subtype": "noteOn" }, { "deltaTime": 192, "channel": 8, "type": "channel", "subtype": "noteOff", "noteNumber": 66, "velocity": 64 }, { "deltaTime": 0, "channel": 8, "type": "channel", "noteNumber": 64, "velocity": 88, "subtype": "noteOn" }, { "deltaTime": 192, "channel": 8, "type": "channel", "subtype": "noteOff", "noteNumber": 64, "velocity": 64 }, { "deltaTime": 0, "channel": 8, "type": "channel", "noteNumber": 62, "velocity": 88, "subtype": "noteOn" }, { "deltaTime": 192, "channel": 8, "type": "channel", "subtype": "noteOff", "noteNumber": 62, "velocity": 64 }, { "deltaTime": 0, "channel": 8, "type": "channel", "noteNumber": 59, "velocity": 88, "subtype": "noteOn" }, { "deltaTime": 192, "channel": 8, "type": "channel", "subtype": "noteOff", "noteNumber": 59, "velocity": 64 }, { "deltaTime": 0, "channel": 8, "type": "channel", "noteNumber": 57, "velocity": 85, "subtype": "noteOn" }, { "deltaTime": 88, "channel": 8, "type": "channel", "subtype": "noteOff", "noteNumber": 57, "velocity": 64 }, { "deltaTime": 8, "channel": 8, "type": "channel", "noteNumber": 59, "velocity": 85, "subtype": "noteOn" }, { "deltaTime": 88, "channel": 8, "type": "channel", "subtype": "noteOff", "noteNumber": 59, "velocity": 64 }, { "deltaTime": 8, "channel": 8, "type": "channel", "noteNumber": 62, "velocity": 92, "subtype": "noteOn" }, { "deltaTime": 1376, "channel": 8, "type": "channel", "subtype": "noteOff", "noteNumber": 62, "velocity": 64 }, { "deltaTime": 160, "channel": 8, "type": "channel", "noteNumber": 66, "velocity": 107, "subtype": "noteOn" }, { "deltaTime": 760, "channel": 8, "type": "channel", "subtype": "noteOff", "noteNumber": 66, "velocity": 64 }, { "deltaTime": 8, "channel": 8, "type": "channel", "noteNumber": 57, "velocity": 85, "subtype": "noteOn" }, { "deltaTime": 384, "channel": 8, "type": "channel", "noteNumber": 59, "velocity": 85, "subtype": "noteOn" }, { "deltaTime": 8, "channel": 8, "type": "channel", "subtype": "noteOff", "noteNumber": 57, "velocity": 64 }, { "deltaTime": 180, "channel": 8, "type": "channel", "subtype": "noteOff", "noteNumber": 59, "velocity": 64 }, { "deltaTime": 4, "channel": 8, "type": "channel", "noteNumber": 57, "velocity": 85, "subtype": "noteOn" }, { "deltaTime": 88, "channel": 8, "type": "channel", "subtype": "noteOff", "noteNumber": 57, "velocity": 64 }, { "deltaTime": 8, "channel": 8, "type": "channel", "noteNumber": 59, "velocity": 85, "subtype": "noteOn" }, { "deltaTime": 96, "channel": 8, "type": "channel", "noteNumber": 62, "velocity": 88, "subtype": "noteOn" }, { "deltaTime": 12, "channel": 8, "type": "channel", "subtype": "noteOff", "noteNumber": 59, "velocity": 64 }, { "deltaTime": 1524, "channel": 8, "type": "channel", "subtype": "noteOff", "noteNumber": 62, "velocity": 64 }, { "deltaTime": 0, "type": "meta", "subtype": "endOfTrack" }], [{ "deltaTime": 0, "type": "meta", "subtype": "unknown", "data": "\u0000" }, { "deltaTime": 0, "type": "meta", "subtype": "trackName", "text": "Drums......         " }, { "deltaTime": 0, "channel": 9, "type": "channel", "subtype": "programChange", "programNumber": 0 }, { "deltaTime": 0, "channel": 9, "type": "channel", "subtype": "controller", "controllerType": 7, "value": 110 }, { "deltaTime": 0, "channel": 9, "type": "channel", "subtype": "controller", "controllerType": 0, "value": 0 }, { "deltaTime": 0, "channel": 9, "type": "channel", "subtype": "controller", "controllerType": 91, "value": 100 }, { "deltaTime": 0, "channel": 9, "type": "channel", "noteNumber": 42, "velocity": 18, "subtype": "noteOn" }, { "deltaTime": 0, "channel": 9, "type": "channel", "noteNumber": 70, "velocity": 3, "subtype": "noteOn" }, { "deltaTime": 24, "channel": 9, "type": "channel", "subtype": "noteOff", "noteNumber": 42, "velocity": 64 }, { "deltaTime": 0, "channel": 9, "type": "channel", "subtype": "noteOff", "noteNumber": 70, "velocity": 64 }, { "deltaTime": 168, "channel": 9, "type": "channel", "noteNumber": 42, "velocity": 18, "subtype": "noteOn" }, { "deltaTime": 0, "channel": 9, "type": "channel", "noteNumber": 70, "velocity": 3, "subtype": "noteOn" }, { "deltaTime": 24, "channel": 9, "type": "channel", "subtype": "noteOff", "noteNumber": 42, "velocity": 64 }, { "deltaTime": 0, "channel": 9, "type": "channel", "subtype": "noteOff", "noteNumber": 70, "velocity": 64 }, { "deltaTime": 168, "channel": 9, "type": "channel", "noteNumber": 42, "velocity": 18, "subtype": "noteOn" }, { "deltaTime": 0, "channel": 9, "type": "channel", "noteNumber": 70, "velocity": 3, "subtype": "noteOn" }, { "deltaTime": 24, "channel": 9, "type": "channel", "subtype": "noteOff", "noteNumber": 42, "velocity": 64 }, { "deltaTime": 0, "channel": 9, "type": "channel", "subtype": "noteOff", "noteNumber": 70, "velocity": 64 }, { "deltaTime": 360, "channel": 9, "type": "channel", "noteNumber": 35, "velocity": 80, "subtype": "noteOn" }, { "deltaTime": 0, "channel": 9, "type": "channel", "noteNumber": 49, "velocity": 96, "subtype": "noteOn" }, { "deltaTime": 24, "channel": 9, "type": "channel", "subtype": "noteOff", "noteNumber": 35, "velocity": 64 }, { "deltaTime": 0, "channel": 9, "type": "channel", "subtype": "noteOff", "noteNumber": 49, "velocity": 64 }, { "deltaTime": 72, "channel": 9, "type": "channel", "noteNumber": 42, "velocity": 50, "subtype": "noteOn" }, { "deltaTime": 0, "channel": 9, "type": "channel", "noteNumber": 70, "velocity": 35, "subtype": "noteOn" }, { "deltaTime": 24, "channel": 9, "type": "channel", "subtype": "noteOff", "noteNumber": 42, "velocity": 64 }, { "deltaTime": 0, "channel": 9, "type": "channel", "subtype": "noteOff", "noteNumber": 70, "velocity": 64 }, { "deltaTime": 24, "channel": 9, "type": "channel", "noteNumber": 75, "velocity": 127, "subtype": "noteOn" }, { "deltaTime": 24, "channel": 9, "type": "channel", "subtype": "noteOff", "noteNumber": 75, "velocity": 64 }, { "deltaTime": 24, "channel": 9, "type": "channel", "noteNumber": 42, "velocity": 66, "subtype": "noteOn" }, { "deltaTime": 0, "channel": 9, "type": "channel", "noteNumber": 70, "velocity": 51, "subtype": "noteOn" }, { "deltaTime": 24, "channel": 9, "type": "channel", "subtype": "noteOff", "noteNumber": 42, "velocity": 64 }, { "deltaTime": 0, "channel": 9, "type": "channel", "subtype": "noteOff", "noteNumber": 70, "velocity": 64 }, { "deltaTime": 72, "channel": 9, "type": "channel", "noteNumber": 35, "velocity": 80, "subtype": "noteOn" }, { "deltaTime": 0, "channel": 9, "type": "channel", "noteNumber": 42, "velocity": 50, "subtype": "noteOn" }, { "deltaTime": 0, "channel": 9, "type": "channel", "noteNumber": 70, "velocity": 35, "subtype": "noteOn" }, { "deltaTime": 24, "channel": 9, "type": "channel", "subtype": "noteOff", "noteNumber": 35, "velocity": 64 }, { "deltaTime": 0, "channel": 9, "type": "channel", "subtype": "noteOff", "noteNumber": 42, "velocity": 64 }, { "deltaTime": 0, "channel": 9, "type": "channel", "subtype": "noteOff", "noteNumber": 70, "velocity": 64 }, { "deltaTime": 72, "channel": 9, "type": "channel", "noteNumber": 35, "velocity": 80, "subtype": "noteOn" }, { "deltaTime": 0, "channel": 9, "type": "channel", "noteNumber": 42, "velocity": 66, "subtype": "noteOn" }, { "deltaTime": 0, "channel": 9, "type": "channel", "noteNumber": 70, "velocity": 51, "subtype": "noteOn" }, { "deltaTime": 24, "channel": 9, "type": "channel", "subtype": "noteOff", "noteNumber": 35, "velocity": 64 }, { "deltaTime": 0, "channel": 9, "type": "channel", "subtype": "noteOff", "noteNumber": 42, "velocity": 64 }, { "deltaTime": 0, "channel": 9, "type": "channel", "subtype": "noteOff", "noteNumber": 70, "velocity": 64 }, { "deltaTime": 72, "channel": 9, "type": "channel", "noteNumber": 42, "velocity": 50, "subtype": "noteOn" }, { "deltaTime": 0, "channel": 9, "type": "channel", "noteNumber": 70, "velocity": 35, "subtype": "noteOn" }, { "deltaTime": 24, "channel": 9, "type": "channel", "subtype": "noteOff", "noteNumber": 42, "velocity": 64 }, { "deltaTime": 0, "channel": 9, "type": "channel", "subtype": "noteOff", "noteNumber": 70, "velocity": 64 }, { "deltaTime": 72, "channel": 9, "type": "channel", "noteNumber": 75, "velocity": 127, "subtype": "noteOn" }, { "deltaTime": 0, "channel": 9, "type": "channel", "noteNumber": 42, "velocity": 66, "subtype": "noteOn" }, { "deltaTime": 0, "channel": 9, "type": "channel", "noteNumber": 70, "velocity": 51, "subtype": "noteOn" }, { "deltaTime": 24, "channel": 9, "type": "channel", "subtype": "noteOff", "noteNumber": 75, "velocity": 64 }, { "deltaTime": 0, "channel": 9, "type": "channel", "subtype": "noteOff", "noteNumber": 42, "velocity": 64 }, { "deltaTime": 0, "channel": 9, "type": "channel", "subtype": "noteOff", "noteNumber": 70, "velocity": 64 }, { "deltaTime": 72, "channel": 9, "type": "channel", "noteNumber": 42, "velocity": 50, "subtype": "noteOn" }, { "deltaTime": 0, "channel": 9, "type": "channel", "noteNumber": 70, "velocity": 35, "subtype": "noteOn" }, { "deltaTime": 24, "channel": 9, "type": "channel", "subtype": "noteOff", "noteNumber": 42, "velocity": 64 }, { "deltaTime": 0, "channel": 9, "type": "channel", "subtype": "noteOff", "noteNumber": 70, "velocity": 64 }, { "deltaTime": 72, "channel": 9, "type": "channel", "noteNumber": 35, "velocity": 80, "subtype": "noteOn" }, { "deltaTime": 0, "channel": 9, "type": "channel", "noteNumber": 42, "velocity": 66, "subtype": "noteOn" }, { "deltaTime": 0, "channel": 9, "type": "channel", "noteNumber": 70, "velocity": 51, "subtype": "noteOn" }, { "deltaTime": 24, "channel": 9, "type": "channel", "subtype": "noteOff", "noteNumber": 35, "velocity": 64 }, { "deltaTime": 0, "channel": 9, "type": "channel", "subtype": "noteOff", "noteNumber": 42, "velocity": 64 }, { "deltaTime": 0, "channel": 9, "type": "channel", "subtype": "noteOff", "noteNumber": 70, "velocity": 64 }, { "deltaTime": 72, "channel": 9, "type": "channel", "noteNumber": 42, "velocity": 50, "subtype": "noteOn" }, { "deltaTime": 0, "channel": 9, "type": "channel", "noteNumber": 70, "velocity": 35, "subtype": "noteOn" }, { "deltaTime": 24, "channel": 9, "type": "channel", "subtype": "noteOff", "noteNumber": 42, "velocity": 64 }, { "deltaTime": 0, "channel": 9, "type": "channel", "subtype": "noteOff", "noteNumber": 70, "velocity": 64 }, { "deltaTime": 72, "channel": 9, "type": "channel", "noteNumber": 75, "velocity": 127, "subtype": "noteOn" }, { "deltaTime": 0, "channel": 9, "type": "channel", "noteNumber": 42, "velocity": 66, "subtype": "noteOn" }, { "deltaTime": 0, "channel": 9, "type": "channel", "noteNumber": 70, "velocity": 51, "subtype": "noteOn" }, { "deltaTime": 24, "channel": 9, "type": "channel", "subtype": "noteOff", "noteNumber": 75, "velocity": 64 }, { "deltaTime": 0, "channel": 9, "type": "channel", "subtype": "noteOff", "noteNumber": 42, "velocity": 64 }, { "deltaTime": 0, "channel": 9, "type": "channel", "subtype": "noteOff", "noteNumber": 70, "velocity": 64 }, { "deltaTime": 72, "channel": 9, "type": "channel", "noteNumber": 35, "velocity": 80, "subtype": "noteOn" }, { "deltaTime": 0, "channel": 9, "type": "channel", "noteNumber": 42, "velocity": 50, "subtype": "noteOn" }, { "deltaTime": 0, "channel": 9, "type": "channel", "noteNumber": 70, "velocity": 35, "subtype": "noteOn" }, { "deltaTime": 24, "channel": 9, "type": "channel", "subtype": "noteOff", "noteNumber": 35, "velocity": 64 }, { "deltaTime": 0, "channel": 9, "type": "channel", "subtype": "noteOff", "noteNumber": 42, "velocity": 64 }, { "deltaTime": 0, "channel": 9, "type": "channel", "subtype": "noteOff", "noteNumber": 70, "velocity": 64 }, { "deltaTime": 72, "channel": 9, "type": "channel", "noteNumber": 35, "velocity": 80, "subtype": "noteOn" }, { "deltaTime": 0, "channel": 9, "type": "channel", "noteNumber": 42, "velocity": 66, "subtype": "noteOn" }, { "deltaTime": 0, "channel": 9, "type": "channel", "noteNumber": 70, "velocity": 51, "subtype": "noteOn" }, { "deltaTime": 24, "channel": 9, "type": "channel", "subtype": "noteOff", "noteNumber": 35, "velocity": 64 }, { "deltaTime": 0, "channel": 9, "type": "channel", "subtype": "noteOff", "noteNumber": 42, "velocity": 64 }, { "deltaTime": 0, "channel": 9, "type": "channel", "subtype": "noteOff", "noteNumber": 70, "velocity": 64 }, { "deltaTime": 72, "channel": 9, "type": "channel", "noteNumber": 42, "velocity": 50, "subtype": "noteOn" }, { "deltaTime": 0, "channel": 9, "type": "channel", "noteNumber": 70, "velocity": 35, "subtype": "noteOn" }, { "deltaTime": 24, "channel": 9, "type": "channel", "subtype": "noteOff", "noteNumber": 42, "velocity": 64 }, { "deltaTime": 0, "channel": 9, "type": "channel", "subtype": "noteOff", "noteNumber": 70, "velocity": 64 }, { "deltaTime": 72, "channel": 9, "type": "channel", "noteNumber": 75, "velocity": 127, "subtype": "noteOn" }, { "deltaTime": 0, "channel": 9, "type": "channel", "noteNumber": 42, "velocity": 66, "subtype": "noteOn" }, { "deltaTime": 0, "channel": 9, "type": "channel", "noteNumber": 70, "velocity": 51, "subtype": "noteOn" }, { "deltaTime": 24, "channel": 9, "type": "channel", "subtype": "noteOff", "noteNumber": 75, "velocity": 64 }, { "deltaTime": 0, "channel": 9, "type": "channel", "subtype": "noteOff", "noteNumber": 42, "velocity": 64 }, { "deltaTime": 0, "channel": 9, "type": "channel", "subtype": "noteOff", "noteNumber": 70, "velocity": 64 }, { "deltaTime": 72, "channel": 9, "type": "channel", "noteNumber": 42, "velocity": 50, "subtype": "noteOn" }, { "deltaTime": 0, "channel": 9, "type": "channel", "noteNumber": 70, "velocity": 35, "subtype": "noteOn" }, { "deltaTime": 24, "channel": 9, "type": "channel", "subtype": "noteOff", "noteNumber": 42, "velocity": 64 }, { "deltaTime": 0, "channel": 9, "type": "channel", "subtype": "noteOff", "noteNumber": 70, "velocity": 64 }, { "deltaTime": 72, "channel": 9, "type": "channel", "noteNumber": 35, "velocity": 80, "subtype": "noteOn" }, { "deltaTime": 0, "channel": 9, "type": "channel", "noteNumber": 42, "velocity": 66, "subtype": "noteOn" }, { "deltaTime": 0, "channel": 9, "type": "channel", "noteNumber": 70, "velocity": 51, "subtype": "noteOn" }, { "deltaTime": 24, "channel": 9, "type": "channel", "subtype": "noteOff", "noteNumber": 35, "velocity": 64 }, { "deltaTime": 0, "channel": 9, "type": "channel", "subtype": "noteOff", "noteNumber": 42, "velocity": 64 }, { "deltaTime": 0, "channel": 9, "type": "channel", "subtype": "noteOff", "noteNumber": 70, "velocity": 64 }, { "deltaTime": 72, "channel": 9, "type": "channel", "noteNumber": 42, "velocity": 50, "subtype": "noteOn" }, { "deltaTime": 0, "channel": 9, "type": "channel", "noteNumber": 70, "velocity": 35, "subtype": "noteOn" }, { "deltaTime": 24, "channel": 9, "type": "channel", "subtype": "noteOff", "noteNumber": 42, "velocity": 64 }, { "deltaTime": 0, "channel": 9, "type": "channel", "subtype": "noteOff", "noteNumber": 70, "velocity": 64 }, { "deltaTime": 72, "channel": 9, "type": "channel", "noteNumber": 75, "velocity": 127, "subtype": "noteOn" }, { "deltaTime": 0, "channel": 9, "type": "channel", "noteNumber": 42, "velocity": 66, "subtype": "noteOn" }, { "deltaTime": 0, "channel": 9, "type": "channel", "noteNumber": 70, "velocity": 51, "subtype": "noteOn" }, { "deltaTime": 24, "channel": 9, "type": "channel", "subtype": "noteOff", "noteNumber": 75, "velocity": 64 }, { "deltaTime": 0, "channel": 9, "type": "channel", "subtype": "noteOff", "noteNumber": 42, "velocity": 64 }, { "deltaTime": 0, "channel": 9, "type": "channel", "subtype": "noteOff", "noteNumber": 70, "velocity": 64 }, { "deltaTime": 72, "channel": 9, "type": "channel", "noteNumber": 35, "velocity": 80, "subtype": "noteOn" }, { "deltaTime": 0, "channel": 9, "type": "channel", "noteNumber": 42, "velocity": 50, "subtype": "noteOn" }, { "deltaTime": 0, "channel": 9, "type": "channel", "noteNumber": 70, "velocity": 35, "subtype": "noteOn" }, { "deltaTime": 24, "channel": 9, "type": "channel", "subtype": "noteOff", "noteNumber": 35, "velocity": 64 }, { "deltaTime": 0, "channel": 9, "type": "channel", "subtype": "noteOff", "noteNumber": 42, "velocity": 64 }, { "deltaTime": 0, "channel": 9, "type": "channel", "subtype": "noteOff", "noteNumber": 70, "velocity": 64 }, { "deltaTime": 72, "channel": 9, "type": "channel", "noteNumber": 35, "velocity": 80, "subtype": "noteOn" }, { "deltaTime": 0, "channel": 9, "type": "channel", "noteNumber": 42, "velocity": 66, "subtype": "noteOn" }, { "deltaTime": 0, "channel": 9, "type": "channel", "noteNumber": 70, "velocity": 51, "subtype": "noteOn" }, { "deltaTime": 24, "channel": 9, "type": "channel", "subtype": "noteOff", "noteNumber": 35, "velocity": 64 }, { "deltaTime": 0, "channel": 9, "type": "channel", "subtype": "noteOff", "noteNumber": 42, "velocity": 64 }, { "deltaTime": 0, "channel": 9, "type": "channel", "subtype": "noteOff", "noteNumber": 70, "velocity": 64 }, { "deltaTime": 72, "channel": 9, "type": "channel", "noteNumber": 42, "velocity": 50, "subtype": "noteOn" }, { "deltaTime": 0, "channel": 9, "type": "channel", "noteNumber": 70, "velocity": 35, "subtype": "noteOn" }, { "deltaTime": 24, "channel": 9, "type": "channel", "subtype": "noteOff", "noteNumber": 42, "velocity": 64 }, { "deltaTime": 0, "channel": 9, "type": "channel", "subtype": "noteOff", "noteNumber": 70, "velocity": 64 }, { "deltaTime": 72, "channel": 9, "type": "channel", "noteNumber": 75, "velocity": 127, "subtype": "noteOn" }, { "deltaTime": 0, "channel": 9, "type": "channel", "noteNumber": 42, "velocity": 66, "subtype": "noteOn" }, { "deltaTime": 0, "channel": 9, "type": "channel", "noteNumber": 70, "velocity": 51, "subtype": "noteOn" }, { "deltaTime": 24, "channel": 9, "type": "channel", "subtype": "noteOff", "noteNumber": 75, "velocity": 64 }, { "deltaTime": 0, "channel": 9, "type": "channel", "subtype": "noteOff", "noteNumber": 42, "velocity": 64 }, { "deltaTime": 0, "channel": 9, "type": "channel", "subtype": "noteOff", "noteNumber": 70, "velocity": 64 }, { "deltaTime": 72, "channel": 9, "type": "channel", "noteNumber": 42, "velocity": 50, "subtype": "noteOn" }, { "deltaTime": 0, "channel": 9, "type": "channel", "noteNumber": 70, "velocity": 35, "subtype": "noteOn" }, { "deltaTime": 24, "channel": 9, "type": "channel", "subtype": "noteOff", "noteNumber": 42, "velocity": 64 }, { "deltaTime": 0, "channel": 9, "type": "channel", "subtype": "noteOff", "noteNumber": 70, "velocity": 64 }, { "deltaTime": 72, "channel": 9, "type": "channel", "noteNumber": 35, "velocity": 80, "subtype": "noteOn" }, { "deltaTime": 0, "channel": 9, "type": "channel", "noteNumber": 42, "velocity": 66, "subtype": "noteOn" }, { "deltaTime": 0, "channel": 9, "type": "channel", "noteNumber": 70, "velocity": 51, "subtype": "noteOn" }, { "deltaTime": 24, "channel": 9, "type": "channel", "subtype": "noteOff", "noteNumber": 35, "velocity": 64 }, { "deltaTime": 0, "channel": 9, "type": "channel", "subtype": "noteOff", "noteNumber": 42, "velocity": 64 }, { "deltaTime": 0, "channel": 9, "type": "channel", "subtype": "noteOff", "noteNumber": 70, "velocity": 64 }, { "deltaTime": 72, "channel": 9, "type": "channel", "noteNumber": 42, "velocity": 50, "subtype": "noteOn" }, { "deltaTime": 0, "channel": 9, "type": "channel", "noteNumber": 70, "velocity": 35, "subtype": "noteOn" }, { "deltaTime": 24, "channel": 9, "type": "channel", "subtype": "noteOff", "noteNumber": 42, "velocity": 64 }, { "deltaTime": 0, "channel": 9, "type": "channel", "subtype": "noteOff", "noteNumber": 70, "velocity": 64 }, { "deltaTime": 72, "channel": 9, "type": "channel", "noteNumber": 75, "velocity": 127, "subtype": "noteOn" }, { "deltaTime": 0, "channel": 9, "type": "channel", "noteNumber": 42, "velocity": 66, "subtype": "noteOn" }, { "deltaTime": 0, "channel": 9, "type": "channel", "noteNumber": 70, "velocity": 51, "subtype": "noteOn" }, { "deltaTime": 24, "channel": 9, "type": "channel", "subtype": "noteOff", "noteNumber": 75, "velocity": 64 }, { "deltaTime": 0, "channel": 9, "type": "channel", "subtype": "noteOff", "noteNumber": 42, "velocity": 64 }, { "deltaTime": 0, "channel": 9, "type": "channel", "subtype": "noteOff", "noteNumber": 70, "velocity": 64 }, { "deltaTime": 72, "channel": 9, "type": "channel", "noteNumber": 35, "velocity": 80, "subtype": "noteOn" }, { "deltaTime": 0, "channel": 9, "type": "channel", "noteNumber": 42, "velocity": 50, "subtype": "noteOn" }, { "deltaTime": 0, "channel": 9, "type": "channel", "noteNumber": 70, "velocity": 35, "subtype": "noteOn" }, { "deltaTime": 24, "channel": 9, "type": "channel", "subtype": "noteOff", "noteNumber": 35, "velocity": 64 }, { "deltaTime": 0, "channel": 9, "type": "channel", "subtype": "noteOff", "noteNumber": 42, "velocity": 64 }, { "deltaTime": 0, "channel": 9, "type": "channel", "subtype": "noteOff", "noteNumber": 70, "velocity": 64 }, { "deltaTime": 72, "channel": 9, "type": "channel", "noteNumber": 35, "velocity": 80, "subtype": "noteOn" }, { "deltaTime": 0, "channel": 9, "type": "channel", "noteNumber": 42, "velocity": 66, "subtype": "noteOn" }, { "deltaTime": 0, "channel": 9, "type": "channel", "noteNumber": 70, "velocity": 51, "subtype": "noteOn" }, { "deltaTime": 24, "channel": 9, "type": "channel", "subtype": "noteOff", "noteNumber": 35, "velocity": 64 }, { "deltaTime": 0, "channel": 9, "type": "channel", "subtype": "noteOff", "noteNumber": 42, "velocity": 64 }, { "deltaTime": 0, "channel": 9, "type": "channel", "subtype": "noteOff", "noteNumber": 70, "velocity": 64 }, { "deltaTime": 72, "channel": 9, "type": "channel", "noteNumber": 42, "velocity": 50, "subtype": "noteOn" }, { "deltaTime": 0, "channel": 9, "type": "channel", "noteNumber": 70, "velocity": 35, "subtype": "noteOn" }, { "deltaTime": 24, "channel": 9, "type": "channel", "subtype": "noteOff", "noteNumber": 42, "velocity": 64 }, { "deltaTime": 0, "channel": 9, "type": "channel", "subtype": "noteOff", "noteNumber": 70, "velocity": 64 }, { "deltaTime": 72, "channel": 9, "type": "channel", "noteNumber": 75, "velocity": 127, "subtype": "noteOn" }, { "deltaTime": 0, "channel": 9, "type": "channel", "noteNumber": 42, "velocity": 66, "subtype": "noteOn" }, { "deltaTime": 0, "channel": 9, "type": "channel", "noteNumber": 70, "velocity": 51, "subtype": "noteOn" }, { "deltaTime": 24, "channel": 9, "type": "channel", "subtype": "noteOff", "noteNumber": 75, "velocity": 64 }, { "deltaTime": 0, "channel": 9, "type": "channel", "subtype": "noteOff", "noteNumber": 42, "velocity": 64 }, { "deltaTime": 0, "channel": 9, "type": "channel", "subtype": "noteOff", "noteNumber": 70, "velocity": 64 }, { "deltaTime": 72, "channel": 9, "type": "channel", "noteNumber": 42, "velocity": 50, "subtype": "noteOn" }, { "deltaTime": 0, "channel": 9, "type": "channel", "noteNumber": 70, "velocity": 35, "subtype": "noteOn" }, { "deltaTime": 24, "channel": 9, "type": "channel", "subtype": "noteOff", "noteNumber": 42, "velocity": 64 }, { "deltaTime": 0, "channel": 9, "type": "channel", "subtype": "noteOff", "noteNumber": 70, "velocity": 64 }, { "deltaTime": 72, "channel": 9, "type": "channel", "noteNumber": 35, "velocity": 80, "subtype": "noteOn" }, { "deltaTime": 0, "channel": 9, "type": "channel", "noteNumber": 51, "velocity": 127, "subtype": "noteOn" }, { "deltaTime": 24, "channel": 9, "type": "channel", "subtype": "noteOff", "noteNumber": 35, "velocity": 64 }, { "deltaTime": 0, "channel": 9, "type": "channel", "subtype": "noteOff", "noteNumber": 51, "velocity": 64 }, { "deltaTime": 72, "channel": 9, "type": "channel", "noteNumber": 42, "velocity": 50, "subtype": "noteOn" }, { "deltaTime": 0, "channel": 9, "type": "channel", "noteNumber": 70, "velocity": 35, "subtype": "noteOn" }, { "deltaTime": 24, "channel": 9, "type": "channel", "subtype": "noteOff", "noteNumber": 42, "velocity": 64 }, { "deltaTime": 0, "channel": 9, "type": "channel", "subtype": "noteOff", "noteNumber": 70, "velocity": 64 }, { "deltaTime": 72, "channel": 9, "type": "channel", "noteNumber": 75, "velocity": 112, "subtype": "noteOn" }, { "deltaTime": 0, "channel": 9, "type": "channel", "noteNumber": 42, "velocity": 66, "subtype": "noteOn" }, { "deltaTime": 0, "channel": 9, "type": "channel", "noteNumber": 70, "velocity": 51, "subtype": "noteOn" }, { "deltaTime": 24, "channel": 9, "type": "channel", "subtype": "noteOff", "noteNumber": 75, "velocity": 64 }, { "deltaTime": 0, "channel": 9, "type": "channel", "subtype": "noteOff", "noteNumber": 42, "velocity": 64 }, { "deltaTime": 0, "channel": 9, "type": "channel", "subtype": "noteOff", "noteNumber": 70, "velocity": 64 }, { "deltaTime": 72, "channel": 9, "type": "channel", "noteNumber": 35, "velocity": 80, "subtype": "noteOn" }, { "deltaTime": 0, "channel": 9, "type": "channel", "noteNumber": 42, "velocity": 50, "subtype": "noteOn" }, { "deltaTime": 0, "channel": 9, "type": "channel", "noteNumber": 70, "velocity": 35, "subtype": "noteOn" }, { "deltaTime": 24, "channel": 9, "type": "channel", "subtype": "noteOff", "noteNumber": 35, "velocity": 64 }, { "deltaTime": 0, "channel": 9, "type": "channel", "subtype": "noteOff", "noteNumber": 42, "velocity": 64 }, { "deltaTime": 0, "channel": 9, "type": "channel", "subtype": "noteOff", "noteNumber": 70, "velocity": 64 }, { "deltaTime": 72, "channel": 9, "type": "channel", "noteNumber": 35, "velocity": 80, "subtype": "noteOn" }, { "deltaTime": 0, "channel": 9, "type": "channel", "noteNumber": 42, "velocity": 66, "subtype": "noteOn" }, { "deltaTime": 0, "channel": 9, "type": "channel", "noteNumber": 70, "velocity": 51, "subtype": "noteOn" }, { "deltaTime": 24, "channel": 9, "type": "channel", "subtype": "noteOff", "noteNumber": 35, "velocity": 64 }, { "deltaTime": 0, "channel": 9, "type": "channel", "subtype": "noteOff", "noteNumber": 42, "velocity": 64 }, { "deltaTime": 0, "channel": 9, "type": "channel", "subtype": "noteOff", "noteNumber": 70, "velocity": 64 }, { "deltaTime": 72, "channel": 9, "type": "channel", "noteNumber": 42, "velocity": 50, "subtype": "noteOn" }, { "deltaTime": 0, "channel": 9, "type": "channel", "noteNumber": 70, "velocity": 35, "subtype": "noteOn" }, { "deltaTime": 24, "channel": 9, "type": "channel", "subtype": "noteOff", "noteNumber": 42, "velocity": 64 }, { "deltaTime": 0, "channel": 9, "type": "channel", "subtype": "noteOff", "noteNumber": 70, "velocity": 64 }, { "deltaTime": 72, "channel": 9, "type": "channel", "noteNumber": 75, "velocity": 112, "subtype": "noteOn" }, { "deltaTime": 0, "channel": 9, "type": "channel", "noteNumber": 42, "velocity": 66, "subtype": "noteOn" }, { "deltaTime": 0, "channel": 9, "type": "channel", "noteNumber": 70, "velocity": 51, "subtype": "noteOn" }, { "deltaTime": 24, "channel": 9, "type": "channel", "subtype": "noteOff", "noteNumber": 75, "velocity": 64 }, { "deltaTime": 0, "channel": 9, "type": "channel", "subtype": "noteOff", "noteNumber": 42, "velocity": 64 }, { "deltaTime": 0, "channel": 9, "type": "channel", "subtype": "noteOff", "noteNumber": 70, "velocity": 64 }, { "deltaTime": 72, "channel": 9, "type": "channel", "noteNumber": 42, "velocity": 50, "subtype": "noteOn" }, { "deltaTime": 0, "channel": 9, "type": "channel", "noteNumber": 70, "velocity": 35, "subtype": "noteOn" }, { "deltaTime": 24, "channel": 9, "type": "channel", "subtype": "noteOff", "noteNumber": 42, "velocity": 64 }, { "deltaTime": 0, "channel": 9, "type": "channel", "subtype": "noteOff", "noteNumber": 70, "velocity": 64 }, { "deltaTime": 72, "channel": 9, "type": "channel", "noteNumber": 35, "velocity": 80, "subtype": "noteOn" }, { "deltaTime": 0, "channel": 9, "type": "channel", "noteNumber": 42, "velocity": 66, "subtype": "noteOn" }, { "deltaTime": 0, "channel": 9, "type": "channel", "noteNumber": 70, "velocity": 51, "subtype": "noteOn" }, { "deltaTime": 24, "channel": 9, "type": "channel", "subtype": "noteOff", "noteNumber": 35, "velocity": 64 }, { "deltaTime": 0, "channel": 9, "type": "channel", "subtype": "noteOff", "noteNumber": 42, "velocity": 64 }, { "deltaTime": 0, "channel": 9, "type": "channel", "subtype": "noteOff", "noteNumber": 70, "velocity": 64 }, { "deltaTime": 72, "channel": 9, "type": "channel", "noteNumber": 42, "velocity": 50, "subtype": "noteOn" }, { "deltaTime": 0, "channel": 9, "type": "channel", "noteNumber": 70, "velocity": 35, "subtype": "noteOn" }, { "deltaTime": 24, "channel": 9, "type": "channel", "subtype": "noteOff", "noteNumber": 42, "velocity": 64 }, { "deltaTime": 0, "channel": 9, "type": "channel", "subtype": "noteOff", "noteNumber": 70, "velocity": 64 }, { "deltaTime": 72, "channel": 9, "type": "channel", "noteNumber": 75, "velocity": 127, "subtype": "noteOn" }, { "deltaTime": 0, "channel": 9, "type": "channel", "noteNumber": 42, "velocity": 66, "subtype": "noteOn" }, { "deltaTime": 0, "channel": 9, "type": "channel", "noteNumber": 70, "velocity": 51, "subtype": "noteOn" }, { "deltaTime": 24, "channel": 9, "type": "channel", "subtype": "noteOff", "noteNumber": 75, "velocity": 64 }, { "deltaTime": 0, "channel": 9, "type": "channel", "subtype": "noteOff", "noteNumber": 42, "velocity": 64 }, { "deltaTime": 0, "channel": 9, "type": "channel", "subtype": "noteOff", "noteNumber": 70, "velocity": 64 }, { "deltaTime": 72, "channel": 9, "type": "channel", "noteNumber": 35, "velocity": 80, "subtype": "noteOn" }, { "deltaTime": 0, "channel": 9, "type": "channel", "noteNumber": 42, "velocity": 50, "subtype": "noteOn" }, { "deltaTime": 0, "channel": 9, "type": "channel", "noteNumber": 70, "velocity": 35, "subtype": "noteOn" }, { "deltaTime": 24, "channel": 9, "type": "channel", "subtype": "noteOff", "noteNumber": 35, "velocity": 64 }, { "deltaTime": 0, "channel": 9, "type": "channel", "subtype": "noteOff", "noteNumber": 42, "velocity": 64 }, { "deltaTime": 0, "channel": 9, "type": "channel", "subtype": "noteOff", "noteNumber": 70, "velocity": 64 }, { "deltaTime": 72, "channel": 9, "type": "channel", "noteNumber": 35, "velocity": 80, "subtype": "noteOn" }, { "deltaTime": 0, "channel": 9, "type": "channel", "noteNumber": 42, "velocity": 66, "subtype": "noteOn" }, { "deltaTime": 0, "channel": 9, "type": "channel", "noteNumber": 70, "velocity": 51, "subtype": "noteOn" }, { "deltaTime": 24, "channel": 9, "type": "channel", "subtype": "noteOff", "noteNumber": 35, "velocity": 64 }, { "deltaTime": 0, "channel": 9, "type": "channel", "subtype": "noteOff", "noteNumber": 42, "velocity": 64 }, { "deltaTime": 0, "channel": 9, "type": "channel", "subtype": "noteOff", "noteNumber": 70, "velocity": 64 }, { "deltaTime": 72, "channel": 9, "type": "channel", "noteNumber": 42, "velocity": 50, "subtype": "noteOn" }, { "deltaTime": 0, "channel": 9, "type": "channel", "noteNumber": 70, "velocity": 35, "subtype": "noteOn" }, { "deltaTime": 24, "channel": 9, "type": "channel", "subtype": "noteOff", "noteNumber": 42, "velocity": 64 }, { "deltaTime": 0, "channel": 9, "type": "channel", "subtype": "noteOff", "noteNumber": 70, "velocity": 64 }, { "deltaTime": 72, "channel": 9, "type": "channel", "noteNumber": 75, "velocity": 127, "subtype": "noteOn" }, { "deltaTime": 0, "channel": 9, "type": "channel", "noteNumber": 42, "velocity": 66, "subtype": "noteOn" }, { "deltaTime": 0, "channel": 9, "type": "channel", "noteNumber": 70, "velocity": 51, "subtype": "noteOn" }, { "deltaTime": 24, "channel": 9, "type": "channel", "subtype": "noteOff", "noteNumber": 75, "velocity": 64 }, { "deltaTime": 0, "channel": 9, "type": "channel", "subtype": "noteOff", "noteNumber": 42, "velocity": 64 }, { "deltaTime": 0, "channel": 9, "type": "channel", "subtype": "noteOff", "noteNumber": 70, "velocity": 64 }, { "deltaTime": 72, "channel": 9, "type": "channel", "noteNumber": 42, "velocity": 50, "subtype": "noteOn" }, { "deltaTime": 0, "channel": 9, "type": "channel", "noteNumber": 70, "velocity": 35, "subtype": "noteOn" }, { "deltaTime": 24, "channel": 9, "type": "channel", "subtype": "noteOff", "noteNumber": 42, "velocity": 64 }, { "deltaTime": 0, "channel": 9, "type": "channel", "subtype": "noteOff", "noteNumber": 70, "velocity": 64 }, { "deltaTime": 72, "channel": 9, "type": "channel", "noteNumber": 35, "velocity": 80, "subtype": "noteOn" }, { "deltaTime": 0, "channel": 9, "type": "channel", "noteNumber": 42, "velocity": 66, "subtype": "noteOn" }, { "deltaTime": 0, "channel": 9, "type": "channel", "noteNumber": 70, "velocity": 51, "subtype": "noteOn" }, { "deltaTime": 24, "channel": 9, "type": "channel", "subtype": "noteOff", "noteNumber": 35, "velocity": 64 }, { "deltaTime": 0, "channel": 9, "type": "channel", "subtype": "noteOff", "noteNumber": 42, "velocity": 64 }, { "deltaTime": 0, "channel": 9, "type": "channel", "subtype": "noteOff", "noteNumber": 70, "velocity": 64 }, { "deltaTime": 72, "channel": 9, "type": "channel", "noteNumber": 42, "velocity": 50, "subtype": "noteOn" }, { "deltaTime": 0, "channel": 9, "type": "channel", "noteNumber": 70, "velocity": 35, "subtype": "noteOn" }, { "deltaTime": 24, "channel": 9, "type": "channel", "subtype": "noteOff", "noteNumber": 42, "velocity": 64 }, { "deltaTime": 0, "channel": 9, "type": "channel", "subtype": "noteOff", "noteNumber": 70, "velocity": 64 }, { "deltaTime": 72, "channel": 9, "type": "channel", "noteNumber": 75, "velocity": 127, "subtype": "noteOn" }, { "deltaTime": 0, "channel": 9, "type": "channel", "noteNumber": 42, "velocity": 66, "subtype": "noteOn" }, { "deltaTime": 0, "channel": 9, "type": "channel", "noteNumber": 70, "velocity": 51, "subtype": "noteOn" }, { "deltaTime": 24, "channel": 9, "type": "channel", "subtype": "noteOff", "noteNumber": 75, "velocity": 64 }, { "deltaTime": 0, "channel": 9, "type": "channel", "subtype": "noteOff", "noteNumber": 42, "velocity": 64 }, { "deltaTime": 0, "channel": 9, "type": "channel", "subtype": "noteOff", "noteNumber": 70, "velocity": 64 }, { "deltaTime": 72, "channel": 9, "type": "channel", "noteNumber": 35, "velocity": 80, "subtype": "noteOn" }, { "deltaTime": 0, "channel": 9, "type": "channel", "noteNumber": 42, "velocity": 50, "subtype": "noteOn" }, { "deltaTime": 0, "channel": 9, "type": "channel", "noteNumber": 70, "velocity": 35, "subtype": "noteOn" }, { "deltaTime": 24, "channel": 9, "type": "channel", "subtype": "noteOff", "noteNumber": 35, "velocity": 64 }, { "deltaTime": 0, "channel": 9, "type": "channel", "subtype": "noteOff", "noteNumber": 42, "velocity": 64 }, { "deltaTime": 0, "channel": 9, "type": "channel", "subtype": "noteOff", "noteNumber": 70, "velocity": 64 }, { "deltaTime": 72, "channel": 9, "type": "channel", "noteNumber": 35, "velocity": 80, "subtype": "noteOn" }, { "deltaTime": 0, "channel": 9, "type": "channel", "noteNumber": 42, "velocity": 66, "subtype": "noteOn" }, { "deltaTime": 0, "channel": 9, "type": "channel", "noteNumber": 70, "velocity": 51, "subtype": "noteOn" }, { "deltaTime": 24, "channel": 9, "type": "channel", "subtype": "noteOff", "noteNumber": 35, "velocity": 64 }, { "deltaTime": 0, "channel": 9, "type": "channel", "subtype": "noteOff", "noteNumber": 42, "velocity": 64 }, { "deltaTime": 0, "channel": 9, "type": "channel", "subtype": "noteOff", "noteNumber": 70, "velocity": 64 }, { "deltaTime": 72, "channel": 9, "type": "channel", "noteNumber": 42, "velocity": 50, "subtype": "noteOn" }, { "deltaTime": 0, "channel": 9, "type": "channel", "noteNumber": 70, "velocity": 35, "subtype": "noteOn" }, { "deltaTime": 24, "channel": 9, "type": "channel", "subtype": "noteOff", "noteNumber": 42, "velocity": 64 }, { "deltaTime": 0, "channel": 9, "type": "channel", "subtype": "noteOff", "noteNumber": 70, "velocity": 64 }, { "deltaTime": 72, "channel": 9, "type": "channel", "noteNumber": 75, "velocity": 127, "subtype": "noteOn" }, { "deltaTime": 0, "channel": 9, "type": "channel", "noteNumber": 42, "velocity": 66, "subtype": "noteOn" }, { "deltaTime": 0, "channel": 9, "type": "channel", "noteNumber": 70, "velocity": 51, "subtype": "noteOn" }, { "deltaTime": 24, "channel": 9, "type": "channel", "subtype": "noteOff", "noteNumber": 75, "velocity": 64 }, { "deltaTime": 0, "channel": 9, "type": "channel", "subtype": "noteOff", "noteNumber": 42, "velocity": 64 }, { "deltaTime": 0, "channel": 9, "type": "channel", "subtype": "noteOff", "noteNumber": 70, "velocity": 64 }, { "deltaTime": 72, "channel": 9, "type": "channel", "noteNumber": 42, "velocity": 50, "subtype": "noteOn" }, { "deltaTime": 0, "channel": 9, "type": "channel", "noteNumber": 70, "velocity": 35, "subtype": "noteOn" }, { "deltaTime": 24, "channel": 9, "type": "channel", "subtype": "noteOff", "noteNumber": 42, "velocity": 64 }, { "deltaTime": 0, "channel": 9, "type": "channel", "subtype": "noteOff", "noteNumber": 70, "velocity": 64 }, { "deltaTime": 72, "channel": 9, "type": "channel", "noteNumber": 35, "velocity": 80, "subtype": "noteOn" }, { "deltaTime": 0, "channel": 9, "type": "channel", "noteNumber": 42, "velocity": 66, "subtype": "noteOn" }, { "deltaTime": 0, "channel": 9, "type": "channel", "noteNumber": 70, "velocity": 51, "subtype": "noteOn" }, { "deltaTime": 24, "channel": 9, "type": "channel", "subtype": "noteOff", "noteNumber": 35, "velocity": 64 }, { "deltaTime": 0, "channel": 9, "type": "channel", "subtype": "noteOff", "noteNumber": 42, "velocity": 64 }, { "deltaTime": 0, "channel": 9, "type": "channel", "subtype": "noteOff", "noteNumber": 70, "velocity": 64 }, { "deltaTime": 72, "channel": 9, "type": "channel", "noteNumber": 42, "velocity": 50, "subtype": "noteOn" }, { "deltaTime": 0, "channel": 9, "type": "channel", "noteNumber": 70, "velocity": 35, "subtype": "noteOn" }, { "deltaTime": 24, "channel": 9, "type": "channel", "subtype": "noteOff", "noteNumber": 42, "velocity": 64 }, { "deltaTime": 0, "channel": 9, "type": "channel", "subtype": "noteOff", "noteNumber": 70, "velocity": 64 }, { "deltaTime": 72, "channel": 9, "type": "channel", "noteNumber": 75, "velocity": 127, "subtype": "noteOn" }, { "deltaTime": 0, "channel": 9, "type": "channel", "noteNumber": 42, "velocity": 66, "subtype": "noteOn" }, { "deltaTime": 0, "channel": 9, "type": "channel", "noteNumber": 70, "velocity": 51, "subtype": "noteOn" }, { "deltaTime": 24, "channel": 9, "type": "channel", "subtype": "noteOff", "noteNumber": 75, "velocity": 64 }, { "deltaTime": 0, "channel": 9, "type": "channel", "subtype": "noteOff", "noteNumber": 42, "velocity": 64 }, { "deltaTime": 0, "channel": 9, "type": "channel", "subtype": "noteOff", "noteNumber": 70, "velocity": 64 }, { "deltaTime": 72, "channel": 9, "type": "channel", "noteNumber": 35, "velocity": 80, "subtype": "noteOn" }, { "deltaTime": 0, "channel": 9, "type": "channel", "noteNumber": 42, "velocity": 50, "subtype": "noteOn" }, { "deltaTime": 0, "channel": 9, "type": "channel", "noteNumber": 70, "velocity": 35, "subtype": "noteOn" }, { "deltaTime": 24, "channel": 9, "type": "channel", "subtype": "noteOff", "noteNumber": 35, "velocity": 64 }, { "deltaTime": 0, "channel": 9, "type": "channel", "subtype": "noteOff", "noteNumber": 42, "velocity": 64 }, { "deltaTime": 0, "channel": 9, "type": "channel", "subtype": "noteOff", "noteNumber": 70, "velocity": 64 }, { "deltaTime": 72, "channel": 9, "type": "channel", "noteNumber": 35, "velocity": 80, "subtype": "noteOn" }, { "deltaTime": 0, "channel": 9, "type": "channel", "noteNumber": 42, "velocity": 66, "subtype": "noteOn" }, { "deltaTime": 0, "channel": 9, "type": "channel", "noteNumber": 70, "velocity": 51, "subtype": "noteOn" }, { "deltaTime": 24, "channel": 9, "type": "channel", "subtype": "noteOff", "noteNumber": 35, "velocity": 64 }, { "deltaTime": 0, "channel": 9, "type": "channel", "subtype": "noteOff", "noteNumber": 42, "velocity": 64 }, { "deltaTime": 0, "channel": 9, "type": "channel", "subtype": "noteOff", "noteNumber": 70, "velocity": 64 }, { "deltaTime": 72, "channel": 9, "type": "channel", "noteNumber": 42, "velocity": 50, "subtype": "noteOn" }, { "deltaTime": 0, "channel": 9, "type": "channel", "noteNumber": 70, "velocity": 35, "subtype": "noteOn" }, { "deltaTime": 24, "channel": 9, "type": "channel", "subtype": "noteOff", "noteNumber": 42, "velocity": 64 }, { "deltaTime": 0, "channel": 9, "type": "channel", "subtype": "noteOff", "noteNumber": 70, "velocity": 64 }, { "deltaTime": 72, "channel": 9, "type": "channel", "noteNumber": 75, "velocity": 127, "subtype": "noteOn" }, { "deltaTime": 0, "channel": 9, "type": "channel", "noteNumber": 42, "velocity": 66, "subtype": "noteOn" }, { "deltaTime": 0, "channel": 9, "type": "channel", "noteNumber": 70, "velocity": 51, "subtype": "noteOn" }, { "deltaTime": 24, "channel": 9, "type": "channel", "subtype": "noteOff", "noteNumber": 75, "velocity": 64 }, { "deltaTime": 0, "channel": 9, "type": "channel", "subtype": "noteOff", "noteNumber": 42, "velocity": 64 }, { "deltaTime": 0, "channel": 9, "type": "channel", "subtype": "noteOff", "noteNumber": 70, "velocity": 64 }, { "deltaTime": 72, "channel": 9, "type": "channel", "noteNumber": 42, "velocity": 50, "subtype": "noteOn" }, { "deltaTime": 0, "channel": 9, "type": "channel", "noteNumber": 70, "velocity": 35, "subtype": "noteOn" }, { "deltaTime": 24, "channel": 9, "type": "channel", "subtype": "noteOff", "noteNumber": 42, "velocity": 64 }, { "deltaTime": 0, "channel": 9, "type": "channel", "subtype": "noteOff", "noteNumber": 70, "velocity": 64 }, { "deltaTime": 72, "channel": 9, "type": "channel", "noteNumber": 35, "velocity": 80, "subtype": "noteOn" }, { "deltaTime": 0, "channel": 9, "type": "channel", "noteNumber": 42, "velocity": 66, "subtype": "noteOn" }, { "deltaTime": 0, "channel": 9, "type": "channel", "noteNumber": 70, "velocity": 51, "subtype": "noteOn" }, { "deltaTime": 24, "channel": 9, "type": "channel", "subtype": "noteOff", "noteNumber": 35, "velocity": 64 }, { "deltaTime": 0, "channel": 9, "type": "channel", "subtype": "noteOff", "noteNumber": 42, "velocity": 64 }, { "deltaTime": 0, "channel": 9, "type": "channel", "subtype": "noteOff", "noteNumber": 70, "velocity": 64 }, { "deltaTime": 72, "channel": 9, "type": "channel", "noteNumber": 42, "velocity": 50, "subtype": "noteOn" }, { "deltaTime": 0, "channel": 9, "type": "channel", "noteNumber": 70, "velocity": 35, "subtype": "noteOn" }, { "deltaTime": 24, "channel": 9, "type": "channel", "subtype": "noteOff", "noteNumber": 42, "velocity": 64 }, { "deltaTime": 0, "channel": 9, "type": "channel", "subtype": "noteOff", "noteNumber": 70, "velocity": 64 }, { "deltaTime": 72, "channel": 9, "type": "channel", "noteNumber": 75, "velocity": 127, "subtype": "noteOn" }, { "deltaTime": 0, "channel": 9, "type": "channel", "noteNumber": 42, "velocity": 66, "subtype": "noteOn" }, { "deltaTime": 0, "channel": 9, "type": "channel", "noteNumber": 70, "velocity": 51, "subtype": "noteOn" }, { "deltaTime": 24, "channel": 9, "type": "channel", "subtype": "noteOff", "noteNumber": 75, "velocity": 64 }, { "deltaTime": 0, "channel": 9, "type": "channel", "subtype": "noteOff", "noteNumber": 42, "velocity": 64 }, { "deltaTime": 0, "channel": 9, "type": "channel", "subtype": "noteOff", "noteNumber": 70, "velocity": 64 }, { "deltaTime": 72, "channel": 9, "type": "channel", "noteNumber": 35, "velocity": 80, "subtype": "noteOn" }, { "deltaTime": 0, "channel": 9, "type": "channel", "noteNumber": 42, "velocity": 50, "subtype": "noteOn" }, { "deltaTime": 0, "channel": 9, "type": "channel", "noteNumber": 70, "velocity": 35, "subtype": "noteOn" }, { "deltaTime": 24, "channel": 9, "type": "channel", "subtype": "noteOff", "noteNumber": 35, "velocity": 64 }, { "deltaTime": 0, "channel": 9, "type": "channel", "subtype": "noteOff", "noteNumber": 42, "velocity": 64 }, { "deltaTime": 0, "channel": 9, "type": "channel", "subtype": "noteOff", "noteNumber": 70, "velocity": 64 }, { "deltaTime": 72, "channel": 9, "type": "channel", "noteNumber": 35, "velocity": 80, "subtype": "noteOn" }, { "deltaTime": 0, "channel": 9, "type": "channel", "noteNumber": 42, "velocity": 66, "subtype": "noteOn" }, { "deltaTime": 0, "channel": 9, "type": "channel", "noteNumber": 70, "velocity": 51, "subtype": "noteOn" }, { "deltaTime": 24, "channel": 9, "type": "channel", "subtype": "noteOff", "noteNumber": 35, "velocity": 64 }, { "deltaTime": 0, "channel": 9, "type": "channel", "subtype": "noteOff", "noteNumber": 42, "velocity": 64 }, { "deltaTime": 0, "channel": 9, "type": "channel", "subtype": "noteOff", "noteNumber": 70, "velocity": 64 }, { "deltaTime": 72, "channel": 9, "type": "channel", "noteNumber": 42, "velocity": 50, "subtype": "noteOn" }, { "deltaTime": 0, "channel": 9, "type": "channel", "noteNumber": 70, "velocity": 35, "subtype": "noteOn" }, { "deltaTime": 24, "channel": 9, "type": "channel", "subtype": "noteOff", "noteNumber": 42, "velocity": 64 }, { "deltaTime": 0, "channel": 9, "type": "channel", "subtype": "noteOff", "noteNumber": 70, "velocity": 64 }, { "deltaTime": 72, "channel": 9, "type": "channel", "noteNumber": 75, "velocity": 127, "subtype": "noteOn" }, { "deltaTime": 0, "channel": 9, "type": "channel", "noteNumber": 42, "velocity": 66, "subtype": "noteOn" }, { "deltaTime": 0, "channel": 9, "type": "channel", "noteNumber": 70, "velocity": 51, "subtype": "noteOn" }, { "deltaTime": 24, "channel": 9, "type": "channel", "subtype": "noteOff", "noteNumber": 75, "velocity": 64 }, { "deltaTime": 0, "channel": 9, "type": "channel", "subtype": "noteOff", "noteNumber": 42, "velocity": 64 }, { "deltaTime": 0, "channel": 9, "type": "channel", "subtype": "noteOff", "noteNumber": 70, "velocity": 64 }, { "deltaTime": 72, "channel": 9, "type": "channel", "noteNumber": 42, "velocity": 50, "subtype": "noteOn" }, { "deltaTime": 0, "channel": 9, "type": "channel", "noteNumber": 70, "velocity": 35, "subtype": "noteOn" }, { "deltaTime": 24, "channel": 9, "type": "channel", "subtype": "noteOff", "noteNumber": 42, "velocity": 64 }, { "deltaTime": 0, "channel": 9, "type": "channel", "subtype": "noteOff", "noteNumber": 70, "velocity": 64 }, { "deltaTime": 72, "channel": 9, "type": "channel", "noteNumber": 35, "velocity": 80, "subtype": "noteOn" }, { "deltaTime": 0, "channel": 9, "type": "channel", "noteNumber": 42, "velocity": 66, "subtype": "noteOn" }, { "deltaTime": 0, "channel": 9, "type": "channel", "noteNumber": 70, "velocity": 51, "subtype": "noteOn" }, { "deltaTime": 24, "channel": 9, "type": "channel", "subtype": "noteOff", "noteNumber": 35, "velocity": 64 }, { "deltaTime": 0, "channel": 9, "type": "channel", "subtype": "noteOff", "noteNumber": 42, "velocity": 64 }, { "deltaTime": 0, "channel": 9, "type": "channel", "subtype": "noteOff", "noteNumber": 70, "velocity": 64 }, { "deltaTime": 72, "channel": 9, "type": "channel", "noteNumber": 42, "velocity": 50, "subtype": "noteOn" }, { "deltaTime": 0, "channel": 9, "type": "channel", "noteNumber": 70, "velocity": 35, "subtype": "noteOn" }, { "deltaTime": 24, "channel": 9, "type": "channel", "subtype": "noteOff", "noteNumber": 42, "velocity": 64 }, { "deltaTime": 0, "channel": 9, "type": "channel", "subtype": "noteOff", "noteNumber": 70, "velocity": 64 }, { "deltaTime": 72, "channel": 9, "type": "channel", "noteNumber": 75, "velocity": 127, "subtype": "noteOn" }, { "deltaTime": 0, "channel": 9, "type": "channel", "noteNumber": 42, "velocity": 66, "subtype": "noteOn" }, { "deltaTime": 0, "channel": 9, "type": "channel", "noteNumber": 70, "velocity": 51, "subtype": "noteOn" }, { "deltaTime": 24, "channel": 9, "type": "channel", "subtype": "noteOff", "noteNumber": 75, "velocity": 64 }, { "deltaTime": 0, "channel": 9, "type": "channel", "subtype": "noteOff", "noteNumber": 42, "velocity": 64 }, { "deltaTime": 0, "channel": 9, "type": "channel", "subtype": "noteOff", "noteNumber": 70, "velocity": 64 }, { "deltaTime": 72, "channel": 9, "type": "channel", "noteNumber": 35, "velocity": 80, "subtype": "noteOn" }, { "deltaTime": 0, "channel": 9, "type": "channel", "noteNumber": 42, "velocity": 50, "subtype": "noteOn" }, { "deltaTime": 0, "channel": 9, "type": "channel", "noteNumber": 70, "velocity": 35, "subtype": "noteOn" }, { "deltaTime": 24, "channel": 9, "type": "channel", "subtype": "noteOff", "noteNumber": 35, "velocity": 64 }, { "deltaTime": 0, "channel": 9, "type": "channel", "subtype": "noteOff", "noteNumber": 42, "velocity": 64 }, { "deltaTime": 0, "channel": 9, "type": "channel", "subtype": "noteOff", "noteNumber": 70, "velocity": 64 }, { "deltaTime": 72, "channel": 9, "type": "channel", "noteNumber": 35, "velocity": 80, "subtype": "noteOn" }, { "deltaTime": 0, "channel": 9, "type": "channel", "noteNumber": 42, "velocity": 66, "subtype": "noteOn" }, { "deltaTime": 0, "channel": 9, "type": "channel", "noteNumber": 70, "velocity": 51, "subtype": "noteOn" }, { "deltaTime": 24, "channel": 9, "type": "channel", "subtype": "noteOff", "noteNumber": 35, "velocity": 64 }, { "deltaTime": 0, "channel": 9, "type": "channel", "subtype": "noteOff", "noteNumber": 42, "velocity": 64 }, { "deltaTime": 0, "channel": 9, "type": "channel", "subtype": "noteOff", "noteNumber": 70, "velocity": 64 }, { "deltaTime": 72, "channel": 9, "type": "channel", "noteNumber": 42, "velocity": 50, "subtype": "noteOn" }, { "deltaTime": 0, "channel": 9, "type": "channel", "noteNumber": 70, "velocity": 35, "subtype": "noteOn" }, { "deltaTime": 24, "channel": 9, "type": "channel", "subtype": "noteOff", "noteNumber": 42, "velocity": 64 }, { "deltaTime": 0, "channel": 9, "type": "channel", "subtype": "noteOff", "noteNumber": 70, "velocity": 64 }, { "deltaTime": 72, "channel": 9, "type": "channel", "noteNumber": 75, "velocity": 127, "subtype": "noteOn" }, { "deltaTime": 0, "channel": 9, "type": "channel", "noteNumber": 42, "velocity": 66, "subtype": "noteOn" }, { "deltaTime": 0, "channel": 9, "type": "channel", "noteNumber": 70, "velocity": 51, "subtype": "noteOn" }, { "deltaTime": 24, "channel": 9, "type": "channel", "subtype": "noteOff", "noteNumber": 75, "velocity": 64 }, { "deltaTime": 0, "channel": 9, "type": "channel", "subtype": "noteOff", "noteNumber": 42, "velocity": 64 }, { "deltaTime": 0, "channel": 9, "type": "channel", "subtype": "noteOff", "noteNumber": 70, "velocity": 64 }, { "deltaTime": 72, "channel": 9, "type": "channel", "noteNumber": 42, "velocity": 50, "subtype": "noteOn" }, { "deltaTime": 0, "channel": 9, "type": "channel", "noteNumber": 70, "velocity": 35, "subtype": "noteOn" }, { "deltaTime": 24, "channel": 9, "type": "channel", "subtype": "noteOff", "noteNumber": 42, "velocity": 64 }, { "deltaTime": 0, "channel": 9, "type": "channel", "subtype": "noteOff", "noteNumber": 70, "velocity": 64 }, { "deltaTime": 72, "channel": 9, "type": "channel", "noteNumber": 35, "velocity": 80, "subtype": "noteOn" }, { "deltaTime": 0, "channel": 9, "type": "channel", "noteNumber": 42, "velocity": 66, "subtype": "noteOn" }, { "deltaTime": 0, "channel": 9, "type": "channel", "noteNumber": 70, "velocity": 51, "subtype": "noteOn" }, { "deltaTime": 24, "channel": 9, "type": "channel", "subtype": "noteOff", "noteNumber": 35, "velocity": 64 }, { "deltaTime": 0, "channel": 9, "type": "channel", "subtype": "noteOff", "noteNumber": 42, "velocity": 64 }, { "deltaTime": 0, "channel": 9, "type": "channel", "subtype": "noteOff", "noteNumber": 70, "velocity": 64 }, { "deltaTime": 72, "channel": 9, "type": "channel", "noteNumber": 42, "velocity": 50, "subtype": "noteOn" }, { "deltaTime": 0, "channel": 9, "type": "channel", "noteNumber": 70, "velocity": 35, "subtype": "noteOn" }, { "deltaTime": 24, "channel": 9, "type": "channel", "subtype": "noteOff", "noteNumber": 42, "velocity": 64 }, { "deltaTime": 0, "channel": 9, "type": "channel", "subtype": "noteOff", "noteNumber": 70, "velocity": 64 }, { "deltaTime": 72, "channel": 9, "type": "channel", "noteNumber": 75, "velocity": 127, "subtype": "noteOn" }, { "deltaTime": 0, "channel": 9, "type": "channel", "noteNumber": 42, "velocity": 66, "subtype": "noteOn" }, { "deltaTime": 0, "channel": 9, "type": "channel", "noteNumber": 70, "velocity": 51, "subtype": "noteOn" }, { "deltaTime": 24, "channel": 9, "type": "channel", "subtype": "noteOff", "noteNumber": 75, "velocity": 64 }, { "deltaTime": 0, "channel": 9, "type": "channel", "subtype": "noteOff", "noteNumber": 42, "velocity": 64 }, { "deltaTime": 0, "channel": 9, "type": "channel", "subtype": "noteOff", "noteNumber": 70, "velocity": 64 }, { "deltaTime": 72, "channel": 9, "type": "channel", "noteNumber": 35, "velocity": 80, "subtype": "noteOn" }, { "deltaTime": 0, "channel": 9, "type": "channel", "noteNumber": 42, "velocity": 50, "subtype": "noteOn" }, { "deltaTime": 0, "channel": 9, "type": "channel", "noteNumber": 70, "velocity": 35, "subtype": "noteOn" }, { "deltaTime": 24, "channel": 9, "type": "channel", "subtype": "noteOff", "noteNumber": 35, "velocity": 64 }, { "deltaTime": 0, "channel": 9, "type": "channel", "subtype": "noteOff", "noteNumber": 42, "velocity": 64 }, { "deltaTime": 0, "channel": 9, "type": "channel", "subtype": "noteOff", "noteNumber": 70, "velocity": 64 }, { "deltaTime": 72, "channel": 9, "type": "channel", "noteNumber": 35, "velocity": 80, "subtype": "noteOn" }, { "deltaTime": 0, "channel": 9, "type": "channel", "noteNumber": 42, "velocity": 66, "subtype": "noteOn" }, { "deltaTime": 0, "channel": 9, "type": "channel", "noteNumber": 70, "velocity": 51, "subtype": "noteOn" }, { "deltaTime": 24, "channel": 9, "type": "channel", "subtype": "noteOff", "noteNumber": 35, "velocity": 64 }, { "deltaTime": 0, "channel": 9, "type": "channel", "subtype": "noteOff", "noteNumber": 42, "velocity": 64 }, { "deltaTime": 0, "channel": 9, "type": "channel", "subtype": "noteOff", "noteNumber": 70, "velocity": 64 }, { "deltaTime": 72, "channel": 9, "type": "channel", "noteNumber": 42, "velocity": 50, "subtype": "noteOn" }, { "deltaTime": 0, "channel": 9, "type": "channel", "noteNumber": 70, "velocity": 35, "subtype": "noteOn" }, { "deltaTime": 24, "channel": 9, "type": "channel", "subtype": "noteOff", "noteNumber": 42, "velocity": 64 }, { "deltaTime": 0, "channel": 9, "type": "channel", "subtype": "noteOff", "noteNumber": 70, "velocity": 64 }, { "deltaTime": 72, "channel": 9, "type": "channel", "noteNumber": 75, "velocity": 127, "subtype": "noteOn" }, { "deltaTime": 0, "channel": 9, "type": "channel", "noteNumber": 42, "velocity": 66, "subtype": "noteOn" }, { "deltaTime": 0, "channel": 9, "type": "channel", "noteNumber": 70, "velocity": 51, "subtype": "noteOn" }, { "deltaTime": 24, "channel": 9, "type": "channel", "subtype": "noteOff", "noteNumber": 75, "velocity": 64 }, { "deltaTime": 0, "channel": 9, "type": "channel", "subtype": "noteOff", "noteNumber": 42, "velocity": 64 }, { "deltaTime": 0, "channel": 9, "type": "channel", "subtype": "noteOff", "noteNumber": 70, "velocity": 64 }, { "deltaTime": 72, "channel": 9, "type": "channel", "noteNumber": 42, "velocity": 50, "subtype": "noteOn" }, { "deltaTime": 0, "channel": 9, "type": "channel", "noteNumber": 70, "velocity": 35, "subtype": "noteOn" }, { "deltaTime": 24, "channel": 9, "type": "channel", "subtype": "noteOff", "noteNumber": 42, "velocity": 64 }, { "deltaTime": 0, "channel": 9, "type": "channel", "subtype": "noteOff", "noteNumber": 70, "velocity": 64 }, { "deltaTime": 72, "channel": 9, "type": "channel", "noteNumber": 35, "velocity": 80, "subtype": "noteOn" }, { "deltaTime": 0, "channel": 9, "type": "channel", "noteNumber": 42, "velocity": 66, "subtype": "noteOn" }, { "deltaTime": 0, "channel": 9, "type": "channel", "noteNumber": 70, "velocity": 51, "subtype": "noteOn" }, { "deltaTime": 24, "channel": 9, "type": "channel", "subtype": "noteOff", "noteNumber": 35, "velocity": 64 }, { "deltaTime": 0, "channel": 9, "type": "channel", "subtype": "noteOff", "noteNumber": 42, "velocity": 64 }, { "deltaTime": 0, "channel": 9, "type": "channel", "subtype": "noteOff", "noteNumber": 70, "velocity": 64 }, { "deltaTime": 72, "channel": 9, "type": "channel", "noteNumber": 42, "velocity": 50, "subtype": "noteOn" }, { "deltaTime": 0, "channel": 9, "type": "channel", "noteNumber": 70, "velocity": 35, "subtype": "noteOn" }, { "deltaTime": 24, "channel": 9, "type": "channel", "subtype": "noteOff", "noteNumber": 42, "velocity": 64 }, { "deltaTime": 0, "channel": 9, "type": "channel", "subtype": "noteOff", "noteNumber": 70, "velocity": 64 }, { "deltaTime": 72, "channel": 9, "type": "channel", "noteNumber": 75, "velocity": 127, "subtype": "noteOn" }, { "deltaTime": 0, "channel": 9, "type": "channel", "noteNumber": 42, "velocity": 66, "subtype": "noteOn" }, { "deltaTime": 0, "channel": 9, "type": "channel", "noteNumber": 70, "velocity": 51, "subtype": "noteOn" }, { "deltaTime": 24, "channel": 9, "type": "channel", "subtype": "noteOff", "noteNumber": 75, "velocity": 64 }, { "deltaTime": 0, "channel": 9, "type": "channel", "subtype": "noteOff", "noteNumber": 42, "velocity": 64 }, { "deltaTime": 0, "channel": 9, "type": "channel", "subtype": "noteOff", "noteNumber": 70, "velocity": 64 }, { "deltaTime": 72, "channel": 9, "type": "channel", "noteNumber": 35, "velocity": 80, "subtype": "noteOn" }, { "deltaTime": 0, "channel": 9, "type": "channel", "noteNumber": 42, "velocity": 50, "subtype": "noteOn" }, { "deltaTime": 0, "channel": 9, "type": "channel", "noteNumber": 70, "velocity": 35, "subtype": "noteOn" }, { "deltaTime": 24, "channel": 9, "type": "channel", "subtype": "noteOff", "noteNumber": 35, "velocity": 64 }, { "deltaTime": 0, "channel": 9, "type": "channel", "subtype": "noteOff", "noteNumber": 42, "velocity": 64 }, { "deltaTime": 0, "channel": 9, "type": "channel", "subtype": "noteOff", "noteNumber": 70, "velocity": 64 }, { "deltaTime": 72, "channel": 9, "type": "channel", "noteNumber": 35, "velocity": 80, "subtype": "noteOn" }, { "deltaTime": 0, "channel": 9, "type": "channel", "noteNumber": 42, "velocity": 66, "subtype": "noteOn" }, { "deltaTime": 0, "channel": 9, "type": "channel", "noteNumber": 70, "velocity": 51, "subtype": "noteOn" }, { "deltaTime": 24, "channel": 9, "type": "channel", "subtype": "noteOff", "noteNumber": 35, "velocity": 64 }, { "deltaTime": 0, "channel": 9, "type": "channel", "subtype": "noteOff", "noteNumber": 42, "velocity": 64 }, { "deltaTime": 0, "channel": 9, "type": "channel", "subtype": "noteOff", "noteNumber": 70, "velocity": 64 }, { "deltaTime": 72, "channel": 9, "type": "channel", "noteNumber": 42, "velocity": 50, "subtype": "noteOn" }, { "deltaTime": 0, "channel": 9, "type": "channel", "noteNumber": 70, "velocity": 35, "subtype": "noteOn" }, { "deltaTime": 24, "channel": 9, "type": "channel", "subtype": "noteOff", "noteNumber": 42, "velocity": 64 }, { "deltaTime": 0, "channel": 9, "type": "channel", "subtype": "noteOff", "noteNumber": 70, "velocity": 64 }, { "deltaTime": 72, "channel": 9, "type": "channel", "noteNumber": 75, "velocity": 127, "subtype": "noteOn" }, { "deltaTime": 0, "channel": 9, "type": "channel", "noteNumber": 42, "velocity": 66, "subtype": "noteOn" }, { "deltaTime": 0, "channel": 9, "type": "channel", "noteNumber": 70, "velocity": 51, "subtype": "noteOn" }, { "deltaTime": 24, "channel": 9, "type": "channel", "subtype": "noteOff", "noteNumber": 75, "velocity": 64 }, { "deltaTime": 0, "channel": 9, "type": "channel", "subtype": "noteOff", "noteNumber": 42, "velocity": 64 }, { "deltaTime": 0, "channel": 9, "type": "channel", "subtype": "noteOff", "noteNumber": 70, "velocity": 64 }, { "deltaTime": 72, "channel": 9, "type": "channel", "noteNumber": 42, "velocity": 50, "subtype": "noteOn" }, { "deltaTime": 0, "channel": 9, "type": "channel", "noteNumber": 70, "velocity": 35, "subtype": "noteOn" }, { "deltaTime": 24, "channel": 9, "type": "channel", "subtype": "noteOff", "noteNumber": 42, "velocity": 64 }, { "deltaTime": 0, "channel": 9, "type": "channel", "subtype": "noteOff", "noteNumber": 70, "velocity": 64 }, { "deltaTime": 72, "channel": 9, "type": "channel", "noteNumber": 35, "velocity": 80, "subtype": "noteOn" }, { "deltaTime": 0, "channel": 9, "type": "channel", "noteNumber": 42, "velocity": 66, "subtype": "noteOn" }, { "deltaTime": 0, "channel": 9, "type": "channel", "noteNumber": 70, "velocity": 51, "subtype": "noteOn" }, { "deltaTime": 24, "channel": 9, "type": "channel", "subtype": "noteOff", "noteNumber": 35, "velocity": 64 }, { "deltaTime": 0, "channel": 9, "type": "channel", "subtype": "noteOff", "noteNumber": 42, "velocity": 64 }, { "deltaTime": 0, "channel": 9, "type": "channel", "subtype": "noteOff", "noteNumber": 70, "velocity": 64 }, { "deltaTime": 72, "channel": 9, "type": "channel", "noteNumber": 42, "velocity": 50, "subtype": "noteOn" }, { "deltaTime": 0, "channel": 9, "type": "channel", "noteNumber": 70, "velocity": 35, "subtype": "noteOn" }, { "deltaTime": 24, "channel": 9, "type": "channel", "subtype": "noteOff", "noteNumber": 42, "velocity": 64 }, { "deltaTime": 0, "channel": 9, "type": "channel", "subtype": "noteOff", "noteNumber": 70, "velocity": 64 }, { "deltaTime": 72, "channel": 9, "type": "channel", "noteNumber": 75, "velocity": 127, "subtype": "noteOn" }, { "deltaTime": 0, "channel": 9, "type": "channel", "noteNumber": 42, "velocity": 66, "subtype": "noteOn" }, { "deltaTime": 0, "channel": 9, "type": "channel", "noteNumber": 70, "velocity": 51, "subtype": "noteOn" }, { "deltaTime": 24, "channel": 9, "type": "channel", "subtype": "noteOff", "noteNumber": 75, "velocity": 64 }, { "deltaTime": 0, "channel": 9, "type": "channel", "subtype": "noteOff", "noteNumber": 42, "velocity": 64 }, { "deltaTime": 0, "channel": 9, "type": "channel", "subtype": "noteOff", "noteNumber": 70, "velocity": 64 }, { "deltaTime": 72, "channel": 9, "type": "channel", "noteNumber": 35, "velocity": 80, "subtype": "noteOn" }, { "deltaTime": 0, "channel": 9, "type": "channel", "noteNumber": 42, "velocity": 50, "subtype": "noteOn" }, { "deltaTime": 0, "channel": 9, "type": "channel", "noteNumber": 70, "velocity": 35, "subtype": "noteOn" }, { "deltaTime": 24, "channel": 9, "type": "channel", "subtype": "noteOff", "noteNumber": 35, "velocity": 64 }, { "deltaTime": 0, "channel": 9, "type": "channel", "subtype": "noteOff", "noteNumber": 42, "velocity": 64 }, { "deltaTime": 0, "channel": 9, "type": "channel", "subtype": "noteOff", "noteNumber": 70, "velocity": 64 }, { "deltaTime": 72, "channel": 9, "type": "channel", "noteNumber": 35, "velocity": 80, "subtype": "noteOn" }, { "deltaTime": 0, "channel": 9, "type": "channel", "noteNumber": 42, "velocity": 66, "subtype": "noteOn" }, { "deltaTime": 0, "channel": 9, "type": "channel", "noteNumber": 70, "velocity": 51, "subtype": "noteOn" }, { "deltaTime": 24, "channel": 9, "type": "channel", "subtype": "noteOff", "noteNumber": 35, "velocity": 64 }, { "deltaTime": 0, "channel": 9, "type": "channel", "subtype": "noteOff", "noteNumber": 42, "velocity": 64 }, { "deltaTime": 0, "channel": 9, "type": "channel", "subtype": "noteOff", "noteNumber": 70, "velocity": 64 }, { "deltaTime": 72, "channel": 9, "type": "channel", "noteNumber": 42, "velocity": 50, "subtype": "noteOn" }, { "deltaTime": 0, "channel": 9, "type": "channel", "noteNumber": 70, "velocity": 35, "subtype": "noteOn" }, { "deltaTime": 24, "channel": 9, "type": "channel", "subtype": "noteOff", "noteNumber": 42, "velocity": 64 }, { "deltaTime": 0, "channel": 9, "type": "channel", "subtype": "noteOff", "noteNumber": 70, "velocity": 64 }, { "deltaTime": 72, "channel": 9, "type": "channel", "noteNumber": 75, "velocity": 127, "subtype": "noteOn" }, { "deltaTime": 0, "channel": 9, "type": "channel", "noteNumber": 42, "velocity": 66, "subtype": "noteOn" }, { "deltaTime": 0, "channel": 9, "type": "channel", "noteNumber": 70, "velocity": 51, "subtype": "noteOn" }, { "deltaTime": 24, "channel": 9, "type": "channel", "subtype": "noteOff", "noteNumber": 75, "velocity": 64 }, { "deltaTime": 0, "channel": 9, "type": "channel", "subtype": "noteOff", "noteNumber": 42, "velocity": 64 }, { "deltaTime": 0, "channel": 9, "type": "channel", "subtype": "noteOff", "noteNumber": 70, "velocity": 64 }, { "deltaTime": 72, "channel": 9, "type": "channel", "noteNumber": 42, "velocity": 50, "subtype": "noteOn" }, { "deltaTime": 0, "channel": 9, "type": "channel", "noteNumber": 70, "velocity": 35, "subtype": "noteOn" }, { "deltaTime": 24, "channel": 9, "type": "channel", "subtype": "noteOff", "noteNumber": 42, "velocity": 64 }, { "deltaTime": 0, "channel": 9, "type": "channel", "subtype": "noteOff", "noteNumber": 70, "velocity": 64 }, { "deltaTime": 72, "channel": 9, "type": "channel", "noteNumber": 35, "velocity": 80, "subtype": "noteOn" }, { "deltaTime": 0, "channel": 9, "type": "channel", "noteNumber": 42, "velocity": 66, "subtype": "noteOn" }, { "deltaTime": 0, "channel": 9, "type": "channel", "noteNumber": 70, "velocity": 51, "subtype": "noteOn" }, { "deltaTime": 24, "channel": 9, "type": "channel", "subtype": "noteOff", "noteNumber": 35, "velocity": 64 }, { "deltaTime": 0, "channel": 9, "type": "channel", "subtype": "noteOff", "noteNumber": 42, "velocity": 64 }, { "deltaTime": 0, "channel": 9, "type": "channel", "subtype": "noteOff", "noteNumber": 70, "velocity": 64 }, { "deltaTime": 72, "channel": 9, "type": "channel", "noteNumber": 42, "velocity": 50, "subtype": "noteOn" }, { "deltaTime": 0, "channel": 9, "type": "channel", "noteNumber": 70, "velocity": 35, "subtype": "noteOn" }, { "deltaTime": 24, "channel": 9, "type": "channel", "subtype": "noteOff", "noteNumber": 42, "velocity": 64 }, { "deltaTime": 0, "channel": 9, "type": "channel", "subtype": "noteOff", "noteNumber": 70, "velocity": 64 }, { "deltaTime": 72, "channel": 9, "type": "channel", "noteNumber": 75, "velocity": 127, "subtype": "noteOn" }, { "deltaTime": 0, "channel": 9, "type": "channel", "noteNumber": 42, "velocity": 66, "subtype": "noteOn" }, { "deltaTime": 0, "channel": 9, "type": "channel", "noteNumber": 70, "velocity": 51, "subtype": "noteOn" }, { "deltaTime": 24, "channel": 9, "type": "channel", "subtype": "noteOff", "noteNumber": 75, "velocity": 64 }, { "deltaTime": 0, "channel": 9, "type": "channel", "subtype": "noteOff", "noteNumber": 42, "velocity": 64 }, { "deltaTime": 0, "channel": 9, "type": "channel", "subtype": "noteOff", "noteNumber": 70, "velocity": 64 }, { "deltaTime": 72, "channel": 9, "type": "channel", "noteNumber": 35, "velocity": 80, "subtype": "noteOn" }, { "deltaTime": 0, "channel": 9, "type": "channel", "noteNumber": 42, "velocity": 50, "subtype": "noteOn" }, { "deltaTime": 0, "channel": 9, "type": "channel", "noteNumber": 70, "velocity": 35, "subtype": "noteOn" }, { "deltaTime": 24, "channel": 9, "type": "channel", "subtype": "noteOff", "noteNumber": 35, "velocity": 64 }, { "deltaTime": 0, "channel": 9, "type": "channel", "subtype": "noteOff", "noteNumber": 42, "velocity": 64 }, { "deltaTime": 0, "channel": 9, "type": "channel", "subtype": "noteOff", "noteNumber": 70, "velocity": 64 }, { "deltaTime": 72, "channel": 9, "type": "channel", "noteNumber": 35, "velocity": 80, "subtype": "noteOn" }, { "deltaTime": 0, "channel": 9, "type": "channel", "noteNumber": 42, "velocity": 66, "subtype": "noteOn" }, { "deltaTime": 0, "channel": 9, "type": "channel", "noteNumber": 70, "velocity": 51, "subtype": "noteOn" }, { "deltaTime": 24, "channel": 9, "type": "channel", "subtype": "noteOff", "noteNumber": 35, "velocity": 64 }, { "deltaTime": 0, "channel": 9, "type": "channel", "subtype": "noteOff", "noteNumber": 42, "velocity": 64 }, { "deltaTime": 0, "channel": 9, "type": "channel", "subtype": "noteOff", "noteNumber": 70, "velocity": 64 }, { "deltaTime": 72, "channel": 9, "type": "channel", "noteNumber": 42, "velocity": 50, "subtype": "noteOn" }, { "deltaTime": 0, "channel": 9, "type": "channel", "noteNumber": 70, "velocity": 35, "subtype": "noteOn" }, { "deltaTime": 24, "channel": 9, "type": "channel", "subtype": "noteOff", "noteNumber": 42, "velocity": 64 }, { "deltaTime": 0, "channel": 9, "type": "channel", "subtype": "noteOff", "noteNumber": 70, "velocity": 64 }, { "deltaTime": 72, "channel": 9, "type": "channel", "noteNumber": 75, "velocity": 127, "subtype": "noteOn" }, { "deltaTime": 0, "channel": 9, "type": "channel", "noteNumber": 42, "velocity": 66, "subtype": "noteOn" }, { "deltaTime": 0, "channel": 9, "type": "channel", "noteNumber": 70, "velocity": 51, "subtype": "noteOn" }, { "deltaTime": 24, "channel": 9, "type": "channel", "subtype": "noteOff", "noteNumber": 75, "velocity": 64 }, { "deltaTime": 0, "channel": 9, "type": "channel", "subtype": "noteOff", "noteNumber": 42, "velocity": 64 }, { "deltaTime": 0, "channel": 9, "type": "channel", "subtype": "noteOff", "noteNumber": 70, "velocity": 64 }, { "deltaTime": 72, "channel": 9, "type": "channel", "noteNumber": 42, "velocity": 50, "subtype": "noteOn" }, { "deltaTime": 0, "channel": 9, "type": "channel", "noteNumber": 70, "velocity": 35, "subtype": "noteOn" }, { "deltaTime": 24, "channel": 9, "type": "channel", "subtype": "noteOff", "noteNumber": 42, "velocity": 64 }, { "deltaTime": 0, "channel": 9, "type": "channel", "subtype": "noteOff", "noteNumber": 70, "velocity": 64 }, { "deltaTime": 72, "channel": 9, "type": "channel", "noteNumber": 35, "velocity": 80, "subtype": "noteOn" }, { "deltaTime": 0, "channel": 9, "type": "channel", "noteNumber": 51, "velocity": 127, "subtype": "noteOn" }, { "deltaTime": 24, "channel": 9, "type": "channel", "subtype": "noteOff", "noteNumber": 35, "velocity": 64 }, { "deltaTime": 0, "channel": 9, "type": "channel", "subtype": "noteOff", "noteNumber": 51, "velocity": 64 }, { "deltaTime": 72, "channel": 9, "type": "channel", "noteNumber": 42, "velocity": 50, "subtype": "noteOn" }, { "deltaTime": 0, "channel": 9, "type": "channel", "noteNumber": 70, "velocity": 35, "subtype": "noteOn" }, { "deltaTime": 24, "channel": 9, "type": "channel", "subtype": "noteOff", "noteNumber": 42, "velocity": 64 }, { "deltaTime": 0, "channel": 9, "type": "channel", "subtype": "noteOff", "noteNumber": 70, "velocity": 64 }, { "deltaTime": 72, "channel": 9, "type": "channel", "noteNumber": 75, "velocity": 112, "subtype": "noteOn" }, { "deltaTime": 0, "channel": 9, "type": "channel", "noteNumber": 42, "velocity": 66, "subtype": "noteOn" }, { "deltaTime": 0, "channel": 9, "type": "channel", "noteNumber": 70, "velocity": 51, "subtype": "noteOn" }, { "deltaTime": 24, "channel": 9, "type": "channel", "subtype": "noteOff", "noteNumber": 75, "velocity": 64 }, { "deltaTime": 0, "channel": 9, "type": "channel", "subtype": "noteOff", "noteNumber": 42, "velocity": 64 }, { "deltaTime": 0, "channel": 9, "type": "channel", "subtype": "noteOff", "noteNumber": 70, "velocity": 64 }, { "deltaTime": 72, "channel": 9, "type": "channel", "noteNumber": 35, "velocity": 80, "subtype": "noteOn" }, { "deltaTime": 0, "channel": 9, "type": "channel", "noteNumber": 42, "velocity": 50, "subtype": "noteOn" }, { "deltaTime": 0, "channel": 9, "type": "channel", "noteNumber": 70, "velocity": 35, "subtype": "noteOn" }, { "deltaTime": 24, "channel": 9, "type": "channel", "subtype": "noteOff", "noteNumber": 35, "velocity": 64 }, { "deltaTime": 0, "channel": 9, "type": "channel", "subtype": "noteOff", "noteNumber": 42, "velocity": 64 }, { "deltaTime": 0, "channel": 9, "type": "channel", "subtype": "noteOff", "noteNumber": 70, "velocity": 64 }, { "deltaTime": 72, "channel": 9, "type": "channel", "noteNumber": 35, "velocity": 80, "subtype": "noteOn" }, { "deltaTime": 0, "channel": 9, "type": "channel", "noteNumber": 42, "velocity": 66, "subtype": "noteOn" }, { "deltaTime": 0, "channel": 9, "type": "channel", "noteNumber": 70, "velocity": 51, "subtype": "noteOn" }, { "deltaTime": 24, "channel": 9, "type": "channel", "subtype": "noteOff", "noteNumber": 35, "velocity": 64 }, { "deltaTime": 0, "channel": 9, "type": "channel", "subtype": "noteOff", "noteNumber": 42, "velocity": 64 }, { "deltaTime": 0, "channel": 9, "type": "channel", "subtype": "noteOff", "noteNumber": 70, "velocity": 64 }, { "deltaTime": 72, "channel": 9, "type": "channel", "noteNumber": 42, "velocity": 50, "subtype": "noteOn" }, { "deltaTime": 0, "channel": 9, "type": "channel", "noteNumber": 70, "velocity": 35, "subtype": "noteOn" }, { "deltaTime": 24, "channel": 9, "type": "channel", "subtype": "noteOff", "noteNumber": 42, "velocity": 64 }, { "deltaTime": 0, "channel": 9, "type": "channel", "subtype": "noteOff", "noteNumber": 70, "velocity": 64 }, { "deltaTime": 72, "channel": 9, "type": "channel", "noteNumber": 75, "velocity": 112, "subtype": "noteOn" }, { "deltaTime": 0, "channel": 9, "type": "channel", "noteNumber": 42, "velocity": 66, "subtype": "noteOn" }, { "deltaTime": 0, "channel": 9, "type": "channel", "noteNumber": 70, "velocity": 51, "subtype": "noteOn" }, { "deltaTime": 24, "channel": 9, "type": "channel", "subtype": "noteOff", "noteNumber": 75, "velocity": 64 }, { "deltaTime": 0, "channel": 9, "type": "channel", "subtype": "noteOff", "noteNumber": 42, "velocity": 64 }, { "deltaTime": 0, "channel": 9, "type": "channel", "subtype": "noteOff", "noteNumber": 70, "velocity": 64 }, { "deltaTime": 72, "channel": 9, "type": "channel", "noteNumber": 42, "velocity": 50, "subtype": "noteOn" }, { "deltaTime": 0, "channel": 9, "type": "channel", "noteNumber": 70, "velocity": 35, "subtype": "noteOn" }, { "deltaTime": 24, "channel": 9, "type": "channel", "subtype": "noteOff", "noteNumber": 42, "velocity": 64 }, { "deltaTime": 0, "channel": 9, "type": "channel", "subtype": "noteOff", "noteNumber": 70, "velocity": 64 }, { "deltaTime": 72, "channel": 9, "type": "channel", "noteNumber": 35, "velocity": 80, "subtype": "noteOn" }, { "deltaTime": 0, "channel": 9, "type": "channel", "noteNumber": 42, "velocity": 66, "subtype": "noteOn" }, { "deltaTime": 0, "channel": 9, "type": "channel", "noteNumber": 70, "velocity": 51, "subtype": "noteOn" }, { "deltaTime": 24, "channel": 9, "type": "channel", "subtype": "noteOff", "noteNumber": 35, "velocity": 64 }, { "deltaTime": 0, "channel": 9, "type": "channel", "subtype": "noteOff", "noteNumber": 42, "velocity": 64 }, { "deltaTime": 0, "channel": 9, "type": "channel", "subtype": "noteOff", "noteNumber": 70, "velocity": 64 }, { "deltaTime": 72, "channel": 9, "type": "channel", "noteNumber": 42, "velocity": 50, "subtype": "noteOn" }, { "deltaTime": 0, "channel": 9, "type": "channel", "noteNumber": 70, "velocity": 35, "subtype": "noteOn" }, { "deltaTime": 24, "channel": 9, "type": "channel", "subtype": "noteOff", "noteNumber": 42, "velocity": 64 }, { "deltaTime": 0, "channel": 9, "type": "channel", "subtype": "noteOff", "noteNumber": 70, "velocity": 64 }, { "deltaTime": 72, "channel": 9, "type": "channel", "noteNumber": 75, "velocity": 127, "subtype": "noteOn" }, { "deltaTime": 0, "channel": 9, "type": "channel", "noteNumber": 42, "velocity": 66, "subtype": "noteOn" }, { "deltaTime": 0, "channel": 9, "type": "channel", "noteNumber": 70, "velocity": 51, "subtype": "noteOn" }, { "deltaTime": 24, "channel": 9, "type": "channel", "subtype": "noteOff", "noteNumber": 75, "velocity": 64 }, { "deltaTime": 0, "channel": 9, "type": "channel", "subtype": "noteOff", "noteNumber": 42, "velocity": 64 }, { "deltaTime": 0, "channel": 9, "type": "channel", "subtype": "noteOff", "noteNumber": 70, "velocity": 64 }, { "deltaTime": 72, "channel": 9, "type": "channel", "noteNumber": 35, "velocity": 80, "subtype": "noteOn" }, { "deltaTime": 0, "channel": 9, "type": "channel", "noteNumber": 42, "velocity": 50, "subtype": "noteOn" }, { "deltaTime": 0, "channel": 9, "type": "channel", "noteNumber": 70, "velocity": 35, "subtype": "noteOn" }, { "deltaTime": 24, "channel": 9, "type": "channel", "subtype": "noteOff", "noteNumber": 35, "velocity": 64 }, { "deltaTime": 0, "channel": 9, "type": "channel", "subtype": "noteOff", "noteNumber": 42, "velocity": 64 }, { "deltaTime": 0, "channel": 9, "type": "channel", "subtype": "noteOff", "noteNumber": 70, "velocity": 64 }, { "deltaTime": 72, "channel": 9, "type": "channel", "noteNumber": 35, "velocity": 80, "subtype": "noteOn" }, { "deltaTime": 0, "channel": 9, "type": "channel", "noteNumber": 42, "velocity": 66, "subtype": "noteOn" }, { "deltaTime": 0, "channel": 9, "type": "channel", "noteNumber": 70, "velocity": 51, "subtype": "noteOn" }, { "deltaTime": 24, "channel": 9, "type": "channel", "subtype": "noteOff", "noteNumber": 35, "velocity": 64 }, { "deltaTime": 0, "channel": 9, "type": "channel", "subtype": "noteOff", "noteNumber": 42, "velocity": 64 }, { "deltaTime": 0, "channel": 9, "type": "channel", "subtype": "noteOff", "noteNumber": 70, "velocity": 64 }, { "deltaTime": 72, "channel": 9, "type": "channel", "noteNumber": 42, "velocity": 50, "subtype": "noteOn" }, { "deltaTime": 0, "channel": 9, "type": "channel", "noteNumber": 70, "velocity": 35, "subtype": "noteOn" }, { "deltaTime": 24, "channel": 9, "type": "channel", "subtype": "noteOff", "noteNumber": 42, "velocity": 64 }, { "deltaTime": 0, "channel": 9, "type": "channel", "subtype": "noteOff", "noteNumber": 70, "velocity": 64 }, { "deltaTime": 72, "channel": 9, "type": "channel", "noteNumber": 75, "velocity": 127, "subtype": "noteOn" }, { "deltaTime": 0, "channel": 9, "type": "channel", "noteNumber": 42, "velocity": 66, "subtype": "noteOn" }, { "deltaTime": 0, "channel": 9, "type": "channel", "noteNumber": 70, "velocity": 51, "subtype": "noteOn" }, { "deltaTime": 24, "channel": 9, "type": "channel", "subtype": "noteOff", "noteNumber": 75, "velocity": 64 }, { "deltaTime": 0, "channel": 9, "type": "channel", "subtype": "noteOff", "noteNumber": 42, "velocity": 64 }, { "deltaTime": 0, "channel": 9, "type": "channel", "subtype": "noteOff", "noteNumber": 70, "velocity": 64 }, { "deltaTime": 72, "channel": 9, "type": "channel", "noteNumber": 42, "velocity": 50, "subtype": "noteOn" }, { "deltaTime": 0, "channel": 9, "type": "channel", "noteNumber": 70, "velocity": 35, "subtype": "noteOn" }, { "deltaTime": 24, "channel": 9, "type": "channel", "subtype": "noteOff", "noteNumber": 42, "velocity": 64 }, { "deltaTime": 0, "channel": 9, "type": "channel", "subtype": "noteOff", "noteNumber": 70, "velocity": 64 }, { "deltaTime": 72, "channel": 9, "type": "channel", "noteNumber": 35, "velocity": 80, "subtype": "noteOn" }, { "deltaTime": 0, "channel": 9, "type": "channel", "noteNumber": 42, "velocity": 66, "subtype": "noteOn" }, { "deltaTime": 0, "channel": 9, "type": "channel", "noteNumber": 70, "velocity": 51, "subtype": "noteOn" }, { "deltaTime": 24, "channel": 9, "type": "channel", "subtype": "noteOff", "noteNumber": 35, "velocity": 64 }, { "deltaTime": 0, "channel": 9, "type": "channel", "subtype": "noteOff", "noteNumber": 42, "velocity": 64 }, { "deltaTime": 0, "channel": 9, "type": "channel", "subtype": "noteOff", "noteNumber": 70, "velocity": 64 }, { "deltaTime": 72, "channel": 9, "type": "channel", "noteNumber": 42, "velocity": 50, "subtype": "noteOn" }, { "deltaTime": 0, "channel": 9, "type": "channel", "noteNumber": 70, "velocity": 35, "subtype": "noteOn" }, { "deltaTime": 24, "channel": 9, "type": "channel", "subtype": "noteOff", "noteNumber": 42, "velocity": 64 }, { "deltaTime": 0, "channel": 9, "type": "channel", "subtype": "noteOff", "noteNumber": 70, "velocity": 64 }, { "deltaTime": 72, "channel": 9, "type": "channel", "noteNumber": 75, "velocity": 127, "subtype": "noteOn" }, { "deltaTime": 0, "channel": 9, "type": "channel", "noteNumber": 42, "velocity": 66, "subtype": "noteOn" }, { "deltaTime": 0, "channel": 9, "type": "channel", "noteNumber": 70, "velocity": 51, "subtype": "noteOn" }, { "deltaTime": 24, "channel": 9, "type": "channel", "subtype": "noteOff", "noteNumber": 75, "velocity": 64 }, { "deltaTime": 0, "channel": 9, "type": "channel", "subtype": "noteOff", "noteNumber": 42, "velocity": 64 }, { "deltaTime": 0, "channel": 9, "type": "channel", "subtype": "noteOff", "noteNumber": 70, "velocity": 64 }, { "deltaTime": 72, "channel": 9, "type": "channel", "noteNumber": 35, "velocity": 80, "subtype": "noteOn" }, { "deltaTime": 0, "channel": 9, "type": "channel", "noteNumber": 42, "velocity": 50, "subtype": "noteOn" }, { "deltaTime": 0, "channel": 9, "type": "channel", "noteNumber": 70, "velocity": 35, "subtype": "noteOn" }, { "deltaTime": 24, "channel": 9, "type": "channel", "subtype": "noteOff", "noteNumber": 35, "velocity": 64 }, { "deltaTime": 0, "channel": 9, "type": "channel", "subtype": "noteOff", "noteNumber": 42, "velocity": 64 }, { "deltaTime": 0, "channel": 9, "type": "channel", "subtype": "noteOff", "noteNumber": 70, "velocity": 64 }, { "deltaTime": 72, "channel": 9, "type": "channel", "noteNumber": 35, "velocity": 80, "subtype": "noteOn" }, { "deltaTime": 0, "channel": 9, "type": "channel", "noteNumber": 42, "velocity": 66, "subtype": "noteOn" }, { "deltaTime": 0, "channel": 9, "type": "channel", "noteNumber": 70, "velocity": 51, "subtype": "noteOn" }, { "deltaTime": 24, "channel": 9, "type": "channel", "subtype": "noteOff", "noteNumber": 35, "velocity": 64 }, { "deltaTime": 0, "channel": 9, "type": "channel", "subtype": "noteOff", "noteNumber": 42, "velocity": 64 }, { "deltaTime": 0, "channel": 9, "type": "channel", "subtype": "noteOff", "noteNumber": 70, "velocity": 64 }, { "deltaTime": 72, "channel": 9, "type": "channel", "noteNumber": 42, "velocity": 50, "subtype": "noteOn" }, { "deltaTime": 0, "channel": 9, "type": "channel", "noteNumber": 70, "velocity": 35, "subtype": "noteOn" }, { "deltaTime": 24, "channel": 9, "type": "channel", "subtype": "noteOff", "noteNumber": 42, "velocity": 64 }, { "deltaTime": 0, "channel": 9, "type": "channel", "subtype": "noteOff", "noteNumber": 70, "velocity": 64 }, { "deltaTime": 72, "channel": 9, "type": "channel", "noteNumber": 75, "velocity": 127, "subtype": "noteOn" }, { "deltaTime": 0, "channel": 9, "type": "channel", "noteNumber": 42, "velocity": 66, "subtype": "noteOn" }, { "deltaTime": 0, "channel": 9, "type": "channel", "noteNumber": 70, "velocity": 51, "subtype": "noteOn" }, { "deltaTime": 24, "channel": 9, "type": "channel", "subtype": "noteOff", "noteNumber": 75, "velocity": 64 }, { "deltaTime": 0, "channel": 9, "type": "channel", "subtype": "noteOff", "noteNumber": 42, "velocity": 64 }, { "deltaTime": 0, "channel": 9, "type": "channel", "subtype": "noteOff", "noteNumber": 70, "velocity": 64 }, { "deltaTime": 72, "channel": 9, "type": "channel", "noteNumber": 42, "velocity": 50, "subtype": "noteOn" }, { "deltaTime": 0, "channel": 9, "type": "channel", "noteNumber": 70, "velocity": 35, "subtype": "noteOn" }, { "deltaTime": 24, "channel": 9, "type": "channel", "subtype": "noteOff", "noteNumber": 42, "velocity": 64 }, { "deltaTime": 0, "channel": 9, "type": "channel", "subtype": "noteOff", "noteNumber": 70, "velocity": 64 }, { "deltaTime": 72, "channel": 9, "type": "channel", "noteNumber": 35, "velocity": 80, "subtype": "noteOn" }, { "deltaTime": 0, "channel": 9, "type": "channel", "noteNumber": 42, "velocity": 66, "subtype": "noteOn" }, { "deltaTime": 0, "channel": 9, "type": "channel", "noteNumber": 70, "velocity": 51, "subtype": "noteOn" }, { "deltaTime": 24, "channel": 9, "type": "channel", "subtype": "noteOff", "noteNumber": 35, "velocity": 64 }, { "deltaTime": 0, "channel": 9, "type": "channel", "subtype": "noteOff", "noteNumber": 42, "velocity": 64 }, { "deltaTime": 0, "channel": 9, "type": "channel", "subtype": "noteOff", "noteNumber": 70, "velocity": 64 }, { "deltaTime": 72, "channel": 9, "type": "channel", "noteNumber": 42, "velocity": 50, "subtype": "noteOn" }, { "deltaTime": 0, "channel": 9, "type": "channel", "noteNumber": 70, "velocity": 35, "subtype": "noteOn" }, { "deltaTime": 24, "channel": 9, "type": "channel", "subtype": "noteOff", "noteNumber": 42, "velocity": 64 }, { "deltaTime": 0, "channel": 9, "type": "channel", "subtype": "noteOff", "noteNumber": 70, "velocity": 64 }, { "deltaTime": 72, "channel": 9, "type": "channel", "noteNumber": 75, "velocity": 127, "subtype": "noteOn" }, { "deltaTime": 0, "channel": 9, "type": "channel", "noteNumber": 42, "velocity": 66, "subtype": "noteOn" }, { "deltaTime": 0, "channel": 9, "type": "channel", "noteNumber": 70, "velocity": 51, "subtype": "noteOn" }, { "deltaTime": 24, "channel": 9, "type": "channel", "subtype": "noteOff", "noteNumber": 75, "velocity": 64 }, { "deltaTime": 0, "channel": 9, "type": "channel", "subtype": "noteOff", "noteNumber": 42, "velocity": 64 }, { "deltaTime": 0, "channel": 9, "type": "channel", "subtype": "noteOff", "noteNumber": 70, "velocity": 64 }, { "deltaTime": 72, "channel": 9, "type": "channel", "noteNumber": 35, "velocity": 80, "subtype": "noteOn" }, { "deltaTime": 0, "channel": 9, "type": "channel", "noteNumber": 42, "velocity": 50, "subtype": "noteOn" }, { "deltaTime": 0, "channel": 9, "type": "channel", "noteNumber": 70, "velocity": 35, "subtype": "noteOn" }, { "deltaTime": 24, "channel": 9, "type": "channel", "subtype": "noteOff", "noteNumber": 35, "velocity": 64 }, { "deltaTime": 0, "channel": 9, "type": "channel", "subtype": "noteOff", "noteNumber": 42, "velocity": 64 }, { "deltaTime": 0, "channel": 9, "type": "channel", "subtype": "noteOff", "noteNumber": 70, "velocity": 64 }, { "deltaTime": 72, "channel": 9, "type": "channel", "noteNumber": 35, "velocity": 80, "subtype": "noteOn" }, { "deltaTime": 0, "channel": 9, "type": "channel", "noteNumber": 42, "velocity": 66, "subtype": "noteOn" }, { "deltaTime": 0, "channel": 9, "type": "channel", "noteNumber": 70, "velocity": 51, "subtype": "noteOn" }, { "deltaTime": 24, "channel": 9, "type": "channel", "subtype": "noteOff", "noteNumber": 35, "velocity": 64 }, { "deltaTime": 0, "channel": 9, "type": "channel", "subtype": "noteOff", "noteNumber": 42, "velocity": 64 }, { "deltaTime": 0, "channel": 9, "type": "channel", "subtype": "noteOff", "noteNumber": 70, "velocity": 64 }, { "deltaTime": 72, "channel": 9, "type": "channel", "noteNumber": 42, "velocity": 50, "subtype": "noteOn" }, { "deltaTime": 0, "channel": 9, "type": "channel", "noteNumber": 70, "velocity": 35, "subtype": "noteOn" }, { "deltaTime": 24, "channel": 9, "type": "channel", "subtype": "noteOff", "noteNumber": 42, "velocity": 64 }, { "deltaTime": 0, "channel": 9, "type": "channel", "subtype": "noteOff", "noteNumber": 70, "velocity": 64 }, { "deltaTime": 72, "channel": 9, "type": "channel", "noteNumber": 75, "velocity": 127, "subtype": "noteOn" }, { "deltaTime": 0, "channel": 9, "type": "channel", "noteNumber": 42, "velocity": 66, "subtype": "noteOn" }, { "deltaTime": 0, "channel": 9, "type": "channel", "noteNumber": 70, "velocity": 51, "subtype": "noteOn" }, { "deltaTime": 24, "channel": 9, "type": "channel", "subtype": "noteOff", "noteNumber": 75, "velocity": 64 }, { "deltaTime": 0, "channel": 9, "type": "channel", "subtype": "noteOff", "noteNumber": 42, "velocity": 64 }, { "deltaTime": 0, "channel": 9, "type": "channel", "subtype": "noteOff", "noteNumber": 70, "velocity": 64 }, { "deltaTime": 72, "channel": 9, "type": "channel", "noteNumber": 42, "velocity": 50, "subtype": "noteOn" }, { "deltaTime": 0, "channel": 9, "type": "channel", "noteNumber": 70, "velocity": 35, "subtype": "noteOn" }, { "deltaTime": 24, "channel": 9, "type": "channel", "subtype": "noteOff", "noteNumber": 42, "velocity": 64 }, { "deltaTime": 0, "channel": 9, "type": "channel", "subtype": "noteOff", "noteNumber": 70, "velocity": 64 }, { "deltaTime": 72, "channel": 9, "type": "channel", "noteNumber": 35, "velocity": 80, "subtype": "noteOn" }, { "deltaTime": 0, "channel": 9, "type": "channel", "noteNumber": 42, "velocity": 66, "subtype": "noteOn" }, { "deltaTime": 0, "channel": 9, "type": "channel", "noteNumber": 70, "velocity": 51, "subtype": "noteOn" }, { "deltaTime": 24, "channel": 9, "type": "channel", "subtype": "noteOff", "noteNumber": 35, "velocity": 64 }, { "deltaTime": 0, "channel": 9, "type": "channel", "subtype": "noteOff", "noteNumber": 42, "velocity": 64 }, { "deltaTime": 0, "channel": 9, "type": "channel", "subtype": "noteOff", "noteNumber": 70, "velocity": 64 }, { "deltaTime": 72, "channel": 9, "type": "channel", "noteNumber": 42, "velocity": 50, "subtype": "noteOn" }, { "deltaTime": 0, "channel": 9, "type": "channel", "noteNumber": 70, "velocity": 35, "subtype": "noteOn" }, { "deltaTime": 24, "channel": 9, "type": "channel", "subtype": "noteOff", "noteNumber": 42, "velocity": 64 }, { "deltaTime": 0, "channel": 9, "type": "channel", "subtype": "noteOff", "noteNumber": 70, "velocity": 64 }, { "deltaTime": 72, "channel": 9, "type": "channel", "noteNumber": 75, "velocity": 127, "subtype": "noteOn" }, { "deltaTime": 0, "channel": 9, "type": "channel", "noteNumber": 42, "velocity": 66, "subtype": "noteOn" }, { "deltaTime": 0, "channel": 9, "type": "channel", "noteNumber": 70, "velocity": 51, "subtype": "noteOn" }, { "deltaTime": 24, "channel": 9, "type": "channel", "subtype": "noteOff", "noteNumber": 75, "velocity": 64 }, { "deltaTime": 0, "channel": 9, "type": "channel", "subtype": "noteOff", "noteNumber": 42, "velocity": 64 }, { "deltaTime": 0, "channel": 9, "type": "channel", "subtype": "noteOff", "noteNumber": 70, "velocity": 64 }, { "deltaTime": 72, "channel": 9, "type": "channel", "noteNumber": 35, "velocity": 80, "subtype": "noteOn" }, { "deltaTime": 0, "channel": 9, "type": "channel", "noteNumber": 42, "velocity": 50, "subtype": "noteOn" }, { "deltaTime": 0, "channel": 9, "type": "channel", "noteNumber": 70, "velocity": 35, "subtype": "noteOn" }, { "deltaTime": 24, "channel": 9, "type": "channel", "subtype": "noteOff", "noteNumber": 35, "velocity": 64 }, { "deltaTime": 0, "channel": 9, "type": "channel", "subtype": "noteOff", "noteNumber": 42, "velocity": 64 }, { "deltaTime": 0, "channel": 9, "type": "channel", "subtype": "noteOff", "noteNumber": 70, "velocity": 64 }, { "deltaTime": 72, "channel": 9, "type": "channel", "noteNumber": 35, "velocity": 80, "subtype": "noteOn" }, { "deltaTime": 0, "channel": 9, "type": "channel", "noteNumber": 42, "velocity": 66, "subtype": "noteOn" }, { "deltaTime": 0, "channel": 9, "type": "channel", "noteNumber": 70, "velocity": 51, "subtype": "noteOn" }, { "deltaTime": 24, "channel": 9, "type": "channel", "subtype": "noteOff", "noteNumber": 35, "velocity": 64 }, { "deltaTime": 0, "channel": 9, "type": "channel", "subtype": "noteOff", "noteNumber": 42, "velocity": 64 }, { "deltaTime": 0, "channel": 9, "type": "channel", "subtype": "noteOff", "noteNumber": 70, "velocity": 64 }, { "deltaTime": 72, "channel": 9, "type": "channel", "noteNumber": 42, "velocity": 50, "subtype": "noteOn" }, { "deltaTime": 0, "channel": 9, "type": "channel", "noteNumber": 70, "velocity": 35, "subtype": "noteOn" }, { "deltaTime": 24, "channel": 9, "type": "channel", "subtype": "noteOff", "noteNumber": 42, "velocity": 64 }, { "deltaTime": 0, "channel": 9, "type": "channel", "subtype": "noteOff", "noteNumber": 70, "velocity": 64 }, { "deltaTime": 72, "channel": 9, "type": "channel", "noteNumber": 75, "velocity": 127, "subtype": "noteOn" }, { "deltaTime": 0, "channel": 9, "type": "channel", "noteNumber": 42, "velocity": 66, "subtype": "noteOn" }, { "deltaTime": 0, "channel": 9, "type": "channel", "noteNumber": 70, "velocity": 51, "subtype": "noteOn" }, { "deltaTime": 24, "channel": 9, "type": "channel", "subtype": "noteOff", "noteNumber": 75, "velocity": 64 }, { "deltaTime": 0, "channel": 9, "type": "channel", "subtype": "noteOff", "noteNumber": 42, "velocity": 64 }, { "deltaTime": 0, "channel": 9, "type": "channel", "subtype": "noteOff", "noteNumber": 70, "velocity": 64 }, { "deltaTime": 72, "channel": 9, "type": "channel", "noteNumber": 42, "velocity": 50, "subtype": "noteOn" }, { "deltaTime": 0, "channel": 9, "type": "channel", "noteNumber": 70, "velocity": 35, "subtype": "noteOn" }, { "deltaTime": 24, "channel": 9, "type": "channel", "subtype": "noteOff", "noteNumber": 42, "velocity": 64 }, { "deltaTime": 0, "channel": 9, "type": "channel", "subtype": "noteOff", "noteNumber": 70, "velocity": 64 }, { "deltaTime": 72, "channel": 9, "type": "channel", "noteNumber": 35, "velocity": 80, "subtype": "noteOn" }, { "deltaTime": 0, "channel": 9, "type": "channel", "noteNumber": 42, "velocity": 66, "subtype": "noteOn" }, { "deltaTime": 0, "channel": 9, "type": "channel", "noteNumber": 70, "velocity": 51, "subtype": "noteOn" }, { "deltaTime": 24, "channel": 9, "type": "channel", "subtype": "noteOff", "noteNumber": 35, "velocity": 64 }, { "deltaTime": 0, "channel": 9, "type": "channel", "subtype": "noteOff", "noteNumber": 42, "velocity": 64 }, { "deltaTime": 0, "channel": 9, "type": "channel", "subtype": "noteOff", "noteNumber": 70, "velocity": 64 }, { "deltaTime": 72, "channel": 9, "type": "channel", "noteNumber": 42, "velocity": 50, "subtype": "noteOn" }, { "deltaTime": 0, "channel": 9, "type": "channel", "noteNumber": 70, "velocity": 35, "subtype": "noteOn" }, { "deltaTime": 24, "channel": 9, "type": "channel", "subtype": "noteOff", "noteNumber": 42, "velocity": 64 }, { "deltaTime": 0, "channel": 9, "type": "channel", "subtype": "noteOff", "noteNumber": 70, "velocity": 64 }, { "deltaTime": 72, "channel": 9, "type": "channel", "noteNumber": 75, "velocity": 127, "subtype": "noteOn" }, { "deltaTime": 0, "channel": 9, "type": "channel", "noteNumber": 42, "velocity": 66, "subtype": "noteOn" }, { "deltaTime": 0, "channel": 9, "type": "channel", "noteNumber": 70, "velocity": 51, "subtype": "noteOn" }, { "deltaTime": 24, "channel": 9, "type": "channel", "subtype": "noteOff", "noteNumber": 75, "velocity": 64 }, { "deltaTime": 0, "channel": 9, "type": "channel", "subtype": "noteOff", "noteNumber": 42, "velocity": 64 }, { "deltaTime": 0, "channel": 9, "type": "channel", "subtype": "noteOff", "noteNumber": 70, "velocity": 64 }, { "deltaTime": 72, "channel": 9, "type": "channel", "noteNumber": 35, "velocity": 80, "subtype": "noteOn" }, { "deltaTime": 0, "channel": 9, "type": "channel", "noteNumber": 42, "velocity": 50, "subtype": "noteOn" }, { "deltaTime": 0, "channel": 9, "type": "channel", "noteNumber": 70, "velocity": 35, "subtype": "noteOn" }, { "deltaTime": 24, "channel": 9, "type": "channel", "subtype": "noteOff", "noteNumber": 35, "velocity": 64 }, { "deltaTime": 0, "channel": 9, "type": "channel", "subtype": "noteOff", "noteNumber": 42, "velocity": 64 }, { "deltaTime": 0, "channel": 9, "type": "channel", "subtype": "noteOff", "noteNumber": 70, "velocity": 64 }, { "deltaTime": 72, "channel": 9, "type": "channel", "noteNumber": 35, "velocity": 80, "subtype": "noteOn" }, { "deltaTime": 0, "channel": 9, "type": "channel", "noteNumber": 42, "velocity": 66, "subtype": "noteOn" }, { "deltaTime": 0, "channel": 9, "type": "channel", "noteNumber": 70, "velocity": 51, "subtype": "noteOn" }, { "deltaTime": 24, "channel": 9, "type": "channel", "subtype": "noteOff", "noteNumber": 35, "velocity": 64 }, { "deltaTime": 0, "channel": 9, "type": "channel", "subtype": "noteOff", "noteNumber": 42, "velocity": 64 }, { "deltaTime": 0, "channel": 9, "type": "channel", "subtype": "noteOff", "noteNumber": 70, "velocity": 64 }, { "deltaTime": 72, "channel": 9, "type": "channel", "noteNumber": 42, "velocity": 50, "subtype": "noteOn" }, { "deltaTime": 0, "channel": 9, "type": "channel", "noteNumber": 70, "velocity": 35, "subtype": "noteOn" }, { "deltaTime": 24, "channel": 9, "type": "channel", "subtype": "noteOff", "noteNumber": 42, "velocity": 64 }, { "deltaTime": 0, "channel": 9, "type": "channel", "subtype": "noteOff", "noteNumber": 70, "velocity": 64 }, { "deltaTime": 72, "channel": 9, "type": "channel", "noteNumber": 75, "velocity": 127, "subtype": "noteOn" }, { "deltaTime": 0, "channel": 9, "type": "channel", "noteNumber": 42, "velocity": 66, "subtype": "noteOn" }, { "deltaTime": 0, "channel": 9, "type": "channel", "noteNumber": 70, "velocity": 51, "subtype": "noteOn" }, { "deltaTime": 24, "channel": 9, "type": "channel", "subtype": "noteOff", "noteNumber": 75, "velocity": 64 }, { "deltaTime": 0, "channel": 9, "type": "channel", "subtype": "noteOff", "noteNumber": 42, "velocity": 64 }, { "deltaTime": 0, "channel": 9, "type": "channel", "subtype": "noteOff", "noteNumber": 70, "velocity": 64 }, { "deltaTime": 72, "channel": 9, "type": "channel", "noteNumber": 42, "velocity": 50, "subtype": "noteOn" }, { "deltaTime": 0, "channel": 9, "type": "channel", "noteNumber": 70, "velocity": 35, "subtype": "noteOn" }, { "deltaTime": 24, "channel": 9, "type": "channel", "subtype": "noteOff", "noteNumber": 42, "velocity": 64 }, { "deltaTime": 0, "channel": 9, "type": "channel", "subtype": "noteOff", "noteNumber": 70, "velocity": 64 }, { "deltaTime": 72, "channel": 9, "type": "channel", "noteNumber": 35, "velocity": 80, "subtype": "noteOn" }, { "deltaTime": 0, "channel": 9, "type": "channel", "noteNumber": 42, "velocity": 66, "subtype": "noteOn" }, { "deltaTime": 0, "channel": 9, "type": "channel", "noteNumber": 70, "velocity": 51, "subtype": "noteOn" }, { "deltaTime": 24, "channel": 9, "type": "channel", "subtype": "noteOff", "noteNumber": 35, "velocity": 64 }, { "deltaTime": 0, "channel": 9, "type": "channel", "subtype": "noteOff", "noteNumber": 42, "velocity": 64 }, { "deltaTime": 0, "channel": 9, "type": "channel", "subtype": "noteOff", "noteNumber": 70, "velocity": 64 }, { "deltaTime": 72, "channel": 9, "type": "channel", "noteNumber": 42, "velocity": 50, "subtype": "noteOn" }, { "deltaTime": 0, "channel": 9, "type": "channel", "noteNumber": 70, "velocity": 35, "subtype": "noteOn" }, { "deltaTime": 24, "channel": 9, "type": "channel", "subtype": "noteOff", "noteNumber": 42, "velocity": 64 }, { "deltaTime": 0, "channel": 9, "type": "channel", "subtype": "noteOff", "noteNumber": 70, "velocity": 64 }, { "deltaTime": 72, "channel": 9, "type": "channel", "noteNumber": 75, "velocity": 127, "subtype": "noteOn" }, { "deltaTime": 0, "channel": 9, "type": "channel", "noteNumber": 42, "velocity": 66, "subtype": "noteOn" }, { "deltaTime": 0, "channel": 9, "type": "channel", "noteNumber": 70, "velocity": 51, "subtype": "noteOn" }, { "deltaTime": 24, "channel": 9, "type": "channel", "subtype": "noteOff", "noteNumber": 75, "velocity": 64 }, { "deltaTime": 0, "channel": 9, "type": "channel", "subtype": "noteOff", "noteNumber": 42, "velocity": 64 }, { "deltaTime": 0, "channel": 9, "type": "channel", "subtype": "noteOff", "noteNumber": 70, "velocity": 64 }, { "deltaTime": 72, "channel": 9, "type": "channel", "noteNumber": 35, "velocity": 80, "subtype": "noteOn" }, { "deltaTime": 0, "channel": 9, "type": "channel", "noteNumber": 42, "velocity": 50, "subtype": "noteOn" }, { "deltaTime": 0, "channel": 9, "type": "channel", "noteNumber": 70, "velocity": 35, "subtype": "noteOn" }, { "deltaTime": 24, "channel": 9, "type": "channel", "subtype": "noteOff", "noteNumber": 35, "velocity": 64 }, { "deltaTime": 0, "channel": 9, "type": "channel", "subtype": "noteOff", "noteNumber": 42, "velocity": 64 }, { "deltaTime": 0, "channel": 9, "type": "channel", "subtype": "noteOff", "noteNumber": 70, "velocity": 64 }, { "deltaTime": 72, "channel": 9, "type": "channel", "noteNumber": 35, "velocity": 80, "subtype": "noteOn" }, { "deltaTime": 0, "channel": 9, "type": "channel", "noteNumber": 42, "velocity": 66, "subtype": "noteOn" }, { "deltaTime": 0, "channel": 9, "type": "channel", "noteNumber": 70, "velocity": 51, "subtype": "noteOn" }, { "deltaTime": 24, "channel": 9, "type": "channel", "subtype": "noteOff", "noteNumber": 35, "velocity": 64 }, { "deltaTime": 0, "channel": 9, "type": "channel", "subtype": "noteOff", "noteNumber": 42, "velocity": 64 }, { "deltaTime": 0, "channel": 9, "type": "channel", "subtype": "noteOff", "noteNumber": 70, "velocity": 64 }, { "deltaTime": 72, "channel": 9, "type": "channel", "noteNumber": 42, "velocity": 50, "subtype": "noteOn" }, { "deltaTime": 0, "channel": 9, "type": "channel", "noteNumber": 70, "velocity": 35, "subtype": "noteOn" }, { "deltaTime": 24, "channel": 9, "type": "channel", "subtype": "noteOff", "noteNumber": 42, "velocity": 64 }, { "deltaTime": 0, "channel": 9, "type": "channel", "subtype": "noteOff", "noteNumber": 70, "velocity": 64 }, { "deltaTime": 72, "channel": 9, "type": "channel", "noteNumber": 75, "velocity": 127, "subtype": "noteOn" }, { "deltaTime": 0, "channel": 9, "type": "channel", "noteNumber": 42, "velocity": 66, "subtype": "noteOn" }, { "deltaTime": 0, "channel": 9, "type": "channel", "noteNumber": 70, "velocity": 51, "subtype": "noteOn" }, { "deltaTime": 24, "channel": 9, "type": "channel", "subtype": "noteOff", "noteNumber": 75, "velocity": 64 }, { "deltaTime": 0, "channel": 9, "type": "channel", "subtype": "noteOff", "noteNumber": 42, "velocity": 64 }, { "deltaTime": 0, "channel": 9, "type": "channel", "subtype": "noteOff", "noteNumber": 70, "velocity": 64 }, { "deltaTime": 72, "channel": 9, "type": "channel", "noteNumber": 42, "velocity": 50, "subtype": "noteOn" }, { "deltaTime": 0, "channel": 9, "type": "channel", "noteNumber": 70, "velocity": 35, "subtype": "noteOn" }, { "deltaTime": 24, "channel": 9, "type": "channel", "subtype": "noteOff", "noteNumber": 42, "velocity": 64 }, { "deltaTime": 0, "channel": 9, "type": "channel", "subtype": "noteOff", "noteNumber": 70, "velocity": 64 }, { "deltaTime": 72, "channel": 9, "type": "channel", "noteNumber": 35, "velocity": 80, "subtype": "noteOn" }, { "deltaTime": 0, "channel": 9, "type": "channel", "noteNumber": 42, "velocity": 66, "subtype": "noteOn" }, { "deltaTime": 0, "channel": 9, "type": "channel", "noteNumber": 70, "velocity": 51, "subtype": "noteOn" }, { "deltaTime": 24, "channel": 9, "type": "channel", "subtype": "noteOff", "noteNumber": 35, "velocity": 64 }, { "deltaTime": 0, "channel": 9, "type": "channel", "subtype": "noteOff", "noteNumber": 42, "velocity": 64 }, { "deltaTime": 0, "channel": 9, "type": "channel", "subtype": "noteOff", "noteNumber": 70, "velocity": 64 }, { "deltaTime": 72, "channel": 9, "type": "channel", "noteNumber": 42, "velocity": 50, "subtype": "noteOn" }, { "deltaTime": 0, "channel": 9, "type": "channel", "noteNumber": 70, "velocity": 35, "subtype": "noteOn" }, { "deltaTime": 24, "channel": 9, "type": "channel", "subtype": "noteOff", "noteNumber": 42, "velocity": 64 }, { "deltaTime": 0, "channel": 9, "type": "channel", "subtype": "noteOff", "noteNumber": 70, "velocity": 64 }, { "deltaTime": 72, "channel": 9, "type": "channel", "noteNumber": 75, "velocity": 127, "subtype": "noteOn" }, { "deltaTime": 0, "channel": 9, "type": "channel", "noteNumber": 42, "velocity": 66, "subtype": "noteOn" }, { "deltaTime": 0, "channel": 9, "type": "channel", "noteNumber": 70, "velocity": 51, "subtype": "noteOn" }, { "deltaTime": 24, "channel": 9, "type": "channel", "subtype": "noteOff", "noteNumber": 75, "velocity": 64 }, { "deltaTime": 0, "channel": 9, "type": "channel", "subtype": "noteOff", "noteNumber": 42, "velocity": 64 }, { "deltaTime": 0, "channel": 9, "type": "channel", "subtype": "noteOff", "noteNumber": 70, "velocity": 64 }, { "deltaTime": 72, "channel": 9, "type": "channel", "noteNumber": 35, "velocity": 80, "subtype": "noteOn" }, { "deltaTime": 0, "channel": 9, "type": "channel", "noteNumber": 42, "velocity": 50, "subtype": "noteOn" }, { "deltaTime": 0, "channel": 9, "type": "channel", "noteNumber": 70, "velocity": 35, "subtype": "noteOn" }, { "deltaTime": 24, "channel": 9, "type": "channel", "subtype": "noteOff", "noteNumber": 35, "velocity": 64 }, { "deltaTime": 0, "channel": 9, "type": "channel", "subtype": "noteOff", "noteNumber": 42, "velocity": 64 }, { "deltaTime": 0, "channel": 9, "type": "channel", "subtype": "noteOff", "noteNumber": 70, "velocity": 64 }, { "deltaTime": 72, "channel": 9, "type": "channel", "noteNumber": 35, "velocity": 80, "subtype": "noteOn" }, { "deltaTime": 0, "channel": 9, "type": "channel", "noteNumber": 42, "velocity": 66, "subtype": "noteOn" }, { "deltaTime": 0, "channel": 9, "type": "channel", "noteNumber": 70, "velocity": 51, "subtype": "noteOn" }, { "deltaTime": 24, "channel": 9, "type": "channel", "subtype": "noteOff", "noteNumber": 35, "velocity": 64 }, { "deltaTime": 0, "channel": 9, "type": "channel", "subtype": "noteOff", "noteNumber": 42, "velocity": 64 }, { "deltaTime": 0, "channel": 9, "type": "channel", "subtype": "noteOff", "noteNumber": 70, "velocity": 64 }, { "deltaTime": 72, "channel": 9, "type": "channel", "noteNumber": 42, "velocity": 50, "subtype": "noteOn" }, { "deltaTime": 0, "channel": 9, "type": "channel", "noteNumber": 70, "velocity": 35, "subtype": "noteOn" }, { "deltaTime": 24, "channel": 9, "type": "channel", "subtype": "noteOff", "noteNumber": 42, "velocity": 64 }, { "deltaTime": 0, "channel": 9, "type": "channel", "subtype": "noteOff", "noteNumber": 70, "velocity": 64 }, { "deltaTime": 72, "channel": 9, "type": "channel", "noteNumber": 75, "velocity": 127, "subtype": "noteOn" }, { "deltaTime": 0, "channel": 9, "type": "channel", "noteNumber": 42, "velocity": 66, "subtype": "noteOn" }, { "deltaTime": 0, "channel": 9, "type": "channel", "noteNumber": 70, "velocity": 51, "subtype": "noteOn" }, { "deltaTime": 24, "channel": 9, "type": "channel", "subtype": "noteOff", "noteNumber": 75, "velocity": 64 }, { "deltaTime": 0, "channel": 9, "type": "channel", "subtype": "noteOff", "noteNumber": 42, "velocity": 64 }, { "deltaTime": 0, "channel": 9, "type": "channel", "subtype": "noteOff", "noteNumber": 70, "velocity": 64 }, { "deltaTime": 72, "channel": 9, "type": "channel", "noteNumber": 42, "velocity": 50, "subtype": "noteOn" }, { "deltaTime": 0, "channel": 9, "type": "channel", "noteNumber": 70, "velocity": 35, "subtype": "noteOn" }, { "deltaTime": 24, "channel": 9, "type": "channel", "subtype": "noteOff", "noteNumber": 42, "velocity": 64 }, { "deltaTime": 0, "channel": 9, "type": "channel", "subtype": "noteOff", "noteNumber": 70, "velocity": 64 }, { "deltaTime": 72, "channel": 9, "type": "channel", "noteNumber": 35, "velocity": 80, "subtype": "noteOn" }, { "deltaTime": 0, "channel": 9, "type": "channel", "noteNumber": 42, "velocity": 66, "subtype": "noteOn" }, { "deltaTime": 0, "channel": 9, "type": "channel", "noteNumber": 70, "velocity": 51, "subtype": "noteOn" }, { "deltaTime": 24, "channel": 9, "type": "channel", "subtype": "noteOff", "noteNumber": 35, "velocity": 64 }, { "deltaTime": 0, "channel": 9, "type": "channel", "subtype": "noteOff", "noteNumber": 42, "velocity": 64 }, { "deltaTime": 0, "channel": 9, "type": "channel", "subtype": "noteOff", "noteNumber": 70, "velocity": 64 }, { "deltaTime": 72, "channel": 9, "type": "channel", "noteNumber": 42, "velocity": 50, "subtype": "noteOn" }, { "deltaTime": 0, "channel": 9, "type": "channel", "noteNumber": 70, "velocity": 35, "subtype": "noteOn" }, { "deltaTime": 24, "channel": 9, "type": "channel", "subtype": "noteOff", "noteNumber": 42, "velocity": 64 }, { "deltaTime": 0, "channel": 9, "type": "channel", "subtype": "noteOff", "noteNumber": 70, "velocity": 64 }, { "deltaTime": 72, "channel": 9, "type": "channel", "noteNumber": 75, "velocity": 127, "subtype": "noteOn" }, { "deltaTime": 0, "channel": 9, "type": "channel", "noteNumber": 42, "velocity": 66, "subtype": "noteOn" }, { "deltaTime": 0, "channel": 9, "type": "channel", "noteNumber": 70, "velocity": 51, "subtype": "noteOn" }, { "deltaTime": 24, "channel": 9, "type": "channel", "subtype": "noteOff", "noteNumber": 75, "velocity": 64 }, { "deltaTime": 0, "channel": 9, "type": "channel", "subtype": "noteOff", "noteNumber": 42, "velocity": 64 }, { "deltaTime": 0, "channel": 9, "type": "channel", "subtype": "noteOff", "noteNumber": 70, "velocity": 64 }, { "deltaTime": 72, "channel": 9, "type": "channel", "noteNumber": 35, "velocity": 80, "subtype": "noteOn" }, { "deltaTime": 0, "channel": 9, "type": "channel", "noteNumber": 42, "velocity": 50, "subtype": "noteOn" }, { "deltaTime": 0, "channel": 9, "type": "channel", "noteNumber": 70, "velocity": 35, "subtype": "noteOn" }, { "deltaTime": 24, "channel": 9, "type": "channel", "subtype": "noteOff", "noteNumber": 35, "velocity": 64 }, { "deltaTime": 0, "channel": 9, "type": "channel", "subtype": "noteOff", "noteNumber": 42, "velocity": 64 }, { "deltaTime": 0, "channel": 9, "type": "channel", "subtype": "noteOff", "noteNumber": 70, "velocity": 64 }, { "deltaTime": 72, "channel": 9, "type": "channel", "noteNumber": 35, "velocity": 80, "subtype": "noteOn" }, { "deltaTime": 0, "channel": 9, "type": "channel", "noteNumber": 42, "velocity": 66, "subtype": "noteOn" }, { "deltaTime": 0, "channel": 9, "type": "channel", "noteNumber": 70, "velocity": 51, "subtype": "noteOn" }, { "deltaTime": 24, "channel": 9, "type": "channel", "subtype": "noteOff", "noteNumber": 35, "velocity": 64 }, { "deltaTime": 0, "channel": 9, "type": "channel", "subtype": "noteOff", "noteNumber": 42, "velocity": 64 }, { "deltaTime": 0, "channel": 9, "type": "channel", "subtype": "noteOff", "noteNumber": 70, "velocity": 64 }, { "deltaTime": 72, "channel": 9, "type": "channel", "noteNumber": 42, "velocity": 50, "subtype": "noteOn" }, { "deltaTime": 0, "channel": 9, "type": "channel", "noteNumber": 70, "velocity": 35, "subtype": "noteOn" }, { "deltaTime": 24, "channel": 9, "type": "channel", "subtype": "noteOff", "noteNumber": 42, "velocity": 64 }, { "deltaTime": 0, "channel": 9, "type": "channel", "subtype": "noteOff", "noteNumber": 70, "velocity": 64 }, { "deltaTime": 72, "channel": 9, "type": "channel", "noteNumber": 75, "velocity": 127, "subtype": "noteOn" }, { "deltaTime": 0, "channel": 9, "type": "channel", "noteNumber": 42, "velocity": 66, "subtype": "noteOn" }, { "deltaTime": 0, "channel": 9, "type": "channel", "noteNumber": 70, "velocity": 51, "subtype": "noteOn" }, { "deltaTime": 24, "channel": 9, "type": "channel", "subtype": "noteOff", "noteNumber": 75, "velocity": 64 }, { "deltaTime": 0, "channel": 9, "type": "channel", "subtype": "noteOff", "noteNumber": 42, "velocity": 64 }, { "deltaTime": 0, "channel": 9, "type": "channel", "subtype": "noteOff", "noteNumber": 70, "velocity": 64 }, { "deltaTime": 72, "channel": 9, "type": "channel", "noteNumber": 42, "velocity": 50, "subtype": "noteOn" }, { "deltaTime": 0, "channel": 9, "type": "channel", "noteNumber": 70, "velocity": 35, "subtype": "noteOn" }, { "deltaTime": 24, "channel": 9, "type": "channel", "subtype": "noteOff", "noteNumber": 42, "velocity": 64 }, { "deltaTime": 0, "channel": 9, "type": "channel", "subtype": "noteOff", "noteNumber": 70, "velocity": 64 }, { "deltaTime": 72, "channel": 9, "type": "channel", "noteNumber": 35, "velocity": 80, "subtype": "noteOn" }, { "deltaTime": 0, "channel": 9, "type": "channel", "noteNumber": 42, "velocity": 66, "subtype": "noteOn" }, { "deltaTime": 0, "channel": 9, "type": "channel", "noteNumber": 70, "velocity": 51, "subtype": "noteOn" }, { "deltaTime": 24, "channel": 9, "type": "channel", "subtype": "noteOff", "noteNumber": 35, "velocity": 64 }, { "deltaTime": 0, "channel": 9, "type": "channel", "subtype": "noteOff", "noteNumber": 42, "velocity": 64 }, { "deltaTime": 0, "channel": 9, "type": "channel", "subtype": "noteOff", "noteNumber": 70, "velocity": 64 }, { "deltaTime": 72, "channel": 9, "type": "channel", "noteNumber": 42, "velocity": 50, "subtype": "noteOn" }, { "deltaTime": 0, "channel": 9, "type": "channel", "noteNumber": 70, "velocity": 35, "subtype": "noteOn" }, { "deltaTime": 24, "channel": 9, "type": "channel", "subtype": "noteOff", "noteNumber": 42, "velocity": 64 }, { "deltaTime": 0, "channel": 9, "type": "channel", "subtype": "noteOff", "noteNumber": 70, "velocity": 64 }, { "deltaTime": 72, "channel": 9, "type": "channel", "noteNumber": 75, "velocity": 127, "subtype": "noteOn" }, { "deltaTime": 0, "channel": 9, "type": "channel", "noteNumber": 42, "velocity": 66, "subtype": "noteOn" }, { "deltaTime": 0, "channel": 9, "type": "channel", "noteNumber": 70, "velocity": 51, "subtype": "noteOn" }, { "deltaTime": 24, "channel": 9, "type": "channel", "subtype": "noteOff", "noteNumber": 75, "velocity": 64 }, { "deltaTime": 0, "channel": 9, "type": "channel", "subtype": "noteOff", "noteNumber": 42, "velocity": 64 }, { "deltaTime": 0, "channel": 9, "type": "channel", "subtype": "noteOff", "noteNumber": 70, "velocity": 64 }, { "deltaTime": 72, "channel": 9, "type": "channel", "noteNumber": 35, "velocity": 80, "subtype": "noteOn" }, { "deltaTime": 0, "channel": 9, "type": "channel", "noteNumber": 42, "velocity": 50, "subtype": "noteOn" }, { "deltaTime": 0, "channel": 9, "type": "channel", "noteNumber": 70, "velocity": 35, "subtype": "noteOn" }, { "deltaTime": 24, "channel": 9, "type": "channel", "subtype": "noteOff", "noteNumber": 35, "velocity": 64 }, { "deltaTime": 0, "channel": 9, "type": "channel", "subtype": "noteOff", "noteNumber": 42, "velocity": 64 }, { "deltaTime": 0, "channel": 9, "type": "channel", "subtype": "noteOff", "noteNumber": 70, "velocity": 64 }, { "deltaTime": 72, "channel": 9, "type": "channel", "noteNumber": 35, "velocity": 80, "subtype": "noteOn" }, { "deltaTime": 0, "channel": 9, "type": "channel", "noteNumber": 42, "velocity": 66, "subtype": "noteOn" }, { "deltaTime": 0, "channel": 9, "type": "channel", "noteNumber": 70, "velocity": 51, "subtype": "noteOn" }, { "deltaTime": 24, "channel": 9, "type": "channel", "subtype": "noteOff", "noteNumber": 35, "velocity": 64 }, { "deltaTime": 0, "channel": 9, "type": "channel", "subtype": "noteOff", "noteNumber": 42, "velocity": 64 }, { "deltaTime": 0, "channel": 9, "type": "channel", "subtype": "noteOff", "noteNumber": 70, "velocity": 64 }, { "deltaTime": 72, "channel": 9, "type": "channel", "noteNumber": 42, "velocity": 50, "subtype": "noteOn" }, { "deltaTime": 0, "channel": 9, "type": "channel", "noteNumber": 70, "velocity": 35, "subtype": "noteOn" }, { "deltaTime": 24, "channel": 9, "type": "channel", "subtype": "noteOff", "noteNumber": 42, "velocity": 64 }, { "deltaTime": 0, "channel": 9, "type": "channel", "subtype": "noteOff", "noteNumber": 70, "velocity": 64 }, { "deltaTime": 72, "channel": 9, "type": "channel", "noteNumber": 75, "velocity": 127, "subtype": "noteOn" }, { "deltaTime": 0, "channel": 9, "type": "channel", "noteNumber": 42, "velocity": 66, "subtype": "noteOn" }, { "deltaTime": 0, "channel": 9, "type": "channel", "noteNumber": 70, "velocity": 51, "subtype": "noteOn" }, { "deltaTime": 24, "channel": 9, "type": "channel", "subtype": "noteOff", "noteNumber": 75, "velocity": 64 }, { "deltaTime": 0, "channel": 9, "type": "channel", "subtype": "noteOff", "noteNumber": 42, "velocity": 64 }, { "deltaTime": 0, "channel": 9, "type": "channel", "subtype": "noteOff", "noteNumber": 70, "velocity": 64 }, { "deltaTime": 72, "channel": 9, "type": "channel", "noteNumber": 42, "velocity": 50, "subtype": "noteOn" }, { "deltaTime": 0, "channel": 9, "type": "channel", "noteNumber": 70, "velocity": 35, "subtype": "noteOn" }, { "deltaTime": 24, "channel": 9, "type": "channel", "subtype": "noteOff", "noteNumber": 42, "velocity": 64 }, { "deltaTime": 0, "channel": 9, "type": "channel", "subtype": "noteOff", "noteNumber": 70, "velocity": 64 }, { "deltaTime": 72, "channel": 9, "type": "channel", "noteNumber": 35, "velocity": 80, "subtype": "noteOn" }, { "deltaTime": 0, "channel": 9, "type": "channel", "noteNumber": 42, "velocity": 66, "subtype": "noteOn" }, { "deltaTime": 0, "channel": 9, "type": "channel", "noteNumber": 70, "velocity": 51, "subtype": "noteOn" }, { "deltaTime": 24, "channel": 9, "type": "channel", "subtype": "noteOff", "noteNumber": 35, "velocity": 64 }, { "deltaTime": 0, "channel": 9, "type": "channel", "subtype": "noteOff", "noteNumber": 42, "velocity": 64 }, { "deltaTime": 0, "channel": 9, "type": "channel", "subtype": "noteOff", "noteNumber": 70, "velocity": 64 }, { "deltaTime": 72, "channel": 9, "type": "channel", "noteNumber": 42, "velocity": 50, "subtype": "noteOn" }, { "deltaTime": 0, "channel": 9, "type": "channel", "noteNumber": 70, "velocity": 35, "subtype": "noteOn" }, { "deltaTime": 24, "channel": 9, "type": "channel", "subtype": "noteOff", "noteNumber": 42, "velocity": 64 }, { "deltaTime": 0, "channel": 9, "type": "channel", "subtype": "noteOff", "noteNumber": 70, "velocity": 64 }, { "deltaTime": 72, "channel": 9, "type": "channel", "noteNumber": 75, "velocity": 127, "subtype": "noteOn" }, { "deltaTime": 0, "channel": 9, "type": "channel", "noteNumber": 42, "velocity": 66, "subtype": "noteOn" }, { "deltaTime": 0, "channel": 9, "type": "channel", "noteNumber": 70, "velocity": 51, "subtype": "noteOn" }, { "deltaTime": 24, "channel": 9, "type": "channel", "subtype": "noteOff", "noteNumber": 75, "velocity": 64 }, { "deltaTime": 0, "channel": 9, "type": "channel", "subtype": "noteOff", "noteNumber": 42, "velocity": 64 }, { "deltaTime": 0, "channel": 9, "type": "channel", "subtype": "noteOff", "noteNumber": 70, "velocity": 64 }, { "deltaTime": 72, "channel": 9, "type": "channel", "noteNumber": 35, "velocity": 80, "subtype": "noteOn" }, { "deltaTime": 0, "channel": 9, "type": "channel", "noteNumber": 42, "velocity": 50, "subtype": "noteOn" }, { "deltaTime": 0, "channel": 9, "type": "channel", "noteNumber": 70, "velocity": 35, "subtype": "noteOn" }, { "deltaTime": 24, "channel": 9, "type": "channel", "subtype": "noteOff", "noteNumber": 35, "velocity": 64 }, { "deltaTime": 0, "channel": 9, "type": "channel", "subtype": "noteOff", "noteNumber": 42, "velocity": 64 }, { "deltaTime": 0, "channel": 9, "type": "channel", "subtype": "noteOff", "noteNumber": 70, "velocity": 64 }, { "deltaTime": 72, "channel": 9, "type": "channel", "noteNumber": 35, "velocity": 80, "subtype": "noteOn" }, { "deltaTime": 0, "channel": 9, "type": "channel", "noteNumber": 42, "velocity": 66, "subtype": "noteOn" }, { "deltaTime": 0, "channel": 9, "type": "channel", "noteNumber": 70, "velocity": 51, "subtype": "noteOn" }, { "deltaTime": 24, "channel": 9, "type": "channel", "subtype": "noteOff", "noteNumber": 35, "velocity": 64 }, { "deltaTime": 0, "channel": 9, "type": "channel", "subtype": "noteOff", "noteNumber": 42, "velocity": 64 }, { "deltaTime": 0, "channel": 9, "type": "channel", "subtype": "noteOff", "noteNumber": 70, "velocity": 64 }, { "deltaTime": 72, "channel": 9, "type": "channel", "noteNumber": 42, "velocity": 50, "subtype": "noteOn" }, { "deltaTime": 0, "channel": 9, "type": "channel", "noteNumber": 70, "velocity": 35, "subtype": "noteOn" }, { "deltaTime": 24, "channel": 9, "type": "channel", "subtype": "noteOff", "noteNumber": 42, "velocity": 64 }, { "deltaTime": 0, "channel": 9, "type": "channel", "subtype": "noteOff", "noteNumber": 70, "velocity": 64 }, { "deltaTime": 72, "channel": 9, "type": "channel", "noteNumber": 75, "velocity": 127, "subtype": "noteOn" }, { "deltaTime": 0, "channel": 9, "type": "channel", "noteNumber": 42, "velocity": 66, "subtype": "noteOn" }, { "deltaTime": 0, "channel": 9, "type": "channel", "noteNumber": 70, "velocity": 51, "subtype": "noteOn" }, { "deltaTime": 24, "channel": 9, "type": "channel", "subtype": "noteOff", "noteNumber": 75, "velocity": 64 }, { "deltaTime": 0, "channel": 9, "type": "channel", "subtype": "noteOff", "noteNumber": 42, "velocity": 64 }, { "deltaTime": 0, "channel": 9, "type": "channel", "subtype": "noteOff", "noteNumber": 70, "velocity": 64 }, { "deltaTime": 72, "channel": 9, "type": "channel", "noteNumber": 42, "velocity": 50, "subtype": "noteOn" }, { "deltaTime": 0, "channel": 9, "type": "channel", "noteNumber": 70, "velocity": 35, "subtype": "noteOn" }, { "deltaTime": 24, "channel": 9, "type": "channel", "subtype": "noteOff", "noteNumber": 42, "velocity": 64 }, { "deltaTime": 0, "channel": 9, "type": "channel", "subtype": "noteOff", "noteNumber": 70, "velocity": 64 }, { "deltaTime": 72, "channel": 9, "type": "channel", "noteNumber": 35, "velocity": 80, "subtype": "noteOn" }, { "deltaTime": 0, "channel": 9, "type": "channel", "noteNumber": 42, "velocity": 66, "subtype": "noteOn" }, { "deltaTime": 0, "channel": 9, "type": "channel", "noteNumber": 70, "velocity": 51, "subtype": "noteOn" }, { "deltaTime": 24, "channel": 9, "type": "channel", "subtype": "noteOff", "noteNumber": 35, "velocity": 64 }, { "deltaTime": 0, "channel": 9, "type": "channel", "subtype": "noteOff", "noteNumber": 42, "velocity": 64 }, { "deltaTime": 0, "channel": 9, "type": "channel", "subtype": "noteOff", "noteNumber": 70, "velocity": 64 }, { "deltaTime": 72, "channel": 9, "type": "channel", "noteNumber": 42, "velocity": 50, "subtype": "noteOn" }, { "deltaTime": 0, "channel": 9, "type": "channel", "noteNumber": 70, "velocity": 35, "subtype": "noteOn" }, { "deltaTime": 24, "channel": 9, "type": "channel", "subtype": "noteOff", "noteNumber": 42, "velocity": 64 }, { "deltaTime": 0, "channel": 9, "type": "channel", "subtype": "noteOff", "noteNumber": 70, "velocity": 64 }, { "deltaTime": 72, "channel": 9, "type": "channel", "noteNumber": 75, "velocity": 127, "subtype": "noteOn" }, { "deltaTime": 0, "channel": 9, "type": "channel", "noteNumber": 42, "velocity": 66, "subtype": "noteOn" }, { "deltaTime": 0, "channel": 9, "type": "channel", "noteNumber": 70, "velocity": 51, "subtype": "noteOn" }, { "deltaTime": 24, "channel": 9, "type": "channel", "subtype": "noteOff", "noteNumber": 75, "velocity": 64 }, { "deltaTime": 0, "channel": 9, "type": "channel", "subtype": "noteOff", "noteNumber": 42, "velocity": 64 }, { "deltaTime": 0, "channel": 9, "type": "channel", "subtype": "noteOff", "noteNumber": 70, "velocity": 64 }, { "deltaTime": 72, "channel": 9, "type": "channel", "noteNumber": 35, "velocity": 80, "subtype": "noteOn" }, { "deltaTime": 0, "channel": 9, "type": "channel", "noteNumber": 42, "velocity": 50, "subtype": "noteOn" }, { "deltaTime": 0, "channel": 9, "type": "channel", "noteNumber": 70, "velocity": 35, "subtype": "noteOn" }, { "deltaTime": 24, "channel": 9, "type": "channel", "subtype": "noteOff", "noteNumber": 35, "velocity": 64 }, { "deltaTime": 0, "channel": 9, "type": "channel", "subtype": "noteOff", "noteNumber": 42, "velocity": 64 }, { "deltaTime": 0, "channel": 9, "type": "channel", "subtype": "noteOff", "noteNumber": 70, "velocity": 64 }, { "deltaTime": 72, "channel": 9, "type": "channel", "noteNumber": 35, "velocity": 80, "subtype": "noteOn" }, { "deltaTime": 0, "channel": 9, "type": "channel", "noteNumber": 42, "velocity": 66, "subtype": "noteOn" }, { "deltaTime": 0, "channel": 9, "type": "channel", "noteNumber": 70, "velocity": 51, "subtype": "noteOn" }, { "deltaTime": 24, "channel": 9, "type": "channel", "subtype": "noteOff", "noteNumber": 35, "velocity": 64 }, { "deltaTime": 0, "channel": 9, "type": "channel", "subtype": "noteOff", "noteNumber": 42, "velocity": 64 }, { "deltaTime": 0, "channel": 9, "type": "channel", "subtype": "noteOff", "noteNumber": 70, "velocity": 64 }, { "deltaTime": 72, "channel": 9, "type": "channel", "noteNumber": 42, "velocity": 50, "subtype": "noteOn" }, { "deltaTime": 0, "channel": 9, "type": "channel", "noteNumber": 70, "velocity": 35, "subtype": "noteOn" }, { "deltaTime": 24, "channel": 9, "type": "channel", "subtype": "noteOff", "noteNumber": 42, "velocity": 64 }, { "deltaTime": 0, "channel": 9, "type": "channel", "subtype": "noteOff", "noteNumber": 70, "velocity": 64 }, { "deltaTime": 72, "channel": 9, "type": "channel", "noteNumber": 75, "velocity": 127, "subtype": "noteOn" }, { "deltaTime": 0, "channel": 9, "type": "channel", "noteNumber": 42, "velocity": 66, "subtype": "noteOn" }, { "deltaTime": 0, "channel": 9, "type": "channel", "noteNumber": 70, "velocity": 51, "subtype": "noteOn" }, { "deltaTime": 24, "channel": 9, "type": "channel", "subtype": "noteOff", "noteNumber": 75, "velocity": 64 }, { "deltaTime": 0, "channel": 9, "type": "channel", "subtype": "noteOff", "noteNumber": 42, "velocity": 64 }, { "deltaTime": 0, "channel": 9, "type": "channel", "subtype": "noteOff", "noteNumber": 70, "velocity": 64 }, { "deltaTime": 72, "channel": 9, "type": "channel", "noteNumber": 42, "velocity": 50, "subtype": "noteOn" }, { "deltaTime": 0, "channel": 9, "type": "channel", "noteNumber": 70, "velocity": 35, "subtype": "noteOn" }, { "deltaTime": 24, "channel": 9, "type": "channel", "subtype": "noteOff", "noteNumber": 42, "velocity": 64 }, { "deltaTime": 0, "channel": 9, "type": "channel", "subtype": "noteOff", "noteNumber": 70, "velocity": 64 }, { "deltaTime": 72, "channel": 9, "type": "channel", "noteNumber": 35, "velocity": 80, "subtype": "noteOn" }, { "deltaTime": 0, "channel": 9, "type": "channel", "noteNumber": 42, "velocity": 66, "subtype": "noteOn" }, { "deltaTime": 0, "channel": 9, "type": "channel", "noteNumber": 70, "velocity": 51, "subtype": "noteOn" }, { "deltaTime": 24, "channel": 9, "type": "channel", "subtype": "noteOff", "noteNumber": 35, "velocity": 64 }, { "deltaTime": 0, "channel": 9, "type": "channel", "subtype": "noteOff", "noteNumber": 42, "velocity": 64 }, { "deltaTime": 0, "channel": 9, "type": "channel", "subtype": "noteOff", "noteNumber": 70, "velocity": 64 }, { "deltaTime": 72, "channel": 9, "type": "channel", "noteNumber": 42, "velocity": 50, "subtype": "noteOn" }, { "deltaTime": 0, "channel": 9, "type": "channel", "noteNumber": 70, "velocity": 35, "subtype": "noteOn" }, { "deltaTime": 24, "channel": 9, "type": "channel", "subtype": "noteOff", "noteNumber": 42, "velocity": 64 }, { "deltaTime": 0, "channel": 9, "type": "channel", "subtype": "noteOff", "noteNumber": 70, "velocity": 64 }, { "deltaTime": 72, "channel": 9, "type": "channel", "noteNumber": 75, "velocity": 127, "subtype": "noteOn" }, { "deltaTime": 0, "channel": 9, "type": "channel", "noteNumber": 42, "velocity": 66, "subtype": "noteOn" }, { "deltaTime": 0, "channel": 9, "type": "channel", "noteNumber": 70, "velocity": 51, "subtype": "noteOn" }, { "deltaTime": 24, "channel": 9, "type": "channel", "subtype": "noteOff", "noteNumber": 75, "velocity": 64 }, { "deltaTime": 0, "channel": 9, "type": "channel", "subtype": "noteOff", "noteNumber": 42, "velocity": 64 }, { "deltaTime": 0, "channel": 9, "type": "channel", "subtype": "noteOff", "noteNumber": 70, "velocity": 64 }, { "deltaTime": 72, "channel": 9, "type": "channel", "noteNumber": 35, "velocity": 80, "subtype": "noteOn" }, { "deltaTime": 0, "channel": 9, "type": "channel", "noteNumber": 42, "velocity": 50, "subtype": "noteOn" }, { "deltaTime": 0, "channel": 9, "type": "channel", "noteNumber": 70, "velocity": 35, "subtype": "noteOn" }, { "deltaTime": 24, "channel": 9, "type": "channel", "subtype": "noteOff", "noteNumber": 35, "velocity": 64 }, { "deltaTime": 0, "channel": 9, "type": "channel", "subtype": "noteOff", "noteNumber": 42, "velocity": 64 }, { "deltaTime": 0, "channel": 9, "type": "channel", "subtype": "noteOff", "noteNumber": 70, "velocity": 64 }, { "deltaTime": 72, "channel": 9, "type": "channel", "noteNumber": 35, "velocity": 80, "subtype": "noteOn" }, { "deltaTime": 0, "channel": 9, "type": "channel", "noteNumber": 42, "velocity": 66, "subtype": "noteOn" }, { "deltaTime": 0, "channel": 9, "type": "channel", "noteNumber": 70, "velocity": 51, "subtype": "noteOn" }, { "deltaTime": 24, "channel": 9, "type": "channel", "subtype": "noteOff", "noteNumber": 35, "velocity": 64 }, { "deltaTime": 0, "channel": 9, "type": "channel", "subtype": "noteOff", "noteNumber": 42, "velocity": 64 }, { "deltaTime": 0, "channel": 9, "type": "channel", "subtype": "noteOff", "noteNumber": 70, "velocity": 64 }, { "deltaTime": 72, "channel": 9, "type": "channel", "noteNumber": 42, "velocity": 50, "subtype": "noteOn" }, { "deltaTime": 0, "channel": 9, "type": "channel", "noteNumber": 70, "velocity": 35, "subtype": "noteOn" }, { "deltaTime": 24, "channel": 9, "type": "channel", "subtype": "noteOff", "noteNumber": 42, "velocity": 64 }, { "deltaTime": 0, "channel": 9, "type": "channel", "subtype": "noteOff", "noteNumber": 70, "velocity": 64 }, { "deltaTime": 72, "channel": 9, "type": "channel", "noteNumber": 75, "velocity": 127, "subtype": "noteOn" }, { "deltaTime": 0, "channel": 9, "type": "channel", "noteNumber": 42, "velocity": 66, "subtype": "noteOn" }, { "deltaTime": 0, "channel": 9, "type": "channel", "noteNumber": 70, "velocity": 51, "subtype": "noteOn" }, { "deltaTime": 24, "channel": 9, "type": "channel", "subtype": "noteOff", "noteNumber": 75, "velocity": 64 }, { "deltaTime": 0, "channel": 9, "type": "channel", "subtype": "noteOff", "noteNumber": 42, "velocity": 64 }, { "deltaTime": 0, "channel": 9, "type": "channel", "subtype": "noteOff", "noteNumber": 70, "velocity": 64 }, { "deltaTime": 72, "channel": 9, "type": "channel", "noteNumber": 42, "velocity": 50, "subtype": "noteOn" }, { "deltaTime": 0, "channel": 9, "type": "channel", "noteNumber": 70, "velocity": 35, "subtype": "noteOn" }, { "deltaTime": 24, "channel": 9, "type": "channel", "subtype": "noteOff", "noteNumber": 42, "velocity": 64 }, { "deltaTime": 0, "channel": 9, "type": "channel", "subtype": "noteOff", "noteNumber": 70, "velocity": 64 }, { "deltaTime": 72, "channel": 9, "type": "channel", "noteNumber": 35, "velocity": 80, "subtype": "noteOn" }, { "deltaTime": 0, "channel": 9, "type": "channel", "noteNumber": 42, "velocity": 66, "subtype": "noteOn" }, { "deltaTime": 0, "channel": 9, "type": "channel", "noteNumber": 70, "velocity": 51, "subtype": "noteOn" }, { "deltaTime": 24, "channel": 9, "type": "channel", "subtype": "noteOff", "noteNumber": 35, "velocity": 64 }, { "deltaTime": 0, "channel": 9, "type": "channel", "subtype": "noteOff", "noteNumber": 42, "velocity": 64 }, { "deltaTime": 0, "channel": 9, "type": "channel", "subtype": "noteOff", "noteNumber": 70, "velocity": 64 }, { "deltaTime": 72, "channel": 9, "type": "channel", "noteNumber": 42, "velocity": 50, "subtype": "noteOn" }, { "deltaTime": 0, "channel": 9, "type": "channel", "noteNumber": 70, "velocity": 35, "subtype": "noteOn" }, { "deltaTime": 24, "channel": 9, "type": "channel", "subtype": "noteOff", "noteNumber": 42, "velocity": 64 }, { "deltaTime": 0, "channel": 9, "type": "channel", "subtype": "noteOff", "noteNumber": 70, "velocity": 64 }, { "deltaTime": 72, "channel": 9, "type": "channel", "noteNumber": 75, "velocity": 127, "subtype": "noteOn" }, { "deltaTime": 0, "channel": 9, "type": "channel", "noteNumber": 42, "velocity": 66, "subtype": "noteOn" }, { "deltaTime": 0, "channel": 9, "type": "channel", "noteNumber": 70, "velocity": 51, "subtype": "noteOn" }, { "deltaTime": 24, "channel": 9, "type": "channel", "subtype": "noteOff", "noteNumber": 75, "velocity": 64 }, { "deltaTime": 0, "channel": 9, "type": "channel", "subtype": "noteOff", "noteNumber": 42, "velocity": 64 }, { "deltaTime": 0, "channel": 9, "type": "channel", "subtype": "noteOff", "noteNumber": 70, "velocity": 64 }, { "deltaTime": 72, "channel": 9, "type": "channel", "noteNumber": 35, "velocity": 80, "subtype": "noteOn" }, { "deltaTime": 0, "channel": 9, "type": "channel", "noteNumber": 42, "velocity": 50, "subtype": "noteOn" }, { "deltaTime": 0, "channel": 9, "type": "channel", "noteNumber": 70, "velocity": 35, "subtype": "noteOn" }, { "deltaTime": 24, "channel": 9, "type": "channel", "subtype": "noteOff", "noteNumber": 35, "velocity": 64 }, { "deltaTime": 0, "channel": 9, "type": "channel", "subtype": "noteOff", "noteNumber": 42, "velocity": 64 }, { "deltaTime": 0, "channel": 9, "type": "channel", "subtype": "noteOff", "noteNumber": 70, "velocity": 64 }, { "deltaTime": 72, "channel": 9, "type": "channel", "noteNumber": 35, "velocity": 80, "subtype": "noteOn" }, { "deltaTime": 0, "channel": 9, "type": "channel", "noteNumber": 42, "velocity": 66, "subtype": "noteOn" }, { "deltaTime": 0, "channel": 9, "type": "channel", "noteNumber": 70, "velocity": 51, "subtype": "noteOn" }, { "deltaTime": 24, "channel": 9, "type": "channel", "subtype": "noteOff", "noteNumber": 35, "velocity": 64 }, { "deltaTime": 0, "channel": 9, "type": "channel", "subtype": "noteOff", "noteNumber": 42, "velocity": 64 }, { "deltaTime": 0, "channel": 9, "type": "channel", "subtype": "noteOff", "noteNumber": 70, "velocity": 64 }, { "deltaTime": 72, "channel": 9, "type": "channel", "noteNumber": 42, "velocity": 50, "subtype": "noteOn" }, { "deltaTime": 0, "channel": 9, "type": "channel", "noteNumber": 70, "velocity": 35, "subtype": "noteOn" }, { "deltaTime": 24, "channel": 9, "type": "channel", "subtype": "noteOff", "noteNumber": 42, "velocity": 64 }, { "deltaTime": 0, "channel": 9, "type": "channel", "subtype": "noteOff", "noteNumber": 70, "velocity": 64 }, { "deltaTime": 72, "channel": 9, "type": "channel", "noteNumber": 75, "velocity": 127, "subtype": "noteOn" }, { "deltaTime": 0, "channel": 9, "type": "channel", "noteNumber": 42, "velocity": 66, "subtype": "noteOn" }, { "deltaTime": 0, "channel": 9, "type": "channel", "noteNumber": 70, "velocity": 51, "subtype": "noteOn" }, { "deltaTime": 24, "channel": 9, "type": "channel", "subtype": "noteOff", "noteNumber": 75, "velocity": 64 }, { "deltaTime": 0, "channel": 9, "type": "channel", "subtype": "noteOff", "noteNumber": 42, "velocity": 64 }, { "deltaTime": 0, "channel": 9, "type": "channel", "subtype": "noteOff", "noteNumber": 70, "velocity": 64 }, { "deltaTime": 72, "channel": 9, "type": "channel", "noteNumber": 42, "velocity": 50, "subtype": "noteOn" }, { "deltaTime": 0, "channel": 9, "type": "channel", "noteNumber": 70, "velocity": 35, "subtype": "noteOn" }, { "deltaTime": 24, "channel": 9, "type": "channel", "subtype": "noteOff", "noteNumber": 42, "velocity": 64 }, { "deltaTime": 0, "channel": 9, "type": "channel", "subtype": "noteOff", "noteNumber": 70, "velocity": 64 }, { "deltaTime": 72, "channel": 9, "type": "channel", "noteNumber": 35, "velocity": 80, "subtype": "noteOn" }, { "deltaTime": 0, "channel": 9, "type": "channel", "noteNumber": 49, "velocity": 96, "subtype": "noteOn" }, { "deltaTime": 24, "channel": 9, "type": "channel", "subtype": "noteOff", "noteNumber": 35, "velocity": 64 }, { "deltaTime": 0, "channel": 9, "type": "channel", "subtype": "noteOff", "noteNumber": 49, "velocity": 64 }, { "deltaTime": 1512, "channel": 9, "type": "channel", "noteNumber": 35, "velocity": 80, "subtype": "noteOn" }, { "deltaTime": 0, "channel": 9, "type": "channel", "noteNumber": 42, "velocity": 66, "subtype": "noteOn" }, { "deltaTime": 0, "channel": 9, "type": "channel", "noteNumber": 70, "velocity": 51, "subtype": "noteOn" }, { "deltaTime": 24, "channel": 9, "type": "channel", "subtype": "noteOff", "noteNumber": 35, "velocity": 64 }, { "deltaTime": 0, "channel": 9, "type": "channel", "subtype": "noteOff", "noteNumber": 42, "velocity": 64 }, { "deltaTime": 0, "channel": 9, "type": "channel", "subtype": "noteOff", "noteNumber": 70, "velocity": 64 }, { "deltaTime": 72, "channel": 9, "type": "channel", "noteNumber": 42, "velocity": 50, "subtype": "noteOn" }, { "deltaTime": 0, "channel": 9, "type": "channel", "noteNumber": 70, "velocity": 35, "subtype": "noteOn" }, { "deltaTime": 24, "channel": 9, "type": "channel", "subtype": "noteOff", "noteNumber": 42, "velocity": 64 }, { "deltaTime": 0, "channel": 9, "type": "channel", "subtype": "noteOff", "noteNumber": 70, "velocity": 64 }, { "deltaTime": 72, "channel": 9, "type": "channel", "noteNumber": 75, "velocity": 127, "subtype": "noteOn" }, { "deltaTime": 0, "channel": 9, "type": "channel", "noteNumber": 42, "velocity": 66, "subtype": "noteOn" }, { "deltaTime": 0, "channel": 9, "type": "channel", "noteNumber": 70, "velocity": 51, "subtype": "noteOn" }, { "deltaTime": 24, "channel": 9, "type": "channel", "subtype": "noteOff", "noteNumber": 75, "velocity": 64 }, { "deltaTime": 0, "channel": 9, "type": "channel", "subtype": "noteOff", "noteNumber": 42, "velocity": 64 }, { "deltaTime": 0, "channel": 9, "type": "channel", "subtype": "noteOff", "noteNumber": 70, "velocity": 64 }, { "deltaTime": 72, "channel": 9, "type": "channel", "noteNumber": 35, "velocity": 80, "subtype": "noteOn" }, { "deltaTime": 0, "channel": 9, "type": "channel", "noteNumber": 42, "velocity": 50, "subtype": "noteOn" }, { "deltaTime": 0, "channel": 9, "type": "channel", "noteNumber": 70, "velocity": 35, "subtype": "noteOn" }, { "deltaTime": 24, "channel": 9, "type": "channel", "subtype": "noteOff", "noteNumber": 35, "velocity": 64 }, { "deltaTime": 0, "channel": 9, "type": "channel", "subtype": "noteOff", "noteNumber": 42, "velocity": 64 }, { "deltaTime": 0, "channel": 9, "type": "channel", "subtype": "noteOff", "noteNumber": 70, "velocity": 64 }, { "deltaTime": 72, "channel": 9, "type": "channel", "noteNumber": 35, "velocity": 80, "subtype": "noteOn" }, { "deltaTime": 0, "channel": 9, "type": "channel", "noteNumber": 42, "velocity": 66, "subtype": "noteOn" }, { "deltaTime": 0, "channel": 9, "type": "channel", "noteNumber": 70, "velocity": 51, "subtype": "noteOn" }, { "deltaTime": 24, "channel": 9, "type": "channel", "subtype": "noteOff", "noteNumber": 35, "velocity": 64 }, { "deltaTime": 0, "channel": 9, "type": "channel", "subtype": "noteOff", "noteNumber": 42, "velocity": 64 }, { "deltaTime": 0, "channel": 9, "type": "channel", "subtype": "noteOff", "noteNumber": 70, "velocity": 64 }, { "deltaTime": 72, "channel": 9, "type": "channel", "noteNumber": 42, "velocity": 50, "subtype": "noteOn" }, { "deltaTime": 0, "channel": 9, "type": "channel", "noteNumber": 70, "velocity": 35, "subtype": "noteOn" }, { "deltaTime": 24, "channel": 9, "type": "channel", "subtype": "noteOff", "noteNumber": 42, "velocity": 64 }, { "deltaTime": 0, "channel": 9, "type": "channel", "subtype": "noteOff", "noteNumber": 70, "velocity": 64 }, { "deltaTime": 72, "channel": 9, "type": "channel", "noteNumber": 38, "velocity": 112, "subtype": "noteOn" }, { "deltaTime": 0, "channel": 9, "type": "channel", "noteNumber": 42, "velocity": 66, "subtype": "noteOn" }, { "deltaTime": 0, "channel": 9, "type": "channel", "noteNumber": 70, "velocity": 51, "subtype": "noteOn" }, { "deltaTime": 24, "channel": 9, "type": "channel", "subtype": "noteOff", "noteNumber": 38, "velocity": 64 }, { "deltaTime": 0, "channel": 9, "type": "channel", "subtype": "noteOff", "noteNumber": 42, "velocity": 64 }, { "deltaTime": 0, "channel": 9, "type": "channel", "subtype": "noteOff", "noteNumber": 70, "velocity": 64 }, { "deltaTime": 72, "channel": 9, "type": "channel", "noteNumber": 42, "velocity": 50, "subtype": "noteOn" }, { "deltaTime": 0, "channel": 9, "type": "channel", "noteNumber": 70, "velocity": 35, "subtype": "noteOn" }, { "deltaTime": 24, "channel": 9, "type": "channel", "subtype": "noteOff", "noteNumber": 42, "velocity": 64 }, { "deltaTime": 0, "channel": 9, "type": "channel", "subtype": "noteOff", "noteNumber": 70, "velocity": 64 }, { "deltaTime": 72, "channel": 9, "type": "channel", "noteNumber": 35, "velocity": 80, "subtype": "noteOn" }, { "deltaTime": 0, "channel": 9, "type": "channel", "noteNumber": 42, "velocity": 66, "subtype": "noteOn" }, { "deltaTime": 0, "channel": 9, "type": "channel", "noteNumber": 70, "velocity": 51, "subtype": "noteOn" }, { "deltaTime": 24, "channel": 9, "type": "channel", "subtype": "noteOff", "noteNumber": 35, "velocity": 64 }, { "deltaTime": 0, "channel": 9, "type": "channel", "subtype": "noteOff", "noteNumber": 42, "velocity": 64 }, { "deltaTime": 0, "channel": 9, "type": "channel", "subtype": "noteOff", "noteNumber": 70, "velocity": 64 }, { "deltaTime": 72, "channel": 9, "type": "channel", "noteNumber": 42, "velocity": 50, "subtype": "noteOn" }, { "deltaTime": 0, "channel": 9, "type": "channel", "noteNumber": 70, "velocity": 35, "subtype": "noteOn" }, { "deltaTime": 24, "channel": 9, "type": "channel", "subtype": "noteOff", "noteNumber": 42, "velocity": 64 }, { "deltaTime": 0, "channel": 9, "type": "channel", "subtype": "noteOff", "noteNumber": 70, "velocity": 64 }, { "deltaTime": 72, "channel": 9, "type": "channel", "noteNumber": 75, "velocity": 127, "subtype": "noteOn" }, { "deltaTime": 0, "channel": 9, "type": "channel", "noteNumber": 42, "velocity": 66, "subtype": "noteOn" }, { "deltaTime": 0, "channel": 9, "type": "channel", "noteNumber": 70, "velocity": 51, "subtype": "noteOn" }, { "deltaTime": 24, "channel": 9, "type": "channel", "subtype": "noteOff", "noteNumber": 75, "velocity": 64 }, { "deltaTime": 0, "channel": 9, "type": "channel", "subtype": "noteOff", "noteNumber": 42, "velocity": 64 }, { "deltaTime": 0, "channel": 9, "type": "channel", "subtype": "noteOff", "noteNumber": 70, "velocity": 64 }, { "deltaTime": 72, "channel": 9, "type": "channel", "noteNumber": 35, "velocity": 80, "subtype": "noteOn" }, { "deltaTime": 0, "channel": 9, "type": "channel", "noteNumber": 42, "velocity": 50, "subtype": "noteOn" }, { "deltaTime": 0, "channel": 9, "type": "channel", "noteNumber": 70, "velocity": 35, "subtype": "noteOn" }, { "deltaTime": 24, "channel": 9, "type": "channel", "subtype": "noteOff", "noteNumber": 35, "velocity": 64 }, { "deltaTime": 0, "channel": 9, "type": "channel", "subtype": "noteOff", "noteNumber": 42, "velocity": 64 }, { "deltaTime": 0, "channel": 9, "type": "channel", "subtype": "noteOff", "noteNumber": 70, "velocity": 64 }, { "deltaTime": 72, "channel": 9, "type": "channel", "noteNumber": 35, "velocity": 80, "subtype": "noteOn" }, { "deltaTime": 0, "channel": 9, "type": "channel", "noteNumber": 42, "velocity": 66, "subtype": "noteOn" }, { "deltaTime": 0, "channel": 9, "type": "channel", "noteNumber": 70, "velocity": 51, "subtype": "noteOn" }, { "deltaTime": 24, "channel": 9, "type": "channel", "subtype": "noteOff", "noteNumber": 35, "velocity": 64 }, { "deltaTime": 0, "channel": 9, "type": "channel", "subtype": "noteOff", "noteNumber": 42, "velocity": 64 }, { "deltaTime": 0, "channel": 9, "type": "channel", "subtype": "noteOff", "noteNumber": 70, "velocity": 64 }, { "deltaTime": 72, "channel": 9, "type": "channel", "noteNumber": 42, "velocity": 50, "subtype": "noteOn" }, { "deltaTime": 0, "channel": 9, "type": "channel", "noteNumber": 70, "velocity": 35, "subtype": "noteOn" }, { "deltaTime": 24, "channel": 9, "type": "channel", "subtype": "noteOff", "noteNumber": 42, "velocity": 64 }, { "deltaTime": 0, "channel": 9, "type": "channel", "subtype": "noteOff", "noteNumber": 70, "velocity": 64 }, { "deltaTime": 72, "channel": 9, "type": "channel", "noteNumber": 38, "velocity": 112, "subtype": "noteOn" }, { "deltaTime": 0, "channel": 9, "type": "channel", "noteNumber": 42, "velocity": 66, "subtype": "noteOn" }, { "deltaTime": 0, "channel": 9, "type": "channel", "noteNumber": 70, "velocity": 51, "subtype": "noteOn" }, { "deltaTime": 24, "channel": 9, "type": "channel", "subtype": "noteOff", "noteNumber": 38, "velocity": 64 }, { "deltaTime": 0, "channel": 9, "type": "channel", "subtype": "noteOff", "noteNumber": 42, "velocity": 64 }, { "deltaTime": 0, "channel": 9, "type": "channel", "subtype": "noteOff", "noteNumber": 70, "velocity": 64 }, { "deltaTime": 72, "channel": 9, "type": "channel", "noteNumber": 42, "velocity": 50, "subtype": "noteOn" }, { "deltaTime": 0, "channel": 9, "type": "channel", "noteNumber": 70, "velocity": 35, "subtype": "noteOn" }, { "deltaTime": 24, "channel": 9, "type": "channel", "subtype": "noteOff", "noteNumber": 42, "velocity": 64 }, { "deltaTime": 0, "channel": 9, "type": "channel", "subtype": "noteOff", "noteNumber": 70, "velocity": 64 }, { "deltaTime": 72, "channel": 9, "type": "channel", "noteNumber": 35, "velocity": 80, "subtype": "noteOn" }, { "deltaTime": 0, "channel": 9, "type": "channel", "noteNumber": 49, "velocity": 96, "subtype": "noteOn" }, { "deltaTime": 24, "channel": 9, "type": "channel", "subtype": "noteOff", "noteNumber": 35, "velocity": 64 }, { "deltaTime": 0, "channel": 9, "type": "channel", "subtype": "noteOff", "noteNumber": 49, "velocity": 64 }, { "deltaTime": 1512, "channel": 9, "type": "channel", "noteNumber": 35, "velocity": 80, "subtype": "noteOn" }, { "deltaTime": 0, "channel": 9, "type": "channel", "noteNumber": 42, "velocity": 66, "subtype": "noteOn" }, { "deltaTime": 0, "channel": 9, "type": "channel", "noteNumber": 70, "velocity": 51, "subtype": "noteOn" }, { "deltaTime": 24, "channel": 9, "type": "channel", "subtype": "noteOff", "noteNumber": 35, "velocity": 64 }, { "deltaTime": 0, "channel": 9, "type": "channel", "subtype": "noteOff", "noteNumber": 42, "velocity": 64 }, { "deltaTime": 0, "channel": 9, "type": "channel", "subtype": "noteOff", "noteNumber": 70, "velocity": 64 }, { "deltaTime": 72, "channel": 9, "type": "channel", "noteNumber": 42, "velocity": 50, "subtype": "noteOn" }, { "deltaTime": 0, "channel": 9, "type": "channel", "noteNumber": 70, "velocity": 35, "subtype": "noteOn" }, { "deltaTime": 24, "channel": 9, "type": "channel", "subtype": "noteOff", "noteNumber": 42, "velocity": 64 }, { "deltaTime": 0, "channel": 9, "type": "channel", "subtype": "noteOff", "noteNumber": 70, "velocity": 64 }, { "deltaTime": 72, "channel": 9, "type": "channel", "noteNumber": 75, "velocity": 127, "subtype": "noteOn" }, { "deltaTime": 0, "channel": 9, "type": "channel", "noteNumber": 42, "velocity": 66, "subtype": "noteOn" }, { "deltaTime": 0, "channel": 9, "type": "channel", "noteNumber": 70, "velocity": 51, "subtype": "noteOn" }, { "deltaTime": 24, "channel": 9, "type": "channel", "subtype": "noteOff", "noteNumber": 75, "velocity": 64 }, { "deltaTime": 0, "channel": 9, "type": "channel", "subtype": "noteOff", "noteNumber": 42, "velocity": 64 }, { "deltaTime": 0, "channel": 9, "type": "channel", "subtype": "noteOff", "noteNumber": 70, "velocity": 64 }, { "deltaTime": 72, "channel": 9, "type": "channel", "noteNumber": 35, "velocity": 80, "subtype": "noteOn" }, { "deltaTime": 0, "channel": 9, "type": "channel", "noteNumber": 42, "velocity": 50, "subtype": "noteOn" }, { "deltaTime": 0, "channel": 9, "type": "channel", "noteNumber": 70, "velocity": 35, "subtype": "noteOn" }, { "deltaTime": 24, "channel": 9, "type": "channel", "subtype": "noteOff", "noteNumber": 35, "velocity": 64 }, { "deltaTime": 0, "channel": 9, "type": "channel", "subtype": "noteOff", "noteNumber": 42, "velocity": 64 }, { "deltaTime": 0, "channel": 9, "type": "channel", "subtype": "noteOff", "noteNumber": 70, "velocity": 64 }, { "deltaTime": 72, "channel": 9, "type": "channel", "noteNumber": 35, "velocity": 80, "subtype": "noteOn" }, { "deltaTime": 0, "channel": 9, "type": "channel", "noteNumber": 42, "velocity": 66, "subtype": "noteOn" }, { "deltaTime": 0, "channel": 9, "type": "channel", "noteNumber": 70, "velocity": 51, "subtype": "noteOn" }, { "deltaTime": 24, "channel": 9, "type": "channel", "subtype": "noteOff", "noteNumber": 35, "velocity": 64 }, { "deltaTime": 0, "channel": 9, "type": "channel", "subtype": "noteOff", "noteNumber": 42, "velocity": 64 }, { "deltaTime": 0, "channel": 9, "type": "channel", "subtype": "noteOff", "noteNumber": 70, "velocity": 64 }, { "deltaTime": 72, "channel": 9, "type": "channel", "noteNumber": 42, "velocity": 50, "subtype": "noteOn" }, { "deltaTime": 0, "channel": 9, "type": "channel", "noteNumber": 70, "velocity": 35, "subtype": "noteOn" }, { "deltaTime": 24, "channel": 9, "type": "channel", "subtype": "noteOff", "noteNumber": 42, "velocity": 64 }, { "deltaTime": 0, "channel": 9, "type": "channel", "subtype": "noteOff", "noteNumber": 70, "velocity": 64 }, { "deltaTime": 72, "channel": 9, "type": "channel", "noteNumber": 38, "velocity": 112, "subtype": "noteOn" }, { "deltaTime": 0, "channel": 9, "type": "channel", "noteNumber": 42, "velocity": 66, "subtype": "noteOn" }, { "deltaTime": 0, "channel": 9, "type": "channel", "noteNumber": 70, "velocity": 51, "subtype": "noteOn" }, { "deltaTime": 24, "channel": 9, "type": "channel", "subtype": "noteOff", "noteNumber": 38, "velocity": 64 }, { "deltaTime": 0, "channel": 9, "type": "channel", "subtype": "noteOff", "noteNumber": 42, "velocity": 64 }, { "deltaTime": 0, "channel": 9, "type": "channel", "subtype": "noteOff", "noteNumber": 70, "velocity": 64 }, { "deltaTime": 72, "channel": 9, "type": "channel", "noteNumber": 42, "velocity": 50, "subtype": "noteOn" }, { "deltaTime": 0, "channel": 9, "type": "channel", "noteNumber": 70, "velocity": 35, "subtype": "noteOn" }, { "deltaTime": 24, "channel": 9, "type": "channel", "subtype": "noteOff", "noteNumber": 42, "velocity": 64 }, { "deltaTime": 0, "channel": 9, "type": "channel", "subtype": "noteOff", "noteNumber": 70, "velocity": 64 }, { "deltaTime": 72, "channel": 9, "type": "channel", "noteNumber": 35, "velocity": 80, "subtype": "noteOn" }, { "deltaTime": 0, "channel": 9, "type": "channel", "noteNumber": 42, "velocity": 66, "subtype": "noteOn" }, { "deltaTime": 0, "channel": 9, "type": "channel", "noteNumber": 70, "velocity": 51, "subtype": "noteOn" }, { "deltaTime": 24, "channel": 9, "type": "channel", "subtype": "noteOff", "noteNumber": 35, "velocity": 64 }, { "deltaTime": 0, "channel": 9, "type": "channel", "subtype": "noteOff", "noteNumber": 42, "velocity": 64 }, { "deltaTime": 0, "channel": 9, "type": "channel", "subtype": "noteOff", "noteNumber": 70, "velocity": 64 }, { "deltaTime": 72, "channel": 9, "type": "channel", "noteNumber": 42, "velocity": 50, "subtype": "noteOn" }, { "deltaTime": 0, "channel": 9, "type": "channel", "noteNumber": 70, "velocity": 35, "subtype": "noteOn" }, { "deltaTime": 24, "channel": 9, "type": "channel", "subtype": "noteOff", "noteNumber": 42, "velocity": 64 }, { "deltaTime": 0, "channel": 9, "type": "channel", "subtype": "noteOff", "noteNumber": 70, "velocity": 64 }, { "deltaTime": 72, "channel": 9, "type": "channel", "noteNumber": 75, "velocity": 127, "subtype": "noteOn" }, { "deltaTime": 0, "channel": 9, "type": "channel", "noteNumber": 42, "velocity": 66, "subtype": "noteOn" }, { "deltaTime": 0, "channel": 9, "type": "channel", "noteNumber": 70, "velocity": 51, "subtype": "noteOn" }, { "deltaTime": 24, "channel": 9, "type": "channel", "subtype": "noteOff", "noteNumber": 75, "velocity": 64 }, { "deltaTime": 0, "channel": 9, "type": "channel", "subtype": "noteOff", "noteNumber": 42, "velocity": 64 }, { "deltaTime": 0, "channel": 9, "type": "channel", "subtype": "noteOff", "noteNumber": 70, "velocity": 64 }, { "deltaTime": 72, "channel": 9, "type": "channel", "noteNumber": 35, "velocity": 80, "subtype": "noteOn" }, { "deltaTime": 0, "channel": 9, "type": "channel", "noteNumber": 42, "velocity": 50, "subtype": "noteOn" }, { "deltaTime": 0, "channel": 9, "type": "channel", "noteNumber": 70, "velocity": 35, "subtype": "noteOn" }, { "deltaTime": 24, "channel": 9, "type": "channel", "subtype": "noteOff", "noteNumber": 35, "velocity": 64 }, { "deltaTime": 0, "channel": 9, "type": "channel", "subtype": "noteOff", "noteNumber": 42, "velocity": 64 }, { "deltaTime": 0, "channel": 9, "type": "channel", "subtype": "noteOff", "noteNumber": 70, "velocity": 64 }, { "deltaTime": 72, "channel": 9, "type": "channel", "noteNumber": 35, "velocity": 80, "subtype": "noteOn" }, { "deltaTime": 0, "channel": 9, "type": "channel", "noteNumber": 42, "velocity": 66, "subtype": "noteOn" }, { "deltaTime": 0, "channel": 9, "type": "channel", "noteNumber": 70, "velocity": 51, "subtype": "noteOn" }, { "deltaTime": 24, "channel": 9, "type": "channel", "subtype": "noteOff", "noteNumber": 35, "velocity": 64 }, { "deltaTime": 0, "channel": 9, "type": "channel", "subtype": "noteOff", "noteNumber": 42, "velocity": 64 }, { "deltaTime": 0, "channel": 9, "type": "channel", "subtype": "noteOff", "noteNumber": 70, "velocity": 64 }, { "deltaTime": 72, "channel": 9, "type": "channel", "noteNumber": 42, "velocity": 50, "subtype": "noteOn" }, { "deltaTime": 0, "channel": 9, "type": "channel", "noteNumber": 70, "velocity": 35, "subtype": "noteOn" }, { "deltaTime": 24, "channel": 9, "type": "channel", "subtype": "noteOff", "noteNumber": 42, "velocity": 64 }, { "deltaTime": 0, "channel": 9, "type": "channel", "subtype": "noteOff", "noteNumber": 70, "velocity": 64 }, { "deltaTime": 72, "channel": 9, "type": "channel", "noteNumber": 38, "velocity": 112, "subtype": "noteOn" }, { "deltaTime": 0, "channel": 9, "type": "channel", "noteNumber": 42, "velocity": 66, "subtype": "noteOn" }, { "deltaTime": 0, "channel": 9, "type": "channel", "noteNumber": 70, "velocity": 51, "subtype": "noteOn" }, { "deltaTime": 24, "channel": 9, "type": "channel", "subtype": "noteOff", "noteNumber": 38, "velocity": 64 }, { "deltaTime": 0, "channel": 9, "type": "channel", "subtype": "noteOff", "noteNumber": 42, "velocity": 64 }, { "deltaTime": 0, "channel": 9, "type": "channel", "subtype": "noteOff", "noteNumber": 70, "velocity": 64 }, { "deltaTime": 72, "channel": 9, "type": "channel", "noteNumber": 42, "velocity": 50, "subtype": "noteOn" }, { "deltaTime": 0, "channel": 9, "type": "channel", "noteNumber": 70, "velocity": 35, "subtype": "noteOn" }, { "deltaTime": 24, "channel": 9, "type": "channel", "subtype": "noteOff", "noteNumber": 42, "velocity": 64 }, { "deltaTime": 0, "channel": 9, "type": "channel", "subtype": "noteOff", "noteNumber": 70, "velocity": 64 }, { "deltaTime": 168, "channel": 9, "type": "channel", "noteNumber": 35, "velocity": 80, "subtype": "noteOn" }, { "deltaTime": 0, "channel": 9, "type": "channel", "noteNumber": 38, "velocity": 112, "subtype": "noteOn" }, { "deltaTime": 0, "channel": 9, "type": "channel", "noteNumber": 46, "velocity": 96, "subtype": "noteOn" }, { "deltaTime": 24, "channel": 9, "type": "channel", "subtype": "noteOff", "noteNumber": 35, "velocity": 64 }, { "deltaTime": 0, "channel": 9, "type": "channel", "subtype": "noteOff", "noteNumber": 38, "velocity": 64 }, { "deltaTime": 0, "channel": 9, "type": "channel", "subtype": "noteOff", "noteNumber": 46, "velocity": 64 }, { "deltaTime": 168, "channel": 9, "type": "channel", "noteNumber": 35, "velocity": 80, "subtype": "noteOn" }, { "deltaTime": 0, "channel": 9, "type": "channel", "noteNumber": 38, "velocity": 112, "subtype": "noteOn" }, { "deltaTime": 0, "channel": 9, "type": "channel", "noteNumber": 46, "velocity": 96, "subtype": "noteOn" }, { "deltaTime": 24, "channel": 9, "type": "channel", "subtype": "noteOff", "noteNumber": 35, "velocity": 64 }, { "deltaTime": 0, "channel": 9, "type": "channel", "subtype": "noteOff", "noteNumber": 38, "velocity": 64 }, { "deltaTime": 0, "channel": 9, "type": "channel", "subtype": "noteOff", "noteNumber": 46, "velocity": 64 }, { "deltaTime": 72, "channel": 9, "type": "channel", "noteNumber": 35, "velocity": 80, "subtype": "noteOn" }, { "deltaTime": 0, "channel": 9, "type": "channel", "noteNumber": 38, "velocity": 112, "subtype": "noteOn" }, { "deltaTime": 0, "channel": 9, "type": "channel", "noteNumber": 42, "velocity": 66, "subtype": "noteOn" }, { "deltaTime": 0, "channel": 9, "type": "channel", "noteNumber": 70, "velocity": 51, "subtype": "noteOn" }, { "deltaTime": 24, "channel": 9, "type": "channel", "subtype": "noteOff", "noteNumber": 35, "velocity": 64 }, { "deltaTime": 0, "channel": 9, "type": "channel", "subtype": "noteOff", "noteNumber": 38, "velocity": 64 }, { "deltaTime": 0, "channel": 9, "type": "channel", "subtype": "noteOff", "noteNumber": 42, "velocity": 64 }, { "deltaTime": 0, "channel": 9, "type": "channel", "subtype": "noteOff", "noteNumber": 70, "velocity": 64 }, { "deltaTime": 456, "channel": 9, "type": "channel", "noteNumber": 35, "velocity": 80, "subtype": "noteOn" }, { "deltaTime": 0, "channel": 9, "type": "channel", "noteNumber": 38, "velocity": 112, "subtype": "noteOn" }, { "deltaTime": 0, "channel": 9, "type": "channel", "noteNumber": 46, "velocity": 96, "subtype": "noteOn" }, { "deltaTime": 24, "channel": 9, "type": "channel", "subtype": "noteOff", "noteNumber": 35, "velocity": 64 }, { "deltaTime": 0, "channel": 9, "type": "channel", "subtype": "noteOff", "noteNumber": 38, "velocity": 64 }, { "deltaTime": 0, "channel": 9, "type": "channel", "subtype": "noteOff", "noteNumber": 46, "velocity": 64 }, { "deltaTime": 168, "channel": 9, "type": "channel", "noteNumber": 35, "velocity": 80, "subtype": "noteOn" }, { "deltaTime": 0, "channel": 9, "type": "channel", "noteNumber": 38, "velocity": 112, "subtype": "noteOn" }, { "deltaTime": 0, "channel": 9, "type": "channel", "noteNumber": 46, "velocity": 96, "subtype": "noteOn" }, { "deltaTime": 24, "channel": 9, "type": "channel", "subtype": "noteOff", "noteNumber": 35, "velocity": 64 }, { "deltaTime": 0, "channel": 9, "type": "channel", "subtype": "noteOff", "noteNumber": 38, "velocity": 64 }, { "deltaTime": 0, "channel": 9, "type": "channel", "subtype": "noteOff", "noteNumber": 46, "velocity": 64 }, { "deltaTime": 72, "channel": 9, "type": "channel", "noteNumber": 35, "velocity": 80, "subtype": "noteOn" }, { "deltaTime": 0, "channel": 9, "type": "channel", "noteNumber": 38, "velocity": 112, "subtype": "noteOn" }, { "deltaTime": 0, "channel": 9, "type": "channel", "noteNumber": 42, "velocity": 66, "subtype": "noteOn" }, { "deltaTime": 0, "channel": 9, "type": "channel", "noteNumber": 70, "velocity": 51, "subtype": "noteOn" }, { "deltaTime": 24, "channel": 9, "type": "channel", "subtype": "noteOff", "noteNumber": 35, "velocity": 64 }, { "deltaTime": 0, "channel": 9, "type": "channel", "subtype": "noteOff", "noteNumber": 38, "velocity": 64 }, { "deltaTime": 0, "channel": 9, "type": "channel", "subtype": "noteOff", "noteNumber": 42, "velocity": 64 }, { "deltaTime": 0, "channel": 9, "type": "channel", "subtype": "noteOff", "noteNumber": 70, "velocity": 64 }, { "deltaTime": 360, "channel": 9, "type": "channel", "noteNumber": 35, "velocity": 80, "subtype": "noteOn" }, { "deltaTime": 0, "channel": 9, "type": "channel", "noteNumber": 49, "velocity": 96, "subtype": "noteOn" }, { "deltaTime": 24, "channel": 9, "type": "channel", "subtype": "noteOff", "noteNumber": 35, "velocity": 64 }, { "deltaTime": 0, "channel": 9, "type": "channel", "subtype": "noteOff", "noteNumber": 49, "velocity": 64 }, { "deltaTime": 648, "channel": 9, "type": "channel", "noteNumber": 51, "velocity": 96, "subtype": "noteOn" }, { "deltaTime": 24, "channel": 9, "type": "channel", "subtype": "noteOff", "noteNumber": 51, "velocity": 64 }, { "deltaTime": 24, "channel": 9, "type": "channel", "noteNumber": 51, "velocity": 112, "subtype": "noteOn" }, { "deltaTime": 24, "channel": 9, "type": "channel", "subtype": "noteOff", "noteNumber": 51, "velocity": 64 }, { "deltaTime": 24, "channel": 9, "type": "channel", "noteNumber": 35, "velocity": 80, "subtype": "noteOn" }, { "deltaTime": 0, "channel": 9, "type": "channel", "noteNumber": 53, "velocity": 127, "subtype": "noteOn" }, { "deltaTime": 24, "channel": 9, "type": "channel", "subtype": "noteOff", "noteNumber": 35, "velocity": 64 }, { "deltaTime": 0, "channel": 9, "type": "channel", "subtype": "noteOff", "noteNumber": 53, "velocity": 64 }, { "deltaTime": 456, "channel": 9, "type": "channel", "noteNumber": 42, "velocity": 50, "subtype": "noteOn" }, { "deltaTime": 0, "channel": 9, "type": "channel", "noteNumber": 70, "velocity": 35, "subtype": "noteOn" }, { "deltaTime": 24, "channel": 9, "type": "channel", "subtype": "noteOff", "noteNumber": 42, "velocity": 64 }, { "deltaTime": 0, "channel": 9, "type": "channel", "subtype": "noteOff", "noteNumber": 70, "velocity": 64 }, { "deltaTime": 72, "channel": 9, "type": "channel", "noteNumber": 46, "velocity": 96, "subtype": "noteOn" }, { "deltaTime": 24, "channel": 9, "type": "channel", "subtype": "noteOff", "noteNumber": 46, "velocity": 64 }, { "deltaTime": 168, "channel": 9, "type": "channel", "noteNumber": 35, "velocity": 80, "subtype": "noteOn" }, { "deltaTime": 0, "channel": 9, "type": "channel", "noteNumber": 51, "velocity": 127, "subtype": "noteOn" }, { "deltaTime": 24, "channel": 9, "type": "channel", "subtype": "noteOff", "noteNumber": 35, "velocity": 64 }, { "deltaTime": 0, "channel": 9, "type": "channel", "subtype": "noteOff", "noteNumber": 51, "velocity": 64 }, { "deltaTime": 72, "channel": 9, "type": "channel", "noteNumber": 42, "velocity": 50, "subtype": "noteOn" }, { "deltaTime": 0, "channel": 9, "type": "channel", "noteNumber": 70, "velocity": 35, "subtype": "noteOn" }, { "deltaTime": 24, "channel": 9, "type": "channel", "subtype": "noteOff", "noteNumber": 42, "velocity": 64 }, { "deltaTime": 0, "channel": 9, "type": "channel", "subtype": "noteOff", "noteNumber": 70, "velocity": 64 }, { "deltaTime": 72, "channel": 9, "type": "channel", "noteNumber": 75, "velocity": 112, "subtype": "noteOn" }, { "deltaTime": 0, "channel": 9, "type": "channel", "noteNumber": 42, "velocity": 66, "subtype": "noteOn" }, { "deltaTime": 0, "channel": 9, "type": "channel", "noteNumber": 70, "velocity": 51, "subtype": "noteOn" }, { "deltaTime": 24, "channel": 9, "type": "channel", "subtype": "noteOff", "noteNumber": 75, "velocity": 64 }, { "deltaTime": 0, "channel": 9, "type": "channel", "subtype": "noteOff", "noteNumber": 42, "velocity": 64 }, { "deltaTime": 0, "channel": 9, "type": "channel", "subtype": "noteOff", "noteNumber": 70, "velocity": 64 }, { "deltaTime": 72, "channel": 9, "type": "channel", "noteNumber": 35, "velocity": 80, "subtype": "noteOn" }, { "deltaTime": 0, "channel": 9, "type": "channel", "noteNumber": 42, "velocity": 50, "subtype": "noteOn" }, { "deltaTime": 0, "channel": 9, "type": "channel", "noteNumber": 70, "velocity": 35, "subtype": "noteOn" }, { "deltaTime": 24, "channel": 9, "type": "channel", "subtype": "noteOff", "noteNumber": 35, "velocity": 64 }, { "deltaTime": 0, "channel": 9, "type": "channel", "subtype": "noteOff", "noteNumber": 42, "velocity": 64 }, { "deltaTime": 0, "channel": 9, "type": "channel", "subtype": "noteOff", "noteNumber": 70, "velocity": 64 }, { "deltaTime": 72, "channel": 9, "type": "channel", "noteNumber": 35, "velocity": 80, "subtype": "noteOn" }, { "deltaTime": 0, "channel": 9, "type": "channel", "noteNumber": 42, "velocity": 66, "subtype": "noteOn" }, { "deltaTime": 0, "channel": 9, "type": "channel", "noteNumber": 70, "velocity": 51, "subtype": "noteOn" }, { "deltaTime": 24, "channel": 9, "type": "channel", "subtype": "noteOff", "noteNumber": 35, "velocity": 64 }, { "deltaTime": 0, "channel": 9, "type": "channel", "subtype": "noteOff", "noteNumber": 42, "velocity": 64 }, { "deltaTime": 0, "channel": 9, "type": "channel", "subtype": "noteOff", "noteNumber": 70, "velocity": 64 }, { "deltaTime": 72, "channel": 9, "type": "channel", "noteNumber": 42, "velocity": 50, "subtype": "noteOn" }, { "deltaTime": 0, "channel": 9, "type": "channel", "noteNumber": 70, "velocity": 35, "subtype": "noteOn" }, { "deltaTime": 24, "channel": 9, "type": "channel", "subtype": "noteOff", "noteNumber": 42, "velocity": 64 }, { "deltaTime": 0, "channel": 9, "type": "channel", "subtype": "noteOff", "noteNumber": 70, "velocity": 64 }, { "deltaTime": 72, "channel": 9, "type": "channel", "noteNumber": 75, "velocity": 112, "subtype": "noteOn" }, { "deltaTime": 0, "channel": 9, "type": "channel", "noteNumber": 42, "velocity": 66, "subtype": "noteOn" }, { "deltaTime": 0, "channel": 9, "type": "channel", "noteNumber": 70, "velocity": 51, "subtype": "noteOn" }, { "deltaTime": 24, "channel": 9, "type": "channel", "subtype": "noteOff", "noteNumber": 75, "velocity": 64 }, { "deltaTime": 0, "channel": 9, "type": "channel", "subtype": "noteOff", "noteNumber": 42, "velocity": 64 }, { "deltaTime": 0, "channel": 9, "type": "channel", "subtype": "noteOff", "noteNumber": 70, "velocity": 64 }, { "deltaTime": 72, "channel": 9, "type": "channel", "noteNumber": 42, "velocity": 50, "subtype": "noteOn" }, { "deltaTime": 0, "channel": 9, "type": "channel", "noteNumber": 70, "velocity": 35, "subtype": "noteOn" }, { "deltaTime": 24, "channel": 9, "type": "channel", "subtype": "noteOff", "noteNumber": 42, "velocity": 64 }, { "deltaTime": 0, "channel": 9, "type": "channel", "subtype": "noteOff", "noteNumber": 70, "velocity": 64 }, { "deltaTime": 72, "channel": 9, "type": "channel", "noteNumber": 35, "velocity": 80, "subtype": "noteOn" }, { "deltaTime": 0, "channel": 9, "type": "channel", "noteNumber": 42, "velocity": 66, "subtype": "noteOn" }, { "deltaTime": 0, "channel": 9, "type": "channel", "noteNumber": 70, "velocity": 51, "subtype": "noteOn" }, { "deltaTime": 24, "channel": 9, "type": "channel", "subtype": "noteOff", "noteNumber": 35, "velocity": 64 }, { "deltaTime": 0, "channel": 9, "type": "channel", "subtype": "noteOff", "noteNumber": 42, "velocity": 64 }, { "deltaTime": 0, "channel": 9, "type": "channel", "subtype": "noteOff", "noteNumber": 70, "velocity": 64 }, { "deltaTime": 72, "channel": 9, "type": "channel", "noteNumber": 42, "velocity": 50, "subtype": "noteOn" }, { "deltaTime": 0, "channel": 9, "type": "channel", "noteNumber": 70, "velocity": 35, "subtype": "noteOn" }, { "deltaTime": 24, "channel": 9, "type": "channel", "subtype": "noteOff", "noteNumber": 42, "velocity": 64 }, { "deltaTime": 0, "channel": 9, "type": "channel", "subtype": "noteOff", "noteNumber": 70, "velocity": 64 }, { "deltaTime": 72, "channel": 9, "type": "channel", "noteNumber": 75, "velocity": 127, "subtype": "noteOn" }, { "deltaTime": 0, "channel": 9, "type": "channel", "noteNumber": 42, "velocity": 66, "subtype": "noteOn" }, { "deltaTime": 0, "channel": 9, "type": "channel", "noteNumber": 70, "velocity": 51, "subtype": "noteOn" }, { "deltaTime": 24, "channel": 9, "type": "channel", "subtype": "noteOff", "noteNumber": 75, "velocity": 64 }, { "deltaTime": 0, "channel": 9, "type": "channel", "subtype": "noteOff", "noteNumber": 42, "velocity": 64 }, { "deltaTime": 0, "channel": 9, "type": "channel", "subtype": "noteOff", "noteNumber": 70, "velocity": 64 }, { "deltaTime": 72, "channel": 9, "type": "channel", "noteNumber": 35, "velocity": 80, "subtype": "noteOn" }, { "deltaTime": 0, "channel": 9, "type": "channel", "noteNumber": 42, "velocity": 50, "subtype": "noteOn" }, { "deltaTime": 0, "channel": 9, "type": "channel", "noteNumber": 70, "velocity": 35, "subtype": "noteOn" }, { "deltaTime": 24, "channel": 9, "type": "channel", "subtype": "noteOff", "noteNumber": 35, "velocity": 64 }, { "deltaTime": 0, "channel": 9, "type": "channel", "subtype": "noteOff", "noteNumber": 42, "velocity": 64 }, { "deltaTime": 0, "channel": 9, "type": "channel", "subtype": "noteOff", "noteNumber": 70, "velocity": 64 }, { "deltaTime": 72, "channel": 9, "type": "channel", "noteNumber": 35, "velocity": 80, "subtype": "noteOn" }, { "deltaTime": 0, "channel": 9, "type": "channel", "noteNumber": 42, "velocity": 66, "subtype": "noteOn" }, { "deltaTime": 0, "channel": 9, "type": "channel", "noteNumber": 70, "velocity": 51, "subtype": "noteOn" }, { "deltaTime": 24, "channel": 9, "type": "channel", "subtype": "noteOff", "noteNumber": 35, "velocity": 64 }, { "deltaTime": 0, "channel": 9, "type": "channel", "subtype": "noteOff", "noteNumber": 42, "velocity": 64 }, { "deltaTime": 0, "channel": 9, "type": "channel", "subtype": "noteOff", "noteNumber": 70, "velocity": 64 }, { "deltaTime": 72, "channel": 9, "type": "channel", "noteNumber": 42, "velocity": 50, "subtype": "noteOn" }, { "deltaTime": 0, "channel": 9, "type": "channel", "noteNumber": 70, "velocity": 35, "subtype": "noteOn" }, { "deltaTime": 24, "channel": 9, "type": "channel", "subtype": "noteOff", "noteNumber": 42, "velocity": 64 }, { "deltaTime": 0, "channel": 9, "type": "channel", "subtype": "noteOff", "noteNumber": 70, "velocity": 64 }, { "deltaTime": 72, "channel": 9, "type": "channel", "noteNumber": 75, "velocity": 127, "subtype": "noteOn" }, { "deltaTime": 0, "channel": 9, "type": "channel", "noteNumber": 42, "velocity": 66, "subtype": "noteOn" }, { "deltaTime": 0, "channel": 9, "type": "channel", "noteNumber": 70, "velocity": 51, "subtype": "noteOn" }, { "deltaTime": 24, "channel": 9, "type": "channel", "subtype": "noteOff", "noteNumber": 75, "velocity": 64 }, { "deltaTime": 0, "channel": 9, "type": "channel", "subtype": "noteOff", "noteNumber": 42, "velocity": 64 }, { "deltaTime": 0, "channel": 9, "type": "channel", "subtype": "noteOff", "noteNumber": 70, "velocity": 64 }, { "deltaTime": 72, "channel": 9, "type": "channel", "noteNumber": 42, "velocity": 50, "subtype": "noteOn" }, { "deltaTime": 0, "channel": 9, "type": "channel", "noteNumber": 70, "velocity": 35, "subtype": "noteOn" }, { "deltaTime": 24, "channel": 9, "type": "channel", "subtype": "noteOff", "noteNumber": 42, "velocity": 64 }, { "deltaTime": 0, "channel": 9, "type": "channel", "subtype": "noteOff", "noteNumber": 70, "velocity": 64 }, { "deltaTime": 72, "channel": 9, "type": "channel", "noteNumber": 35, "velocity": 80, "subtype": "noteOn" }, { "deltaTime": 0, "channel": 9, "type": "channel", "noteNumber": 42, "velocity": 66, "subtype": "noteOn" }, { "deltaTime": 0, "channel": 9, "type": "channel", "noteNumber": 70, "velocity": 51, "subtype": "noteOn" }, { "deltaTime": 24, "channel": 9, "type": "channel", "subtype": "noteOff", "noteNumber": 35, "velocity": 64 }, { "deltaTime": 0, "channel": 9, "type": "channel", "subtype": "noteOff", "noteNumber": 42, "velocity": 64 }, { "deltaTime": 0, "channel": 9, "type": "channel", "subtype": "noteOff", "noteNumber": 70, "velocity": 64 }, { "deltaTime": 72, "channel": 9, "type": "channel", "noteNumber": 42, "velocity": 50, "subtype": "noteOn" }, { "deltaTime": 0, "channel": 9, "type": "channel", "noteNumber": 70, "velocity": 35, "subtype": "noteOn" }, { "deltaTime": 24, "channel": 9, "type": "channel", "subtype": "noteOff", "noteNumber": 42, "velocity": 64 }, { "deltaTime": 0, "channel": 9, "type": "channel", "subtype": "noteOff", "noteNumber": 70, "velocity": 64 }, { "deltaTime": 72, "channel": 9, "type": "channel", "noteNumber": 75, "velocity": 127, "subtype": "noteOn" }, { "deltaTime": 0, "channel": 9, "type": "channel", "noteNumber": 42, "velocity": 66, "subtype": "noteOn" }, { "deltaTime": 0, "channel": 9, "type": "channel", "noteNumber": 70, "velocity": 51, "subtype": "noteOn" }, { "deltaTime": 24, "channel": 9, "type": "channel", "subtype": "noteOff", "noteNumber": 75, "velocity": 64 }, { "deltaTime": 0, "channel": 9, "type": "channel", "subtype": "noteOff", "noteNumber": 42, "velocity": 64 }, { "deltaTime": 0, "channel": 9, "type": "channel", "subtype": "noteOff", "noteNumber": 70, "velocity": 64 }, { "deltaTime": 72, "channel": 9, "type": "channel", "noteNumber": 35, "velocity": 80, "subtype": "noteOn" }, { "deltaTime": 0, "channel": 9, "type": "channel", "noteNumber": 42, "velocity": 50, "subtype": "noteOn" }, { "deltaTime": 0, "channel": 9, "type": "channel", "noteNumber": 70, "velocity": 35, "subtype": "noteOn" }, { "deltaTime": 24, "channel": 9, "type": "channel", "subtype": "noteOff", "noteNumber": 35, "velocity": 64 }, { "deltaTime": 0, "channel": 9, "type": "channel", "subtype": "noteOff", "noteNumber": 42, "velocity": 64 }, { "deltaTime": 0, "channel": 9, "type": "channel", "subtype": "noteOff", "noteNumber": 70, "velocity": 64 }, { "deltaTime": 72, "channel": 9, "type": "channel", "noteNumber": 35, "velocity": 80, "subtype": "noteOn" }, { "deltaTime": 0, "channel": 9, "type": "channel", "noteNumber": 42, "velocity": 66, "subtype": "noteOn" }, { "deltaTime": 0, "channel": 9, "type": "channel", "noteNumber": 70, "velocity": 51, "subtype": "noteOn" }, { "deltaTime": 24, "channel": 9, "type": "channel", "subtype": "noteOff", "noteNumber": 35, "velocity": 64 }, { "deltaTime": 0, "channel": 9, "type": "channel", "subtype": "noteOff", "noteNumber": 42, "velocity": 64 }, { "deltaTime": 0, "channel": 9, "type": "channel", "subtype": "noteOff", "noteNumber": 70, "velocity": 64 }, { "deltaTime": 72, "channel": 9, "type": "channel", "noteNumber": 42, "velocity": 50, "subtype": "noteOn" }, { "deltaTime": 0, "channel": 9, "type": "channel", "noteNumber": 70, "velocity": 35, "subtype": "noteOn" }, { "deltaTime": 24, "channel": 9, "type": "channel", "subtype": "noteOff", "noteNumber": 42, "velocity": 64 }, { "deltaTime": 0, "channel": 9, "type": "channel", "subtype": "noteOff", "noteNumber": 70, "velocity": 64 }, { "deltaTime": 72, "channel": 9, "type": "channel", "noteNumber": 75, "velocity": 127, "subtype": "noteOn" }, { "deltaTime": 0, "channel": 9, "type": "channel", "noteNumber": 42, "velocity": 66, "subtype": "noteOn" }, { "deltaTime": 0, "channel": 9, "type": "channel", "noteNumber": 70, "velocity": 51, "subtype": "noteOn" }, { "deltaTime": 24, "channel": 9, "type": "channel", "subtype": "noteOff", "noteNumber": 75, "velocity": 64 }, { "deltaTime": 0, "channel": 9, "type": "channel", "subtype": "noteOff", "noteNumber": 42, "velocity": 64 }, { "deltaTime": 0, "channel": 9, "type": "channel", "subtype": "noteOff", "noteNumber": 70, "velocity": 64 }, { "deltaTime": 72, "channel": 9, "type": "channel", "noteNumber": 42, "velocity": 50, "subtype": "noteOn" }, { "deltaTime": 0, "channel": 9, "type": "channel", "noteNumber": 70, "velocity": 35, "subtype": "noteOn" }, { "deltaTime": 24, "channel": 9, "type": "channel", "subtype": "noteOff", "noteNumber": 42, "velocity": 64 }, { "deltaTime": 0, "channel": 9, "type": "channel", "subtype": "noteOff", "noteNumber": 70, "velocity": 64 }, { "deltaTime": 72, "channel": 9, "type": "channel", "noteNumber": 35, "velocity": 80, "subtype": "noteOn" }, { "deltaTime": 0, "channel": 9, "type": "channel", "noteNumber": 42, "velocity": 66, "subtype": "noteOn" }, { "deltaTime": 0, "channel": 9, "type": "channel", "noteNumber": 70, "velocity": 51, "subtype": "noteOn" }, { "deltaTime": 24, "channel": 9, "type": "channel", "subtype": "noteOff", "noteNumber": 35, "velocity": 64 }, { "deltaTime": 0, "channel": 9, "type": "channel", "subtype": "noteOff", "noteNumber": 42, "velocity": 64 }, { "deltaTime": 0, "channel": 9, "type": "channel", "subtype": "noteOff", "noteNumber": 70, "velocity": 64 }, { "deltaTime": 72, "channel": 9, "type": "channel", "noteNumber": 42, "velocity": 50, "subtype": "noteOn" }, { "deltaTime": 0, "channel": 9, "type": "channel", "noteNumber": 70, "velocity": 35, "subtype": "noteOn" }, { "deltaTime": 24, "channel": 9, "type": "channel", "subtype": "noteOff", "noteNumber": 42, "velocity": 64 }, { "deltaTime": 0, "channel": 9, "type": "channel", "subtype": "noteOff", "noteNumber": 70, "velocity": 64 }, { "deltaTime": 72, "channel": 9, "type": "channel", "noteNumber": 75, "velocity": 127, "subtype": "noteOn" }, { "deltaTime": 0, "channel": 9, "type": "channel", "noteNumber": 42, "velocity": 66, "subtype": "noteOn" }, { "deltaTime": 0, "channel": 9, "type": "channel", "noteNumber": 70, "velocity": 51, "subtype": "noteOn" }, { "deltaTime": 24, "channel": 9, "type": "channel", "subtype": "noteOff", "noteNumber": 75, "velocity": 64 }, { "deltaTime": 0, "channel": 9, "type": "channel", "subtype": "noteOff", "noteNumber": 42, "velocity": 64 }, { "deltaTime": 0, "channel": 9, "type": "channel", "subtype": "noteOff", "noteNumber": 70, "velocity": 64 }, { "deltaTime": 72, "channel": 9, "type": "channel", "noteNumber": 35, "velocity": 80, "subtype": "noteOn" }, { "deltaTime": 0, "channel": 9, "type": "channel", "noteNumber": 42, "velocity": 50, "subtype": "noteOn" }, { "deltaTime": 0, "channel": 9, "type": "channel", "noteNumber": 70, "velocity": 35, "subtype": "noteOn" }, { "deltaTime": 24, "channel": 9, "type": "channel", "subtype": "noteOff", "noteNumber": 35, "velocity": 64 }, { "deltaTime": 0, "channel": 9, "type": "channel", "subtype": "noteOff", "noteNumber": 42, "velocity": 64 }, { "deltaTime": 0, "channel": 9, "type": "channel", "subtype": "noteOff", "noteNumber": 70, "velocity": 64 }, { "deltaTime": 72, "channel": 9, "type": "channel", "noteNumber": 35, "velocity": 80, "subtype": "noteOn" }, { "deltaTime": 0, "channel": 9, "type": "channel", "noteNumber": 42, "velocity": 66, "subtype": "noteOn" }, { "deltaTime": 0, "channel": 9, "type": "channel", "noteNumber": 70, "velocity": 51, "subtype": "noteOn" }, { "deltaTime": 24, "channel": 9, "type": "channel", "subtype": "noteOff", "noteNumber": 35, "velocity": 64 }, { "deltaTime": 0, "channel": 9, "type": "channel", "subtype": "noteOff", "noteNumber": 42, "velocity": 64 }, { "deltaTime": 0, "channel": 9, "type": "channel", "subtype": "noteOff", "noteNumber": 70, "velocity": 64 }, { "deltaTime": 72, "channel": 9, "type": "channel", "noteNumber": 42, "velocity": 50, "subtype": "noteOn" }, { "deltaTime": 0, "channel": 9, "type": "channel", "noteNumber": 70, "velocity": 35, "subtype": "noteOn" }, { "deltaTime": 24, "channel": 9, "type": "channel", "subtype": "noteOff", "noteNumber": 42, "velocity": 64 }, { "deltaTime": 0, "channel": 9, "type": "channel", "subtype": "noteOff", "noteNumber": 70, "velocity": 64 }, { "deltaTime": 72, "channel": 9, "type": "channel", "noteNumber": 75, "velocity": 127, "subtype": "noteOn" }, { "deltaTime": 0, "channel": 9, "type": "channel", "noteNumber": 42, "velocity": 66, "subtype": "noteOn" }, { "deltaTime": 0, "channel": 9, "type": "channel", "noteNumber": 70, "velocity": 51, "subtype": "noteOn" }, { "deltaTime": 24, "channel": 9, "type": "channel", "subtype": "noteOff", "noteNumber": 75, "velocity": 64 }, { "deltaTime": 0, "channel": 9, "type": "channel", "subtype": "noteOff", "noteNumber": 42, "velocity": 64 }, { "deltaTime": 0, "channel": 9, "type": "channel", "subtype": "noteOff", "noteNumber": 70, "velocity": 64 }, { "deltaTime": 72, "channel": 9, "type": "channel", "noteNumber": 42, "velocity": 50, "subtype": "noteOn" }, { "deltaTime": 0, "channel": 9, "type": "channel", "noteNumber": 70, "velocity": 35, "subtype": "noteOn" }, { "deltaTime": 24, "channel": 9, "type": "channel", "subtype": "noteOff", "noteNumber": 42, "velocity": 64 }, { "deltaTime": 0, "channel": 9, "type": "channel", "subtype": "noteOff", "noteNumber": 70, "velocity": 64 }, { "deltaTime": 72, "channel": 9, "type": "channel", "noteNumber": 35, "velocity": 80, "subtype": "noteOn" }, { "deltaTime": 0, "channel": 9, "type": "channel", "noteNumber": 42, "velocity": 66, "subtype": "noteOn" }, { "deltaTime": 0, "channel": 9, "type": "channel", "noteNumber": 70, "velocity": 51, "subtype": "noteOn" }, { "deltaTime": 24, "channel": 9, "type": "channel", "subtype": "noteOff", "noteNumber": 35, "velocity": 64 }, { "deltaTime": 0, "channel": 9, "type": "channel", "subtype": "noteOff", "noteNumber": 42, "velocity": 64 }, { "deltaTime": 0, "channel": 9, "type": "channel", "subtype": "noteOff", "noteNumber": 70, "velocity": 64 }, { "deltaTime": 72, "channel": 9, "type": "channel", "noteNumber": 42, "velocity": 50, "subtype": "noteOn" }, { "deltaTime": 0, "channel": 9, "type": "channel", "noteNumber": 70, "velocity": 35, "subtype": "noteOn" }, { "deltaTime": 24, "channel": 9, "type": "channel", "subtype": "noteOff", "noteNumber": 42, "velocity": 64 }, { "deltaTime": 0, "channel": 9, "type": "channel", "subtype": "noteOff", "noteNumber": 70, "velocity": 64 }, { "deltaTime": 72, "channel": 9, "type": "channel", "noteNumber": 75, "velocity": 127, "subtype": "noteOn" }, { "deltaTime": 0, "channel": 9, "type": "channel", "noteNumber": 42, "velocity": 66, "subtype": "noteOn" }, { "deltaTime": 0, "channel": 9, "type": "channel", "noteNumber": 70, "velocity": 51, "subtype": "noteOn" }, { "deltaTime": 24, "channel": 9, "type": "channel", "subtype": "noteOff", "noteNumber": 75, "velocity": 64 }, { "deltaTime": 0, "channel": 9, "type": "channel", "subtype": "noteOff", "noteNumber": 42, "velocity": 64 }, { "deltaTime": 0, "channel": 9, "type": "channel", "subtype": "noteOff", "noteNumber": 70, "velocity": 64 }, { "deltaTime": 72, "channel": 9, "type": "channel", "noteNumber": 35, "velocity": 80, "subtype": "noteOn" }, { "deltaTime": 0, "channel": 9, "type": "channel", "noteNumber": 42, "velocity": 50, "subtype": "noteOn" }, { "deltaTime": 0, "channel": 9, "type": "channel", "noteNumber": 70, "velocity": 35, "subtype": "noteOn" }, { "deltaTime": 24, "channel": 9, "type": "channel", "subtype": "noteOff", "noteNumber": 35, "velocity": 64 }, { "deltaTime": 0, "channel": 9, "type": "channel", "subtype": "noteOff", "noteNumber": 42, "velocity": 64 }, { "deltaTime": 0, "channel": 9, "type": "channel", "subtype": "noteOff", "noteNumber": 70, "velocity": 64 }, { "deltaTime": 72, "channel": 9, "type": "channel", "noteNumber": 35, "velocity": 80, "subtype": "noteOn" }, { "deltaTime": 0, "channel": 9, "type": "channel", "noteNumber": 42, "velocity": 66, "subtype": "noteOn" }, { "deltaTime": 0, "channel": 9, "type": "channel", "noteNumber": 70, "velocity": 51, "subtype": "noteOn" }, { "deltaTime": 24, "channel": 9, "type": "channel", "subtype": "noteOff", "noteNumber": 35, "velocity": 64 }, { "deltaTime": 0, "channel": 9, "type": "channel", "subtype": "noteOff", "noteNumber": 42, "velocity": 64 }, { "deltaTime": 0, "channel": 9, "type": "channel", "subtype": "noteOff", "noteNumber": 70, "velocity": 64 }, { "deltaTime": 72, "channel": 9, "type": "channel", "noteNumber": 42, "velocity": 50, "subtype": "noteOn" }, { "deltaTime": 0, "channel": 9, "type": "channel", "noteNumber": 70, "velocity": 35, "subtype": "noteOn" }, { "deltaTime": 24, "channel": 9, "type": "channel", "subtype": "noteOff", "noteNumber": 42, "velocity": 64 }, { "deltaTime": 0, "channel": 9, "type": "channel", "subtype": "noteOff", "noteNumber": 70, "velocity": 64 }, { "deltaTime": 72, "channel": 9, "type": "channel", "noteNumber": 75, "velocity": 127, "subtype": "noteOn" }, { "deltaTime": 0, "channel": 9, "type": "channel", "noteNumber": 42, "velocity": 66, "subtype": "noteOn" }, { "deltaTime": 0, "channel": 9, "type": "channel", "noteNumber": 70, "velocity": 51, "subtype": "noteOn" }, { "deltaTime": 24, "channel": 9, "type": "channel", "subtype": "noteOff", "noteNumber": 75, "velocity": 64 }, { "deltaTime": 0, "channel": 9, "type": "channel", "subtype": "noteOff", "noteNumber": 42, "velocity": 64 }, { "deltaTime": 0, "channel": 9, "type": "channel", "subtype": "noteOff", "noteNumber": 70, "velocity": 64 }, { "deltaTime": 72, "channel": 9, "type": "channel", "noteNumber": 42, "velocity": 50, "subtype": "noteOn" }, { "deltaTime": 0, "channel": 9, "type": "channel", "noteNumber": 70, "velocity": 35, "subtype": "noteOn" }, { "deltaTime": 24, "channel": 9, "type": "channel", "subtype": "noteOff", "noteNumber": 42, "velocity": 64 }, { "deltaTime": 0, "channel": 9, "type": "channel", "subtype": "noteOff", "noteNumber": 70, "velocity": 64 }, { "deltaTime": 72, "channel": 9, "type": "channel", "noteNumber": 35, "velocity": 80, "subtype": "noteOn" }, { "deltaTime": 0, "channel": 9, "type": "channel", "noteNumber": 42, "velocity": 66, "subtype": "noteOn" }, { "deltaTime": 0, "channel": 9, "type": "channel", "noteNumber": 70, "velocity": 51, "subtype": "noteOn" }, { "deltaTime": 24, "channel": 9, "type": "channel", "subtype": "noteOff", "noteNumber": 35, "velocity": 64 }, { "deltaTime": 0, "channel": 9, "type": "channel", "subtype": "noteOff", "noteNumber": 42, "velocity": 64 }, { "deltaTime": 0, "channel": 9, "type": "channel", "subtype": "noteOff", "noteNumber": 70, "velocity": 64 }, { "deltaTime": 72, "channel": 9, "type": "channel", "noteNumber": 42, "velocity": 50, "subtype": "noteOn" }, { "deltaTime": 0, "channel": 9, "type": "channel", "noteNumber": 70, "velocity": 35, "subtype": "noteOn" }, { "deltaTime": 24, "channel": 9, "type": "channel", "subtype": "noteOff", "noteNumber": 42, "velocity": 64 }, { "deltaTime": 0, "channel": 9, "type": "channel", "subtype": "noteOff", "noteNumber": 70, "velocity": 64 }, { "deltaTime": 72, "channel": 9, "type": "channel", "noteNumber": 75, "velocity": 127, "subtype": "noteOn" }, { "deltaTime": 0, "channel": 9, "type": "channel", "noteNumber": 42, "velocity": 66, "subtype": "noteOn" }, { "deltaTime": 0, "channel": 9, "type": "channel", "noteNumber": 70, "velocity": 51, "subtype": "noteOn" }, { "deltaTime": 24, "channel": 9, "type": "channel", "subtype": "noteOff", "noteNumber": 75, "velocity": 64 }, { "deltaTime": 0, "channel": 9, "type": "channel", "subtype": "noteOff", "noteNumber": 42, "velocity": 64 }, { "deltaTime": 0, "channel": 9, "type": "channel", "subtype": "noteOff", "noteNumber": 70, "velocity": 64 }, { "deltaTime": 72, "channel": 9, "type": "channel", "noteNumber": 35, "velocity": 80, "subtype": "noteOn" }, { "deltaTime": 0, "channel": 9, "type": "channel", "noteNumber": 42, "velocity": 50, "subtype": "noteOn" }, { "deltaTime": 0, "channel": 9, "type": "channel", "noteNumber": 70, "velocity": 35, "subtype": "noteOn" }, { "deltaTime": 24, "channel": 9, "type": "channel", "subtype": "noteOff", "noteNumber": 35, "velocity": 64 }, { "deltaTime": 0, "channel": 9, "type": "channel", "subtype": "noteOff", "noteNumber": 42, "velocity": 64 }, { "deltaTime": 0, "channel": 9, "type": "channel", "subtype": "noteOff", "noteNumber": 70, "velocity": 64 }, { "deltaTime": 72, "channel": 9, "type": "channel", "noteNumber": 35, "velocity": 80, "subtype": "noteOn" }, { "deltaTime": 0, "channel": 9, "type": "channel", "noteNumber": 42, "velocity": 66, "subtype": "noteOn" }, { "deltaTime": 0, "channel": 9, "type": "channel", "noteNumber": 70, "velocity": 51, "subtype": "noteOn" }, { "deltaTime": 24, "channel": 9, "type": "channel", "subtype": "noteOff", "noteNumber": 35, "velocity": 64 }, { "deltaTime": 0, "channel": 9, "type": "channel", "subtype": "noteOff", "noteNumber": 42, "velocity": 64 }, { "deltaTime": 0, "channel": 9, "type": "channel", "subtype": "noteOff", "noteNumber": 70, "velocity": 64 }, { "deltaTime": 72, "channel": 9, "type": "channel", "noteNumber": 42, "velocity": 50, "subtype": "noteOn" }, { "deltaTime": 0, "channel": 9, "type": "channel", "noteNumber": 70, "velocity": 35, "subtype": "noteOn" }, { "deltaTime": 24, "channel": 9, "type": "channel", "subtype": "noteOff", "noteNumber": 42, "velocity": 64 }, { "deltaTime": 0, "channel": 9, "type": "channel", "subtype": "noteOff", "noteNumber": 70, "velocity": 64 }, { "deltaTime": 72, "channel": 9, "type": "channel", "noteNumber": 75, "velocity": 127, "subtype": "noteOn" }, { "deltaTime": 0, "channel": 9, "type": "channel", "noteNumber": 42, "velocity": 66, "subtype": "noteOn" }, { "deltaTime": 0, "channel": 9, "type": "channel", "noteNumber": 70, "velocity": 51, "subtype": "noteOn" }, { "deltaTime": 24, "channel": 9, "type": "channel", "subtype": "noteOff", "noteNumber": 75, "velocity": 64 }, { "deltaTime": 0, "channel": 9, "type": "channel", "subtype": "noteOff", "noteNumber": 42, "velocity": 64 }, { "deltaTime": 0, "channel": 9, "type": "channel", "subtype": "noteOff", "noteNumber": 70, "velocity": 64 }, { "deltaTime": 72, "channel": 9, "type": "channel", "noteNumber": 42, "velocity": 50, "subtype": "noteOn" }, { "deltaTime": 0, "channel": 9, "type": "channel", "noteNumber": 70, "velocity": 35, "subtype": "noteOn" }, { "deltaTime": 24, "channel": 9, "type": "channel", "subtype": "noteOff", "noteNumber": 42, "velocity": 64 }, { "deltaTime": 0, "channel": 9, "type": "channel", "subtype": "noteOff", "noteNumber": 70, "velocity": 64 }, { "deltaTime": 72, "channel": 9, "type": "channel", "noteNumber": 35, "velocity": 80, "subtype": "noteOn" }, { "deltaTime": 0, "channel": 9, "type": "channel", "noteNumber": 42, "velocity": 66, "subtype": "noteOn" }, { "deltaTime": 0, "channel": 9, "type": "channel", "noteNumber": 70, "velocity": 51, "subtype": "noteOn" }, { "deltaTime": 24, "channel": 9, "type": "channel", "subtype": "noteOff", "noteNumber": 35, "velocity": 64 }, { "deltaTime": 0, "channel": 9, "type": "channel", "subtype": "noteOff", "noteNumber": 42, "velocity": 64 }, { "deltaTime": 0, "channel": 9, "type": "channel", "subtype": "noteOff", "noteNumber": 70, "velocity": 64 }, { "deltaTime": 72, "channel": 9, "type": "channel", "noteNumber": 42, "velocity": 50, "subtype": "noteOn" }, { "deltaTime": 0, "channel": 9, "type": "channel", "noteNumber": 70, "velocity": 35, "subtype": "noteOn" }, { "deltaTime": 24, "channel": 9, "type": "channel", "subtype": "noteOff", "noteNumber": 42, "velocity": 64 }, { "deltaTime": 0, "channel": 9, "type": "channel", "subtype": "noteOff", "noteNumber": 70, "velocity": 64 }, { "deltaTime": 72, "channel": 9, "type": "channel", "noteNumber": 75, "velocity": 127, "subtype": "noteOn" }, { "deltaTime": 0, "channel": 9, "type": "channel", "noteNumber": 42, "velocity": 66, "subtype": "noteOn" }, { "deltaTime": 0, "channel": 9, "type": "channel", "noteNumber": 70, "velocity": 51, "subtype": "noteOn" }, { "deltaTime": 24, "channel": 9, "type": "channel", "subtype": "noteOff", "noteNumber": 75, "velocity": 64 }, { "deltaTime": 0, "channel": 9, "type": "channel", "subtype": "noteOff", "noteNumber": 42, "velocity": 64 }, { "deltaTime": 0, "channel": 9, "type": "channel", "subtype": "noteOff", "noteNumber": 70, "velocity": 64 }, { "deltaTime": 72, "channel": 9, "type": "channel", "noteNumber": 35, "velocity": 80, "subtype": "noteOn" }, { "deltaTime": 0, "channel": 9, "type": "channel", "noteNumber": 42, "velocity": 50, "subtype": "noteOn" }, { "deltaTime": 0, "channel": 9, "type": "channel", "noteNumber": 70, "velocity": 35, "subtype": "noteOn" }, { "deltaTime": 24, "channel": 9, "type": "channel", "subtype": "noteOff", "noteNumber": 35, "velocity": 64 }, { "deltaTime": 0, "channel": 9, "type": "channel", "subtype": "noteOff", "noteNumber": 42, "velocity": 64 }, { "deltaTime": 0, "channel": 9, "type": "channel", "subtype": "noteOff", "noteNumber": 70, "velocity": 64 }, { "deltaTime": 72, "channel": 9, "type": "channel", "noteNumber": 35, "velocity": 80, "subtype": "noteOn" }, { "deltaTime": 0, "channel": 9, "type": "channel", "noteNumber": 42, "velocity": 66, "subtype": "noteOn" }, { "deltaTime": 0, "channel": 9, "type": "channel", "noteNumber": 70, "velocity": 51, "subtype": "noteOn" }, { "deltaTime": 24, "channel": 9, "type": "channel", "subtype": "noteOff", "noteNumber": 35, "velocity": 64 }, { "deltaTime": 0, "channel": 9, "type": "channel", "subtype": "noteOff", "noteNumber": 42, "velocity": 64 }, { "deltaTime": 0, "channel": 9, "type": "channel", "subtype": "noteOff", "noteNumber": 70, "velocity": 64 }, { "deltaTime": 72, "channel": 9, "type": "channel", "noteNumber": 42, "velocity": 50, "subtype": "noteOn" }, { "deltaTime": 0, "channel": 9, "type": "channel", "noteNumber": 70, "velocity": 35, "subtype": "noteOn" }, { "deltaTime": 24, "channel": 9, "type": "channel", "subtype": "noteOff", "noteNumber": 42, "velocity": 64 }, { "deltaTime": 0, "channel": 9, "type": "channel", "subtype": "noteOff", "noteNumber": 70, "velocity": 64 }, { "deltaTime": 72, "channel": 9, "type": "channel", "noteNumber": 75, "velocity": 127, "subtype": "noteOn" }, { "deltaTime": 0, "channel": 9, "type": "channel", "noteNumber": 42, "velocity": 66, "subtype": "noteOn" }, { "deltaTime": 0, "channel": 9, "type": "channel", "noteNumber": 70, "velocity": 51, "subtype": "noteOn" }, { "deltaTime": 24, "channel": 9, "type": "channel", "subtype": "noteOff", "noteNumber": 75, "velocity": 64 }, { "deltaTime": 0, "channel": 9, "type": "channel", "subtype": "noteOff", "noteNumber": 42, "velocity": 64 }, { "deltaTime": 0, "channel": 9, "type": "channel", "subtype": "noteOff", "noteNumber": 70, "velocity": 64 }, { "deltaTime": 72, "channel": 9, "type": "channel", "noteNumber": 42, "velocity": 50, "subtype": "noteOn" }, { "deltaTime": 0, "channel": 9, "type": "channel", "noteNumber": 70, "velocity": 35, "subtype": "noteOn" }, { "deltaTime": 24, "channel": 9, "type": "channel", "subtype": "noteOff", "noteNumber": 42, "velocity": 64 }, { "deltaTime": 0, "channel": 9, "type": "channel", "subtype": "noteOff", "noteNumber": 70, "velocity": 64 }, { "deltaTime": 72, "channel": 9, "type": "channel", "noteNumber": 35, "velocity": 80, "subtype": "noteOn" }, { "deltaTime": 0, "channel": 9, "type": "channel", "noteNumber": 42, "velocity": 66, "subtype": "noteOn" }, { "deltaTime": 0, "channel": 9, "type": "channel", "noteNumber": 70, "velocity": 51, "subtype": "noteOn" }, { "deltaTime": 24, "channel": 9, "type": "channel", "subtype": "noteOff", "noteNumber": 35, "velocity": 64 }, { "deltaTime": 0, "channel": 9, "type": "channel", "subtype": "noteOff", "noteNumber": 42, "velocity": 64 }, { "deltaTime": 0, "channel": 9, "type": "channel", "subtype": "noteOff", "noteNumber": 70, "velocity": 64 }, { "deltaTime": 72, "channel": 9, "type": "channel", "noteNumber": 42, "velocity": 50, "subtype": "noteOn" }, { "deltaTime": 0, "channel": 9, "type": "channel", "noteNumber": 70, "velocity": 35, "subtype": "noteOn" }, { "deltaTime": 24, "channel": 9, "type": "channel", "subtype": "noteOff", "noteNumber": 42, "velocity": 64 }, { "deltaTime": 0, "channel": 9, "type": "channel", "subtype": "noteOff", "noteNumber": 70, "velocity": 64 }, { "deltaTime": 72, "channel": 9, "type": "channel", "noteNumber": 75, "velocity": 127, "subtype": "noteOn" }, { "deltaTime": 0, "channel": 9, "type": "channel", "noteNumber": 42, "velocity": 66, "subtype": "noteOn" }, { "deltaTime": 0, "channel": 9, "type": "channel", "noteNumber": 70, "velocity": 51, "subtype": "noteOn" }, { "deltaTime": 24, "channel": 9, "type": "channel", "subtype": "noteOff", "noteNumber": 75, "velocity": 64 }, { "deltaTime": 0, "channel": 9, "type": "channel", "subtype": "noteOff", "noteNumber": 42, "velocity": 64 }, { "deltaTime": 0, "channel": 9, "type": "channel", "subtype": "noteOff", "noteNumber": 70, "velocity": 64 }, { "deltaTime": 72, "channel": 9, "type": "channel", "noteNumber": 35, "velocity": 80, "subtype": "noteOn" }, { "deltaTime": 0, "channel": 9, "type": "channel", "noteNumber": 42, "velocity": 50, "subtype": "noteOn" }, { "deltaTime": 0, "channel": 9, "type": "channel", "noteNumber": 70, "velocity": 35, "subtype": "noteOn" }, { "deltaTime": 24, "channel": 9, "type": "channel", "subtype": "noteOff", "noteNumber": 35, "velocity": 64 }, { "deltaTime": 0, "channel": 9, "type": "channel", "subtype": "noteOff", "noteNumber": 42, "velocity": 64 }, { "deltaTime": 0, "channel": 9, "type": "channel", "subtype": "noteOff", "noteNumber": 70, "velocity": 64 }, { "deltaTime": 72, "channel": 9, "type": "channel", "noteNumber": 35, "velocity": 80, "subtype": "noteOn" }, { "deltaTime": 0, "channel": 9, "type": "channel", "noteNumber": 42, "velocity": 66, "subtype": "noteOn" }, { "deltaTime": 0, "channel": 9, "type": "channel", "noteNumber": 70, "velocity": 51, "subtype": "noteOn" }, { "deltaTime": 24, "channel": 9, "type": "channel", "subtype": "noteOff", "noteNumber": 35, "velocity": 64 }, { "deltaTime": 0, "channel": 9, "type": "channel", "subtype": "noteOff", "noteNumber": 42, "velocity": 64 }, { "deltaTime": 0, "channel": 9, "type": "channel", "subtype": "noteOff", "noteNumber": 70, "velocity": 64 }, { "deltaTime": 72, "channel": 9, "type": "channel", "noteNumber": 42, "velocity": 50, "subtype": "noteOn" }, { "deltaTime": 0, "channel": 9, "type": "channel", "noteNumber": 70, "velocity": 35, "subtype": "noteOn" }, { "deltaTime": 24, "channel": 9, "type": "channel", "subtype": "noteOff", "noteNumber": 42, "velocity": 64 }, { "deltaTime": 0, "channel": 9, "type": "channel", "subtype": "noteOff", "noteNumber": 70, "velocity": 64 }, { "deltaTime": 72, "channel": 9, "type": "channel", "noteNumber": 75, "velocity": 127, "subtype": "noteOn" }, { "deltaTime": 0, "channel": 9, "type": "channel", "noteNumber": 42, "velocity": 66, "subtype": "noteOn" }, { "deltaTime": 0, "channel": 9, "type": "channel", "noteNumber": 70, "velocity": 51, "subtype": "noteOn" }, { "deltaTime": 24, "channel": 9, "type": "channel", "subtype": "noteOff", "noteNumber": 75, "velocity": 64 }, { "deltaTime": 0, "channel": 9, "type": "channel", "subtype": "noteOff", "noteNumber": 42, "velocity": 64 }, { "deltaTime": 0, "channel": 9, "type": "channel", "subtype": "noteOff", "noteNumber": 70, "velocity": 64 }, { "deltaTime": 72, "channel": 9, "type": "channel", "noteNumber": 42, "velocity": 50, "subtype": "noteOn" }, { "deltaTime": 0, "channel": 9, "type": "channel", "noteNumber": 70, "velocity": 35, "subtype": "noteOn" }, { "deltaTime": 24, "channel": 9, "type": "channel", "subtype": "noteOff", "noteNumber": 42, "velocity": 64 }, { "deltaTime": 0, "channel": 9, "type": "channel", "subtype": "noteOff", "noteNumber": 70, "velocity": 64 }, { "deltaTime": 72, "channel": 9, "type": "channel", "noteNumber": 35, "velocity": 80, "subtype": "noteOn" }, { "deltaTime": 0, "channel": 9, "type": "channel", "noteNumber": 42, "velocity": 66, "subtype": "noteOn" }, { "deltaTime": 0, "channel": 9, "type": "channel", "noteNumber": 70, "velocity": 51, "subtype": "noteOn" }, { "deltaTime": 24, "channel": 9, "type": "channel", "subtype": "noteOff", "noteNumber": 35, "velocity": 64 }, { "deltaTime": 0, "channel": 9, "type": "channel", "subtype": "noteOff", "noteNumber": 42, "velocity": 64 }, { "deltaTime": 0, "channel": 9, "type": "channel", "subtype": "noteOff", "noteNumber": 70, "velocity": 64 }, { "deltaTime": 72, "channel": 9, "type": "channel", "noteNumber": 42, "velocity": 50, "subtype": "noteOn" }, { "deltaTime": 0, "channel": 9, "type": "channel", "noteNumber": 70, "velocity": 35, "subtype": "noteOn" }, { "deltaTime": 24, "channel": 9, "type": "channel", "subtype": "noteOff", "noteNumber": 42, "velocity": 64 }, { "deltaTime": 0, "channel": 9, "type": "channel", "subtype": "noteOff", "noteNumber": 70, "velocity": 64 }, { "deltaTime": 72, "channel": 9, "type": "channel", "noteNumber": 75, "velocity": 127, "subtype": "noteOn" }, { "deltaTime": 0, "channel": 9, "type": "channel", "noteNumber": 42, "velocity": 66, "subtype": "noteOn" }, { "deltaTime": 0, "channel": 9, "type": "channel", "noteNumber": 70, "velocity": 51, "subtype": "noteOn" }, { "deltaTime": 24, "channel": 9, "type": "channel", "subtype": "noteOff", "noteNumber": 75, "velocity": 64 }, { "deltaTime": 0, "channel": 9, "type": "channel", "subtype": "noteOff", "noteNumber": 42, "velocity": 64 }, { "deltaTime": 0, "channel": 9, "type": "channel", "subtype": "noteOff", "noteNumber": 70, "velocity": 64 }, { "deltaTime": 72, "channel": 9, "type": "channel", "noteNumber": 35, "velocity": 80, "subtype": "noteOn" }, { "deltaTime": 0, "channel": 9, "type": "channel", "noteNumber": 42, "velocity": 50, "subtype": "noteOn" }, { "deltaTime": 0, "channel": 9, "type": "channel", "noteNumber": 70, "velocity": 35, "subtype": "noteOn" }, { "deltaTime": 24, "channel": 9, "type": "channel", "subtype": "noteOff", "noteNumber": 35, "velocity": 64 }, { "deltaTime": 0, "channel": 9, "type": "channel", "subtype": "noteOff", "noteNumber": 42, "velocity": 64 }, { "deltaTime": 0, "channel": 9, "type": "channel", "subtype": "noteOff", "noteNumber": 70, "velocity": 64 }, { "deltaTime": 72, "channel": 9, "type": "channel", "noteNumber": 35, "velocity": 80, "subtype": "noteOn" }, { "deltaTime": 0, "channel": 9, "type": "channel", "noteNumber": 42, "velocity": 66, "subtype": "noteOn" }, { "deltaTime": 0, "channel": 9, "type": "channel", "noteNumber": 70, "velocity": 51, "subtype": "noteOn" }, { "deltaTime": 24, "channel": 9, "type": "channel", "subtype": "noteOff", "noteNumber": 35, "velocity": 64 }, { "deltaTime": 0, "channel": 9, "type": "channel", "subtype": "noteOff", "noteNumber": 42, "velocity": 64 }, { "deltaTime": 0, "channel": 9, "type": "channel", "subtype": "noteOff", "noteNumber": 70, "velocity": 64 }, { "deltaTime": 72, "channel": 9, "type": "channel", "noteNumber": 42, "velocity": 50, "subtype": "noteOn" }, { "deltaTime": 0, "channel": 9, "type": "channel", "noteNumber": 70, "velocity": 35, "subtype": "noteOn" }, { "deltaTime": 24, "channel": 9, "type": "channel", "subtype": "noteOff", "noteNumber": 42, "velocity": 64 }, { "deltaTime": 0, "channel": 9, "type": "channel", "subtype": "noteOff", "noteNumber": 70, "velocity": 64 }, { "deltaTime": 72, "channel": 9, "type": "channel", "noteNumber": 75, "velocity": 127, "subtype": "noteOn" }, { "deltaTime": 0, "channel": 9, "type": "channel", "noteNumber": 42, "velocity": 66, "subtype": "noteOn" }, { "deltaTime": 0, "channel": 9, "type": "channel", "noteNumber": 70, "velocity": 51, "subtype": "noteOn" }, { "deltaTime": 24, "channel": 9, "type": "channel", "subtype": "noteOff", "noteNumber": 75, "velocity": 64 }, { "deltaTime": 0, "channel": 9, "type": "channel", "subtype": "noteOff", "noteNumber": 42, "velocity": 64 }, { "deltaTime": 0, "channel": 9, "type": "channel", "subtype": "noteOff", "noteNumber": 70, "velocity": 64 }, { "deltaTime": 72, "channel": 9, "type": "channel", "noteNumber": 42, "velocity": 50, "subtype": "noteOn" }, { "deltaTime": 0, "channel": 9, "type": "channel", "noteNumber": 70, "velocity": 35, "subtype": "noteOn" }, { "deltaTime": 24, "channel": 9, "type": "channel", "subtype": "noteOff", "noteNumber": 42, "velocity": 64 }, { "deltaTime": 0, "channel": 9, "type": "channel", "subtype": "noteOff", "noteNumber": 70, "velocity": 64 }, { "deltaTime": 72, "channel": 9, "type": "channel", "noteNumber": 35, "velocity": 80, "subtype": "noteOn" }, { "deltaTime": 0, "channel": 9, "type": "channel", "noteNumber": 42, "velocity": 66, "subtype": "noteOn" }, { "deltaTime": 0, "channel": 9, "type": "channel", "noteNumber": 70, "velocity": 51, "subtype": "noteOn" }, { "deltaTime": 24, "channel": 9, "type": "channel", "subtype": "noteOff", "noteNumber": 35, "velocity": 64 }, { "deltaTime": 0, "channel": 9, "type": "channel", "subtype": "noteOff", "noteNumber": 42, "velocity": 64 }, { "deltaTime": 0, "channel": 9, "type": "channel", "subtype": "noteOff", "noteNumber": 70, "velocity": 64 }, { "deltaTime": 72, "channel": 9, "type": "channel", "noteNumber": 42, "velocity": 50, "subtype": "noteOn" }, { "deltaTime": 0, "channel": 9, "type": "channel", "noteNumber": 70, "velocity": 35, "subtype": "noteOn" }, { "deltaTime": 24, "channel": 9, "type": "channel", "subtype": "noteOff", "noteNumber": 42, "velocity": 64 }, { "deltaTime": 0, "channel": 9, "type": "channel", "subtype": "noteOff", "noteNumber": 70, "velocity": 64 }, { "deltaTime": 72, "channel": 9, "type": "channel", "noteNumber": 75, "velocity": 127, "subtype": "noteOn" }, { "deltaTime": 0, "channel": 9, "type": "channel", "noteNumber": 42, "velocity": 66, "subtype": "noteOn" }, { "deltaTime": 0, "channel": 9, "type": "channel", "noteNumber": 70, "velocity": 51, "subtype": "noteOn" }, { "deltaTime": 24, "channel": 9, "type": "channel", "subtype": "noteOff", "noteNumber": 75, "velocity": 64 }, { "deltaTime": 0, "channel": 9, "type": "channel", "subtype": "noteOff", "noteNumber": 42, "velocity": 64 }, { "deltaTime": 0, "channel": 9, "type": "channel", "subtype": "noteOff", "noteNumber": 70, "velocity": 64 }, { "deltaTime": 72, "channel": 9, "type": "channel", "noteNumber": 35, "velocity": 80, "subtype": "noteOn" }, { "deltaTime": 0, "channel": 9, "type": "channel", "noteNumber": 42, "velocity": 50, "subtype": "noteOn" }, { "deltaTime": 0, "channel": 9, "type": "channel", "noteNumber": 70, "velocity": 35, "subtype": "noteOn" }, { "deltaTime": 24, "channel": 9, "type": "channel", "subtype": "noteOff", "noteNumber": 35, "velocity": 64 }, { "deltaTime": 0, "channel": 9, "type": "channel", "subtype": "noteOff", "noteNumber": 42, "velocity": 64 }, { "deltaTime": 0, "channel": 9, "type": "channel", "subtype": "noteOff", "noteNumber": 70, "velocity": 64 }, { "deltaTime": 72, "channel": 9, "type": "channel", "noteNumber": 35, "velocity": 80, "subtype": "noteOn" }, { "deltaTime": 0, "channel": 9, "type": "channel", "noteNumber": 42, "velocity": 66, "subtype": "noteOn" }, { "deltaTime": 0, "channel": 9, "type": "channel", "noteNumber": 70, "velocity": 51, "subtype": "noteOn" }, { "deltaTime": 24, "channel": 9, "type": "channel", "subtype": "noteOff", "noteNumber": 35, "velocity": 64 }, { "deltaTime": 0, "channel": 9, "type": "channel", "subtype": "noteOff", "noteNumber": 42, "velocity": 64 }, { "deltaTime": 0, "channel": 9, "type": "channel", "subtype": "noteOff", "noteNumber": 70, "velocity": 64 }, { "deltaTime": 72, "channel": 9, "type": "channel", "noteNumber": 42, "velocity": 50, "subtype": "noteOn" }, { "deltaTime": 0, "channel": 9, "type": "channel", "noteNumber": 70, "velocity": 35, "subtype": "noteOn" }, { "deltaTime": 24, "channel": 9, "type": "channel", "subtype": "noteOff", "noteNumber": 42, "velocity": 64 }, { "deltaTime": 0, "channel": 9, "type": "channel", "subtype": "noteOff", "noteNumber": 70, "velocity": 64 }, { "deltaTime": 72, "channel": 9, "type": "channel", "noteNumber": 75, "velocity": 127, "subtype": "noteOn" }, { "deltaTime": 0, "channel": 9, "type": "channel", "noteNumber": 42, "velocity": 66, "subtype": "noteOn" }, { "deltaTime": 0, "channel": 9, "type": "channel", "noteNumber": 70, "velocity": 51, "subtype": "noteOn" }, { "deltaTime": 24, "channel": 9, "type": "channel", "subtype": "noteOff", "noteNumber": 75, "velocity": 64 }, { "deltaTime": 0, "channel": 9, "type": "channel", "subtype": "noteOff", "noteNumber": 42, "velocity": 64 }, { "deltaTime": 0, "channel": 9, "type": "channel", "subtype": "noteOff", "noteNumber": 70, "velocity": 64 }, { "deltaTime": 72, "channel": 9, "type": "channel", "noteNumber": 42, "velocity": 50, "subtype": "noteOn" }, { "deltaTime": 0, "channel": 9, "type": "channel", "noteNumber": 70, "velocity": 35, "subtype": "noteOn" }, { "deltaTime": 24, "channel": 9, "type": "channel", "subtype": "noteOff", "noteNumber": 42, "velocity": 64 }, { "deltaTime": 0, "channel": 9, "type": "channel", "subtype": "noteOff", "noteNumber": 70, "velocity": 64 }, { "deltaTime": 72, "channel": 9, "type": "channel", "noteNumber": 35, "velocity": 80, "subtype": "noteOn" }, { "deltaTime": 0, "channel": 9, "type": "channel", "noteNumber": 42, "velocity": 66, "subtype": "noteOn" }, { "deltaTime": 0, "channel": 9, "type": "channel", "noteNumber": 70, "velocity": 51, "subtype": "noteOn" }, { "deltaTime": 24, "channel": 9, "type": "channel", "subtype": "noteOff", "noteNumber": 35, "velocity": 64 }, { "deltaTime": 0, "channel": 9, "type": "channel", "subtype": "noteOff", "noteNumber": 42, "velocity": 64 }, { "deltaTime": 0, "channel": 9, "type": "channel", "subtype": "noteOff", "noteNumber": 70, "velocity": 64 }, { "deltaTime": 72, "channel": 9, "type": "channel", "noteNumber": 42, "velocity": 50, "subtype": "noteOn" }, { "deltaTime": 0, "channel": 9, "type": "channel", "noteNumber": 70, "velocity": 35, "subtype": "noteOn" }, { "deltaTime": 24, "channel": 9, "type": "channel", "subtype": "noteOff", "noteNumber": 42, "velocity": 64 }, { "deltaTime": 0, "channel": 9, "type": "channel", "subtype": "noteOff", "noteNumber": 70, "velocity": 64 }, { "deltaTime": 72, "channel": 9, "type": "channel", "noteNumber": 75, "velocity": 127, "subtype": "noteOn" }, { "deltaTime": 0, "channel": 9, "type": "channel", "noteNumber": 42, "velocity": 66, "subtype": "noteOn" }, { "deltaTime": 0, "channel": 9, "type": "channel", "noteNumber": 70, "velocity": 51, "subtype": "noteOn" }, { "deltaTime": 24, "channel": 9, "type": "channel", "subtype": "noteOff", "noteNumber": 75, "velocity": 64 }, { "deltaTime": 0, "channel": 9, "type": "channel", "subtype": "noteOff", "noteNumber": 42, "velocity": 64 }, { "deltaTime": 0, "channel": 9, "type": "channel", "subtype": "noteOff", "noteNumber": 70, "velocity": 64 }, { "deltaTime": 72, "channel": 9, "type": "channel", "noteNumber": 35, "velocity": 80, "subtype": "noteOn" }, { "deltaTime": 0, "channel": 9, "type": "channel", "noteNumber": 42, "velocity": 50, "subtype": "noteOn" }, { "deltaTime": 0, "channel": 9, "type": "channel", "noteNumber": 70, "velocity": 35, "subtype": "noteOn" }, { "deltaTime": 24, "channel": 9, "type": "channel", "subtype": "noteOff", "noteNumber": 35, "velocity": 64 }, { "deltaTime": 0, "channel": 9, "type": "channel", "subtype": "noteOff", "noteNumber": 42, "velocity": 64 }, { "deltaTime": 0, "channel": 9, "type": "channel", "subtype": "noteOff", "noteNumber": 70, "velocity": 64 }, { "deltaTime": 72, "channel": 9, "type": "channel", "noteNumber": 35, "velocity": 80, "subtype": "noteOn" }, { "deltaTime": 0, "channel": 9, "type": "channel", "noteNumber": 42, "velocity": 66, "subtype": "noteOn" }, { "deltaTime": 0, "channel": 9, "type": "channel", "noteNumber": 70, "velocity": 51, "subtype": "noteOn" }, { "deltaTime": 24, "channel": 9, "type": "channel", "subtype": "noteOff", "noteNumber": 35, "velocity": 64 }, { "deltaTime": 0, "channel": 9, "type": "channel", "subtype": "noteOff", "noteNumber": 42, "velocity": 64 }, { "deltaTime": 0, "channel": 9, "type": "channel", "subtype": "noteOff", "noteNumber": 70, "velocity": 64 }, { "deltaTime": 72, "channel": 9, "type": "channel", "noteNumber": 42, "velocity": 50, "subtype": "noteOn" }, { "deltaTime": 0, "channel": 9, "type": "channel", "noteNumber": 70, "velocity": 35, "subtype": "noteOn" }, { "deltaTime": 24, "channel": 9, "type": "channel", "subtype": "noteOff", "noteNumber": 42, "velocity": 64 }, { "deltaTime": 0, "channel": 9, "type": "channel", "subtype": "noteOff", "noteNumber": 70, "velocity": 64 }, { "deltaTime": 72, "channel": 9, "type": "channel", "noteNumber": 75, "velocity": 127, "subtype": "noteOn" }, { "deltaTime": 0, "channel": 9, "type": "channel", "noteNumber": 42, "velocity": 66, "subtype": "noteOn" }, { "deltaTime": 0, "channel": 9, "type": "channel", "noteNumber": 70, "velocity": 51, "subtype": "noteOn" }, { "deltaTime": 24, "channel": 9, "type": "channel", "subtype": "noteOff", "noteNumber": 75, "velocity": 64 }, { "deltaTime": 0, "channel": 9, "type": "channel", "subtype": "noteOff", "noteNumber": 42, "velocity": 64 }, { "deltaTime": 0, "channel": 9, "type": "channel", "subtype": "noteOff", "noteNumber": 70, "velocity": 64 }, { "deltaTime": 72, "channel": 9, "type": "channel", "noteNumber": 42, "velocity": 50, "subtype": "noteOn" }, { "deltaTime": 0, "channel": 9, "type": "channel", "noteNumber": 70, "velocity": 35, "subtype": "noteOn" }, { "deltaTime": 24, "channel": 9, "type": "channel", "subtype": "noteOff", "noteNumber": 42, "velocity": 64 }, { "deltaTime": 0, "channel": 9, "type": "channel", "subtype": "noteOff", "noteNumber": 70, "velocity": 64 }, { "deltaTime": 72, "channel": 9, "type": "channel", "noteNumber": 35, "velocity": 80, "subtype": "noteOn" }, { "deltaTime": 0, "channel": 9, "type": "channel", "noteNumber": 42, "velocity": 66, "subtype": "noteOn" }, { "deltaTime": 0, "channel": 9, "type": "channel", "noteNumber": 70, "velocity": 51, "subtype": "noteOn" }, { "deltaTime": 24, "channel": 9, "type": "channel", "subtype": "noteOff", "noteNumber": 35, "velocity": 64 }, { "deltaTime": 0, "channel": 9, "type": "channel", "subtype": "noteOff", "noteNumber": 42, "velocity": 64 }, { "deltaTime": 0, "channel": 9, "type": "channel", "subtype": "noteOff", "noteNumber": 70, "velocity": 64 }, { "deltaTime": 72, "channel": 9, "type": "channel", "noteNumber": 42, "velocity": 50, "subtype": "noteOn" }, { "deltaTime": 0, "channel": 9, "type": "channel", "noteNumber": 70, "velocity": 35, "subtype": "noteOn" }, { "deltaTime": 24, "channel": 9, "type": "channel", "subtype": "noteOff", "noteNumber": 42, "velocity": 64 }, { "deltaTime": 0, "channel": 9, "type": "channel", "subtype": "noteOff", "noteNumber": 70, "velocity": 64 }, { "deltaTime": 72, "channel": 9, "type": "channel", "noteNumber": 75, "velocity": 127, "subtype": "noteOn" }, { "deltaTime": 0, "channel": 9, "type": "channel", "noteNumber": 42, "velocity": 66, "subtype": "noteOn" }, { "deltaTime": 0, "channel": 9, "type": "channel", "noteNumber": 70, "velocity": 51, "subtype": "noteOn" }, { "deltaTime": 24, "channel": 9, "type": "channel", "subtype": "noteOff", "noteNumber": 75, "velocity": 64 }, { "deltaTime": 0, "channel": 9, "type": "channel", "subtype": "noteOff", "noteNumber": 42, "velocity": 64 }, { "deltaTime": 0, "channel": 9, "type": "channel", "subtype": "noteOff", "noteNumber": 70, "velocity": 64 }, { "deltaTime": 72, "channel": 9, "type": "channel", "noteNumber": 35, "velocity": 80, "subtype": "noteOn" }, { "deltaTime": 0, "channel": 9, "type": "channel", "noteNumber": 42, "velocity": 50, "subtype": "noteOn" }, { "deltaTime": 0, "channel": 9, "type": "channel", "noteNumber": 70, "velocity": 35, "subtype": "noteOn" }, { "deltaTime": 24, "channel": 9, "type": "channel", "subtype": "noteOff", "noteNumber": 35, "velocity": 64 }, { "deltaTime": 0, "channel": 9, "type": "channel", "subtype": "noteOff", "noteNumber": 42, "velocity": 64 }, { "deltaTime": 0, "channel": 9, "type": "channel", "subtype": "noteOff", "noteNumber": 70, "velocity": 64 }, { "deltaTime": 72, "channel": 9, "type": "channel", "noteNumber": 35, "velocity": 80, "subtype": "noteOn" }, { "deltaTime": 0, "channel": 9, "type": "channel", "noteNumber": 42, "velocity": 66, "subtype": "noteOn" }, { "deltaTime": 0, "channel": 9, "type": "channel", "noteNumber": 70, "velocity": 51, "subtype": "noteOn" }, { "deltaTime": 24, "channel": 9, "type": "channel", "subtype": "noteOff", "noteNumber": 35, "velocity": 64 }, { "deltaTime": 0, "channel": 9, "type": "channel", "subtype": "noteOff", "noteNumber": 42, "velocity": 64 }, { "deltaTime": 0, "channel": 9, "type": "channel", "subtype": "noteOff", "noteNumber": 70, "velocity": 64 }, { "deltaTime": 72, "channel": 9, "type": "channel", "noteNumber": 42, "velocity": 50, "subtype": "noteOn" }, { "deltaTime": 0, "channel": 9, "type": "channel", "noteNumber": 70, "velocity": 35, "subtype": "noteOn" }, { "deltaTime": 24, "channel": 9, "type": "channel", "subtype": "noteOff", "noteNumber": 42, "velocity": 64 }, { "deltaTime": 0, "channel": 9, "type": "channel", "subtype": "noteOff", "noteNumber": 70, "velocity": 64 }, { "deltaTime": 72, "channel": 9, "type": "channel", "noteNumber": 75, "velocity": 127, "subtype": "noteOn" }, { "deltaTime": 0, "channel": 9, "type": "channel", "noteNumber": 42, "velocity": 66, "subtype": "noteOn" }, { "deltaTime": 0, "channel": 9, "type": "channel", "noteNumber": 70, "velocity": 51, "subtype": "noteOn" }, { "deltaTime": 24, "channel": 9, "type": "channel", "subtype": "noteOff", "noteNumber": 75, "velocity": 64 }, { "deltaTime": 0, "channel": 9, "type": "channel", "subtype": "noteOff", "noteNumber": 42, "velocity": 64 }, { "deltaTime": 0, "channel": 9, "type": "channel", "subtype": "noteOff", "noteNumber": 70, "velocity": 64 }, { "deltaTime": 72, "channel": 9, "type": "channel", "noteNumber": 42, "velocity": 50, "subtype": "noteOn" }, { "deltaTime": 0, "channel": 9, "type": "channel", "noteNumber": 70, "velocity": 35, "subtype": "noteOn" }, { "deltaTime": 24, "channel": 9, "type": "channel", "subtype": "noteOff", "noteNumber": 42, "velocity": 64 }, { "deltaTime": 0, "channel": 9, "type": "channel", "subtype": "noteOff", "noteNumber": 70, "velocity": 64 }, { "deltaTime": 72, "channel": 9, "type": "channel", "noteNumber": 35, "velocity": 80, "subtype": "noteOn" }, { "deltaTime": 0, "channel": 9, "type": "channel", "noteNumber": 42, "velocity": 66, "subtype": "noteOn" }, { "deltaTime": 0, "channel": 9, "type": "channel", "noteNumber": 70, "velocity": 51, "subtype": "noteOn" }, { "deltaTime": 24, "channel": 9, "type": "channel", "subtype": "noteOff", "noteNumber": 35, "velocity": 64 }, { "deltaTime": 0, "channel": 9, "type": "channel", "subtype": "noteOff", "noteNumber": 42, "velocity": 64 }, { "deltaTime": 0, "channel": 9, "type": "channel", "subtype": "noteOff", "noteNumber": 70, "velocity": 64 }, { "deltaTime": 72, "channel": 9, "type": "channel", "noteNumber": 42, "velocity": 50, "subtype": "noteOn" }, { "deltaTime": 0, "channel": 9, "type": "channel", "noteNumber": 70, "velocity": 35, "subtype": "noteOn" }, { "deltaTime": 24, "channel": 9, "type": "channel", "subtype": "noteOff", "noteNumber": 42, "velocity": 64 }, { "deltaTime": 0, "channel": 9, "type": "channel", "subtype": "noteOff", "noteNumber": 70, "velocity": 64 }, { "deltaTime": 72, "channel": 9, "type": "channel", "noteNumber": 75, "velocity": 127, "subtype": "noteOn" }, { "deltaTime": 0, "channel": 9, "type": "channel", "noteNumber": 42, "velocity": 66, "subtype": "noteOn" }, { "deltaTime": 0, "channel": 9, "type": "channel", "noteNumber": 70, "velocity": 51, "subtype": "noteOn" }, { "deltaTime": 24, "channel": 9, "type": "channel", "subtype": "noteOff", "noteNumber": 75, "velocity": 64 }, { "deltaTime": 0, "channel": 9, "type": "channel", "subtype": "noteOff", "noteNumber": 42, "velocity": 64 }, { "deltaTime": 0, "channel": 9, "type": "channel", "subtype": "noteOff", "noteNumber": 70, "velocity": 64 }, { "deltaTime": 72, "channel": 9, "type": "channel", "noteNumber": 35, "velocity": 80, "subtype": "noteOn" }, { "deltaTime": 0, "channel": 9, "type": "channel", "noteNumber": 42, "velocity": 50, "subtype": "noteOn" }, { "deltaTime": 0, "channel": 9, "type": "channel", "noteNumber": 70, "velocity": 35, "subtype": "noteOn" }, { "deltaTime": 24, "channel": 9, "type": "channel", "subtype": "noteOff", "noteNumber": 35, "velocity": 64 }, { "deltaTime": 0, "channel": 9, "type": "channel", "subtype": "noteOff", "noteNumber": 42, "velocity": 64 }, { "deltaTime": 0, "channel": 9, "type": "channel", "subtype": "noteOff", "noteNumber": 70, "velocity": 64 }, { "deltaTime": 72, "channel": 9, "type": "channel", "noteNumber": 35, "velocity": 80, "subtype": "noteOn" }, { "deltaTime": 0, "channel": 9, "type": "channel", "noteNumber": 42, "velocity": 66, "subtype": "noteOn" }, { "deltaTime": 0, "channel": 9, "type": "channel", "noteNumber": 70, "velocity": 51, "subtype": "noteOn" }, { "deltaTime": 24, "channel": 9, "type": "channel", "subtype": "noteOff", "noteNumber": 35, "velocity": 64 }, { "deltaTime": 0, "channel": 9, "type": "channel", "subtype": "noteOff", "noteNumber": 42, "velocity": 64 }, { "deltaTime": 0, "channel": 9, "type": "channel", "subtype": "noteOff", "noteNumber": 70, "velocity": 64 }, { "deltaTime": 72, "channel": 9, "type": "channel", "noteNumber": 42, "velocity": 50, "subtype": "noteOn" }, { "deltaTime": 0, "channel": 9, "type": "channel", "noteNumber": 70, "velocity": 35, "subtype": "noteOn" }, { "deltaTime": 24, "channel": 9, "type": "channel", "subtype": "noteOff", "noteNumber": 42, "velocity": 64 }, { "deltaTime": 0, "channel": 9, "type": "channel", "subtype": "noteOff", "noteNumber": 70, "velocity": 64 }, { "deltaTime": 72, "channel": 9, "type": "channel", "noteNumber": 75, "velocity": 127, "subtype": "noteOn" }, { "deltaTime": 0, "channel": 9, "type": "channel", "noteNumber": 42, "velocity": 66, "subtype": "noteOn" }, { "deltaTime": 0, "channel": 9, "type": "channel", "noteNumber": 70, "velocity": 51, "subtype": "noteOn" }, { "deltaTime": 24, "channel": 9, "type": "channel", "subtype": "noteOff", "noteNumber": 75, "velocity": 64 }, { "deltaTime": 0, "channel": 9, "type": "channel", "subtype": "noteOff", "noteNumber": 42, "velocity": 64 }, { "deltaTime": 0, "channel": 9, "type": "channel", "subtype": "noteOff", "noteNumber": 70, "velocity": 64 }, { "deltaTime": 72, "channel": 9, "type": "channel", "noteNumber": 42, "velocity": 50, "subtype": "noteOn" }, { "deltaTime": 0, "channel": 9, "type": "channel", "noteNumber": 70, "velocity": 35, "subtype": "noteOn" }, { "deltaTime": 24, "channel": 9, "type": "channel", "subtype": "noteOff", "noteNumber": 42, "velocity": 64 }, { "deltaTime": 0, "channel": 9, "type": "channel", "subtype": "noteOff", "noteNumber": 70, "velocity": 64 }, { "deltaTime": 72, "channel": 9, "type": "channel", "noteNumber": 35, "velocity": 80, "subtype": "noteOn" }, { "deltaTime": 0, "channel": 9, "type": "channel", "noteNumber": 42, "velocity": 66, "subtype": "noteOn" }, { "deltaTime": 0, "channel": 9, "type": "channel", "noteNumber": 70, "velocity": 51, "subtype": "noteOn" }, { "deltaTime": 24, "channel": 9, "type": "channel", "subtype": "noteOff", "noteNumber": 35, "velocity": 64 }, { "deltaTime": 0, "channel": 9, "type": "channel", "subtype": "noteOff", "noteNumber": 42, "velocity": 64 }, { "deltaTime": 0, "channel": 9, "type": "channel", "subtype": "noteOff", "noteNumber": 70, "velocity": 64 }, { "deltaTime": 72, "channel": 9, "type": "channel", "noteNumber": 42, "velocity": 50, "subtype": "noteOn" }, { "deltaTime": 0, "channel": 9, "type": "channel", "noteNumber": 70, "velocity": 35, "subtype": "noteOn" }, { "deltaTime": 24, "channel": 9, "type": "channel", "subtype": "noteOff", "noteNumber": 42, "velocity": 64 }, { "deltaTime": 0, "channel": 9, "type": "channel", "subtype": "noteOff", "noteNumber": 70, "velocity": 64 }, { "deltaTime": 72, "channel": 9, "type": "channel", "noteNumber": 75, "velocity": 127, "subtype": "noteOn" }, { "deltaTime": 0, "channel": 9, "type": "channel", "noteNumber": 42, "velocity": 66, "subtype": "noteOn" }, { "deltaTime": 0, "channel": 9, "type": "channel", "noteNumber": 70, "velocity": 51, "subtype": "noteOn" }, { "deltaTime": 24, "channel": 9, "type": "channel", "subtype": "noteOff", "noteNumber": 75, "velocity": 64 }, { "deltaTime": 0, "channel": 9, "type": "channel", "subtype": "noteOff", "noteNumber": 42, "velocity": 64 }, { "deltaTime": 0, "channel": 9, "type": "channel", "subtype": "noteOff", "noteNumber": 70, "velocity": 64 }, { "deltaTime": 72, "channel": 9, "type": "channel", "noteNumber": 35, "velocity": 80, "subtype": "noteOn" }, { "deltaTime": 0, "channel": 9, "type": "channel", "noteNumber": 42, "velocity": 50, "subtype": "noteOn" }, { "deltaTime": 0, "channel": 9, "type": "channel", "noteNumber": 70, "velocity": 35, "subtype": "noteOn" }, { "deltaTime": 24, "channel": 9, "type": "channel", "subtype": "noteOff", "noteNumber": 35, "velocity": 64 }, { "deltaTime": 0, "channel": 9, "type": "channel", "subtype": "noteOff", "noteNumber": 42, "velocity": 64 }, { "deltaTime": 0, "channel": 9, "type": "channel", "subtype": "noteOff", "noteNumber": 70, "velocity": 64 }, { "deltaTime": 72, "channel": 9, "type": "channel", "noteNumber": 35, "velocity": 80, "subtype": "noteOn" }, { "deltaTime": 0, "channel": 9, "type": "channel", "noteNumber": 42, "velocity": 66, "subtype": "noteOn" }, { "deltaTime": 0, "channel": 9, "type": "channel", "noteNumber": 70, "velocity": 51, "subtype": "noteOn" }, { "deltaTime": 24, "channel": 9, "type": "channel", "subtype": "noteOff", "noteNumber": 35, "velocity": 64 }, { "deltaTime": 0, "channel": 9, "type": "channel", "subtype": "noteOff", "noteNumber": 42, "velocity": 64 }, { "deltaTime": 0, "channel": 9, "type": "channel", "subtype": "noteOff", "noteNumber": 70, "velocity": 64 }, { "deltaTime": 72, "channel": 9, "type": "channel", "noteNumber": 38, "velocity": 112, "subtype": "noteOn" }, { "deltaTime": 24, "channel": 9, "type": "channel", "subtype": "noteOff", "noteNumber": 38, "velocity": 64 }, { "deltaTime": 72, "channel": 9, "type": "channel", "noteNumber": 38, "velocity": 127, "subtype": "noteOn" }, { "deltaTime": 24, "channel": 9, "type": "channel", "subtype": "noteOff", "noteNumber": 38, "velocity": 64 }, { "deltaTime": 24, "channel": 9, "type": "channel", "noteNumber": 47, "velocity": 96, "subtype": "noteOn" }, { "deltaTime": 24, "channel": 9, "type": "channel", "subtype": "noteOff", "noteNumber": 47, "velocity": 64 }, { "deltaTime": 24, "channel": 9, "type": "channel", "noteNumber": 45, "velocity": 96, "subtype": "noteOn" }, { "deltaTime": 24, "channel": 9, "type": "channel", "subtype": "noteOff", "noteNumber": 45, "velocity": 64 }, { "deltaTime": 72, "channel": 9, "type": "channel", "noteNumber": 35, "velocity": 80, "subtype": "noteOn" }, { "deltaTime": 0, "channel": 9, "type": "channel", "noteNumber": 51, "velocity": 127, "subtype": "noteOn" }, { "deltaTime": 24, "channel": 9, "type": "channel", "subtype": "noteOff", "noteNumber": 35, "velocity": 64 }, { "deltaTime": 0, "channel": 9, "type": "channel", "subtype": "noteOff", "noteNumber": 51, "velocity": 64 }, { "deltaTime": 72, "channel": 9, "type": "channel", "noteNumber": 51, "velocity": 112, "subtype": "noteOn" }, { "deltaTime": 24, "channel": 9, "type": "channel", "subtype": "noteOff", "noteNumber": 51, "velocity": 64 }, { "deltaTime": 72, "channel": 9, "type": "channel", "noteNumber": 51, "velocity": 127, "subtype": "noteOn" }, { "deltaTime": 0, "channel": 9, "type": "channel", "noteNumber": 75, "velocity": 127, "subtype": "noteOn" }, { "deltaTime": 24, "channel": 9, "type": "channel", "subtype": "noteOff", "noteNumber": 51, "velocity": 64 }, { "deltaTime": 0, "channel": 9, "type": "channel", "subtype": "noteOff", "noteNumber": 75, "velocity": 64 }, { "deltaTime": 72, "channel": 9, "type": "channel", "noteNumber": 35, "velocity": 80, "subtype": "noteOn" }, { "deltaTime": 0, "channel": 9, "type": "channel", "noteNumber": 51, "velocity": 112, "subtype": "noteOn" }, { "deltaTime": 24, "channel": 9, "type": "channel", "subtype": "noteOff", "noteNumber": 35, "velocity": 64 }, { "deltaTime": 0, "channel": 9, "type": "channel", "subtype": "noteOff", "noteNumber": 51, "velocity": 64 }, { "deltaTime": 72, "channel": 9, "type": "channel", "noteNumber": 35, "velocity": 80, "subtype": "noteOn" }, { "deltaTime": 0, "channel": 9, "type": "channel", "noteNumber": 51, "velocity": 127, "subtype": "noteOn" }, { "deltaTime": 24, "channel": 9, "type": "channel", "subtype": "noteOff", "noteNumber": 35, "velocity": 64 }, { "deltaTime": 0, "channel": 9, "type": "channel", "subtype": "noteOff", "noteNumber": 51, "velocity": 64 }, { "deltaTime": 72, "channel": 9, "type": "channel", "noteNumber": 51, "velocity": 112, "subtype": "noteOn" }, { "deltaTime": 24, "channel": 9, "type": "channel", "subtype": "noteOff", "noteNumber": 51, "velocity": 64 }, { "deltaTime": 72, "channel": 9, "type": "channel", "noteNumber": 38, "velocity": 127, "subtype": "noteOn" }, { "deltaTime": 0, "channel": 9, "type": "channel", "noteNumber": 51, "velocity": 127, "subtype": "noteOn" }, { "deltaTime": 24, "channel": 9, "type": "channel", "subtype": "noteOff", "noteNumber": 38, "velocity": 64 }, { "deltaTime": 0, "channel": 9, "type": "channel", "subtype": "noteOff", "noteNumber": 51, "velocity": 64 }, { "deltaTime": 72, "channel": 9, "type": "channel", "noteNumber": 51, "velocity": 112, "subtype": "noteOn" }, { "deltaTime": 24, "channel": 9, "type": "channel", "subtype": "noteOff", "noteNumber": 51, "velocity": 64 }, { "deltaTime": 72, "channel": 9, "type": "channel", "noteNumber": 35, "velocity": 80, "subtype": "noteOn" }, { "deltaTime": 0, "channel": 9, "type": "channel", "noteNumber": 51, "velocity": 127, "subtype": "noteOn" }, { "deltaTime": 24, "channel": 9, "type": "channel", "subtype": "noteOff", "noteNumber": 35, "velocity": 64 }, { "deltaTime": 0, "channel": 9, "type": "channel", "subtype": "noteOff", "noteNumber": 51, "velocity": 64 }, { "deltaTime": 72, "channel": 9, "type": "channel", "noteNumber": 51, "velocity": 112, "subtype": "noteOn" }, { "deltaTime": 24, "channel": 9, "type": "channel", "subtype": "noteOff", "noteNumber": 51, "velocity": 64 }, { "deltaTime": 72, "channel": 9, "type": "channel", "noteNumber": 51, "velocity": 127, "subtype": "noteOn" }, { "deltaTime": 0, "channel": 9, "type": "channel", "noteNumber": 75, "velocity": 127, "subtype": "noteOn" }, { "deltaTime": 24, "channel": 9, "type": "channel", "subtype": "noteOff", "noteNumber": 51, "velocity": 64 }, { "deltaTime": 0, "channel": 9, "type": "channel", "subtype": "noteOff", "noteNumber": 75, "velocity": 64 }, { "deltaTime": 72, "channel": 9, "type": "channel", "noteNumber": 35, "velocity": 80, "subtype": "noteOn" }, { "deltaTime": 0, "channel": 9, "type": "channel", "noteNumber": 51, "velocity": 112, "subtype": "noteOn" }, { "deltaTime": 24, "channel": 9, "type": "channel", "subtype": "noteOff", "noteNumber": 35, "velocity": 64 }, { "deltaTime": 0, "channel": 9, "type": "channel", "subtype": "noteOff", "noteNumber": 51, "velocity": 64 }, { "deltaTime": 72, "channel": 9, "type": "channel", "noteNumber": 35, "velocity": 80, "subtype": "noteOn" }, { "deltaTime": 0, "channel": 9, "type": "channel", "noteNumber": 51, "velocity": 127, "subtype": "noteOn" }, { "deltaTime": 24, "channel": 9, "type": "channel", "subtype": "noteOff", "noteNumber": 35, "velocity": 64 }, { "deltaTime": 0, "channel": 9, "type": "channel", "subtype": "noteOff", "noteNumber": 51, "velocity": 64 }, { "deltaTime": 72, "channel": 9, "type": "channel", "noteNumber": 51, "velocity": 112, "subtype": "noteOn" }, { "deltaTime": 24, "channel": 9, "type": "channel", "subtype": "noteOff", "noteNumber": 51, "velocity": 64 }, { "deltaTime": 72, "channel": 9, "type": "channel", "noteNumber": 38, "velocity": 127, "subtype": "noteOn" }, { "deltaTime": 0, "channel": 9, "type": "channel", "noteNumber": 51, "velocity": 127, "subtype": "noteOn" }, { "deltaTime": 24, "channel": 9, "type": "channel", "subtype": "noteOff", "noteNumber": 38, "velocity": 64 }, { "deltaTime": 0, "channel": 9, "type": "channel", "subtype": "noteOff", "noteNumber": 51, "velocity": 64 }, { "deltaTime": 72, "channel": 9, "type": "channel", "noteNumber": 51, "velocity": 112, "subtype": "noteOn" }, { "deltaTime": 24, "channel": 9, "type": "channel", "subtype": "noteOff", "noteNumber": 51, "velocity": 64 }, { "deltaTime": 72, "channel": 9, "type": "channel", "noteNumber": 35, "velocity": 80, "subtype": "noteOn" }, { "deltaTime": 0, "channel": 9, "type": "channel", "noteNumber": 51, "velocity": 127, "subtype": "noteOn" }, { "deltaTime": 24, "channel": 9, "type": "channel", "subtype": "noteOff", "noteNumber": 35, "velocity": 64 }, { "deltaTime": 0, "channel": 9, "type": "channel", "subtype": "noteOff", "noteNumber": 51, "velocity": 64 }, { "deltaTime": 72, "channel": 9, "type": "channel", "noteNumber": 51, "velocity": 112, "subtype": "noteOn" }, { "deltaTime": 24, "channel": 9, "type": "channel", "subtype": "noteOff", "noteNumber": 51, "velocity": 64 }, { "deltaTime": 72, "channel": 9, "type": "channel", "noteNumber": 51, "velocity": 127, "subtype": "noteOn" }, { "deltaTime": 0, "channel": 9, "type": "channel", "noteNumber": 75, "velocity": 127, "subtype": "noteOn" }, { "deltaTime": 24, "channel": 9, "type": "channel", "subtype": "noteOff", "noteNumber": 51, "velocity": 64 }, { "deltaTime": 0, "channel": 9, "type": "channel", "subtype": "noteOff", "noteNumber": 75, "velocity": 64 }, { "deltaTime": 72, "channel": 9, "type": "channel", "noteNumber": 35, "velocity": 80, "subtype": "noteOn" }, { "deltaTime": 0, "channel": 9, "type": "channel", "noteNumber": 51, "velocity": 112, "subtype": "noteOn" }, { "deltaTime": 24, "channel": 9, "type": "channel", "subtype": "noteOff", "noteNumber": 35, "velocity": 64 }, { "deltaTime": 0, "channel": 9, "type": "channel", "subtype": "noteOff", "noteNumber": 51, "velocity": 64 }, { "deltaTime": 72, "channel": 9, "type": "channel", "noteNumber": 35, "velocity": 80, "subtype": "noteOn" }, { "deltaTime": 0, "channel": 9, "type": "channel", "noteNumber": 51, "velocity": 127, "subtype": "noteOn" }, { "deltaTime": 24, "channel": 9, "type": "channel", "subtype": "noteOff", "noteNumber": 35, "velocity": 64 }, { "deltaTime": 0, "channel": 9, "type": "channel", "subtype": "noteOff", "noteNumber": 51, "velocity": 64 }, { "deltaTime": 72, "channel": 9, "type": "channel", "noteNumber": 51, "velocity": 112, "subtype": "noteOn" }, { "deltaTime": 24, "channel": 9, "type": "channel", "subtype": "noteOff", "noteNumber": 51, "velocity": 64 }, { "deltaTime": 72, "channel": 9, "type": "channel", "noteNumber": 38, "velocity": 127, "subtype": "noteOn" }, { "deltaTime": 0, "channel": 9, "type": "channel", "noteNumber": 51, "velocity": 127, "subtype": "noteOn" }, { "deltaTime": 24, "channel": 9, "type": "channel", "subtype": "noteOff", "noteNumber": 38, "velocity": 64 }, { "deltaTime": 0, "channel": 9, "type": "channel", "subtype": "noteOff", "noteNumber": 51, "velocity": 64 }, { "deltaTime": 72, "channel": 9, "type": "channel", "noteNumber": 51, "velocity": 112, "subtype": "noteOn" }, { "deltaTime": 24, "channel": 9, "type": "channel", "subtype": "noteOff", "noteNumber": 51, "velocity": 64 }, { "deltaTime": 72, "channel": 9, "type": "channel", "noteNumber": 35, "velocity": 80, "subtype": "noteOn" }, { "deltaTime": 0, "channel": 9, "type": "channel", "noteNumber": 51, "velocity": 127, "subtype": "noteOn" }, { "deltaTime": 24, "channel": 9, "type": "channel", "subtype": "noteOff", "noteNumber": 35, "velocity": 64 }, { "deltaTime": 0, "channel": 9, "type": "channel", "subtype": "noteOff", "noteNumber": 51, "velocity": 64 }, { "deltaTime": 72, "channel": 9, "type": "channel", "noteNumber": 51, "velocity": 112, "subtype": "noteOn" }, { "deltaTime": 24, "channel": 9, "type": "channel", "subtype": "noteOff", "noteNumber": 51, "velocity": 64 }, { "deltaTime": 72, "channel": 9, "type": "channel", "noteNumber": 51, "velocity": 127, "subtype": "noteOn" }, { "deltaTime": 0, "channel": 9, "type": "channel", "noteNumber": 75, "velocity": 127, "subtype": "noteOn" }, { "deltaTime": 24, "channel": 9, "type": "channel", "subtype": "noteOff", "noteNumber": 51, "velocity": 64 }, { "deltaTime": 0, "channel": 9, "type": "channel", "subtype": "noteOff", "noteNumber": 75, "velocity": 64 }, { "deltaTime": 72, "channel": 9, "type": "channel", "noteNumber": 35, "velocity": 80, "subtype": "noteOn" }, { "deltaTime": 0, "channel": 9, "type": "channel", "noteNumber": 51, "velocity": 112, "subtype": "noteOn" }, { "deltaTime": 24, "channel": 9, "type": "channel", "subtype": "noteOff", "noteNumber": 35, "velocity": 64 }, { "deltaTime": 0, "channel": 9, "type": "channel", "subtype": "noteOff", "noteNumber": 51, "velocity": 64 }, { "deltaTime": 72, "channel": 9, "type": "channel", "noteNumber": 35, "velocity": 80, "subtype": "noteOn" }, { "deltaTime": 0, "channel": 9, "type": "channel", "noteNumber": 51, "velocity": 127, "subtype": "noteOn" }, { "deltaTime": 24, "channel": 9, "type": "channel", "subtype": "noteOff", "noteNumber": 35, "velocity": 64 }, { "deltaTime": 0, "channel": 9, "type": "channel", "subtype": "noteOff", "noteNumber": 51, "velocity": 64 }, { "deltaTime": 72, "channel": 9, "type": "channel", "noteNumber": 51, "velocity": 112, "subtype": "noteOn" }, { "deltaTime": 24, "channel": 9, "type": "channel", "subtype": "noteOff", "noteNumber": 51, "velocity": 64 }, { "deltaTime": 72, "channel": 9, "type": "channel", "noteNumber": 38, "velocity": 127, "subtype": "noteOn" }, { "deltaTime": 0, "channel": 9, "type": "channel", "noteNumber": 51, "velocity": 127, "subtype": "noteOn" }, { "deltaTime": 24, "channel": 9, "type": "channel", "subtype": "noteOff", "noteNumber": 38, "velocity": 64 }, { "deltaTime": 0, "channel": 9, "type": "channel", "subtype": "noteOff", "noteNumber": 51, "velocity": 64 }, { "deltaTime": 72, "channel": 9, "type": "channel", "noteNumber": 51, "velocity": 112, "subtype": "noteOn" }, { "deltaTime": 24, "channel": 9, "type": "channel", "subtype": "noteOff", "noteNumber": 51, "velocity": 64 }, { "deltaTime": 72, "channel": 9, "type": "channel", "noteNumber": 35, "velocity": 80, "subtype": "noteOn" }, { "deltaTime": 0, "channel": 9, "type": "channel", "noteNumber": 51, "velocity": 127, "subtype": "noteOn" }, { "deltaTime": 24, "channel": 9, "type": "channel", "subtype": "noteOff", "noteNumber": 35, "velocity": 64 }, { "deltaTime": 0, "channel": 9, "type": "channel", "subtype": "noteOff", "noteNumber": 51, "velocity": 64 }, { "deltaTime": 72, "channel": 9, "type": "channel", "noteNumber": 51, "velocity": 112, "subtype": "noteOn" }, { "deltaTime": 24, "channel": 9, "type": "channel", "subtype": "noteOff", "noteNumber": 51, "velocity": 64 }, { "deltaTime": 72, "channel": 9, "type": "channel", "noteNumber": 51, "velocity": 127, "subtype": "noteOn" }, { "deltaTime": 0, "channel": 9, "type": "channel", "noteNumber": 75, "velocity": 127, "subtype": "noteOn" }, { "deltaTime": 24, "channel": 9, "type": "channel", "subtype": "noteOff", "noteNumber": 51, "velocity": 64 }, { "deltaTime": 0, "channel": 9, "type": "channel", "subtype": "noteOff", "noteNumber": 75, "velocity": 64 }, { "deltaTime": 72, "channel": 9, "type": "channel", "noteNumber": 35, "velocity": 80, "subtype": "noteOn" }, { "deltaTime": 0, "channel": 9, "type": "channel", "noteNumber": 51, "velocity": 112, "subtype": "noteOn" }, { "deltaTime": 24, "channel": 9, "type": "channel", "subtype": "noteOff", "noteNumber": 35, "velocity": 64 }, { "deltaTime": 0, "channel": 9, "type": "channel", "subtype": "noteOff", "noteNumber": 51, "velocity": 64 }, { "deltaTime": 72, "channel": 9, "type": "channel", "noteNumber": 35, "velocity": 80, "subtype": "noteOn" }, { "deltaTime": 0, "channel": 9, "type": "channel", "noteNumber": 51, "velocity": 127, "subtype": "noteOn" }, { "deltaTime": 24, "channel": 9, "type": "channel", "subtype": "noteOff", "noteNumber": 35, "velocity": 64 }, { "deltaTime": 0, "channel": 9, "type": "channel", "subtype": "noteOff", "noteNumber": 51, "velocity": 64 }, { "deltaTime": 72, "channel": 9, "type": "channel", "noteNumber": 51, "velocity": 112, "subtype": "noteOn" }, { "deltaTime": 24, "channel": 9, "type": "channel", "subtype": "noteOff", "noteNumber": 51, "velocity": 64 }, { "deltaTime": 72, "channel": 9, "type": "channel", "noteNumber": 38, "velocity": 127, "subtype": "noteOn" }, { "deltaTime": 0, "channel": 9, "type": "channel", "noteNumber": 51, "velocity": 127, "subtype": "noteOn" }, { "deltaTime": 24, "channel": 9, "type": "channel", "subtype": "noteOff", "noteNumber": 38, "velocity": 64 }, { "deltaTime": 0, "channel": 9, "type": "channel", "subtype": "noteOff", "noteNumber": 51, "velocity": 64 }, { "deltaTime": 72, "channel": 9, "type": "channel", "noteNumber": 51, "velocity": 112, "subtype": "noteOn" }, { "deltaTime": 24, "channel": 9, "type": "channel", "subtype": "noteOff", "noteNumber": 51, "velocity": 64 }, { "deltaTime": 72, "channel": 9, "type": "channel", "noteNumber": 35, "velocity": 80, "subtype": "noteOn" }, { "deltaTime": 0, "channel": 9, "type": "channel", "noteNumber": 51, "velocity": 127, "subtype": "noteOn" }, { "deltaTime": 24, "channel": 9, "type": "channel", "subtype": "noteOff", "noteNumber": 35, "velocity": 64 }, { "deltaTime": 0, "channel": 9, "type": "channel", "subtype": "noteOff", "noteNumber": 51, "velocity": 64 }, { "deltaTime": 72, "channel": 9, "type": "channel", "noteNumber": 51, "velocity": 112, "subtype": "noteOn" }, { "deltaTime": 24, "channel": 9, "type": "channel", "subtype": "noteOff", "noteNumber": 51, "velocity": 64 }, { "deltaTime": 72, "channel": 9, "type": "channel", "noteNumber": 51, "velocity": 127, "subtype": "noteOn" }, { "deltaTime": 0, "channel": 9, "type": "channel", "noteNumber": 75, "velocity": 127, "subtype": "noteOn" }, { "deltaTime": 24, "channel": 9, "type": "channel", "subtype": "noteOff", "noteNumber": 51, "velocity": 64 }, { "deltaTime": 0, "channel": 9, "type": "channel", "subtype": "noteOff", "noteNumber": 75, "velocity": 64 }, { "deltaTime": 72, "channel": 9, "type": "channel", "noteNumber": 35, "velocity": 80, "subtype": "noteOn" }, { "deltaTime": 0, "channel": 9, "type": "channel", "noteNumber": 51, "velocity": 112, "subtype": "noteOn" }, { "deltaTime": 24, "channel": 9, "type": "channel", "subtype": "noteOff", "noteNumber": 35, "velocity": 64 }, { "deltaTime": 0, "channel": 9, "type": "channel", "subtype": "noteOff", "noteNumber": 51, "velocity": 64 }, { "deltaTime": 72, "channel": 9, "type": "channel", "noteNumber": 35, "velocity": 80, "subtype": "noteOn" }, { "deltaTime": 0, "channel": 9, "type": "channel", "noteNumber": 51, "velocity": 127, "subtype": "noteOn" }, { "deltaTime": 24, "channel": 9, "type": "channel", "subtype": "noteOff", "noteNumber": 35, "velocity": 64 }, { "deltaTime": 0, "channel": 9, "type": "channel", "subtype": "noteOff", "noteNumber": 51, "velocity": 64 }, { "deltaTime": 72, "channel": 9, "type": "channel", "noteNumber": 51, "velocity": 112, "subtype": "noteOn" }, { "deltaTime": 24, "channel": 9, "type": "channel", "subtype": "noteOff", "noteNumber": 51, "velocity": 64 }, { "deltaTime": 72, "channel": 9, "type": "channel", "noteNumber": 38, "velocity": 127, "subtype": "noteOn" }, { "deltaTime": 0, "channel": 9, "type": "channel", "noteNumber": 51, "velocity": 127, "subtype": "noteOn" }, { "deltaTime": 24, "channel": 9, "type": "channel", "subtype": "noteOff", "noteNumber": 38, "velocity": 64 }, { "deltaTime": 0, "channel": 9, "type": "channel", "subtype": "noteOff", "noteNumber": 51, "velocity": 64 }, { "deltaTime": 72, "channel": 9, "type": "channel", "noteNumber": 51, "velocity": 112, "subtype": "noteOn" }, { "deltaTime": 24, "channel": 9, "type": "channel", "subtype": "noteOff", "noteNumber": 51, "velocity": 64 }, { "deltaTime": 72, "channel": 9, "type": "channel", "noteNumber": 35, "velocity": 80, "subtype": "noteOn" }, { "deltaTime": 0, "channel": 9, "type": "channel", "noteNumber": 51, "velocity": 127, "subtype": "noteOn" }, { "deltaTime": 24, "channel": 9, "type": "channel", "subtype": "noteOff", "noteNumber": 35, "velocity": 64 }, { "deltaTime": 0, "channel": 9, "type": "channel", "subtype": "noteOff", "noteNumber": 51, "velocity": 64 }, { "deltaTime": 72, "channel": 9, "type": "channel", "noteNumber": 51, "velocity": 112, "subtype": "noteOn" }, { "deltaTime": 24, "channel": 9, "type": "channel", "subtype": "noteOff", "noteNumber": 51, "velocity": 64 }, { "deltaTime": 72, "channel": 9, "type": "channel", "noteNumber": 51, "velocity": 127, "subtype": "noteOn" }, { "deltaTime": 0, "channel": 9, "type": "channel", "noteNumber": 75, "velocity": 127, "subtype": "noteOn" }, { "deltaTime": 24, "channel": 9, "type": "channel", "subtype": "noteOff", "noteNumber": 51, "velocity": 64 }, { "deltaTime": 0, "channel": 9, "type": "channel", "subtype": "noteOff", "noteNumber": 75, "velocity": 64 }, { "deltaTime": 72, "channel": 9, "type": "channel", "noteNumber": 35, "velocity": 80, "subtype": "noteOn" }, { "deltaTime": 0, "channel": 9, "type": "channel", "noteNumber": 51, "velocity": 112, "subtype": "noteOn" }, { "deltaTime": 24, "channel": 9, "type": "channel", "subtype": "noteOff", "noteNumber": 35, "velocity": 64 }, { "deltaTime": 0, "channel": 9, "type": "channel", "subtype": "noteOff", "noteNumber": 51, "velocity": 64 }, { "deltaTime": 72, "channel": 9, "type": "channel", "noteNumber": 35, "velocity": 80, "subtype": "noteOn" }, { "deltaTime": 0, "channel": 9, "type": "channel", "noteNumber": 51, "velocity": 127, "subtype": "noteOn" }, { "deltaTime": 24, "channel": 9, "type": "channel", "subtype": "noteOff", "noteNumber": 35, "velocity": 64 }, { "deltaTime": 0, "channel": 9, "type": "channel", "subtype": "noteOff", "noteNumber": 51, "velocity": 64 }, { "deltaTime": 72, "channel": 9, "type": "channel", "noteNumber": 51, "velocity": 112, "subtype": "noteOn" }, { "deltaTime": 24, "channel": 9, "type": "channel", "subtype": "noteOff", "noteNumber": 51, "velocity": 64 }, { "deltaTime": 72, "channel": 9, "type": "channel", "noteNumber": 38, "velocity": 127, "subtype": "noteOn" }, { "deltaTime": 0, "channel": 9, "type": "channel", "noteNumber": 51, "velocity": 127, "subtype": "noteOn" }, { "deltaTime": 24, "channel": 9, "type": "channel", "subtype": "noteOff", "noteNumber": 38, "velocity": 64 }, { "deltaTime": 0, "channel": 9, "type": "channel", "subtype": "noteOff", "noteNumber": 51, "velocity": 64 }, { "deltaTime": 72, "channel": 9, "type": "channel", "noteNumber": 51, "velocity": 112, "subtype": "noteOn" }, { "deltaTime": 24, "channel": 9, "type": "channel", "subtype": "noteOff", "noteNumber": 51, "velocity": 64 }, { "deltaTime": 72, "channel": 9, "type": "channel", "noteNumber": 35, "velocity": 80, "subtype": "noteOn" }, { "deltaTime": 0, "channel": 9, "type": "channel", "noteNumber": 51, "velocity": 127, "subtype": "noteOn" }, { "deltaTime": 24, "channel": 9, "type": "channel", "subtype": "noteOff", "noteNumber": 35, "velocity": 64 }, { "deltaTime": 0, "channel": 9, "type": "channel", "subtype": "noteOff", "noteNumber": 51, "velocity": 64 }, { "deltaTime": 72, "channel": 9, "type": "channel", "noteNumber": 51, "velocity": 112, "subtype": "noteOn" }, { "deltaTime": 24, "channel": 9, "type": "channel", "subtype": "noteOff", "noteNumber": 51, "velocity": 64 }, { "deltaTime": 72, "channel": 9, "type": "channel", "noteNumber": 51, "velocity": 127, "subtype": "noteOn" }, { "deltaTime": 0, "channel": 9, "type": "channel", "noteNumber": 75, "velocity": 127, "subtype": "noteOn" }, { "deltaTime": 24, "channel": 9, "type": "channel", "subtype": "noteOff", "noteNumber": 51, "velocity": 64 }, { "deltaTime": 0, "channel": 9, "type": "channel", "subtype": "noteOff", "noteNumber": 75, "velocity": 64 }, { "deltaTime": 72, "channel": 9, "type": "channel", "noteNumber": 35, "velocity": 80, "subtype": "noteOn" }, { "deltaTime": 0, "channel": 9, "type": "channel", "noteNumber": 51, "velocity": 112, "subtype": "noteOn" }, { "deltaTime": 24, "channel": 9, "type": "channel", "subtype": "noteOff", "noteNumber": 35, "velocity": 64 }, { "deltaTime": 0, "channel": 9, "type": "channel", "subtype": "noteOff", "noteNumber": 51, "velocity": 64 }, { "deltaTime": 72, "channel": 9, "type": "channel", "noteNumber": 35, "velocity": 80, "subtype": "noteOn" }, { "deltaTime": 0, "channel": 9, "type": "channel", "noteNumber": 51, "velocity": 127, "subtype": "noteOn" }, { "deltaTime": 24, "channel": 9, "type": "channel", "subtype": "noteOff", "noteNumber": 35, "velocity": 64 }, { "deltaTime": 0, "channel": 9, "type": "channel", "subtype": "noteOff", "noteNumber": 51, "velocity": 64 }, { "deltaTime": 72, "channel": 9, "type": "channel", "noteNumber": 51, "velocity": 112, "subtype": "noteOn" }, { "deltaTime": 24, "channel": 9, "type": "channel", "subtype": "noteOff", "noteNumber": 51, "velocity": 64 }, { "deltaTime": 72, "channel": 9, "type": "channel", "noteNumber": 38, "velocity": 127, "subtype": "noteOn" }, { "deltaTime": 0, "channel": 9, "type": "channel", "noteNumber": 51, "velocity": 127, "subtype": "noteOn" }, { "deltaTime": 24, "channel": 9, "type": "channel", "subtype": "noteOff", "noteNumber": 38, "velocity": 64 }, { "deltaTime": 0, "channel": 9, "type": "channel", "subtype": "noteOff", "noteNumber": 51, "velocity": 64 }, { "deltaTime": 72, "channel": 9, "type": "channel", "noteNumber": 51, "velocity": 112, "subtype": "noteOn" }, { "deltaTime": 24, "channel": 9, "type": "channel", "subtype": "noteOff", "noteNumber": 51, "velocity": 64 }, { "deltaTime": 72, "channel": 9, "type": "channel", "noteNumber": 35, "velocity": 80, "subtype": "noteOn" }, { "deltaTime": 0, "channel": 9, "type": "channel", "noteNumber": 51, "velocity": 127, "subtype": "noteOn" }, { "deltaTime": 24, "channel": 9, "type": "channel", "subtype": "noteOff", "noteNumber": 35, "velocity": 64 }, { "deltaTime": 0, "channel": 9, "type": "channel", "subtype": "noteOff", "noteNumber": 51, "velocity": 64 }, { "deltaTime": 72, "channel": 9, "type": "channel", "noteNumber": 51, "velocity": 112, "subtype": "noteOn" }, { "deltaTime": 24, "channel": 9, "type": "channel", "subtype": "noteOff", "noteNumber": 51, "velocity": 64 }, { "deltaTime": 72, "channel": 9, "type": "channel", "noteNumber": 51, "velocity": 127, "subtype": "noteOn" }, { "deltaTime": 0, "channel": 9, "type": "channel", "noteNumber": 75, "velocity": 127, "subtype": "noteOn" }, { "deltaTime": 24, "channel": 9, "type": "channel", "subtype": "noteOff", "noteNumber": 51, "velocity": 64 }, { "deltaTime": 0, "channel": 9, "type": "channel", "subtype": "noteOff", "noteNumber": 75, "velocity": 64 }, { "deltaTime": 72, "channel": 9, "type": "channel", "noteNumber": 35, "velocity": 80, "subtype": "noteOn" }, { "deltaTime": 0, "channel": 9, "type": "channel", "noteNumber": 51, "velocity": 112, "subtype": "noteOn" }, { "deltaTime": 24, "channel": 9, "type": "channel", "subtype": "noteOff", "noteNumber": 35, "velocity": 64 }, { "deltaTime": 0, "channel": 9, "type": "channel", "subtype": "noteOff", "noteNumber": 51, "velocity": 64 }, { "deltaTime": 72, "channel": 9, "type": "channel", "noteNumber": 35, "velocity": 80, "subtype": "noteOn" }, { "deltaTime": 0, "channel": 9, "type": "channel", "noteNumber": 51, "velocity": 127, "subtype": "noteOn" }, { "deltaTime": 24, "channel": 9, "type": "channel", "subtype": "noteOff", "noteNumber": 35, "velocity": 64 }, { "deltaTime": 0, "channel": 9, "type": "channel", "subtype": "noteOff", "noteNumber": 51, "velocity": 64 }, { "deltaTime": 72, "channel": 9, "type": "channel", "noteNumber": 51, "velocity": 112, "subtype": "noteOn" }, { "deltaTime": 24, "channel": 9, "type": "channel", "subtype": "noteOff", "noteNumber": 51, "velocity": 64 }, { "deltaTime": 72, "channel": 9, "type": "channel", "noteNumber": 38, "velocity": 127, "subtype": "noteOn" }, { "deltaTime": 0, "channel": 9, "type": "channel", "noteNumber": 51, "velocity": 127, "subtype": "noteOn" }, { "deltaTime": 24, "channel": 9, "type": "channel", "subtype": "noteOff", "noteNumber": 38, "velocity": 64 }, { "deltaTime": 0, "channel": 9, "type": "channel", "subtype": "noteOff", "noteNumber": 51, "velocity": 64 }, { "deltaTime": 72, "channel": 9, "type": "channel", "noteNumber": 51, "velocity": 112, "subtype": "noteOn" }, { "deltaTime": 24, "channel": 9, "type": "channel", "subtype": "noteOff", "noteNumber": 51, "velocity": 64 }, { "deltaTime": 72, "channel": 9, "type": "channel", "noteNumber": 35, "velocity": 80, "subtype": "noteOn" }, { "deltaTime": 0, "channel": 9, "type": "channel", "noteNumber": 51, "velocity": 127, "subtype": "noteOn" }, { "deltaTime": 24, "channel": 9, "type": "channel", "subtype": "noteOff", "noteNumber": 35, "velocity": 64 }, { "deltaTime": 0, "channel": 9, "type": "channel", "subtype": "noteOff", "noteNumber": 51, "velocity": 64 }, { "deltaTime": 72, "channel": 9, "type": "channel", "noteNumber": 51, "velocity": 112, "subtype": "noteOn" }, { "deltaTime": 24, "channel": 9, "type": "channel", "subtype": "noteOff", "noteNumber": 51, "velocity": 64 }, { "deltaTime": 72, "channel": 9, "type": "channel", "noteNumber": 51, "velocity": 127, "subtype": "noteOn" }, { "deltaTime": 0, "channel": 9, "type": "channel", "noteNumber": 75, "velocity": 127, "subtype": "noteOn" }, { "deltaTime": 24, "channel": 9, "type": "channel", "subtype": "noteOff", "noteNumber": 51, "velocity": 64 }, { "deltaTime": 0, "channel": 9, "type": "channel", "subtype": "noteOff", "noteNumber": 75, "velocity": 64 }, { "deltaTime": 72, "channel": 9, "type": "channel", "noteNumber": 35, "velocity": 80, "subtype": "noteOn" }, { "deltaTime": 0, "channel": 9, "type": "channel", "noteNumber": 51, "velocity": 112, "subtype": "noteOn" }, { "deltaTime": 24, "channel": 9, "type": "channel", "subtype": "noteOff", "noteNumber": 35, "velocity": 64 }, { "deltaTime": 0, "channel": 9, "type": "channel", "subtype": "noteOff", "noteNumber": 51, "velocity": 64 }, { "deltaTime": 72, "channel": 9, "type": "channel", "noteNumber": 35, "velocity": 80, "subtype": "noteOn" }, { "deltaTime": 0, "channel": 9, "type": "channel", "noteNumber": 51, "velocity": 127, "subtype": "noteOn" }, { "deltaTime": 24, "channel": 9, "type": "channel", "subtype": "noteOff", "noteNumber": 35, "velocity": 64 }, { "deltaTime": 0, "channel": 9, "type": "channel", "subtype": "noteOff", "noteNumber": 51, "velocity": 64 }, { "deltaTime": 72, "channel": 9, "type": "channel", "noteNumber": 38, "velocity": 112, "subtype": "noteOn" }, { "deltaTime": 24, "channel": 9, "type": "channel", "subtype": "noteOff", "noteNumber": 38, "velocity": 64 }, { "deltaTime": 72, "channel": 9, "type": "channel", "noteNumber": 38, "velocity": 127, "subtype": "noteOn" }, { "deltaTime": 24, "channel": 9, "type": "channel", "subtype": "noteOff", "noteNumber": 38, "velocity": 64 }, { "deltaTime": 24, "channel": 9, "type": "channel", "noteNumber": 38, "velocity": 112, "subtype": "noteOn" }, { "deltaTime": 24, "channel": 9, "type": "channel", "subtype": "noteOff", "noteNumber": 38, "velocity": 64 }, { "deltaTime": 24, "channel": 9, "type": "channel", "noteNumber": 38, "velocity": 127, "subtype": "noteOn" }, { "deltaTime": 24, "channel": 9, "type": "channel", "subtype": "noteOff", "noteNumber": 38, "velocity": 64 }, { "deltaTime": 72, "channel": 9, "type": "channel", "noteNumber": 35, "velocity": 80, "subtype": "noteOn" }, { "deltaTime": 0, "channel": 9, "type": "channel", "noteNumber": 51, "velocity": 127, "subtype": "noteOn" }, { "deltaTime": 24, "channel": 9, "type": "channel", "subtype": "noteOff", "noteNumber": 35, "velocity": 64 }, { "deltaTime": 0, "channel": 9, "type": "channel", "subtype": "noteOff", "noteNumber": 51, "velocity": 64 }, { "deltaTime": 72, "channel": 9, "type": "channel", "noteNumber": 42, "velocity": 50, "subtype": "noteOn" }, { "deltaTime": 0, "channel": 9, "type": "channel", "noteNumber": 70, "velocity": 35, "subtype": "noteOn" }, { "deltaTime": 24, "channel": 9, "type": "channel", "subtype": "noteOff", "noteNumber": 42, "velocity": 64 }, { "deltaTime": 0, "channel": 9, "type": "channel", "subtype": "noteOff", "noteNumber": 70, "velocity": 64 }, { "deltaTime": 72, "channel": 9, "type": "channel", "noteNumber": 75, "velocity": 112, "subtype": "noteOn" }, { "deltaTime": 0, "channel": 9, "type": "channel", "noteNumber": 42, "velocity": 66, "subtype": "noteOn" }, { "deltaTime": 0, "channel": 9, "type": "channel", "noteNumber": 70, "velocity": 51, "subtype": "noteOn" }, { "deltaTime": 24, "channel": 9, "type": "channel", "subtype": "noteOff", "noteNumber": 75, "velocity": 64 }, { "deltaTime": 0, "channel": 9, "type": "channel", "subtype": "noteOff", "noteNumber": 42, "velocity": 64 }, { "deltaTime": 0, "channel": 9, "type": "channel", "subtype": "noteOff", "noteNumber": 70, "velocity": 64 }, { "deltaTime": 72, "channel": 9, "type": "channel", "noteNumber": 35, "velocity": 80, "subtype": "noteOn" }, { "deltaTime": 0, "channel": 9, "type": "channel", "noteNumber": 42, "velocity": 50, "subtype": "noteOn" }, { "deltaTime": 0, "channel": 9, "type": "channel", "noteNumber": 70, "velocity": 35, "subtype": "noteOn" }, { "deltaTime": 24, "channel": 9, "type": "channel", "subtype": "noteOff", "noteNumber": 35, "velocity": 64 }, { "deltaTime": 0, "channel": 9, "type": "channel", "subtype": "noteOff", "noteNumber": 42, "velocity": 64 }, { "deltaTime": 0, "channel": 9, "type": "channel", "subtype": "noteOff", "noteNumber": 70, "velocity": 64 }, { "deltaTime": 72, "channel": 9, "type": "channel", "noteNumber": 35, "velocity": 80, "subtype": "noteOn" }, { "deltaTime": 0, "channel": 9, "type": "channel", "noteNumber": 42, "velocity": 66, "subtype": "noteOn" }, { "deltaTime": 0, "channel": 9, "type": "channel", "noteNumber": 70, "velocity": 51, "subtype": "noteOn" }, { "deltaTime": 24, "channel": 9, "type": "channel", "subtype": "noteOff", "noteNumber": 35, "velocity": 64 }, { "deltaTime": 0, "channel": 9, "type": "channel", "subtype": "noteOff", "noteNumber": 42, "velocity": 64 }, { "deltaTime": 0, "channel": 9, "type": "channel", "subtype": "noteOff", "noteNumber": 70, "velocity": 64 }, { "deltaTime": 72, "channel": 9, "type": "channel", "noteNumber": 42, "velocity": 50, "subtype": "noteOn" }, { "deltaTime": 0, "channel": 9, "type": "channel", "noteNumber": 70, "velocity": 35, "subtype": "noteOn" }, { "deltaTime": 24, "channel": 9, "type": "channel", "subtype": "noteOff", "noteNumber": 42, "velocity": 64 }, { "deltaTime": 0, "channel": 9, "type": "channel", "subtype": "noteOff", "noteNumber": 70, "velocity": 64 }, { "deltaTime": 72, "channel": 9, "type": "channel", "noteNumber": 75, "velocity": 112, "subtype": "noteOn" }, { "deltaTime": 0, "channel": 9, "type": "channel", "noteNumber": 42, "velocity": 66, "subtype": "noteOn" }, { "deltaTime": 0, "channel": 9, "type": "channel", "noteNumber": 70, "velocity": 51, "subtype": "noteOn" }, { "deltaTime": 24, "channel": 9, "type": "channel", "subtype": "noteOff", "noteNumber": 75, "velocity": 64 }, { "deltaTime": 0, "channel": 9, "type": "channel", "subtype": "noteOff", "noteNumber": 42, "velocity": 64 }, { "deltaTime": 0, "channel": 9, "type": "channel", "subtype": "noteOff", "noteNumber": 70, "velocity": 64 }, { "deltaTime": 72, "channel": 9, "type": "channel", "noteNumber": 42, "velocity": 50, "subtype": "noteOn" }, { "deltaTime": 0, "channel": 9, "type": "channel", "noteNumber": 70, "velocity": 35, "subtype": "noteOn" }, { "deltaTime": 24, "channel": 9, "type": "channel", "subtype": "noteOff", "noteNumber": 42, "velocity": 64 }, { "deltaTime": 0, "channel": 9, "type": "channel", "subtype": "noteOff", "noteNumber": 70, "velocity": 64 }, { "deltaTime": 72, "channel": 9, "type": "channel", "noteNumber": 35, "velocity": 80, "subtype": "noteOn" }, { "deltaTime": 0, "channel": 9, "type": "channel", "noteNumber": 42, "velocity": 66, "subtype": "noteOn" }, { "deltaTime": 0, "channel": 9, "type": "channel", "noteNumber": 70, "velocity": 51, "subtype": "noteOn" }, { "deltaTime": 24, "channel": 9, "type": "channel", "subtype": "noteOff", "noteNumber": 35, "velocity": 64 }, { "deltaTime": 0, "channel": 9, "type": "channel", "subtype": "noteOff", "noteNumber": 42, "velocity": 64 }, { "deltaTime": 0, "channel": 9, "type": "channel", "subtype": "noteOff", "noteNumber": 70, "velocity": 64 }, { "deltaTime": 72, "channel": 9, "type": "channel", "noteNumber": 42, "velocity": 50, "subtype": "noteOn" }, { "deltaTime": 0, "channel": 9, "type": "channel", "noteNumber": 70, "velocity": 35, "subtype": "noteOn" }, { "deltaTime": 24, "channel": 9, "type": "channel", "subtype": "noteOff", "noteNumber": 42, "velocity": 64 }, { "deltaTime": 0, "channel": 9, "type": "channel", "subtype": "noteOff", "noteNumber": 70, "velocity": 64 }, { "deltaTime": 72, "channel": 9, "type": "channel", "noteNumber": 75, "velocity": 127, "subtype": "noteOn" }, { "deltaTime": 0, "channel": 9, "type": "channel", "noteNumber": 42, "velocity": 66, "subtype": "noteOn" }, { "deltaTime": 0, "channel": 9, "type": "channel", "noteNumber": 70, "velocity": 51, "subtype": "noteOn" }, { "deltaTime": 24, "channel": 9, "type": "channel", "subtype": "noteOff", "noteNumber": 75, "velocity": 64 }, { "deltaTime": 0, "channel": 9, "type": "channel", "subtype": "noteOff", "noteNumber": 42, "velocity": 64 }, { "deltaTime": 0, "channel": 9, "type": "channel", "subtype": "noteOff", "noteNumber": 70, "velocity": 64 }, { "deltaTime": 72, "channel": 9, "type": "channel", "noteNumber": 35, "velocity": 80, "subtype": "noteOn" }, { "deltaTime": 0, "channel": 9, "type": "channel", "noteNumber": 42, "velocity": 50, "subtype": "noteOn" }, { "deltaTime": 0, "channel": 9, "type": "channel", "noteNumber": 70, "velocity": 35, "subtype": "noteOn" }, { "deltaTime": 24, "channel": 9, "type": "channel", "subtype": "noteOff", "noteNumber": 35, "velocity": 64 }, { "deltaTime": 0, "channel": 9, "type": "channel", "subtype": "noteOff", "noteNumber": 42, "velocity": 64 }, { "deltaTime": 0, "channel": 9, "type": "channel", "subtype": "noteOff", "noteNumber": 70, "velocity": 64 }, { "deltaTime": 72, "channel": 9, "type": "channel", "noteNumber": 35, "velocity": 80, "subtype": "noteOn" }, { "deltaTime": 0, "channel": 9, "type": "channel", "noteNumber": 42, "velocity": 66, "subtype": "noteOn" }, { "deltaTime": 0, "channel": 9, "type": "channel", "noteNumber": 70, "velocity": 51, "subtype": "noteOn" }, { "deltaTime": 24, "channel": 9, "type": "channel", "subtype": "noteOff", "noteNumber": 35, "velocity": 64 }, { "deltaTime": 0, "channel": 9, "type": "channel", "subtype": "noteOff", "noteNumber": 42, "velocity": 64 }, { "deltaTime": 0, "channel": 9, "type": "channel", "subtype": "noteOff", "noteNumber": 70, "velocity": 64 }, { "deltaTime": 72, "channel": 9, "type": "channel", "noteNumber": 42, "velocity": 50, "subtype": "noteOn" }, { "deltaTime": 0, "channel": 9, "type": "channel", "noteNumber": 70, "velocity": 35, "subtype": "noteOn" }, { "deltaTime": 24, "channel": 9, "type": "channel", "subtype": "noteOff", "noteNumber": 42, "velocity": 64 }, { "deltaTime": 0, "channel": 9, "type": "channel", "subtype": "noteOff", "noteNumber": 70, "velocity": 64 }, { "deltaTime": 72, "channel": 9, "type": "channel", "noteNumber": 75, "velocity": 127, "subtype": "noteOn" }, { "deltaTime": 0, "channel": 9, "type": "channel", "noteNumber": 42, "velocity": 66, "subtype": "noteOn" }, { "deltaTime": 0, "channel": 9, "type": "channel", "noteNumber": 70, "velocity": 51, "subtype": "noteOn" }, { "deltaTime": 24, "channel": 9, "type": "channel", "subtype": "noteOff", "noteNumber": 75, "velocity": 64 }, { "deltaTime": 0, "channel": 9, "type": "channel", "subtype": "noteOff", "noteNumber": 42, "velocity": 64 }, { "deltaTime": 0, "channel": 9, "type": "channel", "subtype": "noteOff", "noteNumber": 70, "velocity": 64 }, { "deltaTime": 72, "channel": 9, "type": "channel", "noteNumber": 42, "velocity": 50, "subtype": "noteOn" }, { "deltaTime": 0, "channel": 9, "type": "channel", "noteNumber": 70, "velocity": 35, "subtype": "noteOn" }, { "deltaTime": 24, "channel": 9, "type": "channel", "subtype": "noteOff", "noteNumber": 42, "velocity": 64 }, { "deltaTime": 0, "channel": 9, "type": "channel", "subtype": "noteOff", "noteNumber": 70, "velocity": 64 }, { "deltaTime": 72, "channel": 9, "type": "channel", "noteNumber": 35, "velocity": 80, "subtype": "noteOn" }, { "deltaTime": 0, "channel": 9, "type": "channel", "noteNumber": 42, "velocity": 66, "subtype": "noteOn" }, { "deltaTime": 0, "channel": 9, "type": "channel", "noteNumber": 70, "velocity": 51, "subtype": "noteOn" }, { "deltaTime": 24, "channel": 9, "type": "channel", "subtype": "noteOff", "noteNumber": 35, "velocity": 64 }, { "deltaTime": 0, "channel": 9, "type": "channel", "subtype": "noteOff", "noteNumber": 42, "velocity": 64 }, { "deltaTime": 0, "channel": 9, "type": "channel", "subtype": "noteOff", "noteNumber": 70, "velocity": 64 }, { "deltaTime": 72, "channel": 9, "type": "channel", "noteNumber": 42, "velocity": 50, "subtype": "noteOn" }, { "deltaTime": 0, "channel": 9, "type": "channel", "noteNumber": 70, "velocity": 35, "subtype": "noteOn" }, { "deltaTime": 24, "channel": 9, "type": "channel", "subtype": "noteOff", "noteNumber": 42, "velocity": 64 }, { "deltaTime": 0, "channel": 9, "type": "channel", "subtype": "noteOff", "noteNumber": 70, "velocity": 64 }, { "deltaTime": 72, "channel": 9, "type": "channel", "noteNumber": 75, "velocity": 127, "subtype": "noteOn" }, { "deltaTime": 0, "channel": 9, "type": "channel", "noteNumber": 42, "velocity": 66, "subtype": "noteOn" }, { "deltaTime": 0, "channel": 9, "type": "channel", "noteNumber": 70, "velocity": 51, "subtype": "noteOn" }, { "deltaTime": 24, "channel": 9, "type": "channel", "subtype": "noteOff", "noteNumber": 75, "velocity": 64 }, { "deltaTime": 0, "channel": 9, "type": "channel", "subtype": "noteOff", "noteNumber": 42, "velocity": 64 }, { "deltaTime": 0, "channel": 9, "type": "channel", "subtype": "noteOff", "noteNumber": 70, "velocity": 64 }, { "deltaTime": 72, "channel": 9, "type": "channel", "noteNumber": 35, "velocity": 80, "subtype": "noteOn" }, { "deltaTime": 0, "channel": 9, "type": "channel", "noteNumber": 42, "velocity": 50, "subtype": "noteOn" }, { "deltaTime": 0, "channel": 9, "type": "channel", "noteNumber": 70, "velocity": 35, "subtype": "noteOn" }, { "deltaTime": 24, "channel": 9, "type": "channel", "subtype": "noteOff", "noteNumber": 35, "velocity": 64 }, { "deltaTime": 0, "channel": 9, "type": "channel", "subtype": "noteOff", "noteNumber": 42, "velocity": 64 }, { "deltaTime": 0, "channel": 9, "type": "channel", "subtype": "noteOff", "noteNumber": 70, "velocity": 64 }, { "deltaTime": 72, "channel": 9, "type": "channel", "noteNumber": 35, "velocity": 80, "subtype": "noteOn" }, { "deltaTime": 0, "channel": 9, "type": "channel", "noteNumber": 42, "velocity": 66, "subtype": "noteOn" }, { "deltaTime": 0, "channel": 9, "type": "channel", "noteNumber": 70, "velocity": 51, "subtype": "noteOn" }, { "deltaTime": 24, "channel": 9, "type": "channel", "subtype": "noteOff", "noteNumber": 35, "velocity": 64 }, { "deltaTime": 0, "channel": 9, "type": "channel", "subtype": "noteOff", "noteNumber": 42, "velocity": 64 }, { "deltaTime": 0, "channel": 9, "type": "channel", "subtype": "noteOff", "noteNumber": 70, "velocity": 64 }, { "deltaTime": 72, "channel": 9, "type": "channel", "noteNumber": 42, "velocity": 50, "subtype": "noteOn" }, { "deltaTime": 0, "channel": 9, "type": "channel", "noteNumber": 70, "velocity": 35, "subtype": "noteOn" }, { "deltaTime": 24, "channel": 9, "type": "channel", "subtype": "noteOff", "noteNumber": 42, "velocity": 64 }, { "deltaTime": 0, "channel": 9, "type": "channel", "subtype": "noteOff", "noteNumber": 70, "velocity": 64 }, { "deltaTime": 72, "channel": 9, "type": "channel", "noteNumber": 75, "velocity": 127, "subtype": "noteOn" }, { "deltaTime": 0, "channel": 9, "type": "channel", "noteNumber": 42, "velocity": 66, "subtype": "noteOn" }, { "deltaTime": 0, "channel": 9, "type": "channel", "noteNumber": 70, "velocity": 51, "subtype": "noteOn" }, { "deltaTime": 24, "channel": 9, "type": "channel", "subtype": "noteOff", "noteNumber": 75, "velocity": 64 }, { "deltaTime": 0, "channel": 9, "type": "channel", "subtype": "noteOff", "noteNumber": 42, "velocity": 64 }, { "deltaTime": 0, "channel": 9, "type": "channel", "subtype": "noteOff", "noteNumber": 70, "velocity": 64 }, { "deltaTime": 72, "channel": 9, "type": "channel", "noteNumber": 42, "velocity": 50, "subtype": "noteOn" }, { "deltaTime": 0, "channel": 9, "type": "channel", "noteNumber": 70, "velocity": 35, "subtype": "noteOn" }, { "deltaTime": 24, "channel": 9, "type": "channel", "subtype": "noteOff", "noteNumber": 42, "velocity": 64 }, { "deltaTime": 0, "channel": 9, "type": "channel", "subtype": "noteOff", "noteNumber": 70, "velocity": 64 }, { "deltaTime": 72, "channel": 9, "type": "channel", "noteNumber": 35, "velocity": 80, "subtype": "noteOn" }, { "deltaTime": 0, "channel": 9, "type": "channel", "noteNumber": 42, "velocity": 66, "subtype": "noteOn" }, { "deltaTime": 0, "channel": 9, "type": "channel", "noteNumber": 70, "velocity": 51, "subtype": "noteOn" }, { "deltaTime": 24, "channel": 9, "type": "channel", "subtype": "noteOff", "noteNumber": 35, "velocity": 64 }, { "deltaTime": 0, "channel": 9, "type": "channel", "subtype": "noteOff", "noteNumber": 42, "velocity": 64 }, { "deltaTime": 0, "channel": 9, "type": "channel", "subtype": "noteOff", "noteNumber": 70, "velocity": 64 }, { "deltaTime": 72, "channel": 9, "type": "channel", "noteNumber": 42, "velocity": 50, "subtype": "noteOn" }, { "deltaTime": 0, "channel": 9, "type": "channel", "noteNumber": 70, "velocity": 35, "subtype": "noteOn" }, { "deltaTime": 24, "channel": 9, "type": "channel", "subtype": "noteOff", "noteNumber": 42, "velocity": 64 }, { "deltaTime": 0, "channel": 9, "type": "channel", "subtype": "noteOff", "noteNumber": 70, "velocity": 64 }, { "deltaTime": 72, "channel": 9, "type": "channel", "noteNumber": 75, "velocity": 127, "subtype": "noteOn" }, { "deltaTime": 0, "channel": 9, "type": "channel", "noteNumber": 42, "velocity": 66, "subtype": "noteOn" }, { "deltaTime": 0, "channel": 9, "type": "channel", "noteNumber": 70, "velocity": 51, "subtype": "noteOn" }, { "deltaTime": 24, "channel": 9, "type": "channel", "subtype": "noteOff", "noteNumber": 75, "velocity": 64 }, { "deltaTime": 0, "channel": 9, "type": "channel", "subtype": "noteOff", "noteNumber": 42, "velocity": 64 }, { "deltaTime": 0, "channel": 9, "type": "channel", "subtype": "noteOff", "noteNumber": 70, "velocity": 64 }, { "deltaTime": 72, "channel": 9, "type": "channel", "noteNumber": 35, "velocity": 80, "subtype": "noteOn" }, { "deltaTime": 0, "channel": 9, "type": "channel", "noteNumber": 42, "velocity": 50, "subtype": "noteOn" }, { "deltaTime": 0, "channel": 9, "type": "channel", "noteNumber": 70, "velocity": 35, "subtype": "noteOn" }, { "deltaTime": 24, "channel": 9, "type": "channel", "subtype": "noteOff", "noteNumber": 35, "velocity": 64 }, { "deltaTime": 0, "channel": 9, "type": "channel", "subtype": "noteOff", "noteNumber": 42, "velocity": 64 }, { "deltaTime": 0, "channel": 9, "type": "channel", "subtype": "noteOff", "noteNumber": 70, "velocity": 64 }, { "deltaTime": 72, "channel": 9, "type": "channel", "noteNumber": 35, "velocity": 80, "subtype": "noteOn" }, { "deltaTime": 0, "channel": 9, "type": "channel", "noteNumber": 42, "velocity": 66, "subtype": "noteOn" }, { "deltaTime": 0, "channel": 9, "type": "channel", "noteNumber": 70, "velocity": 51, "subtype": "noteOn" }, { "deltaTime": 24, "channel": 9, "type": "channel", "subtype": "noteOff", "noteNumber": 35, "velocity": 64 }, { "deltaTime": 0, "channel": 9, "type": "channel", "subtype": "noteOff", "noteNumber": 42, "velocity": 64 }, { "deltaTime": 0, "channel": 9, "type": "channel", "subtype": "noteOff", "noteNumber": 70, "velocity": 64 }, { "deltaTime": 72, "channel": 9, "type": "channel", "noteNumber": 42, "velocity": 50, "subtype": "noteOn" }, { "deltaTime": 0, "channel": 9, "type": "channel", "noteNumber": 70, "velocity": 35, "subtype": "noteOn" }, { "deltaTime": 24, "channel": 9, "type": "channel", "subtype": "noteOff", "noteNumber": 42, "velocity": 64 }, { "deltaTime": 0, "channel": 9, "type": "channel", "subtype": "noteOff", "noteNumber": 70, "velocity": 64 }, { "deltaTime": 72, "channel": 9, "type": "channel", "noteNumber": 75, "velocity": 127, "subtype": "noteOn" }, { "deltaTime": 0, "channel": 9, "type": "channel", "noteNumber": 42, "velocity": 66, "subtype": "noteOn" }, { "deltaTime": 0, "channel": 9, "type": "channel", "noteNumber": 70, "velocity": 51, "subtype": "noteOn" }, { "deltaTime": 24, "channel": 9, "type": "channel", "subtype": "noteOff", "noteNumber": 75, "velocity": 64 }, { "deltaTime": 0, "channel": 9, "type": "channel", "subtype": "noteOff", "noteNumber": 42, "velocity": 64 }, { "deltaTime": 0, "channel": 9, "type": "channel", "subtype": "noteOff", "noteNumber": 70, "velocity": 64 }, { "deltaTime": 72, "channel": 9, "type": "channel", "noteNumber": 42, "velocity": 50, "subtype": "noteOn" }, { "deltaTime": 0, "channel": 9, "type": "channel", "noteNumber": 70, "velocity": 35, "subtype": "noteOn" }, { "deltaTime": 24, "channel": 9, "type": "channel", "subtype": "noteOff", "noteNumber": 42, "velocity": 64 }, { "deltaTime": 0, "channel": 9, "type": "channel", "subtype": "noteOff", "noteNumber": 70, "velocity": 64 }, { "deltaTime": 72, "channel": 9, "type": "channel", "noteNumber": 35, "velocity": 80, "subtype": "noteOn" }, { "deltaTime": 0, "channel": 9, "type": "channel", "noteNumber": 42, "velocity": 66, "subtype": "noteOn" }, { "deltaTime": 0, "channel": 9, "type": "channel", "noteNumber": 70, "velocity": 51, "subtype": "noteOn" }, { "deltaTime": 24, "channel": 9, "type": "channel", "subtype": "noteOff", "noteNumber": 35, "velocity": 64 }, { "deltaTime": 0, "channel": 9, "type": "channel", "subtype": "noteOff", "noteNumber": 42, "velocity": 64 }, { "deltaTime": 0, "channel": 9, "type": "channel", "subtype": "noteOff", "noteNumber": 70, "velocity": 64 }, { "deltaTime": 72, "channel": 9, "type": "channel", "noteNumber": 42, "velocity": 50, "subtype": "noteOn" }, { "deltaTime": 0, "channel": 9, "type": "channel", "noteNumber": 70, "velocity": 35, "subtype": "noteOn" }, { "deltaTime": 24, "channel": 9, "type": "channel", "subtype": "noteOff", "noteNumber": 42, "velocity": 64 }, { "deltaTime": 0, "channel": 9, "type": "channel", "subtype": "noteOff", "noteNumber": 70, "velocity": 64 }, { "deltaTime": 72, "channel": 9, "type": "channel", "noteNumber": 75, "velocity": 127, "subtype": "noteOn" }, { "deltaTime": 0, "channel": 9, "type": "channel", "noteNumber": 42, "velocity": 66, "subtype": "noteOn" }, { "deltaTime": 0, "channel": 9, "type": "channel", "noteNumber": 70, "velocity": 51, "subtype": "noteOn" }, { "deltaTime": 24, "channel": 9, "type": "channel", "subtype": "noteOff", "noteNumber": 75, "velocity": 64 }, { "deltaTime": 0, "channel": 9, "type": "channel", "subtype": "noteOff", "noteNumber": 42, "velocity": 64 }, { "deltaTime": 0, "channel": 9, "type": "channel", "subtype": "noteOff", "noteNumber": 70, "velocity": 64 }, { "deltaTime": 72, "channel": 9, "type": "channel", "noteNumber": 35, "velocity": 80, "subtype": "noteOn" }, { "deltaTime": 0, "channel": 9, "type": "channel", "noteNumber": 42, "velocity": 50, "subtype": "noteOn" }, { "deltaTime": 0, "channel": 9, "type": "channel", "noteNumber": 70, "velocity": 35, "subtype": "noteOn" }, { "deltaTime": 24, "channel": 9, "type": "channel", "subtype": "noteOff", "noteNumber": 35, "velocity": 64 }, { "deltaTime": 0, "channel": 9, "type": "channel", "subtype": "noteOff", "noteNumber": 42, "velocity": 64 }, { "deltaTime": 0, "channel": 9, "type": "channel", "subtype": "noteOff", "noteNumber": 70, "velocity": 64 }, { "deltaTime": 72, "channel": 9, "type": "channel", "noteNumber": 35, "velocity": 80, "subtype": "noteOn" }, { "deltaTime": 0, "channel": 9, "type": "channel", "noteNumber": 42, "velocity": 66, "subtype": "noteOn" }, { "deltaTime": 0, "channel": 9, "type": "channel", "noteNumber": 70, "velocity": 51, "subtype": "noteOn" }, { "deltaTime": 24, "channel": 9, "type": "channel", "subtype": "noteOff", "noteNumber": 35, "velocity": 64 }, { "deltaTime": 0, "channel": 9, "type": "channel", "subtype": "noteOff", "noteNumber": 42, "velocity": 64 }, { "deltaTime": 0, "channel": 9, "type": "channel", "subtype": "noteOff", "noteNumber": 70, "velocity": 64 }, { "deltaTime": 72, "channel": 9, "type": "channel", "noteNumber": 42, "velocity": 50, "subtype": "noteOn" }, { "deltaTime": 0, "channel": 9, "type": "channel", "noteNumber": 70, "velocity": 35, "subtype": "noteOn" }, { "deltaTime": 24, "channel": 9, "type": "channel", "subtype": "noteOff", "noteNumber": 42, "velocity": 64 }, { "deltaTime": 0, "channel": 9, "type": "channel", "subtype": "noteOff", "noteNumber": 70, "velocity": 64 }, { "deltaTime": 72, "channel": 9, "type": "channel", "noteNumber": 75, "velocity": 127, "subtype": "noteOn" }, { "deltaTime": 0, "channel": 9, "type": "channel", "noteNumber": 42, "velocity": 66, "subtype": "noteOn" }, { "deltaTime": 0, "channel": 9, "type": "channel", "noteNumber": 70, "velocity": 51, "subtype": "noteOn" }, { "deltaTime": 24, "channel": 9, "type": "channel", "subtype": "noteOff", "noteNumber": 75, "velocity": 64 }, { "deltaTime": 0, "channel": 9, "type": "channel", "subtype": "noteOff", "noteNumber": 42, "velocity": 64 }, { "deltaTime": 0, "channel": 9, "type": "channel", "subtype": "noteOff", "noteNumber": 70, "velocity": 64 }, { "deltaTime": 72, "channel": 9, "type": "channel", "noteNumber": 42, "velocity": 50, "subtype": "noteOn" }, { "deltaTime": 0, "channel": 9, "type": "channel", "noteNumber": 70, "velocity": 35, "subtype": "noteOn" }, { "deltaTime": 24, "channel": 9, "type": "channel", "subtype": "noteOff", "noteNumber": 42, "velocity": 64 }, { "deltaTime": 0, "channel": 9, "type": "channel", "subtype": "noteOff", "noteNumber": 70, "velocity": 64 }, { "deltaTime": 72, "channel": 9, "type": "channel", "noteNumber": 35, "velocity": 80, "subtype": "noteOn" }, { "deltaTime": 0, "channel": 9, "type": "channel", "noteNumber": 42, "velocity": 66, "subtype": "noteOn" }, { "deltaTime": 0, "channel": 9, "type": "channel", "noteNumber": 70, "velocity": 51, "subtype": "noteOn" }, { "deltaTime": 24, "channel": 9, "type": "channel", "subtype": "noteOff", "noteNumber": 35, "velocity": 64 }, { "deltaTime": 0, "channel": 9, "type": "channel", "subtype": "noteOff", "noteNumber": 42, "velocity": 64 }, { "deltaTime": 0, "channel": 9, "type": "channel", "subtype": "noteOff", "noteNumber": 70, "velocity": 64 }, { "deltaTime": 72, "channel": 9, "type": "channel", "noteNumber": 42, "velocity": 50, "subtype": "noteOn" }, { "deltaTime": 0, "channel": 9, "type": "channel", "noteNumber": 70, "velocity": 35, "subtype": "noteOn" }, { "deltaTime": 24, "channel": 9, "type": "channel", "subtype": "noteOff", "noteNumber": 42, "velocity": 64 }, { "deltaTime": 0, "channel": 9, "type": "channel", "subtype": "noteOff", "noteNumber": 70, "velocity": 64 }, { "deltaTime": 72, "channel": 9, "type": "channel", "noteNumber": 75, "velocity": 127, "subtype": "noteOn" }, { "deltaTime": 0, "channel": 9, "type": "channel", "noteNumber": 42, "velocity": 66, "subtype": "noteOn" }, { "deltaTime": 0, "channel": 9, "type": "channel", "noteNumber": 70, "velocity": 51, "subtype": "noteOn" }, { "deltaTime": 24, "channel": 9, "type": "channel", "subtype": "noteOff", "noteNumber": 75, "velocity": 64 }, { "deltaTime": 0, "channel": 9, "type": "channel", "subtype": "noteOff", "noteNumber": 42, "velocity": 64 }, { "deltaTime": 0, "channel": 9, "type": "channel", "subtype": "noteOff", "noteNumber": 70, "velocity": 64 }, { "deltaTime": 72, "channel": 9, "type": "channel", "noteNumber": 35, "velocity": 80, "subtype": "noteOn" }, { "deltaTime": 0, "channel": 9, "type": "channel", "noteNumber": 42, "velocity": 50, "subtype": "noteOn" }, { "deltaTime": 0, "channel": 9, "type": "channel", "noteNumber": 70, "velocity": 35, "subtype": "noteOn" }, { "deltaTime": 24, "channel": 9, "type": "channel", "subtype": "noteOff", "noteNumber": 35, "velocity": 64 }, { "deltaTime": 0, "channel": 9, "type": "channel", "subtype": "noteOff", "noteNumber": 42, "velocity": 64 }, { "deltaTime": 0, "channel": 9, "type": "channel", "subtype": "noteOff", "noteNumber": 70, "velocity": 64 }, { "deltaTime": 72, "channel": 9, "type": "channel", "noteNumber": 35, "velocity": 80, "subtype": "noteOn" }, { "deltaTime": 0, "channel": 9, "type": "channel", "noteNumber": 42, "velocity": 66, "subtype": "noteOn" }, { "deltaTime": 0, "channel": 9, "type": "channel", "noteNumber": 70, "velocity": 51, "subtype": "noteOn" }, { "deltaTime": 24, "channel": 9, "type": "channel", "subtype": "noteOff", "noteNumber": 35, "velocity": 64 }, { "deltaTime": 0, "channel": 9, "type": "channel", "subtype": "noteOff", "noteNumber": 42, "velocity": 64 }, { "deltaTime": 0, "channel": 9, "type": "channel", "subtype": "noteOff", "noteNumber": 70, "velocity": 64 }, { "deltaTime": 72, "channel": 9, "type": "channel", "noteNumber": 42, "velocity": 50, "subtype": "noteOn" }, { "deltaTime": 0, "channel": 9, "type": "channel", "noteNumber": 70, "velocity": 35, "subtype": "noteOn" }, { "deltaTime": 24, "channel": 9, "type": "channel", "subtype": "noteOff", "noteNumber": 42, "velocity": 64 }, { "deltaTime": 0, "channel": 9, "type": "channel", "subtype": "noteOff", "noteNumber": 70, "velocity": 64 }, { "deltaTime": 72, "channel": 9, "type": "channel", "noteNumber": 75, "velocity": 127, "subtype": "noteOn" }, { "deltaTime": 0, "channel": 9, "type": "channel", "noteNumber": 42, "velocity": 66, "subtype": "noteOn" }, { "deltaTime": 0, "channel": 9, "type": "channel", "noteNumber": 70, "velocity": 51, "subtype": "noteOn" }, { "deltaTime": 24, "channel": 9, "type": "channel", "subtype": "noteOff", "noteNumber": 75, "velocity": 64 }, { "deltaTime": 0, "channel": 9, "type": "channel", "subtype": "noteOff", "noteNumber": 42, "velocity": 64 }, { "deltaTime": 0, "channel": 9, "type": "channel", "subtype": "noteOff", "noteNumber": 70, "velocity": 64 }, { "deltaTime": 72, "channel": 9, "type": "channel", "noteNumber": 42, "velocity": 50, "subtype": "noteOn" }, { "deltaTime": 0, "channel": 9, "type": "channel", "noteNumber": 70, "velocity": 35, "subtype": "noteOn" }, { "deltaTime": 24, "channel": 9, "type": "channel", "subtype": "noteOff", "noteNumber": 42, "velocity": 64 }, { "deltaTime": 0, "channel": 9, "type": "channel", "subtype": "noteOff", "noteNumber": 70, "velocity": 64 }, { "deltaTime": 72, "channel": 9, "type": "channel", "noteNumber": 35, "velocity": 80, "subtype": "noteOn" }, { "deltaTime": 0, "channel": 9, "type": "channel", "noteNumber": 42, "velocity": 66, "subtype": "noteOn" }, { "deltaTime": 0, "channel": 9, "type": "channel", "noteNumber": 70, "velocity": 51, "subtype": "noteOn" }, { "deltaTime": 24, "channel": 9, "type": "channel", "subtype": "noteOff", "noteNumber": 35, "velocity": 64 }, { "deltaTime": 0, "channel": 9, "type": "channel", "subtype": "noteOff", "noteNumber": 42, "velocity": 64 }, { "deltaTime": 0, "channel": 9, "type": "channel", "subtype": "noteOff", "noteNumber": 70, "velocity": 64 }, { "deltaTime": 72, "channel": 9, "type": "channel", "noteNumber": 42, "velocity": 50, "subtype": "noteOn" }, { "deltaTime": 0, "channel": 9, "type": "channel", "noteNumber": 70, "velocity": 35, "subtype": "noteOn" }, { "deltaTime": 24, "channel": 9, "type": "channel", "subtype": "noteOff", "noteNumber": 42, "velocity": 64 }, { "deltaTime": 0, "channel": 9, "type": "channel", "subtype": "noteOff", "noteNumber": 70, "velocity": 64 }, { "deltaTime": 72, "channel": 9, "type": "channel", "noteNumber": 75, "velocity": 127, "subtype": "noteOn" }, { "deltaTime": 0, "channel": 9, "type": "channel", "noteNumber": 42, "velocity": 66, "subtype": "noteOn" }, { "deltaTime": 0, "channel": 9, "type": "channel", "noteNumber": 70, "velocity": 51, "subtype": "noteOn" }, { "deltaTime": 24, "channel": 9, "type": "channel", "subtype": "noteOff", "noteNumber": 75, "velocity": 64 }, { "deltaTime": 0, "channel": 9, "type": "channel", "subtype": "noteOff", "noteNumber": 42, "velocity": 64 }, { "deltaTime": 0, "channel": 9, "type": "channel", "subtype": "noteOff", "noteNumber": 70, "velocity": 64 }, { "deltaTime": 72, "channel": 9, "type": "channel", "noteNumber": 35, "velocity": 80, "subtype": "noteOn" }, { "deltaTime": 0, "channel": 9, "type": "channel", "noteNumber": 42, "velocity": 50, "subtype": "noteOn" }, { "deltaTime": 0, "channel": 9, "type": "channel", "noteNumber": 70, "velocity": 35, "subtype": "noteOn" }, { "deltaTime": 24, "channel": 9, "type": "channel", "subtype": "noteOff", "noteNumber": 35, "velocity": 64 }, { "deltaTime": 0, "channel": 9, "type": "channel", "subtype": "noteOff", "noteNumber": 42, "velocity": 64 }, { "deltaTime": 0, "channel": 9, "type": "channel", "subtype": "noteOff", "noteNumber": 70, "velocity": 64 }, { "deltaTime": 72, "channel": 9, "type": "channel", "noteNumber": 35, "velocity": 80, "subtype": "noteOn" }, { "deltaTime": 0, "channel": 9, "type": "channel", "noteNumber": 42, "velocity": 66, "subtype": "noteOn" }, { "deltaTime": 0, "channel": 9, "type": "channel", "noteNumber": 70, "velocity": 51, "subtype": "noteOn" }, { "deltaTime": 24, "channel": 9, "type": "channel", "subtype": "noteOff", "noteNumber": 35, "velocity": 64 }, { "deltaTime": 0, "channel": 9, "type": "channel", "subtype": "noteOff", "noteNumber": 42, "velocity": 64 }, { "deltaTime": 0, "channel": 9, "type": "channel", "subtype": "noteOff", "noteNumber": 70, "velocity": 64 }, { "deltaTime": 72, "channel": 9, "type": "channel", "noteNumber": 42, "velocity": 50, "subtype": "noteOn" }, { "deltaTime": 0, "channel": 9, "type": "channel", "noteNumber": 70, "velocity": 35, "subtype": "noteOn" }, { "deltaTime": 24, "channel": 9, "type": "channel", "subtype": "noteOff", "noteNumber": 42, "velocity": 64 }, { "deltaTime": 0, "channel": 9, "type": "channel", "subtype": "noteOff", "noteNumber": 70, "velocity": 64 }, { "deltaTime": 72, "channel": 9, "type": "channel", "noteNumber": 75, "velocity": 127, "subtype": "noteOn" }, { "deltaTime": 0, "channel": 9, "type": "channel", "noteNumber": 42, "velocity": 66, "subtype": "noteOn" }, { "deltaTime": 0, "channel": 9, "type": "channel", "noteNumber": 70, "velocity": 51, "subtype": "noteOn" }, { "deltaTime": 24, "channel": 9, "type": "channel", "subtype": "noteOff", "noteNumber": 75, "velocity": 64 }, { "deltaTime": 0, "channel": 9, "type": "channel", "subtype": "noteOff", "noteNumber": 42, "velocity": 64 }, { "deltaTime": 0, "channel": 9, "type": "channel", "subtype": "noteOff", "noteNumber": 70, "velocity": 64 }, { "deltaTime": 72, "channel": 9, "type": "channel", "noteNumber": 42, "velocity": 50, "subtype": "noteOn" }, { "deltaTime": 0, "channel": 9, "type": "channel", "noteNumber": 70, "velocity": 35, "subtype": "noteOn" }, { "deltaTime": 24, "channel": 9, "type": "channel", "subtype": "noteOff", "noteNumber": 42, "velocity": 64 }, { "deltaTime": 0, "channel": 9, "type": "channel", "subtype": "noteOff", "noteNumber": 70, "velocity": 64 }, { "deltaTime": 72, "channel": 9, "type": "channel", "noteNumber": 35, "velocity": 80, "subtype": "noteOn" }, { "deltaTime": 0, "channel": 9, "type": "channel", "noteNumber": 42, "velocity": 66, "subtype": "noteOn" }, { "deltaTime": 0, "channel": 9, "type": "channel", "noteNumber": 70, "velocity": 51, "subtype": "noteOn" }, { "deltaTime": 24, "channel": 9, "type": "channel", "subtype": "noteOff", "noteNumber": 35, "velocity": 64 }, { "deltaTime": 0, "channel": 9, "type": "channel", "subtype": "noteOff", "noteNumber": 42, "velocity": 64 }, { "deltaTime": 0, "channel": 9, "type": "channel", "subtype": "noteOff", "noteNumber": 70, "velocity": 64 }, { "deltaTime": 72, "channel": 9, "type": "channel", "noteNumber": 42, "velocity": 50, "subtype": "noteOn" }, { "deltaTime": 0, "channel": 9, "type": "channel", "noteNumber": 70, "velocity": 35, "subtype": "noteOn" }, { "deltaTime": 24, "channel": 9, "type": "channel", "subtype": "noteOff", "noteNumber": 42, "velocity": 64 }, { "deltaTime": 0, "channel": 9, "type": "channel", "subtype": "noteOff", "noteNumber": 70, "velocity": 64 }, { "deltaTime": 72, "channel": 9, "type": "channel", "noteNumber": 75, "velocity": 127, "subtype": "noteOn" }, { "deltaTime": 0, "channel": 9, "type": "channel", "noteNumber": 42, "velocity": 66, "subtype": "noteOn" }, { "deltaTime": 0, "channel": 9, "type": "channel", "noteNumber": 70, "velocity": 51, "subtype": "noteOn" }, { "deltaTime": 24, "channel": 9, "type": "channel", "subtype": "noteOff", "noteNumber": 75, "velocity": 64 }, { "deltaTime": 0, "channel": 9, "type": "channel", "subtype": "noteOff", "noteNumber": 42, "velocity": 64 }, { "deltaTime": 0, "channel": 9, "type": "channel", "subtype": "noteOff", "noteNumber": 70, "velocity": 64 }, { "deltaTime": 72, "channel": 9, "type": "channel", "noteNumber": 35, "velocity": 80, "subtype": "noteOn" }, { "deltaTime": 0, "channel": 9, "type": "channel", "noteNumber": 42, "velocity": 50, "subtype": "noteOn" }, { "deltaTime": 0, "channel": 9, "type": "channel", "noteNumber": 70, "velocity": 35, "subtype": "noteOn" }, { "deltaTime": 24, "channel": 9, "type": "channel", "subtype": "noteOff", "noteNumber": 35, "velocity": 64 }, { "deltaTime": 0, "channel": 9, "type": "channel", "subtype": "noteOff", "noteNumber": 42, "velocity": 64 }, { "deltaTime": 0, "channel": 9, "type": "channel", "subtype": "noteOff", "noteNumber": 70, "velocity": 64 }, { "deltaTime": 72, "channel": 9, "type": "channel", "noteNumber": 35, "velocity": 80, "subtype": "noteOn" }, { "deltaTime": 0, "channel": 9, "type": "channel", "noteNumber": 42, "velocity": 66, "subtype": "noteOn" }, { "deltaTime": 0, "channel": 9, "type": "channel", "noteNumber": 70, "velocity": 51, "subtype": "noteOn" }, { "deltaTime": 24, "channel": 9, "type": "channel", "subtype": "noteOff", "noteNumber": 35, "velocity": 64 }, { "deltaTime": 0, "channel": 9, "type": "channel", "subtype": "noteOff", "noteNumber": 42, "velocity": 64 }, { "deltaTime": 0, "channel": 9, "type": "channel", "subtype": "noteOff", "noteNumber": 70, "velocity": 64 }, { "deltaTime": 72, "channel": 9, "type": "channel", "noteNumber": 42, "velocity": 50, "subtype": "noteOn" }, { "deltaTime": 0, "channel": 9, "type": "channel", "noteNumber": 70, "velocity": 35, "subtype": "noteOn" }, { "deltaTime": 24, "channel": 9, "type": "channel", "subtype": "noteOff", "noteNumber": 42, "velocity": 64 }, { "deltaTime": 0, "channel": 9, "type": "channel", "subtype": "noteOff", "noteNumber": 70, "velocity": 64 }, { "deltaTime": 72, "channel": 9, "type": "channel", "noteNumber": 75, "velocity": 127, "subtype": "noteOn" }, { "deltaTime": 0, "channel": 9, "type": "channel", "noteNumber": 42, "velocity": 66, "subtype": "noteOn" }, { "deltaTime": 0, "channel": 9, "type": "channel", "noteNumber": 70, "velocity": 51, "subtype": "noteOn" }, { "deltaTime": 24, "channel": 9, "type": "channel", "subtype": "noteOff", "noteNumber": 75, "velocity": 64 }, { "deltaTime": 0, "channel": 9, "type": "channel", "subtype": "noteOff", "noteNumber": 42, "velocity": 64 }, { "deltaTime": 0, "channel": 9, "type": "channel", "subtype": "noteOff", "noteNumber": 70, "velocity": 64 }, { "deltaTime": 72, "channel": 9, "type": "channel", "noteNumber": 42, "velocity": 50, "subtype": "noteOn" }, { "deltaTime": 0, "channel": 9, "type": "channel", "noteNumber": 70, "velocity": 35, "subtype": "noteOn" }, { "deltaTime": 24, "channel": 9, "type": "channel", "subtype": "noteOff", "noteNumber": 42, "velocity": 64 }, { "deltaTime": 0, "channel": 9, "type": "channel", "subtype": "noteOff", "noteNumber": 70, "velocity": 64 }, { "deltaTime": 72, "channel": 9, "type": "channel", "noteNumber": 35, "velocity": 80, "subtype": "noteOn" }, { "deltaTime": 0, "channel": 9, "type": "channel", "noteNumber": 42, "velocity": 66, "subtype": "noteOn" }, { "deltaTime": 0, "channel": 9, "type": "channel", "noteNumber": 70, "velocity": 51, "subtype": "noteOn" }, { "deltaTime": 24, "channel": 9, "type": "channel", "subtype": "noteOff", "noteNumber": 35, "velocity": 64 }, { "deltaTime": 0, "channel": 9, "type": "channel", "subtype": "noteOff", "noteNumber": 42, "velocity": 64 }, { "deltaTime": 0, "channel": 9, "type": "channel", "subtype": "noteOff", "noteNumber": 70, "velocity": 64 }, { "deltaTime": 72, "channel": 9, "type": "channel", "noteNumber": 42, "velocity": 50, "subtype": "noteOn" }, { "deltaTime": 0, "channel": 9, "type": "channel", "noteNumber": 70, "velocity": 35, "subtype": "noteOn" }, { "deltaTime": 24, "channel": 9, "type": "channel", "subtype": "noteOff", "noteNumber": 42, "velocity": 64 }, { "deltaTime": 0, "channel": 9, "type": "channel", "subtype": "noteOff", "noteNumber": 70, "velocity": 64 }, { "deltaTime": 72, "channel": 9, "type": "channel", "noteNumber": 75, "velocity": 127, "subtype": "noteOn" }, { "deltaTime": 0, "channel": 9, "type": "channel", "noteNumber": 42, "velocity": 66, "subtype": "noteOn" }, { "deltaTime": 0, "channel": 9, "type": "channel", "noteNumber": 70, "velocity": 51, "subtype": "noteOn" }, { "deltaTime": 24, "channel": 9, "type": "channel", "subtype": "noteOff", "noteNumber": 75, "velocity": 64 }, { "deltaTime": 0, "channel": 9, "type": "channel", "subtype": "noteOff", "noteNumber": 42, "velocity": 64 }, { "deltaTime": 0, "channel": 9, "type": "channel", "subtype": "noteOff", "noteNumber": 70, "velocity": 64 }, { "deltaTime": 72, "channel": 9, "type": "channel", "noteNumber": 35, "velocity": 80, "subtype": "noteOn" }, { "deltaTime": 0, "channel": 9, "type": "channel", "noteNumber": 42, "velocity": 50, "subtype": "noteOn" }, { "deltaTime": 0, "channel": 9, "type": "channel", "noteNumber": 70, "velocity": 35, "subtype": "noteOn" }, { "deltaTime": 24, "channel": 9, "type": "channel", "subtype": "noteOff", "noteNumber": 35, "velocity": 64 }, { "deltaTime": 0, "channel": 9, "type": "channel", "subtype": "noteOff", "noteNumber": 42, "velocity": 64 }, { "deltaTime": 0, "channel": 9, "type": "channel", "subtype": "noteOff", "noteNumber": 70, "velocity": 64 }, { "deltaTime": 72, "channel": 9, "type": "channel", "noteNumber": 35, "velocity": 80, "subtype": "noteOn" }, { "deltaTime": 0, "channel": 9, "type": "channel", "noteNumber": 42, "velocity": 66, "subtype": "noteOn" }, { "deltaTime": 0, "channel": 9, "type": "channel", "noteNumber": 70, "velocity": 51, "subtype": "noteOn" }, { "deltaTime": 24, "channel": 9, "type": "channel", "subtype": "noteOff", "noteNumber": 35, "velocity": 64 }, { "deltaTime": 0, "channel": 9, "type": "channel", "subtype": "noteOff", "noteNumber": 42, "velocity": 64 }, { "deltaTime": 0, "channel": 9, "type": "channel", "subtype": "noteOff", "noteNumber": 70, "velocity": 64 }, { "deltaTime": 72, "channel": 9, "type": "channel", "noteNumber": 42, "velocity": 50, "subtype": "noteOn" }, { "deltaTime": 0, "channel": 9, "type": "channel", "noteNumber": 70, "velocity": 35, "subtype": "noteOn" }, { "deltaTime": 24, "channel": 9, "type": "channel", "subtype": "noteOff", "noteNumber": 42, "velocity": 64 }, { "deltaTime": 0, "channel": 9, "type": "channel", "subtype": "noteOff", "noteNumber": 70, "velocity": 64 }, { "deltaTime": 72, "channel": 9, "type": "channel", "noteNumber": 75, "velocity": 127, "subtype": "noteOn" }, { "deltaTime": 0, "channel": 9, "type": "channel", "noteNumber": 42, "velocity": 66, "subtype": "noteOn" }, { "deltaTime": 0, "channel": 9, "type": "channel", "noteNumber": 70, "velocity": 51, "subtype": "noteOn" }, { "deltaTime": 24, "channel": 9, "type": "channel", "subtype": "noteOff", "noteNumber": 75, "velocity": 64 }, { "deltaTime": 0, "channel": 9, "type": "channel", "subtype": "noteOff", "noteNumber": 42, "velocity": 64 }, { "deltaTime": 0, "channel": 9, "type": "channel", "subtype": "noteOff", "noteNumber": 70, "velocity": 64 }, { "deltaTime": 72, "channel": 9, "type": "channel", "noteNumber": 42, "velocity": 50, "subtype": "noteOn" }, { "deltaTime": 0, "channel": 9, "type": "channel", "noteNumber": 70, "velocity": 35, "subtype": "noteOn" }, { "deltaTime": 24, "channel": 9, "type": "channel", "subtype": "noteOff", "noteNumber": 42, "velocity": 64 }, { "deltaTime": 0, "channel": 9, "type": "channel", "subtype": "noteOff", "noteNumber": 70, "velocity": 64 }, { "deltaTime": 72, "channel": 9, "type": "channel", "noteNumber": 35, "velocity": 80, "subtype": "noteOn" }, { "deltaTime": 0, "channel": 9, "type": "channel", "noteNumber": 42, "velocity": 66, "subtype": "noteOn" }, { "deltaTime": 0, "channel": 9, "type": "channel", "noteNumber": 70, "velocity": 51, "subtype": "noteOn" }, { "deltaTime": 24, "channel": 9, "type": "channel", "subtype": "noteOff", "noteNumber": 35, "velocity": 64 }, { "deltaTime": 0, "channel": 9, "type": "channel", "subtype": "noteOff", "noteNumber": 42, "velocity": 64 }, { "deltaTime": 0, "channel": 9, "type": "channel", "subtype": "noteOff", "noteNumber": 70, "velocity": 64 }, { "deltaTime": 72, "channel": 9, "type": "channel", "noteNumber": 42, "velocity": 50, "subtype": "noteOn" }, { "deltaTime": 0, "channel": 9, "type": "channel", "noteNumber": 70, "velocity": 35, "subtype": "noteOn" }, { "deltaTime": 24, "channel": 9, "type": "channel", "subtype": "noteOff", "noteNumber": 42, "velocity": 64 }, { "deltaTime": 0, "channel": 9, "type": "channel", "subtype": "noteOff", "noteNumber": 70, "velocity": 64 }, { "deltaTime": 72, "channel": 9, "type": "channel", "noteNumber": 75, "velocity": 127, "subtype": "noteOn" }, { "deltaTime": 0, "channel": 9, "type": "channel", "noteNumber": 42, "velocity": 66, "subtype": "noteOn" }, { "deltaTime": 0, "channel": 9, "type": "channel", "noteNumber": 70, "velocity": 51, "subtype": "noteOn" }, { "deltaTime": 24, "channel": 9, "type": "channel", "subtype": "noteOff", "noteNumber": 75, "velocity": 64 }, { "deltaTime": 0, "channel": 9, "type": "channel", "subtype": "noteOff", "noteNumber": 42, "velocity": 64 }, { "deltaTime": 0, "channel": 9, "type": "channel", "subtype": "noteOff", "noteNumber": 70, "velocity": 64 }, { "deltaTime": 72, "channel": 9, "type": "channel", "noteNumber": 35, "velocity": 80, "subtype": "noteOn" }, { "deltaTime": 0, "channel": 9, "type": "channel", "noteNumber": 42, "velocity": 50, "subtype": "noteOn" }, { "deltaTime": 0, "channel": 9, "type": "channel", "noteNumber": 70, "velocity": 35, "subtype": "noteOn" }, { "deltaTime": 24, "channel": 9, "type": "channel", "subtype": "noteOff", "noteNumber": 35, "velocity": 64 }, { "deltaTime": 0, "channel": 9, "type": "channel", "subtype": "noteOff", "noteNumber": 42, "velocity": 64 }, { "deltaTime": 0, "channel": 9, "type": "channel", "subtype": "noteOff", "noteNumber": 70, "velocity": 64 }, { "deltaTime": 72, "channel": 9, "type": "channel", "noteNumber": 35, "velocity": 80, "subtype": "noteOn" }, { "deltaTime": 0, "channel": 9, "type": "channel", "noteNumber": 42, "velocity": 66, "subtype": "noteOn" }, { "deltaTime": 0, "channel": 9, "type": "channel", "noteNumber": 70, "velocity": 51, "subtype": "noteOn" }, { "deltaTime": 24, "channel": 9, "type": "channel", "subtype": "noteOff", "noteNumber": 35, "velocity": 64 }, { "deltaTime": 0, "channel": 9, "type": "channel", "subtype": "noteOff", "noteNumber": 42, "velocity": 64 }, { "deltaTime": 0, "channel": 9, "type": "channel", "subtype": "noteOff", "noteNumber": 70, "velocity": 64 }, { "deltaTime": 72, "channel": 9, "type": "channel", "noteNumber": 42, "velocity": 50, "subtype": "noteOn" }, { "deltaTime": 0, "channel": 9, "type": "channel", "noteNumber": 70, "velocity": 35, "subtype": "noteOn" }, { "deltaTime": 24, "channel": 9, "type": "channel", "subtype": "noteOff", "noteNumber": 42, "velocity": 64 }, { "deltaTime": 0, "channel": 9, "type": "channel", "subtype": "noteOff", "noteNumber": 70, "velocity": 64 }, { "deltaTime": 72, "channel": 9, "type": "channel", "noteNumber": 75, "velocity": 127, "subtype": "noteOn" }, { "deltaTime": 0, "channel": 9, "type": "channel", "noteNumber": 42, "velocity": 66, "subtype": "noteOn" }, { "deltaTime": 0, "channel": 9, "type": "channel", "noteNumber": 70, "velocity": 51, "subtype": "noteOn" }, { "deltaTime": 24, "channel": 9, "type": "channel", "subtype": "noteOff", "noteNumber": 75, "velocity": 64 }, { "deltaTime": 0, "channel": 9, "type": "channel", "subtype": "noteOff", "noteNumber": 42, "velocity": 64 }, { "deltaTime": 0, "channel": 9, "type": "channel", "subtype": "noteOff", "noteNumber": 70, "velocity": 64 }, { "deltaTime": 72, "channel": 9, "type": "channel", "noteNumber": 42, "velocity": 50, "subtype": "noteOn" }, { "deltaTime": 0, "channel": 9, "type": "channel", "noteNumber": 70, "velocity": 35, "subtype": "noteOn" }, { "deltaTime": 24, "channel": 9, "type": "channel", "subtype": "noteOff", "noteNumber": 42, "velocity": 64 }, { "deltaTime": 0, "channel": 9, "type": "channel", "subtype": "noteOff", "noteNumber": 70, "velocity": 64 }, { "deltaTime": 72, "channel": 9, "type": "channel", "noteNumber": 35, "velocity": 80, "subtype": "noteOn" }, { "deltaTime": 0, "channel": 9, "type": "channel", "noteNumber": 42, "velocity": 66, "subtype": "noteOn" }, { "deltaTime": 0, "channel": 9, "type": "channel", "noteNumber": 70, "velocity": 51, "subtype": "noteOn" }, { "deltaTime": 24, "channel": 9, "type": "channel", "subtype": "noteOff", "noteNumber": 35, "velocity": 64 }, { "deltaTime": 0, "channel": 9, "type": "channel", "subtype": "noteOff", "noteNumber": 42, "velocity": 64 }, { "deltaTime": 0, "channel": 9, "type": "channel", "subtype": "noteOff", "noteNumber": 70, "velocity": 64 }, { "deltaTime": 72, "channel": 9, "type": "channel", "noteNumber": 42, "velocity": 50, "subtype": "noteOn" }, { "deltaTime": 0, "channel": 9, "type": "channel", "noteNumber": 70, "velocity": 35, "subtype": "noteOn" }, { "deltaTime": 24, "channel": 9, "type": "channel", "subtype": "noteOff", "noteNumber": 42, "velocity": 64 }, { "deltaTime": 0, "channel": 9, "type": "channel", "subtype": "noteOff", "noteNumber": 70, "velocity": 64 }, { "deltaTime": 72, "channel": 9, "type": "channel", "noteNumber": 75, "velocity": 127, "subtype": "noteOn" }, { "deltaTime": 0, "channel": 9, "type": "channel", "noteNumber": 42, "velocity": 66, "subtype": "noteOn" }, { "deltaTime": 0, "channel": 9, "type": "channel", "noteNumber": 70, "velocity": 51, "subtype": "noteOn" }, { "deltaTime": 24, "channel": 9, "type": "channel", "subtype": "noteOff", "noteNumber": 75, "velocity": 64 }, { "deltaTime": 0, "channel": 9, "type": "channel", "subtype": "noteOff", "noteNumber": 42, "velocity": 64 }, { "deltaTime": 0, "channel": 9, "type": "channel", "subtype": "noteOff", "noteNumber": 70, "velocity": 64 }, { "deltaTime": 72, "channel": 9, "type": "channel", "noteNumber": 35, "velocity": 80, "subtype": "noteOn" }, { "deltaTime": 0, "channel": 9, "type": "channel", "noteNumber": 42, "velocity": 50, "subtype": "noteOn" }, { "deltaTime": 0, "channel": 9, "type": "channel", "noteNumber": 70, "velocity": 35, "subtype": "noteOn" }, { "deltaTime": 24, "channel": 9, "type": "channel", "subtype": "noteOff", "noteNumber": 35, "velocity": 64 }, { "deltaTime": 0, "channel": 9, "type": "channel", "subtype": "noteOff", "noteNumber": 42, "velocity": 64 }, { "deltaTime": 0, "channel": 9, "type": "channel", "subtype": "noteOff", "noteNumber": 70, "velocity": 64 }, { "deltaTime": 72, "channel": 9, "type": "channel", "noteNumber": 35, "velocity": 80, "subtype": "noteOn" }, { "deltaTime": 0, "channel": 9, "type": "channel", "noteNumber": 42, "velocity": 66, "subtype": "noteOn" }, { "deltaTime": 0, "channel": 9, "type": "channel", "noteNumber": 70, "velocity": 51, "subtype": "noteOn" }, { "deltaTime": 24, "channel": 9, "type": "channel", "subtype": "noteOff", "noteNumber": 35, "velocity": 64 }, { "deltaTime": 0, "channel": 9, "type": "channel", "subtype": "noteOff", "noteNumber": 42, "velocity": 64 }, { "deltaTime": 0, "channel": 9, "type": "channel", "subtype": "noteOff", "noteNumber": 70, "velocity": 64 }, { "deltaTime": 72, "channel": 9, "type": "channel", "noteNumber": 42, "velocity": 50, "subtype": "noteOn" }, { "deltaTime": 0, "channel": 9, "type": "channel", "noteNumber": 70, "velocity": 35, "subtype": "noteOn" }, { "deltaTime": 24, "channel": 9, "type": "channel", "subtype": "noteOff", "noteNumber": 42, "velocity": 64 }, { "deltaTime": 0, "channel": 9, "type": "channel", "subtype": "noteOff", "noteNumber": 70, "velocity": 64 }, { "deltaTime": 72, "channel": 9, "type": "channel", "noteNumber": 75, "velocity": 127, "subtype": "noteOn" }, { "deltaTime": 0, "channel": 9, "type": "channel", "noteNumber": 42, "velocity": 66, "subtype": "noteOn" }, { "deltaTime": 0, "channel": 9, "type": "channel", "noteNumber": 70, "velocity": 51, "subtype": "noteOn" }, { "deltaTime": 24, "channel": 9, "type": "channel", "subtype": "noteOff", "noteNumber": 75, "velocity": 64 }, { "deltaTime": 0, "channel": 9, "type": "channel", "subtype": "noteOff", "noteNumber": 42, "velocity": 64 }, { "deltaTime": 0, "channel": 9, "type": "channel", "subtype": "noteOff", "noteNumber": 70, "velocity": 64 }, { "deltaTime": 72, "channel": 9, "type": "channel", "noteNumber": 42, "velocity": 50, "subtype": "noteOn" }, { "deltaTime": 0, "channel": 9, "type": "channel", "noteNumber": 70, "velocity": 35, "subtype": "noteOn" }, { "deltaTime": 24, "channel": 9, "type": "channel", "subtype": "noteOff", "noteNumber": 42, "velocity": 64 }, { "deltaTime": 0, "channel": 9, "type": "channel", "subtype": "noteOff", "noteNumber": 70, "velocity": 64 }, { "deltaTime": 72, "channel": 9, "type": "channel", "noteNumber": 35, "velocity": 80, "subtype": "noteOn" }, { "deltaTime": 0, "channel": 9, "type": "channel", "noteNumber": 42, "velocity": 66, "subtype": "noteOn" }, { "deltaTime": 0, "channel": 9, "type": "channel", "noteNumber": 70, "velocity": 51, "subtype": "noteOn" }, { "deltaTime": 24, "channel": 9, "type": "channel", "subtype": "noteOff", "noteNumber": 35, "velocity": 64 }, { "deltaTime": 0, "channel": 9, "type": "channel", "subtype": "noteOff", "noteNumber": 42, "velocity": 64 }, { "deltaTime": 0, "channel": 9, "type": "channel", "subtype": "noteOff", "noteNumber": 70, "velocity": 64 }, { "deltaTime": 72, "channel": 9, "type": "channel", "noteNumber": 42, "velocity": 50, "subtype": "noteOn" }, { "deltaTime": 0, "channel": 9, "type": "channel", "noteNumber": 70, "velocity": 35, "subtype": "noteOn" }, { "deltaTime": 24, "channel": 9, "type": "channel", "subtype": "noteOff", "noteNumber": 42, "velocity": 64 }, { "deltaTime": 0, "channel": 9, "type": "channel", "subtype": "noteOff", "noteNumber": 70, "velocity": 64 }, { "deltaTime": 72, "channel": 9, "type": "channel", "noteNumber": 75, "velocity": 127, "subtype": "noteOn" }, { "deltaTime": 0, "channel": 9, "type": "channel", "noteNumber": 42, "velocity": 66, "subtype": "noteOn" }, { "deltaTime": 0, "channel": 9, "type": "channel", "noteNumber": 70, "velocity": 51, "subtype": "noteOn" }, { "deltaTime": 24, "channel": 9, "type": "channel", "subtype": "noteOff", "noteNumber": 75, "velocity": 64 }, { "deltaTime": 0, "channel": 9, "type": "channel", "subtype": "noteOff", "noteNumber": 42, "velocity": 64 }, { "deltaTime": 0, "channel": 9, "type": "channel", "subtype": "noteOff", "noteNumber": 70, "velocity": 64 }, { "deltaTime": 72, "channel": 9, "type": "channel", "noteNumber": 35, "velocity": 80, "subtype": "noteOn" }, { "deltaTime": 0, "channel": 9, "type": "channel", "noteNumber": 42, "velocity": 50, "subtype": "noteOn" }, { "deltaTime": 0, "channel": 9, "type": "channel", "noteNumber": 70, "velocity": 35, "subtype": "noteOn" }, { "deltaTime": 24, "channel": 9, "type": "channel", "subtype": "noteOff", "noteNumber": 35, "velocity": 64 }, { "deltaTime": 0, "channel": 9, "type": "channel", "subtype": "noteOff", "noteNumber": 42, "velocity": 64 }, { "deltaTime": 0, "channel": 9, "type": "channel", "subtype": "noteOff", "noteNumber": 70, "velocity": 64 }, { "deltaTime": 72, "channel": 9, "type": "channel", "noteNumber": 35, "velocity": 80, "subtype": "noteOn" }, { "deltaTime": 0, "channel": 9, "type": "channel", "noteNumber": 42, "velocity": 66, "subtype": "noteOn" }, { "deltaTime": 0, "channel": 9, "type": "channel", "noteNumber": 70, "velocity": 51, "subtype": "noteOn" }, { "deltaTime": 24, "channel": 9, "type": "channel", "subtype": "noteOff", "noteNumber": 35, "velocity": 64 }, { "deltaTime": 0, "channel": 9, "type": "channel", "subtype": "noteOff", "noteNumber": 42, "velocity": 64 }, { "deltaTime": 0, "channel": 9, "type": "channel", "subtype": "noteOff", "noteNumber": 70, "velocity": 64 }, { "deltaTime": 72, "channel": 9, "type": "channel", "noteNumber": 42, "velocity": 50, "subtype": "noteOn" }, { "deltaTime": 0, "channel": 9, "type": "channel", "noteNumber": 70, "velocity": 35, "subtype": "noteOn" }, { "deltaTime": 24, "channel": 9, "type": "channel", "subtype": "noteOff", "noteNumber": 42, "velocity": 64 }, { "deltaTime": 0, "channel": 9, "type": "channel", "subtype": "noteOff", "noteNumber": 70, "velocity": 64 }, { "deltaTime": 72, "channel": 9, "type": "channel", "noteNumber": 75, "velocity": 127, "subtype": "noteOn" }, { "deltaTime": 0, "channel": 9, "type": "channel", "noteNumber": 42, "velocity": 66, "subtype": "noteOn" }, { "deltaTime": 0, "channel": 9, "type": "channel", "noteNumber": 70, "velocity": 51, "subtype": "noteOn" }, { "deltaTime": 24, "channel": 9, "type": "channel", "subtype": "noteOff", "noteNumber": 75, "velocity": 64 }, { "deltaTime": 0, "channel": 9, "type": "channel", "subtype": "noteOff", "noteNumber": 42, "velocity": 64 }, { "deltaTime": 0, "channel": 9, "type": "channel", "subtype": "noteOff", "noteNumber": 70, "velocity": 64 }, { "deltaTime": 72, "channel": 9, "type": "channel", "noteNumber": 42, "velocity": 50, "subtype": "noteOn" }, { "deltaTime": 0, "channel": 9, "type": "channel", "noteNumber": 70, "velocity": 35, "subtype": "noteOn" }, { "deltaTime": 24, "channel": 9, "type": "channel", "subtype": "noteOff", "noteNumber": 42, "velocity": 64 }, { "deltaTime": 0, "channel": 9, "type": "channel", "subtype": "noteOff", "noteNumber": 70, "velocity": 64 }, { "deltaTime": 72, "channel": 9, "type": "channel", "noteNumber": 35, "velocity": 80, "subtype": "noteOn" }, { "deltaTime": 0, "channel": 9, "type": "channel", "noteNumber": 42, "velocity": 66, "subtype": "noteOn" }, { "deltaTime": 0, "channel": 9, "type": "channel", "noteNumber": 70, "velocity": 51, "subtype": "noteOn" }, { "deltaTime": 24, "channel": 9, "type": "channel", "subtype": "noteOff", "noteNumber": 35, "velocity": 64 }, { "deltaTime": 0, "channel": 9, "type": "channel", "subtype": "noteOff", "noteNumber": 42, "velocity": 64 }, { "deltaTime": 0, "channel": 9, "type": "channel", "subtype": "noteOff", "noteNumber": 70, "velocity": 64 }, { "deltaTime": 72, "channel": 9, "type": "channel", "noteNumber": 42, "velocity": 50, "subtype": "noteOn" }, { "deltaTime": 0, "channel": 9, "type": "channel", "noteNumber": 70, "velocity": 35, "subtype": "noteOn" }, { "deltaTime": 24, "channel": 9, "type": "channel", "subtype": "noteOff", "noteNumber": 42, "velocity": 64 }, { "deltaTime": 0, "channel": 9, "type": "channel", "subtype": "noteOff", "noteNumber": 70, "velocity": 64 }, { "deltaTime": 72, "channel": 9, "type": "channel", "noteNumber": 75, "velocity": 127, "subtype": "noteOn" }, { "deltaTime": 0, "channel": 9, "type": "channel", "noteNumber": 42, "velocity": 66, "subtype": "noteOn" }, { "deltaTime": 0, "channel": 9, "type": "channel", "noteNumber": 70, "velocity": 51, "subtype": "noteOn" }, { "deltaTime": 24, "channel": 9, "type": "channel", "subtype": "noteOff", "noteNumber": 75, "velocity": 64 }, { "deltaTime": 0, "channel": 9, "type": "channel", "subtype": "noteOff", "noteNumber": 42, "velocity": 64 }, { "deltaTime": 0, "channel": 9, "type": "channel", "subtype": "noteOff", "noteNumber": 70, "velocity": 64 }, { "deltaTime": 72, "channel": 9, "type": "channel", "noteNumber": 35, "velocity": 80, "subtype": "noteOn" }, { "deltaTime": 0, "channel": 9, "type": "channel", "noteNumber": 42, "velocity": 50, "subtype": "noteOn" }, { "deltaTime": 0, "channel": 9, "type": "channel", "noteNumber": 70, "velocity": 35, "subtype": "noteOn" }, { "deltaTime": 24, "channel": 9, "type": "channel", "subtype": "noteOff", "noteNumber": 35, "velocity": 64 }, { "deltaTime": 0, "channel": 9, "type": "channel", "subtype": "noteOff", "noteNumber": 42, "velocity": 64 }, { "deltaTime": 0, "channel": 9, "type": "channel", "subtype": "noteOff", "noteNumber": 70, "velocity": 64 }, { "deltaTime": 72, "channel": 9, "type": "channel", "noteNumber": 35, "velocity": 80, "subtype": "noteOn" }, { "deltaTime": 0, "channel": 9, "type": "channel", "noteNumber": 42, "velocity": 66, "subtype": "noteOn" }, { "deltaTime": 0, "channel": 9, "type": "channel", "noteNumber": 70, "velocity": 51, "subtype": "noteOn" }, { "deltaTime": 24, "channel": 9, "type": "channel", "subtype": "noteOff", "noteNumber": 35, "velocity": 64 }, { "deltaTime": 0, "channel": 9, "type": "channel", "subtype": "noteOff", "noteNumber": 42, "velocity": 64 }, { "deltaTime": 0, "channel": 9, "type": "channel", "subtype": "noteOff", "noteNumber": 70, "velocity": 64 }, { "deltaTime": 72, "channel": 9, "type": "channel", "noteNumber": 42, "velocity": 50, "subtype": "noteOn" }, { "deltaTime": 0, "channel": 9, "type": "channel", "noteNumber": 70, "velocity": 35, "subtype": "noteOn" }, { "deltaTime": 24, "channel": 9, "type": "channel", "subtype": "noteOff", "noteNumber": 42, "velocity": 64 }, { "deltaTime": 0, "channel": 9, "type": "channel", "subtype": "noteOff", "noteNumber": 70, "velocity": 64 }, { "deltaTime": 72, "channel": 9, "type": "channel", "noteNumber": 75, "velocity": 127, "subtype": "noteOn" }, { "deltaTime": 0, "channel": 9, "type": "channel", "noteNumber": 42, "velocity": 66, "subtype": "noteOn" }, { "deltaTime": 0, "channel": 9, "type": "channel", "noteNumber": 70, "velocity": 51, "subtype": "noteOn" }, { "deltaTime": 24, "channel": 9, "type": "channel", "subtype": "noteOff", "noteNumber": 75, "velocity": 64 }, { "deltaTime": 0, "channel": 9, "type": "channel", "subtype": "noteOff", "noteNumber": 42, "velocity": 64 }, { "deltaTime": 0, "channel": 9, "type": "channel", "subtype": "noteOff", "noteNumber": 70, "velocity": 64 }, { "deltaTime": 72, "channel": 9, "type": "channel", "noteNumber": 42, "velocity": 50, "subtype": "noteOn" }, { "deltaTime": 0, "channel": 9, "type": "channel", "noteNumber": 70, "velocity": 35, "subtype": "noteOn" }, { "deltaTime": 24, "channel": 9, "type": "channel", "subtype": "noteOff", "noteNumber": 42, "velocity": 64 }, { "deltaTime": 0, "channel": 9, "type": "channel", "subtype": "noteOff", "noteNumber": 70, "velocity": 64 }, { "deltaTime": 72, "channel": 9, "type": "channel", "noteNumber": 35, "velocity": 80, "subtype": "noteOn" }, { "deltaTime": 0, "channel": 9, "type": "channel", "noteNumber": 42, "velocity": 66, "subtype": "noteOn" }, { "deltaTime": 0, "channel": 9, "type": "channel", "noteNumber": 70, "velocity": 51, "subtype": "noteOn" }, { "deltaTime": 24, "channel": 9, "type": "channel", "subtype": "noteOff", "noteNumber": 35, "velocity": 64 }, { "deltaTime": 0, "channel": 9, "type": "channel", "subtype": "noteOff", "noteNumber": 42, "velocity": 64 }, { "deltaTime": 0, "channel": 9, "type": "channel", "subtype": "noteOff", "noteNumber": 70, "velocity": 64 }, { "deltaTime": 72, "channel": 9, "type": "channel", "noteNumber": 42, "velocity": 50, "subtype": "noteOn" }, { "deltaTime": 0, "channel": 9, "type": "channel", "noteNumber": 70, "velocity": 35, "subtype": "noteOn" }, { "deltaTime": 24, "channel": 9, "type": "channel", "subtype": "noteOff", "noteNumber": 42, "velocity": 64 }, { "deltaTime": 0, "channel": 9, "type": "channel", "subtype": "noteOff", "noteNumber": 70, "velocity": 64 }, { "deltaTime": 72, "channel": 9, "type": "channel", "noteNumber": 75, "velocity": 127, "subtype": "noteOn" }, { "deltaTime": 0, "channel": 9, "type": "channel", "noteNumber": 42, "velocity": 66, "subtype": "noteOn" }, { "deltaTime": 0, "channel": 9, "type": "channel", "noteNumber": 70, "velocity": 51, "subtype": "noteOn" }, { "deltaTime": 24, "channel": 9, "type": "channel", "subtype": "noteOff", "noteNumber": 75, "velocity": 64 }, { "deltaTime": 0, "channel": 9, "type": "channel", "subtype": "noteOff", "noteNumber": 42, "velocity": 64 }, { "deltaTime": 0, "channel": 9, "type": "channel", "subtype": "noteOff", "noteNumber": 70, "velocity": 64 }, { "deltaTime": 72, "channel": 9, "type": "channel", "noteNumber": 35, "velocity": 80, "subtype": "noteOn" }, { "deltaTime": 0, "channel": 9, "type": "channel", "noteNumber": 42, "velocity": 50, "subtype": "noteOn" }, { "deltaTime": 0, "channel": 9, "type": "channel", "noteNumber": 70, "velocity": 35, "subtype": "noteOn" }, { "deltaTime": 24, "channel": 9, "type": "channel", "subtype": "noteOff", "noteNumber": 35, "velocity": 64 }, { "deltaTime": 0, "channel": 9, "type": "channel", "subtype": "noteOff", "noteNumber": 42, "velocity": 64 }, { "deltaTime": 0, "channel": 9, "type": "channel", "subtype": "noteOff", "noteNumber": 70, "velocity": 64 }, { "deltaTime": 72, "channel": 9, "type": "channel", "noteNumber": 35, "velocity": 80, "subtype": "noteOn" }, { "deltaTime": 0, "channel": 9, "type": "channel", "noteNumber": 42, "velocity": 66, "subtype": "noteOn" }, { "deltaTime": 0, "channel": 9, "type": "channel", "noteNumber": 70, "velocity": 51, "subtype": "noteOn" }, { "deltaTime": 24, "channel": 9, "type": "channel", "subtype": "noteOff", "noteNumber": 35, "velocity": 64 }, { "deltaTime": 0, "channel": 9, "type": "channel", "subtype": "noteOff", "noteNumber": 42, "velocity": 64 }, { "deltaTime": 0, "channel": 9, "type": "channel", "subtype": "noteOff", "noteNumber": 70, "velocity": 64 }, { "deltaTime": 72, "channel": 9, "type": "channel", "noteNumber": 42, "velocity": 50, "subtype": "noteOn" }, { "deltaTime": 0, "channel": 9, "type": "channel", "noteNumber": 70, "velocity": 35, "subtype": "noteOn" }, { "deltaTime": 24, "channel": 9, "type": "channel", "subtype": "noteOff", "noteNumber": 42, "velocity": 64 }, { "deltaTime": 0, "channel": 9, "type": "channel", "subtype": "noteOff", "noteNumber": 70, "velocity": 64 }, { "deltaTime": 72, "channel": 9, "type": "channel", "noteNumber": 75, "velocity": 127, "subtype": "noteOn" }, { "deltaTime": 0, "channel": 9, "type": "channel", "noteNumber": 42, "velocity": 66, "subtype": "noteOn" }, { "deltaTime": 0, "channel": 9, "type": "channel", "noteNumber": 70, "velocity": 51, "subtype": "noteOn" }, { "deltaTime": 24, "channel": 9, "type": "channel", "subtype": "noteOff", "noteNumber": 75, "velocity": 64 }, { "deltaTime": 0, "channel": 9, "type": "channel", "subtype": "noteOff", "noteNumber": 42, "velocity": 64 }, { "deltaTime": 0, "channel": 9, "type": "channel", "subtype": "noteOff", "noteNumber": 70, "velocity": 64 }, { "deltaTime": 72, "channel": 9, "type": "channel", "noteNumber": 42, "velocity": 50, "subtype": "noteOn" }, { "deltaTime": 0, "channel": 9, "type": "channel", "noteNumber": 70, "velocity": 35, "subtype": "noteOn" }, { "deltaTime": 24, "channel": 9, "type": "channel", "subtype": "noteOff", "noteNumber": 42, "velocity": 64 }, { "deltaTime": 0, "channel": 9, "type": "channel", "subtype": "noteOff", "noteNumber": 70, "velocity": 64 }, { "deltaTime": 72, "channel": 9, "type": "channel", "noteNumber": 35, "velocity": 80, "subtype": "noteOn" }, { "deltaTime": 0, "channel": 9, "type": "channel", "noteNumber": 49, "velocity": 96, "subtype": "noteOn" }, { "deltaTime": 24, "channel": 9, "type": "channel", "subtype": "noteOff", "noteNumber": 35, "velocity": 64 }, { "deltaTime": 0, "channel": 9, "type": "channel", "subtype": "noteOff", "noteNumber": 49, "velocity": 64 }, { "deltaTime": 1512, "channel": 9, "type": "channel", "noteNumber": 35, "velocity": 80, "subtype": "noteOn" }, { "deltaTime": 0, "channel": 9, "type": "channel", "noteNumber": 42, "velocity": 66, "subtype": "noteOn" }, { "deltaTime": 0, "channel": 9, "type": "channel", "noteNumber": 70, "velocity": 51, "subtype": "noteOn" }, { "deltaTime": 24, "channel": 9, "type": "channel", "subtype": "noteOff", "noteNumber": 35, "velocity": 64 }, { "deltaTime": 0, "channel": 9, "type": "channel", "subtype": "noteOff", "noteNumber": 42, "velocity": 64 }, { "deltaTime": 0, "channel": 9, "type": "channel", "subtype": "noteOff", "noteNumber": 70, "velocity": 64 }, { "deltaTime": 72, "channel": 9, "type": "channel", "noteNumber": 42, "velocity": 50, "subtype": "noteOn" }, { "deltaTime": 0, "channel": 9, "type": "channel", "noteNumber": 70, "velocity": 35, "subtype": "noteOn" }, { "deltaTime": 24, "channel": 9, "type": "channel", "subtype": "noteOff", "noteNumber": 42, "velocity": 64 }, { "deltaTime": 0, "channel": 9, "type": "channel", "subtype": "noteOff", "noteNumber": 70, "velocity": 64 }, { "deltaTime": 72, "channel": 9, "type": "channel", "noteNumber": 75, "velocity": 127, "subtype": "noteOn" }, { "deltaTime": 0, "channel": 9, "type": "channel", "noteNumber": 42, "velocity": 66, "subtype": "noteOn" }, { "deltaTime": 0, "channel": 9, "type": "channel", "noteNumber": 70, "velocity": 51, "subtype": "noteOn" }, { "deltaTime": 24, "channel": 9, "type": "channel", "subtype": "noteOff", "noteNumber": 75, "velocity": 64 }, { "deltaTime": 0, "channel": 9, "type": "channel", "subtype": "noteOff", "noteNumber": 42, "velocity": 64 }, { "deltaTime": 0, "channel": 9, "type": "channel", "subtype": "noteOff", "noteNumber": 70, "velocity": 64 }, { "deltaTime": 72, "channel": 9, "type": "channel", "noteNumber": 35, "velocity": 80, "subtype": "noteOn" }, { "deltaTime": 0, "channel": 9, "type": "channel", "noteNumber": 42, "velocity": 50, "subtype": "noteOn" }, { "deltaTime": 0, "channel": 9, "type": "channel", "noteNumber": 70, "velocity": 35, "subtype": "noteOn" }, { "deltaTime": 24, "channel": 9, "type": "channel", "subtype": "noteOff", "noteNumber": 35, "velocity": 64 }, { "deltaTime": 0, "channel": 9, "type": "channel", "subtype": "noteOff", "noteNumber": 42, "velocity": 64 }, { "deltaTime": 0, "channel": 9, "type": "channel", "subtype": "noteOff", "noteNumber": 70, "velocity": 64 }, { "deltaTime": 72, "channel": 9, "type": "channel", "noteNumber": 35, "velocity": 80, "subtype": "noteOn" }, { "deltaTime": 0, "channel": 9, "type": "channel", "noteNumber": 42, "velocity": 66, "subtype": "noteOn" }, { "deltaTime": 0, "channel": 9, "type": "channel", "noteNumber": 70, "velocity": 51, "subtype": "noteOn" }, { "deltaTime": 24, "channel": 9, "type": "channel", "subtype": "noteOff", "noteNumber": 35, "velocity": 64 }, { "deltaTime": 0, "channel": 9, "type": "channel", "subtype": "noteOff", "noteNumber": 42, "velocity": 64 }, { "deltaTime": 0, "channel": 9, "type": "channel", "subtype": "noteOff", "noteNumber": 70, "velocity": 64 }, { "deltaTime": 72, "channel": 9, "type": "channel", "noteNumber": 42, "velocity": 50, "subtype": "noteOn" }, { "deltaTime": 0, "channel": 9, "type": "channel", "noteNumber": 70, "velocity": 35, "subtype": "noteOn" }, { "deltaTime": 24, "channel": 9, "type": "channel", "subtype": "noteOff", "noteNumber": 42, "velocity": 64 }, { "deltaTime": 0, "channel": 9, "type": "channel", "subtype": "noteOff", "noteNumber": 70, "velocity": 64 }, { "deltaTime": 72, "channel": 9, "type": "channel", "noteNumber": 38, "velocity": 112, "subtype": "noteOn" }, { "deltaTime": 0, "channel": 9, "type": "channel", "noteNumber": 42, "velocity": 66, "subtype": "noteOn" }, { "deltaTime": 0, "channel": 9, "type": "channel", "noteNumber": 70, "velocity": 51, "subtype": "noteOn" }, { "deltaTime": 24, "channel": 9, "type": "channel", "subtype": "noteOff", "noteNumber": 38, "velocity": 64 }, { "deltaTime": 0, "channel": 9, "type": "channel", "subtype": "noteOff", "noteNumber": 42, "velocity": 64 }, { "deltaTime": 0, "channel": 9, "type": "channel", "subtype": "noteOff", "noteNumber": 70, "velocity": 64 }, { "deltaTime": 72, "channel": 9, "type": "channel", "noteNumber": 42, "velocity": 50, "subtype": "noteOn" }, { "deltaTime": 0, "channel": 9, "type": "channel", "noteNumber": 70, "velocity": 35, "subtype": "noteOn" }, { "deltaTime": 24, "channel": 9, "type": "channel", "subtype": "noteOff", "noteNumber": 42, "velocity": 64 }, { "deltaTime": 0, "channel": 9, "type": "channel", "subtype": "noteOff", "noteNumber": 70, "velocity": 64 }, { "deltaTime": 72, "channel": 9, "type": "channel", "noteNumber": 35, "velocity": 80, "subtype": "noteOn" }, { "deltaTime": 0, "channel": 9, "type": "channel", "noteNumber": 42, "velocity": 66, "subtype": "noteOn" }, { "deltaTime": 0, "channel": 9, "type": "channel", "noteNumber": 70, "velocity": 51, "subtype": "noteOn" }, { "deltaTime": 24, "channel": 9, "type": "channel", "subtype": "noteOff", "noteNumber": 35, "velocity": 64 }, { "deltaTime": 0, "channel": 9, "type": "channel", "subtype": "noteOff", "noteNumber": 42, "velocity": 64 }, { "deltaTime": 0, "channel": 9, "type": "channel", "subtype": "noteOff", "noteNumber": 70, "velocity": 64 }, { "deltaTime": 72, "channel": 9, "type": "channel", "noteNumber": 42, "velocity": 50, "subtype": "noteOn" }, { "deltaTime": 0, "channel": 9, "type": "channel", "noteNumber": 70, "velocity": 35, "subtype": "noteOn" }, { "deltaTime": 24, "channel": 9, "type": "channel", "subtype": "noteOff", "noteNumber": 42, "velocity": 64 }, { "deltaTime": 0, "channel": 9, "type": "channel", "subtype": "noteOff", "noteNumber": 70, "velocity": 64 }, { "deltaTime": 72, "channel": 9, "type": "channel", "noteNumber": 75, "velocity": 127, "subtype": "noteOn" }, { "deltaTime": 0, "channel": 9, "type": "channel", "noteNumber": 42, "velocity": 66, "subtype": "noteOn" }, { "deltaTime": 0, "channel": 9, "type": "channel", "noteNumber": 70, "velocity": 51, "subtype": "noteOn" }, { "deltaTime": 24, "channel": 9, "type": "channel", "subtype": "noteOff", "noteNumber": 75, "velocity": 64 }, { "deltaTime": 0, "channel": 9, "type": "channel", "subtype": "noteOff", "noteNumber": 42, "velocity": 64 }, { "deltaTime": 0, "channel": 9, "type": "channel", "subtype": "noteOff", "noteNumber": 70, "velocity": 64 }, { "deltaTime": 72, "channel": 9, "type": "channel", "noteNumber": 35, "velocity": 80, "subtype": "noteOn" }, { "deltaTime": 0, "channel": 9, "type": "channel", "noteNumber": 42, "velocity": 50, "subtype": "noteOn" }, { "deltaTime": 0, "channel": 9, "type": "channel", "noteNumber": 70, "velocity": 35, "subtype": "noteOn" }, { "deltaTime": 24, "channel": 9, "type": "channel", "subtype": "noteOff", "noteNumber": 35, "velocity": 64 }, { "deltaTime": 0, "channel": 9, "type": "channel", "subtype": "noteOff", "noteNumber": 42, "velocity": 64 }, { "deltaTime": 0, "channel": 9, "type": "channel", "subtype": "noteOff", "noteNumber": 70, "velocity": 64 }, { "deltaTime": 72, "channel": 9, "type": "channel", "noteNumber": 35, "velocity": 80, "subtype": "noteOn" }, { "deltaTime": 0, "channel": 9, "type": "channel", "noteNumber": 42, "velocity": 66, "subtype": "noteOn" }, { "deltaTime": 0, "channel": 9, "type": "channel", "noteNumber": 70, "velocity": 51, "subtype": "noteOn" }, { "deltaTime": 24, "channel": 9, "type": "channel", "subtype": "noteOff", "noteNumber": 35, "velocity": 64 }, { "deltaTime": 0, "channel": 9, "type": "channel", "subtype": "noteOff", "noteNumber": 42, "velocity": 64 }, { "deltaTime": 0, "channel": 9, "type": "channel", "subtype": "noteOff", "noteNumber": 70, "velocity": 64 }, { "deltaTime": 72, "channel": 9, "type": "channel", "noteNumber": 42, "velocity": 50, "subtype": "noteOn" }, { "deltaTime": 0, "channel": 9, "type": "channel", "noteNumber": 70, "velocity": 35, "subtype": "noteOn" }, { "deltaTime": 24, "channel": 9, "type": "channel", "subtype": "noteOff", "noteNumber": 42, "velocity": 64 }, { "deltaTime": 0, "channel": 9, "type": "channel", "subtype": "noteOff", "noteNumber": 70, "velocity": 64 }, { "deltaTime": 72, "channel": 9, "type": "channel", "noteNumber": 38, "velocity": 112, "subtype": "noteOn" }, { "deltaTime": 0, "channel": 9, "type": "channel", "noteNumber": 42, "velocity": 66, "subtype": "noteOn" }, { "deltaTime": 0, "channel": 9, "type": "channel", "noteNumber": 70, "velocity": 51, "subtype": "noteOn" }, { "deltaTime": 24, "channel": 9, "type": "channel", "subtype": "noteOff", "noteNumber": 38, "velocity": 64 }, { "deltaTime": 0, "channel": 9, "type": "channel", "subtype": "noteOff", "noteNumber": 42, "velocity": 64 }, { "deltaTime": 0, "channel": 9, "type": "channel", "subtype": "noteOff", "noteNumber": 70, "velocity": 64 }, { "deltaTime": 72, "channel": 9, "type": "channel", "noteNumber": 42, "velocity": 50, "subtype": "noteOn" }, { "deltaTime": 0, "channel": 9, "type": "channel", "noteNumber": 70, "velocity": 35, "subtype": "noteOn" }, { "deltaTime": 24, "channel": 9, "type": "channel", "subtype": "noteOff", "noteNumber": 42, "velocity": 64 }, { "deltaTime": 0, "channel": 9, "type": "channel", "subtype": "noteOff", "noteNumber": 70, "velocity": 64 }, { "deltaTime": 72, "channel": 9, "type": "channel", "noteNumber": 35, "velocity": 80, "subtype": "noteOn" }, { "deltaTime": 0, "channel": 9, "type": "channel", "noteNumber": 49, "velocity": 96, "subtype": "noteOn" }, { "deltaTime": 24, "channel": 9, "type": "channel", "subtype": "noteOff", "noteNumber": 35, "velocity": 64 }, { "deltaTime": 0, "channel": 9, "type": "channel", "subtype": "noteOff", "noteNumber": 49, "velocity": 64 }, { "deltaTime": 1512, "channel": 9, "type": "channel", "noteNumber": 35, "velocity": 80, "subtype": "noteOn" }, { "deltaTime": 0, "channel": 9, "type": "channel", "noteNumber": 42, "velocity": 66, "subtype": "noteOn" }, { "deltaTime": 0, "channel": 9, "type": "channel", "noteNumber": 70, "velocity": 51, "subtype": "noteOn" }, { "deltaTime": 24, "channel": 9, "type": "channel", "subtype": "noteOff", "noteNumber": 35, "velocity": 64 }, { "deltaTime": 0, "channel": 9, "type": "channel", "subtype": "noteOff", "noteNumber": 42, "velocity": 64 }, { "deltaTime": 0, "channel": 9, "type": "channel", "subtype": "noteOff", "noteNumber": 70, "velocity": 64 }, { "deltaTime": 72, "channel": 9, "type": "channel", "noteNumber": 42, "velocity": 50, "subtype": "noteOn" }, { "deltaTime": 0, "channel": 9, "type": "channel", "noteNumber": 70, "velocity": 35, "subtype": "noteOn" }, { "deltaTime": 24, "channel": 9, "type": "channel", "subtype": "noteOff", "noteNumber": 42, "velocity": 64 }, { "deltaTime": 0, "channel": 9, "type": "channel", "subtype": "noteOff", "noteNumber": 70, "velocity": 64 }, { "deltaTime": 72, "channel": 9, "type": "channel", "noteNumber": 75, "velocity": 127, "subtype": "noteOn" }, { "deltaTime": 0, "channel": 9, "type": "channel", "noteNumber": 42, "velocity": 66, "subtype": "noteOn" }, { "deltaTime": 0, "channel": 9, "type": "channel", "noteNumber": 70, "velocity": 51, "subtype": "noteOn" }, { "deltaTime": 24, "channel": 9, "type": "channel", "subtype": "noteOff", "noteNumber": 75, "velocity": 64 }, { "deltaTime": 0, "channel": 9, "type": "channel", "subtype": "noteOff", "noteNumber": 42, "velocity": 64 }, { "deltaTime": 0, "channel": 9, "type": "channel", "subtype": "noteOff", "noteNumber": 70, "velocity": 64 }, { "deltaTime": 72, "channel": 9, "type": "channel", "noteNumber": 35, "velocity": 80, "subtype": "noteOn" }, { "deltaTime": 0, "channel": 9, "type": "channel", "noteNumber": 42, "velocity": 50, "subtype": "noteOn" }, { "deltaTime": 0, "channel": 9, "type": "channel", "noteNumber": 70, "velocity": 35, "subtype": "noteOn" }, { "deltaTime": 24, "channel": 9, "type": "channel", "subtype": "noteOff", "noteNumber": 35, "velocity": 64 }, { "deltaTime": 0, "channel": 9, "type": "channel", "subtype": "noteOff", "noteNumber": 42, "velocity": 64 }, { "deltaTime": 0, "channel": 9, "type": "channel", "subtype": "noteOff", "noteNumber": 70, "velocity": 64 }, { "deltaTime": 72, "channel": 9, "type": "channel", "noteNumber": 35, "velocity": 80, "subtype": "noteOn" }, { "deltaTime": 0, "channel": 9, "type": "channel", "noteNumber": 42, "velocity": 66, "subtype": "noteOn" }, { "deltaTime": 0, "channel": 9, "type": "channel", "noteNumber": 70, "velocity": 51, "subtype": "noteOn" }, { "deltaTime": 24, "channel": 9, "type": "channel", "subtype": "noteOff", "noteNumber": 35, "velocity": 64 }, { "deltaTime": 0, "channel": 9, "type": "channel", "subtype": "noteOff", "noteNumber": 42, "velocity": 64 }, { "deltaTime": 0, "channel": 9, "type": "channel", "subtype": "noteOff", "noteNumber": 70, "velocity": 64 }, { "deltaTime": 72, "channel": 9, "type": "channel", "noteNumber": 42, "velocity": 50, "subtype": "noteOn" }, { "deltaTime": 0, "channel": 9, "type": "channel", "noteNumber": 70, "velocity": 35, "subtype": "noteOn" }, { "deltaTime": 24, "channel": 9, "type": "channel", "subtype": "noteOff", "noteNumber": 42, "velocity": 64 }, { "deltaTime": 0, "channel": 9, "type": "channel", "subtype": "noteOff", "noteNumber": 70, "velocity": 64 }, { "deltaTime": 72, "channel": 9, "type": "channel", "noteNumber": 38, "velocity": 112, "subtype": "noteOn" }, { "deltaTime": 0, "channel": 9, "type": "channel", "noteNumber": 42, "velocity": 66, "subtype": "noteOn" }, { "deltaTime": 0, "channel": 9, "type": "channel", "noteNumber": 70, "velocity": 51, "subtype": "noteOn" }, { "deltaTime": 24, "channel": 9, "type": "channel", "subtype": "noteOff", "noteNumber": 38, "velocity": 64 }, { "deltaTime": 0, "channel": 9, "type": "channel", "subtype": "noteOff", "noteNumber": 42, "velocity": 64 }, { "deltaTime": 0, "channel": 9, "type": "channel", "subtype": "noteOff", "noteNumber": 70, "velocity": 64 }, { "deltaTime": 72, "channel": 9, "type": "channel", "noteNumber": 42, "velocity": 50, "subtype": "noteOn" }, { "deltaTime": 0, "channel": 9, "type": "channel", "noteNumber": 70, "velocity": 35, "subtype": "noteOn" }, { "deltaTime": 24, "channel": 9, "type": "channel", "subtype": "noteOff", "noteNumber": 42, "velocity": 64 }, { "deltaTime": 0, "channel": 9, "type": "channel", "subtype": "noteOff", "noteNumber": 70, "velocity": 64 }, { "deltaTime": 72, "channel": 9, "type": "channel", "noteNumber": 35, "velocity": 80, "subtype": "noteOn" }, { "deltaTime": 0, "channel": 9, "type": "channel", "noteNumber": 42, "velocity": 66, "subtype": "noteOn" }, { "deltaTime": 0, "channel": 9, "type": "channel", "noteNumber": 70, "velocity": 51, "subtype": "noteOn" }, { "deltaTime": 24, "channel": 9, "type": "channel", "subtype": "noteOff", "noteNumber": 35, "velocity": 64 }, { "deltaTime": 0, "channel": 9, "type": "channel", "subtype": "noteOff", "noteNumber": 42, "velocity": 64 }, { "deltaTime": 0, "channel": 9, "type": "channel", "subtype": "noteOff", "noteNumber": 70, "velocity": 64 }, { "deltaTime": 72, "channel": 9, "type": "channel", "noteNumber": 42, "velocity": 50, "subtype": "noteOn" }, { "deltaTime": 0, "channel": 9, "type": "channel", "noteNumber": 70, "velocity": 35, "subtype": "noteOn" }, { "deltaTime": 24, "channel": 9, "type": "channel", "subtype": "noteOff", "noteNumber": 42, "velocity": 64 }, { "deltaTime": 0, "channel": 9, "type": "channel", "subtype": "noteOff", "noteNumber": 70, "velocity": 64 }, { "deltaTime": 72, "channel": 9, "type": "channel", "noteNumber": 75, "velocity": 127, "subtype": "noteOn" }, { "deltaTime": 0, "channel": 9, "type": "channel", "noteNumber": 42, "velocity": 66, "subtype": "noteOn" }, { "deltaTime": 0, "channel": 9, "type": "channel", "noteNumber": 70, "velocity": 51, "subtype": "noteOn" }, { "deltaTime": 24, "channel": 9, "type": "channel", "subtype": "noteOff", "noteNumber": 75, "velocity": 64 }, { "deltaTime": 0, "channel": 9, "type": "channel", "subtype": "noteOff", "noteNumber": 42, "velocity": 64 }, { "deltaTime": 0, "channel": 9, "type": "channel", "subtype": "noteOff", "noteNumber": 70, "velocity": 64 }, { "deltaTime": 72, "channel": 9, "type": "channel", "noteNumber": 35, "velocity": 80, "subtype": "noteOn" }, { "deltaTime": 0, "channel": 9, "type": "channel", "noteNumber": 42, "velocity": 50, "subtype": "noteOn" }, { "deltaTime": 0, "channel": 9, "type": "channel", "noteNumber": 70, "velocity": 35, "subtype": "noteOn" }, { "deltaTime": 24, "channel": 9, "type": "channel", "subtype": "noteOff", "noteNumber": 35, "velocity": 64 }, { "deltaTime": 0, "channel": 9, "type": "channel", "subtype": "noteOff", "noteNumber": 42, "velocity": 64 }, { "deltaTime": 0, "channel": 9, "type": "channel", "subtype": "noteOff", "noteNumber": 70, "velocity": 64 }, { "deltaTime": 72, "channel": 9, "type": "channel", "noteNumber": 35, "velocity": 80, "subtype": "noteOn" }, { "deltaTime": 0, "channel": 9, "type": "channel", "noteNumber": 42, "velocity": 66, "subtype": "noteOn" }, { "deltaTime": 0, "channel": 9, "type": "channel", "noteNumber": 70, "velocity": 51, "subtype": "noteOn" }, { "deltaTime": 24, "channel": 9, "type": "channel", "subtype": "noteOff", "noteNumber": 35, "velocity": 64 }, { "deltaTime": 0, "channel": 9, "type": "channel", "subtype": "noteOff", "noteNumber": 42, "velocity": 64 }, { "deltaTime": 0, "channel": 9, "type": "channel", "subtype": "noteOff", "noteNumber": 70, "velocity": 64 }, { "deltaTime": 72, "channel": 9, "type": "channel", "noteNumber": 42, "velocity": 50, "subtype": "noteOn" }, { "deltaTime": 0, "channel": 9, "type": "channel", "noteNumber": 70, "velocity": 35, "subtype": "noteOn" }, { "deltaTime": 24, "channel": 9, "type": "channel", "subtype": "noteOff", "noteNumber": 42, "velocity": 64 }, { "deltaTime": 0, "channel": 9, "type": "channel", "subtype": "noteOff", "noteNumber": 70, "velocity": 64 }, { "deltaTime": 72, "channel": 9, "type": "channel", "noteNumber": 38, "velocity": 112, "subtype": "noteOn" }, { "deltaTime": 0, "channel": 9, "type": "channel", "noteNumber": 42, "velocity": 66, "subtype": "noteOn" }, { "deltaTime": 0, "channel": 9, "type": "channel", "noteNumber": 70, "velocity": 51, "subtype": "noteOn" }, { "deltaTime": 24, "channel": 9, "type": "channel", "subtype": "noteOff", "noteNumber": 38, "velocity": 64 }, { "deltaTime": 0, "channel": 9, "type": "channel", "subtype": "noteOff", "noteNumber": 42, "velocity": 64 }, { "deltaTime": 0, "channel": 9, "type": "channel", "subtype": "noteOff", "noteNumber": 70, "velocity": 64 }, { "deltaTime": 72, "channel": 9, "type": "channel", "noteNumber": 42, "velocity": 50, "subtype": "noteOn" }, { "deltaTime": 0, "channel": 9, "type": "channel", "noteNumber": 70, "velocity": 35, "subtype": "noteOn" }, { "deltaTime": 24, "channel": 9, "type": "channel", "subtype": "noteOff", "noteNumber": 42, "velocity": 64 }, { "deltaTime": 0, "channel": 9, "type": "channel", "subtype": "noteOff", "noteNumber": 70, "velocity": 64 }, { "deltaTime": 168, "channel": 9, "type": "channel", "noteNumber": 35, "velocity": 80, "subtype": "noteOn" }, { "deltaTime": 0, "channel": 9, "type": "channel", "noteNumber": 38, "velocity": 112, "subtype": "noteOn" }, { "deltaTime": 0, "channel": 9, "type": "channel", "noteNumber": 46, "velocity": 96, "subtype": "noteOn" }, { "deltaTime": 24, "channel": 9, "type": "channel", "subtype": "noteOff", "noteNumber": 35, "velocity": 64 }, { "deltaTime": 0, "channel": 9, "type": "channel", "subtype": "noteOff", "noteNumber": 38, "velocity": 64 }, { "deltaTime": 0, "channel": 9, "type": "channel", "subtype": "noteOff", "noteNumber": 46, "velocity": 64 }, { "deltaTime": 168, "channel": 9, "type": "channel", "noteNumber": 35, "velocity": 80, "subtype": "noteOn" }, { "deltaTime": 0, "channel": 9, "type": "channel", "noteNumber": 38, "velocity": 112, "subtype": "noteOn" }, { "deltaTime": 0, "channel": 9, "type": "channel", "noteNumber": 46, "velocity": 96, "subtype": "noteOn" }, { "deltaTime": 24, "channel": 9, "type": "channel", "subtype": "noteOff", "noteNumber": 35, "velocity": 64 }, { "deltaTime": 0, "channel": 9, "type": "channel", "subtype": "noteOff", "noteNumber": 38, "velocity": 64 }, { "deltaTime": 0, "channel": 9, "type": "channel", "subtype": "noteOff", "noteNumber": 46, "velocity": 64 }, { "deltaTime": 72, "channel": 9, "type": "channel", "noteNumber": 35, "velocity": 80, "subtype": "noteOn" }, { "deltaTime": 0, "channel": 9, "type": "channel", "noteNumber": 38, "velocity": 112, "subtype": "noteOn" }, { "deltaTime": 0, "channel": 9, "type": "channel", "noteNumber": 42, "velocity": 66, "subtype": "noteOn" }, { "deltaTime": 0, "channel": 9, "type": "channel", "noteNumber": 70, "velocity": 51, "subtype": "noteOn" }, { "deltaTime": 24, "channel": 9, "type": "channel", "subtype": "noteOff", "noteNumber": 35, "velocity": 64 }, { "deltaTime": 0, "channel": 9, "type": "channel", "subtype": "noteOff", "noteNumber": 38, "velocity": 64 }, { "deltaTime": 0, "channel": 9, "type": "channel", "subtype": "noteOff", "noteNumber": 42, "velocity": 64 }, { "deltaTime": 0, "channel": 9, "type": "channel", "subtype": "noteOff", "noteNumber": 70, "velocity": 64 }, { "deltaTime": 456, "channel": 9, "type": "channel", "noteNumber": 35, "velocity": 80, "subtype": "noteOn" }, { "deltaTime": 0, "channel": 9, "type": "channel", "noteNumber": 38, "velocity": 112, "subtype": "noteOn" }, { "deltaTime": 0, "channel": 9, "type": "channel", "noteNumber": 46, "velocity": 96, "subtype": "noteOn" }, { "deltaTime": 24, "channel": 9, "type": "channel", "subtype": "noteOff", "noteNumber": 35, "velocity": 64 }, { "deltaTime": 0, "channel": 9, "type": "channel", "subtype": "noteOff", "noteNumber": 38, "velocity": 64 }, { "deltaTime": 0, "channel": 9, "type": "channel", "subtype": "noteOff", "noteNumber": 46, "velocity": 64 }, { "deltaTime": 168, "channel": 9, "type": "channel", "noteNumber": 35, "velocity": 80, "subtype": "noteOn" }, { "deltaTime": 0, "channel": 9, "type": "channel", "noteNumber": 38, "velocity": 112, "subtype": "noteOn" }, { "deltaTime": 0, "channel": 9, "type": "channel", "noteNumber": 46, "velocity": 96, "subtype": "noteOn" }, { "deltaTime": 24, "channel": 9, "type": "channel", "subtype": "noteOff", "noteNumber": 35, "velocity": 64 }, { "deltaTime": 0, "channel": 9, "type": "channel", "subtype": "noteOff", "noteNumber": 38, "velocity": 64 }, { "deltaTime": 0, "channel": 9, "type": "channel", "subtype": "noteOff", "noteNumber": 46, "velocity": 64 }, { "deltaTime": 72, "channel": 9, "type": "channel", "noteNumber": 35, "velocity": 80, "subtype": "noteOn" }, { "deltaTime": 0, "channel": 9, "type": "channel", "noteNumber": 38, "velocity": 112, "subtype": "noteOn" }, { "deltaTime": 0, "channel": 9, "type": "channel", "noteNumber": 42, "velocity": 66, "subtype": "noteOn" }, { "deltaTime": 0, "channel": 9, "type": "channel", "noteNumber": 70, "velocity": 51, "subtype": "noteOn" }, { "deltaTime": 24, "channel": 9, "type": "channel", "subtype": "noteOff", "noteNumber": 35, "velocity": 64 }, { "deltaTime": 0, "channel": 9, "type": "channel", "subtype": "noteOff", "noteNumber": 38, "velocity": 64 }, { "deltaTime": 0, "channel": 9, "type": "channel", "subtype": "noteOff", "noteNumber": 42, "velocity": 64 }, { "deltaTime": 0, "channel": 9, "type": "channel", "subtype": "noteOff", "noteNumber": 70, "velocity": 64 }, { "deltaTime": 360, "channel": 9, "type": "channel", "noteNumber": 35, "velocity": 80, "subtype": "noteOn" }, { "deltaTime": 0, "channel": 9, "type": "channel", "noteNumber": 49, "velocity": 96, "subtype": "noteOn" }, { "deltaTime": 24, "channel": 9, "type": "channel", "subtype": "noteOff", "noteNumber": 35, "velocity": 64 }, { "deltaTime": 0, "channel": 9, "type": "channel", "subtype": "noteOff", "noteNumber": 49, "velocity": 64 }, { "deltaTime": 648, "channel": 9, "type": "channel", "noteNumber": 51, "velocity": 96, "subtype": "noteOn" }, { "deltaTime": 24, "channel": 9, "type": "channel", "subtype": "noteOff", "noteNumber": 51, "velocity": 64 }, { "deltaTime": 24, "channel": 9, "type": "channel", "noteNumber": 51, "velocity": 112, "subtype": "noteOn" }, { "deltaTime": 24, "channel": 9, "type": "channel", "subtype": "noteOff", "noteNumber": 51, "velocity": 64 }, { "deltaTime": 24, "channel": 9, "type": "channel", "noteNumber": 35, "velocity": 80, "subtype": "noteOn" }, { "deltaTime": 0, "channel": 9, "type": "channel", "noteNumber": 53, "velocity": 127, "subtype": "noteOn" }, { "deltaTime": 24, "channel": 9, "type": "channel", "subtype": "noteOff", "noteNumber": 35, "velocity": 64 }, { "deltaTime": 0, "channel": 9, "type": "channel", "subtype": "noteOff", "noteNumber": 53, "velocity": 64 }, { "deltaTime": 456, "channel": 9, "type": "channel", "noteNumber": 42, "velocity": 50, "subtype": "noteOn" }, { "deltaTime": 0, "channel": 9, "type": "channel", "noteNumber": 70, "velocity": 35, "subtype": "noteOn" }, { "deltaTime": 24, "channel": 9, "type": "channel", "subtype": "noteOff", "noteNumber": 42, "velocity": 64 }, { "deltaTime": 0, "channel": 9, "type": "channel", "subtype": "noteOff", "noteNumber": 70, "velocity": 64 }, { "deltaTime": 72, "channel": 9, "type": "channel", "noteNumber": 46, "velocity": 96, "subtype": "noteOn" }, { "deltaTime": 24, "channel": 9, "type": "channel", "subtype": "noteOff", "noteNumber": 46, "velocity": 64 }, { "deltaTime": 168, "channel": 9, "type": "channel", "noteNumber": 35, "velocity": 80, "subtype": "noteOn" }, { "deltaTime": 0, "channel": 9, "type": "channel", "noteNumber": 51, "velocity": 127, "subtype": "noteOn" }, { "deltaTime": 24, "channel": 9, "type": "channel", "subtype": "noteOff", "noteNumber": 35, "velocity": 64 }, { "deltaTime": 0, "channel": 9, "type": "channel", "subtype": "noteOff", "noteNumber": 51, "velocity": 64 }, { "deltaTime": 72, "channel": 9, "type": "channel", "noteNumber": 42, "velocity": 50, "subtype": "noteOn" }, { "deltaTime": 0, "channel": 9, "type": "channel", "noteNumber": 70, "velocity": 35, "subtype": "noteOn" }, { "deltaTime": 24, "channel": 9, "type": "channel", "subtype": "noteOff", "noteNumber": 42, "velocity": 64 }, { "deltaTime": 0, "channel": 9, "type": "channel", "subtype": "noteOff", "noteNumber": 70, "velocity": 64 }, { "deltaTime": 72, "channel": 9, "type": "channel", "noteNumber": 75, "velocity": 112, "subtype": "noteOn" }, { "deltaTime": 0, "channel": 9, "type": "channel", "noteNumber": 42, "velocity": 66, "subtype": "noteOn" }, { "deltaTime": 0, "channel": 9, "type": "channel", "noteNumber": 70, "velocity": 51, "subtype": "noteOn" }, { "deltaTime": 24, "channel": 9, "type": "channel", "subtype": "noteOff", "noteNumber": 75, "velocity": 64 }, { "deltaTime": 0, "channel": 9, "type": "channel", "subtype": "noteOff", "noteNumber": 42, "velocity": 64 }, { "deltaTime": 0, "channel": 9, "type": "channel", "subtype": "noteOff", "noteNumber": 70, "velocity": 64 }, { "deltaTime": 72, "channel": 9, "type": "channel", "noteNumber": 35, "velocity": 80, "subtype": "noteOn" }, { "deltaTime": 0, "channel": 9, "type": "channel", "noteNumber": 42, "velocity": 50, "subtype": "noteOn" }, { "deltaTime": 0, "channel": 9, "type": "channel", "noteNumber": 70, "velocity": 35, "subtype": "noteOn" }, { "deltaTime": 24, "channel": 9, "type": "channel", "subtype": "noteOff", "noteNumber": 35, "velocity": 64 }, { "deltaTime": 0, "channel": 9, "type": "channel", "subtype": "noteOff", "noteNumber": 42, "velocity": 64 }, { "deltaTime": 0, "channel": 9, "type": "channel", "subtype": "noteOff", "noteNumber": 70, "velocity": 64 }, { "deltaTime": 72, "channel": 9, "type": "channel", "noteNumber": 35, "velocity": 80, "subtype": "noteOn" }, { "deltaTime": 0, "channel": 9, "type": "channel", "noteNumber": 42, "velocity": 66, "subtype": "noteOn" }, { "deltaTime": 0, "channel": 9, "type": "channel", "noteNumber": 70, "velocity": 51, "subtype": "noteOn" }, { "deltaTime": 24, "channel": 9, "type": "channel", "subtype": "noteOff", "noteNumber": 35, "velocity": 64 }, { "deltaTime": 0, "channel": 9, "type": "channel", "subtype": "noteOff", "noteNumber": 42, "velocity": 64 }, { "deltaTime": 0, "channel": 9, "type": "channel", "subtype": "noteOff", "noteNumber": 70, "velocity": 64 }, { "deltaTime": 72, "channel": 9, "type": "channel", "noteNumber": 42, "velocity": 50, "subtype": "noteOn" }, { "deltaTime": 0, "channel": 9, "type": "channel", "noteNumber": 70, "velocity": 35, "subtype": "noteOn" }, { "deltaTime": 24, "channel": 9, "type": "channel", "subtype": "noteOff", "noteNumber": 42, "velocity": 64 }, { "deltaTime": 0, "channel": 9, "type": "channel", "subtype": "noteOff", "noteNumber": 70, "velocity": 64 }, { "deltaTime": 72, "channel": 9, "type": "channel", "noteNumber": 75, "velocity": 112, "subtype": "noteOn" }, { "deltaTime": 0, "channel": 9, "type": "channel", "noteNumber": 42, "velocity": 66, "subtype": "noteOn" }, { "deltaTime": 0, "channel": 9, "type": "channel", "noteNumber": 70, "velocity": 51, "subtype": "noteOn" }, { "deltaTime": 24, "channel": 9, "type": "channel", "subtype": "noteOff", "noteNumber": 75, "velocity": 64 }, { "deltaTime": 0, "channel": 9, "type": "channel", "subtype": "noteOff", "noteNumber": 42, "velocity": 64 }, { "deltaTime": 0, "channel": 9, "type": "channel", "subtype": "noteOff", "noteNumber": 70, "velocity": 64 }, { "deltaTime": 72, "channel": 9, "type": "channel", "noteNumber": 42, "velocity": 50, "subtype": "noteOn" }, { "deltaTime": 0, "channel": 9, "type": "channel", "noteNumber": 70, "velocity": 35, "subtype": "noteOn" }, { "deltaTime": 24, "channel": 9, "type": "channel", "subtype": "noteOff", "noteNumber": 42, "velocity": 64 }, { "deltaTime": 0, "channel": 9, "type": "channel", "subtype": "noteOff", "noteNumber": 70, "velocity": 64 }, { "deltaTime": 72, "channel": 9, "type": "channel", "noteNumber": 35, "velocity": 80, "subtype": "noteOn" }, { "deltaTime": 0, "channel": 9, "type": "channel", "noteNumber": 42, "velocity": 66, "subtype": "noteOn" }, { "deltaTime": 0, "channel": 9, "type": "channel", "noteNumber": 70, "velocity": 51, "subtype": "noteOn" }, { "deltaTime": 24, "channel": 9, "type": "channel", "subtype": "noteOff", "noteNumber": 35, "velocity": 64 }, { "deltaTime": 0, "channel": 9, "type": "channel", "subtype": "noteOff", "noteNumber": 42, "velocity": 64 }, { "deltaTime": 0, "channel": 9, "type": "channel", "subtype": "noteOff", "noteNumber": 70, "velocity": 64 }, { "deltaTime": 72, "channel": 9, "type": "channel", "noteNumber": 42, "velocity": 50, "subtype": "noteOn" }, { "deltaTime": 0, "channel": 9, "type": "channel", "noteNumber": 70, "velocity": 35, "subtype": "noteOn" }, { "deltaTime": 24, "channel": 9, "type": "channel", "subtype": "noteOff", "noteNumber": 42, "velocity": 64 }, { "deltaTime": 0, "channel": 9, "type": "channel", "subtype": "noteOff", "noteNumber": 70, "velocity": 64 }, { "deltaTime": 72, "channel": 9, "type": "channel", "noteNumber": 75, "velocity": 127, "subtype": "noteOn" }, { "deltaTime": 0, "channel": 9, "type": "channel", "noteNumber": 42, "velocity": 66, "subtype": "noteOn" }, { "deltaTime": 0, "channel": 9, "type": "channel", "noteNumber": 70, "velocity": 51, "subtype": "noteOn" }, { "deltaTime": 24, "channel": 9, "type": "channel", "subtype": "noteOff", "noteNumber": 75, "velocity": 64 }, { "deltaTime": 0, "channel": 9, "type": "channel", "subtype": "noteOff", "noteNumber": 42, "velocity": 64 }, { "deltaTime": 0, "channel": 9, "type": "channel", "subtype": "noteOff", "noteNumber": 70, "velocity": 64 }, { "deltaTime": 72, "channel": 9, "type": "channel", "noteNumber": 35, "velocity": 80, "subtype": "noteOn" }, { "deltaTime": 0, "channel": 9, "type": "channel", "noteNumber": 42, "velocity": 50, "subtype": "noteOn" }, { "deltaTime": 0, "channel": 9, "type": "channel", "noteNumber": 70, "velocity": 35, "subtype": "noteOn" }, { "deltaTime": 24, "channel": 9, "type": "channel", "subtype": "noteOff", "noteNumber": 35, "velocity": 64 }, { "deltaTime": 0, "channel": 9, "type": "channel", "subtype": "noteOff", "noteNumber": 42, "velocity": 64 }, { "deltaTime": 0, "channel": 9, "type": "channel", "subtype": "noteOff", "noteNumber": 70, "velocity": 64 }, { "deltaTime": 72, "channel": 9, "type": "channel", "noteNumber": 35, "velocity": 80, "subtype": "noteOn" }, { "deltaTime": 0, "channel": 9, "type": "channel", "noteNumber": 42, "velocity": 66, "subtype": "noteOn" }, { "deltaTime": 0, "channel": 9, "type": "channel", "noteNumber": 70, "velocity": 51, "subtype": "noteOn" }, { "deltaTime": 24, "channel": 9, "type": "channel", "subtype": "noteOff", "noteNumber": 35, "velocity": 64 }, { "deltaTime": 0, "channel": 9, "type": "channel", "subtype": "noteOff", "noteNumber": 42, "velocity": 64 }, { "deltaTime": 0, "channel": 9, "type": "channel", "subtype": "noteOff", "noteNumber": 70, "velocity": 64 }, { "deltaTime": 72, "channel": 9, "type": "channel", "noteNumber": 42, "velocity": 50, "subtype": "noteOn" }, { "deltaTime": 0, "channel": 9, "type": "channel", "noteNumber": 70, "velocity": 35, "subtype": "noteOn" }, { "deltaTime": 24, "channel": 9, "type": "channel", "subtype": "noteOff", "noteNumber": 42, "velocity": 64 }, { "deltaTime": 0, "channel": 9, "type": "channel", "subtype": "noteOff", "noteNumber": 70, "velocity": 64 }, { "deltaTime": 72, "channel": 9, "type": "channel", "noteNumber": 75, "velocity": 127, "subtype": "noteOn" }, { "deltaTime": 0, "channel": 9, "type": "channel", "noteNumber": 42, "velocity": 66, "subtype": "noteOn" }, { "deltaTime": 0, "channel": 9, "type": "channel", "noteNumber": 70, "velocity": 51, "subtype": "noteOn" }, { "deltaTime": 24, "channel": 9, "type": "channel", "subtype": "noteOff", "noteNumber": 75, "velocity": 64 }, { "deltaTime": 0, "channel": 9, "type": "channel", "subtype": "noteOff", "noteNumber": 42, "velocity": 64 }, { "deltaTime": 0, "channel": 9, "type": "channel", "subtype": "noteOff", "noteNumber": 70, "velocity": 64 }, { "deltaTime": 72, "channel": 9, "type": "channel", "noteNumber": 42, "velocity": 50, "subtype": "noteOn" }, { "deltaTime": 0, "channel": 9, "type": "channel", "noteNumber": 70, "velocity": 35, "subtype": "noteOn" }, { "deltaTime": 24, "channel": 9, "type": "channel", "subtype": "noteOff", "noteNumber": 42, "velocity": 64 }, { "deltaTime": 0, "channel": 9, "type": "channel", "subtype": "noteOff", "noteNumber": 70, "velocity": 64 }, { "deltaTime": 72, "channel": 9, "type": "channel", "noteNumber": 35, "velocity": 80, "subtype": "noteOn" }, { "deltaTime": 0, "channel": 9, "type": "channel", "noteNumber": 42, "velocity": 66, "subtype": "noteOn" }, { "deltaTime": 0, "channel": 9, "type": "channel", "noteNumber": 70, "velocity": 51, "subtype": "noteOn" }, { "deltaTime": 24, "channel": 9, "type": "channel", "subtype": "noteOff", "noteNumber": 35, "velocity": 64 }, { "deltaTime": 0, "channel": 9, "type": "channel", "subtype": "noteOff", "noteNumber": 42, "velocity": 64 }, { "deltaTime": 0, "channel": 9, "type": "channel", "subtype": "noteOff", "noteNumber": 70, "velocity": 64 }, { "deltaTime": 72, "channel": 9, "type": "channel", "noteNumber": 42, "velocity": 50, "subtype": "noteOn" }, { "deltaTime": 0, "channel": 9, "type": "channel", "noteNumber": 70, "velocity": 35, "subtype": "noteOn" }, { "deltaTime": 24, "channel": 9, "type": "channel", "subtype": "noteOff", "noteNumber": 42, "velocity": 64 }, { "deltaTime": 0, "channel": 9, "type": "channel", "subtype": "noteOff", "noteNumber": 70, "velocity": 64 }, { "deltaTime": 72, "channel": 9, "type": "channel", "noteNumber": 75, "velocity": 127, "subtype": "noteOn" }, { "deltaTime": 0, "channel": 9, "type": "channel", "noteNumber": 42, "velocity": 66, "subtype": "noteOn" }, { "deltaTime": 0, "channel": 9, "type": "channel", "noteNumber": 70, "velocity": 51, "subtype": "noteOn" }, { "deltaTime": 24, "channel": 9, "type": "channel", "subtype": "noteOff", "noteNumber": 75, "velocity": 64 }, { "deltaTime": 0, "channel": 9, "type": "channel", "subtype": "noteOff", "noteNumber": 42, "velocity": 64 }, { "deltaTime": 0, "channel": 9, "type": "channel", "subtype": "noteOff", "noteNumber": 70, "velocity": 64 }, { "deltaTime": 72, "channel": 9, "type": "channel", "noteNumber": 35, "velocity": 80, "subtype": "noteOn" }, { "deltaTime": 0, "channel": 9, "type": "channel", "noteNumber": 42, "velocity": 50, "subtype": "noteOn" }, { "deltaTime": 0, "channel": 9, "type": "channel", "noteNumber": 70, "velocity": 35, "subtype": "noteOn" }, { "deltaTime": 24, "channel": 9, "type": "channel", "subtype": "noteOff", "noteNumber": 35, "velocity": 64 }, { "deltaTime": 0, "channel": 9, "type": "channel", "subtype": "noteOff", "noteNumber": 42, "velocity": 64 }, { "deltaTime": 0, "channel": 9, "type": "channel", "subtype": "noteOff", "noteNumber": 70, "velocity": 64 }, { "deltaTime": 72, "channel": 9, "type": "channel", "noteNumber": 35, "velocity": 80, "subtype": "noteOn" }, { "deltaTime": 0, "channel": 9, "type": "channel", "noteNumber": 42, "velocity": 66, "subtype": "noteOn" }, { "deltaTime": 0, "channel": 9, "type": "channel", "noteNumber": 70, "velocity": 51, "subtype": "noteOn" }, { "deltaTime": 24, "channel": 9, "type": "channel", "subtype": "noteOff", "noteNumber": 35, "velocity": 64 }, { "deltaTime": 0, "channel": 9, "type": "channel", "subtype": "noteOff", "noteNumber": 42, "velocity": 64 }, { "deltaTime": 0, "channel": 9, "type": "channel", "subtype": "noteOff", "noteNumber": 70, "velocity": 64 }, { "deltaTime": 72, "channel": 9, "type": "channel", "noteNumber": 42, "velocity": 50, "subtype": "noteOn" }, { "deltaTime": 0, "channel": 9, "type": "channel", "noteNumber": 70, "velocity": 35, "subtype": "noteOn" }, { "deltaTime": 24, "channel": 9, "type": "channel", "subtype": "noteOff", "noteNumber": 42, "velocity": 64 }, { "deltaTime": 0, "channel": 9, "type": "channel", "subtype": "noteOff", "noteNumber": 70, "velocity": 64 }, { "deltaTime": 72, "channel": 9, "type": "channel", "noteNumber": 75, "velocity": 127, "subtype": "noteOn" }, { "deltaTime": 0, "channel": 9, "type": "channel", "noteNumber": 42, "velocity": 66, "subtype": "noteOn" }, { "deltaTime": 0, "channel": 9, "type": "channel", "noteNumber": 70, "velocity": 51, "subtype": "noteOn" }, { "deltaTime": 24, "channel": 9, "type": "channel", "subtype": "noteOff", "noteNumber": 75, "velocity": 64 }, { "deltaTime": 0, "channel": 9, "type": "channel", "subtype": "noteOff", "noteNumber": 42, "velocity": 64 }, { "deltaTime": 0, "channel": 9, "type": "channel", "subtype": "noteOff", "noteNumber": 70, "velocity": 64 }, { "deltaTime": 72, "channel": 9, "type": "channel", "noteNumber": 42, "velocity": 50, "subtype": "noteOn" }, { "deltaTime": 0, "channel": 9, "type": "channel", "noteNumber": 70, "velocity": 35, "subtype": "noteOn" }, { "deltaTime": 24, "channel": 9, "type": "channel", "subtype": "noteOff", "noteNumber": 42, "velocity": 64 }, { "deltaTime": 0, "channel": 9, "type": "channel", "subtype": "noteOff", "noteNumber": 70, "velocity": 64 }, { "deltaTime": 72, "channel": 9, "type": "channel", "noteNumber": 35, "velocity": 80, "subtype": "noteOn" }, { "deltaTime": 0, "channel": 9, "type": "channel", "noteNumber": 42, "velocity": 66, "subtype": "noteOn" }, { "deltaTime": 0, "channel": 9, "type": "channel", "noteNumber": 70, "velocity": 51, "subtype": "noteOn" }, { "deltaTime": 24, "channel": 9, "type": "channel", "subtype": "noteOff", "noteNumber": 35, "velocity": 64 }, { "deltaTime": 0, "channel": 9, "type": "channel", "subtype": "noteOff", "noteNumber": 42, "velocity": 64 }, { "deltaTime": 0, "channel": 9, "type": "channel", "subtype": "noteOff", "noteNumber": 70, "velocity": 64 }, { "deltaTime": 72, "channel": 9, "type": "channel", "noteNumber": 42, "velocity": 50, "subtype": "noteOn" }, { "deltaTime": 0, "channel": 9, "type": "channel", "noteNumber": 70, "velocity": 35, "subtype": "noteOn" }, { "deltaTime": 24, "channel": 9, "type": "channel", "subtype": "noteOff", "noteNumber": 42, "velocity": 64 }, { "deltaTime": 0, "channel": 9, "type": "channel", "subtype": "noteOff", "noteNumber": 70, "velocity": 64 }, { "deltaTime": 72, "channel": 9, "type": "channel", "noteNumber": 75, "velocity": 127, "subtype": "noteOn" }, { "deltaTime": 0, "channel": 9, "type": "channel", "noteNumber": 42, "velocity": 66, "subtype": "noteOn" }, { "deltaTime": 0, "channel": 9, "type": "channel", "noteNumber": 70, "velocity": 51, "subtype": "noteOn" }, { "deltaTime": 24, "channel": 9, "type": "channel", "subtype": "noteOff", "noteNumber": 75, "velocity": 64 }, { "deltaTime": 0, "channel": 9, "type": "channel", "subtype": "noteOff", "noteNumber": 42, "velocity": 64 }, { "deltaTime": 0, "channel": 9, "type": "channel", "subtype": "noteOff", "noteNumber": 70, "velocity": 64 }, { "deltaTime": 72, "channel": 9, "type": "channel", "noteNumber": 35, "velocity": 80, "subtype": "noteOn" }, { "deltaTime": 0, "channel": 9, "type": "channel", "noteNumber": 42, "velocity": 50, "subtype": "noteOn" }, { "deltaTime": 0, "channel": 9, "type": "channel", "noteNumber": 70, "velocity": 35, "subtype": "noteOn" }, { "deltaTime": 24, "channel": 9, "type": "channel", "subtype": "noteOff", "noteNumber": 35, "velocity": 64 }, { "deltaTime": 0, "channel": 9, "type": "channel", "subtype": "noteOff", "noteNumber": 42, "velocity": 64 }, { "deltaTime": 0, "channel": 9, "type": "channel", "subtype": "noteOff", "noteNumber": 70, "velocity": 64 }, { "deltaTime": 72, "channel": 9, "type": "channel", "noteNumber": 35, "velocity": 80, "subtype": "noteOn" }, { "deltaTime": 0, "channel": 9, "type": "channel", "noteNumber": 42, "velocity": 66, "subtype": "noteOn" }, { "deltaTime": 0, "channel": 9, "type": "channel", "noteNumber": 70, "velocity": 51, "subtype": "noteOn" }, { "deltaTime": 24, "channel": 9, "type": "channel", "subtype": "noteOff", "noteNumber": 35, "velocity": 64 }, { "deltaTime": 0, "channel": 9, "type": "channel", "subtype": "noteOff", "noteNumber": 42, "velocity": 64 }, { "deltaTime": 0, "channel": 9, "type": "channel", "subtype": "noteOff", "noteNumber": 70, "velocity": 64 }, { "deltaTime": 72, "channel": 9, "type": "channel", "noteNumber": 42, "velocity": 50, "subtype": "noteOn" }, { "deltaTime": 0, "channel": 9, "type": "channel", "noteNumber": 70, "velocity": 35, "subtype": "noteOn" }, { "deltaTime": 24, "channel": 9, "type": "channel", "subtype": "noteOff", "noteNumber": 42, "velocity": 64 }, { "deltaTime": 0, "channel": 9, "type": "channel", "subtype": "noteOff", "noteNumber": 70, "velocity": 64 }, { "deltaTime": 72, "channel": 9, "type": "channel", "noteNumber": 75, "velocity": 127, "subtype": "noteOn" }, { "deltaTime": 0, "channel": 9, "type": "channel", "noteNumber": 42, "velocity": 66, "subtype": "noteOn" }, { "deltaTime": 0, "channel": 9, "type": "channel", "noteNumber": 70, "velocity": 51, "subtype": "noteOn" }, { "deltaTime": 24, "channel": 9, "type": "channel", "subtype": "noteOff", "noteNumber": 75, "velocity": 64 }, { "deltaTime": 0, "channel": 9, "type": "channel", "subtype": "noteOff", "noteNumber": 42, "velocity": 64 }, { "deltaTime": 0, "channel": 9, "type": "channel", "subtype": "noteOff", "noteNumber": 70, "velocity": 64 }, { "deltaTime": 72, "channel": 9, "type": "channel", "noteNumber": 42, "velocity": 50, "subtype": "noteOn" }, { "deltaTime": 0, "channel": 9, "type": "channel", "noteNumber": 70, "velocity": 35, "subtype": "noteOn" }, { "deltaTime": 24, "channel": 9, "type": "channel", "subtype": "noteOff", "noteNumber": 42, "velocity": 64 }, { "deltaTime": 0, "channel": 9, "type": "channel", "subtype": "noteOff", "noteNumber": 70, "velocity": 64 }, { "deltaTime": 72, "channel": 9, "type": "channel", "noteNumber": 35, "velocity": 80, "subtype": "noteOn" }, { "deltaTime": 0, "channel": 9, "type": "channel", "noteNumber": 42, "velocity": 66, "subtype": "noteOn" }, { "deltaTime": 0, "channel": 9, "type": "channel", "noteNumber": 70, "velocity": 51, "subtype": "noteOn" }, { "deltaTime": 24, "channel": 9, "type": "channel", "subtype": "noteOff", "noteNumber": 35, "velocity": 64 }, { "deltaTime": 0, "channel": 9, "type": "channel", "subtype": "noteOff", "noteNumber": 42, "velocity": 64 }, { "deltaTime": 0, "channel": 9, "type": "channel", "subtype": "noteOff", "noteNumber": 70, "velocity": 64 }, { "deltaTime": 72, "channel": 9, "type": "channel", "noteNumber": 42, "velocity": 50, "subtype": "noteOn" }, { "deltaTime": 0, "channel": 9, "type": "channel", "noteNumber": 70, "velocity": 35, "subtype": "noteOn" }, { "deltaTime": 24, "channel": 9, "type": "channel", "subtype": "noteOff", "noteNumber": 42, "velocity": 64 }, { "deltaTime": 0, "channel": 9, "type": "channel", "subtype": "noteOff", "noteNumber": 70, "velocity": 64 }, { "deltaTime": 72, "channel": 9, "type": "channel", "noteNumber": 75, "velocity": 127, "subtype": "noteOn" }, { "deltaTime": 0, "channel": 9, "type": "channel", "noteNumber": 42, "velocity": 66, "subtype": "noteOn" }, { "deltaTime": 0, "channel": 9, "type": "channel", "noteNumber": 70, "velocity": 51, "subtype": "noteOn" }, { "deltaTime": 24, "channel": 9, "type": "channel", "subtype": "noteOff", "noteNumber": 75, "velocity": 64 }, { "deltaTime": 0, "channel": 9, "type": "channel", "subtype": "noteOff", "noteNumber": 42, "velocity": 64 }, { "deltaTime": 0, "channel": 9, "type": "channel", "subtype": "noteOff", "noteNumber": 70, "velocity": 64 }, { "deltaTime": 72, "channel": 9, "type": "channel", "noteNumber": 35, "velocity": 80, "subtype": "noteOn" }, { "deltaTime": 0, "channel": 9, "type": "channel", "noteNumber": 42, "velocity": 50, "subtype": "noteOn" }, { "deltaTime": 0, "channel": 9, "type": "channel", "noteNumber": 70, "velocity": 35, "subtype": "noteOn" }, { "deltaTime": 24, "channel": 9, "type": "channel", "subtype": "noteOff", "noteNumber": 35, "velocity": 64 }, { "deltaTime": 0, "channel": 9, "type": "channel", "subtype": "noteOff", "noteNumber": 42, "velocity": 64 }, { "deltaTime": 0, "channel": 9, "type": "channel", "subtype": "noteOff", "noteNumber": 70, "velocity": 64 }, { "deltaTime": 72, "channel": 9, "type": "channel", "noteNumber": 35, "velocity": 80, "subtype": "noteOn" }, { "deltaTime": 0, "channel": 9, "type": "channel", "noteNumber": 42, "velocity": 66, "subtype": "noteOn" }, { "deltaTime": 0, "channel": 9, "type": "channel", "noteNumber": 70, "velocity": 51, "subtype": "noteOn" }, { "deltaTime": 24, "channel": 9, "type": "channel", "subtype": "noteOff", "noteNumber": 35, "velocity": 64 }, { "deltaTime": 0, "channel": 9, "type": "channel", "subtype": "noteOff", "noteNumber": 42, "velocity": 64 }, { "deltaTime": 0, "channel": 9, "type": "channel", "subtype": "noteOff", "noteNumber": 70, "velocity": 64 }, { "deltaTime": 72, "channel": 9, "type": "channel", "noteNumber": 42, "velocity": 50, "subtype": "noteOn" }, { "deltaTime": 0, "channel": 9, "type": "channel", "noteNumber": 70, "velocity": 35, "subtype": "noteOn" }, { "deltaTime": 24, "channel": 9, "type": "channel", "subtype": "noteOff", "noteNumber": 42, "velocity": 64 }, { "deltaTime": 0, "channel": 9, "type": "channel", "subtype": "noteOff", "noteNumber": 70, "velocity": 64 }, { "deltaTime": 72, "channel": 9, "type": "channel", "noteNumber": 75, "velocity": 127, "subtype": "noteOn" }, { "deltaTime": 0, "channel": 9, "type": "channel", "noteNumber": 42, "velocity": 66, "subtype": "noteOn" }, { "deltaTime": 0, "channel": 9, "type": "channel", "noteNumber": 70, "velocity": 51, "subtype": "noteOn" }, { "deltaTime": 24, "channel": 9, "type": "channel", "subtype": "noteOff", "noteNumber": 75, "velocity": 64 }, { "deltaTime": 0, "channel": 9, "type": "channel", "subtype": "noteOff", "noteNumber": 42, "velocity": 64 }, { "deltaTime": 0, "channel": 9, "type": "channel", "subtype": "noteOff", "noteNumber": 70, "velocity": 64 }, { "deltaTime": 72, "channel": 9, "type": "channel", "noteNumber": 42, "velocity": 50, "subtype": "noteOn" }, { "deltaTime": 0, "channel": 9, "type": "channel", "noteNumber": 70, "velocity": 35, "subtype": "noteOn" }, { "deltaTime": 24, "channel": 9, "type": "channel", "subtype": "noteOff", "noteNumber": 42, "velocity": 64 }, { "deltaTime": 0, "channel": 9, "type": "channel", "subtype": "noteOff", "noteNumber": 70, "velocity": 64 }, { "deltaTime": 72, "channel": 9, "type": "channel", "noteNumber": 35, "velocity": 80, "subtype": "noteOn" }, { "deltaTime": 0, "channel": 9, "type": "channel", "noteNumber": 42, "velocity": 66, "subtype": "noteOn" }, { "deltaTime": 0, "channel": 9, "type": "channel", "noteNumber": 70, "velocity": 51, "subtype": "noteOn" }, { "deltaTime": 24, "channel": 9, "type": "channel", "subtype": "noteOff", "noteNumber": 35, "velocity": 64 }, { "deltaTime": 0, "channel": 9, "type": "channel", "subtype": "noteOff", "noteNumber": 42, "velocity": 64 }, { "deltaTime": 0, "channel": 9, "type": "channel", "subtype": "noteOff", "noteNumber": 70, "velocity": 64 }, { "deltaTime": 72, "channel": 9, "type": "channel", "noteNumber": 42, "velocity": 50, "subtype": "noteOn" }, { "deltaTime": 0, "channel": 9, "type": "channel", "noteNumber": 70, "velocity": 35, "subtype": "noteOn" }, { "deltaTime": 24, "channel": 9, "type": "channel", "subtype": "noteOff", "noteNumber": 42, "velocity": 64 }, { "deltaTime": 0, "channel": 9, "type": "channel", "subtype": "noteOff", "noteNumber": 70, "velocity": 64 }, { "deltaTime": 72, "channel": 9, "type": "channel", "noteNumber": 75, "velocity": 127, "subtype": "noteOn" }, { "deltaTime": 0, "channel": 9, "type": "channel", "noteNumber": 42, "velocity": 66, "subtype": "noteOn" }, { "deltaTime": 0, "channel": 9, "type": "channel", "noteNumber": 70, "velocity": 51, "subtype": "noteOn" }, { "deltaTime": 24, "channel": 9, "type": "channel", "subtype": "noteOff", "noteNumber": 75, "velocity": 64 }, { "deltaTime": 0, "channel": 9, "type": "channel", "subtype": "noteOff", "noteNumber": 42, "velocity": 64 }, { "deltaTime": 0, "channel": 9, "type": "channel", "subtype": "noteOff", "noteNumber": 70, "velocity": 64 }, { "deltaTime": 72, "channel": 9, "type": "channel", "noteNumber": 35, "velocity": 80, "subtype": "noteOn" }, { "deltaTime": 0, "channel": 9, "type": "channel", "noteNumber": 42, "velocity": 50, "subtype": "noteOn" }, { "deltaTime": 0, "channel": 9, "type": "channel", "noteNumber": 70, "velocity": 35, "subtype": "noteOn" }, { "deltaTime": 24, "channel": 9, "type": "channel", "subtype": "noteOff", "noteNumber": 35, "velocity": 64 }, { "deltaTime": 0, "channel": 9, "type": "channel", "subtype": "noteOff", "noteNumber": 42, "velocity": 64 }, { "deltaTime": 0, "channel": 9, "type": "channel", "subtype": "noteOff", "noteNumber": 70, "velocity": 64 }, { "deltaTime": 72, "channel": 9, "type": "channel", "noteNumber": 35, "velocity": 80, "subtype": "noteOn" }, { "deltaTime": 0, "channel": 9, "type": "channel", "noteNumber": 42, "velocity": 66, "subtype": "noteOn" }, { "deltaTime": 0, "channel": 9, "type": "channel", "noteNumber": 70, "velocity": 51, "subtype": "noteOn" }, { "deltaTime": 24, "channel": 9, "type": "channel", "subtype": "noteOff", "noteNumber": 35, "velocity": 64 }, { "deltaTime": 0, "channel": 9, "type": "channel", "subtype": "noteOff", "noteNumber": 42, "velocity": 64 }, { "deltaTime": 0, "channel": 9, "type": "channel", "subtype": "noteOff", "noteNumber": 70, "velocity": 64 }, { "deltaTime": 72, "channel": 9, "type": "channel", "noteNumber": 42, "velocity": 50, "subtype": "noteOn" }, { "deltaTime": 0, "channel": 9, "type": "channel", "noteNumber": 70, "velocity": 35, "subtype": "noteOn" }, { "deltaTime": 24, "channel": 9, "type": "channel", "subtype": "noteOff", "noteNumber": 42, "velocity": 64 }, { "deltaTime": 0, "channel": 9, "type": "channel", "subtype": "noteOff", "noteNumber": 70, "velocity": 64 }, { "deltaTime": 72, "channel": 9, "type": "channel", "noteNumber": 75, "velocity": 127, "subtype": "noteOn" }, { "deltaTime": 0, "channel": 9, "type": "channel", "noteNumber": 42, "velocity": 66, "subtype": "noteOn" }, { "deltaTime": 0, "channel": 9, "type": "channel", "noteNumber": 70, "velocity": 51, "subtype": "noteOn" }, { "deltaTime": 24, "channel": 9, "type": "channel", "subtype": "noteOff", "noteNumber": 75, "velocity": 64 }, { "deltaTime": 0, "channel": 9, "type": "channel", "subtype": "noteOff", "noteNumber": 42, "velocity": 64 }, { "deltaTime": 0, "channel": 9, "type": "channel", "subtype": "noteOff", "noteNumber": 70, "velocity": 64 }, { "deltaTime": 72, "channel": 9, "type": "channel", "noteNumber": 42, "velocity": 50, "subtype": "noteOn" }, { "deltaTime": 0, "channel": 9, "type": "channel", "noteNumber": 70, "velocity": 35, "subtype": "noteOn" }, { "deltaTime": 24, "channel": 9, "type": "channel", "subtype": "noteOff", "noteNumber": 42, "velocity": 64 }, { "deltaTime": 0, "channel": 9, "type": "channel", "subtype": "noteOff", "noteNumber": 70, "velocity": 64 }, { "deltaTime": 72, "channel": 9, "type": "channel", "noteNumber": 35, "velocity": 80, "subtype": "noteOn" }, { "deltaTime": 0, "channel": 9, "type": "channel", "noteNumber": 42, "velocity": 66, "subtype": "noteOn" }, { "deltaTime": 0, "channel": 9, "type": "channel", "noteNumber": 70, "velocity": 51, "subtype": "noteOn" }, { "deltaTime": 24, "channel": 9, "type": "channel", "subtype": "noteOff", "noteNumber": 35, "velocity": 64 }, { "deltaTime": 0, "channel": 9, "type": "channel", "subtype": "noteOff", "noteNumber": 42, "velocity": 64 }, { "deltaTime": 0, "channel": 9, "type": "channel", "subtype": "noteOff", "noteNumber": 70, "velocity": 64 }, { "deltaTime": 72, "channel": 9, "type": "channel", "noteNumber": 42, "velocity": 50, "subtype": "noteOn" }, { "deltaTime": 0, "channel": 9, "type": "channel", "noteNumber": 70, "velocity": 35, "subtype": "noteOn" }, { "deltaTime": 24, "channel": 9, "type": "channel", "subtype": "noteOff", "noteNumber": 42, "velocity": 64 }, { "deltaTime": 0, "channel": 9, "type": "channel", "subtype": "noteOff", "noteNumber": 70, "velocity": 64 }, { "deltaTime": 72, "channel": 9, "type": "channel", "noteNumber": 75, "velocity": 127, "subtype": "noteOn" }, { "deltaTime": 0, "channel": 9, "type": "channel", "noteNumber": 42, "velocity": 66, "subtype": "noteOn" }, { "deltaTime": 0, "channel": 9, "type": "channel", "noteNumber": 70, "velocity": 51, "subtype": "noteOn" }, { "deltaTime": 24, "channel": 9, "type": "channel", "subtype": "noteOff", "noteNumber": 75, "velocity": 64 }, { "deltaTime": 0, "channel": 9, "type": "channel", "subtype": "noteOff", "noteNumber": 42, "velocity": 64 }, { "deltaTime": 0, "channel": 9, "type": "channel", "subtype": "noteOff", "noteNumber": 70, "velocity": 64 }, { "deltaTime": 72, "channel": 9, "type": "channel", "noteNumber": 35, "velocity": 80, "subtype": "noteOn" }, { "deltaTime": 0, "channel": 9, "type": "channel", "noteNumber": 42, "velocity": 50, "subtype": "noteOn" }, { "deltaTime": 0, "channel": 9, "type": "channel", "noteNumber": 70, "velocity": 35, "subtype": "noteOn" }, { "deltaTime": 24, "channel": 9, "type": "channel", "subtype": "noteOff", "noteNumber": 35, "velocity": 64 }, { "deltaTime": 0, "channel": 9, "type": "channel", "subtype": "noteOff", "noteNumber": 42, "velocity": 64 }, { "deltaTime": 0, "channel": 9, "type": "channel", "subtype": "noteOff", "noteNumber": 70, "velocity": 64 }, { "deltaTime": 72, "channel": 9, "type": "channel", "noteNumber": 35, "velocity": 80, "subtype": "noteOn" }, { "deltaTime": 0, "channel": 9, "type": "channel", "noteNumber": 42, "velocity": 66, "subtype": "noteOn" }, { "deltaTime": 0, "channel": 9, "type": "channel", "noteNumber": 70, "velocity": 51, "subtype": "noteOn" }, { "deltaTime": 24, "channel": 9, "type": "channel", "subtype": "noteOff", "noteNumber": 35, "velocity": 64 }, { "deltaTime": 0, "channel": 9, "type": "channel", "subtype": "noteOff", "noteNumber": 42, "velocity": 64 }, { "deltaTime": 0, "channel": 9, "type": "channel", "subtype": "noteOff", "noteNumber": 70, "velocity": 64 }, { "deltaTime": 72, "channel": 9, "type": "channel", "noteNumber": 42, "velocity": 50, "subtype": "noteOn" }, { "deltaTime": 0, "channel": 9, "type": "channel", "noteNumber": 70, "velocity": 35, "subtype": "noteOn" }, { "deltaTime": 24, "channel": 9, "type": "channel", "subtype": "noteOff", "noteNumber": 42, "velocity": 64 }, { "deltaTime": 0, "channel": 9, "type": "channel", "subtype": "noteOff", "noteNumber": 70, "velocity": 64 }, { "deltaTime": 72, "channel": 9, "type": "channel", "noteNumber": 75, "velocity": 127, "subtype": "noteOn" }, { "deltaTime": 0, "channel": 9, "type": "channel", "noteNumber": 42, "velocity": 66, "subtype": "noteOn" }, { "deltaTime": 0, "channel": 9, "type": "channel", "noteNumber": 70, "velocity": 51, "subtype": "noteOn" }, { "deltaTime": 24, "channel": 9, "type": "channel", "subtype": "noteOff", "noteNumber": 75, "velocity": 64 }, { "deltaTime": 0, "channel": 9, "type": "channel", "subtype": "noteOff", "noteNumber": 42, "velocity": 64 }, { "deltaTime": 0, "channel": 9, "type": "channel", "subtype": "noteOff", "noteNumber": 70, "velocity": 64 }, { "deltaTime": 72, "channel": 9, "type": "channel", "noteNumber": 42, "velocity": 50, "subtype": "noteOn" }, { "deltaTime": 0, "channel": 9, "type": "channel", "noteNumber": 70, "velocity": 35, "subtype": "noteOn" }, { "deltaTime": 24, "channel": 9, "type": "channel", "subtype": "noteOff", "noteNumber": 42, "velocity": 64 }, { "deltaTime": 0, "channel": 9, "type": "channel", "subtype": "noteOff", "noteNumber": 70, "velocity": 64 }, { "deltaTime": 72, "channel": 9, "type": "channel", "noteNumber": 35, "velocity": 80, "subtype": "noteOn" }, { "deltaTime": 0, "channel": 9, "type": "channel", "noteNumber": 42, "velocity": 66, "subtype": "noteOn" }, { "deltaTime": 0, "channel": 9, "type": "channel", "noteNumber": 70, "velocity": 51, "subtype": "noteOn" }, { "deltaTime": 24, "channel": 9, "type": "channel", "subtype": "noteOff", "noteNumber": 35, "velocity": 64 }, { "deltaTime": 0, "channel": 9, "type": "channel", "subtype": "noteOff", "noteNumber": 42, "velocity": 64 }, { "deltaTime": 0, "channel": 9, "type": "channel", "subtype": "noteOff", "noteNumber": 70, "velocity": 64 }, { "deltaTime": 72, "channel": 9, "type": "channel", "noteNumber": 42, "velocity": 50, "subtype": "noteOn" }, { "deltaTime": 0, "channel": 9, "type": "channel", "noteNumber": 70, "velocity": 35, "subtype": "noteOn" }, { "deltaTime": 24, "channel": 9, "type": "channel", "subtype": "noteOff", "noteNumber": 42, "velocity": 64 }, { "deltaTime": 0, "channel": 9, "type": "channel", "subtype": "noteOff", "noteNumber": 70, "velocity": 64 }, { "deltaTime": 72, "channel": 9, "type": "channel", "noteNumber": 75, "velocity": 127, "subtype": "noteOn" }, { "deltaTime": 0, "channel": 9, "type": "channel", "noteNumber": 42, "velocity": 66, "subtype": "noteOn" }, { "deltaTime": 0, "channel": 9, "type": "channel", "noteNumber": 70, "velocity": 51, "subtype": "noteOn" }, { "deltaTime": 24, "channel": 9, "type": "channel", "subtype": "noteOff", "noteNumber": 75, "velocity": 64 }, { "deltaTime": 0, "channel": 9, "type": "channel", "subtype": "noteOff", "noteNumber": 42, "velocity": 64 }, { "deltaTime": 0, "channel": 9, "type": "channel", "subtype": "noteOff", "noteNumber": 70, "velocity": 64 }, { "deltaTime": 72, "channel": 9, "type": "channel", "noteNumber": 35, "velocity": 80, "subtype": "noteOn" }, { "deltaTime": 0, "channel": 9, "type": "channel", "noteNumber": 42, "velocity": 50, "subtype": "noteOn" }, { "deltaTime": 0, "channel": 9, "type": "channel", "noteNumber": 70, "velocity": 35, "subtype": "noteOn" }, { "deltaTime": 24, "channel": 9, "type": "channel", "subtype": "noteOff", "noteNumber": 35, "velocity": 64 }, { "deltaTime": 0, "channel": 9, "type": "channel", "subtype": "noteOff", "noteNumber": 42, "velocity": 64 }, { "deltaTime": 0, "channel": 9, "type": "channel", "subtype": "noteOff", "noteNumber": 70, "velocity": 64 }, { "deltaTime": 72, "channel": 9, "type": "channel", "noteNumber": 35, "velocity": 80, "subtype": "noteOn" }, { "deltaTime": 0, "channel": 9, "type": "channel", "noteNumber": 42, "velocity": 66, "subtype": "noteOn" }, { "deltaTime": 0, "channel": 9, "type": "channel", "noteNumber": 70, "velocity": 51, "subtype": "noteOn" }, { "deltaTime": 24, "channel": 9, "type": "channel", "subtype": "noteOff", "noteNumber": 35, "velocity": 64 }, { "deltaTime": 0, "channel": 9, "type": "channel", "subtype": "noteOff", "noteNumber": 42, "velocity": 64 }, { "deltaTime": 0, "channel": 9, "type": "channel", "subtype": "noteOff", "noteNumber": 70, "velocity": 64 }, { "deltaTime": 72, "channel": 9, "type": "channel", "noteNumber": 42, "velocity": 50, "subtype": "noteOn" }, { "deltaTime": 0, "channel": 9, "type": "channel", "noteNumber": 70, "velocity": 35, "subtype": "noteOn" }, { "deltaTime": 24, "channel": 9, "type": "channel", "subtype": "noteOff", "noteNumber": 42, "velocity": 64 }, { "deltaTime": 0, "channel": 9, "type": "channel", "subtype": "noteOff", "noteNumber": 70, "velocity": 64 }, { "deltaTime": 72, "channel": 9, "type": "channel", "noteNumber": 75, "velocity": 127, "subtype": "noteOn" }, { "deltaTime": 0, "channel": 9, "type": "channel", "noteNumber": 42, "velocity": 66, "subtype": "noteOn" }, { "deltaTime": 0, "channel": 9, "type": "channel", "noteNumber": 70, "velocity": 51, "subtype": "noteOn" }, { "deltaTime": 24, "channel": 9, "type": "channel", "subtype": "noteOff", "noteNumber": 75, "velocity": 64 }, { "deltaTime": 0, "channel": 9, "type": "channel", "subtype": "noteOff", "noteNumber": 42, "velocity": 64 }, { "deltaTime": 0, "channel": 9, "type": "channel", "subtype": "noteOff", "noteNumber": 70, "velocity": 64 }, { "deltaTime": 72, "channel": 9, "type": "channel", "noteNumber": 42, "velocity": 50, "subtype": "noteOn" }, { "deltaTime": 0, "channel": 9, "type": "channel", "noteNumber": 70, "velocity": 35, "subtype": "noteOn" }, { "deltaTime": 24, "channel": 9, "type": "channel", "subtype": "noteOff", "noteNumber": 42, "velocity": 64 }, { "deltaTime": 0, "channel": 9, "type": "channel", "subtype": "noteOff", "noteNumber": 70, "velocity": 64 }, { "deltaTime": 72, "channel": 9, "type": "channel", "noteNumber": 35, "velocity": 80, "subtype": "noteOn" }, { "deltaTime": 0, "channel": 9, "type": "channel", "noteNumber": 42, "velocity": 66, "subtype": "noteOn" }, { "deltaTime": 0, "channel": 9, "type": "channel", "noteNumber": 70, "velocity": 51, "subtype": "noteOn" }, { "deltaTime": 24, "channel": 9, "type": "channel", "subtype": "noteOff", "noteNumber": 35, "velocity": 64 }, { "deltaTime": 0, "channel": 9, "type": "channel", "subtype": "noteOff", "noteNumber": 42, "velocity": 64 }, { "deltaTime": 0, "channel": 9, "type": "channel", "subtype": "noteOff", "noteNumber": 70, "velocity": 64 }, { "deltaTime": 72, "channel": 9, "type": "channel", "noteNumber": 42, "velocity": 50, "subtype": "noteOn" }, { "deltaTime": 0, "channel": 9, "type": "channel", "noteNumber": 70, "velocity": 35, "subtype": "noteOn" }, { "deltaTime": 24, "channel": 9, "type": "channel", "subtype": "noteOff", "noteNumber": 42, "velocity": 64 }, { "deltaTime": 0, "channel": 9, "type": "channel", "subtype": "noteOff", "noteNumber": 70, "velocity": 64 }, { "deltaTime": 72, "channel": 9, "type": "channel", "noteNumber": 75, "velocity": 127, "subtype": "noteOn" }, { "deltaTime": 0, "channel": 9, "type": "channel", "noteNumber": 42, "velocity": 66, "subtype": "noteOn" }, { "deltaTime": 0, "channel": 9, "type": "channel", "noteNumber": 70, "velocity": 51, "subtype": "noteOn" }, { "deltaTime": 24, "channel": 9, "type": "channel", "subtype": "noteOff", "noteNumber": 75, "velocity": 64 }, { "deltaTime": 0, "channel": 9, "type": "channel", "subtype": "noteOff", "noteNumber": 42, "velocity": 64 }, { "deltaTime": 0, "channel": 9, "type": "channel", "subtype": "noteOff", "noteNumber": 70, "velocity": 64 }, { "deltaTime": 72, "channel": 9, "type": "channel", "noteNumber": 35, "velocity": 80, "subtype": "noteOn" }, { "deltaTime": 0, "channel": 9, "type": "channel", "noteNumber": 42, "velocity": 50, "subtype": "noteOn" }, { "deltaTime": 0, "channel": 9, "type": "channel", "noteNumber": 70, "velocity": 35, "subtype": "noteOn" }, { "deltaTime": 24, "channel": 9, "type": "channel", "subtype": "noteOff", "noteNumber": 35, "velocity": 64 }, { "deltaTime": 0, "channel": 9, "type": "channel", "subtype": "noteOff", "noteNumber": 42, "velocity": 64 }, { "deltaTime": 0, "channel": 9, "type": "channel", "subtype": "noteOff", "noteNumber": 70, "velocity": 64 }, { "deltaTime": 72, "channel": 9, "type": "channel", "noteNumber": 35, "velocity": 80, "subtype": "noteOn" }, { "deltaTime": 0, "channel": 9, "type": "channel", "noteNumber": 42, "velocity": 66, "subtype": "noteOn" }, { "deltaTime": 0, "channel": 9, "type": "channel", "noteNumber": 70, "velocity": 51, "subtype": "noteOn" }, { "deltaTime": 24, "channel": 9, "type": "channel", "subtype": "noteOff", "noteNumber": 35, "velocity": 64 }, { "deltaTime": 0, "channel": 9, "type": "channel", "subtype": "noteOff", "noteNumber": 42, "velocity": 64 }, { "deltaTime": 0, "channel": 9, "type": "channel", "subtype": "noteOff", "noteNumber": 70, "velocity": 64 }, { "deltaTime": 72, "channel": 9, "type": "channel", "noteNumber": 42, "velocity": 50, "subtype": "noteOn" }, { "deltaTime": 0, "channel": 9, "type": "channel", "noteNumber": 70, "velocity": 35, "subtype": "noteOn" }, { "deltaTime": 24, "channel": 9, "type": "channel", "subtype": "noteOff", "noteNumber": 42, "velocity": 64 }, { "deltaTime": 0, "channel": 9, "type": "channel", "subtype": "noteOff", "noteNumber": 70, "velocity": 64 }, { "deltaTime": 72, "channel": 9, "type": "channel", "noteNumber": 75, "velocity": 127, "subtype": "noteOn" }, { "deltaTime": 0, "channel": 9, "type": "channel", "noteNumber": 42, "velocity": 66, "subtype": "noteOn" }, { "deltaTime": 0, "channel": 9, "type": "channel", "noteNumber": 70, "velocity": 51, "subtype": "noteOn" }, { "deltaTime": 24, "channel": 9, "type": "channel", "subtype": "noteOff", "noteNumber": 75, "velocity": 64 }, { "deltaTime": 0, "channel": 9, "type": "channel", "subtype": "noteOff", "noteNumber": 42, "velocity": 64 }, { "deltaTime": 0, "channel": 9, "type": "channel", "subtype": "noteOff", "noteNumber": 70, "velocity": 64 }, { "deltaTime": 72, "channel": 9, "type": "channel", "noteNumber": 42, "velocity": 50, "subtype": "noteOn" }, { "deltaTime": 0, "channel": 9, "type": "channel", "noteNumber": 70, "velocity": 35, "subtype": "noteOn" }, { "deltaTime": 24, "channel": 9, "type": "channel", "subtype": "noteOff", "noteNumber": 42, "velocity": 64 }, { "deltaTime": 0, "channel": 9, "type": "channel", "subtype": "noteOff", "noteNumber": 70, "velocity": 64 }, { "deltaTime": 72, "channel": 9, "type": "channel", "noteNumber": 35, "velocity": 80, "subtype": "noteOn" }, { "deltaTime": 0, "channel": 9, "type": "channel", "noteNumber": 42, "velocity": 66, "subtype": "noteOn" }, { "deltaTime": 0, "channel": 9, "type": "channel", "noteNumber": 70, "velocity": 51, "subtype": "noteOn" }, { "deltaTime": 24, "channel": 9, "type": "channel", "subtype": "noteOff", "noteNumber": 35, "velocity": 64 }, { "deltaTime": 0, "channel": 9, "type": "channel", "subtype": "noteOff", "noteNumber": 42, "velocity": 64 }, { "deltaTime": 0, "channel": 9, "type": "channel", "subtype": "noteOff", "noteNumber": 70, "velocity": 64 }, { "deltaTime": 72, "channel": 9, "type": "channel", "noteNumber": 42, "velocity": 50, "subtype": "noteOn" }, { "deltaTime": 0, "channel": 9, "type": "channel", "noteNumber": 70, "velocity": 35, "subtype": "noteOn" }, { "deltaTime": 24, "channel": 9, "type": "channel", "subtype": "noteOff", "noteNumber": 42, "velocity": 64 }, { "deltaTime": 0, "channel": 9, "type": "channel", "subtype": "noteOff", "noteNumber": 70, "velocity": 64 }, { "deltaTime": 72, "channel": 9, "type": "channel", "noteNumber": 75, "velocity": 127, "subtype": "noteOn" }, { "deltaTime": 0, "channel": 9, "type": "channel", "noteNumber": 42, "velocity": 66, "subtype": "noteOn" }, { "deltaTime": 0, "channel": 9, "type": "channel", "noteNumber": 70, "velocity": 51, "subtype": "noteOn" }, { "deltaTime": 24, "channel": 9, "type": "channel", "subtype": "noteOff", "noteNumber": 75, "velocity": 64 }, { "deltaTime": 0, "channel": 9, "type": "channel", "subtype": "noteOff", "noteNumber": 42, "velocity": 64 }, { "deltaTime": 0, "channel": 9, "type": "channel", "subtype": "noteOff", "noteNumber": 70, "velocity": 64 }, { "deltaTime": 72, "channel": 9, "type": "channel", "noteNumber": 35, "velocity": 80, "subtype": "noteOn" }, { "deltaTime": 0, "channel": 9, "type": "channel", "noteNumber": 42, "velocity": 50, "subtype": "noteOn" }, { "deltaTime": 0, "channel": 9, "type": "channel", "noteNumber": 70, "velocity": 35, "subtype": "noteOn" }, { "deltaTime": 24, "channel": 9, "type": "channel", "subtype": "noteOff", "noteNumber": 35, "velocity": 64 }, { "deltaTime": 0, "channel": 9, "type": "channel", "subtype": "noteOff", "noteNumber": 42, "velocity": 64 }, { "deltaTime": 0, "channel": 9, "type": "channel", "subtype": "noteOff", "noteNumber": 70, "velocity": 64 }, { "deltaTime": 72, "channel": 9, "type": "channel", "noteNumber": 35, "velocity": 80, "subtype": "noteOn" }, { "deltaTime": 0, "channel": 9, "type": "channel", "noteNumber": 42, "velocity": 66, "subtype": "noteOn" }, { "deltaTime": 0, "channel": 9, "type": "channel", "noteNumber": 70, "velocity": 51, "subtype": "noteOn" }, { "deltaTime": 24, "channel": 9, "type": "channel", "subtype": "noteOff", "noteNumber": 35, "velocity": 64 }, { "deltaTime": 0, "channel": 9, "type": "channel", "subtype": "noteOff", "noteNumber": 42, "velocity": 64 }, { "deltaTime": 0, "channel": 9, "type": "channel", "subtype": "noteOff", "noteNumber": 70, "velocity": 64 }, { "deltaTime": 72, "channel": 9, "type": "channel", "noteNumber": 42, "velocity": 50, "subtype": "noteOn" }, { "deltaTime": 0, "channel": 9, "type": "channel", "noteNumber": 70, "velocity": 35, "subtype": "noteOn" }, { "deltaTime": 24, "channel": 9, "type": "channel", "subtype": "noteOff", "noteNumber": 42, "velocity": 64 }, { "deltaTime": 0, "channel": 9, "type": "channel", "subtype": "noteOff", "noteNumber": 70, "velocity": 64 }, { "deltaTime": 72, "channel": 9, "type": "channel", "noteNumber": 75, "velocity": 127, "subtype": "noteOn" }, { "deltaTime": 0, "channel": 9, "type": "channel", "noteNumber": 42, "velocity": 66, "subtype": "noteOn" }, { "deltaTime": 0, "channel": 9, "type": "channel", "noteNumber": 70, "velocity": 51, "subtype": "noteOn" }, { "deltaTime": 24, "channel": 9, "type": "channel", "subtype": "noteOff", "noteNumber": 75, "velocity": 64 }, { "deltaTime": 0, "channel": 9, "type": "channel", "subtype": "noteOff", "noteNumber": 42, "velocity": 64 }, { "deltaTime": 0, "channel": 9, "type": "channel", "subtype": "noteOff", "noteNumber": 70, "velocity": 64 }, { "deltaTime": 72, "channel": 9, "type": "channel", "noteNumber": 42, "velocity": 50, "subtype": "noteOn" }, { "deltaTime": 0, "channel": 9, "type": "channel", "noteNumber": 70, "velocity": 35, "subtype": "noteOn" }, { "deltaTime": 24, "channel": 9, "type": "channel", "subtype": "noteOff", "noteNumber": 42, "velocity": 64 }, { "deltaTime": 0, "channel": 9, "type": "channel", "subtype": "noteOff", "noteNumber": 70, "velocity": 64 }, { "deltaTime": 72, "channel": 9, "type": "channel", "noteNumber": 35, "velocity": 80, "subtype": "noteOn" }, { "deltaTime": 0, "channel": 9, "type": "channel", "noteNumber": 42, "velocity": 66, "subtype": "noteOn" }, { "deltaTime": 0, "channel": 9, "type": "channel", "noteNumber": 70, "velocity": 51, "subtype": "noteOn" }, { "deltaTime": 24, "channel": 9, "type": "channel", "subtype": "noteOff", "noteNumber": 35, "velocity": 64 }, { "deltaTime": 0, "channel": 9, "type": "channel", "subtype": "noteOff", "noteNumber": 42, "velocity": 64 }, { "deltaTime": 0, "channel": 9, "type": "channel", "subtype": "noteOff", "noteNumber": 70, "velocity": 64 }, { "deltaTime": 72, "channel": 9, "type": "channel", "noteNumber": 42, "velocity": 50, "subtype": "noteOn" }, { "deltaTime": 0, "channel": 9, "type": "channel", "noteNumber": 70, "velocity": 35, "subtype": "noteOn" }, { "deltaTime": 24, "channel": 9, "type": "channel", "subtype": "noteOff", "noteNumber": 42, "velocity": 64 }, { "deltaTime": 0, "channel": 9, "type": "channel", "subtype": "noteOff", "noteNumber": 70, "velocity": 64 }, { "deltaTime": 72, "channel": 9, "type": "channel", "noteNumber": 75, "velocity": 127, "subtype": "noteOn" }, { "deltaTime": 0, "channel": 9, "type": "channel", "noteNumber": 42, "velocity": 66, "subtype": "noteOn" }, { "deltaTime": 0, "channel": 9, "type": "channel", "noteNumber": 70, "velocity": 51, "subtype": "noteOn" }, { "deltaTime": 24, "channel": 9, "type": "channel", "subtype": "noteOff", "noteNumber": 75, "velocity": 64 }, { "deltaTime": 0, "channel": 9, "type": "channel", "subtype": "noteOff", "noteNumber": 42, "velocity": 64 }, { "deltaTime": 0, "channel": 9, "type": "channel", "subtype": "noteOff", "noteNumber": 70, "velocity": 64 }, { "deltaTime": 72, "channel": 9, "type": "channel", "noteNumber": 35, "velocity": 80, "subtype": "noteOn" }, { "deltaTime": 0, "channel": 9, "type": "channel", "noteNumber": 42, "velocity": 50, "subtype": "noteOn" }, { "deltaTime": 0, "channel": 9, "type": "channel", "noteNumber": 70, "velocity": 35, "subtype": "noteOn" }, { "deltaTime": 24, "channel": 9, "type": "channel", "subtype": "noteOff", "noteNumber": 35, "velocity": 64 }, { "deltaTime": 0, "channel": 9, "type": "channel", "subtype": "noteOff", "noteNumber": 42, "velocity": 64 }, { "deltaTime": 0, "channel": 9, "type": "channel", "subtype": "noteOff", "noteNumber": 70, "velocity": 64 }, { "deltaTime": 72, "channel": 9, "type": "channel", "noteNumber": 35, "velocity": 80, "subtype": "noteOn" }, { "deltaTime": 0, "channel": 9, "type": "channel", "noteNumber": 42, "velocity": 66, "subtype": "noteOn" }, { "deltaTime": 0, "channel": 9, "type": "channel", "noteNumber": 70, "velocity": 51, "subtype": "noteOn" }, { "deltaTime": 24, "channel": 9, "type": "channel", "subtype": "noteOff", "noteNumber": 35, "velocity": 64 }, { "deltaTime": 0, "channel": 9, "type": "channel", "subtype": "noteOff", "noteNumber": 42, "velocity": 64 }, { "deltaTime": 0, "channel": 9, "type": "channel", "subtype": "noteOff", "noteNumber": 70, "velocity": 64 }, { "deltaTime": 72, "channel": 9, "type": "channel", "noteNumber": 42, "velocity": 50, "subtype": "noteOn" }, { "deltaTime": 0, "channel": 9, "type": "channel", "noteNumber": 70, "velocity": 35, "subtype": "noteOn" }, { "deltaTime": 24, "channel": 9, "type": "channel", "subtype": "noteOff", "noteNumber": 42, "velocity": 64 }, { "deltaTime": 0, "channel": 9, "type": "channel", "subtype": "noteOff", "noteNumber": 70, "velocity": 64 }, { "deltaTime": 72, "channel": 9, "type": "channel", "noteNumber": 75, "velocity": 127, "subtype": "noteOn" }, { "deltaTime": 0, "channel": 9, "type": "channel", "noteNumber": 42, "velocity": 66, "subtype": "noteOn" }, { "deltaTime": 0, "channel": 9, "type": "channel", "noteNumber": 70, "velocity": 51, "subtype": "noteOn" }, { "deltaTime": 24, "channel": 9, "type": "channel", "subtype": "noteOff", "noteNumber": 75, "velocity": 64 }, { "deltaTime": 0, "channel": 9, "type": "channel", "subtype": "noteOff", "noteNumber": 42, "velocity": 64 }, { "deltaTime": 0, "channel": 9, "type": "channel", "subtype": "noteOff", "noteNumber": 70, "velocity": 64 }, { "deltaTime": 72, "channel": 9, "type": "channel", "noteNumber": 42, "velocity": 50, "subtype": "noteOn" }, { "deltaTime": 0, "channel": 9, "type": "channel", "noteNumber": 70, "velocity": 35, "subtype": "noteOn" }, { "deltaTime": 24, "channel": 9, "type": "channel", "subtype": "noteOff", "noteNumber": 42, "velocity": 64 }, { "deltaTime": 0, "channel": 9, "type": "channel", "subtype": "noteOff", "noteNumber": 70, "velocity": 64 }, { "deltaTime": 72, "channel": 9, "type": "channel", "noteNumber": 35, "velocity": 80, "subtype": "noteOn" }, { "deltaTime": 0, "channel": 9, "type": "channel", "noteNumber": 42, "velocity": 66, "subtype": "noteOn" }, { "deltaTime": 0, "channel": 9, "type": "channel", "noteNumber": 70, "velocity": 51, "subtype": "noteOn" }, { "deltaTime": 24, "channel": 9, "type": "channel", "subtype": "noteOff", "noteNumber": 35, "velocity": 64 }, { "deltaTime": 0, "channel": 9, "type": "channel", "subtype": "noteOff", "noteNumber": 42, "velocity": 64 }, { "deltaTime": 0, "channel": 9, "type": "channel", "subtype": "noteOff", "noteNumber": 70, "velocity": 64 }, { "deltaTime": 72, "channel": 9, "type": "channel", "noteNumber": 42, "velocity": 50, "subtype": "noteOn" }, { "deltaTime": 0, "channel": 9, "type": "channel", "noteNumber": 70, "velocity": 35, "subtype": "noteOn" }, { "deltaTime": 24, "channel": 9, "type": "channel", "subtype": "noteOff", "noteNumber": 42, "velocity": 64 }, { "deltaTime": 0, "channel": 9, "type": "channel", "subtype": "noteOff", "noteNumber": 70, "velocity": 64 }, { "deltaTime": 72, "channel": 9, "type": "channel", "noteNumber": 75, "velocity": 127, "subtype": "noteOn" }, { "deltaTime": 0, "channel": 9, "type": "channel", "noteNumber": 42, "velocity": 66, "subtype": "noteOn" }, { "deltaTime": 0, "channel": 9, "type": "channel", "noteNumber": 70, "velocity": 51, "subtype": "noteOn" }, { "deltaTime": 24, "channel": 9, "type": "channel", "subtype": "noteOff", "noteNumber": 75, "velocity": 64 }, { "deltaTime": 0, "channel": 9, "type": "channel", "subtype": "noteOff", "noteNumber": 42, "velocity": 64 }, { "deltaTime": 0, "channel": 9, "type": "channel", "subtype": "noteOff", "noteNumber": 70, "velocity": 64 }, { "deltaTime": 72, "channel": 9, "type": "channel", "noteNumber": 35, "velocity": 80, "subtype": "noteOn" }, { "deltaTime": 0, "channel": 9, "type": "channel", "noteNumber": 42, "velocity": 50, "subtype": "noteOn" }, { "deltaTime": 0, "channel": 9, "type": "channel", "noteNumber": 70, "velocity": 35, "subtype": "noteOn" }, { "deltaTime": 24, "channel": 9, "type": "channel", "subtype": "noteOff", "noteNumber": 35, "velocity": 64 }, { "deltaTime": 0, "channel": 9, "type": "channel", "subtype": "noteOff", "noteNumber": 42, "velocity": 64 }, { "deltaTime": 0, "channel": 9, "type": "channel", "subtype": "noteOff", "noteNumber": 70, "velocity": 64 }, { "deltaTime": 72, "channel": 9, "type": "channel", "noteNumber": 35, "velocity": 80, "subtype": "noteOn" }, { "deltaTime": 0, "channel": 9, "type": "channel", "noteNumber": 42, "velocity": 66, "subtype": "noteOn" }, { "deltaTime": 0, "channel": 9, "type": "channel", "noteNumber": 70, "velocity": 51, "subtype": "noteOn" }, { "deltaTime": 24, "channel": 9, "type": "channel", "subtype": "noteOff", "noteNumber": 35, "velocity": 64 }, { "deltaTime": 0, "channel": 9, "type": "channel", "subtype": "noteOff", "noteNumber": 42, "velocity": 64 }, { "deltaTime": 0, "channel": 9, "type": "channel", "subtype": "noteOff", "noteNumber": 70, "velocity": 64 }, { "deltaTime": 72, "channel": 9, "type": "channel", "noteNumber": 42, "velocity": 50, "subtype": "noteOn" }, { "deltaTime": 0, "channel": 9, "type": "channel", "noteNumber": 70, "velocity": 35, "subtype": "noteOn" }, { "deltaTime": 24, "channel": 9, "type": "channel", "subtype": "noteOff", "noteNumber": 42, "velocity": 64 }, { "deltaTime": 0, "channel": 9, "type": "channel", "subtype": "noteOff", "noteNumber": 70, "velocity": 64 }, { "deltaTime": 72, "channel": 9, "type": "channel", "noteNumber": 75, "velocity": 127, "subtype": "noteOn" }, { "deltaTime": 0, "channel": 9, "type": "channel", "noteNumber": 42, "velocity": 66, "subtype": "noteOn" }, { "deltaTime": 0, "channel": 9, "type": "channel", "noteNumber": 70, "velocity": 51, "subtype": "noteOn" }, { "deltaTime": 24, "channel": 9, "type": "channel", "subtype": "noteOff", "noteNumber": 75, "velocity": 64 }, { "deltaTime": 0, "channel": 9, "type": "channel", "subtype": "noteOff", "noteNumber": 42, "velocity": 64 }, { "deltaTime": 0, "channel": 9, "type": "channel", "subtype": "noteOff", "noteNumber": 70, "velocity": 64 }, { "deltaTime": 72, "channel": 9, "type": "channel", "noteNumber": 42, "velocity": 50, "subtype": "noteOn" }, { "deltaTime": 0, "channel": 9, "type": "channel", "noteNumber": 70, "velocity": 35, "subtype": "noteOn" }, { "deltaTime": 24, "channel": 9, "type": "channel", "subtype": "noteOff", "noteNumber": 42, "velocity": 64 }, { "deltaTime": 0, "channel": 9, "type": "channel", "subtype": "noteOff", "noteNumber": 70, "velocity": 64 }, { "deltaTime": 72, "channel": 9, "type": "channel", "noteNumber": 35, "velocity": 80, "subtype": "noteOn" }, { "deltaTime": 0, "channel": 9, "type": "channel", "noteNumber": 42, "velocity": 66, "subtype": "noteOn" }, { "deltaTime": 0, "channel": 9, "type": "channel", "noteNumber": 70, "velocity": 51, "subtype": "noteOn" }, { "deltaTime": 24, "channel": 9, "type": "channel", "subtype": "noteOff", "noteNumber": 35, "velocity": 64 }, { "deltaTime": 0, "channel": 9, "type": "channel", "subtype": "noteOff", "noteNumber": 42, "velocity": 64 }, { "deltaTime": 0, "channel": 9, "type": "channel", "subtype": "noteOff", "noteNumber": 70, "velocity": 64 }, { "deltaTime": 72, "channel": 9, "type": "channel", "noteNumber": 42, "velocity": 50, "subtype": "noteOn" }, { "deltaTime": 0, "channel": 9, "type": "channel", "noteNumber": 70, "velocity": 35, "subtype": "noteOn" }, { "deltaTime": 24, "channel": 9, "type": "channel", "subtype": "noteOff", "noteNumber": 42, "velocity": 64 }, { "deltaTime": 0, "channel": 9, "type": "channel", "subtype": "noteOff", "noteNumber": 70, "velocity": 64 }, { "deltaTime": 72, "channel": 9, "type": "channel", "noteNumber": 75, "velocity": 127, "subtype": "noteOn" }, { "deltaTime": 0, "channel": 9, "type": "channel", "noteNumber": 42, "velocity": 66, "subtype": "noteOn" }, { "deltaTime": 0, "channel": 9, "type": "channel", "noteNumber": 70, "velocity": 51, "subtype": "noteOn" }, { "deltaTime": 24, "channel": 9, "type": "channel", "subtype": "noteOff", "noteNumber": 75, "velocity": 64 }, { "deltaTime": 0, "channel": 9, "type": "channel", "subtype": "noteOff", "noteNumber": 42, "velocity": 64 }, { "deltaTime": 0, "channel": 9, "type": "channel", "subtype": "noteOff", "noteNumber": 70, "velocity": 64 }, { "deltaTime": 72, "channel": 9, "type": "channel", "noteNumber": 35, "velocity": 80, "subtype": "noteOn" }, { "deltaTime": 0, "channel": 9, "type": "channel", "noteNumber": 42, "velocity": 50, "subtype": "noteOn" }, { "deltaTime": 0, "channel": 9, "type": "channel", "noteNumber": 70, "velocity": 35, "subtype": "noteOn" }, { "deltaTime": 24, "channel": 9, "type": "channel", "subtype": "noteOff", "noteNumber": 35, "velocity": 64 }, { "deltaTime": 0, "channel": 9, "type": "channel", "subtype": "noteOff", "noteNumber": 42, "velocity": 64 }, { "deltaTime": 0, "channel": 9, "type": "channel", "subtype": "noteOff", "noteNumber": 70, "velocity": 64 }, { "deltaTime": 72, "channel": 9, "type": "channel", "noteNumber": 35, "velocity": 80, "subtype": "noteOn" }, { "deltaTime": 0, "channel": 9, "type": "channel", "noteNumber": 42, "velocity": 66, "subtype": "noteOn" }, { "deltaTime": 0, "channel": 9, "type": "channel", "noteNumber": 70, "velocity": 51, "subtype": "noteOn" }, { "deltaTime": 24, "channel": 9, "type": "channel", "subtype": "noteOff", "noteNumber": 35, "velocity": 64 }, { "deltaTime": 0, "channel": 9, "type": "channel", "subtype": "noteOff", "noteNumber": 42, "velocity": 64 }, { "deltaTime": 0, "channel": 9, "type": "channel", "subtype": "noteOff", "noteNumber": 70, "velocity": 64 }, { "deltaTime": 72, "channel": 9, "type": "channel", "noteNumber": 42, "velocity": 50, "subtype": "noteOn" }, { "deltaTime": 0, "channel": 9, "type": "channel", "noteNumber": 70, "velocity": 35, "subtype": "noteOn" }, { "deltaTime": 24, "channel": 9, "type": "channel", "subtype": "noteOff", "noteNumber": 42, "velocity": 64 }, { "deltaTime": 0, "channel": 9, "type": "channel", "subtype": "noteOff", "noteNumber": 70, "velocity": 64 }, { "deltaTime": 72, "channel": 9, "type": "channel", "noteNumber": 75, "velocity": 127, "subtype": "noteOn" }, { "deltaTime": 0, "channel": 9, "type": "channel", "noteNumber": 42, "velocity": 66, "subtype": "noteOn" }, { "deltaTime": 0, "channel": 9, "type": "channel", "noteNumber": 70, "velocity": 51, "subtype": "noteOn" }, { "deltaTime": 24, "channel": 9, "type": "channel", "subtype": "noteOff", "noteNumber": 75, "velocity": 64 }, { "deltaTime": 0, "channel": 9, "type": "channel", "subtype": "noteOff", "noteNumber": 42, "velocity": 64 }, { "deltaTime": 0, "channel": 9, "type": "channel", "subtype": "noteOff", "noteNumber": 70, "velocity": 64 }, { "deltaTime": 72, "channel": 9, "type": "channel", "noteNumber": 42, "velocity": 50, "subtype": "noteOn" }, { "deltaTime": 0, "channel": 9, "type": "channel", "noteNumber": 70, "velocity": 35, "subtype": "noteOn" }, { "deltaTime": 24, "channel": 9, "type": "channel", "subtype": "noteOff", "noteNumber": 42, "velocity": 64 }, { "deltaTime": 0, "channel": 9, "type": "channel", "subtype": "noteOff", "noteNumber": 70, "velocity": 64 }, { "deltaTime": 72, "channel": 9, "type": "channel", "noteNumber": 35, "velocity": 80, "subtype": "noteOn" }, { "deltaTime": 0, "channel": 9, "type": "channel", "noteNumber": 42, "velocity": 66, "subtype": "noteOn" }, { "deltaTime": 0, "channel": 9, "type": "channel", "noteNumber": 70, "velocity": 51, "subtype": "noteOn" }, { "deltaTime": 24, "channel": 9, "type": "channel", "subtype": "noteOff", "noteNumber": 35, "velocity": 64 }, { "deltaTime": 0, "channel": 9, "type": "channel", "subtype": "noteOff", "noteNumber": 42, "velocity": 64 }, { "deltaTime": 0, "channel": 9, "type": "channel", "subtype": "noteOff", "noteNumber": 70, "velocity": 64 }, { "deltaTime": 72, "channel": 9, "type": "channel", "noteNumber": 42, "velocity": 50, "subtype": "noteOn" }, { "deltaTime": 0, "channel": 9, "type": "channel", "noteNumber": 70, "velocity": 35, "subtype": "noteOn" }, { "deltaTime": 24, "channel": 9, "type": "channel", "subtype": "noteOff", "noteNumber": 42, "velocity": 64 }, { "deltaTime": 0, "channel": 9, "type": "channel", "subtype": "noteOff", "noteNumber": 70, "velocity": 64 }, { "deltaTime": 72, "channel": 9, "type": "channel", "noteNumber": 75, "velocity": 127, "subtype": "noteOn" }, { "deltaTime": 0, "channel": 9, "type": "channel", "noteNumber": 42, "velocity": 66, "subtype": "noteOn" }, { "deltaTime": 0, "channel": 9, "type": "channel", "noteNumber": 70, "velocity": 51, "subtype": "noteOn" }, { "deltaTime": 24, "channel": 9, "type": "channel", "subtype": "noteOff", "noteNumber": 75, "velocity": 64 }, { "deltaTime": 0, "channel": 9, "type": "channel", "subtype": "noteOff", "noteNumber": 42, "velocity": 64 }, { "deltaTime": 0, "channel": 9, "type": "channel", "subtype": "noteOff", "noteNumber": 70, "velocity": 64 }, { "deltaTime": 72, "channel": 9, "type": "channel", "noteNumber": 35, "velocity": 80, "subtype": "noteOn" }, { "deltaTime": 0, "channel": 9, "type": "channel", "noteNumber": 42, "velocity": 50, "subtype": "noteOn" }, { "deltaTime": 0, "channel": 9, "type": "channel", "noteNumber": 70, "velocity": 35, "subtype": "noteOn" }, { "deltaTime": 24, "channel": 9, "type": "channel", "subtype": "noteOff", "noteNumber": 35, "velocity": 64 }, { "deltaTime": 0, "channel": 9, "type": "channel", "subtype": "noteOff", "noteNumber": 42, "velocity": 64 }, { "deltaTime": 0, "channel": 9, "type": "channel", "subtype": "noteOff", "noteNumber": 70, "velocity": 64 }, { "deltaTime": 72, "channel": 9, "type": "channel", "noteNumber": 35, "velocity": 80, "subtype": "noteOn" }, { "deltaTime": 0, "channel": 9, "type": "channel", "noteNumber": 42, "velocity": 66, "subtype": "noteOn" }, { "deltaTime": 0, "channel": 9, "type": "channel", "noteNumber": 70, "velocity": 51, "subtype": "noteOn" }, { "deltaTime": 24, "channel": 9, "type": "channel", "subtype": "noteOff", "noteNumber": 35, "velocity": 64 }, { "deltaTime": 0, "channel": 9, "type": "channel", "subtype": "noteOff", "noteNumber": 42, "velocity": 64 }, { "deltaTime": 0, "channel": 9, "type": "channel", "subtype": "noteOff", "noteNumber": 70, "velocity": 64 }, { "deltaTime": 72, "channel": 9, "type": "channel", "noteNumber": 38, "velocity": 112, "subtype": "noteOn" }, { "deltaTime": 24, "channel": 9, "type": "channel", "subtype": "noteOff", "noteNumber": 38, "velocity": 64 }, { "deltaTime": 72, "channel": 9, "type": "channel", "noteNumber": 38, "velocity": 127, "subtype": "noteOn" }, { "deltaTime": 24, "channel": 9, "type": "channel", "subtype": "noteOff", "noteNumber": 38, "velocity": 64 }, { "deltaTime": 24, "channel": 9, "type": "channel", "noteNumber": 47, "velocity": 96, "subtype": "noteOn" }, { "deltaTime": 24, "channel": 9, "type": "channel", "subtype": "noteOff", "noteNumber": 47, "velocity": 64 }, { "deltaTime": 24, "channel": 9, "type": "channel", "noteNumber": 45, "velocity": 96, "subtype": "noteOn" }, { "deltaTime": 24, "channel": 9, "type": "channel", "subtype": "noteOff", "noteNumber": 45, "velocity": 64 }, { "deltaTime": 72, "channel": 9, "type": "channel", "noteNumber": 35, "velocity": 80, "subtype": "noteOn" }, { "deltaTime": 0, "channel": 9, "type": "channel", "noteNumber": 51, "velocity": 127, "subtype": "noteOn" }, { "deltaTime": 24, "channel": 9, "type": "channel", "subtype": "noteOff", "noteNumber": 35, "velocity": 64 }, { "deltaTime": 0, "channel": 9, "type": "channel", "subtype": "noteOff", "noteNumber": 51, "velocity": 64 }, { "deltaTime": 72, "channel": 9, "type": "channel", "noteNumber": 42, "velocity": 50, "subtype": "noteOn" }, { "deltaTime": 0, "channel": 9, "type": "channel", "noteNumber": 70, "velocity": 35, "subtype": "noteOn" }, { "deltaTime": 24, "channel": 9, "type": "channel", "subtype": "noteOff", "noteNumber": 42, "velocity": 64 }, { "deltaTime": 0, "channel": 9, "type": "channel", "subtype": "noteOff", "noteNumber": 70, "velocity": 64 }, { "deltaTime": 72, "channel": 9, "type": "channel", "noteNumber": 75, "velocity": 112, "subtype": "noteOn" }, { "deltaTime": 0, "channel": 9, "type": "channel", "noteNumber": 42, "velocity": 66, "subtype": "noteOn" }, { "deltaTime": 0, "channel": 9, "type": "channel", "noteNumber": 70, "velocity": 51, "subtype": "noteOn" }, { "deltaTime": 24, "channel": 9, "type": "channel", "subtype": "noteOff", "noteNumber": 75, "velocity": 64 }, { "deltaTime": 0, "channel": 9, "type": "channel", "subtype": "noteOff", "noteNumber": 42, "velocity": 64 }, { "deltaTime": 0, "channel": 9, "type": "channel", "subtype": "noteOff", "noteNumber": 70, "velocity": 64 }, { "deltaTime": 72, "channel": 9, "type": "channel", "noteNumber": 35, "velocity": 80, "subtype": "noteOn" }, { "deltaTime": 0, "channel": 9, "type": "channel", "noteNumber": 42, "velocity": 50, "subtype": "noteOn" }, { "deltaTime": 0, "channel": 9, "type": "channel", "noteNumber": 70, "velocity": 35, "subtype": "noteOn" }, { "deltaTime": 24, "channel": 9, "type": "channel", "subtype": "noteOff", "noteNumber": 35, "velocity": 64 }, { "deltaTime": 0, "channel": 9, "type": "channel", "subtype": "noteOff", "noteNumber": 42, "velocity": 64 }, { "deltaTime": 0, "channel": 9, "type": "channel", "subtype": "noteOff", "noteNumber": 70, "velocity": 64 }, { "deltaTime": 72, "channel": 9, "type": "channel", "noteNumber": 35, "velocity": 80, "subtype": "noteOn" }, { "deltaTime": 0, "channel": 9, "type": "channel", "noteNumber": 42, "velocity": 66, "subtype": "noteOn" }, { "deltaTime": 0, "channel": 9, "type": "channel", "noteNumber": 70, "velocity": 51, "subtype": "noteOn" }, { "deltaTime": 24, "channel": 9, "type": "channel", "subtype": "noteOff", "noteNumber": 35, "velocity": 64 }, { "deltaTime": 0, "channel": 9, "type": "channel", "subtype": "noteOff", "noteNumber": 42, "velocity": 64 }, { "deltaTime": 0, "channel": 9, "type": "channel", "subtype": "noteOff", "noteNumber": 70, "velocity": 64 }, { "deltaTime": 72, "channel": 9, "type": "channel", "noteNumber": 42, "velocity": 50, "subtype": "noteOn" }, { "deltaTime": 0, "channel": 9, "type": "channel", "noteNumber": 70, "velocity": 35, "subtype": "noteOn" }, { "deltaTime": 24, "channel": 9, "type": "channel", "subtype": "noteOff", "noteNumber": 42, "velocity": 64 }, { "deltaTime": 0, "channel": 9, "type": "channel", "subtype": "noteOff", "noteNumber": 70, "velocity": 64 }, { "deltaTime": 72, "channel": 9, "type": "channel", "noteNumber": 75, "velocity": 112, "subtype": "noteOn" }, { "deltaTime": 0, "channel": 9, "type": "channel", "noteNumber": 42, "velocity": 66, "subtype": "noteOn" }, { "deltaTime": 0, "channel": 9, "type": "channel", "noteNumber": 70, "velocity": 51, "subtype": "noteOn" }, { "deltaTime": 24, "channel": 9, "type": "channel", "subtype": "noteOff", "noteNumber": 75, "velocity": 64 }, { "deltaTime": 0, "channel": 9, "type": "channel", "subtype": "noteOff", "noteNumber": 42, "velocity": 64 }, { "deltaTime": 0, "channel": 9, "type": "channel", "subtype": "noteOff", "noteNumber": 70, "velocity": 64 }, { "deltaTime": 72, "channel": 9, "type": "channel", "noteNumber": 42, "velocity": 50, "subtype": "noteOn" }, { "deltaTime": 0, "channel": 9, "type": "channel", "noteNumber": 70, "velocity": 35, "subtype": "noteOn" }, { "deltaTime": 24, "channel": 9, "type": "channel", "subtype": "noteOff", "noteNumber": 42, "velocity": 64 }, { "deltaTime": 0, "channel": 9, "type": "channel", "subtype": "noteOff", "noteNumber": 70, "velocity": 64 }, { "deltaTime": 72, "channel": 9, "type": "channel", "noteNumber": 35, "velocity": 80, "subtype": "noteOn" }, { "deltaTime": 0, "channel": 9, "type": "channel", "noteNumber": 49, "velocity": 96, "subtype": "noteOn" }, { "deltaTime": 24, "channel": 9, "type": "channel", "subtype": "noteOff", "noteNumber": 35, "velocity": 64 }, { "deltaTime": 0, "channel": 9, "type": "channel", "subtype": "noteOff", "noteNumber": 49, "velocity": 64 }, { "deltaTime": 360, "channel": 9, "type": "channel", "noteNumber": 35, "velocity": 80, "subtype": "noteOn" }, { "deltaTime": 0, "channel": 9, "type": "channel", "noteNumber": 49, "velocity": 96, "subtype": "noteOn" }, { "deltaTime": 24, "channel": 9, "type": "channel", "subtype": "noteOff", "noteNumber": 35, "velocity": 64 }, { "deltaTime": 0, "channel": 9, "type": "channel", "subtype": "noteOff", "noteNumber": 49, "velocity": 64 }, { "deltaTime": 360, "channel": 9, "type": "channel", "noteNumber": 35, "velocity": 80, "subtype": "noteOn" }, { "deltaTime": 0, "channel": 9, "type": "channel", "noteNumber": 49, "velocity": 96, "subtype": "noteOn" }, { "deltaTime": 24, "channel": 9, "type": "channel", "subtype": "noteOff", "noteNumber": 35, "velocity": 64 }, { "deltaTime": 0, "channel": 9, "type": "channel", "subtype": "noteOff", "noteNumber": 49, "velocity": 64 }, { "deltaTime": 0, "type": "meta", "subtype": "endOfTrack" }]] }